<svg width="16" height="18" viewBox="0 0 16 18" fill="none" xmlns="http://www.w3.org/2000/svg">
<path fill-rule="evenodd" clip-rule="evenodd" d="M10.9167 2.125C9.1908 2.125 7.79171 3.52411 7.79171 5.25C7.79171 6.97589 9.1908 8.375 10.9167 8.375C12.6426 8.375 14.0417 6.97589 14.0417 5.25C14.0417 3.52411 12.6426 2.125 10.9167 2.125ZM6.54171 5.25C6.54171 2.83376 8.50044 0.875 10.9167 0.875C13.333 0.875 15.2917 2.83376 15.2917 5.25C15.2917 7.66624 13.333 9.625 10.9167 9.625C9.93528 9.625 9.02933 9.30185 8.29947 8.75614L4.71839 12.3345L5.94198 13.5581C6.18606 13.8021 6.18606 14.1979 5.94198 14.4419C5.6979 14.686 5.30218 14.686 5.0581 14.4419L3.83417 13.218L2.21743 14.8335L3.44198 16.0581C3.68606 16.3021 3.68606 16.6979 3.44198 16.9419C3.1979 17.186 2.80218 17.186 2.5581 16.9419L0.891432 15.2753C0.774193 15.158 0.708342 14.999 0.708374 14.8332C0.708406 14.6674 0.774318 14.5084 0.891602 14.3912L3.36316 11.9216C3.37219 11.9113 3.38161 11.9012 3.39143 11.8914C3.40137 11.8815 3.41155 11.8719 3.42197 11.8628L7.41486 7.87298C6.86656 7.14212 6.54171 6.234 6.54171 5.25Z" fill="#AD8361"/>
</svg>
