<svg width="191" height="28" viewBox="0 0 191 28" fill="none" xmlns="http://www.w3.org/2000/svg">
<path fill-rule="evenodd" clip-rule="evenodd" d="M7.38842 26.4895C5.26775 26.4895 2.12075 25.8813 0.234625 24.7546C0.591309 23.927 1.26061 23.3286 2.21373 23.8424C3.91388 24.7592 5.62929 25.1686 7.52998 25.1686C10.2617 25.1686 12.2456 23.5979 12.1086 20.7611C11.8303 14.8178 -0.0342754 13.9155 7.44418e-05 6.77551C0.0295668 1.50068 4.62759 0 9.03513 0C11.1607 0 13.2473 0.428866 15.2997 1.28589C14.9478 2.14362 14.3517 2.85663 13.3011 2.34319C11.84 1.63514 10.3883 1.3011 8.8443 1.3011C6.16189 1.3011 4.63731 2.79718 4.62759 5.03068C4.5981 10.7142 16.6532 11.562 16.8534 18.9762C17.0001 24.3257 12.6363 26.4895 7.38842 26.4895Z" fill="white"/>
<mask id="mask0_496_645" style="mask-type:luminance" maskUnits="userSpaceOnUse" x="80" y="7" width="18" height="21">
<path fill-rule="evenodd" clip-rule="evenodd" d="M80.9592 7.48636H97.0883V27.1448H80.9592V7.48636Z" fill="white"/>
</mask>
<g mask="url(#mask0_496_645)">
<path fill-rule="evenodd" clip-rule="evenodd" d="M85.5977 15.8555L92.8805 15.289C92.9005 12.7475 92.8068 8.55759 89.6083 8.55252C86.198 8.55252 85.6963 13.1557 85.5977 15.8555ZM89.6527 27.1447C87.2019 27.1447 84.6529 26.3993 83.0537 24.3276C81.5575 22.388 80.9967 19.9794 80.9621 17.5451C80.9177 14.5033 81.6609 12.0636 83.1966 10.232C84.7267 8.3996 86.8378 7.48615 89.5245 7.48615C90.8138 7.48615 91.9455 7.67992 92.9249 8.0729C93.8995 8.46589 94.6867 9.00701 95.2772 9.70605C95.8726 10.4051 96.3153 11.2063 96.6158 12.1096C96.9159 13.0082 97.0732 14.0031 97.0879 15.0952C97.098 15.662 97.0536 16.1926 96.9551 16.6776C96.9456 16.7283 96.9062 16.7642 96.8569 16.7642H85.6271C85.6963 19.8008 86.139 22.0001 86.9657 23.3677C87.7924 24.7358 89.1701 25.4196 91.0996 25.4196C93.1171 25.4196 94.6867 24.8173 96.2024 23.567C96.4631 23.7969 96.7339 24.4398 96.2073 24.9451C94.8292 26.2613 92.0689 27.1447 89.6527 27.1447Z" fill="white"/>
</g>
<path fill-rule="evenodd" clip-rule="evenodd" d="M97.5295 26.4889L104.723 18.0888L97.8041 8.4285H101.553C103.398 8.4285 103.123 9.15157 106.329 13.6329L107.431 15.1768L111.786 8.67264C111.918 8.47705 112.131 8.4285 112.334 8.4285H114.574L108.041 16.0563L115.591 26.4889H112.075C109.748 26.518 110.164 25.5751 107.071 21.3286L105.354 18.9683L100.395 26.2246C100.268 26.4105 100.064 26.4889 99.8007 26.4889H97.5295Z" fill="white"/>
<path fill-rule="evenodd" clip-rule="evenodd" d="M47.9893 24.3213V13.2855C47.9893 9.47447 46.5974 7.22443 43.0564 7.22443C40.0597 7.22443 38.0439 8.80098 36.4441 10.5763C35.8551 8.4588 34.4681 7.22443 31.7591 7.22443C29.2281 7.22443 27.1528 8.46966 25.4788 10.3366L25.2854 11.0054L25.5133 11.3468C26.8159 10.2041 28.3907 9.72938 29.6691 9.72938C32.1304 9.72938 32.3928 12.3879 32.3928 14.3873V24.3213L32.2243 26.4895H36.9147L36.7413 24.3213V11.3468C37.8709 10.3265 39.4457 9.72938 40.9168 9.72938C43.4822 9.72938 43.6409 12.6276 43.6409 14.3873V23.9382C43.6409 25.7396 44.1357 26.4895 45.2751 26.4895H48.1627L47.9893 24.3213Z" fill="white"/>
<path fill-rule="evenodd" clip-rule="evenodd" d="M78.0932 24.3365V13.2855C78.0932 9.51538 76.7257 7.22443 73.2285 7.22443C70.7469 7.22443 68.4173 8.44902 66.7417 10.3058L66.2239 11.2755L66.7708 11.3468C68.0947 10.2906 69.3305 9.72938 71.1184 9.72938C73.3652 9.72938 73.8046 11.9284 73.8046 14.3877V23.9386C73.8046 25.5405 74.1612 26.4895 75.4167 26.4895H78.2646L78.0932 24.3365Z" fill="white"/>
<path fill-rule="evenodd" clip-rule="evenodd" d="M56.5912 2.40832C56.5912 3.73696 55.5121 4.81628 54.1832 4.81628C52.8543 4.81628 51.7749 3.73696 51.7749 2.40832C51.7749 1.07932 52.8543 0 54.1832 0C55.5121 0 56.5912 1.07932 56.5912 2.40832Z" fill="white"/>
<path fill-rule="evenodd" clip-rule="evenodd" d="M51.7749 8.4285L51.9529 10.4906V24.4129L51.7749 26.4895H56.5912L56.4131 24.4129V10.8669C56.4131 9.47447 56.1488 8.4285 54.7401 8.4285H51.7749Z" fill="white"/>
<path fill-rule="evenodd" clip-rule="evenodd" d="M61.4075 8.4285L61.5855 10.4906L61.5804 24.4129L61.4075 26.4895H66.2237L66.0457 24.4129V11.3018L66.015 10.9893C66.015 9.59169 65.776 8.4285 64.3723 8.4285H61.4075Z" fill="white"/>
<path fill-rule="evenodd" clip-rule="evenodd" d="M20.4692 8.4285L20.6471 10.4906V24.4129L20.4692 26.4895H25.2855L25.1077 24.4129V11.3018L25.072 10.9893C25.072 9.59169 24.8386 8.4285 23.4313 8.4285H20.4692Z" fill="white"/>
<path d="M137.265 8.00302V26.6754H134.625V10.3237H130.41V8.00302H137.265Z" fill="white"/>
<path d="M146.685 15.4453C149.352 15.4453 151.308 15.9521 152.553 16.9657C153.816 17.9616 154.447 19.3309 154.447 21.0737C154.447 22.1762 154.18 23.1721 153.647 24.0612C153.131 24.9326 152.34 25.6262 151.273 26.1419C150.224 26.6398 148.925 26.8888 147.378 26.8888C146.062 26.8888 144.791 26.6931 143.564 26.3019C142.337 25.8929 141.323 25.3327 140.523 24.6214L141.75 22.5141C142.39 23.1187 143.208 23.6078 144.204 23.9812C145.2 24.3369 146.249 24.5147 147.352 24.5147C148.756 24.5147 149.841 24.2213 150.606 23.6344C151.388 23.0298 151.78 22.2118 151.78 21.1804C151.78 20.06 151.353 19.2153 150.499 18.6463C149.646 18.0594 148.187 17.766 146.124 17.766H141.883L142.87 8.00302H153.407V10.3237H145.111L144.604 15.4453H146.685Z" fill="white"/>
<path d="M169.907 17.2503V26.6754H168.2V18.7441H164.146L164.039 20.8425C163.98 22.111 163.867 23.1721 163.701 24.0257C163.535 24.8674 163.262 25.5432 162.883 26.0529C162.504 26.5627 161.976 26.8176 161.3 26.8176C160.992 26.8176 160.642 26.7643 160.251 26.6576L160.358 25.2171C160.512 25.2527 160.654 25.2705 160.785 25.2705C161.259 25.2705 161.615 25.063 161.852 24.6481C162.089 24.2331 162.243 23.7411 162.314 23.1721C162.385 22.603 162.45 21.7909 162.51 20.7358L162.67 17.2503H169.907Z" fill="white"/>
<path d="M181.727 22.0162C181.727 22.1466 181.715 22.3185 181.691 22.5319H174.044C174.151 23.3618 174.513 24.0316 175.129 24.5414C175.757 25.0393 176.534 25.2883 177.459 25.2883C178.585 25.2883 179.492 24.9089 180.179 24.1501L181.122 25.2527C180.695 25.7506 180.162 26.13 179.521 26.3908C178.893 26.6517 178.188 26.7821 177.405 26.7821C176.409 26.7821 175.526 26.5805 174.756 26.1774C173.985 25.7625 173.386 25.1875 172.959 24.4525C172.544 23.7174 172.337 22.8875 172.337 21.9628C172.337 21.0499 172.539 20.226 172.942 19.491C173.357 18.7559 173.92 18.1869 174.631 17.7838C175.354 17.3688 176.166 17.1614 177.067 17.1614C177.968 17.1614 178.769 17.3688 179.468 17.7838C180.179 18.1869 180.731 18.7559 181.122 19.491C181.525 20.226 181.727 21.0677 181.727 22.0162ZM177.067 18.6018C176.249 18.6018 175.562 18.8508 175.005 19.3487C174.459 19.8466 174.139 20.4987 174.044 21.3048H180.09C179.996 20.5105 179.67 19.8644 179.112 19.3665C178.567 18.8567 177.885 18.6018 177.067 18.6018Z" fill="white"/>
<path d="M191 18.7441H187.55V26.6754H185.843V18.7441H182.393V17.2503H191V18.7441Z" fill="white"/>
<circle cx="122.259" cy="17.0422" r="2.2229" fill="white"/>
</svg>
