<svg width="32" height="32" viewBox="0 0 32 32" fill="none" xmlns="http://www.w3.org/2000/svg">
<path fill-rule="evenodd" clip-rule="evenodd" d="M4.70711 27.7071C4.31658 27.3166 4.28141 26.7186 4.62854 26.3715L25.9989 5.00112C26.346 4.65399 26.944 4.68917 27.3345 5.07969C27.725 5.47021 27.7602 6.0682 27.4131 6.41534L6.04275 27.7857C5.69562 28.1328 5.09763 28.0976 4.70711 27.7071Z" fill="white"/>
<path fill-rule="evenodd" clip-rule="evenodd" d="M4.7072 4.70711C5.09772 4.31658 5.69571 4.28141 6.04285 4.62854L27.4132 25.9989C27.7603 26.346 27.7251 26.944 27.3346 27.3345C26.9441 27.725 26.3461 27.7602 25.999 27.4131L4.62863 6.04275C4.2815 5.69562 4.31668 5.09763 4.7072 4.70711Z" fill="white"/>
</svg>
