<svg width="30" height="30" viewBox="0 0 30 30" fill="none" xmlns="http://www.w3.org/2000/svg">
<path d="M18.245 21.8005L22.7283 26.1288C23.6467 27.0135 23.6467 28.4503 22.7283 29.336C21.8108 30.2217 20.3237 30.2217 19.4072 29.336L14.9992 25.0828L10.595 29.336C10.1358 29.7784 9.53405 29.9998 8.93231 29.9998C8.33152 29.9998 7.73073 29.7784 7.27151 29.336C6.35402 28.4503 6.35402 27.0144 7.27055 26.1288L11.7544 21.8005C10.1219 21.4416 8.54746 20.8172 7.09732 19.9389C5.99988 19.271 5.67021 17.8716 6.36169 16.8113C7.05125 15.7497 8.50139 15.4301 9.60075 16.098C12.884 18.0916 17.1134 18.0921 20.3986 16.098C21.4979 15.4301 22.9476 15.7497 23.6386 16.8113C24.3301 17.8707 23.9994 19.271 22.902 19.9389C21.4519 20.8181 19.8774 21.4416 18.245 21.8005Z" fill="white"/>
<path fill-rule="evenodd" clip-rule="evenodd" d="M6.95996 7.74204C6.95996 12.01 10.557 15.4818 14.9799 15.4818C19.4037 15.4818 22.9998 12.01 22.9998 7.74204C22.9998 3.47266 19.4037 0 14.9799 0C10.557 0 6.95996 3.47266 6.95996 7.74204ZM18.3004 7.74118C18.3004 5.97359 16.8109 4.53625 14.9797 4.53625C13.15 4.53625 11.6591 5.97359 11.6591 7.74118C11.6591 9.50739 13.15 10.9456 14.9797 10.9456C16.8109 10.9456 18.3004 9.50739 18.3004 7.74118Z" fill="white"/>
</svg>
