<svg width="60" height="60" fill="none" xmlns="http://www.w3.org/2000/svg">
	<path
		d="M26.9 21.2c.3.6.1 1.4-.5 1.7-.5.3-1.3.1-1.6-.5-.3-.6 0-1.4.5-1.7.6-.3 1.3-.1 1.6.5ZM21.1 31c-.4.2-.5.6-.3 1s.6.5 1 .3c.3-.2.4-.6.3-1-.3-.4-.7-.5-1-.3Zm-.2-3c-.3.2-.5.7-.3 1.2.3.4.7.5 1.1.3.4-.2.6-.7.4-1.2a.8.8 0 0 0-1.2-.3Zm.8-3a1 1 0 0 0-.4 1.4c.3.5.8.7 1.3.4.4-.2.6-.8.3-1.3-.2-.5-.8-.7-1.2-.4Zm1.5-2.4c-.5.3-.7 1-.4 1.5.2.5.8.8 1.3.5.5-.3.8-1 .5-1.5a1 1 0 0 0-1.4-.5ZM22 33.9c-.3.1-.4.5-.3.8.2.3.5.4.8.2.3-.1.4-.5.2-.8a.6.6 0 0 0-.8-.2Zm13.3-10.3c.2.3.6.5 1 .3.3-.2.4-.6.3-1a.7.7 0 0 0-1-.3c-.3.2-.5.6-.3 1ZM33.1 22c.2.4.7.6 1 .4.5-.3.6-.8.4-1.2a.8.8 0 0 0-1.1-.4c-.4.2-.5.8-.3 1.2Zm-2.8-.8c.3.5.8.7 1.3.4.4-.2.6-.8.3-1.3-.2-.5-.8-.7-1.2-.4-.4.2-.6.9-.3 1.3Zm-2.8.1c.3.6 1 .8 1.4.5.5-.3.7-1 .5-1.5a1 1 0 0 0-1.5-.4c-.4.3-.6 1-.4 1.4Zm9.7 4.6c.1.3.5.4.8.2.3-.2.4-.5.2-.8-.1-.3-.5-.4-.8-.3-.3.2-.4.6-.2.9Zm-2 11.7c-.3-.6-1-.9-1.6-.6-.6.4-.8 1.1-.5 1.7.3.7 1 .9 1.6.5.6-.3.8-1 .5-1.6Zm-10.6-1.2a.7.7 0 0 0-1-.3c-.3.2-.4.6-.2 1 .2.3.6.4.9.3.3-.2.4-.7.3-1Zm2.3 1.5a.8.8 0 0 0-1-.3c-.5.2-.6.7-.4 1.1.2.5.7.7 1.1.4.4-.2.5-.7.3-1.2Zm2.8.8a.9.9 0 0 0-1.3-.4 1 1 0 0 0-.4 1.4c.3.5.8.6 1.3.4.4-.3.6-.9.3-1.4Zm2.8 0c-.3-.6-.9-.8-1.4-.5-.5.2-.7 1-.4 1.4.3.6.9.8 1.4.5.5-.3.6-1 .4-1.5Zm6.4-9.7c.4-.2.5-.7.3-1a.7.7 0 0 0-.9-.3c-.3.2-.5.6-.3 1 .2.3.6.4 1 .3Zm.1 3c.5-.3.6-.8.4-1.2-.2-.4-.7-.6-1.1-.3-.4.2-.5.7-.3 1.1.2.4.7.6 1 .4Zm-.7 2.9c.5-.3.7-.9.4-1.3-.3-.5-.8-.7-1.3-.4a1 1 0 0 0-.3 1.3c.2.4.8.6 1.2.4Zm-1.5 2.5c.5-.3.7-1 .5-1.5-.3-.6-1-.8-1.4-.5-.5.3-.8 1-.5 1.5.3.6.9.7 1.4.5Zm-2-19.2c-.2.9-1 1.3-1.8 1-.9-.1-1.3-1-1-2 .2-.8 1-1.3 1.8-1 .8.3 1.3 1.1 1 2ZM20.3 22a.8.8 0 0 0-1 .6c0 .4.2.8.6 1 .4 0 .8-.2 1-.6a.8.8 0 0 0-.6-1Zm2.6-3c-.4-.2-1 0-1.1.6-.2.5.1 1 .6 1.2.5.2 1-.1 1.2-.6.1-.6-.2-1.1-.7-1.3Zm3.4-2.2c-.6-.2-1.3.1-1.4.8-.2.7.1 1.4.8 1.6.6.1 1.2-.2 1.4-.9.2-.6-.2-1.3-.8-1.5Zm3.7-1c-.7-.1-1.4.3-1.6 1-.2.8.2 1.5.9 1.7.6.3 1.4-.2 1.6-1 .2-.6-.1-1.4-.9-1.6Zm-11.4 10c-.3 0-.6 0-.6.4-.1.3 0 .6.4.8.3 0 .6-.1.7-.4 0-.4-.2-.7-.5-.8Zm22.7 3.6c-.1.4 0 .9.5 1 .4.1.8-.1.9-.5a.8.8 0 0 0-.5-1c-.4-.2-.8 0-1 .5Zm-.9-4c-.1.5.1 1 .6 1.2.5.2 1-.1 1.2-.6a1 1 0 0 0-.7-1.3 1 1 0 0 0-1.1.7Zm-2-3.6c-.2.7.1 1.4.8 1.6.6.2 1.3-.2 1.4-.9.2-.6-.1-1.3-.8-1.5-.6-.2-1.3.2-1.4.8Zm-2.9-2.7c-.2.7.2 1.5.9 1.7.7.2 1.4-.2 1.6-1 .2-.7-.2-1.5-.9-1.7-.6-.2-1.4.2-1.6 1ZM41 33.4c-.1.3 0 .7.4.8.3 0 .6-.1.6-.4.1-.4 0-.7-.3-.8a.5.5 0 0 0-.7.4Zm-13 9.3c.3-.9-.1-1.8-1-2-.8-.3-1.6.2-1.8 1-.3 1 .2 1.8 1 2 .8.3 1.7-.2 1.9-1Zm-9.3-12.1a.8.8 0 0 0-.5-1c-.4-.1-.8.1-.9.5-.1.4.1.9.5 1 .4.1.8-.1 1-.5Zm.9 4c.1-.6-.1-1.1-.6-1.3-.5-.1-1 .2-1.2.7-.1.5.2 1 .6 1.2.6.2 1-.1 1.2-.7Zm2 3.5c.2-.6-.2-1.3-.8-1.5-.6-.2-1.3.1-1.4.8-.2.7.2 1.4.8 1.6.6.2 1.3-.2 1.4-.9Zm2.9 2.8c.2-.7-.2-1.5-.9-1.7-.7-.2-1.4.2-1.6.9-.2.8.2 1.5.9 1.8.7.2 1.4-.2 1.6-1Zm15.2-3c.4.2.8 0 1-.5a.8.8 0 0 0-.6-1c-.4 0-.8.2-.9.6-.1.4.1.8.5 1ZM37.1 41c.4.2 1-.1 1.1-.6.2-.5-.1-1.1-.6-1.3-.5-.1-1 .2-1.1.7-.2.5 0 1 .6 1.2Zm-3.4 2.2c.6.2 1.3-.2 1.4-.8.2-.7-.1-1.4-.8-1.6-.6-.2-1.2.2-1.4.9-.2.6.2 1.3.8 1.5Zm-3.7.9c.7.2 1.4-.2 1.6-1 .2-.7-.2-1.5-.9-1.7-.7-.2-1.4.2-1.6 1-.2.7.2 1.5.9 1.7Zm12.4-25c-.8.7-2 .8-2.8 0-.8-.8-.8-2 0-3 .7-.7 1.9-.8 2.7 0 .8.8.8 2.1 0 3ZM23 14.2a1 1 0 0 0-1.4 0 1 1 0 0 0 0 1.5c.4.4 1 .4 1.4 0 .4-.4.4-1 0-1.5Zm4.9-2c-.5-.4-1.3-.4-1.7.1-.5.5-.4 1.3 0 1.8.5.5 1.3.4 1.7 0 .5-.6.4-1.4 0-1.9ZM33 12c-.5-.6-1.5-.5-2 .1-.6.7-.6 1.7 0 2.3.6.5 1.5.5 2.1 0 .6-.7.5-1.7 0-2.4Zm5 1.4c-.7-.7-1.8-.7-2.4 0-.6.8-.6 2 0 2.6.8.7 1.8.7 2.5 0a2 2 0 0 0-.1-2.6Zm-19.1 4.5a.7.7 0 0 0-1 0c-.3.3-.3.8 0 1 .3.4.7.3 1 0 .3-.3.3-.7 0-1Zm24.9 18.8a1 1 0 0 0 0 1.4c.4.4 1 .3 1.4 0 .3-.5.3-1.1-.1-1.5a1 1 0 0 0-1.4 0Zm1.2-5.3c-.5.5-.4 1.3 0 1.8.5.5 1.3.4 1.7 0 .5-.6.4-1.4 0-1.9-.5-.4-1.3-.4-1.7 0Zm-.4-5.6c-.6.7-.6 1.7 0 2.3.6.6 1.6.6 2.2 0 .5-.7.5-1.7-.1-2.3-.6-.6-1.5-.6-2.1 0Zm-1.8-5.1c-.6.7-.6 1.8 0 2.5.8.7 1.8.7 2.5 0 .6-.8.6-2-.1-2.6-.7-.7-1.8-.7-2.4 0ZM41.1 41c-.3.4-.2.8 0 1.1.3.3.8.3 1 0 .3-.3.3-.8 0-1V41c-.3-.3-.7-.3-1 0Zm-20.7 2.7c.8-.9.7-2.2 0-3-.8-.7-2-.6-2.8.1-.7.9-.6 2.2.2 3 .8.7 2 .7 2.6-.1Zm-4.1-20.4c.3-.4.3-1-.1-1.4-.4-.4-1-.4-1.3 0a1 1 0 0 0 0 1.5c.4.3 1 .3 1.3 0ZM15 28.7c.5-.5.4-1.3 0-1.8-.5-.5-1.3-.4-1.7.1-.4.5-.4 1.3 0 1.7.5.5 1.3.5 1.7 0Zm.4 5.5c.6-.6.5-1.6 0-2.2-.7-.6-1.6-.6-2.2 0-.6.7-.5 1.7 0 2.3.7.6 1.6.6 2.2 0Zm1.8 5.2c.7-.7.6-1.9 0-2.5-.7-.7-1.8-.7-2.4 0-.7.7-.7 1.9 0 2.6.7.7 1.8.6 2.4 0ZM37 45.7c.4.4 1 .3 1.4 0 .3-.5.3-1.1 0-1.5-.4-.4-1-.4-1.4 0-.4.4-.4 1 0 1.5Zm-4.8 2c.4.4 1.2.4 1.6-.1.5-.5.5-1.3 0-1.8s-1.2-.5-1.7 0c-.4.6-.4 1.3 0 1.8Zm-5.3.3c.7.6 1.6.6 2.2 0 .5-.7.5-1.7 0-2.3-.7-.6-1.6-.6-2.2 0-.6.7-.5 1.7 0 2.3ZM22 46.7c.7.7 1.8.6 2.4-.1.7-.7.6-1.9 0-2.6-.8-.7-1.8-.6-2.5.1a2 2 0 0 0 .1 2.6Zm28.3-23.3c-1.2.6-2.6 0-3.1-1.3s0-2.8 1.2-3.3 2.6.1 3 1.4c.6 1.2 0 2.7-1.1 3.2Zm-16.6-16c-.1-.7-.8-1.2-1.5-1-.7 0-1.2.8-1 1.6.2.7.8 1.2 1.6 1 .6-.1 1-.8 1-1.5Zm5.6 1.3c-.2-.9-1-1.4-1.9-1.2-.9.2-1.4 1.1-1.1 2 .2 1 1 1.5 1.9 1.2.8-.2 1.3-1 1.1-2Zm5.2 2.7A2 2 0 0 0 42 10c-1 .4-1.6 1.5-1.3 2.6a2 2 0 0 0 2.5 1.3 2 2 0 0 0 1.3-2.5Zm4 3.9c-.4-1.2-1.6-1.8-2.7-1.4-1.1.4-1.7 1.8-1.3 3 .5 1.2 1.7 1.8 2.8 1.3 1.1-.4 1.7-1.7 1.3-3ZM22.6 9a1 1 0 0 0-1.2-.5 1 1 0 0 0-.5 1.3c.2.5.8.7 1.3.5.4-.2.6-.8.4-1.3Zm23.6 33.3c-.5.4-.6 1.3-.2 1.9.4.6 1.2.7 1.8.3.5-.4.7-1.3.3-1.9-.5-.6-1.3-.8-1.9-.3Zm2.6-5.4c-.7.4-1 1.5-.5 2.3.4.8 1.4 1 2.2.5.8-.5 1-1.5.5-2.3-.5-.8-1.4-1-2.2-.5Zm1.3-6.1c-1 .5-1.3 1.8-.8 2.8.5 1 1.7 1.4 2.7.8 1-.6 1.3-1.8.7-2.8a2 2 0 0 0-2.6-.8Zm-.1-6.1c-1.1.5-1.5 2-1 3a2.1 2.1 0 0 0 2.9 1c1-.5 1.5-1.9 1-3a2.1 2.1 0 0 0-3-1Zm-12 25c-.4.2-.6.8-.4 1.3.2.5.8.7 1.2.5.5-.2.7-.8.5-1.3-.2-.5-.8-.8-1.2-.6Zm-26.3-8.5c1.2-.6 1.8-2 1.2-3.3-.5-1.3-1.9-1.9-3-1.3-1.3.5-1.8 2-1.3 3.3a2.3 2.3 0 0 0 3.1 1.3Zm2.3-23.5c.5-.4.7-1.3.3-1.9-.4-.6-1.3-.8-1.8-.3-.6.4-.8 1.3-.4 1.9.4.6 1.3.8 1.8.3Zm-2.6 5.4c.7-.5 1-1.5.4-2.3-.4-.8-1.4-1-2.1-.5-.8.5-1 1.5-.5 2.3.5.8 1.4 1 2.2.5ZM10 29.2c1-.5 1.4-1.8.9-2.8a2 2 0 0 0-2.7-.9c-1 .6-1.3 2-.8 3a2 2 0 0 0 2.7.7Zm.1 6.1c1.1-.6 1.5-2 1-3a2.1 2.1 0 0 0-2.9-1.1c-1.1.5-1.5 2-1 3a2.2 2.2 0 0 0 3 1.1Zm16.2 17.2c.1.8.8 1.3 1.5 1.1.7-.1 1.1-.9 1-1.6-.1-.8-.8-1.2-1.5-1.1-.7.2-1.2.9-1 1.6Zm-5.6-1.3c.2 1 1 1.5 1.9 1.3.8-.3 1.3-1.2 1.1-2-.2-1-1-1.5-1.9-1.3-.8.2-1.3 1.1-1.1 2Zm-5.1-2.6A2 2 0 0 0 18 50c1-.4 1.6-1.5 1.3-2.6C19 46.3 18 45.6 17 46c-1.1.3-1.7 1.5-1.3 2.6Zm-4.2-3.9a2.1 2.1 0 0 0 2.8 1.4c1.2-.5 1.7-1.9 1.3-3a2.1 2.1 0 0 0-2.8-1.4 2.3 2.3 0 0 0-1.3 3Zm31 2c-.4.4-.4 1-.1 1.5.4.5 1 .5 1.4.2.4-.3.5-1 .2-1.5-.4-.5-1-.6-1.4-.2ZM33 51.1a1 1 0 0 0-.9 1.2c.1.6.6 1 1.2 1 .5-.2 1-.7.8-1.3 0-.6-.5-1-1.1-1Zm-5-43.5c0-.5-.5-1-1.1-.9a1 1 0 0 0-.9 1.3c.1.5.7 1 1.2.9.5-.1 1-.7.8-1.3Zm-10.2 4.1a1 1 0 0 0-1.4-.2c-.5.4-.5 1.1-.2 1.6.4.4 1 .5 1.4.2.5-.4.6-1.1.2-1.6ZM57 33.2c-1.7 0-3-1.4-3-3.2 0-1.8 1.3-3.2 3-3.2 1.6 0 3 1.4 3 3.2 0 1.8-1.4 3.2-3 3.2ZM45 5.5c.2-1-.4-2-1.3-2.1-.8-.2-1.7.4-2 1.3-.1 1 .5 2 1.4 2.1.8.3 1.7-.4 2-1.3Zm6 4.5c.1-1.2-.6-2.3-1.7-2.4-1.1-.2-2.1.6-2.3 1.8-.1 1.1.6 2.2 1.7 2.4 1 .2 2.1-.6 2.3-1.8Zm7.8 12.7a3 3 0 0 0-2.7-3.1 2.9 2.9 0 0 0-2.9 2.8c-.1 1.6 1 3 2.6 3 1.5.2 2.9-1 3-2.7ZM31.2 1.3C31.2.6 30.7 0 30 0s-1.2.6-1.2 1.3c0 .7.6 1.3 1.2 1.3.7 0 1.2-.6 1.2-1.3Zm12 51.8c-1 .2-1.5 1.2-1.3 2.1.2 1 1 1.6 2 1.4.9-.2 1.4-1.1 1.2-2.1-.2-1-1-1.6-2-1.4Zm5.6-5a2.1 2.1 0 0 0-1.7 2.5c.1 1.2 1.2 2 2.3 1.8 1.1-.2 1.9-1.3 1.7-2.5-.2-1.1-1.3-1.9-2.3-1.7Zm4.3-6.4c-1.4.1-2.4 1.4-2.3 3a2.6 2.6 0 0 0 2.8 2.3C55 47 56 45.6 56 44a2.6 2.6 0 0 0-2.8-2.3Zm2.8-7.2c-1.5 0-2.7 1.4-2.6 3 0 1.7 1.4 3 2.9 2.9 1.5-.1 2.7-1.5 2.6-3.1 0-1.7-1.3-3-2.9-2.8ZM30 57.5c-.7 0-1.2.5-1.2 1.2S29.4 60 30 60c.7 0 1.2-.6 1.2-1.3 0-.7-.5-1.3-1.2-1.3ZM3 33.1c1.7 0 3-1.4 3-3.2 0-1.8-1.3-3.2-3-3.2-1.6 0-3 1.4-3 3.2 0 1.8 1.4 3.2 3 3.2ZM17 6.8c.9-.1 1.4-1.1 1.3-2-.3-1-1.1-1.6-2-1.4-1 .2-1.5 1.1-1.3 2 .2 1 1 1.7 2 1.4Zm-5.6 5c1-.2 1.8-1.3 1.6-2.5a2 2 0 0 0-2.3-1.7A2.1 2.1 0 0 0 8.9 10c.2 1.2 1.3 2 2.3 1.8Zm-4.4 6.5a2.6 2.6 0 0 0 2.2-3A2.6 2.6 0 0 0 6.4 13C5 13 4 14.4 4 15.9c.2 1.5 1.4 2.5 2.8 2.4Zm47.4 0c1.4-.2 2.3-1.6 2.2-3-.2-1.4-1.4-2.5-2.8-2.3-1.3.1-2.3 1.4-2.2 2.9.1 1.5 1.4 2.5 2.8 2.4ZM4 25.5c1.5 0 2.7-1.5 2.6-3.1 0-1.6-1.4-2.9-2.9-2.8-1.5 0-2.7 1.5-2.6 3.1 0 1.6 1.3 2.9 2.9 2.8Zm10.8 29c-.2 1 .3 1.9 1.2 2 1 .3 1.8-.3 2-1.3.2-1-.4-1.9-1.3-2-.9-.3-1.7.3-2 1.3Zm-6-4.6c-.2 1.2.6 2.3 1.7 2.5 1.1.2 2.1-.6 2.3-1.8.2-1.2-.6-2.3-1.7-2.4-1-.2-2.1.6-2.3 1.7Zm-4.8-5.8c-.1 1.4.9 2.8 2.3 3C7.6 47 9 46 9 44.5c.2-1.4-.8-2.7-2.2-3-1.4 0-2.6 1-2.8 2.5Zm-3-6.8a3 3 0 0 0 2.7 3c1.5.1 2.8-1 2.9-2.7a3 3 0 0 0-2.6-3.1c-1.5-.1-2.8 1.1-3 2.8Zm35.5 19c-.6.3-1 1-.9 1.8.2.7 1 1.2 1.6 1 .7-.2 1.1-1 1-1.7-.3-.8-1-1.2-1.6-1Zm-13.3 0c-.7-.1-1.4.3-1.5 1-.2.8.2 1.6.9 1.7.7.3 1.4-.2 1.6-.9.2-.7-.2-1.5-.9-1.7Zm15-53.7c.1-.7-.3-1.5-1-1.7-.7-.2-1.4.3-1.5 1-.2.8.2 1.5.9 1.7.6.2 1.3-.2 1.5-1Zm-14-.7c-.2-.8-1-1.2-1.6-1-.7.2-1.1 1-1 1.7.2.8 1 1.2 1.7 1 .7-.2 1-1 .9-1.7Z"
		fill="#29539B" />
</svg>