<svg width="204" height="88" viewBox="0 0 204 88" fill="none" xmlns="http://www.w3.org/2000/svg">
<g clip-path="url(#clip0_11_234)">
<path d="M124.132 82.9061C109.044 93.713 93.9778 72.0836 78.9108 82.9061C78.9039 85.0562 78.9039 82.7377 78.9108 84.8717C93.9847 74.0572 109.058 95.7027 124.132 84.8717C124.132 82.7136 124.125 85.0642 124.132 82.9061Z" fill="white"/>
<path d="M41.9145 59.4726C41.5993 59.4726 41.2498 59.4404 40.8865 59.384C40.5232 59.328 40.1602 59.2394 39.8038 59.1431C39.468 59.0464 39.2074 58.942 39.0154 58.8292C38.111 58.2986 37.3982 57.639 36.8979 56.859C36.3907 56.0628 35.9931 55.1942 35.7259 54.2695C35.4516 53.3368 35.2803 52.3396 35.2188 51.3182C35.1501 50.2646 35.1226 49.2352 35.1226 48.2461V41.0006C35.1226 39.746 35.1364 38.4834 35.157 37.2128C35.1776 35.9904 35.3352 34.8324 35.6298 33.7789C35.9179 32.7415 36.3907 31.8006 37.0417 30.9804C37.6859 30.1681 38.659 29.5087 39.9477 29.0181L40.3793 28.8895C40.5919 28.8251 40.8319 28.7608 41.0853 28.7045C41.339 28.6402 41.5924 28.5919 41.8599 28.5597C41.9901 28.5437 42.1065 28.5356 42.2298 28.5276L42.3396 30.152C41.2017 30.2968 40.2835 30.5783 39.605 30.9804C38.8235 31.4468 38.2274 32.1223 37.8435 32.9828C37.4665 33.8191 37.2406 34.8806 37.1581 36.1432C37.0829 37.3495 37.0417 38.8294 37.0417 40.5341V47.5144C37.0417 47.7477 37.0486 48.1175 37.0555 48.624C37.0692 49.1389 37.0967 49.7179 37.1376 50.3613C37.1788 51.0205 37.2612 51.7123 37.3707 52.4278C37.4802 53.1518 37.6447 53.8513 37.8504 54.5109C38.0561 55.1704 38.3163 55.7736 38.6182 56.2881C38.9471 56.859 39.3787 57.253 39.8928 57.4621C40.2766 57.6229 40.6605 57.7599 41.0372 57.8804C41.1814 57.9287 41.3459 57.9529 41.5172 57.9529C41.7295 57.9529 41.9557 57.9206 42.2092 57.8481L42.2298 59.4646C42.1545 59.4646 42.0515 59.4726 41.9145 59.4726Z" fill="white"/>
<path d="M53.5783 59.4726V30.2238H51V28.5276H58.217V30.2238H55.3892V59.4726H53.5783Z" fill="white"/>
<path d="M23.1761 28.5357V31.4006C21.5938 31.709 20.165 33.9002 19.1902 36.5459V28.5276H17.3208V59.4726H19.1902V41.8617C19.5774 37.8688 21.4936 33.4863 23.1761 32.8857V59.4726H25.0189V28.5357H23.1761Z" fill="white"/>
<path d="M124.58 59.4726V30.2968H120.316L120.345 59.4726H118.358V28.5276H126.538V59.4726H124.58Z" fill="white"/>
<path d="M201.604 28.5276H203.519V59.4239H201.604V28.5276ZM192.897 57.5439L193.348 57.455C193.793 57.3657 194.19 57.1956 194.525 56.9443C194.839 56.7093 195.127 56.434 195.366 56.134C195.606 55.8344 195.804 55.5263 195.961 55.2186C196.105 54.9348 196.228 54.6916 196.33 54.4891C196.645 53.8086 196.878 53.0308 197.049 52.1556C197.213 51.2966 197.329 50.373 197.384 49.4088C197.439 48.4447 197.445 47.4399 197.397 46.4189C197.349 45.3979 197.254 44.385 197.097 43.4046C196.802 41.5733 196.337 40.0254 195.701 38.8181C195.045 37.5704 194.272 36.7439 193.41 36.3793L192.89 36.1605V57.5439H192.897ZM191.016 28.5681H192.904V34.2401L193.143 34.3536C193.649 34.6048 194.135 34.8803 194.58 35.1719C195.017 35.4556 195.435 35.7878 195.817 36.1524C196.201 36.517 196.563 36.9627 196.905 37.4651C197.247 37.9756 197.582 38.5753 197.904 39.2476C198.17 39.8151 198.417 40.5605 198.642 41.484C198.868 42.4161 199.039 43.4448 199.155 44.5632C199.271 45.6732 199.326 46.8643 199.313 48.0959C199.299 49.3195 199.196 50.5268 198.991 51.7017C198.793 52.8685 198.485 53.9869 198.081 55.0241C197.691 56.0451 197.165 56.9281 196.522 57.6657C196.112 58.1273 195.578 58.4841 194.935 58.7269C194.258 58.9782 193.588 59.1726 192.952 59.294C192.603 59.3427 192.22 59.3833 191.823 59.4239C191.556 59.4483 191.283 59.4645 191.009 59.4726V28.5681H191.016Z" fill="white"/>
<path d="M95.2641 39.4271V38.0797H91.9476V30.102H95.2288V28.5276H89.9717V59.4726H95.2641V58.1337H91.9476V39.4271H95.2641Z" fill="white"/>
<path d="M174.515 57.6295L176.427 33.5474L176.717 33.5311L178.247 57.9304C178.885 58.0934 179.522 58.2071 180.16 58.1908L177.44 28.5276H175.811L172.673 57.3283C171.731 57.3124 170.782 57.5399 169.84 58.2153C169.84 58.8255 169.84 59.4357 169.84 60.0377C174.168 56.9704 178.502 63.105 182.83 60.0377C182.83 59.4275 182.83 58.8255 182.83 58.2153C180.054 60.1759 177.284 58.3779 174.515 57.6295Z" fill="white"/>
<path d="M78.4349 28.5276H80.3491V59.4239H78.4349V28.5276ZM69.7332 57.5439L70.1842 57.455C70.6288 57.3657 71.025 57.1956 71.36 56.9443C71.6744 56.7093 71.9617 56.434 72.2008 56.134C72.4402 55.8344 72.6384 55.5263 72.7956 55.2186C72.9392 54.9348 73.0621 54.6916 73.1648 54.4891C73.4792 53.8086 73.7115 53.0308 73.8823 52.1556C74.0464 51.2966 74.1628 50.373 74.2173 49.4088C74.2721 48.4447 74.2789 47.4399 74.2378 46.4189C74.1902 45.3979 74.0943 44.385 73.9371 43.4046C73.6433 41.5733 73.1782 40.0254 72.5426 38.8181C71.8864 37.5704 71.1141 36.7439 70.2527 36.3793L69.7332 36.1605V57.5439ZM67.8465 28.5681H69.7332V34.2401L69.9723 34.3536C70.4781 34.6048 70.9637 34.8803 71.4079 35.1719C71.8453 35.4556 72.2624 35.7878 72.6453 36.1524C73.0279 36.517 73.3902 36.9627 73.732 37.4651C74.0738 37.9756 74.4087 38.5753 74.73 39.2476C74.9968 39.8151 75.2495 40.5605 75.4684 41.484C75.6941 42.4161 75.865 43.4448 75.9811 44.5632C76.0972 45.6732 76.152 46.8643 76.1383 48.0959C76.1246 49.3195 76.0222 50.5268 75.817 51.7017C75.6187 52.8685 75.3112 53.9869 74.9077 55.0241C74.5183 56.0451 73.9919 56.9281 73.3491 57.6657C72.9392 58.1273 72.4059 58.4841 71.7634 58.7269C71.0867 58.9782 70.4168 59.1726 69.7811 59.294C69.4325 59.3427 69.0496 59.3833 68.653 59.4239C68.3866 59.4483 68.1129 59.4645 67.8396 59.4726V28.5681H67.8465Z" fill="white"/>
<path d="M5.33313 59.4726V51.8196L4.9062 51.8765C4.6148 51.9167 4.31664 51.933 4.01169 51.933C3.76096 51.933 3.50348 51.9167 3.24596 51.8927C2.69028 51.8358 2.16171 51.6898 1.68735 51.4707C1.22655 51.2597 0.813184 50.9511 0.460805 50.5697C0.121976 50.1964 -0.108424 49.7418 -0.243954 49.1657C-0.399814 48.5651 -0.481133 47.9076 -0.481133 47.2262V44.5967L-0.44725 28.5276H1.45695L1.41629 44.9049L1.45017 47.4047C1.45017 47.9808 1.5586 48.4679 1.77545 48.8575C1.98552 49.2307 2.26336 49.5308 2.60218 49.7337C2.92746 49.9285 3.30693 50.0504 3.72708 50.0911C3.90328 50.107 4.07946 50.1151 4.25566 50.1151C4.49285 50.1151 4.73678 50.0988 4.98076 50.0667L5.31956 50.026V28.5276H7.21698V59.4726H5.33313Z" fill="white"/>
<path d="M138.393 52.0793C138.393 52.0793 139.701 51.5682 140.468 50.4074C140.938 49.7015 141.319 48.7923 141.636 47.7295C141.947 46.6824 142.188 45.4976 142.353 44.1989C142.518 42.9087 142.607 41.6019 142.62 40.3199C142.633 39.0212 142.55 37.7714 142.385 36.5946C142.22 35.3935 141.947 34.3628 141.585 33.5188C141.478 33.2915 141.357 33.0481 141.23 32.764C141.084 32.4475 140.9 32.1391 140.678 31.8469C140.456 31.5466 140.196 31.2788 139.897 31.0354C139.586 30.7838 139.218 30.6134 138.806 30.5241L138.387 30.4348V52.0793H138.393ZM136.642 59.4645V28.5276C137.263 28.5439 137.873 28.6087 138.457 28.7143C139.034 28.836 144.34 30.0047 144.34 39.9222C144.34 41.1555 144.302 42.3407 144.194 43.4605C144.086 44.5722 143.927 45.611 143.718 46.5446C143.515 47.4615 143.286 48.2162 143.032 48.7765C142.741 49.4579 142.429 50.0504 142.106 50.5619C141.789 51.0648 141.446 51.5113 141.097 51.8764C140.735 52.2497 140.348 52.5827 139.948 52.8584C139.536 53.1507 139.085 53.4264 138.615 53.6781L138.393 53.7919V59.4726H136.642V59.4645Z" fill="white"/>
<path d="M154.994 59.4726C154.847 59.4726 154.7 59.4645 154.554 59.4483C154.2 59.4078 153.867 59.3433 153.56 59.246C153.4 59.1974 153.26 59.141 153.134 59.0923L153.6 57.6032C153.7 57.6518 153.787 57.6924 153.847 57.7248C153.98 57.7974 154.16 57.8298 154.374 57.8298C154.447 57.8298 154.534 57.8298 154.621 57.8136C155 57.7812 155.32 57.5789 155.581 57.2067C155.794 56.8994 155.974 56.5592 156.107 56.1789C156.234 55.8148 156.334 55.4426 156.401 55.0704C156.461 54.7307 156.514 54.4554 156.561 54.245L156.581 54.1558L153 28.5276H154.82L157.294 48.281L157.481 48.2648L160.475 28.5276H162.142L158.228 55.2241C158.088 56.187 157.874 57.0125 157.594 57.6762C157.327 58.3074 156.921 58.7927 156.347 59.1649C156.14 59.2865 155.874 59.3754 155.567 59.424C155.374 59.4645 155.18 59.4726 154.994 59.4726Z" fill="white"/>
<path d="M60.0574 4.74467C60.4527 4.74467 60.8483 4.73665 61.0763 4.59254C61.3846 4.40035 61.5321 3.76779 61.6728 3.1112C61.8605 2.31048 62.2625 1.74997 63.3351 1.99019V2.70283C62.8123 2.65479 62.6245 2.7749 62.4704 3.41547C62.3162 4.0961 62.1419 4.69661 61.7933 5.08097L63.5094 8.06763V8.2198H62.5241L61.0293 5.49734C60.808 5.59342 60.3053 5.59342 60.0507 5.59342V8.2198H59.1792V1.98218H60.0507V4.74467H60.0574Z" fill="white"/>
<path d="M67.2867 8.2198H66.3962V8.07547L68.8377 1.93408H69.24L71.6887 8.07547V8.2198H70.7838L69.046 3.65784H69.0389L67.2867 8.2198Z" fill="white"/>
<path d="M76.3883 6.0432L74.5755 2.05284V1.93408H75.485L76.8046 5.00602H76.8303L78.0218 1.93408H78.9057V2.03701L76.9391 6.89036C76.5485 7.95923 76.0424 8.553 74.9535 8.02254L75.0687 7.22289C75.5812 7.50794 75.8951 7.31 76.1255 6.70036L76.3883 6.0432Z" fill="white"/>
<path d="M93.3865 8.2198V5.41181H90.8797V8.2198H89.9717V1.93408H90.8797V4.45161H93.3865V1.93408H94.3019V8.2198H93.3865Z" fill="white"/>
<path d="M104.406 8.2198H103.447V1.93408H104.406V8.2198ZM100.253 4.91959H99.0943V7.29189C99.5104 7.29189 99.9339 7.29993 100.357 7.29993C101.093 7.29993 101.575 6.91265 101.613 6.18643C101.657 5.47638 101.197 4.91959 100.513 4.91959H100.253ZM99.0943 2.24877V3.99168H100.513C101.88 3.99168 102.638 5.09714 102.526 6.30746C102.444 7.36449 101.694 8.2198 100.513 8.2198H98.1509V1.93408H99.0943V2.24877Z" fill="white"/>
<path d="M109.034 8.2198H108.736V1.95016H109.61V4.23294L109.549 6.14599L112.748 1.93408H113.066V8.21178H112.199V5.93702L112.26 3.9516L109.034 8.2198Z" fill="white"/>
<path d="M122.316 7.34156H124.957L123.604 3.65902H123.596L122.316 7.34156ZM121.54 9.18683H120.764V7.35759H121.357L123.399 1.93408H123.801L125.916 7.35759H126.538V9.18683H125.77V8.24013H121.533V9.18683H121.54Z" fill="white"/>
<path d="M132.074 7.26835C133.048 7.26835 133.856 6.49629 133.856 5.08473C133.856 3.69658 133.055 2.89331 132.081 2.89331C131.1 2.89331 130.299 3.68098 130.299 5.08473C130.299 6.49629 131.093 7.26835 132.074 7.26835ZM132.061 8.2198C130.632 8.2198 129.425 7.05779 129.425 5.07695C129.425 3.09608 130.666 1.93408 132.074 1.93408C133.496 1.93408 134.717 3.09608 134.717 5.07695C134.717 6.92522 133.629 8.2198 132.061 8.2198Z" fill="white"/>
<path d="M143.06 1.93408H143.377V8.2198H142.518V4.29224L141.031 6.61012H140.919L139.425 4.29224V8.2198H138.566V1.93408H138.883L140.978 5.1695L143.06 1.93408Z" fill="white"/>
<path d="M112.104 0.274599C111.302 1.21338 110.5 -0.673293 109.698 0.274599C109.698 0.466 109.698 0.994632 109.698 1.17692C110.5 0.229028 111.302 2.12481 112.104 1.17692C112.104 0.994632 112.104 0.466 112.104 0.274599Z" fill="white"/>
<path d="M83.1979 5.22622V7.29189C83.6489 7.29189 84.151 7.29993 84.6097 7.29189C85.3229 7.29189 85.6795 6.81582 85.6795 6.25907C85.6795 5.68615 85.3229 5.22622 84.6097 5.22622H83.1979ZM83.1979 4.3467H84.6097C85.9559 4.3467 86.6038 5.17783 86.6038 6.25099C86.6038 7.33223 85.9416 8.2198 84.6097 8.2198H82.2736V1.93408H86.1309V2.86201H83.1979V4.3467Z" fill="white"/>
</g>
<defs>
<clipPath id="clip0_11_234">
<rect width="204" height="88" fill="white"/>
</clipPath>
</defs>
</svg>
