<svg xmlns="http://www.w3.org/2000/svg" width="20" height="20" fill="none"><g clip-path="url(#a)"><path fill="#fff" fill-opacity=".2" d="M18.758 9.594h.004a.4.4 0 0 0 .398-.436A9.186 9.186 0 0 0 10.844.84a.4.4 0 0 0-.436.403c.07 5.87.844 8.27 8.35 8.351Zm0 .812c-7.506.082-8.28 2.48-8.35 8.35a.4.4 0 0 0 .437.404 9.185 9.185 0 0 0 8.315-8.318.4.4 0 0 0-.402-.437ZM9.129.841A9.19 9.19 0 0 0 .84 9.159a.4.4 0 0 0 .399.436h.004c7.482-.086 8.254-2.484 8.324-8.35A.401.401 0 0 0 9.13.842Zm-7.886 9.563c-.124-.014-.222.045-.298.129a.401.401 0 0 0-.105.307 9.19 9.19 0 0 0 8.327 8.319.4.4 0 0 0 .4-.405c-.07-5.866-.842-8.264-8.324-8.35Z"/></g><defs><clipPath id="a"><path fill="#fff" d="M0 0h20v20H0z"/></clipPath></defs></svg>