<svg xmlns="http://www.w3.org/2000/svg" width="78" height="95" fill="none"><g fill="#fff" clip-path="url(#a)"><path d="M57.117 91.38c-11.99 7.43-23.962-7.443-35.94 0-.006 1.48-.006-.12 0 1.349 11.978-7.436 23.962 7.447 35.94 0 .006-1.481 0 .142 0-1.35ZM5.379 40.533v-5.198l-.345.04c-.237.028-.48.04-.723.04-.204 0-.413-.012-.622-.029a4.548 4.548 0 0 1-1.254-.285 3.055 3.055 0 0 1-.989-.614 1.957 1.957 0 0 1-.565-.951 4.323 4.323 0 0 1-.203-1.333v-1.788L.706 19.49h1.537l-.028 11.137.028 1.697c0 .393.09.723.26.985.17.256.395.455.672.592.26.131.565.216.91.245a5.302 5.302 0 0 0 1.017-.017l.277-.029V19.495h1.536v21.038H5.38ZM34.346 40.642c-.254 0-.53-.023-.824-.063a8.575 8.575 0 0 1-.865-.165 2.737 2.737 0 0 1-.627-.217c-.723-.364-1.294-.82-1.69-1.35a6.45 6.45 0 0 1-.937-1.776 8.01 8.01 0 0 1-.407-2.026c-.051-.724-.08-1.43-.08-2.107v-4.97c0-.86.012-1.732.029-2.603a8.137 8.137 0 0 1 .379-2.357 5.234 5.234 0 0 1 1.124-1.919c.514-.558 1.294-1.008 2.322-1.344l.35-.085c.17-.046.362-.086.566-.131.203-.04.406-.074.615-.103.102-.011.198-.017.294-.022l.085 1.11c-.91.102-1.644.296-2.187.57a3.151 3.151 0 0 0-1.407 1.377c-.299.575-.48 1.304-.548 2.17a41.46 41.46 0 0 0-.09 3.011v4.789c0 .16.006.416.011.763.012.353.029.752.068 1.196.034.45.096.928.186 1.417.09.502.22.98.38 1.43.163.455.372.865.61 1.218.265.387.604.66 1.016.803.305.108.61.205.916.285.118.034.243.045.378.045.17 0 .35-.023.548-.074l.017 1.11a1.087 1.087 0 0 1-.232.017ZM44.138 40.533V20.645h-2.152v-1.15h6.028v1.15h-2.367v19.888h-1.509ZM19.577 19.495v1.941c-1.3.21-2.469 1.703-3.266 3.508v-5.45h-1.536v21.04h1.536V28.524c.328-2.705 1.893-5.66 3.266-6.07v18.073h1.509V19.495h-1.509ZM75.044 39.622v-12.72h2.571v-.917h-2.57v.006-5.426h2.548v-1.07h-4.085v21.038h4.107v-.91h-2.57ZM9.775 75.403V55.57H6.48l.023 19.832H4.972v-21.04h6.311v21.04H9.775ZM64.14 19.495h1.537v21.038H64.14V19.495Zm-6.967 19.757.362-.062c.356-.057.672-.177.938-.348.254-.16.48-.347.678-.552.192-.205.35-.41.474-.626.114-.194.215-.36.3-.496.248-.461.44-.99.576-1.588.136-.581.226-1.213.272-1.874.045-.654.05-1.338.01-2.032a15.176 15.176 0 0 0-.242-2.05c-.232-1.247-.61-2.3-1.119-3.12-.525-.849-1.141-1.412-1.836-1.663l-.413-.148v14.56Zm-1.508-19.735h1.508v3.867l.192.08c.407.17.791.358 1.153.552a6.192 6.192 0 0 1 1.865 1.565c.276.348.542.752.796 1.213.215.381.413.894.588 1.52.18.632.316 1.338.412 2.096.096.757.136 1.565.13 2.402a13.084 13.084 0 0 1-.254 2.455 10.67 10.67 0 0 1-.729 2.26 5.913 5.913 0 0 1-1.248 1.8c-.328.318-.758.557-1.266.717-.542.17-1.08.301-1.588.387-.282.034-.587.062-.904.09-.215.018-.43.03-.65.035V19.517h-.005ZM20.81 70.38s1.13-.347 1.79-1.133c.401-.478.735-1.099 1.012-1.822.265-.712.474-1.52.621-2.403.141-.876.22-1.765.226-2.636.006-.882-.062-1.73-.203-2.534-.147-.814-.379-1.52-.69-2.09-.096-.153-.192-.318-.305-.511a3.472 3.472 0 0 0-1.153-1.179 2.505 2.505 0 0 0-.937-.348l-.362-.062V70.38Zm-1.51 5.022V54.37a12.61 12.61 0 0 1 1.566.126c.503.085 5.073.877 5.073 7.618 0 .837-.034 1.645-.13 2.403a14.142 14.142 0 0 1-.412 2.095c-.175.626-.373 1.133-.587 1.52a8.3 8.3 0 0 1-.797 1.213 5.918 5.918 0 0 1-.87.894 7.21 7.21 0 0 1-.99.672c-.355.2-.745.387-1.152.552l-.192.08v3.866H19.3v-.006ZM34.691 75.488c-.118 0-.237-.006-.361-.017a4.419 4.419 0 0 1-1.164-.245l.384-1.014c.085.034.153.063.204.08.113.046.254.068.435.068.062 0 .13 0 .203-.011.31-.023.576-.16.785-.41.176-.205.322-.444.43-.7.102-.245.186-.501.237-.758.051-.233.096-.421.13-.558l.017-.062-2.938-17.469h1.497l2.034 13.466.153-.011 2.458-13.455h1.373l-3.215 18.203c-.119.655-.294 1.219-.526 1.674-.22.433-.553.763-1.022 1.02-.17.085-.39.147-.639.176-.158.011-.316.023-.474.023ZM50.178 74.019l1.475-16.33.226-.012 1.187 16.547c.491.114.988.188 1.48.176l-2.102-20.116h-1.26l-2.424 19.53a3.946 3.946 0 0 0-2.192.598v1.235c3.345-2.078 6.695 2.078 10.04 0v-1.235c-2.147 1.332-4.288.113-6.43-.393ZM71.79 54.364h1.537v21.039H71.79v-21.04ZM64.823 74.12l.362-.062c.356-.057.672-.177.938-.348.254-.159.48-.347.678-.552.192-.205.35-.41.475-.626.113-.194.214-.359.299-.496.249-.46.44-.99.576-1.588.136-.581.226-1.213.272-1.873.045-.655.05-1.338.01-2.033a15.142 15.142 0 0 0-.242-2.05c-.232-1.247-.61-2.3-1.119-3.12-.525-.848-1.141-1.412-1.836-1.663l-.413-.148v14.56Zm-1.508-19.729h1.508v3.866l.193.08c.406.17.79.359 1.152.552a6.174 6.174 0 0 1 1.865 1.566c.277.347.542.752.796 1.213.215.381.413.894.588 1.52.18.632.316 1.338.412 2.095.097.758.136 1.566.13 2.403a13.086 13.086 0 0 1-.254 2.454 10.668 10.668 0 0 1-.729 2.26 5.91 5.91 0 0 1-1.248 1.8c-.328.319-.758.558-1.266.718-.542.17-1.08.301-1.588.387a30.35 30.35 0 0 1-.904.09c-.215.018-.43.03-.65.035V54.392h-.005ZM11.475 3.267c.322 0 .644-.005.836-.102.249-.137.373-.57.486-1.02.153-.552.48-.939 1.356-.774v.49c-.424-.028-.576.051-.706.49-.13.467-.266.882-.554 1.144l1.401 2.056v.102h-.802l-1.22-1.879c-.181.069-.594.069-.797.069v1.81h-.712V1.366h.712v1.901ZM16.193 5.665h-.684v-.103l1.865-4.219h.305l1.87 4.22v.102h-.69l-1.327-3.138h-.006l-1.333 3.138ZM26.742 3.62v1.413c.339 0 .717.005 1.062 0 .537 0 .802-.325.802-.706 0-.393-.265-.707-.802-.707h-1.062Zm0-.603h1.056c1.012 0 1.498.57 1.498 1.298 0 .735-.497 1.344-1.498 1.344h-1.757V1.366h2.904v.632h-2.203v1.019ZM33.742 5.665v-1.92h-1.949v1.92h-.706v-4.3h.706v1.726h1.95V1.366h.711v4.299h-.712ZM41.155 5.665h-.706v-4.3h.706v4.3ZM38.093 3.41h-.853v1.617c.305 0 .621.006.932.006.542 0 .893-.262.927-.763.028-.484-.305-.866-.808-.866h-.198v.006Zm-.853-1.828v1.19h1.045c1.006 0 1.565.757 1.486 1.583-.062.723-.616 1.31-1.486 1.31h-1.74v-4.3h.695v.217ZM52.11 5.044h1.978L53.077 2.51h-.006l-.96 2.534Zm-.576 1.27h-.576V5.055h.447l1.53-3.73h.3l1.582 3.73h.463v1.259h-.57v-.65h-3.17v.65h-.006ZM58.715 5.061c.797 0 1.464-.547 1.464-1.549 0-.98-.656-1.554-1.458-1.554-.802 0-1.463.558-1.463 1.554.005 1.002.655 1.549 1.457 1.549Zm-.01.678c-1.17 0-2.165-.82-2.165-2.221 0-1.4 1.017-2.22 2.175-2.22 1.164 0 2.17.82 2.17 2.22 0 1.304-.892 2.22-2.18 2.22ZM66.456 1.354h.26v4.31h-.712V2.978l-1.232 1.589h-.096L63.44 2.977v2.688h-.712v-4.31h.266l1.734 2.22 1.73-2.22ZM43.494 5.67h-.243V1.366h.707v1.566l-.051 1.315 2.588-2.893h.254v4.31h-.7v-1.56l.05-1.36-2.605 2.926ZM46.155.164c-.678.57-1.356-.569-2.034 0v.547c.678-.57 1.356.57 2.034 0V.164ZM22.256 4.235l-1.549-2.778v-.091h.78l1.125 2.14h.022l1.017-2.14h.757v.074L22.73 4.822c-.333.74-.768 1.161-1.7.791l.096-.558c.44.194.706.063.904-.364l.226-.456Z"/></g><defs><clipPath id="a"><path fill="#fff" d="M0 0h78v95H0z"/></clipPath></defs></svg>