<svg xmlns="http://www.w3.org/2000/svg" width="200" height="20" fill="none"><path fill="#fff" fill-opacity=".2" d="M137.664 5.764v5.296h-6.457V5.764h-3.28V19.68h3.28v-5.542h6.457v5.542h3.281V5.764h-3.281ZM155.223 5.764H142.914v2.857h4.514v11.06h3.281V8.62h4.514V5.764ZM168.687 8.621V5.764H157.296V19.68H168.687V16.8h-8.136v-2.636h8.136v-2.882h-8.136v-2.66h8.136ZM184.777 5.764h-3.937l-4.383 5.517h-1.391V5.764h-3.281V19.68h3.281v-5.517h1.391l4.383 5.517h3.937l-5.538-6.97 5.538-6.946ZM121.286 5.764l-6.64 9.138V5.764h-3.281V19.68h3.281l6.64-9.138v9.138h3.281V5.764h-3.281Z"/><path fill="#fff" fill-opacity=".2" d="M192.152 5.271c-4.33 0-7.848 3.3-7.848 7.365 0 4.064 3.518 7.364 7.848 7.364 4.331 0 7.848-3.3 7.848-7.364.026-4.04-3.491-7.365-7.848-7.365Zm0 11.7c-2.546 0-4.593-1.921-4.593-4.31 0-2.39 2.047-4.31 4.593-4.31s4.593 1.92 4.593 4.31c.027 2.389-2.047 4.31-4.593 4.31ZM77.48 19.679l5.722-6.453-5.512-7.414h2.992c1.47 0 1.26.567 3.806 3.99l.866 1.183 3.465-5c.105-.148.288-.197.446-.197h1.785l-5.197 5.862 6.01 8.029h-2.808c-1.864.025-1.522-.69-3.99-3.965l-1.364-1.823-3.964 5.566c-.105.148-.262.197-.472.197H77.48v.025ZM71.47 19.95c-2.021 0-4.121-.542-5.433-2.069-1.234-1.428-1.68-3.202-1.733-5-.026-2.24.578-4.039 1.838-5.394 1.26-1.354 2.992-2.02 5.196-2.02 1.05 0 1.995.149 2.809.444.813.296 1.443.69 1.942 1.207a4.887 4.887 0 0 1 1.102 1.773c.237.665.368 1.404.394 2.192 0 .42-.026.813-.105 1.158 0 .05-.052.074-.079.074h-9.238c.052 2.241.42 3.842 1.102 4.852.682 1.01 1.81 1.502 3.412 1.502 1.653 0 2.94-.443 4.2-1.354.21.172.446.64 0 1.01-1.155.985-3.413 1.625-5.407 1.625Zm-3.334-8.3 5.985-.419c.026-1.872-.053-4.95-2.704-4.95-2.782 0-3.202 3.374-3.28 5.369ZM61.995 18.079V9.95c0-2.783-1.129-4.458-4.042-4.458-2.047 0-3.99.911-5.38 2.266 0-1.084-.185-1.97-1.313-1.97h-2.362l.13 1.576v10.689l-.13 1.601h3.832l-.132-1.601V8.498c1.103-.789 2.126-1.183 3.596-1.183 1.864 0 2.231 1.626 2.231 3.424v7.044c0 1.182.289 1.872 1.339 1.872h2.362l-.131-1.576ZM45.197 1.773c0 .986-.866 1.774-1.916 1.774-1.05 0-1.916-.788-1.916-1.774C41.365.788 42.23 0 43.28 0c1.05 0 1.916.788 1.916 1.773ZM41.496 5.788l.131 1.577v10.69l-.131 1.6h3.832l-.132-1.6V7.634c0-1.059-.21-1.871-1.338-1.871h-2.362v.024ZM37.874 18.079V9.95c0-2.808-1.129-4.458-4.042-4.458-2.441 0-4.095 1.157-5.407 2.463-.472-1.552-1.627-2.463-3.832-2.463-2.073 0-3.753.911-5.118 2.29V7.76c0-1.084-.184-1.97-1.312-1.97H15.8l.132 1.576v10.689l-.132 1.601h3.832l-.13-1.601V8.498a5.664 5.664 0 0 1 3.385-1.183c2.021 0 2.231 1.946 2.231 3.424v7.315l-.131 1.601h3.832l-.131-1.601V8.498c.918-.74 2.204-1.183 3.412-1.183 2.1 0 2.23 2.143 2.23 3.424v7.044c0 1.33.394 1.872 1.34 1.872h2.361l-.157-1.576ZM6.116 19.95c-1.759 0-4.357-.468-5.932-1.305.288-.616.84-1.084 1.627-.69a9.776 9.776 0 0 0 4.41 1.01c2.257 0 3.91-1.182 3.805-3.325C9.79 11.157-.026 10.492 0 5.098.026 1.133 3.832 0 7.48 0c1.759 0 3.491.32 5.197.96-.288.641-.787 1.183-1.653.789A8.837 8.837 0 0 0 7.323.96c-2.231 0-3.49 1.133-3.49 2.807-.027 4.286 9.947 4.926 10.13 10.493.105 4.064-3.517 5.69-7.847 5.69ZM104.672 12.315h-8.53v.714h8.53v-.714Z"/></svg>