<svg xmlns="http://www.w3.org/2000/svg" width="86" height="14" fill="none"><g clip-path="url(#a)"><path fill="#fff" fill-opacity=".2" d="M74.748 3.876c.438 0 .823.058 1.097.058l-.439 1.851a4.597 4.597 0 0 0-.933-.116c-.384 0-.768.058-1.043.174V14l-2.085-.463V4.512a9.487 9.487 0 0 1 3.403-.636Zm-10.044 0c2.14 0 3.348.868 3.348 3.182v5.438c-.494.29-1.756.636-3.019.636-2.524 0-3.786-1.041-3.786-2.835 0-2.43 2.36-2.892 4.884-3.066V6.77c0-.926-.603-1.273-1.591-1.273-.769 0-1.757.29-2.36.52l-.55-1.504c.714-.289 1.867-.636 3.074-.636Zm-24.147-.058c2.305 0 3.567 1.62 3.567 4.05.055.231.055.52 0 .752l-5.378.752c.164 1.273 1.097 1.967 2.305 1.967.823 0 1.756-.232 2.305-.579l.603 1.678c-.713.405-1.866.636-3.073.636-2.744 0-4.226-1.909-4.226-4.628 0-2.719 1.427-4.628 3.897-4.628Zm-7.684-2.372V4.05h1.592v1.677h-1.592v4.397c0 .694.44.983.988.983.22 0 .44-.057.604-.115v1.851c-.274.058-.823.174-1.317.174-1.592 0-2.36-.926-2.36-2.777V5.727h-1.043V4.05h1.043V2.083l2.085-.637ZM16.959 0v4.281a4.373 4.373 0 0 1 1.756-.405c1.976 0 3.074 1.041 3.074 3.008v6.017h-2.086V7.116c0-.984-.549-1.447-1.537-1.447-.438 0-.878.116-1.207.348v6.942h-2.085V0h2.085Zm38.636 3.876c1.866 0 2.964 1.157 2.964 2.95v6.133h-2.086V7c0-.868-.549-1.388-1.372-1.388-.549 0-.933.173-1.262.462v6.827h-2.14V6.884c0-.81-.55-1.272-1.482-1.272-.494 0-.878.057-1.153.231v7.058h-2.085V4.512c.878-.347 1.975-.636 3.128-.636 1.372 0 2.195.463 2.69.926a4.786 4.786 0 0 1 2.798-.926ZM2.14 4.05l1.153 5.438c.164.636.22 1.446.22 1.446h.054s.11-.81.275-1.446L5.214 4.05h1.92l1.373 5.438c.164.636.274 1.446.274 1.446s.055-.81.22-1.446l1.207-5.438h2.14l-2.47 8.85H7.684L6.421 7.869c-.165-.579-.22-1.33-.22-1.33h-.054s-.11.751-.275 1.33L4.61 12.9H2.415L0 4.05h2.14Zm24.916 0v8.85h-2.085V4.05h2.085ZM80.4 0v7.926h.055l2.744-3.876h2.47L82.65 8.215l3.183 4.686h-2.36l-3.018-4.455H80.4v4.455h-2.085V0H80.4ZM66.186 8.62c-1.537.058-2.909.231-2.909 1.562 0 .81.604 1.33 1.702 1.33.439 0 .987-.058 1.207-.173v-2.72Zm-25.63-3.124c-1.097 0-1.865.868-1.92 2.487l3.512-.52c0-1.33-.658-1.967-1.591-1.967Z"/></g><defs><clipPath id="a"><path fill="#fff" d="M0 0h86v14H0z"/></clipPath></defs></svg>