<?xml version="1.0" standalone="no"?>
<!DOCTYPE svg PUBLIC "-//W3C//DTD SVG 20010904//EN"
 "http://www.w3.org/TR/2001/REC-SVG-20010904/DTD/svg10.dtd">
<svg version="1.0" xmlns="http://www.w3.org/2000/svg"
 width="700.000000pt" height="700.000000pt" viewBox="0 0 700.000000 700.000000"
 preserveAspectRatio="xMidYMid meet">
<metadata>
Created by potrace 1.14, written by Peter Selinger 2001-2017
</metadata>
<g transform="translate(0.000000,700.000000) scale(0.100000,-0.100000)"
fill="#000000" stroke="none">
<path d="M3440 6981 c-129 -69 -78 -281 68 -281 37 0 91 36 115 78 40 68 12
168 -57 202 -52 25 -81 25 -126 1z"/>
<path d="M2625 6886 c-60 -28 -97 -97 -89 -169 9 -92 76 -143 181 -138 24 1
87 52 104 83 5 10 12 38 14 61 6 51 -25 120 -65 149 -34 24 -107 31 -145 14z"/>
<path d="M4265 6886 c-47 -20 -83 -70 -91 -122 -16 -112 62 -201 161 -183 59
11 90 34 115 88 61 126 -64 272 -185 217z"/>
<path d="M1865 6599 c-66 -19 -134 -113 -135 -184 0 -83 44 -162 112 -196 58
-30 142 -23 191 14 60 46 82 92 82 174 0 63 -3 76 -30 115 -51 73 -135 102
-220 77z"/>
<path d="M5005 6596 c-158 -72 -163 -309 -8 -378 60 -26 112 -25 164 3 58 32
97 92 105 162 6 49 3 64 -21 112 -34 71 -85 107 -158 112 -30 2 -64 -2 -82
-11z"/>
<path d="M3725 6247 c-109 -51 -119 -219 -15 -280 134 -80 282 79 202 217 -37
63 -123 92 -187 63z"/>
<path d="M3099 6204 c-69 -28 -93 -123 -47 -190 20 -29 48 -44 93 -49 25 -3
67 20 91 48 23 27 26 38 22 85 -8 91 -78 138 -159 106z"/>
<path d="M4334 6111 c-116 -53 -144 -214 -55 -315 60 -68 184 -69 255 0 77 75
72 209 -10 286 -55 51 -120 61 -190 29z"/>
<path d="M1164 6090 c-92 -52 -143 -165 -119 -265 28 -120 101 -191 208 -202
69 -7 118 9 169 55 62 56 82 104 83 192 0 84 -16 127 -67 179 -47 48 -86 64
-158 67 -57 3 -73 -1 -116 -26z"/>
<path d="M5652 6105 c-139 -60 -194 -218 -125 -354 49 -97 160 -149 260 -122
170 46 231 287 106 416 -67 69 -165 93 -241 60z"/>
<path d="M2460 5993 c-75 -67 -45 -181 54 -203 45 -10 92 17 112 65 47 113
-79 216 -166 138z"/>
<path d="M4874 5820 c-57 -29 -83 -55 -110 -114 -77 -166 43 -352 220 -340 49
4 116 36 148 70 85 96 81 248 -8 338 -65 65 -172 85 -250 46z"/>
<path d="M1925 5668 c-63 -36 -85 -111 -52 -174 58 -113 217 -68 217 61 0 89
-95 154 -165 113z"/>
<path d="M3684 5649 c-46 -13 -99 -70 -112 -121 -30 -119 54 -238 170 -238 55
0 118 39 145 90 76 144 -52 313 -203 269z"/>
<path d="M3112 5592 c-60 -18 -106 -101 -91 -169 27 -131 197 -157 253 -40 55
118 -42 243 -162 209z"/>
<path d="M4215 5484 c-115 -60 -150 -214 -71 -317 17 -22 45 -49 61 -59 66
-38 163 -26 219 27 101 95 90 261 -21 334 -26 17 -54 32 -62 32 -62 6 -91 2
-126 -17z"/>
<path d="M676 5469 c-69 -26 -119 -71 -157 -141 -31 -58 -34 -70 -33 -148 0
-96 19 -150 74 -213 35 -40 103 -84 142 -93 57 -12 131 -4 181 20 68 32 99 62
139 132 31 55 33 65 32 149 0 74 -4 99 -24 140 -68 140 -219 206 -354 154z"/>
<path d="M6235 5481 c-94 -26 -170 -96 -205 -188 -43 -114 -15 -254 68 -338
145 -147 369 -102 463 94 34 69 32 187 -2 262 -31 65 -82 120 -141 150 -45 23
-136 33 -183 20z"/>
<path d="M5391 5388 c-249 -44 -288 -407 -53 -510 163 -73 349 66 341 255 -3
81 -23 129 -76 183 -61 63 -130 87 -212 72z"/>
<path d="M2549 5343 c-119 -74 -26 -266 100 -206 61 30 84 123 43 179 -33 45
-96 57 -143 27z"/>
<path d="M1490 5218 c-49 -13 -88 -54 -104 -107 -32 -110 49 -216 157 -205 49
5 71 17 104 61 23 30 28 47 28 93 0 110 -88 185 -185 158z"/>
<path d="M4725 5181 c-83 -20 -152 -99 -169 -194 -17 -92 29 -195 112 -250 98
-66 255 -20 308 90 23 49 27 68 27 128 -1 151 -135 260 -278 226z"/>
<path d="M3380 5127 c-100 -66 -97 -214 4 -276 61 -38 144 -19 192 45 34 44
42 126 17 174 -40 77 -143 105 -213 57z"/>
<path d="M3828 5107 c-137 -61 -146 -276 -14 -344 128 -66 270 43 253 195 -13
113 -139 193 -239 149z"/>
<path d="M2970 5033 c-45 -23 -80 -90 -74 -139 10 -79 53 -123 127 -131 105
-11 175 102 126 204 -35 73 -111 101 -179 66z"/>
<path d="M2099 4937 c-58 -44 -44 -136 23 -160 31 -11 75 12 92 48 15 30 15
38 2 69 -22 52 -78 73 -117 43z"/>
<path d="M4263 4890 c-124 -28 -168 -184 -78 -275 51 -51 113 -59 177 -23 96
55 105 204 17 270 -41 30 -73 38 -116 28z"/>
<path d="M5679 4816 c-96 -33 -157 -101 -184 -202 -28 -108 3 -222 80 -293
105 -97 245 -101 348 -11 157 139 127 393 -57 487 -57 29 -135 37 -187 19z"/>
<path d="M2630 4793 c-38 -11 -60 -28 -75 -58 -36 -77 1 -154 80 -169 30 -6
81 19 101 48 23 37 15 119 -15 147 -24 23 -68 38 -91 32z"/>
<path d="M6477 4709 c-95 -22 -180 -93 -226 -189 -22 -47 -26 -68 -26 -150 0
-83 3 -102 27 -151 114 -230 407 -259 548 -54 123 179 65 423 -123 514 -67 33
-139 43 -200 30z"/>
<path d="M357 4696 c-213 -79 -291 -357 -151 -540 136 -178 389 -171 513 14
49 74 65 141 58 236 -9 118 -80 224 -185 276 -58 28 -177 35 -235 14z"/>
<path d="M3263 4681 c-75 -47 -86 -151 -23 -205 89 -74 205 -7 194 112 -9 88
-100 138 -171 93z"/>
<path d="M3584 4679 c-28 -14 -54 -61 -54 -99 0 -114 132 -158 191 -63 59 95
-38 209 -137 162z"/>
<path d="M1176 4658 c-114 -24 -174 -154 -125 -268 45 -104 151 -146 246 -96
40 20 69 55 88 104 56 139 -66 290 -209 260z"/>
<path d="M5063 4650 c-101 -45 -148 -165 -107 -272 71 -184 321 -168 372 24
26 98 -36 224 -124 252 -46 14 -104 13 -141 -4z"/>
<path d="M2995 4600 c-94 -21 -142 -125 -98 -210 69 -134 253 -84 255 69 1 86
-80 158 -157 141z"/>
<path d="M3879 4551 c-75 -76 3 -201 101 -161 31 13 61 72 55 106 -2 10 -4 22
-4 25 -1 3 -12 18 -26 33 -34 37 -87 36 -126 -3z"/>
<path d="M4555 4541 c-75 -33 -103 -118 -66 -194 64 -133 247 -89 253 60 4
107 -93 177 -187 134z"/>
<path d="M1763 4454 c-78 -40 -79 -162 -2 -207 41 -23 69 -22 110 6 118 79 18
266 -108 201z"/>
<path d="M2323 4428 c-96 -25 -77 -172 22 -172 72 0 111 88 65 146 -24 31 -45
37 -87 26z"/>
<path d="M2703 4360 c-41 -25 -61 -64 -59 -117 5 -115 129 -162 204 -77 40 47
44 104 9 155 -40 60 -97 74 -154 39z"/>
<path d="M4185 4369 c-38 -10 -66 -56 -59 -95 11 -65 86 -93 130 -49 13 13 25
31 25 40 1 8 2 21 3 28 7 45 -51 89 -99 76z"/>
<path d="M5860 4139 c-185 -56 -241 -309 -100 -450 160 -160 421 -42 419 191
-1 148 -96 256 -233 266 -28 2 -67 -2 -86 -7z"/>
<path d="M4771 4102 c-69 -33 -81 -132 -21 -184 35 -32 78 -36 120 -11 119 70
25 255 -99 195z"/>
<path d="M2545 4076 c-42 -18 -63 -45 -68 -86 -12 -104 99 -170 173 -102 57
51 49 146 -14 179 -42 23 -56 24 -91 9z"/>
<path d="M4351 4064 c-27 -34 -27 -64 -1 -92 44 -47 125 -8 114 56 -10 60 -78
81 -113 36z"/>
<path d="M5293 4049 c-45 -9 -97 -51 -117 -94 -76 -160 81 -329 233 -251 73
38 110 143 81 230 -11 35 -89 115 -112 117 -7 0 -22 2 -33 3 -11 1 -35 -1 -52
-5z"/>
<path d="M984 4034 c-49 -17 -98 -63 -127 -118 -30 -57 -29 -164 1 -224 44
-84 123 -132 213 -128 210 9 301 290 138 429 -64 56 -143 70 -225 41z"/>
<path d="M2115 3970 c-43 -47 -7 -124 53 -114 53 9 73 69 36 109 -28 30 -64
32 -89 5z"/>
<path d="M1594 3883 c-18 -9 -42 -33 -54 -54 -59 -106 8 -226 121 -216 59 5
94 31 115 84 48 124 -67 241 -182 186z"/>
<path d="M270 3865 c-82 -22 -142 -63 -194 -134 -110 -149 -94 -370 34 -500
194 -196 512 -99 583 179 45 177 -47 370 -211 441 -54 24 -153 30 -212 14z"/>
<path d="M6547 3860 c-125 -39 -220 -150 -245 -287 -55 -303 236 -540 500
-407 193 97 257 372 129 558 -87 126 -240 180 -384 136z"/>
<path d="M4454 3756 c-71 -60 5 -179 87 -136 54 29 56 124 3 148 -37 18 -60
15 -90 -12z"/>
<path d="M2453 3740 c-26 -11 -51 -46 -56 -80 -6 -33 26 -93 55 -107 91 -41
174 85 106 161 -26 28 -72 39 -105 26z"/>
<path d="M4864 3626 c-59 -26 -68 -103 -18 -153 21 -21 32 -24 60 -20 76 13
106 104 50 155 -30 28 -56 33 -92 18z"/>
<path d="M2057 3539 c-26 -15 -46 -68 -40 -102 7 -36 47 -67 88 -67 40 0 74
34 82 83 10 66 -71 120 -130 86z"/>
<path d="M4474 3449 c-28 -14 -54 -61 -54 -99 0 -45 47 -90 93 -90 37 0 86 38
88 69 6 61 -15 106 -57 121 -31 12 -43 12 -70 -1z"/>
<path d="M5865 3429 c-112 -32 -181 -186 -140 -310 51 -153 225 -210 350 -115
104 79 122 244 40 352 -51 67 -162 99 -250 73z"/>
<path d="M2483 3392 c-32 -5 -63 -49 -63 -87 0 -41 26 -71 67 -80 28 -6 38 -2
63 23 46 47 38 108 -18 135 -15 7 -37 11 -49 9z"/>
<path d="M5291 3378 c-74 -37 -99 -136 -52 -212 57 -92 194 -78 235 24 21 53
20 75 -4 125 -34 71 -109 98 -179 63z"/>
<path d="M985 3375 c-125 -46 -195 -191 -160 -326 29 -109 120 -186 227 -193
141 -9 254 97 265 248 8 109 -51 217 -143 261 -50 24 -139 28 -189 10z"/>
<path d="M1604 3306 c-95 -43 -138 -171 -89 -265 17 -34 67 -75 105 -86 108
-33 221 55 223 173 1 130 -130 228 -239 178z"/>
<path d="M4385 3136 c-44 -19 -65 -48 -69 -94 -11 -108 123 -166 186 -81 67
89 -19 217 -117 175z"/>
<path d="M4800 3130 c-39 -39 -12 -120 40 -120 12 0 32 12 47 26 20 20 24 32
19 56 -11 56 -68 76 -106 38z"/>
<path d="M2143 3105 c-50 -21 -69 -60 -64 -132 0 -12 15 -35 32 -52 62 -63
164 -25 176 65 12 90 -65 153 -144 119z"/>
<path d="M2566 3039 c-51 -40 -24 -121 41 -121 59 0 85 83 37 121 -15 12 -32
21 -39 21 -7 0 -24 -9 -39 -21z"/>
<path d="M385 2971 c-85 -22 -168 -90 -210 -171 -111 -219 24 -483 260 -507
117 -12 239 59 304 177 32 58 35 72 37 155 3 81 0 96 -25 150 -59 125 -153
194 -273 201 -35 2 -76 0 -93 -5z"/>
<path d="M6434 2960 c-71 -28 -134 -87 -175 -162 -32 -60 -34 -68 -34 -163 0
-90 3 -106 30 -158 34 -67 97 -130 163 -160 71 -33 189 -30 259 6 211 109 252
389 83 559 -68 68 -113 88 -205 94 -54 3 -82 0 -121 -16z"/>
<path d="M4194 2870 c-90 -40 -100 -167 -17 -225 80 -56 194 23 180 126 -11
86 -88 133 -163 99z"/>
<path d="M2745 2775 c-35 -34 -34 -88 1 -120 15 -14 37 -25 49 -25 31 0 72 35
78 66 15 83 -72 136 -128 79z"/>
<path d="M5128 2753 c-44 -27 -66 -91 -48 -139 35 -92 155 -102 199 -17 54
108 -52 217 -151 156z"/>
<path d="M1171 2749 c-72 -22 -132 -73 -169 -144 -35 -67 -39 -176 -11 -252
71 -187 306 -237 443 -95 59 60 80 115 81 207 0 64 -5 90 -24 129 -29 59 -91
121 -140 142 -46 20 -136 26 -180 13z"/>
<path d="M1795 2741 c-76 -35 -113 -89 -122 -176 -10 -91 30 -166 110 -207 59
-30 143 -22 194 18 104 82 112 234 17 329 -50 50 -136 65 -199 36z"/>
<path d="M4599 2721 c-46 -46 -34 -116 24 -145 41 -19 86 -2 108 42 20 39 14
74 -18 107 -35 34 -77 33 -114 -4z"/>
<path d="M2330 2721 c-71 -38 -94 -134 -50 -206 47 -77 147 -87 207 -22 43 47
51 96 27 155 -34 83 -110 113 -184 73z"/>
<path d="M5702 2709 c-67 -34 -104 -97 -103 -181 0 -124 109 -213 224 -183
144 37 190 233 78 334 -60 54 -129 64 -199 30z"/>
<path d="M3929 2681 c-96 -46 -106 -189 -17 -254 34 -25 107 -26 143 -3 59 39
83 132 50 196 -32 63 -113 91 -176 61z"/>
<path d="M3025 2616 c-39 -17 -55 -37 -59 -73 -9 -85 57 -139 132 -107 56 23
71 111 27 158 -13 14 -28 26 -34 26 -5 0 -15 2 -23 5 -7 2 -27 -2 -43 -9z"/>
<path d="M3609 2532 c-57 -51 -50 -158 13 -203 44 -31 113 -22 150 20 15 17
29 40 29 51 1 11 2 26 2 33 6 105 -117 168 -194 99z"/>
<path d="M3301 2514 c-102 -91 3 -256 117 -184 89 55 60 193 -44 207 -35 4
-46 1 -73 -23z"/>
<path d="M2660 2428 c-88 -32 -125 -140 -80 -233 54 -112 211 -110 266 2 21
44 21 111 0 152 -18 34 -71 80 -94 83 -55 5 -70 4 -92 -4z"/>
<path d="M4303 2421 c-65 -41 -68 -156 -4 -194 76 -45 160 6 163 100 2 84 -88
137 -159 94z"/>
<path d="M2175 2290 c-107 -24 -176 -116 -175 -231 2 -174 172 -287 323 -214
130 62 162 255 62 373 -49 58 -139 89 -210 72z"/>
<path d="M3035 2243 c-75 -39 -112 -108 -102 -193 12 -98 84 -164 178 -163
153 2 229 212 116 321 -55 53 -131 67 -192 35z"/>
<path d="M3942 2239 c-33 -7 -76 -39 -93 -70 -28 -53 -13 -133 33 -176 47 -44
102 -50 159 -16 69 41 84 153 30 216 -35 39 -82 56 -129 46z"/>
<path d="M4820 2217 c-32 -16 -51 -71 -38 -109 20 -58 94 -71 136 -23 31 37
29 80 -7 116 -32 32 -53 35 -91 16z"/>
<path d="M3470 2161 c-74 -41 -103 -130 -70 -213 44 -110 190 -129 261 -34 33
43 34 151 3 192 -51 69 -129 91 -194 55z"/>
<path d="M1501 2132 c-110 -31 -189 -151 -178 -271 13 -144 104 -239 237 -249
136 -10 248 96 258 243 8 119 -41 209 -138 257 -69 34 -110 39 -179 20z"/>
<path d="M691 2123 c-82 -28 -143 -82 -183 -163 -34 -68 -32 -195 3 -270 52
-110 146 -172 260 -174 215 -2 357 235 265 441 -15 33 -44 77 -64 96 -73 71
-192 101 -281 70z"/>
<path d="M6115 2116 c-27 -13 -68 -40 -89 -61 -120 -119 -123 -332 -5 -454 81
-84 223 -110 325 -58 60 30 118 92 147 156 32 71 30 189 -4 261 -53 111 -143
172 -259 176 -50 2 -77 -3 -115 -20z"/>
<path d="M5404 2081 c-116 -70 -101 -251 24 -292 70 -23 138 5 172 71 70 138
-71 297 -196 221z"/>
<path d="M2637 1906 c-78 -29 -129 -107 -129 -196 1 -125 93 -217 208 -208
128 11 211 138 174 267 -32 113 -148 176 -253 137z"/>
<path d="M4338 1863 c-37 -24 -57 -75 -48 -125 10 -52 46 -88 96 -95 33 -4 45
-1 72 22 60 50 61 137 4 189 -30 26 -90 30 -124 9z"/>
<path d="M3187 1696 c-76 -37 -115 -141 -87 -227 24 -73 119 -135 187 -123
142 26 202 203 105 312 -55 61 -130 75 -205 38z"/>
<path d="M3791 1683 c-105 -51 -104 -216 1 -263 49 -22 90 -18 134 12 78 53
77 182 0 240 -33 24 -97 29 -135 11z"/>
<path d="M1981 1642 c-13 -2 -41 -14 -62 -28 -138 -87 -153 -291 -28 -398 149
-127 371 -16 371 185 0 156 -128 266 -281 241z"/>
<path d="M4969 1563 c-79 -48 -78 -177 1 -218 82 -42 170 14 170 110 0 94 -97
155 -171 108z"/>
<path d="M1217 1375 c-46 -12 -68 -26 -115 -72 -67 -67 -81 -207 -29 -296 65
-111 192 -151 302 -95 48 24 78 56 107 111 31 60 30 165 -1 226 -54 104 -157
153 -264 126z"/>
<path d="M5672 1374 c-120 -31 -192 -137 -178 -266 14 -133 104 -220 231 -222
114 -2 198 66 228 185 30 114 -26 234 -135 290 -21 11 -38 17 -38 15 0 -3 -12
-1 -28 3 -16 5 -48 3 -80 -5z"/>
<path d="M2541 1254 c-179 -53 -171 -326 12 -375 77 -21 160 19 197 95 41 87
21 190 -50 250 -28 23 -44 29 -100 40 -9 2 -35 -3 -59 -10z"/>
<path d="M4422 1200 c-40 -24 -55 -54 -55 -107 0 -107 131 -149 195 -63 71 97
-39 231 -140 170z"/>
<path d="M3184 1060 c-128 -28 -161 -221 -49 -294 96 -63 229 16 228 136 -2
100 -89 177 -179 158z"/>
<path d="M3798 1024 c-56 -30 -76 -122 -39 -178 86 -130 269 -6 197 133 -29
55 -101 76 -158 45z"/>
<path d="M1865 795 c-156 -54 -178 -293 -34 -374 113 -64 245 -5 280 124 43
154 -101 299 -246 250z"/>
<path d="M5005 790 c-134 -58 -165 -240 -58 -342 155 -147 384 32 304 237 -38
96 -153 145 -246 105z"/>
<path d="M2624 410 c-129 -65 -105 -274 35 -300 104 -19 188 62 178 172 -4 49
-40 108 -76 128 -41 21 -95 22 -137 0z"/>
<path d="M4248 409 c-105 -54 -110 -222 -8 -282 92 -55 203 1 224 112 23 124
-106 226 -216 170z"/>
<path d="M3440 281 c-150 -80 -56 -324 104 -271 108 35 125 201 27 267 -41 28
-85 29 -131 4z"/>
</g>
</svg>
