<svg width="28" height="28" viewBox="0 0 28 28" fill="none" xmlns="http://www.w3.org/2000/svg">
<path d="M18.3499 4.53128C20.0234 2.85141 22.4711 2.81613 23.8262 4.17644C25.1837 5.5393 25.1472 8.00241 23.4727 9.68343L20.6449 12.5222C20.3039 12.8646 20.3049 13.4186 20.6472 13.7597C20.9896 14.1007 21.5437 14.0996 21.8847 13.7572L24.7125 10.9185C26.9423 8.67997 27.2223 5.10608 25.066 2.94139C22.9071 0.774133 19.3411 1.0566 17.1101 3.29624L11.4545 8.97378C9.22471 11.2123 8.94476 14.7862 11.1011 16.9508C11.4421 17.2933 11.9962 17.2943 12.3385 16.9533C12.6809 16.6123 12.6819 16.0582 12.3409 15.7158C10.9833 14.353 11.0199 11.8898 12.6944 10.2088L18.3499 4.53128Z" fill="#D6D2C4"/>
<path d="M16.8993 11.0492C16.5583 10.7068 16.0042 10.7058 15.6618 11.0468C15.3195 11.3878 15.3184 11.9419 15.6595 12.2842C17.017 13.6471 16.9805 16.1102 15.306 17.7912L9.65041 23.4688C7.97703 25.1487 5.52926 25.184 4.17423 23.8237C2.81661 22.4608 2.85319 19.9976 4.5277 18.3166L7.35552 15.4778C7.69657 15.1354 7.6955 14.5815 7.35313 14.2403C7.01076 13.8993 6.45673 13.9004 6.11569 14.2428L3.28788 17.0815C1.05802 19.3201 0.778069 22.894 2.93439 25.0587C5.09328 27.2259 8.65924 26.9435 10.8902 24.7038L16.5458 19.0262C18.7756 16.7878 19.0556 13.2139 16.8993 11.0492Z" fill="#D6D2C4"/>
</svg>
