<svg width="20" height="20" viewBox="0 0 20 20" fill="none" xmlns="http://www.w3.org/2000/svg">
<path fill-rule="evenodd" clip-rule="evenodd" d="M6.57104 2.77C7.5205 2.31977 8.54934 2.06095 9.59882 2.00832C10.6483 1.9557 11.6979 2.1103 12.6876 2.46331C13.6773 2.81631 14.5879 3.3608 15.3672 4.06568C16.1465 4.77057 16.7793 5.62205 17.2295 6.5715C17.6798 7.52096 17.9386 8.5498 17.9912 9.59928C18.0438 10.6488 17.8892 11.6983 17.5362 12.6881C17.1832 13.6778 16.6388 14.5883 15.9339 15.3676C15.229 16.1469 14.3775 16.7798 13.428 17.23C11.5105 18.1392 9.31039 18.2494 7.31162 17.5363C5.31286 16.8233 3.67921 15.3455 2.77004 13.428C1.86088 11.5105 1.75069 9.31035 2.4637 7.31158C3.17671 5.31282 4.65353 3.67917 6.57104 2.77ZM16.857 10C16.8575 11.0889 16.5986 12.1622 16.1019 13.1311C15.6051 14.1 14.8848 14.9367 14.0004 15.572C13.1161 16.2072 12.0932 16.6227 11.0164 16.7841C9.93953 16.9455 8.83976 16.8481 7.80804 16.5C8.8407 15.7598 9.68194 14.7839 10.2619 13.6535C10.842 12.523 11.144 11.2706 11.143 10C11.144 8.72944 10.842 7.47697 10.2619 6.34652C9.68194 5.21607 8.8407 4.24024 7.80804 3.5C8.83976 3.15193 9.93953 3.05455 11.0164 3.21594C12.0932 3.37732 13.1161 3.79282 14.0004 4.42805C14.8848 5.06329 15.6051 5.89999 16.1019 6.86892C16.5986 7.83786 16.8575 8.91116 16.857 10Z" fill="#767A85"/>
</svg>
