<svg width="20" height="20" viewBox="0 0 20 20" fill="none" xmlns="http://www.w3.org/2000/svg">
<path fill-rule="evenodd" clip-rule="evenodd" d="M2.68812 9.415C6.47012 7.829 11.0441 5.573 15.0081 4.048C18.6681 2.703 18.6071 3.07 18.0581 6.731C17.6301 9.659 17.1411 12.586 16.6551 15.514C16.4721 16.916 15.7381 17.648 14.2151 16.798L9.45812 13.443C8.78612 12.893 8.96912 12.465 9.51912 11.919L13.9101 7.77C15.0721 6.609 14.5211 6.184 13.1771 7.098L7.13912 11.184C6.28312 11.795 5.37012 11.795 4.39412 11.49L2.32112 10.756C0.976119 10.267 2.01512 9.716 2.68812 9.414V9.415Z" fill="#ADAFBA"/>
</svg>
