<svg width="203" height="50" viewBox="0 0 203 50" fill="none" xmlns="http://www.w3.org/2000/svg">
<g clip-path="url(#clip0_2_299)">
<mask id="mask0_2_299" style="mask-type:luminance" maskUnits="userSpaceOnUse" x="0" y="0" width="203" height="50">
<path d="M202.006 0H0V50H202.006V0Z" fill="white"/>
</mask>
<g mask="url(#mask0_2_299)">
<path d="M34.8766 19.2387C34.7223 19.393 34.5679 19.4959 34.3622 19.6502C33.179 20.5761 31.3272 21.2963 28.7552 21.965C23.4054 23.4053 19.4959 23.6111 15.072 24.6914C14.1975 24.8971 13.3231 25.2058 12.5 25.5144C13.3231 25.9259 14.1975 26.3374 15.1235 26.6461C16.9239 26.1317 17.7984 25.8745 20.3704 25.463C21.3478 25.3086 24.4342 24.7428 26.5947 24.2798C30.607 23.5082 36.4712 21.6564 34.8766 19.2387ZM32.356 14.1975C31.533 13.8374 30.4527 13.4259 29.321 13.1173C28.8066 13.5288 28.2408 13.8889 27.4177 14.1975C28.8066 14.4547 29.8869 14.8148 31.07 15.1749C31.2243 15.3292 32.2017 14.4547 32.356 14.1975ZM12.8087 19.5473C18.0041 18.0041 23.4568 17.5412 29.0124 16.0494C26.8519 15.4835 25.6688 15.2263 23.4054 15.4835C20.0617 15.8951 16.4609 16.6152 13.3231 17.5412C12.0885 17.9012 5.65844 19.7531 7.5103 22.3251C7.5103 22.3765 8.59054 20.8333 12.8087 19.5473ZM9.20783 28.3951C9.20783 28.858 9.46503 29.321 10.1338 29.8354C10.2366 29.5782 10.3395 29.3724 10.4938 29.1152C10.0823 28.9095 9.67079 28.6523 9.20783 28.3951ZM11.677 28.1379C12.0885 27.8807 12.5515 27.6749 13.0659 27.4691C12.3457 27.1605 11.5741 26.8004 10.8025 26.4918C10.4424 26.6975 10.1338 26.9547 9.87655 27.1605C10.4938 27.4691 11.0597 27.8292 11.677 28.1379ZM31.6873 17.0267C30.6585 17.4897 29.1153 18.0041 26.9548 18.57C25.2058 19.0329 20.8848 19.6502 16.2552 20.6276C14.7634 20.9362 10.8025 21.9136 8.84775 23.5597C9.41359 24.0226 9.72223 24.1255 10.3395 24.4342C11.1626 23.9198 12.2428 23.4053 13.8889 22.9938C16.7181 22.2222 18.8272 21.9136 21.3992 21.5021C23.9198 21.0905 28.7037 20.1132 31.3272 19.1358C32.2017 18.8272 32.9733 18.4156 33.5906 17.9527C33.4362 17.7984 31.7387 16.9753 31.6873 17.0267ZM33.2305 16.1008C33.7449 16.358 34.2079 16.5638 34.6708 16.8724C34.9795 16.2551 34.7737 15.8436 34.105 15.2778C33.8478 15.5864 33.5391 15.8436 33.2305 16.1008ZM9.00207 25.5144C8.5391 25.2572 8.23046 25.0514 7.81894 24.7942C7.61318 25.2572 8.0247 25.7716 8.43622 25.9774C8.59054 25.823 8.79631 25.7202 9.00207 25.5144ZM31.1214 11.1111C31.0186 11.4712 30.6585 11.8827 30.4013 12.1399C31.1729 12.3457 31.9959 12.6543 32.7161 12.9115C32.6132 12.2428 31.8416 11.5741 31.1214 11.1111ZM6.63581 15.535C12.0885 11.9342 18.107 9.8251 28.3436 11.6255C28.9095 11.3169 29.2181 11.0082 29.3725 10.3395C26.8004 9.41358 24.0741 9.10494 20.4733 9.15638C17.2325 9.25926 11.4712 10.4424 8.38478 12.2942L9.31071 11.1111C11.4712 9.8251 17.1296 8.12757 21.3478 8.07613C24.3313 8.02469 25.8745 8.17901 29.4239 9.15638C29.1153 8.53909 28.3951 8.23045 27.3148 7.76749C23.8683 6.22428 17.4897 6.06996 12.2428 8.38477C12.9115 7.97325 13.5803 7.56173 14.4033 7.15021C16.1523 6.3786 18.9815 5.607 22.4794 5.65844C25.3087 5.70988 28.6523 6.68724 30.7099 8.74486C31.07 9.15638 31.2243 9.5679 31.3272 9.92798C32.9733 10.751 33.8992 11.5226 34.4136 12.4486C34.6194 12.9115 34.7223 13.4259 34.6194 13.9918C35.2881 14.4033 35.5967 14.7119 35.9568 15.1749C36.214 15.535 36.3684 15.9465 36.4198 16.358C36.4712 16.8724 36.5227 17.4383 36.0083 18.107C36.5741 18.3642 36.9856 19.1358 37.0885 19.4959C37.3457 20.7305 36.5741 21.9136 35.4939 22.8395C34.3107 23.9198 31.6358 25.1543 29.5268 25.7202C25.2572 26.8004 21.5021 27.2634 18.4671 27.8292C19.8045 28.1379 21.6564 28.6008 24.6399 28.6008C31.0186 28.6008 36.6255 25.5658 36.6255 25.5658C36.6255 25.5658 36.5227 25.9774 36.3683 26.3374C32.3046 28.8066 25.8745 29.8354 23.1482 29.7325C20.3704 29.5782 18.0041 29.1667 15.6893 28.4979C14.9692 28.7037 14.3004 28.9095 13.6317 29.2181C17.1296 30.8128 19.7531 31.1728 22.7881 31.3786C25.8231 31.5844 30.8642 30.8642 35.1338 29.321C34.928 29.5267 34.8251 29.8354 34.6194 29.9897C32.4589 31.1214 27.8292 32.3045 25.5144 32.4074C23.1996 32.5103 20.3704 32.4074 17.9527 31.9444C15.8436 31.5329 14.1461 30.8642 12.3457 30.0926C12.037 30.3498 11.8313 30.6584 11.7798 31.0185C18.7757 34.7222 25.3601 34.7737 32.8704 32.4588L32.2017 33.1276C23.9712 36.4712 17.5412 35.1852 12.5515 32.7675C12.3971 32.716 12.1914 32.6132 12.037 32.5103C12.5 33.3333 16.3066 36.1111 20.5762 36.4712C23.5083 36.7284 27.1091 36.214 29.2181 35.3395L27.9836 36.0082C26.9548 36.5226 24.2284 37.6543 20.4218 37.3971C15.3292 37.037 12.5 34.7737 11.214 33.5905C10.5967 33.0247 10.3395 32.4074 10.1852 31.6358C8.95063 30.8642 8.23046 30.2469 7.61318 29.321C7.25309 28.7551 7.30453 28.1379 7.40741 27.6235C7.45886 27.4691 7.45886 27.3148 7.56174 27.1605C6.99589 26.749 6.43005 26.3374 6.22429 25.8745C5.70988 24.9486 6.01852 24.177 6.37861 23.5597C6.06996 23.1996 5.81276 22.8909 5.65844 22.5309C5.50412 22.1193 5.50412 21.7078 5.55556 21.2449C5.65844 20.4732 6.06997 19.8045 6.58437 19.1872C7.71606 17.9012 9.41359 16.9239 12.4486 15.8951C15.3807 14.9177 16.5638 14.7634 18.7757 14.249C21.3478 13.6317 24.4342 13.4774 27.0062 12.5514C19.8045 11.2654 12.3457 12.4486 6.27573 16.6667L6.63581 15.535ZM0.720165 21.4506C0.720165 10.0309 9.97943 0.771605 21.2963 0.771605C32.6646 0.771605 41.8725 10.0309 41.8725 21.4506C41.8725 32.8704 32.6132 42.1296 21.2963 42.1296C9.97943 42.1296 0.720165 32.8189 0.720165 21.4506ZM0 21.4506C0 33.2819 9.56791 42.8498 21.3478 42.8498C33.1276 42.8498 42.6955 33.2305 42.6955 21.4506C42.6441 9.61934 33.0762 0 21.3478 0C9.56791 0 0 9.61934 0 21.4506Z" fill="#476BF0"/>
<path d="M68.6734 23.4054L69.4965 17.6955L70.3195 23.4054H68.6734ZM72.2228 12.037H66.7701L63.0664 30.8128H67.4388L67.9532 27.572H70.9882L71.5026 30.8128H75.8751L72.2228 12.037Z" fill="#476BF0"/>
<path d="M80.0929 19.4959C80.8131 19.4959 82.0991 19.0329 82.0991 17.644C82.0991 15.9979 80.6073 15.895 80.1958 15.895C79.6814 15.895 78.7554 15.9979 77.8295 16.4094L77.7781 12.3457C79.2698 11.9856 80.2987 11.8313 81.5332 11.8827C85.0826 11.8827 86.6773 14.4033 86.6773 16.821C86.6773 19.1872 85.2884 20.6275 84.0024 21.1934V21.3992C85.2369 21.8107 86.9859 23.0452 86.9859 25.8745C86.9859 29.4238 84.5168 31.3786 81.3789 31.3786C79.6814 31.3786 78.6011 31.1214 77.2637 30.4012L77.3151 26.4917C78.5497 27.0061 79.3727 27.0576 80.1958 27.0576C81.5847 27.0576 82.1505 26.0288 82.1505 25.2572C82.1505 24.1769 81.4818 23.5082 79.99 23.5082H78.241V19.4959H80.0929Z" fill="#476BF0"/>
<path d="M88.9922 12.037H100.823V30.7613H96.451V16.5638H93.3132V30.7613H88.9922V12.037Z" fill="#476BF0"/>
<path d="M108.642 20.4733H107.614V16.1523H108.642C109.62 16.1523 110.237 16.7181 110.237 18.3128C110.237 20.3189 109.208 20.4733 108.642 20.4733ZM109.054 12.037H103.241V30.8128H107.562V24.6399H109.003C113.272 24.6399 114.61 20.7819 114.61 18.3128C114.661 15.8436 113.169 12.037 109.054 12.037Z" fill="#476BF0"/>
<path d="M122.685 26.4918C121.142 26.4918 120.371 24.6914 120.371 21.3992C120.371 18.107 121.142 16.3066 122.685 16.3066C124.229 16.3066 125 18.107 125 21.3992C125 24.6914 124.229 26.4918 122.685 26.4918ZM122.685 11.7798C117.541 11.7798 115.844 16.6152 115.844 21.3992C115.844 26.2346 117.593 31.0185 122.685 31.0185C127.829 31.0185 129.578 26.1831 129.578 21.3992C129.578 16.5638 127.829 11.7798 122.685 11.7798Z" fill="#476BF0"/>
<path d="M153.293 27.0062H152.676V22.7366H153.293C153.807 22.7366 155.145 22.7881 155.145 24.6914C155.196 26.6975 153.807 27.0062 153.293 27.0062ZM153.447 19.0329H152.676V16.5638H158.386V12.037H148.406V30.8128H153.602C154.733 30.8128 159.414 30.3498 159.414 24.6914C159.414 19.856 155.814 19.0329 153.447 19.0329Z" fill="#476BF0"/>
<path d="M175 12.037H179.27V18.7757H182.305V12.037H186.523V30.7613H182.305V23.3025H179.27V30.7613H175V12.037Z" fill="#476BF0"/>
<path d="M189.352 12.037H193.621V18.7757H194.496L196.965 12.037H201.543L198.251 20.9362L202.006 30.7613H197.016L194.598 23.251H193.621V30.7613H189.352V12.037Z" fill="#476BF0"/>
<path d="M54.5967 12.037H63.4959V16.7181H59.0206V30.8128L54.5967 30.7613V12.037Z" fill="#476BF0"/>
<path d="M131.636 12.037H135.339L138.58 16.4609L141.821 12.037H145.525V30.7613H141.204V19.3416L138.58 22.6338L135.957 19.3416V30.8128L131.636 30.7613V12.037Z" fill="#476BF0"/>
<path d="M165.895 23.4568L166.718 17.7469L167.541 23.4568H165.895ZM169.444 12.037H163.992L160.288 30.8128H164.661L165.175 27.572H168.21L168.724 30.8128H173.097L169.444 12.037Z" fill="#476BF0"/>
<path fill-rule="evenodd" clip-rule="evenodd" d="M60.0801 38.9402H54.5967V48.191H57.7236C59.645 48.191 60.8082 47.0158 60.8082 45.4448C60.8082 43.8738 59.645 42.7257 57.7236 42.7257H55.6903V39.9221H60.0801V38.9402ZM59.6723 45.4569C59.6723 46.4539 58.9986 47.2122 57.7086 47.2122H55.6904V43.7077H57.7086C58.9986 43.7077 59.6723 44.46 59.6723 45.4569Z" fill="#80838F"/>
<path d="M70.0322 38.7845V48.1894H68.9385V41.0142L62.9113 48.3435H62.5186V38.9386H63.6122V46.1169L69.6545 38.7845H70.0322Z" fill="#80838F"/>
<path d="M78.5973 45.4952C78.5973 47.1659 77.1683 48.3411 75.2741 48.3411C73.8213 48.3606 72.4753 47.5808 71.7695 46.3109L72.5671 45.7067C73.1865 46.6583 74.1109 47.3169 75.259 47.3169C76.4946 47.3169 77.4614 46.5465 77.4614 45.4529C77.4614 44.5284 76.8149 43.7701 75.3013 43.7701H74.2076V42.7761H75.3587C76.4372 42.7761 76.9568 42.1447 76.9568 41.3048C76.9568 40.465 76.4251 39.7761 75.2741 39.7761C74.3496 39.7612 73.4881 40.2433 73.0173 41.039L72.2318 40.4499C72.8591 39.372 74.0276 38.7256 75.2741 38.7671C77.0263 38.7671 78.0928 39.8456 78.0928 41.2474C78.0982 42.0414 77.6742 42.7763 76.984 43.1689C77.9727 43.5081 78.6261 44.4504 78.5973 45.4952Z" fill="#80838F"/>
<path d="M80.5127 38.9402H81.6064V42.7529H86.7937V38.9402H87.8873V48.191H86.7937V43.7348H81.6064V48.191H80.5127V38.9402Z" fill="#80838F"/>
<path d="M90.3379 38.9402H96.2684V39.9221H91.4346V42.7529H95.1355V43.7348H91.4315V47.2121H96.4376V48.191H90.3379V38.9402Z" fill="#80838F"/>
<path d="M97.1623 43.5648C97.1515 42.2871 97.6571 41.0592 98.5642 40.1594C99.4714 39.2596 100.703 38.7642 101.981 38.7854C103.516 38.756 104.961 39.5052 105.821 40.7763L105.002 41.4198C104.343 40.3931 103.201 39.7778 101.981 39.7914C99.8954 39.7914 98.2046 41.4822 98.2046 43.5679C98.2046 45.6535 99.8954 47.3443 101.981 47.3443C103.201 47.3585 104.342 46.7445 105.002 45.7189L105.815 46.3624C104.96 47.6356 103.514 48.3833 101.981 48.3443C100.703 48.3664 99.4707 47.8712 98.5633 46.9712C97.656 46.0712 97.1507 44.8428 97.1623 43.5648Z" fill="#80838F"/>
<path d="M106.513 42.7642H109.866V43.6706H106.513V42.7642Z" fill="#80838F"/>
<path fill-rule="evenodd" clip-rule="evenodd" d="M114.44 39.1163C112.646 39.8656 111.481 41.623 111.489 43.5671C111.478 44.8408 111.98 46.0654 112.882 46.9647C113.784 47.8639 115.01 48.362 116.284 48.3465C118.228 48.349 119.982 47.1786 120.725 45.3823C121.469 43.586 121.056 41.5186 119.679 40.146C118.302 38.7735 116.234 38.3669 114.44 39.1163ZM116.29 39.7973C118.378 39.7973 119.949 41.4227 119.949 43.5526H119.955C119.955 45.7127 118.414 47.3472 116.296 47.3472C114.178 47.3472 112.616 45.6946 112.616 43.5526C112.616 41.4106 114.202 39.7973 116.29 39.7973Z" fill="#80838F"/>
<path d="M122.936 38.9402H124.035V42.7529H129.223V38.9402H130.316V48.191H129.223V43.7348H124.035V48.191H122.942L122.936 38.9402Z" fill="#80838F"/>
<path d="M139.831 38.9402V48.191H138.737V39.9221H135.111C134.915 46.2001 134.172 48.2907 132.266 48.2907C132.078 48.3017 131.89 48.2675 131.719 48.191V47.2393C131.842 47.2727 131.969 47.287 132.096 47.2816C133.541 47.2816 133.963 44.6321 134.06 40.333L134.087 38.9463L139.831 38.9402Z" fill="#80838F"/>
<path fill-rule="evenodd" clip-rule="evenodd" d="M143.394 46.3082H147.926L148.721 48.1844H149.884L145.875 38.7795H145.47L141.461 48.1844H142.609L143.394 46.3082ZM143.807 45.3257L145.656 40.7698L147.508 45.3257H143.807Z" fill="#80838F"/>
<path fill-rule="evenodd" clip-rule="evenodd" d="M153.482 35.5621V35.9125C153.482 37.2568 154.292 38.1419 155.582 38.1419C156.872 38.1419 157.712 37.2568 157.712 35.9125V35.5621H156.805V35.9277C156.805 36.8248 156.358 37.3293 155.597 37.3293C154.836 37.3293 154.389 36.8097 154.389 35.9277V35.5621H153.482ZM159.369 48.3126V38.9088H158.977L152.95 46.2403V39.0628H151.856V48.4666H152.249L158.276 41.1381V48.3126H159.369Z" fill="#80838F"/>
<path d="M161.468 38.9402H162.561V42.7529H167.749V38.9402H168.842V48.191H167.749V43.7348H162.561V48.191H161.468V38.9402Z" fill="#80838F"/>
</g>
</g>
<defs>
<clipPath id="clip0_2_299">
<rect width="203" height="50" fill="white"/>
</clipPath>
</defs>
</svg>
