<svg xmlns="http://www.w3.org/2000/svg">
    <symbol id="icon-user" viewBox="0 0 36 36" fill="none" xmlns="http://www.w3.org/2000/svg">
            <path d="M18 21C21.3137 21 24 18.3137 24 15C24 11.6863 21.3137 9 18 9C14.6863 9 12 11.6863 12 15C12 18.3137 14.6863 21 18 21Z" stroke="currentColor" stroke-width="1.5" stroke-miterlimit="10"/>
            <path d="M9 25.9998C9.91247 24.4796 11.2245 23.2172 12.8043 22.3396C14.3841 21.462 16.176 21 18.0001 21C19.8241 21 21.616 21.4621 23.1958 22.3397C24.7756 23.2174 26.0876 24.4797 27 26" stroke="currentColor" stroke-width="1.5" stroke-linecap="round" stroke-linejoin="round"/>
    </symbol>
    <symbol id="icon-search" viewBox="0 0 36 36" fill="none" xmlns="http://www.w3.org/2000/svg">
            <path d="M16.5 24C20.6421 24 24 20.6421 24 16.5C24 12.3579 20.6421 9 16.5 9C12.3579 9 9 12.3579 9 16.5C9 20.6421 12.3579 24 16.5 24Z" stroke="currentColor" stroke-width="1.5" stroke-linecap="round" stroke-linejoin="round"/>
            <path d="M27 26L23 22" stroke="currentColor" stroke-width="1.5" stroke-linecap="round" stroke-linejoin="round"/>
    </symbol>
    <symbol id="icon-basket" viewBox="0 0 36 36" fill="none" xmlns="http://www.w3.org/2000/svg">
            <path d="M8.83274 25.3744C10.1648 27 12.6424 27 17.5987 27H18.4002C23.3565 27 25.8352 27 27.1673 25.3744M8.83274 25.3744C7.50069 23.7476 7.95803 21.2794 8.87159 16.3406C9.52097 12.8306 9.8451 11.0745 11.0784 10.0372M27.1673 25.3744C28.4993 23.7476 28.042 21.2794 27.1284 16.3406C26.479 12.8306 26.1538 11.0745 24.9205 10.0372M24.9205 10.0372C23.6884 9 21.9245 9 18.4002 9H17.5987C14.0743 9 12.3116 9 11.0784 10.0372" stroke="currentColor" stroke-width="1.5"/>
            <path d="M15 13C15.219 13.5848 15.6252 14.0912 16.1625 14.4494C16.6998 14.8076 17.3418 15 18 15C18.6582 15 19.3002 14.8076 19.8375 14.4494C20.3748 14.0912 20.781 13.5848 21 13" stroke="currentColor" stroke-width="1.5" stroke-linecap="round"/>
    </symbol>
    <symbol id="icon-burger" viewBox="0 0 36 36" fill="none" xmlns="http://www.w3.org/2000/svg">
        <path d="M4.5 10.5H31.5" stroke="currentColor" stroke-width="1.5" stroke-linecap="round"/>
        <path d="M4.5 18H24.5" stroke="currentColor" stroke-width="1.5" stroke-linecap="round"/>
        <path d="M4.5 25.5H16.5" stroke="currentColor" stroke-width="1.5" stroke-linecap="round"/>
    </symbol>
    <symbol id="icon-decor-desktop" viewBox="0 0 2154 1036" fill="none"
         xmlns="http://www.w3.org/2000/svg" preserveAspectRatio="none">
        <path d="M151 510.258C233.586 473.575 483.984 361.649 658.714 269.211C678.845 258.561 702.004 286.33 687.366 303.777L246.77 828.948C232.975 845.392 251.248 869.063 270.649 859.88L1761.43 154.251C1782.25 144.396 1800.49 171.755 1783.38 187.181L1047.48 850.774C1032.43 864.348 1044.79 889.127 1064.69 885.26L2003 702.878"
              stroke="#D1DAFC" stroke-linecap="round"/>
    </symbol>
    <symbol id="icon-decor-tablet" viewBox="0 0 2517 1233" fill="none" xmlns="http://www.w3.org/2000/svg">
        <path d="M151 623.252C264.503 572.857 643.036 403.677 844.719 287.565C852.903 282.853 861.949 293.65 855.878 300.884L219.632 1058.95C213.909 1065.77 221.486 1075.59 229.532 1071.78L2173.23 152.152C2181.86 148.066 2189.42 159.413 2182.33 165.809L1181.42 1068C1175.17 1073.63 1180.3 1083.91 1188.55 1082.3L2366 853.533" stroke="#D1DAFC" stroke-width="300" stroke-linecap="round"/>
    </symbol>
    <symbol id="icon-decor-mobile" viewBox="0 0 1771 812" fill="none" xmlns="http://www.w3.org/2000/svg">
        <path d="M101 395.804C168.313 365.918 367.216 277.056 514.024 200.652C534.226 190.138 557.623 218.308 542.982 235.753L191.138 654.953C177.338 671.395 195.608 695.07 215.01 685.89L1446.51 103.24C1467.33 93.388 1485.57 120.751 1468.45 136.175L868.688 676.773C853.631 690.345 865.994 715.128 885.893 711.262L1670 558.919" stroke="#D1DAFC" stroke-width="200" stroke-linecap="round"/>
    </symbol>
    <symbol id="icon-checks" viewBox="0 0 32 32" fill="none" xmlns="http://www.w3.org/2000/svg">
        <path d="M9.33398 15.9999L16.0007 22.6666L29.334 9.33325" stroke="#5C72EE" stroke-width="1.6" stroke-linecap="round" stroke-linejoin="round"/>
        <path d="M3.23365 15.4345C2.92123 15.1221 2.4147 15.1221 2.10228 15.4345C1.78986 15.7469 1.78986 16.2534 2.10228 16.5658L3.23365 15.4345ZM8.76895 23.2325C9.08137 23.5449 9.5879 23.5449 9.90032 23.2325C10.2127 22.9201 10.2127 22.4136 9.90032 22.1011L8.76895 23.2325ZM15.4356 15.4345C15.1232 15.7469 15.1232 16.2534 15.4356 16.5658C15.748 16.8783 16.2546 16.8783 16.567 16.5658L15.4356 15.4345ZM23.2337 9.89918C23.5461 9.58676 23.5461 9.08023 23.2337 8.76781C22.9212 8.45539 22.4147 8.45539 22.1023 8.76781L23.2337 9.89918ZM2.10228 16.5658L8.76895 23.2325L9.90032 22.1011L3.23365 15.4345L2.10228 16.5658ZM16.567 16.5658L23.2337 9.89918L22.1023 8.76781L15.4356 15.4345L16.567 16.5658Z" fill="#5C72EE"/>
    </symbol>
    <symbol id="icon-review-1" viewBox="0 0 64 64" fill="none" xmlns="http://www.w3.org/2000/svg">
        <circle cx="32" cy="32" r="32" fill="white"/>
        <path d="M20.3772 35.2251C20.4559 35.2167 20.5356 35.2092 20.6153 35.2054C21.4806 35.0901 22.2437 34.6692 22.8278 34.0213C23.3012 33.5048 23.6106 32.8813 23.7897 32.1501C23.9406 31.5773 23.9687 30.9379 23.8731 30.306C23.7297 29.0423 23.2337 27.8507 22.3872 26.8017C22.1209 26.4679 21.8144 26.1342 21.4694 25.8445C20.6987 25.1882 19.9075 24.8151 19.0534 24.6079C18.489 24.4973 17.965 24.457 17.4165 24.5451C16.5503 24.696 15.8228 25.0767 15.2387 25.7207C14.7662 26.241 14.425 26.9451 14.289 27.7157C14.2019 28.1207 14.1587 28.522 14.1897 28.9195L14.1981 29.0385C14.2103 29.1576 14.2178 29.2767 14.23 29.3957L14.2375 29.511C14.3528 30.4213 14.6631 31.2717 15.1272 32.0704C15.4975 32.6779 15.9465 33.2385 16.4631 33.7148C17.1944 34.371 17.9884 34.8238 18.8425 35.0301C19.3787 35.2251 19.9 35.2607 20.3772 35.2251Z" fill="#D3DEFF"/>
        <path d="M21.4767 23.0742C21.7158 24.0285 22.1133 24.862 22.6298 25.5782C23.1455 26.2926 23.7023 26.8092 24.3773 27.2067C24.9342 27.5648 25.5295 27.7635 26.1661 27.8029H26.4839C27.1195 27.8029 27.7158 27.6435 28.2314 27.2863C28.7489 27.0079 29.2252 26.571 29.6227 26.0545C30.1786 25.3392 30.5367 24.4654 30.6952 23.4323C30.7355 22.9954 30.7748 22.5576 30.7748 22.0813C30.7748 21.7232 30.7355 21.366 30.6952 21.0079C30.6164 20.3723 30.457 19.777 30.2189 19.1807C29.8214 18.187 29.2655 17.3526 28.5502 16.717C28.0336 16.2407 27.4767 15.8826 26.8805 15.6838C26.1258 15.4054 25.3711 15.366 24.6164 15.5648C23.9011 15.7232 23.2655 16.1207 22.7086 16.717C22.2323 17.2335 21.9145 17.7904 21.6361 18.4654C21.3577 19.2604 21.1992 20.0948 21.1992 21.0482C21.1992 21.2067 21.2386 21.366 21.2386 21.6042C21.2789 22.0813 21.3577 22.5979 21.4767 23.0742Z" fill="#D3DEFF"/>
        <path d="M32.7569 24.9419C33.0353 25.7369 33.4328 26.3725 33.9888 26.8891C34.7041 27.565 35.5384 27.9625 36.4919 28.0019H36.7309C37.2072 28.0019 37.6441 27.8829 38.1213 27.8829C38.7962 27.6044 39.3925 27.2069 39.9887 26.651C40.585 26.0547 41.0612 25.3797 41.4194 24.6241C41.9359 23.5516 42.2134 22.4388 42.2537 21.2472C42.2537 20.5713 42.2134 19.8963 42.055 19.3C41.8563 18.4657 41.5778 17.7907 41.1409 17.1944C40.4256 16.2007 39.4722 15.6447 38.3594 15.4854C38.32 15.4854 38.32 15.4854 38.2797 15.4854H37.3666C36.85 15.565 36.2931 15.7235 35.8169 16.0019C35.1803 16.36 34.585 16.8766 34.0684 17.5122C33.5116 18.1872 33.115 18.9822 32.7972 19.856C32.5188 20.651 32.3997 21.4854 32.3594 22.3197C32.3594 22.6779 32.3594 23.035 32.3997 23.3922C32.4784 23.9491 32.5984 24.4657 32.7569 24.9419Z" fill="#D3DEFF"/>
        <path d="M49.7396 27.7157C49.6046 26.9451 49.2624 26.241 48.7862 25.7207C48.2021 25.0767 47.4793 24.696 46.613 24.5451C46.0609 24.457 45.5396 24.4973 44.9715 24.6079C44.1174 24.8151 43.3309 25.1882 42.5602 25.8445C42.2143 26.1342 41.9077 26.4679 41.6415 26.8017C40.7959 27.8507 40.299 29.0423 40.1518 30.306C40.0609 30.9379 40.088 31.5773 40.239 32.1501C40.418 32.8813 40.7246 33.5048 41.2009 34.0213C41.7849 34.6692 42.548 35.0901 43.4143 35.2054C43.494 35.2092 43.5727 35.2167 43.6524 35.2251C44.1296 35.2607 44.6499 35.2251 45.1824 35.0301C46.0365 34.8238 46.8315 34.371 47.5665 33.7148C48.083 33.2385 48.5284 32.6779 48.8977 32.0704C49.3618 31.2717 49.6721 30.4213 49.7874 29.511L49.7996 29.3957C49.8071 29.2767 49.8193 29.1576 49.8268 29.0385L49.839 28.9195C49.8709 28.522 49.823 28.1207 49.7396 27.7157Z" fill="#D3DEFF"/>
        <path d="M42.9732 38.3723C42.4566 37.6176 41.821 36.9023 41.0663 36.2666C40.5498 35.7895 40.0332 35.2729 39.5963 34.717C39.1191 34.1207 38.6823 33.4851 38.3251 32.9282L38.0466 32.4913C37.7682 32.0545 37.4897 31.657 37.2122 31.2201C36.7754 30.5845 36.3779 30.0679 35.941 29.6704C35.1854 28.9551 34.3116 28.4779 33.3179 28.2398C32.6823 28.0813 32.0073 28.041 31.3716 28.041C30.7754 28.041 30.1791 28.1601 29.6232 28.3991C28.9473 28.6766 28.351 29.1145 27.7154 29.7098C27.3582 30.0679 26.9607 30.5048 26.5632 31.0213C26.1666 31.5379 25.8085 32.0545 25.4513 32.571L25.2526 32.8888C24.7754 33.5245 24.2982 34.2398 23.7423 34.8754C23.266 35.4313 22.8282 35.8691 22.3913 36.2666C21.8354 36.7429 21.2785 37.2998 20.8416 37.8951C20.206 38.7295 19.7288 39.6435 19.4119 40.5576C19.2132 41.1932 19.0932 41.8288 19.0538 42.4645C19.0144 43.0213 19.0538 43.6166 19.1729 44.1332C19.4907 45.6041 20.2454 46.7957 21.4773 47.6695C22.1926 48.186 22.9876 48.5038 23.9016 48.5835C24.0207 48.6238 24.1004 48.6238 24.2194 48.6238H24.8157C25.1729 48.6238 25.5301 48.5835 25.8085 48.5441C26.6035 48.3848 27.3976 48.186 28.1129 47.9873H28.1532C28.8282 47.8288 29.5041 47.6301 30.1791 47.511C30.4576 47.4707 30.8148 47.392 31.1729 47.392C31.6491 47.392 32.086 47.392 32.4835 47.4313C33.0404 47.511 33.676 47.6301 34.351 47.7885C34.6688 47.8682 35.0269 47.9873 35.3448 48.067C35.7816 48.186 36.2588 48.306 36.7351 48.4251C37.2123 48.5441 37.7288 48.6632 38.2847 48.6632H39.2382C39.3179 48.6632 39.3582 48.6238 39.4369 48.5038C39.676 48.5038 39.9535 48.4645 40.1916 48.3848C40.8282 48.2263 41.4638 47.9479 42.0601 47.511C42.8541 46.9551 43.4907 46.2388 43.8873 45.4045C44.3241 44.4913 44.5229 43.537 44.4835 42.4645C44.4441 41.8682 44.3241 41.1932 44.086 40.5576C43.8479 39.802 43.4907 39.0876 42.9732 38.3723Z" fill="#D3DEFF"/>
    </symbol>
    <symbol id="icon-review-2" viewBox="0 0 64 64" fill="none" xmlns="http://www.w3.org/2000/svg">
        <circle cx="32" cy="32" r="32" fill="white"/>
        <path fill-rule="evenodd" clip-rule="evenodd" d="M26.9587 20.1234C32.9634 19.2781 33.4484 30.0662 27.8927 29.8052C23.4257 29.5952 21.7404 20.8571 26.9587 20.1234Z" fill="#FFBAC2"/>
        <path fill-rule="evenodd" clip-rule="evenodd" d="M36.61 20.1235C43.2236 18.6746 42.4513 30.4617 36.299 29.8054C31.4295 29.2861 32.3785 21.0496 36.61 20.1235Z" fill="#FFBAC2"/>
        <path fill-rule="evenodd" clip-rule="evenodd" d="M24.7792 33.0854C22.428 38.2351 15.2608 34.5966 16.0622 29.4926C16.9057 24.117 26.49 26.8575 24.7792 33.0854Z" fill="#FFBAC2"/>
        <mask id="mask0_2201_146" style="mask-type:luminance" maskUnits="userSpaceOnUse" x="39" y="26" width="10" height="10">
            <path d="M39.8457 26.5942H48.9986V35.9237H39.8457V26.5942Z" fill="white"/>
        </mask>
        <g mask="url(#mask0_2201_146)">
            <path fill-rule="evenodd" clip-rule="evenodd" d="M44.2338 26.6829C45.7811 26.3815 47.715 26.9333 48.4364 28.2434C50.4283 31.8599 46.7573 36.2786 43.1443 35.8955C41.1594 35.6873 40.0137 33.9924 39.8748 32.4609C39.5805 29.18 41.9133 27.1328 44.2338 26.6829Z" fill="#FFBAC2"/>
        </g>
        <mask id="mask1_2201_146" style="mask-type:luminance" maskUnits="userSpaceOnUse" x="24" y="31" width="17" height="14">
            <path d="M24.5488 31.3774H40.3539V44.645H24.5488V31.3774Z" fill="white"/>
        </mask>
        <g mask="url(#mask1_2201_146)">
            <path fill-rule="evenodd" clip-rule="evenodd" d="M30.8507 31.5229C36.3053 30.5793 41.3118 34.5226 40.1907 41.2056C39.9587 42.5886 38.7717 44.5445 37.0768 44.6412C35.7096 44.7193 34.1104 43.3838 32.4076 43.3917C30.2936 43.4023 28.6268 45.2826 26.6472 44.3292C24.9857 43.527 24.3135 40.2848 24.6246 37.9265C25.0718 34.5253 27.5645 32.0914 30.8507 31.5229Z" fill="#FFBAC2"/>
        </g>
    </symbol>
    <symbol id="icon-arrow" viewBox="0 0 20 20" fill="none" xmlns="http://www.w3.org/2000/svg">
        <path d="M11.0665 2.2353C11.3368 1.92981 11.7829 1.92122 12.0628 2.21645L12.0672 2.22107L18.4084 9.14383C18.6103 9.36364 18.671 9.69465 18.562 9.98233C18.5267 10.0756 18.475 10.1601 18.4101 10.2313L18.4095 10.232L12.0696 17.1532C12.0648 17.1586 12.0599 17.1639 12.0549 17.1692C11.775 17.4642 11.3289 17.4559 11.0586 17.1503C10.789 16.8457 10.7959 16.3607 11.0733 16.0653L16.2099 10.4577L1.70463 10.4577C1.31548 10.4577 1 10.1133 1 9.6885C1 9.26365 1.31548 8.91929 1.70457 8.91922L16.2099 8.91922L11.0664 3.30414C10.8027 3.00605 10.8028 2.53338 11.0665 2.2353Z" fill="white"/>
        <path d="M11.5678 16.9965C11.3732 16.9969 11.2152 16.825 11.2148 16.6125C11.2147 16.5101 11.2519 16.4119 11.3184 16.3395L17.4112 9.68881L11.3184 3.03805C11.1832 2.88527 11.1871 2.64177 11.327 2.49419C11.4636 2.35024 11.68 2.35024 11.8165 2.49419L18.1581 9.41726C18.2956 9.56744 18.2956 9.81091 18.1581 9.96112L11.8165 16.8842C11.7505 16.9561 11.6611 16.9965 11.5678 16.9965Z" fill="white"/>
        <path d="M17.9101 10.0724L1.70388 10.0724C1.50931 10.0724 1.35156 9.90027 1.35156 9.68785C1.35156 9.47543 1.50931 9.30322 1.70388 9.30322L17.9102 9.30322C18.1048 9.30322 18.2625 9.47543 18.2625 9.68785C18.2625 9.90026 18.1047 10.0724 17.9101 10.0724Z" fill="white"/>
    </symbol>
    <symbol id="icon-tg" viewBox="0 0 24 24" fill="none" xmlns="http://www.w3.org/2000/svg">
        <path fill-rule="evenodd" clip-rule="evenodd" d="M4.23741 10.4574C9.06923 8.34056 12.2912 6.945 13.9033 6.27074C18.5063 4.34558 19.4627 4.01116 20.0861 4.00012C20.2232 3.99769 20.5298 4.03186 20.7284 4.19389C20.8961 4.33071 20.9422 4.51553 20.9643 4.64524C20.9864 4.77496 21.0139 5.07046 20.992 5.30135C20.7426 7.93675 19.6633 14.3322 19.1142 17.2838C18.8818 18.5328 18.4244 18.9516 17.9815 18.9926C17.0189 19.0816 16.288 18.3529 15.3558 17.7384C13.897 16.7769 13.0729 16.1783 11.6569 15.24C10.0205 14.1556 11.0813 13.5596 12.0139 12.5856C12.258 12.3307 16.4988 8.45188 16.5809 8.10001C16.5912 8.056 16.6007 7.89197 16.5038 7.80535C16.4069 7.71873 16.2639 7.74835 16.1606 7.77191C16.0143 7.8053 13.6839 9.35418 9.16938 12.4185C8.5079 12.8753 7.90875 13.0978 7.37193 13.0862C6.78013 13.0733 5.64175 12.7497 4.79548 12.4731C3.75749 12.1338 2.93252 11.9544 3.00436 11.3782C3.04178 11.0781 3.45279 10.7711 4.23741 10.4574Z" fill="white"/>
    </symbol>
    <symbol id="icon-vk" viewBox="0 0 24 24" fill="none" xmlns="http://www.w3.org/2000/svg">
        <path d="M12.6208 18C5.9584 18 2.15834 13.4955 2 6H5.33729C5.44691 11.5015 7.90719 13.8318 9.85597 14.3123V6H12.9985V10.7447C14.9229 10.5405 16.9445 8.37838 17.6266 6H20.7691C20.2453 8.93093 18.053 11.0931 16.4939 11.982C18.053 12.7027 20.55 14.5886 21.5 18H18.0408C17.2978 15.7177 15.4467 13.952 12.9985 13.7117V18H12.6208Z" fill="white"/>
    </symbol>
<!--    <symbol id="icon-youtube" width="24" height="24" viewBox="0 0 24 24" fill="none" xmlns="http://www.w3.org/2000/svg">-->
<!--        <path d="M21.8506 7.24816C21.7294 6.81325 21.4921 6.41672 21.1623 6.09825C20.8326 5.77977 20.4221 5.55053 19.9718 5.43347C18.3135 5 11.65 5 11.65 5C11.65 5 4.9865 5 3.32823 5.43347C2.87794 5.55053 2.46739 5.77977 2.13765 6.09825C1.80792 6.41672 1.57057 6.81325 1.44937 7.24816C1.13973 8.88158 0.989476 10.5395 1.00057 12.2C0.989476 13.8605 1.13973 15.5184 1.44937 17.1518C1.57057 17.5867 1.80792 17.9833 2.13765 18.3018C2.46739 18.6202 2.87794 18.8495 3.32823 18.9665C4.9865 19.4 11.65 19.4 11.65 19.4C11.65 19.4 18.3135 19.4 19.9718 18.9665C20.4221 18.8495 20.8326 18.6202 21.1623 18.3018C21.4921 17.9833 21.7294 17.5867 21.8506 17.1518C22.1603 15.5184 22.3105 13.8605 22.2994 12.2C22.3105 10.5395 22.1603 8.88158 21.8506 7.24816ZM9.52011 15.2857V9.11429L15.0502 12.2L9.52011 15.2857Z" fill="white"/>-->
<!--    </symbol>-->
    <symbol id="icon-youtube" viewBox="0 0 20 20" fill="none" xmlns="http://www.w3.org/2000/svg">
        <path d="M19.5781 5.11095C19.4643 4.70259 19.2414 4.33025 18.9318 4.03122C18.6222 3.73218 18.2367 3.51693 17.8139 3.40701C16.2568 3 10 3 10 3C10 3 3.74319 3 2.18613 3.40701C1.76333 3.51693 1.37783 3.73218 1.06822 4.03122C0.758609 4.33025 0.535749 4.70259 0.421943 5.11095C0.131206 6.64468 -0.00988125 8.20137 0.000537425 9.76056C-0.00988125 11.3198 0.131206 12.8764 0.421943 14.4102C0.535749 14.8185 0.758609 15.1909 1.06822 15.4899C1.37783 15.7889 1.76333 16.0042 2.18613 16.1141C3.74319 16.5211 10 16.5211 10 16.5211C10 16.5211 16.2568 16.5211 17.8139 16.1141C18.2367 16.0042 18.6222 15.7889 18.9318 15.4899C19.2414 15.1909 19.4643 14.8185 19.5781 14.4102C19.8688 12.8764 20.0099 11.3198 19.9995 9.76056C20.0099 8.20137 19.8688 6.64468 19.5781 5.11095ZM8.00011 12.6579V6.86318L13.1927 9.76056L8.00011 12.6579Z" fill="white"/>
    </symbol>



</svg>
