<svg width="20" height="20" viewBox="0 0 20 20" fill="none" xmlns="http://www.w3.org/2000/svg">
<g clip-path="url(#clip0_11_142)">
<mask id="mask0_11_142" style="mask-type:luminance" maskUnits="userSpaceOnUse" x="0" y="2" width="20" height="16">
<path d="M18.5714 2.85712H1.42857C0.639593 2.85712 0 3.49671 0 4.28569V15.7143C0 16.5032 0.639593 17.1428 1.42857 17.1428H18.5714C19.3604 17.1428 20 16.5032 20 15.7143V4.28569C20 3.49671 19.3604 2.85712 18.5714 2.85712Z" fill="white"/>
</mask>
<g mask="url(#mask0_11_142)">
<path d="M18.5714 3.03571H1.42856C0.738202 3.03571 0.178558 3.59535 0.178558 4.28571V15.7143C0.178558 16.4046 0.738202 16.9643 1.42856 16.9643H18.5714C19.2618 16.9643 19.8214 16.4046 19.8214 15.7143V4.28571C19.8214 3.59535 19.2618 3.03571 18.5714 3.03571Z" fill="white" stroke="#F5F5F5" stroke-width="14.2857"/>
<mask id="mask1_11_142" style="mask-type:alpha" maskUnits="userSpaceOnUse" x="-7" y="-5" width="34" height="30">
<path d="M18.5714 3.03571H1.42856C0.738202 3.03571 0.178558 3.59535 0.178558 4.28571V15.7143C0.178558 16.4046 0.738202 16.9643 1.42856 16.9643H18.5714C19.2618 16.9643 19.8214 16.4046 19.8214 15.7143V4.28571C19.8214 3.59535 19.2618 3.03571 18.5714 3.03571Z" fill="white" stroke="white" stroke-width="14.2857"/>
</mask>
<g mask="url(#mask1_11_142)">
<path fill-rule="evenodd" clip-rule="evenodd" d="M0 8.5714H8.57143V2.85712H0V8.5714Z" fill="#083D7A"/>
<path fill-rule="evenodd" clip-rule="evenodd" d="M11.4286 17.1428H20V11.4285H11.4286V17.1428Z" fill="#083D7A"/>
<path fill-rule="evenodd" clip-rule="evenodd" d="M0 17.1428H8.57143V11.4285H0V17.1428Z" fill="#DF1E35"/>
<path fill-rule="evenodd" clip-rule="evenodd" d="M11.4286 8.5714H20V2.85712H11.4286V8.5714Z" fill="#DF1E35"/>
<mask id="mask2_11_142" style="mask-type:luminance" maskUnits="userSpaceOnUse" x="8" y="8" width="4" height="4">
<path fill-rule="evenodd" clip-rule="evenodd" d="M8.98987 8.98981C8.43201 9.5477 8.43201 10.4522 8.98987 11.0101C9.54779 11.568 10.4523 11.568 11.0102 11.0101C11.5681 10.4522 11.5681 9.5477 11.0102 8.98981" fill="white"/>
</mask>
<g mask="url(#mask2_11_142)">
<path d="M8.65314 8.65308C7.90928 9.39693 7.90928 10.6029 8.65314 11.3468L9.32657 10.6734C8.95464 10.3014 8.95464 9.69844 9.32657 9.32651L8.65314 8.65308ZM8.65314 11.3468C9.397 12.0907 10.6031 12.0907 11.3469 11.3468L10.6735 10.6734C10.3016 11.0453 9.6985 11.0453 9.32657 10.6734L8.65314 11.3468ZM11.3469 11.3468C12.0908 10.6029 12.0908 9.39693 11.3469 8.65308L10.6735 9.32651C11.0454 9.69844 11.0454 10.3014 10.6735 10.6734L11.3469 11.3468Z" fill="#0F6D1A"/>
</g>
<path fill-rule="evenodd" clip-rule="evenodd" d="M10 10.4762C10.263 10.4762 10.4762 10.263 10.4762 9.99999C10.4762 9.737 10.263 9.5238 10 9.5238C9.73708 9.5238 9.52386 9.737 9.52386 9.99999C9.52386 10.263 9.73708 10.4762 10 10.4762Z" fill="#042F60"/>
</g>
</g>
</g>
<defs>
<clipPath id="clip0_11_142">
<rect width="20" height="20" fill="white"/>
</clipPath>
</defs>
</svg>
