<svg width="20" height="20" viewBox="0 0 20 20" fill="none" xmlns="http://www.w3.org/2000/svg">
<g clip-path="url(#clip0_11_163)">
<mask id="mask0_11_163" style="mask-type:luminance" maskUnits="userSpaceOnUse" x="0" y="2" width="20" height="16">
<path d="M18.5714 2.85712H1.42857C0.639593 2.85712 0 3.49671 0 4.28569V15.7143C0 16.5032 0.639593 17.1428 1.42857 17.1428H18.5714C19.3604 17.1428 20 16.5032 20 15.7143V4.28569C20 3.49671 19.3604 2.85712 18.5714 2.85712Z" fill="white"/>
</mask>
<g mask="url(#mask0_11_163)">
<path d="M18.5714 3.03571H1.42856C0.738202 3.03571 0.178558 3.59535 0.178558 4.28571V15.7143C0.178558 16.4046 0.738202 16.9643 1.42856 16.9643H18.5714C19.2618 16.9643 19.8214 16.4046 19.8214 15.7143V4.28571C19.8214 3.59535 19.2618 3.03571 18.5714 3.03571Z" fill="white" stroke="#F5F5F5" stroke-width="14.2857"/>
<mask id="mask1_11_163" style="mask-type:alpha" maskUnits="userSpaceOnUse" x="-7" y="-5" width="34" height="30">
<path d="M18.5714 3.03571H1.42856C0.738202 3.03571 0.178558 3.59535 0.178558 4.28571V15.7143C0.178558 16.4046 0.738202 16.9643 1.42856 16.9643H18.5714C19.2618 16.9643 19.8214 16.4046 19.8214 15.7143V4.28571C19.8214 3.59535 19.2618 3.03571 18.5714 3.03571Z" fill="white" stroke="white" stroke-width="14.2857"/>
</mask>
<g mask="url(#mask1_11_163)">
<path d="M19.9999 2.85712H13.3332V17.1428H19.9999V2.85712Z" fill="#E43D4C"/>
<path fill-rule="evenodd" clip-rule="evenodd" d="M0 17.1428H6.66666V2.85712H0V17.1428Z" fill="#1BB65D"/>
</g>
</g>
</g>
<defs>
<clipPath id="clip0_11_163">
<rect width="20" height="20" fill="white"/>
</clipPath>
</defs>
</svg>
