<svg width="20" height="20" viewBox="0 0 20 20" fill="none" xmlns="http://www.w3.org/2000/svg">
<g clip-path="url(#clip0_11_218)">
<mask id="mask0_11_218" style="mask-type:luminance" maskUnits="userSpaceOnUse" x="0" y="2" width="20" height="16">
<path d="M18.5714 2.85715H1.42857C0.639593 2.85715 0 3.49674 0 4.28572V15.7143C0 16.5033 0.639593 17.1429 1.42857 17.1429H18.5714C19.3604 17.1429 20 16.5033 20 15.7143V4.28572C20 3.49674 19.3604 2.85715 18.5714 2.85715Z" fill="white"/>
</mask>
<g mask="url(#mask0_11_218)">
<path d="M18.5714 2.85715H1.42857C0.639593 2.85715 0 3.49674 0 4.28572V15.7143C0 16.5033 0.639593 17.1429 1.42857 17.1429H18.5714C19.3604 17.1429 20 16.5033 20 15.7143V4.28572C20 3.49674 19.3604 2.85715 18.5714 2.85715Z" fill="white"/>
<mask id="mask1_11_218" style="mask-type:alpha" maskUnits="userSpaceOnUse" x="0" y="2" width="20" height="16">
<path d="M18.5714 2.85715H1.42857C0.639593 2.85715 0 3.49674 0 4.28572V15.7143C0 16.5033 0.639593 17.1429 1.42857 17.1429H18.5714C19.3604 17.1429 20 16.5033 20 15.7143V4.28572C20 3.49674 19.3604 2.85715 18.5714 2.85715Z" fill="white"/>
</mask>
<g mask="url(#mask1_11_218)">
<path d="M20 2.85715H0V17.1429H20V2.85715Z" fill="#E92434"/>
<path fill-rule="evenodd" clip-rule="evenodd" d="M13.5863 10.5489L12.7114 11.6095L12.7711 10.2359L11.4919 9.7316L12.8167 9.36379L12.9011 7.99142L13.6603 9.13777L14.9915 8.79387L14.1359 9.87016L14.8744 11.03L13.5863 10.5489Z" fill="white"/>
<path fill-rule="evenodd" clip-rule="evenodd" d="M12.4306 12.6313C11.6464 13.6382 10.4226 14.2857 9.04749 14.2857C6.68057 14.2857 4.76178 12.3669 4.76178 10C4.76178 7.63307 6.68057 5.71429 9.04749 5.71429C10.4226 5.71429 11.6464 6.36186 12.4306 7.36866C11.8254 6.92872 11.0644 6.66666 10.2379 6.66666C8.26542 6.66666 6.66643 8.15904 6.66643 9.99999C6.66643 11.8409 8.26542 13.3333 10.2379 13.3333C11.0644 13.3333 11.8254 13.0712 12.4306 12.6313Z" fill="white"/>
</g>
</g>
</g>
<defs>
<clipPath id="clip0_11_218">
<rect width="20" height="20" fill="white"/>
</clipPath>
</defs>
</svg>
