<svg xmlns="http://www.w3.org/2000/svg">
    <symbol id="icon-burger" xmlns="http://www.w3.org/2000/svg" fill="none">
        <path fill="#fff" d="M0 0h48v1H0zM0 11h36v1H0zM0 22h20v1H0z" />
    </symbol>
    <symbol id="icon-header-logo" xmlns="http://www.w3.org/2000/svg" fill="none">
        <path fill="#fff"
            d="M95.95.127v1.768c0 .853.69 1.546 1.543 1.546h8.04v20.398h3.754V6.086c-.337-1.535-1.293-2.645-2.422-2.645H118.698c.718 0 1.302-.585 1.302-1.305V.127H95.95ZM0 .127v1.588c0 .953.772 1.726 1.722 1.726h8.955v20.398h3.754V6.086c-.337-1.535-1.293-2.645-2.422-2.645H23.842c.718 0 1.302-.585 1.302-1.305V.127H0ZM84.218 23.99c-1.639.037-3.2-.032-4.687-.205-1.486-.17-2.806-.499-3.959-.98-1.156-.48-2.068-1.187-2.738-2.119-.67-.931-1.022-2.137-1.051-3.62-.003-.111 0-.213.011-.305.01-.09.015-.159.012-.203 0 0 3.209.698 3.215.901.018.81.78 1.421 1.478 1.97.697.55 1.692.944 2.988 1.186 1.296.241 2.83.346 4.602.307a24.135 24.135 0 0 0 2.387-.167 16.571 16.571 0 0 0 2.213-.418 8.111 8.111 0 0 0 1.838-.713c.534-.293.948-.645 1.24-1.057.295-.412.435-.887.426-1.427-.015-.764-.304-1.37-.864-1.821-.56-.448-1.308-.806-2.247-1.066a24.655 24.655 0 0 0-3.178-.642 588.362 588.362 0 0 0-3.632-.498 36.556 36.556 0 0 1-3.617-.666c-1.173-.28-2.237-.65-3.187-1.113-.954-.463-1.713-1.072-2.28-1.824-.565-.753-.86-1.714-.884-2.884a4.988 4.988 0 0 1 .62-2.561c.432-.785 1.108-1.475 2.028-2.069.918-.594 2.1-1.063 3.54-1.406 1.441-.346 3.17-.54 5.19-.582 2.064-.045 3.8.101 5.21.43 1.409.331 2.541.785 3.396 1.361.855.58 1.48 1.245 1.877 2.003.396.755.605 1.528.62 2.314l.014.641-2.997.063a.61.61 0 0 1-.62-.594c-.011-.606-.303-1.146-.875-1.618-.572-.472-1.388-.854-2.449-1.146-1.06-.293-2.333-.424-3.813-.391-1.818.038-3.313.2-4.487.483-1.174.284-2.053.669-2.636 1.153-.584.483-.87 1.053-.858 1.704.015.654.3 1.18.858 1.585.557.406 1.31.72 2.258.947.947.226 2.008.423 3.178.59 1.171.168 2.375.338 3.614.514 1.24.176 2.45.4 3.635.666 1.183.268 2.246.645 3.188 1.131.94.487 1.695 1.11 2.26 1.875.567.764.862 1.72.885 2.866.036 1.755-.431 3.17-1.409 4.247-.977 1.078-2.356 1.86-4.144 2.35-1.778.492-3.837.761-6.17.809Z" />
        <path fill="#fff"
            d="M30.745 23.794 22.495.127h2.143c1.123 0 2.12.72 2.481 1.785l4.865 14.44c.093.274.206.636.343 1.086.137.448.28.914.429 1.394.149.484.268.908.36 1.275h.274c.069-.274.15-.579.242-.913.092-.332.184-.672.274-1.015.092-.344.187-.678.292-1 .104-.323.187-.597.256-.827L39.37.127h3.998c.709 0 1.334.463 1.543 1.144l4.602 15.08c.093.275.2.637.328 1.087.125.448.256.914.396 1.394.137.484.242.908.31 1.275h.274c.093-.274.185-.585.274-.931.093-.344.2-.69.328-1.033.125-.343.235-.672.328-.982.092-.31.184-.58.274-.81l4.8-14.334a2.766 2.766 0 0 1 2.62-1.89h1.69L52.85 23.794h-4.779L42.983 7.432c-.092-.275-.2-.63-.327-1.069-.126-.435-.254-.89-.379-1.36-.125-.473-.235-.89-.328-1.258h-.24c-.093.368-.2.788-.329 1.257-.125.472-.253.926-.378 1.361-.125.436-.235.791-.328 1.069l-5.02 16.362h-4.91ZM64.57 23.794V.127h2.023c.932 0 1.69.759 1.69 1.693v21.97H64.57v.004Z" />
    </symbol>
    <symbol id="icon-heart" xmlns="http://www.w3.org/2000/svg" fill="none">
        <path fill="#fff"
            d="M21.785 4.706C21.169 2.136 19.258.33 16.852.052c-2.385-.279-4.171.831-5.518 2.92-.112.175-.211.354-.336.567a3.349 3.349 0 0 1-.13-.218C10.09 1.956 9.083.883 7.676.345 4.54-.845.71 1.1.082 5.353c-.306 2.088.262 3.908 1.399 5.552.826 1.195 1.8 2.24 2.854 3.189 2.057 1.852 4.14 3.676 6.21 5.51.147.127.29.254.449.396.056-.047.111-.09.168-.137 2.035-1.795 4.084-3.577 6.107-5.391 1.189-1.063 2.312-2.207 3.246-3.558.723-1.049 1.253-2.192 1.425-3.51.017-.137.043-.28.06-.416V5.906c-.073-.402-.12-.808-.215-1.2Z" />
    </symbol>
    <symbol id="icon-footer-logo" xmlns="http://www.w3.org/2000/svg" fill="none">
        <path fill="#fff"
            d="m38.612 10.29 48.963.34s3.763.113 3.763 1.659c0 1.545-2.37 3.393-2.37 3.393s1.241-3.657-3.5-4.034c-3.011-.302-46.856-1.357-46.856-1.357ZM23.333 0l68.42.34s3.386.112 3.386 1.658c0 1.545-2.145 3.393-2.145 3.393s1.317-3.62-2.973-3.996C87.311 1.13 23.333 0 23.333 0ZM52.5 20.432l30.371.339s3.5.113 3.5 1.659c0 1.545-2.22 3.43-2.22 3.43s1.43-3.657-2.973-4.071c-2.785-.302-28.678-1.357-28.678-1.357ZM111.941 29.551v2.054c0 .993.806 1.798 1.8 1.798h9.381V57.11h4.38V36.477c-.393-1.783-1.509-3.074-2.826-3.074h13.805c.838 0 1.519-.68 1.519-1.516V29.55h-28.059ZM0 29.551v1.846c0 1.107.9 2.006 2.009 2.006h10.448V57.11h4.38V36.477c-.394-1.783-1.51-3.074-2.827-3.074H27.816c.837 0 1.519-.68 1.519-1.516V29.55H0ZM98.254 57.288a39.905 39.905 0 0 1-5.468-.24c-1.734-.197-3.274-.579-4.619-1.138-1.348-.558-2.412-1.38-3.194-2.463-.782-1.083-1.192-2.484-1.227-4.209-.003-.128 0-.246.014-.354.01-.104.018-.184.014-.236 0 0 3.743.812 3.75 1.048.021.94.911 1.652 1.724 2.29.814.639 1.974 1.097 3.486 1.378 1.512.28 3.302.402 5.37.357.942-.02 1.87-.083 2.784-.194a19.418 19.418 0 0 0 2.583-.486 9.483 9.483 0 0 0 2.144-.83c.622-.34 1.105-.749 1.446-1.227.344-.48.508-1.03.497-1.659-.017-.888-.354-1.593-1.008-2.116-.653-.52-1.526-.937-2.62-1.24-1.095-.304-2.329-.55-3.709-.745-1.38-.194-2.791-.385-4.237-.58a42.793 42.793 0 0 1-4.22-.773c-1.369-.326-2.61-.757-3.718-1.294-1.113-.538-1.999-1.246-2.66-2.12-.66-.875-1.004-1.992-1.031-3.352a5.78 5.78 0 0 1 .722-2.977c.505-.913 1.293-1.714 2.367-2.405 1.07-.69 2.45-1.235 4.13-1.634 1.682-.402 3.698-.628 6.054-.676 2.409-.053 4.435.117 6.079.5 1.644.384 2.965.912 3.962 1.581.998.673 1.728 1.447 2.19 2.328.462.878.706 1.777.723 2.69l.017.745-3.496.073a.71.71 0 0 1-.723-.69c-.014-.704-.355-1.333-1.022-1.88-.667-.549-1.62-.993-2.857-1.333-1.237-.34-2.721-.493-4.449-.455-2.12.046-3.865.233-5.234.563-1.37.33-2.395.777-3.076 1.339-.681.562-1.015 1.225-1.001 1.981.017.76.35 1.37 1 1.842s1.53.837 2.635 1.1c1.106.264 2.343.493 3.709.687 1.366.195 2.77.392 4.216.597a54.47 54.47 0 0 1 4.24.774c1.38.312 2.621.75 3.719 1.315 1.099.565 1.978 1.29 2.638 2.179.661.888 1.005 1.998 1.032 3.33.042 2.04-.503 3.685-1.643 4.938-1.141 1.253-2.75 2.162-4.835 2.73-2.075.573-4.477.886-7.198.941Z" />
        <path fill="#fff"
            d="M35.869 57.06 26.245 29.55h2.499c1.31 0 2.475.837 2.895 2.075l5.676 16.783c.108.32.24.74.4 1.263.16.52.326 1.062.5 1.62.174.563.313 1.055.42 1.482h.32c.08-.32.174-.673.282-1.062.108-.385.215-.78.32-1.18.107-.398.219-.787.34-1.162.122-.374.22-.694.3-.96L45.93 29.55h4.664c.828 0 1.558.538 1.8 1.33l5.37 17.528c.108.32.234.74.383 1.263.146.52.299 1.062.462 1.62.16.563.282 1.055.362 1.482h.32c.107-.32.215-.68.32-1.083.107-.399.232-.801.382-1.2.146-.4.274-.78.382-1.142.108-.36.215-.673.32-.94l5.599-16.661a3.226 3.226 0 0 1 3.059-2.197h1.97L61.658 57.06h-5.575l-5.936-19.017c-.108-.32-.233-.732-.382-1.242a80.432 80.432 0 0 1-.442-1.583c-.146-.548-.274-1.034-.382-1.46h-.282c-.107.426-.232.916-.382 1.46a80.432 80.432 0 0 1-.441 1.583c-.146.506-.275.919-.383 1.242l-5.856 19.017h-5.728ZM75.332 57.06V29.55h2.36a1.97 1.97 0 0 1 1.97 1.968v25.537h-4.33v.003ZM41.736 72v-.679h-2.07V72h-.526v-1.206h.338c.076-.113.15-.189.15-.34.038-.113.038-.263.038-.414l.226-3.77h2.033v4.561h.376V72h-.565Zm-1.505-1.923c0 .189-.038.34-.075.453-.038.113-.075.226-.188.301h1.317v-4.07h-.903l-.151 3.316ZM46.742 68.494v.49H45.5v1.81h1.506v.527h-2.07v-5.05h2.07v.527H45.5v1.734h1.242v-.038ZM50.77 66.76l-.113 3.28c0 .188-.038.377-.076.527-.037.151-.075.302-.15.378-.075.113-.188.188-.301.263-.113.076-.301.076-.49.076h-.075v-.528c.113 0 .226 0 .264-.038.037-.037.113-.075.188-.15.037-.076.075-.151.075-.227 0-.075.038-.188.038-.301l.15-3.808h2.07v5.052h-.564V66.76H50.77ZM54.983 67.476c0-.377.113-.716.3-.942.189-.227.49-.34.866-.34.377 0 .678.114.866.34.188.226.301.565.301.942v2.601c0 .377-.113.679-.301.905-.188.226-.49.34-.866.34s-.677-.114-.865-.34c-.188-.226-.301-.528-.301-.905v-2.6Zm.564 2.639c0 .226.038.415.15.528a.623.623 0 0 0 .452.188c.188 0 .377-.075.452-.188a.977.977 0 0 0 .15-.528v-2.677c0-.226-.037-.414-.15-.527a.563.563 0 0 0-.452-.189.623.623 0 0 0-.451.189c-.113.113-.15.301-.15.527v2.677ZM61.118 66.27c.376 0 .677.076.828.264.15.188.263.452.263.83v.225c0 .264-.038.49-.113.641a.62.62 0 0 1-.451.34c.263.075.414.188.526.377.113.188.151.414.151.716v.452c0 .377-.075.679-.263.867-.189.189-.49.302-.866.302h-1.167V66.27h1.092Zm-.113 2.111c.226 0 .376-.038.49-.15.112-.076.187-.265.187-.528v-.264c0-.226-.037-.377-.113-.49-.075-.114-.226-.151-.414-.151h-.564v1.62h.414v-.037Zm.15 2.413c.414 0 .602-.227.602-.679v-.452c0-.302-.075-.49-.15-.603-.113-.114-.301-.151-.527-.151h-.49v1.885h.565ZM64.956 67.476c0-.377.112-.716.3-.942.189-.227.49-.34.866-.34.377 0 .678.114.866.34.188.226.263.565.263.942v2.601c0 .377-.113.679-.3.905-.189.226-.49.34-.866.34-.377 0-.678-.114-.866-.34-.188-.226-.301-.528-.301-.905v-2.6h.038Zm.526 2.639c0 .226.038.415.151.528a.623.623 0 0 0 .452.188c.188 0 .376-.075.451-.188a.977.977 0 0 0 .15-.528v-2.677c0-.226-.037-.414-.15-.527a.563.563 0 0 0-.451-.189.623.623 0 0 0-.452.189c-.113.113-.15.301-.15.527v2.677ZM71.279 68.909l-.753 2.375h-.564V66.27h.489v3.77l.49-1.47.79-2.3h.64v5.052h-.49v-4.034l-.602 1.621Zm.677-3.694a.818.818 0 0 1-.188.528.923.923 0 0 1-.564.188c-.264 0-.452-.075-.565-.188-.188-.151-.226-.302-.263-.528h.376c0 .15.038.226.113.301a.707.707 0 0 0 .3.076.708.708 0 0 0 .302-.076c.075-.037.113-.15.15-.301h.34ZM80.576 71.962v-.678h-2.183V66.27h.564v4.524H80.2V66.27h.565v4.561h.376V72h-.564v-.038ZM85.58 68.494v.49h-1.242v1.81h1.506v.527h-2.07v-5.05h2.07v.527h-1.506v1.734h1.242v-.038ZM89.08 69.022v2.262h-.564V66.27h.565v2.262h1.242V66.27h.564v5.051h-.564V69.06H89.08v-.038ZM94.385 71.284V66.76h-.94v-.49h2.408v.528h-.94v4.523h-.528v-.037ZM99.58 66.27c.413 0 .677.113.865.34.188.225.263.527.263.904v.603c0 .415-.112.716-.301.905-.188.188-.489.301-.903.301h-.49v1.998h-.564v-5.05h1.13Zm-.076 2.526c.226 0 .376-.038.452-.151a.88.88 0 0 0 .15-.528v-.64c0-.227-.037-.415-.15-.528-.076-.114-.226-.189-.452-.189h-.527v2.036h.527Z" />
    </symbol>
    <symbol id="icon-whatsapp" xmlns="http://www.w3.org/2000/svg" fill="none">
        <g clip-path="url(#a1a1a1)">
            <path fill="#fff" fill-opacity=".2"
                d="M10.002 0h-.005C4.485 0 0 4.485 0 10c0 2.188.705 4.215 1.904 5.861L.658 19.576 4.5 18.347A9.913 9.913 0 0 0 10.002 20C15.517 20 20 15.514 20 10S15.516 0 10.002 0Z" />
            <path fill="#23252E"
                d="M15.821 14.121c-.24.682-1.198 1.247-1.962 1.412-.523.11-1.205.2-3.503-.753-2.938-1.217-4.83-4.204-4.978-4.397C5.236 10.189 4.19 8.8 4.19 7.366c0-1.435.729-2.133 1.023-2.433.24-.247.64-.36 1.022-.36.124 0 .235.007.335.012.294.013.441.03.635.494.241.581.829 2.016.899 2.164.071.147.142.347.042.54-.093.2-.176.29-.323.46-.148.17-.288.3-.435.482-.135.159-.288.329-.118.623.17.287.758 1.246 1.623 2.016 1.116.994 2.02 1.311 2.345 1.446.24.1.528.076.705-.111.223-.241.5-.641.78-1.035.2-.283.453-.318.718-.218.27.094 1.7.8 1.993.947.294.147.487.217.559.34.07.125.07.706-.172 1.388Z" />
        </g>
        <defs>
            <clipPath id="a1a1a1">
                <path fill="#fff" d="M0 0h20v20H0z" />
            </clipPath>
        </defs>
    </symbol>
    <symbol id="icon-tg" xmlns="http://www.w3.org/2000/svg" fill="none">
        <mask id="b" width="22" height="18" x="0" y="0" maskUnits="userSpaceOnUse" style="mask-type:luminance">
            <path fill="#fff" fill-rule="evenodd" d="M0 0h22v18H0V0Z" clip-rule="evenodd" />
        </mask>
        <g mask="url(#b)">
            <path fill="#fff" fill-opacity=".2" fill-rule="evenodd"
                d="M22 1.446c-.116.504-.236 1.006-.346 1.51l-2.13 9.788c-.305 1.405-.608 2.811-.921 4.215a2.08 2.08 0 0 1-.202.529c-.24.441-.633.608-1.118.459a2.232 2.232 0 0 1-.63-.3c-1.581-1.125-3.154-2.261-4.73-3.394-.057-.041-.115-.08-.183-.127-.052.044-.102.081-.147.123-.813.761-1.627 1.522-2.439 2.285-.242.227-.517.364-.879.343l.088-1.29.197-2.668c.01-.14.047-.284.029-.42-.071-.513.223-.81.581-1.124 2.917-2.553 5.82-5.121 8.726-7.685.043-.038.098-.07.123-.116.046-.086.074-.182.11-.273-.098-.027-.207-.094-.293-.073a1.83 1.83 0 0 0-.507.21c-3.789 2.323-7.575 4.65-11.36 6.98-.107.065-.198.1-.334.058C4.029 9.98 2.419 9.492.813 8.994a2.063 2.063 0 0 1-.554-.265c-.312-.216-.35-.532-.07-.787.204-.187.452-.353.711-.454 1.353-.528 2.715-1.033 4.075-1.544C10.14 4 15.305 2.058 20.472.119c.165-.062.344-.103.52-.116.464-.035.809.212.95.656.017.052.039.103.058.154v.633Z"
                clip-rule="evenodd" />
        </g>
    </symbol>
    <symbol id="icon-youtube" xmlns="http://www.w3.org/2000/svg" fill="none">
        <path fill="#fff" fill-opacity=".2" fill-rule="evenodd"
            d="M9.144 3.601c1.139.813 2.316 1.705 3.447 2.563 1.142.868 2.301 1.703 3.41 2.543-1.988 1.337-3.984 2.627-6 3.946-.282.184-.551.407-.857.548v-9.6ZM.007 4.983v8.109c0 .954-.046 1.855.17 2.523a3.468 3.468 0 0 0 1.062 1.583 3.11 3.11 0 0 0 1.837.76c.764.065 1.659.02 2.54.02h12.788c.86 0 1.73.06 2.558-.02 1.463-.14 2.47-1.113 2.86-2.382.212-.688.17-1.59.17-2.524V4.944c0-.961.062-1.79-.17-2.523a3.458 3.458 0 0 0-1.04-1.602c-.467-.401-1.006-.71-1.82-.78-.804-.07-1.703-.021-2.54-.021H5.635c-.845 0-1.82-.047-2.595.02C1.599.163.524 1.18.159 2.44-.05 3.154.007 4.068.007 4.983Z"
            clip-rule="evenodd" />
    </symbol>
    <symbol id="icon-vk" xmlns="http://www.w3.org/2000/svg" fill="none">
        <mask id="c" width="24" height="14" x="0" y="0" maskUnits="userSpaceOnUse" style="mask-type:luminance">
            <path fill="#fff" fill-rule="evenodd" d="M0 0h24v14H0V0Z" clip-rule="evenodd" />
        </mask>
        <g mask="url(#c)">
            <path fill="#fff" fill-opacity=".2" fill-rule="evenodd"
                d="M7.929.973c.172-.388.446-.629.802-.718a7.387 7.387 0 0 1 1.32-.211c1.04-.067 2.082-.084 3.11.143.57.126.855.437.864 1.04.017.98-.018 1.96-.021 2.94-.002.59.014 1.18.022 1.77 0 .02.002.04.005.06.06.341.136.709.483.834.331.12.566-.16.77-.384.953-1.048 1.645-2.275 2.253-3.555.251-.528.465-1.076.688-1.619.201-.488.424-.65.933-.654l3.798-.027c1.012-.007 1.26.356.866 1.315-.455 1.107-1.167 2.05-1.858 3.005-.482.667-.987 1.316-1.459 1.99-.648.927-.61 1.259.17 2.073.826.862 1.665 1.713 2.464 2.6.286.318.5.715.701 1.1.294.56.108.995-.486 1.185a2.049 2.049 0 0 1-.573.09c-1.1.022-2.2.04-3.301.047-.671.005-1.23-.307-1.699-.76-.495-.48-.938-1.014-1.412-1.518-.236-.25-.472-.508-.738-.724-.526-.425-1.013-.327-1.264.314a5.11 5.11 0 0 0-.321 1.478c-.066.916-.324 1.201-1.22 1.21-1.072.01-2.138.01-3.18-.32-1.831-.579-3.282-1.709-4.483-3.21C3.421 8.289 2.105 5.842.893 3.329a46.508 46.508 0 0 1-.79-1.737c-.246-.57-.05-.905.554-.921C1.747.642 2.838.636 3.929.624c.597-.006.988.254 1.226.853.644 1.625 1.454 3.162 2.487 4.566.185.252.41.487.654.679.36.283.71.18.857-.259.12-.354.217-.735.225-1.107.02-.968.042-1.943-.046-2.905-.088-.958-.392-1.215-1.403-1.478Z"
                clip-rule="evenodd" />
        </g>
    </symbol>
    <symbol id="icon-dzen" xmlns="http://www.w3.org/2000/svg" fill="none">
        <g clip-path="url(#d)">
            <path fill="#fff" fill-opacity=".2"
                d="M18.758 9.594h.004a.4.4 0 0 0 .398-.436A9.186 9.186 0 0 0 10.844.84a.4.4 0 0 0-.436.403c.07 5.87.844 8.27 8.35 8.351Zm0 .812c-7.506.082-8.28 2.48-8.35 8.35a.4.4 0 0 0 .436.404 9.185 9.185 0 0 0 8.316-8.318.4.4 0 0 0-.402-.436ZM9.129.842A9.19 9.19 0 0 0 .84 9.159a.4.4 0 0 0 .398.436h.005c7.481-.086 8.254-2.484 8.324-8.35A.401.401 0 0 0 9.13.842Zm-7.886 9.563c-.125-.014-.222.045-.299.129a.401.401 0 0 0-.104.307 9.19 9.19 0 0 0 8.327 8.319.4.4 0 0 0 .4-.405c-.07-5.866-.843-8.264-8.324-8.35Z" />
        </g>
        <defs>
            <clipPath id="d">
                <path fill="#fff" d="M0 0h20v20H0z" />
            </clipPath>
        </defs>
    </symbol>
    <symbol id="icon-logo-bottom" xmlns="http://www.w3.org/2000/svg" fill="none">
        <path fill="#fff"
            d="M107.378 4.61v4.237h-5.036V4.611h-2.56v11.133h2.56V11.31h5.036v4.434h2.559V4.61h-2.559ZM121.074 4.61H111.473v2.287h3.521v8.847h2.559V6.897h3.521V4.61ZM131.576 6.897V4.61h-8.885v11.133h8.885v-2.306h-6.346V11.33h6.346V9.025h-6.346V6.897h6.346ZM144.126 4.61h-3.071l-3.419 4.415h-1.085V4.61h-2.559v11.133h2.559V11.33h1.085l3.419 4.414h3.071l-4.32-5.576 4.32-5.557ZM94.603 4.61l-5.18 7.311v-7.31h-2.558v11.133h2.559l5.18-7.31v7.31h2.558V4.61h-2.559Z" />
        <path fill="#fff"
            d="M149.879 4.217c-3.378 0-6.122 2.64-6.122 5.891 0 3.252 2.744 5.892 6.122 5.892 3.378 0 6.121-2.64 6.121-5.892.02-3.231-2.723-5.891-6.121-5.891Zm0 9.36c-1.986 0-3.583-1.537-3.583-3.449 0-1.911 1.597-3.448 3.583-3.448 1.985 0 3.582 1.537 3.582 3.448.021 1.912-1.597 3.448-3.582 3.448ZM60.435 15.744l4.463-5.163-4.3-5.93h2.334c1.147 0 .983.452 2.969 3.191l.675.946 2.703-4c.082-.118.225-.158.348-.158h1.392l-4.054 4.69 4.688 6.424h-2.19c-1.454.02-1.188-.552-3.112-3.173l-1.064-1.458-3.092 4.453c-.082.119-.205.158-.368.158h-1.392v.02ZM55.746 15.96c-1.576 0-3.214-.433-4.237-1.655-.963-1.143-1.31-2.561-1.352-4-.02-1.793.45-3.231 1.433-4.315.983-1.084 2.334-1.616 4.054-1.616.819 0 1.556.118 2.19.355.635.236 1.127.552 1.515.965.39.414.676.887.86 1.42a5.95 5.95 0 0 1 .307 1.753c0 .335-.02.65-.081.926 0 .04-.041.059-.062.059h-7.206c.04 1.793.327 3.074.86 3.882.532.808 1.412 1.202 2.661 1.202 1.29 0 2.293-.355 3.276-1.084.163.138.348.512 0 .808-.901.788-2.662 1.3-4.218 1.3Zm-2.6-6.64 4.668-.335c.02-1.497-.04-3.96-2.109-3.96-2.17 0-2.497 2.699-2.559 4.295ZM48.356 14.463V7.961c0-2.227-.88-3.567-3.153-3.567-1.597 0-3.112.73-4.197 1.813 0-.867-.143-1.577-1.023-1.577H38.14l.102 1.262v8.551l-.102 1.281h2.99l-.103-1.28V6.797c.86-.63 1.658-.946 2.804-.946 1.454 0 1.74 1.3 1.74 2.74v5.635c0 .945.226 1.497 1.045 1.497h1.842l-.102-1.261ZM35.254 1.419c0 .788-.676 1.418-1.495 1.418-.819 0-1.494-.63-1.494-1.418 0-.789.675-1.42 1.494-1.42s1.495.631 1.495 1.42ZM32.367 4.63l.102 1.262v8.551l-.102 1.281h2.989l-.103-1.28V6.107c0-.847-.163-1.497-1.044-1.497h-1.842v.02ZM29.542 14.463V7.961c0-2.247-.88-3.567-3.153-3.567-1.904 0-3.194.926-4.217 1.97-.369-1.24-1.27-1.97-2.99-1.97-1.617 0-2.927.73-3.991 1.833v-.02c0-.867-.144-1.577-1.024-1.577h-1.843l.103 1.262v8.551l-.103 1.281h2.99l-.103-1.28V6.797a4.347 4.347 0 0 1 2.64-.946c1.577 0 1.741 1.557 1.741 2.74v5.851l-.102 1.281h2.989l-.103-1.28V6.797c.717-.591 1.72-.946 2.662-.946 1.637 0 1.74 1.714 1.74 2.74v5.635c0 1.064.307 1.497 1.044 1.497h1.843l-.123-1.261ZM4.77 15.96c-1.372 0-3.398-.374-4.627-1.044.226-.492.655-.867 1.27-.551a7.468 7.468 0 0 0 3.439.807c1.76 0 3.05-.945 2.968-2.66C7.636 8.926-.02 8.394 0 4.08.02.906 2.989 0 5.835 0c1.371 0 2.723.256 4.053.768-.225.513-.614.946-1.29.631a6.746 6.746 0 0 0-2.886-.63c-1.74 0-2.723.906-2.723 2.246-.02 3.428 7.76 3.94 7.902 8.394.082 3.251-2.743 4.552-6.12 4.552ZM81.644 9.852H74.99v.572h6.654v-.572Z" />
    </symbol>
    <symbol id="icon-clock" viewBox="0 0 16 16" fill="none" xmlns="http://www.w3.org/2000/svg">
        <path
            d="M8 16C12.4171 16 16 12.4171 16 8C16 3.58285 12.4171 0 8 0C3.58285 0 0 3.58285 0 8C0 12.4171 3.58285 16 8 16ZM7.42855 3.42858C7.42855 3.11428 7.6857 2.85713 8 2.85713C8.3143 2.85713 8.57144 3.11428 8.57144 3.42858V7.72572L11.2143 9.84001C11.46 10.0372 11.5 10.3971 11.3029 10.6429C11.1914 10.7829 11.0257 10.8571 10.8571 10.8571C10.7314 10.8571 10.6057 10.8171 10.5 10.7314L7.64288 8.44573C7.50859 8.33714 7.4286 8.1743 7.4286 8V3.42858H7.42855Z"
            fill="currentColor" />
    </symbol>
    <symbol id="icon-cross" viewBox="0 0 29 29" fill="none" xmlns="http://www.w3.org/2000/svg">
        <path fill-rule="evenodd" clip-rule="evenodd"
            d="M21.2967 21.8208L7.1546 7.67865L8.09741 6.73584L22.2395 20.878L21.2967 21.8208Z" fill="currentColor" />
        <path fill-rule="evenodd" clip-rule="evenodd"
            d="M21.9632 7.67891L7.82104 21.821L6.87823 20.8782L21.0204 6.7361L21.9632 7.67891Z" fill="currentColor" />
    </symbol>


</svg>