<svg xmlns="http://www.w3.org/2000/svg" width="120" height="24" fill="none"><path fill="#fff" d="M95.95.127v1.768c0 .853.69 1.546 1.543 1.546h8.04v20.398h3.754V6.086c-.337-1.535-1.293-2.645-2.422-2.645H118.698c.718 0 1.302-.585 1.302-1.305V.127H95.95ZM0 .127v1.588c0 .953.772 1.726 1.722 1.726h8.955v20.398h3.754V6.086c-.337-1.535-1.293-2.645-2.422-2.645H23.842c.718 0 1.302-.585 1.302-1.305V.127H0ZM84.218 23.99c-1.639.037-3.2-.032-4.687-.205-1.486-.17-2.806-.499-3.959-.98-1.156-.48-2.068-1.187-2.738-2.119-.67-.931-1.022-2.137-1.051-3.62-.003-.111 0-.213.011-.305.01-.09.015-.159.012-.203 0 0 3.209.698 3.215.901.018.81.78 1.421 1.478 1.97.697.55 1.692.944 2.988 1.186 1.296.241 2.83.346 4.602.307a24.135 24.135 0 0 0 2.387-.167 16.571 16.571 0 0 0 2.213-.418 8.111 8.111 0 0 0 1.838-.713c.534-.293.948-.645 1.24-1.057.295-.412.435-.887.426-1.427-.015-.764-.304-1.37-.864-1.821-.56-.448-1.308-.806-2.247-1.066a24.655 24.655 0 0 0-3.178-.642 588.362 588.362 0 0 0-3.632-.498 36.556 36.556 0 0 1-3.617-.666c-1.173-.28-2.237-.65-3.187-1.113-.954-.463-1.713-1.072-2.28-1.824-.565-.753-.86-1.714-.884-2.884a4.988 4.988 0 0 1 .62-2.561c.432-.785 1.108-1.475 2.028-2.069.918-.594 2.1-1.063 3.54-1.406 1.441-.346 3.17-.54 5.19-.582 2.064-.045 3.8.101 5.21.43 1.409.331 2.541.785 3.396 1.361.855.58 1.48 1.245 1.877 2.003.396.755.605 1.528.62 2.314l.014.641-2.997.063a.61.61 0 0 1-.62-.594c-.011-.606-.303-1.146-.875-1.618-.572-.472-1.388-.854-2.449-1.146-1.06-.293-2.333-.424-3.813-.391-1.818.038-3.313.2-4.487.483-1.174.284-2.053.669-2.636 1.153-.584.483-.87 1.053-.858 1.704.015.654.3 1.18.858 1.585.557.406 1.31.72 2.258.947.947.226 2.008.423 3.178.59 1.171.168 2.375.338 3.614.514 1.24.176 2.45.4 3.635.666 1.183.268 2.246.645 3.188 1.131.94.487 1.695 1.11 2.26 1.875.567.764.862 1.72.885 2.866.036 1.755-.431 3.17-1.409 4.247-.977 1.078-2.356 1.86-4.144 2.35-1.778.492-3.837.761-6.17.809Z"/><path fill="#fff" d="M30.745 23.794 22.495.127h2.143c1.123 0 2.12.72 2.481 1.785l4.865 14.44c.093.274.206.636.343 1.086.137.448.28.914.429 1.394.149.484.268.908.36 1.275h.274c.069-.274.15-.579.242-.913.092-.332.184-.672.274-1.015.092-.344.187-.678.292-1 .104-.323.187-.597.256-.827L39.37.127h3.998c.709 0 1.334.463 1.543 1.144l4.602 15.08c.093.275.2.637.328 1.087.125.448.256.914.396 1.394.137.484.242.908.31 1.275h.274c.093-.274.185-.585.274-.931.093-.344.2-.69.328-1.033.125-.343.235-.672.328-.982.092-.31.184-.58.274-.81l4.8-14.334a2.766 2.766 0 0 1 2.62-1.89h1.69L52.85 23.794h-4.779L42.983 7.432c-.092-.275-.2-.63-.327-1.069-.126-.435-.254-.89-.379-1.36-.125-.473-.235-.89-.328-1.258h-.24c-.093.368-.2.788-.329 1.257-.125.472-.253.926-.378 1.361-.125.436-.235.791-.328 1.069l-5.02 16.362h-4.91ZM64.57 23.794V.127h2.023c.932 0 1.69.759 1.69 1.693v21.97H64.57v.004Z"/></svg>