<svg xmlns="http://www.w3.org/2000/svg">
	<symbol id="icon-callout" viewBox="0 0 32 40" fill="none" xmlns="http://www.w3.org/2000/svg">
		<path d="M15 0L0 31C0 31 12.5 40 32 40C13.5 22 15 0 15 0Z" fill="currentColor" />
	</symbol>
	<symbol id="icon-copy" viewBox="0 0 20 20" fill="none" xmlns="http://www.w3.org/2000/svg">
		<path
			d="M14.2877 7.42773C13.413 5.97351 11.8195 5 10 5C7.23999 5 5 7.23999 5 10C5 12.76 7.23999 15 10 15C11.8195 15 13.413 14.0265 14.2877 12.5723L12.5729 11.5442C12.0483 12.4166 11.0927 13 10 13C8.3425 13 7 11.6575 7 10C7 8.3425 8.3425 7 10 7C11.093 7 12.0491 7.58386 12.5735 8.4568L14.2877 7.42773ZM20 10C20 4.47998 15.52 0 10 0C4.47998 0 0 4.47998 0 10C0 15.52 4.47998 20 10 20C15.52 20 20 15.52 20 10ZM2 10C2 5.57996 5.57996 2 10 2C14.42 2 18 5.57996 18 10C18 14.42 14.42 18 10 18C5.57996 18 2 14.42 2 10Z"
			fill="currentColor" fill-opacity="0.8" />
	</symbol>
	<symbol id="icon-mail" viewBox="0 0 19 16" fill="none" xmlns="http://www.w3.org/2000/svg">
		<path
			d="M17.5 0.5C17.9603 0.5 18.3333 0.8731 18.3333 1.33333V14.6722C18.3333 15.1293 17.9539 15.5 17.5068 15.5H2.49317C2.03671 15.5 1.66667 15.1292 1.66667 14.6722V13.8333H16.6667V4.08333L10 10.0833L1.66667 2.58333V1.33333C1.66667 0.8731 2.03977 0.5 2.5 0.5H17.5ZM6.66667 10.5V12.1667H0V10.5H6.66667ZM4.16667 6.33333V8H0V6.33333H4.16667ZM16.3049 2.16667H3.69512L10 7.84108L16.3049 2.16667Z"
			fill="currentColor" fill-opacity="0.4" />
	</symbol>
	<symbol id="icon-message" viewBox="0 0 21 21" fill="none" xmlns="http://www.w3.org/2000/svg">
		<path
			d="M0.946069 7.31531C0.423529 7.14113 0.419399 6.8601 0.956819 6.68096L20.043 0.31889C20.5715 0.14273 20.8746 0.43854 20.7265 0.95682L15.2733 20.0431C15.1223 20.5715 14.8177 20.5899 14.5944 20.0875L10.9999 11.9999L16.9999 3.99993L8.99992 9.99988L0.946069 7.31531Z"
			fill="currentColor" />
	</symbol>

</svg>