<svg width="18" height="18" viewBox="0 0 18 18" fill="none" xmlns="http://www.w3.org/2000/svg">
<path d="M6.36556 7.6821C7.302 9.3288 8.6712 10.698 10.3179 11.6344L11.2024 10.3961C11.4965 9.9845 12.0516 9.8573 12.4956 10.0998C13.9024 10.8683 15.4571 11.3353 17.0789 11.4637C17.599 11.5049 18 11.9389 18 12.4606V16.9234C18 17.4361 17.6122 17.8657 17.1022 17.9181C16.5723 17.9726 16.0377 18 15.5 18C6.93959 18 0 11.0604 0 2.5C0 1.96227 0.0274201 1.42771 0.0818901 0.89776C0.1343 0.38775 0.56394 0 1.07665 0H5.53942C6.0611 0 6.49513 0.40104 6.5363 0.92109C6.66467 2.54288 7.1317 4.09764 7.9002 5.50444C8.1427 5.9484 8.0155 6.50354 7.6039 6.79757L6.36556 7.6821ZM3.84425 7.0252L5.7442 5.66809C5.20547 4.50514 4.83628 3.27183 4.64727 2H2.00907C2.00303 2.16632 2 2.333 2 2.5C2 9.9558 8.0442 16 15.5 16C15.667 16 15.8337 15.997 16 15.9909V13.3527C14.7282 13.1637 13.4949 12.7945 12.3319 12.2558L10.9748 14.1558C10.4258 13.9425 9.8956 13.6915 9.3874 13.4061L9.3293 13.373C7.3697 12.2587 5.74134 10.6303 4.627 8.6707L4.59394 8.6126C4.30849 8.1044 4.05754 7.5742 3.84425 7.0252Z" fill="white" fill-opacity="0.8"/>
</svg>
