<svg xmlns="http://www.w3.org/2000/svg">
  <symbol id="icon-left-arrow-next" viewBox="0 0 46 14" fill="none" xmlns="http://www.w3.org/2000/svg">
    <path fill="#1919EF" stroke="#1919EF" stroke-width=".2"
      d="m16.597 6.997 12.287-5.484h.002c.117-.055.218-.146.214-.272-.004-.125-.109-.212-.228-.263A1.13 1.13 0 0 0 28.443.9c-.15 0-.304.024-.428.077l-.002.001-12.89 5.752c-.119.053-.223.142-.223.268 0 .126.104.215.223.268l12.89 5.752h.002c.127.055.286.08.438.078.153 0 .31-.027.432-.084h.001c.114-.054.213-.142.213-.264 0-.123-.099-.211-.213-.265h-.002L16.597 6.997Z">
    </path>
    <path fill="#1919EF" stroke="#1919EF" stroke-width=".2"
      d="m30.597 6.997 12.288-5.484h.001c.117-.055.218-.146.214-.272-.004-.125-.108-.212-.228-.263A1.13 1.13 0 0 0 42.442.9c-.15 0-.304.024-.428.077l-.002.001-12.89 5.752c-.119.053-.223.142-.223.268 0 .126.104.215.223.268l12.89 5.752h.002c.127.055.286.08.438.078.153 0 .31-.027.432-.084h.001c.114-.054.213-.142.213-.264 0-.123-.099-.211-.213-.265h-.002L30.597 6.997ZM2.597 7l12.287-5.486.002-.001c.117-.055.218-.146.214-.272-.004-.124-.108-.211-.228-.263A1.13 1.13 0 0 0 14.442.9c-.15 0-.304.024-.428.077l-.002.001-12.89 5.753c-.119.053-.223.142-.223.268 0 .125.104.214.223.267l12.89 5.755.002.001c.127.054.286.079.438.078.153-.001.31-.027.432-.084h.001c.114-.054.213-.142.213-.265 0-.122-.099-.21-.213-.264h-.002L2.597 7Z">
    </path>
  </symbol>
  <symbol id="icon-vkontakte" viewBox="0 0 24 24" fill="none" xmlns="http://www.w3.org/2000/svg">
    <rect width="24" height="24" fill="#000" rx="6"></rect>
    <path fill="#fff" fill-rule="evenodd"
      d="M18.87 7.85c.1-.375 0-.65-.477-.65h-1.575c-.4 0-.585.238-.685.5 0 0-.802 2.192-1.937 3.616-.367.412-.534.543-.734.543-.1 0-.245-.13-.245-.505V7.85c0-.45-.116-.65-.45-.65H10.29c-.25 0-.4.209-.4.406 0 .427.567.525.625 1.724v2.604c0 .571-.091.675-.292.675-.534 0-1.833-2.202-2.603-4.722-.151-.49-.303-.687-.705-.687H5.34c-.45 0-.54.238-.54.5 0 .469.534 2.792 2.487 5.864 1.302 2.098 3.136 3.236 4.805 3.236 1.001 0 1.125-.253 1.125-.688v-1.586c0-.505.095-.606.412-.606.234 0 .634.131 1.569 1.143 1.068 1.199 1.244 1.737 1.845 1.737h1.575c.45 0 .675-.253.546-.751-.142-.497-.652-1.218-1.33-2.073-.366-.487-.917-1.011-1.084-1.274-.234-.337-.167-.487 0-.786 0 0 1.92-3.035 2.12-4.066Z"
      clip-rule="evenodd"></path>
  </symbol>
  <symbol id="logo-gazprombank-tex" viewBox="0 0 354 19" fill="none" xmlns="http://www.w3.org/2000/svg">
    <g fill="#000" clip-path="url(#logo-gazprombank-tex-clip)">
      <path d="M16.629.407v1.88H2.473v15.192H.133V.407h16.496Z"></path>
      <path
        d="M2.607 17.613H0V.28h16.763V2.42H2.607v15.193ZM.26 17.351h2.08V2.158h14.162V.541H.262v16.81H.26ZM26.549.407 37.13 17.48h-2.49l-3.184-5.146h-12.95l-3.18 5.146H13.01L23.587.407h2.962Zm3.796 10.142-5.352-8.653-5.375 8.658h10.727v-.005Z">
      </path>
      <path
        d="M37.365 17.613h-2.801l-3.185-5.146H18.574l-3.18 5.146h-2.628L23.515.28h3.107l.038.062 10.705 17.27Zm-2.657-.262h2.185L26.47.54h-2.81L13.245 17.35h2.012l3.179-5.146H31.53l3.185 5.146h-.007Zm-4.13-6.662H19.38l5.613-9.044 5.586 9.043h-.001Zm-10.726-.263h10.254L24.993 2.14l-5.141 8.28v.005ZM40.68 12.93c.983 2.202 3.795 3.016 8.925 3.016 5.525 0 8.41-1.015 8.41-3.095v-.518c0-1.784-2.074-2.75-5.92-2.75h-7.77V7.85h7.77c3.207 0 5.403-.914 5.403-2.72v-.42c0-2.18-2.985-2.793-7.893-2.793-4.907 0-7.964.692-8.631 2.793h-2.346C39.495 1.4 43.025.14 49.611.14c6.93 0 10.238 1.56 10.238 4.65 0 2.08-1.679 3.39-3.846 3.763 2.44.446 4.34 1.583 4.34 4.059 0 3.49-3.601 5.146-10.727 5.146-6.586 0-10.21-1.36-11.249-4.823h2.318l-.005-.005Z">
      </path>
      <path
        d="M49.611 17.886c-6.847 0-10.354-1.517-11.371-4.918l-.05-.167h2.578l.034.078c.922 2.063 3.557 2.938 8.809 2.938 5.252 0 8.281-.998 8.281-2.96v-.519c0-2.274-3.629-2.615-5.786-2.615H44.21V7.727h7.897c3.302 0 5.27-.97 5.27-2.592v-.418c0-1.868-2.324-2.665-7.76-2.665-5.435 0-7.908.808-8.509 2.704l-.027.089h-2.607l.044-.167C39.373 1.399 42.691 0 49.622 0c6.93 0 10.366 1.567 10.366 4.784 0 1.812-1.267 3.211-3.346 3.757 2.55.614 3.84 1.98 3.84 4.06 0 3.55-3.551 5.28-10.86 5.28l-.011.005Zm-11.066-4.823c1.045 3.15 4.474 4.56 11.066 4.56 7.13 0 10.599-1.639 10.599-5.012 0-2.096-1.423-3.417-4.235-3.93l-.734-.134.734-.128c2.306-.396 3.74-1.784 3.74-3.63 0-3.044-3.307-4.521-10.104-4.521-6.797 0-9.915 1.293-10.805 4.315h2.08c.694-1.985 3.24-2.793 8.725-2.793 5.486 0 8.026.875 8.026 2.927v.418c0 1.784-2.068 2.854-5.536 2.854h-7.637v1.467h7.637c5.002 0 6.053 1.567 6.053 2.877v.518c0 2.141-2.874 3.223-8.543 3.223-5.308 0-8.009-.904-9.015-3.017H38.54l.005.006ZM85.144.892v17.072H82.8V2.776H67.064v15.188H64.72V.892h20.424Z">
      </path>
      <path
        d="M85.273 18.098h-2.607V2.905H67.193v15.193h-2.607V.764h20.687v17.334Zm-2.346-.262h2.079V1.026H64.847v16.81h2.079V2.643h15.996v15.193h.005ZM105.269.892c4.219 0 6.07 2.102 6.07 5.52 0 3.417-1.851 5.564-6.07 5.564h-12.06v5.988h-2.346V.892h14.406Zm3.752 5.319c0-2.225-1.162-3.513-3.946-3.513H93.209v7.47h11.866c2.784 0 3.946-1.287 3.946-3.461V6.21Z">
      </path>
      <path
        d="M93.337 18.098h-2.606V.764h14.533c4.058 0 6.198 1.952 6.198 5.648 0 3.697-2.146 5.698-6.198 5.698H93.337v5.988Zm-2.345-.262h2.078v-5.988h12.194c3.885 0 5.936-1.879 5.936-5.436s-1.995-5.386-5.936-5.386H90.992v16.81Zm14.072-7.532H93.07V2.57h11.994c2.707 0 4.08 1.226 4.08 3.646v.496c0 2.387-1.373 3.596-4.08 3.596v-.004Zm-11.732-.262h11.732c2.568 0 3.813-1.093 3.813-3.334v-.496c0-2.275-1.25-3.385-3.813-3.385H93.332v7.215ZM127.368.625c8.386 0 12.777 2.448 12.777 8.86 0 6.411-4.391 8.759-12.777 8.759-8.387 0-12.778-2.548-12.778-8.76 0-6.21 4.391-8.859 12.778-8.859Zm10.46 8.163c0-4.427-3.53-6.334-10.46-6.334-6.931 0-10.46 1.88-10.46 6.334v1.26c0 4.377 3.501 6.356 10.46 6.356 6.958 0 10.46-1.957 10.46-6.356v-1.26Z">
      </path>
      <path
        d="M127.368 18.372c-8.803 0-12.905-2.827-12.905-8.893 0-6.066 3.979-8.987 12.905-8.987 8.926 0 12.906 2.77 12.906 8.987 0 6.217-4.102 8.893-12.906 8.893Zm0-17.618c-8.742 0-12.644 2.693-12.644 8.725 0 6.033 4.019 8.625 12.644 8.625 8.626 0 12.645-2.743 12.645-8.625S136.117.754 127.368.754Zm0 15.784c-7.125 0-10.587-2.125-10.587-6.49v-1.26c0-4.41 3.362-6.468 10.587-6.468 7.226 0 10.588 2.052 10.588 6.468v1.26c0 4.365-3.462 6.49-10.588 6.49Zm0-13.956c-7.047 0-10.326 1.974-10.326 6.2v1.26c0 4.249 3.279 6.228 10.326 6.228 7.048 0 10.327-1.98 10.327-6.228v-1.26c0-4.231-3.279-6.2-10.327-6.2Zm39.073-.08-8.459 12.869h-2.568l-8.459-12.817v15.41h-2.123V.892h3.429l8.51 12.918L165.302.892h3.451v17.072h-2.317V2.504l.005-.001Z">
      </path>
      <path
        d="M168.887 18.098h-2.578V2.945l-8.26 12.56h-2.706l-.039-.06-8.22-12.45v15.103h-2.385V.765h3.63l8.437 12.806 8.47-12.806h3.657v17.333h-.006Zm-2.317-.262h2.056V1.026h-3.251l-8.604 13.025-.111-.168-8.47-12.856h-3.23v16.81h1.857V2.113l8.659 13.124h2.423l8.665-13.174v15.772h.006ZM192.941.618v1.757h-16.969v5.369h12.406c3.924 0 5.697 1.806 5.697 4.95 0 3.145-1.779 4.996-5.697 4.996h-14.751V.618h19.314Zm-1.206 11.753c0-1.656-1.084-2.893-3.846-2.893h-11.911v6.484h11.911c2.762 0 3.846-1.21 3.846-2.944v-.647Z">
      </path>
      <path
        d="M188.377 17.825h-14.879V.491h19.575V2.51h-16.968v5.107h12.277c3.869 0 5.831 1.711 5.831 5.079 0 3.367-2.018 5.13-5.831 5.13l-.005-.001Zm-14.618-.262h14.618c3.696 0 5.569-1.639 5.569-4.867 0-3.228-1.873-4.817-5.569-4.817h-12.539V2.248h16.968V.753h-19.052v16.81h.005Zm14.123-1.466h-12.044V9.35h12.044c3.463 0 3.979 1.895 3.979 3.027v.641c0 1.405-.689 3.079-3.979 3.079Zm-11.783-.262h11.783c2.429 0 3.718-.97 3.718-2.81v-.641c0-1.807-1.284-2.766-3.718-2.766h-11.783v6.217ZM209.318.618l10.583 17.072h-2.49l-3.185-5.146h-12.95l-3.179 5.146h-2.318L206.356.618h2.962Zm3.797 10.142-5.353-8.66-5.374 8.659h10.727v.001Z">
      </path>
      <path
        d="M220.135 17.825h-2.802l-3.184-5.146h-12.806l-3.179 5.146h-2.629L206.284.491h3.107l.039.062 10.705 17.272Zm-2.657-.262h2.184L209.247.753h-2.813l-10.415 16.81h2.012l3.179-5.146h13.094l3.185 5.146h-.011Zm-4.13-6.662h-11.199l5.614-9.044 5.585 9.044Zm-10.726-.262h10.254l-5.119-8.28-5.141 8.28h.006ZM225.597.618v7.103h16.13V.618h2.317V17.69h-2.317V9.6h-16.13v8.09h-2.345V.618h2.345Z">
      </path>
      <path
        d="M244.178 17.825H241.6v-8.09h-15.868v8.09h-2.607V.491h2.607V7.59H241.6V.49h2.578v17.335Zm-2.317-.262h2.056V.753h-2.056v7.103h-16.396V.753h-2.079v16.81h2.079v-8.09h16.396v8.09ZM270.784.618l-11.344 8.19 11.644 8.882h-3.452l-10.237-7.817h-5.253v7.817h-2.345V.618h2.345v7.377h5.18L267.549.618h3.235Z">
      </path>
      <path
        d="M271.468 17.825h-3.885l-.033-.028-10.199-7.788h-5.08v7.816h-2.607V.491h2.607v7.371h5.007l10.233-7.37h3.679l-11.533 8.323 11.811 9.01Zm-3.796-.262h3.018L259.218 8.81 270.373.753h-2.785l-10.237 7.371h-5.353V.754h-2.078v16.81h2.078V9.746h5.431l.033.027 10.199 7.79h.011ZM277.79 17.74c.945 0 1.712-.768 1.712-1.716s-.767-1.717-1.712-1.717-1.712.769-1.712 1.717c0 .948.767 1.717 1.712 1.717ZM281.525 2.375V.491h21.682V2.37h-9.671v15.193h-2.346V2.374h-9.67l.005.001Z">
      </path>
      <path
        d="M293.668 17.696h-2.607V2.503h-9.67V.363h21.942v2.14h-9.67v15.193h.005Zm-2.345-.262h2.078V2.241h9.671V.624h-21.42v1.617h9.671v15.193ZM325.649.49v1.785H309.27v5.714h12.677v1.757H309.27v6.038h16.501v1.784H306.93V.49h18.719Z">
      </path>
      <path
        d="M325.905 17.696h-19.108V.362h18.98v2.046h-16.379v5.447h12.678v2.02h-12.678v5.775H325.9v2.046h.005Zm-18.841-.262h18.58v-1.517h-16.502v-6.3h12.678V8.123h-12.678V2.141h16.38V.624h-18.458v16.81Zm34.346-7.343-9.249 7.472h-2.934l10.632-8.587L329.477.491h3.207l8.926 7.298L350.636.49h2.934l-10.41 8.385 10.655 8.687h-3.229l-9.176-7.47Z">
      </path>
    </g>
    <defs>
      <clipPath id="logo-gazprombank-tex-clip">
        <path fill="#fff" d="M0 0h354v19H0z"></path>
      </clipPath>
    </defs>
  </symbol>

  <symbol id="icon-arrow" viewBox="0 0 24 24" fill="none" xmlns="http://www.w3.org/2000/svg">
    <path
      d="M12.1853 0.0380154C11.9983 -0.0392818 11.7832 0.00374985 11.6403 0.146999L2.6403 9.147C2.44844 9.34561 2.45397 9.66216 2.65258 9.85402C2.84636 10.0411 3.15353 10.0411 3.34727 9.85402L11.4943 1.707L11.4943 23.5C11.4943 23.7761 11.7182 24 11.9943 24C12.2705 24 12.4944 23.7761 12.4944 23.5L12.4944 1.707L20.6403 9.85298C20.8322 10.0516 21.1487 10.0571 21.3474 9.86527C21.546 9.67341 21.5515 9.35691 21.3596 9.15825C21.3556 9.15408 21.3515 9.15 21.3474 9.14597L12.3474 0.145969C12.3009 0.0997505 12.2459 0.0630474 12.1853 0.0380154Z"
      fill="currentColor" />
    <path
      d="M21.4944 9.50007C21.4949 9.77621 21.2714 10.0005 20.9952 10.001C20.8621 10.0012 20.7344 9.94834 20.6404 9.85407L11.9944 1.20704L3.3484 9.85407C3.14979 10.0459 2.83324 10.0404 2.64138 9.84179C2.45426 9.64801 2.45426 9.34084 2.64138 9.1471L11.6414 0.147101C11.8366 -0.0480862 12.1531 -0.0480862 12.3484 0.147101L21.3484 9.1471C21.4419 9.24076 21.4944 9.36769 21.4944 9.50007Z"
      fill="currentColor" />
    <path
      d="M12.4944 0.500015L12.4944 23.5C12.4944 23.7761 12.2705 24 11.9944 24C11.7183 24 11.4944 23.7761 11.4944 23.5L11.4944 0.499968C11.4944 0.223827 11.7183 -4.57764e-05 11.9944 -4.57764e-05C12.2705 1.90735e-06 12.4944 0.223875 12.4944 0.500015Z"
      fill="currentColor" />
  </symbol>
  <symbol id="icon-calendar" viewBox="0 0 20 20" fill="none" xmlns="http://www.w3.org/2000/svg">
    <path
      d="M16.4166 3.16663H15.5V1.33329C15.5 1.09018 15.4034 0.85702 15.2315 0.685111C15.0596 0.513203 14.8264 0.416626 14.5833 0.416626C14.3402 0.416626 14.107 0.513203 13.9351 0.685111C13.7632 0.85702 13.6666 1.09018 13.6666 1.33329V3.16663H6.33331V1.33329C6.33331 1.09018 6.23674 0.85702 6.06483 0.685111C5.89292 0.513203 5.65976 0.416626 5.41665 0.416626C5.17353 0.416626 4.94037 0.513203 4.76847 0.685111C4.59656 0.85702 4.49998 1.09018 4.49998 1.33329V3.16663H3.58331C2.85397 3.16663 2.15449 3.45636 1.63877 3.97208C1.12304 4.48781 0.833313 5.18728 0.833313 5.91663V6.83329H19.1666V5.91663C19.1666 5.18728 18.8769 4.48781 18.3612 3.97208C17.8455 3.45636 17.146 3.16663 16.4166 3.16663Z"
      fill="currentColor" />
    <path
      d="M0.833313 16.0001C0.833313 16.7294 1.12304 17.4289 1.63877 17.9446C2.15449 18.4604 2.85397 18.7501 3.58331 18.7501H16.4166C17.146 18.7501 17.8455 18.4604 18.3612 17.9446C18.8769 17.4289 19.1666 16.7294 19.1666 16.0001V8.66675H0.833313V16.0001Z"
      fill="currentColor" />
  </symbol>
  <symbol id="icon-call" viewBox="0 0 20 20" fill="none" xmlns="http://www.w3.org/2000/svg">
    <path
      d="M17.6956 12.8671C16.5731 12.8671 15.471 12.6916 14.4267 12.3464C13.9149 12.1719 13.2858 12.332 12.9735 12.6528L10.9121 14.2089C8.52143 12.9328 7.04884 11.4607 5.79014 9.08801L7.30049 7.08031C7.69289 6.68844 7.83364 6.116 7.66501 5.57889C7.3184 4.52902 7.14232 3.42745 7.14232 2.30453C7.14237 1.49333 6.48241 0.833374 5.67126 0.833374H2.30442C1.49327 0.833374 0.833313 1.49333 0.833313 2.30448C0.833313 11.6024 8.39763 19.1667 17.6956 19.1667C18.5067 19.1667 19.1667 18.5068 19.1667 17.6956V14.3382C19.1666 13.5271 18.5067 12.8671 17.6956 12.8671Z"
      fill="currentColor" />
  </symbol>
  <symbol id="icon-email" viewBox="0 0 20 20" fill="none" xmlns="http://www.w3.org/2000/svg">
    <path
      d="M12.9592 10.8301L11.2842 12.5108C10.6049 13.1924 9.40979 13.2071 8.71584 12.5108L7.04073 10.8301L1.02448 16.8659C1.24842 16.9694 1.49533 17.0312 1.75783 17.0312H18.2422C18.5047 17.0312 18.7515 16.9695 18.9754 16.8659L12.9592 10.8301Z"
      fill="currentColor" />
    <path
      d="M18.2422 2.96875H1.75782C1.49532 2.96875 1.2484 3.03055 1.02454 3.1341L7.45333 9.58422C7.45375 9.58465 7.45426 9.58473 7.45469 9.58516C7.45512 9.58559 7.4552 9.58617 7.4552 9.58617L9.54555 11.6834C9.76758 11.9055 10.2325 11.9055 10.4545 11.6834L12.5445 9.58652C12.5445 9.58652 12.545 9.58559 12.5454 9.58516C12.5454 9.58516 12.5463 9.58465 12.5468 9.58422L18.9754 3.13406C18.7515 3.03047 18.5047 2.96875 18.2422 2.96875Z"
      fill="currentColor" />
    <path
      d="M0.186953 3.95361C0.0710937 4.18791 0 4.44799 0 4.72658V15.2735C0 15.5521 0.0710156 15.8121 0.186914 16.0464L6.21359 10.0002L0.186953 3.95361Z"
      fill="currentColor" />
    <path
      d="M19.813 3.95349L13.7864 10.0002L19.813 16.0465C19.9289 15.8122 20 15.5521 20 15.2734V4.72654C20 4.44787 19.9289 4.18779 19.813 3.95349Z"
      fill="currentColor" />
  </symbol>
  <symbol id="icon-info" viewBox="0 0 20 20" fill="none" xmlns="http://www.w3.org/2000/svg">
    <path
      d="M10.3286 7.60988C10.0714 7.60988 9.86786 7.54074 9.71786 7.40247C9.56786 7.2642 9.49286 7.08642 9.49286 6.86914C9.49286 6.61893 9.57857 6.41152 9.75 6.24691C9.92143 6.0823 10.15 6 10.4357 6C10.7214 6 10.9393 6.07243 11.0893 6.21728C11.2393 6.35556 11.3143 6.53004 11.3143 6.74074C11.3143 7.00412 11.2286 7.21482 11.0571 7.37284C10.8857 7.53086 10.6464 7.60988 10.3393 7.60988H10.3286ZM9.76071 9.44691L9 9.25926V8.59753L10.9607 8.38025H10.9821L11.2821 8.57778V13.3284L12 13.4074V14H9.01071V13.4074L9.76071 13.3185V9.44691Z"
      fill="currentColor" />
    <circle cx="10" cy="10" r="9.5" stroke="currentColor" />
  </symbol>
  <symbol id="icon-link" viewBox="0 0 20 20" fill="none" xmlns="http://www.w3.org/2000/svg">
    <path
      d="M18.6271 1.37297C16.7964 -0.457651 13.8286 -0.457651 11.9979 1.37293L8.0802 5.29067C6.18664 7.1843 6.36195 10.2015 8.0802 11.9198C8.36793 12.2075 8.68629 12.4422 9.02246 12.6348L9.7375 11.9198C10.2065 11.4507 10.0414 10.9024 10.033 10.5068C9.93004 10.4338 9.82992 10.3549 9.7375 10.2625C8.85574 9.38083 8.81609 7.86934 9.7375 6.94793C9.87434 6.8111 13.5721 3.11332 13.6552 3.03028C14.5692 2.11625 16.0557 2.11625 16.9697 3.03028C17.8837 3.9443 17.8837 5.43082 16.9697 6.34485L14.3802 8.93442C14.455 9.34875 14.9045 10.3302 14.6733 11.9493C14.6846 11.9382 14.6981 11.9311 14.7093 11.9198L18.6271 8.00211C20.4576 6.17149 20.4576 3.2036 18.6271 1.37297Z"
      fill="currentColor" />
    <path
      d="M12.2233 7.77662C11.9356 7.48889 11.6172 7.25428 11.2812 7.06158L10.5661 7.77662C10.0971 8.24561 10.2621 8.79393 10.2706 9.18959C10.3736 9.26256 10.4737 9.34143 10.5661 9.43385C11.4479 10.3156 11.4875 11.827 10.5661 12.7484C10.429 12.8856 6.4249 16.8896 6.34479 16.9697C5.43076 17.8838 3.94424 17.8838 3.03021 16.9697C2.11619 16.0557 2.11619 14.5692 3.03021 13.6552L5.92346 10.7619C5.84857 10.3476 5.39912 9.36612 5.63033 7.74705C5.61904 7.75815 5.60545 7.76537 5.5942 7.77658L1.37291 11.998C-0.457637 13.8286 -0.457637 16.7965 1.37291 18.6271C3.20354 20.4576 6.17139 20.4576 8.00201 18.6271L12.2233 14.4058C14.0818 12.5473 13.9802 9.53346 12.2233 7.77662Z"
      fill="currentColor" />
  </symbol>
  <symbol id="icon-check" viewBox="0 0 10 10" fill="none" xmlns="http://www.w3.org/2000/svg">
    <path
      d="M9.85356 1.47452C9.65831 1.27925 9.34175 1.27925 9.14645 1.47452L3.15614 7.46489L0.853564 5.16231C0.658311 4.96704 0.341748 4.96706 0.146455 5.16231C-0.0488184 5.35757 -0.0488184 5.67413 0.146455 5.8694L2.80259 8.5255C2.99778 8.72075 3.31458 8.72061 3.5097 8.5255L9.85356 2.18163C10.0488 1.98637 10.0488 1.66979 9.85356 1.47452Z"
      fill="currentColor" />
  </symbol>

</svg>