<svg xmlns="http://www.w3.org/2000/svg" width="20" height="20" fill="none"><g clip-path="url(#a)"><path fill="#fff" fill-opacity=".2" d="M10.002 0h-.005C4.485 0 0 4.485 0 10c0 2.188.705 4.215 1.904 5.861L.658 19.576 4.5 18.347A9.913 9.913 0 0 0 10.002 20C15.517 20 20 15.514 20 10S15.516 0 10.002 0Z"/><path fill="#23252E" d="M15.821 14.121c-.24.682-1.198 1.247-1.962 1.412-.523.11-1.205.2-3.503-.753-2.938-1.217-4.83-4.204-4.978-4.397C5.236 10.189 4.19 8.8 4.19 7.366c0-1.435.729-2.133 1.023-2.433.24-.247.64-.36 1.022-.36.124 0 .235.007.335.012.294.013.441.03.635.494.241.581.829 2.016.899 2.164.071.147.142.347.042.54-.093.2-.176.29-.323.46-.148.17-.288.3-.435.482-.135.159-.288.329-.118.623.17.287.758 1.246 1.623 2.016 1.116.994 2.02 1.311 2.345 1.446.24.1.528.076.705-.111.223-.241.5-.641.78-1.035.2-.283.453-.318.718-.218.27.094 1.7.8 1.993.947.294.147.487.217.559.34.07.125.07.706-.172 1.388Z"/></g><defs><clipPath id="a"><path fill="#fff" d="M0 0h20v20H0z"/></clipPath></defs></svg>