<svg xmlns="http://www.w3.org/2000/svg" width="24" height="18" fill="none"><path fill="#fff" fill-opacity=".2" fill-rule="evenodd" d="M9.144 3.601c1.139.813 2.316 1.705 3.447 2.563 1.142.868 2.301 1.703 3.41 2.543-1.988 1.337-3.984 2.627-6 3.946-.282.184-.551.407-.857.548v-9.6ZM.007 4.983v8.109c0 .954-.046 1.855.17 2.523a3.468 3.468 0 0 0 1.062 1.583 3.11 3.11 0 0 0 1.837.76c.764.065 1.659.02 2.54.02h12.788c.86 0 1.73.06 2.558-.02 1.463-.14 2.47-1.113 2.86-2.382.212-.688.17-1.59.17-2.524V4.944c0-.961.062-1.79-.17-2.523a3.458 3.458 0 0 0-1.04-1.602c-.467-.401-1.006-.71-1.82-.78-.804-.07-1.703-.021-2.54-.021H5.635c-.845 0-1.82-.047-2.595.02C1.599.163.524 1.18.159 2.44-.05 3.154.007 4.068.007 4.983Z" clip-rule="evenodd"/></svg>