<svg width="24" height="24" viewBox="0 0 24 24" fill="none" xmlns="http://www.w3.org/2000/svg">
<path fill-rule="evenodd" clip-rule="evenodd" d="M3.69841 4.09198C3.60001 4.28398 3.60001 4.53598 3.60001 5.03998V9.63357C3.60001 10.1376 3.60001 10.3896 3.69841 10.5816C3.78472 10.7511 3.92251 10.8889 4.09201 10.9752C4.28401 11.0736 4.53601 11.0736 5.04001 11.0736H9.63361C10.1376 11.0736 10.3896 11.0736 10.5816 10.9752C10.7511 10.8889 10.8889 10.7511 10.9752 10.5816C11.0736 10.3896 11.0736 10.1376 11.0736 9.63357V5.03998C11.0736 4.53598 11.0736 4.28398 10.9752 4.09198C10.8889 3.92248 10.7511 3.78469 10.5816 3.69838C10.3896 3.59998 10.1376 3.59998 9.63361 3.59998H5.04001C4.53601 3.59998 4.28401 3.59998 4.09201 3.69838C3.92251 3.78469 3.78472 3.92248 3.69841 4.09198ZM5.40001 5.39998H9.27361V9.27358H5.40001V5.39998Z" fill="white"/>
<path fill-rule="evenodd" clip-rule="evenodd" d="M3.69841 13.4184C3.60001 13.6104 3.60001 13.8624 3.60001 14.3664V18.96C3.60001 19.464 3.60001 19.716 3.69841 19.908C3.78472 20.0775 3.92251 20.2153 4.09201 20.3016C4.28401 20.4 4.53601 20.4 5.04001 20.4H9.63361C10.1376 20.4 10.3896 20.4 10.5816 20.3016C10.7511 20.2153 10.8889 20.0775 10.9752 19.908C11.0736 19.716 11.0736 19.464 11.0736 18.96V14.3664C11.0736 13.8624 11.0736 13.6104 10.9752 13.4184C10.8889 13.2489 10.7511 13.1111 10.5816 13.0248C10.3896 12.9264 10.1376 12.9264 9.63361 12.9264H5.04001C4.53601 12.9264 4.28401 12.9264 4.09201 13.0248C3.92251 13.1111 3.78472 13.2489 3.69841 13.4184ZM5.40001 14.7264H9.27361V18.6H5.40001V14.7264Z" fill="white"/>
<path fill-rule="evenodd" clip-rule="evenodd" d="M12.9264 5.03998C12.9264 4.53598 12.9264 4.28398 13.0248 4.09198C13.1111 3.92248 13.2489 3.78469 13.4184 3.69838C13.6104 3.59998 13.8624 3.59998 14.3664 3.59998H18.96C19.464 3.59998 19.716 3.59998 19.908 3.69838C20.0775 3.78469 20.2153 3.92248 20.3016 4.09198C20.4 4.28398 20.4 4.53598 20.4 5.03998V9.63357C20.4 10.1376 20.4 10.3896 20.3016 10.5816C20.2153 10.7511 20.0775 10.8889 19.908 10.9752C19.716 11.0736 19.464 11.0736 18.96 11.0736H14.3664C13.8624 11.0736 13.6104 11.0736 13.4184 10.9752C13.2489 10.8889 13.1111 10.7511 13.0248 10.5816C12.9264 10.3896 12.9264 10.1376 12.9264 9.63357V5.03998ZM14.7264 9.27358V5.39998H18.6V9.27358H14.7264Z" fill="white"/>
<path d="M12.924 12.924H15.4164V15.4164H12.924V12.924Z" fill="white"/>
<path d="M17.9076 15.4164H15.4164V17.9076H12.924V20.4H15.4164V17.9076H17.9076V20.4H20.4V17.9076H17.9076V15.4164Z" fill="white"/>
<path d="M17.9076 15.4164V12.924H20.4V15.4164H17.9076Z" fill="white"/>
</svg>
