<svg width="48" height="48" viewBox="0 0 48 48" fill="none" xmlns="http://www.w3.org/2000/svg">
<g clip-path="url(#clip0_1891_989)">
<mask id="mask0_1891_989" style="mask-type:luminance" maskUnits="userSpaceOnUse" x="0" y="0" width="48" height="48">
<path d="M36 0H12C5.37258 0 0 5.37258 0 12V36C0 42.6274 5.37258 48 12 48H36C42.6274 48 48 42.6274 48 36V12C48 5.37258 42.6274 0 36 0Z" fill="white"/>
</mask>
<g mask="url(#mask0_1891_989)">
<path d="M36 0H12C5.37258 0 0 5.37258 0 12V36C0 42.6274 5.37258 48 12 48H36C42.6274 48 48 42.6274 48 36V12C48 5.37258 42.6274 0 36 0Z" fill="#2355D7"/>
<path d="M48 0H0V48H48V0Z" fill="#2355D7"/>
<path d="M29.4376 8.37111C28.1762 8.36911 26.9275 8.62176 25.7661 9.11391C26.5281 9.7483 27.2038 10.4795 27.7762 11.2891C28.7677 11.0364 29.8038 11.0136 30.8054 11.2224C31.8071 11.4311 32.7478 11.866 33.5558 12.4937C34.3638 13.1214 35.0177 13.9254 35.4677 14.8443C35.9176 15.7632 36.1517 16.7728 36.1521 17.7959C36.1521 18.6639 35.7074 20.7458 32.7256 24.9284C31.3332 26.8826 29.9354 28.5147 29.4376 29.0844C29.0116 28.5998 27.9466 27.3592 26.7752 25.7964C26.5782 25.5355 26.3811 25.2692 26.1841 24.9977L25.9871 24.7314C25.8513 24.5397 25.7209 24.356 25.6037 24.1723C25.0199 23.3264 24.4814 22.4501 23.9903 21.5472C23.788 21.1718 23.6176 20.8257 23.4578 20.5089C23.2773 20.1143 23.1191 19.7099 22.9839 19.2975C22.8134 18.8209 22.7182 18.3205 22.7017 17.8146C22.701 17.1617 22.796 16.5122 22.9839 15.887C22.5702 14.9397 21.8664 14.1482 20.9739 13.6266C20.3254 14.9274 19.9882 16.3611 19.9888 17.8146C19.9888 19.0526 20.444 20.5701 21.3386 22.3406C21.493 22.6468 21.6607 22.9609 21.8391 23.2804C22.0175 23.5999 22.1799 23.8688 22.3716 24.1723C22.7843 24.8486 23.2449 25.5541 23.764 26.3022C23.8359 26.4061 23.9105 26.5099 23.985 26.6111C24.1794 26.8773 24.371 27.1435 24.5627 27.4098C24.7544 27.676 24.9594 27.9422 25.1511 28.1845C26.3172 29.6941 27.297 30.8096 27.5473 31.0812L28.4205 32.0609C28.5477 32.204 28.7037 32.3186 28.8783 32.397C29.0529 32.4754 29.2421 32.516 29.4336 32.516C29.625 32.516 29.8142 32.4754 29.9888 32.397C30.1634 32.3186 30.3195 32.204 30.4466 32.0609L31.3199 31.0812C32.6 29.6282 33.8058 28.1114 34.9327 26.5365C37.5365 22.8438 38.8677 19.9152 38.8677 17.7959C38.8649 15.2972 37.871 12.9016 36.1041 11.1347C34.3372 9.3678 31.9416 8.37392 29.4429 8.37111" fill="white"/>
<path d="M29.438 34.8672C28.967 34.8667 28.5065 35.0059 28.1147 35.2672C27.7228 35.5285 27.4173 35.9002 27.2369 36.3353C27.0564 36.7703 27.009 37.2491 27.1008 37.7111C27.1925 38.173 27.4193 38.5974 27.7523 38.9304C28.0853 39.2634 28.5097 39.4902 28.9716 39.5819C29.4336 39.6737 29.9124 39.6263 30.3474 39.4458C30.7824 39.2654 31.1542 38.9599 31.4155 38.568C31.6768 38.1762 31.816 37.7157 31.8155 37.2447C31.8155 36.6141 31.565 36.0094 31.1192 35.5635C30.6733 35.1177 30.0686 34.8672 29.438 34.8672Z" fill="white"/>
<path d="M21.211 25.7987C20.0476 27.3561 18.98 28.6021 18.5487 29.084C17.3316 27.6857 16.1862 26.2266 15.1169 24.7124C12.2681 20.6683 11.8448 18.6422 11.8448 17.7902C11.8439 16.7659 12.0776 15.7549 12.528 14.8349C12.9785 13.9149 13.6337 13.1104 14.4434 12.4829C15.253 11.8555 16.1957 11.4218 17.199 11.2153C18.2023 11.0087 19.2396 11.0348 20.2313 11.2914C20.5466 11.3706 20.8555 11.4739 21.1551 11.6002C21.4481 11.7227 21.7319 11.8659 22.0044 12.0288C23.0848 12.6775 23.9612 13.6166 24.5337 14.7391C25.0201 15.6844 25.273 16.7325 25.2712 17.7955C25.2535 18.3012 25.1592 18.8011 24.9916 19.2785C25.445 20.3418 25.9949 21.3613 26.6343 22.3243C27.5289 20.5511 27.9841 19.0336 27.9841 17.7982C27.9847 16.3448 27.6475 14.9111 26.9991 13.6103C26.8606 13.3441 26.7062 13.0592 26.5411 12.7956C26.377 12.5318 26.1993 12.2768 26.0086 12.0315C25.4361 11.2952 24.7589 10.6467 23.9986 10.1066C23.4434 9.71752 22.8502 9.38569 22.2281 9.1162C20.7952 8.51085 19.2347 8.26948 17.6859 8.4136C16.137 8.55771 14.6479 9.08284 13.3513 9.94217C12.0547 10.8015 10.9908 11.9683 10.2546 13.3386C9.51837 14.7089 9.13266 16.24 9.13184 17.7955C9.13184 19.8695 10.3991 22.7209 12.8991 26.2726C14.0719 27.9289 15.3312 29.5223 16.6717 31.0462L17.5449 32.026C17.6721 32.169 17.8281 32.2836 18.0027 32.362C18.1773 32.4404 18.3666 32.481 18.558 32.481C18.7494 32.481 18.9386 32.4404 19.1133 32.362C19.2879 32.2836 19.4439 32.169 19.571 32.026L20.4443 31.0462C20.7718 30.6788 21.7142 29.5979 22.8404 28.1495C22.6487 27.8833 22.4544 27.6171 22.26 27.3508C21.8873 26.8183 21.5403 26.3027 21.219 25.804" fill="white"/>
<path d="M18.5591 34.8672C18.0881 34.8667 17.6276 35.0059 17.2357 35.2672C16.8439 35.5285 16.5384 35.9002 16.358 36.3353C16.1775 36.7703 16.1301 37.2491 16.2219 37.7111C16.3136 38.173 16.5404 38.5974 16.8734 38.9304C17.2064 39.2634 17.6308 39.4902 18.0927 39.5819C18.5547 39.6737 19.0335 39.6263 19.4685 39.4458C19.9035 39.2654 20.2752 38.9599 20.5366 38.568C20.7979 38.1762 20.9371 37.7157 20.9366 37.2447C20.9366 36.9325 20.8751 36.6233 20.7556 36.3349C20.6361 36.0464 20.461 35.7843 20.2402 35.5635C20.0195 35.3428 19.7574 35.1676 19.4689 35.0482C19.1805 34.9287 18.8713 34.8672 18.5591 34.8672Z" fill="white"/>
</g>
</g>
<defs>
<clipPath id="clip0_1891_989">
<rect width="48" height="48" fill="white"/>
</clipPath>
</defs>
</svg>
