<svg width="202" height="60" viewBox="0 0 202 60" fill="none" xmlns="http://www.w3.org/2000/svg">
<path d="M51.3263 27.0336H8.6748V35.1342H51.3263V27.0336Z" fill="#C5824B"/>
<path d="M46.7866 35.1339H13.2133L16.0985 54.9332C16.4215 57.1487 18.5126 58.8049 20.9873 58.8049H39.0127C41.4871 58.8049 43.5785 57.1487 43.9013 54.9332L46.7866 35.1339Z" fill="#C5824B"/>
<path d="M29.9999 18.3188H25.3778C18.4735 18.3188 12.8763 12.7217 12.8763 5.81731V1.19519H17.4985C24.4028 1.19519 29.9999 6.79231 29.9999 13.6967V18.3188Z" fill="#52A345"/>
<path d="M29.9999 18.3188H34.6221C41.5264 18.3188 47.1235 12.7217 47.1235 5.81731V1.19519H42.5014C35.5971 1.19519 29.9999 6.79231 29.9999 13.6967V18.3188Z" fill="#52A345"/>
<path d="M51.3257 25.838H31.1955V19.514H34.6223C42.1747 19.514 48.319 13.3697 48.319 5.81732V1.1952C48.319 0.535079 47.7839 0 47.1238 0H42.5018C36.9409 0 32.1438 3.3313 30.0003 8.10306C27.857 3.3313 23.0598 0 17.4989 0H12.8769C12.2168 0 11.6817 0.535079 11.6817 1.1952V5.8172C11.6817 13.3696 17.8259 19.5139 25.3783 19.5139H28.8052V25.8379H8.675C8.01488 25.8379 7.4798 26.373 7.4798 27.0331V35.1337C7.4798 35.7938 8.01488 36.3289 8.675 36.3289H12.1801L14.9163 55.1053C15.3229 57.8957 17.9331 59.9999 20.9877 59.9999H39.0131C42.0678 59.9999 44.6779 57.8957 45.0845 55.1053L47.8207 36.3289H51.3258C51.9859 36.3289 52.521 35.7938 52.521 35.1337V27.0331C52.5209 26.3732 51.9858 25.838 51.3257 25.838ZM42.5018 2.3904H45.9286V5.8172C45.9286 12.0515 40.8567 17.1234 34.6225 17.1234H32.886L39.3025 10.7069C39.7692 10.2401 39.7692 9.4833 39.3025 9.01642C38.8357 8.54978 38.0789 8.54978 37.612 9.01642L31.1957 15.433V13.6966C31.1955 7.4624 36.2674 2.3904 42.5018 2.3904ZM14.072 5.81732V2.3904H17.4988C23.7331 2.3904 28.805 7.46228 28.805 13.6966V15.433L19.1196 5.74759C18.6528 5.28083 17.896 5.28083 17.4292 5.74759C16.9624 6.21435 16.9624 6.97115 17.4292 7.43802L27.1146 17.1235H25.3781C19.144 17.1236 14.072 12.0517 14.072 5.81732ZM42.719 54.7609C42.4824 56.385 40.8891 57.6097 39.013 57.6097H20.9877C19.1116 57.6097 17.5184 56.385 17.2817 54.7609L14.5957 36.3291H45.4049L42.719 54.7609ZM9.87019 33.9386V28.2284H50.1306V33.9386H9.87019Z" fill="#5E282D"/>
<path d="M185.262 12.18C184.834 12.2067 184.527 12.26 184.34 12.34C184.153 12.42 184.019 12.5733 183.939 12.8C183.872 13.0267 183.839 13.3933 183.839 13.9V23.82C183.839 24.3267 183.872 24.6933 183.939 24.92C184.019 25.1467 184.153 25.3 184.34 25.38C184.527 25.46 184.834 25.5133 185.262 25.54V25.94C184.5 25.9 183.311 25.88 181.695 25.88C180.252 25.88 179.136 25.9 178.348 25.94V25.54C178.776 25.5133 179.083 25.46 179.27 25.38C179.457 25.3 179.584 25.1467 179.651 24.92C179.731 24.6933 179.771 24.3267 179.771 23.82V14.62L174.861 24.14C174.875 24.5267 174.921 24.82 175.002 25.02C175.082 25.2067 175.215 25.3333 175.402 25.4C175.603 25.4667 175.897 25.5133 176.284 25.54V25.94C175.509 25.9 174.394 25.88 172.938 25.88C171.321 25.88 170.132 25.9 169.371 25.94V25.54C169.798 25.5133 170.105 25.46 170.292 25.38C170.479 25.3 170.606 25.1467 170.673 24.92C170.753 24.6933 170.793 24.3267 170.793 23.82V13.9C170.793 13.3933 170.753 13.0267 170.673 12.8C170.606 12.5733 170.479 12.42 170.292 12.34C170.105 12.26 169.798 12.2067 169.371 12.18V11.78C170.132 11.82 171.321 11.84 172.938 11.84C174.38 11.84 175.496 11.82 176.284 11.78V12.18C175.857 12.2067 175.549 12.26 175.362 12.34C175.175 12.42 175.042 12.5733 174.961 12.8C174.895 13.0267 174.861 13.3933 174.861 13.9V23.14L179.771 13.64C179.757 13.2267 179.711 12.9267 179.631 12.74C179.55 12.54 179.417 12.4067 179.23 12.34C179.043 12.26 178.749 12.2067 178.348 12.18V11.78C179.123 11.82 180.238 11.84 181.695 11.84C183.311 11.84 184.5 11.82 185.262 11.78V12.18ZM180.532 7C181.093 7 181.554 7.14667 181.915 7.44C182.289 7.72 182.476 8.06667 182.476 8.48C182.476 8.81333 182.349 9.11333 182.095 9.38C181.855 9.63333 181.528 9.85333 181.113 10.04C180.686 10.24 180.145 10.4 179.49 10.52C178.836 10.64 178.114 10.7 177.326 10.7C176.538 10.7 175.816 10.64 175.162 10.52C174.507 10.4 173.96 10.24 173.519 10.04C173.118 9.86667 172.797 9.64667 172.557 9.38C172.316 9.11333 172.196 8.81333 172.196 8.48C172.196 8.06667 172.376 7.72 172.737 7.44C173.098 7.14667 173.559 7 174.12 7C174.681 7 175.149 7.14667 175.523 7.44C175.897 7.72 176.084 8.08 176.084 8.52C176.084 8.89333 175.943 9.20667 175.663 9.46C175.382 9.71333 175.028 9.89333 174.601 10C175.456 10.2 176.364 10.3 177.326 10.3C178.288 10.3 179.19 10.1933 180.031 9.98C179.59 9.86 179.236 9.68 178.969 9.44C178.715 9.18667 178.589 8.88 178.589 8.52C178.589 8.08 178.769 7.72 179.13 7.44C179.504 7.14667 179.971 7 180.532 7Z" fill="#475009"/>
<path d="M152.737 17.5C155.102 17.5 156.772 17.8734 157.747 18.62C158.722 19.3667 159.21 20.3467 159.21 21.56C159.21 22.8934 158.695 23.9534 157.667 24.74C156.651 25.5267 155.162 25.92 153.198 25.92C152.824 25.92 152.51 25.9134 152.256 25.9L149.832 25.88C148.375 25.88 147.267 25.9 146.505 25.94V25.54C146.933 25.5134 147.24 25.46 147.427 25.38C147.614 25.3 147.741 25.1467 147.808 24.92C147.888 24.6934 147.928 24.3267 147.928 23.82V13.9C147.928 13.3934 147.888 13.0267 147.808 12.8C147.741 12.5734 147.614 12.42 147.427 12.34C147.24 12.26 146.933 12.2067 146.505 12.18V11.78C147.267 11.82 148.456 11.84 150.072 11.84C151.515 11.84 152.63 11.82 153.419 11.78V12.18C152.991 12.2067 152.677 12.26 152.477 12.34C152.29 12.42 152.163 12.5734 152.096 12.8C152.029 13.0267 151.996 13.3934 151.996 13.9V17.5H152.737ZM167.045 12.18C166.618 12.2067 166.304 12.26 166.103 12.34C165.916 12.42 165.789 12.5734 165.722 12.8C165.656 13.0267 165.622 13.3934 165.622 13.9V23.82C165.622 24.3267 165.656 24.6934 165.722 24.92C165.803 25.1467 165.936 25.3 166.123 25.38C166.31 25.46 166.618 25.5134 167.045 25.54V25.94C166.27 25.9 165.155 25.88 163.699 25.88C162.082 25.88 160.893 25.9 160.132 25.94V25.54C160.559 25.5134 160.866 25.46 161.053 25.38C161.254 25.3 161.387 25.1467 161.454 24.92C161.521 24.6934 161.554 24.3267 161.554 23.82V13.9C161.554 13.3934 161.514 13.0267 161.434 12.8C161.367 12.5734 161.24 12.42 161.053 12.34C160.866 12.26 160.559 12.2067 160.132 12.18V11.78C160.893 11.82 162.082 11.84 163.699 11.84C165.155 11.84 166.27 11.82 167.045 11.78V12.18ZM153.018 25.54C153.739 25.54 154.247 25.2467 154.541 24.66C154.848 24.06 155.002 23.1334 155.002 21.88C155.002 20.6267 154.828 19.6534 154.481 18.96C154.133 18.2534 153.485 17.9 152.537 17.9H151.996V23.82C151.996 24.5 152.063 24.96 152.196 25.2C152.33 25.4267 152.604 25.54 153.018 25.54Z" fill="#475009"/>
<path d="M144.178 12.18C143.751 12.2067 143.437 12.26 143.237 12.34C143.05 12.42 142.923 12.5734 142.856 12.8C142.789 13.0267 142.756 13.3934 142.756 13.9V23.82C142.756 24.3267 142.789 24.6934 142.856 24.92C142.936 25.1467 143.07 25.3 143.257 25.38C143.444 25.46 143.751 25.5134 144.178 25.54V25.94C143.457 25.9 142.335 25.88 140.812 25.88C139.276 25.88 138.093 25.9 137.265 25.94V25.54C137.693 25.5134 138 25.46 138.187 25.38C138.387 25.3 138.521 25.1467 138.588 24.92C138.654 24.6934 138.688 24.3267 138.688 23.82V19.02H134.179V23.82C134.179 24.3267 134.212 24.6934 134.279 24.92C134.359 25.1467 134.493 25.3 134.68 25.38C134.867 25.46 135.174 25.5134 135.602 25.54V25.94C134.827 25.9 133.711 25.88 132.255 25.88C130.639 25.88 129.45 25.9 128.688 25.94V25.54C129.116 25.5134 129.423 25.46 129.61 25.38C129.811 25.3 129.944 25.1467 130.011 24.92C130.078 24.6934 130.111 24.3267 130.111 23.82V13.9C130.111 13.3934 130.071 13.0267 129.991 12.8C129.924 12.5734 129.797 12.42 129.61 12.34C129.423 12.26 129.116 12.2067 128.688 12.18V11.78C129.45 11.82 130.639 11.84 132.255 11.84C133.698 11.84 134.814 11.82 135.602 11.78V12.18C135.174 12.2067 134.86 12.26 134.66 12.34C134.473 12.42 134.346 12.5734 134.279 12.8C134.212 13.0267 134.179 13.3934 134.179 13.9V18.62H138.688V13.9C138.688 13.3934 138.648 13.0267 138.568 12.8C138.501 12.5734 138.374 12.42 138.187 12.34C138 12.26 137.693 12.2067 137.265 12.18V11.78C138.093 11.82 139.276 11.84 140.812 11.84C142.335 11.84 143.457 11.82 144.178 11.78V12.18Z" fill="#475009"/>
<path d="M125.915 22.58C125.915 23.94 125.962 25.06 126.055 25.94C125.147 25.9 123.617 25.88 121.466 25.88C118.34 25.88 116.003 25.9 114.453 25.94V25.54C114.88 25.5134 115.188 25.46 115.375 25.38C115.575 25.3 115.709 25.1467 115.775 24.92C115.842 24.6934 115.876 24.3267 115.876 23.82V13.9C115.876 13.3934 115.836 13.0267 115.755 12.8C115.689 12.5734 115.562 12.42 115.375 12.34C115.188 12.26 114.88 12.2067 114.453 12.18V11.78C116.003 11.82 118.34 11.84 121.466 11.84C123.43 11.84 124.826 11.82 125.655 11.78C125.561 13.0334 125.514 14.1534 125.514 15.14C125.514 15.7534 125.534 16.2334 125.574 16.58H125.114C124.873 15.0334 124.426 13.9267 123.771 13.26C123.116 12.58 122.335 12.24 121.426 12.24H121.166C120.805 12.24 120.538 12.2734 120.364 12.34C120.204 12.3934 120.09 12.5067 120.024 12.68C119.97 12.84 119.944 13.1134 119.944 13.5V18.62H120.144C120.839 18.62 121.433 18.3467 121.927 17.8C122.422 17.2534 122.736 16.6467 122.869 15.98H123.33C123.29 16.54 123.27 17.1667 123.27 17.86V18.82C123.27 19.5 123.31 20.4467 123.39 21.66H122.929C122.809 20.9 122.495 20.2734 121.988 19.78C121.493 19.2734 120.879 19.02 120.144 19.02H119.944V24.22C119.944 24.6067 119.97 24.8867 120.024 25.06C120.09 25.22 120.204 25.3334 120.364 25.4C120.538 25.4534 120.805 25.48 121.166 25.48H121.827C122.602 25.48 123.337 25.1067 124.031 24.36C124.726 23.6 125.22 22.3934 125.514 20.74H125.975C125.935 21.22 125.915 21.8334 125.915 22.58Z" fill="#475009"/>
<path d="M112.244 12.18C111.763 12.2067 111.409 12.26 111.182 12.34C110.969 12.42 110.822 12.5734 110.741 12.8C110.661 13.0267 110.621 13.3934 110.621 13.9V23.82C110.621 24.3267 110.661 24.6934 110.741 24.92C110.822 25.1467 110.969 25.3 111.182 25.38C111.409 25.46 111.763 25.5134 112.244 25.54V25.94C111.443 25.9 110.2 25.88 108.517 25.88C106.954 25.88 105.758 25.9 104.93 25.94V25.54C105.411 25.5134 105.758 25.46 105.972 25.38C106.199 25.3 106.353 25.1467 106.433 24.92C106.513 24.6934 106.553 24.3267 106.553 23.82V13.9C106.553 13.2067 106.46 12.7467 106.273 12.52C106.086 12.2934 105.772 12.18 105.331 12.18H105.271C104.91 12.18 104.63 12.3 104.429 12.54C104.229 12.78 104.102 13.2334 104.048 13.9C104.008 14.2734 103.975 14.6334 103.948 14.98C103.935 15.3267 103.915 15.6534 103.888 15.96C103.741 18.0934 103.561 19.84 103.347 21.2C103.147 22.56 102.773 23.74 102.225 24.74C101.677 25.7267 100.889 26.22 99.8603 26.22C99.1522 26.22 98.5644 26.0134 98.0968 25.6C97.6426 25.1734 97.4155 24.6534 97.4155 24.04C97.4155 23.4134 97.6292 22.9067 98.0567 22.52C98.4842 22.1334 99.0186 21.94 99.6599 21.94C100.208 21.94 100.642 22.0734 100.962 22.34C101.283 22.5934 101.443 22.9534 101.443 23.42C101.443 24.0067 101.243 24.5067 100.842 24.92C100.455 25.32 99.9604 25.5734 99.3593 25.68C99.4662 25.7867 99.6331 25.84 99.8603 25.84C100.809 25.84 101.537 25.2734 102.044 24.14C102.552 23.0067 102.899 21.6667 103.087 20.12C103.274 18.56 103.441 16.4867 103.588 13.9C103.601 13.7934 103.608 13.6467 103.608 13.46C103.608 13.1134 103.561 12.8534 103.467 12.68C103.374 12.5067 103.213 12.3867 102.986 12.32C102.759 12.2534 102.419 12.2067 101.964 12.18V11.78C102.525 11.82 103.213 11.84 104.028 11.84C104.229 11.84 104.529 11.8267 104.93 11.8L105.792 11.78L107.134 11.8C107.749 11.8267 108.257 11.84 108.657 11.84C110.247 11.84 111.443 11.82 112.244 11.78V12.18Z" fill="#475009"/>
<path d="M95.6242 22.58C95.6242 23.94 95.671 25.06 95.7645 25.94C94.8561 25.9 93.3264 25.88 91.1756 25.88C88.0495 25.88 85.7116 25.9 84.1619 25.94V25.54C84.5894 25.5134 84.8967 25.46 85.0837 25.38C85.2841 25.3 85.4177 25.1467 85.4845 24.92C85.5513 24.6934 85.5847 24.3267 85.5847 23.82V13.9C85.5847 13.3934 85.5446 13.0267 85.4645 12.8C85.3977 12.5734 85.2707 12.42 85.0837 12.34C84.8967 12.26 84.5894 12.2067 84.1619 12.18V11.78C85.7116 11.82 88.0495 11.84 91.1756 11.84C93.1394 11.84 94.5354 11.82 95.3637 11.78C95.2702 13.0334 95.2234 14.1534 95.2234 15.14C95.2234 15.7534 95.2435 16.2334 95.2836 16.58H94.8227C94.5822 15.0334 94.1347 13.9267 93.48 13.26C92.8254 12.58 92.0439 12.24 91.1355 12.24H90.875C90.5143 12.24 90.2471 12.2734 90.0734 12.34C89.9131 12.3934 89.7996 12.5067 89.7328 12.68C89.6793 12.84 89.6526 13.1134 89.6526 13.5V18.62H89.853C90.5477 18.62 91.1422 18.3467 91.6365 17.8C92.1308 17.2534 92.4447 16.6467 92.5783 15.98H93.0392C92.9991 16.54 92.9791 17.1667 92.9791 17.86V18.82C92.9791 19.5 93.0192 20.4467 93.0993 21.66H92.6384C92.5182 20.9 92.2042 20.2734 91.6966 19.78C91.2023 19.2734 90.5878 19.02 89.853 19.02H89.6526V24.22C89.6526 24.6067 89.6793 24.8867 89.7328 25.06C89.7996 25.22 89.9131 25.3334 90.0734 25.4C90.2471 25.4534 90.5143 25.48 90.875 25.48H91.5363C92.3111 25.48 93.0459 25.1067 93.7406 24.36C94.4352 23.6 94.9295 22.3934 95.2234 20.74H95.6843C95.6443 21.22 95.6242 21.8334 95.6242 22.58Z" fill="#475009"/>
<path d="M76.3123 11.5C77.7818 11.5 78.9708 11.7733 79.8792 12.32C80.801 12.8533 81.2619 13.5867 81.2619 14.52C81.2619 15.52 80.7476 16.36 79.7189 17.04C78.6902 17.7067 77.5146 18.1733 76.192 18.44C77.1539 18.4533 78.0824 18.6 78.9775 18.88C79.8725 19.16 80.6006 19.5733 81.1617 20.12C81.7362 20.6667 82.0234 21.34 82.0234 22.14C82.0234 22.98 81.6961 23.7133 81.0415 24.34C80.4002 24.9533 79.5586 25.42 78.5166 25.74C77.4879 26.06 76.3991 26.22 75.2502 26.22C73.5269 26.22 72.1776 25.8533 71.2023 25.12C70.8684 24.8667 70.5811 24.56 70.3407 24.2C70.1136 23.84 70 23.4467 70 23.02C70 22.3933 70.2071 21.9 70.6212 21.54C71.0353 21.18 71.5363 21 72.1241 21C72.7253 21 73.1929 21.1667 73.5269 21.5C73.8608 21.82 74.0278 22.3 74.0278 22.94C74.0278 23.4333 73.8475 23.8733 73.4868 24.26C73.1394 24.6333 72.6585 24.9 72.044 25.06C72.7387 25.5 73.6137 25.72 74.6691 25.72C75.7645 25.72 76.6329 25.42 77.2741 24.82C77.9154 24.22 78.236 23.3067 78.236 22.08C78.236 21.1467 78.0423 20.3467 77.6549 19.68C77.2675 19.0133 76.673 18.66 75.8714 18.62C75.5508 18.7933 75.2702 18.88 75.0298 18.88C74.8962 18.88 74.7893 18.8533 74.7092 18.8C74.629 18.7467 74.5889 18.66 74.5889 18.54C74.5889 18.3267 74.7492 18.22 75.0699 18.22C75.2435 18.22 75.5174 18.26 75.8915 18.34C76.4659 18.0733 76.8667 17.6333 77.0938 17.02C77.3343 16.3933 77.4545 15.72 77.4545 15C77.4545 14 77.2608 13.2867 76.8734 12.86C76.4859 12.42 75.9382 12.2 75.2302 12.2C74.0813 12.2 73.1996 12.62 72.585 13.46C71.9839 14.3 71.6432 15.4067 71.563 16.78H71.1021C71.1021 14.3933 71.0754 12.7267 71.022 11.78H71.4829C71.523 12.2067 71.5831 12.5133 71.6632 12.7C71.7434 12.8867 71.8569 12.98 72.0039 12.98C72.0974 12.98 72.2243 12.92 72.3846 12.8C73.0125 12.3467 73.587 12.02 74.108 11.82C74.6424 11.6067 75.3771 11.5 76.3123 11.5Z" fill="#475009"/>
<path d="M194.786 46.22V49.62C194.786 50.18 194.839 50.5867 194.946 50.84C195.066 51.0934 195.274 51.2667 195.567 51.36C195.875 51.44 196.356 51.48 197.01 51.48V51.94C195.207 51.9 193.831 51.88 192.882 51.88C192.254 51.88 191.379 51.8934 190.257 51.92L189.295 51.94V51.54C189.723 51.5134 190.03 51.46 190.217 51.38C190.417 51.3 190.551 51.1467 190.618 50.92C190.685 50.6934 190.718 50.3267 190.718 49.82V39.9C190.718 39.3934 190.678 39.0267 190.598 38.8C190.531 38.5734 190.404 38.42 190.217 38.34C190.03 38.26 189.723 38.2067 189.295 38.18V37.78C190.057 37.82 191.206 37.84 192.742 37.84L195.046 37.82C195.314 37.8067 195.621 37.8 195.968 37.8C197.945 37.8 199.442 38.16 200.457 38.88C201.486 39.5867 202 40.54 202 41.74C202 42.4734 201.8 43.18 201.399 43.86C200.998 44.5267 200.317 45.0867 199.355 45.54C198.393 45.9934 197.117 46.22 195.527 46.22H194.786ZM195.868 38.18C195.561 38.18 195.327 38.2267 195.167 38.32C195.02 38.4134 194.92 38.58 194.866 38.82C194.813 39.06 194.786 39.42 194.786 39.9V45.82H195.327C196.262 45.82 196.903 45.4734 197.251 44.78C197.611 44.0867 197.792 43.1467 197.792 41.96C197.792 40.6667 197.645 39.7134 197.351 39.1C197.057 38.4867 196.563 38.18 195.868 38.18Z" fill="#475009"/>
<path d="M186.978 38.18C186.551 38.2067 186.243 38.26 186.056 38.34C185.869 38.42 185.736 38.5734 185.656 38.8C185.589 39.0267 185.555 39.3934 185.555 39.9V49.82C185.555 50.3267 185.589 50.6934 185.656 50.92C185.736 51.1467 185.869 51.3 186.056 51.38C186.243 51.46 186.551 51.5134 186.978 51.54V51.94C186.217 51.9 185.028 51.88 183.411 51.88C181.968 51.88 180.853 51.9 180.065 51.94V51.54C180.492 51.5134 180.799 51.46 180.986 51.38C181.174 51.3 181.3 51.1467 181.367 50.92C181.447 50.6934 181.487 50.3267 181.487 49.82V40.62L176.578 50.14C176.591 50.5267 176.638 50.82 176.718 51.02C176.798 51.2067 176.932 51.3334 177.119 51.4C177.319 51.4667 177.613 51.5134 178.001 51.54V51.94C177.226 51.9 176.11 51.88 174.654 51.88C173.038 51.88 171.849 51.9 171.087 51.94V51.54C171.515 51.5134 171.822 51.46 172.009 51.38C172.196 51.3 172.323 51.1467 172.39 50.92C172.47 50.6934 172.51 50.3267 172.51 49.82V39.9C172.51 39.3934 172.47 39.0267 172.39 38.8C172.323 38.5734 172.196 38.42 172.009 38.34C171.822 38.26 171.515 38.2067 171.087 38.18V37.78C171.849 37.82 173.038 37.84 174.654 37.84C176.097 37.84 177.212 37.82 178.001 37.78V38.18C177.573 38.2067 177.266 38.26 177.079 38.34C176.892 38.42 176.758 38.5734 176.678 38.8C176.611 39.0267 176.578 39.3934 176.578 39.9V49.14L181.487 39.64C181.474 39.2267 181.427 38.9267 181.347 38.74C181.267 38.54 181.133 38.4067 180.946 38.34C180.759 38.26 180.465 38.2067 180.065 38.18V37.78C180.84 37.82 181.955 37.84 183.411 37.84C185.028 37.84 186.217 37.82 186.978 37.78V38.18Z" fill="#475009"/>
<path d="M169.653 51.14C169.252 51.54 168.811 51.82 168.33 51.98C167.849 52.14 167.288 52.22 166.647 52.22C165.712 52.22 164.99 52.06 164.482 51.74C163.988 51.4067 163.681 50.8467 163.561 50.06L163.04 46.62C162.919 45.9134 162.692 45.4267 162.358 45.16C162.038 44.88 161.503 44.72 160.755 44.68V49.82C160.755 50.3267 160.789 50.6934 160.855 50.92C160.922 51.1467 161.049 51.3 161.236 51.38C161.437 51.46 161.75 51.5134 162.178 51.54V51.94C161.417 51.9 160.228 51.88 158.611 51.88C157.168 51.88 156.053 51.9 155.265 51.94V51.54C155.692 51.5134 155.999 51.46 156.186 51.38C156.373 51.3 156.5 51.1467 156.567 50.92C156.647 50.6934 156.687 50.3267 156.687 49.82V44.68C155.939 44.72 155.398 44.88 155.064 45.16C154.744 45.4267 154.523 45.9134 154.403 46.62L153.882 50.06C153.762 50.8467 153.448 51.4067 152.94 51.74C152.446 52.06 151.731 52.22 150.796 52.22C150.155 52.22 149.594 52.14 149.113 51.98C148.632 51.82 148.191 51.54 147.79 51.14L148.051 50.88C148.224 51.0534 148.425 51.14 148.652 51.14C148.892 51.14 149.079 51.0467 149.213 50.86C149.36 50.6734 149.48 50.3334 149.573 49.84L150.155 47.06C150.342 46.18 150.809 45.54 151.557 45.14C152.319 44.74 153.428 44.4934 154.884 44.4L151.337 40.36C150.308 39.2 149.213 38.4667 148.051 38.16V37.78C148.598 37.82 149.273 37.84 150.074 37.84C151.21 37.84 152.339 37.82 153.461 37.78V38.16C152.98 38.1867 152.586 38.32 152.279 38.56C151.971 38.7867 151.818 39.0934 151.818 39.48C151.818 40.0134 152.112 40.6134 152.7 41.28L153.381 42.04C154.129 42.88 154.73 43.4667 155.184 43.8C155.652 44.1334 156.153 44.32 156.687 44.36V39.9C156.687 39.3934 156.654 39.0267 156.587 38.8C156.52 38.5734 156.387 38.42 156.186 38.34C155.999 38.26 155.692 38.2067 155.265 38.18V37.78C156.039 37.82 157.155 37.84 158.611 37.84C160.228 37.84 161.417 37.82 162.178 37.78V38.18C161.75 38.2067 161.443 38.26 161.256 38.34C161.069 38.42 160.936 38.5734 160.855 38.8C160.789 39.0267 160.755 39.3934 160.755 39.9V44.36C161.29 44.32 161.784 44.1334 162.238 43.8C162.706 43.4667 163.314 42.88 164.062 42.04L164.743 41.28C165.331 40.6134 165.625 40.0134 165.625 39.48C165.625 39.0934 165.471 38.7867 165.164 38.56C164.857 38.32 164.462 38.1867 163.982 38.16V37.78C165.104 37.82 166.233 37.84 167.368 37.84C168.17 37.84 168.844 37.82 169.392 37.78V38.16C168.23 38.4667 167.134 39.2 166.106 40.36L162.559 44.4C164.015 44.4934 165.117 44.74 165.865 45.14C166.627 45.54 167.101 46.18 167.288 47.06L167.869 49.84C167.963 50.3334 168.076 50.6734 168.21 50.86C168.357 51.0467 168.55 51.14 168.791 51.14C169.018 51.14 169.218 51.0534 169.392 50.88L169.653 51.14Z" fill="#475009"/>
<path d="M145.859 50.26C146.032 50.6867 146.219 51.0067 146.42 51.22C146.633 51.42 146.841 51.5267 147.041 51.54V51.94C146.079 51.9 144.863 51.88 143.394 51.88C141.871 51.88 140.749 51.9 140.027 51.94V51.54C140.535 51.5134 140.896 51.4534 141.109 51.36C141.323 51.2534 141.43 51.0734 141.43 50.82C141.43 50.58 141.35 50.26 141.19 49.86L140.007 46.58H135.959L135.619 47.48C135.178 48.6134 134.957 49.48 134.957 50.08C134.957 50.6267 135.111 51 135.418 51.2C135.726 51.4 136.18 51.5134 136.781 51.54V51.94C135.779 51.9 134.904 51.88 134.156 51.88C133.528 51.88 133.014 51.9 132.613 51.94V51.54C132.947 51.4867 133.261 51.28 133.555 50.92C133.849 50.56 134.149 49.9867 134.456 49.2L138.905 37.78C139.333 37.8067 139.687 37.82 139.967 37.82C140.234 37.82 140.582 37.8067 141.009 37.78L145.859 50.26ZM139.867 46.18L138.043 41.18L136.12 46.18H139.867Z" fill="#475009"/>
<path d="M125.764 37.5C126.565 37.5 127.246 37.6133 127.808 37.84C128.369 38.0667 128.916 38.3867 129.451 38.8C129.584 38.92 129.711 38.98 129.832 38.98C130.099 38.98 130.272 38.58 130.353 37.78H130.813C130.76 38.7267 130.733 40.3933 130.733 42.78H130.272C130.179 41.7133 130.005 40.8733 129.751 40.26C129.498 39.6467 129.057 39.1333 128.429 38.72C127.801 38.32 127.18 38.12 126.565 38.12C125.176 38.12 124.201 38.7867 123.639 40.12C123.078 41.4533 122.798 43.0467 122.798 44.9C122.798 46.7533 123.078 48.3467 123.639 49.68C124.201 51.0133 125.176 51.68 126.565 51.68C127.18 51.68 127.801 51.48 128.429 51.08C129.057 50.6933 129.498 50.1733 129.751 49.52C130.005 48.8667 130.179 47.94 130.272 46.74H130.733C130.733 49.2333 130.76 50.9667 130.813 51.94H130.353C130.312 51.5133 130.252 51.2133 130.172 51.04C130.105 50.8533 130.005 50.76 129.872 50.76C129.765 50.76 129.624 50.8133 129.451 50.92C128.85 51.3467 128.275 51.6733 127.727 51.9C127.18 52.1133 126.518 52.22 125.744 52.22C124.234 52.22 122.911 51.9333 121.776 51.36C120.64 50.7867 119.759 49.96 119.131 48.88C118.503 47.7867 118.189 46.4867 118.189 44.98C118.189 43.5133 118.509 42.2133 119.151 41.08C119.792 39.9467 120.687 39.0667 121.836 38.44C122.985 37.8133 124.294 37.5 125.764 37.5Z" fill="#475009"/>
<path d="M110.197 37.5C110.999 37.5 111.68 37.6133 112.241 37.84C112.802 38.0667 113.35 38.3867 113.885 38.8C114.018 38.92 114.145 38.98 114.265 38.98C114.532 38.98 114.706 38.58 114.786 37.78H115.247C115.194 38.7267 115.167 40.3933 115.167 42.78H114.706C114.613 41.7133 114.439 40.8733 114.185 40.26C113.931 39.6467 113.49 39.1333 112.863 38.72C112.235 38.32 111.613 38.12 110.999 38.12C109.61 38.12 108.634 38.7867 108.073 40.12C107.512 41.4533 107.232 43.0467 107.232 44.9C107.232 46.7533 107.512 48.3467 108.073 49.68C108.634 51.0133 109.61 51.68 110.999 51.68C111.613 51.68 112.235 51.48 112.863 51.08C113.49 50.6933 113.931 50.1733 114.185 49.52C114.439 48.8667 114.613 47.94 114.706 46.74H115.167C115.167 49.2333 115.194 50.9667 115.247 51.94H114.786C114.746 51.5133 114.686 51.2133 114.606 51.04C114.539 50.8533 114.439 50.76 114.305 50.76C114.198 50.76 114.058 50.8133 113.885 50.92C113.283 51.3467 112.709 51.6733 112.161 51.9C111.613 52.1133 110.952 52.22 110.177 52.22C108.668 52.22 107.345 51.9333 106.21 51.36C105.074 50.7867 104.192 49.96 103.564 48.88C102.937 47.7867 102.623 46.4867 102.623 44.98C102.623 43.5133 102.943 42.2133 103.585 41.08C104.226 39.9467 105.121 39.0667 106.27 38.44C107.419 37.8133 108.728 37.5 110.197 37.5Z" fill="#475009"/>
<path d="M100.256 50.26C100.43 50.6867 100.617 51.0067 100.817 51.22C101.031 51.42 101.238 51.5267 101.438 51.54V51.94C100.476 51.9 99.2606 51.88 97.7911 51.88C96.2681 51.88 95.146 51.9 94.4246 51.94V51.54C94.9322 51.5134 95.2929 51.4534 95.5067 51.36C95.7204 51.2534 95.8273 51.0734 95.8273 50.82C95.8273 50.58 95.7471 50.26 95.5868 49.86L94.4045 46.58H90.3566L90.016 47.48C89.5751 48.6134 89.3547 49.48 89.3547 50.08C89.3547 50.6267 89.5083 51 89.8156 51.2C90.1229 51.4 90.5771 51.5134 91.1782 51.54V51.94C90.1763 51.9 89.3013 51.88 88.5531 51.88C87.9252 51.88 87.4109 51.9 87.0101 51.94V51.54C87.3441 51.4867 87.6581 51.28 87.952 50.92C88.2459 50.56 88.5465 49.9867 88.8537 49.2L93.3024 37.78C93.7299 37.8067 94.0839 37.82 94.3644 37.82C94.6316 37.82 94.979 37.8067 95.4065 37.78L100.256 50.26ZM94.2642 46.18L92.4407 41.18L90.517 46.18H94.2642Z" fill="#475009"/>
<path d="M85.6655 38.18C85.238 38.2067 84.9307 38.26 84.7437 38.34C84.5567 38.42 84.4231 38.5734 84.3429 38.8C84.2761 39.0267 84.2427 39.3934 84.2427 39.9V49.82C84.2427 50.3267 84.2761 50.6934 84.3429 50.92C84.4231 51.1467 84.5567 51.3 84.7437 51.38C84.9307 51.46 85.238 51.5134 85.6655 51.54V51.94C84.904 51.9 83.715 51.88 82.0985 51.88C80.6557 51.88 79.5402 51.9 78.752 51.94V51.54C79.1795 51.5134 79.4868 51.46 79.6738 51.38C79.8609 51.3 79.9878 51.1467 80.0546 50.92C80.1347 50.6934 80.1748 50.3267 80.1748 49.82V39.9C80.1748 39.3934 80.1347 39.0267 80.0546 38.8C79.9744 38.56 79.8208 38.4 79.5937 38.32C79.3666 38.2267 79.0192 38.18 78.5516 38.18H77.2892C76.8216 38.18 76.4743 38.2267 76.2472 38.32C76.0201 38.4 75.8664 38.56 75.7863 38.8C75.7061 39.0267 75.666 39.3934 75.666 39.9V49.82C75.666 50.3267 75.6994 50.6934 75.7662 50.92C75.8464 51.1467 75.98 51.3 76.167 51.38C76.354 51.46 76.6613 51.5134 77.0888 51.54V51.94C76.314 51.9 75.1985 51.88 73.7423 51.88C72.1258 51.88 70.9368 51.9 70.1754 51.94V51.54C70.6029 51.5134 70.9101 51.46 71.0971 51.38C71.2842 51.3 71.4111 51.1467 71.4779 50.92C71.558 50.6934 71.5981 50.3267 71.5981 49.82V39.9C71.5981 39.3934 71.558 39.0267 71.4779 38.8C71.4111 38.5734 71.2842 38.42 71.0971 38.34C70.9101 38.26 70.6029 38.2067 70.1754 38.18V37.78C70.9368 37.82 72.1258 37.84 73.7423 37.84C74.4103 37.84 75.2786 37.8267 76.3474 37.8L77.9505 37.78L79.5135 37.8C80.5823 37.8267 81.4439 37.84 82.0985 37.84C83.715 37.84 84.904 37.82 85.6655 37.78V38.18Z" fill="#475009"/>
</svg>
