<svg width="20" height="20" viewBox="0 0 20 20" fill="none" xmlns="http://www.w3.org/2000/svg">
<path d="M3.45041 15.9604C3.29045 16.1258 3.29495 16.3896 3.46038 16.5496C3.62584 16.7095 3.88963 16.705 4.04955 16.5396L16.1329 4.03959C16.2928 3.87413 16.2884 3.61034 16.1229 3.45041C15.9575 3.29045 15.6937 3.29495 15.5337 3.46038L3.45041 15.9604Z" fill="white"/>
<path d="M15.5337 16.5396C15.6937 16.705 15.9575 16.7095 16.1229 16.5496C16.2884 16.3897 16.2928 16.1259 16.1329 15.9604L4.04954 3.46042C3.88962 3.29497 3.62583 3.29049 3.46038 3.45043C3.29494 3.61036 3.29046 3.87415 3.4504 4.03959L15.5337 16.5396Z" fill="white"/>
</svg>
