<svg width="115" height="27" viewBox="0 0 115 27" fill="none" xmlns="http://www.w3.org/2000/svg">
<path d="M96.8503 26.2138L104.003 17.618L97.1127 7.74268H100.853C102.69 7.74268 102.428 8.49728 105.61 13.0576L106.693 14.6324L111.023 7.97234C111.155 7.77549 111.384 7.70987 111.581 7.70987H113.812L107.316 15.5183L114.829 26.2138H111.319C108.989 26.2466 109.416 25.2952 106.332 20.9316L104.626 18.5038L99.6718 25.9185C99.5406 26.1154 99.3437 26.181 99.0812 26.181H96.8503V26.2138Z" fill="#1D252D"/>
<path d="M89.3373 26.5746C86.811 26.5746 84.1864 25.8529 82.546 23.8187C81.004 21.9159 80.4462 19.5537 80.3806 17.1586C80.3478 14.1731 81.1024 11.7781 82.6772 9.97362C84.252 8.16916 86.4173 7.28333 89.1733 7.28333C90.4856 7.28333 91.6667 7.48017 92.6837 7.87387C93.7008 8.26757 94.4882 8.79251 95.1116 9.48149C95.7349 10.1705 96.1942 10.9579 96.4895 11.8437C96.7848 12.7295 96.9488 13.7138 96.9816 14.7636C96.9816 15.3214 96.9488 15.8463 96.8504 16.3056C96.8504 16.3712 96.7848 16.404 96.752 16.404H85.2034C85.2691 19.3896 85.7284 21.5222 86.5814 22.8673C87.4344 24.2124 88.8452 24.8686 90.8465 24.8686C92.9134 24.8686 94.521 24.2781 96.0958 23.0642C96.3583 23.2938 96.6536 23.9172 96.0958 24.4093C94.6523 25.7216 91.8307 26.5746 89.3373 26.5746ZM85.1706 15.5182L92.6509 14.9605C92.6837 12.467 92.5853 8.366 89.2717 8.366C85.794 8.366 85.2691 12.8607 85.1706 15.5182Z" fill="#1D252D"/>
<path d="M77.4935 24.0813V13.2545C77.4935 9.54719 76.0827 7.31622 72.441 7.31622C69.8819 7.31622 67.4541 8.53013 65.7153 10.3346C65.7153 8.89102 65.4856 7.70992 64.0749 7.70992H61.1221L61.2861 9.80966V24.0485L61.1221 26.181H65.9121L65.7481 24.0485V11.3188C67.126 10.269 68.4056 9.74404 70.2428 9.74404C72.5722 9.74404 73.0315 11.9094 73.0315 14.3044V23.6876C73.0315 25.2624 73.3924 26.181 74.7048 26.181H77.6575L77.4935 24.0813Z" fill="#1D252D"/>
<path d="M56.496 2.36211C56.496 3.67445 55.4133 4.72432 54.101 4.72432C52.7887 4.72432 51.706 3.67445 51.706 2.36211C51.706 1.04978 52.7887 -9.15527e-05 54.101 -9.15527e-05C55.4133 -9.15527e-05 56.496 1.04978 56.496 2.36211Z" fill="#1D252D"/>
<path d="M51.87 7.70983L52.034 9.80958V24.0484L51.87 26.1809H56.66L56.496 24.0484V10.1705C56.496 8.7597 56.2335 7.67703 54.8227 7.67703H51.87V7.70983Z" fill="#1D252D"/>
<path d="M47.3424 24.0813V13.2545C47.3424 9.51439 45.9317 7.31622 42.2899 7.31622C39.2388 7.31622 37.1718 8.85822 35.5314 10.5971C34.9409 8.53013 33.4973 7.31622 30.7414 7.31622C28.1495 7.31622 26.0498 8.53013 24.3438 10.3674V10.3346C24.3438 8.89102 24.1141 7.70992 22.7033 7.70992H19.7506L19.9146 9.80966V24.0485L19.7506 26.181H24.5406L24.3766 24.0485V11.3188C25.7217 10.2034 27.3293 9.74404 28.6088 9.74404C31.1351 9.74404 31.3975 12.3359 31.3975 14.3044V24.0485L31.2335 26.181H36.0235L35.8595 24.0485V11.3188C37.0078 10.3346 38.6154 9.74404 40.1246 9.74404C42.7492 9.74404 42.9133 12.5984 42.9133 14.3044V23.6876C42.9133 25.4592 43.4054 26.181 44.5865 26.181H47.5393L47.3424 24.0813Z" fill="#1D252D"/>
<path d="M7.64442 26.5747C5.44626 26.5747 2.19823 25.9514 0.229723 24.8359C0.590615 24.0157 1.27959 23.3923 2.26384 23.9173C4.03549 24.8359 5.80715 25.2624 7.77565 25.2624C10.5972 25.2624 12.6641 23.6876 12.5329 20.8333C12.2376 14.8622 -0.0327427 13.9763 6.56744e-05 6.79131C0.032874 1.50916 4.79009 -3.05176e-05 9.35045 -3.05176e-05C11.5486 -3.05176e-05 13.714 0.426486 15.8465 1.2795C15.4856 2.13252 14.8623 2.8543 13.7796 2.32937C12.2704 1.60758 10.7612 1.2795 9.1536 1.2795C6.36489 1.2795 4.79008 2.78869 4.79008 5.01966C4.75728 10.7283 17.2245 11.5813 17.4541 18.996C17.5853 24.4094 13.0578 26.5747 7.64442 26.5747Z" fill="#1D252D"/>
</svg>
