<svg width="12" height="12" viewBox="0 0 12 12" fill="none" xmlns="http://www.w3.org/2000/svg">
<path fill-rule="evenodd" clip-rule="evenodd" d="M11.7082 0.309705C11.2407 -0.159237 10.4192 -0.0493246 9.94909 0.421869L7.55673 2.8086L3.11941 1.15042C2.69436 1.0405 2.26632 0.89832 1.73923 1.42691C1.47024 1.69627 0.911263 2.25675 1.73923 3.08622L4.78172 5.57723L2.80204 7.5528L0.95478 7.09098C0.680918 7.02045 0.496348 7.0756 0.355665 7.23092C0.284761 7.31945 -0.229576 7.70061 0.129071 8.06L2.27682 9.73094L3.94776 11.8787C4.20736 12.139 4.44858 11.9766 4.77834 11.6634C4.9873 11.454 4.94229 11.3463 4.87926 11.0413L4.46209 9.20685L6.42827 7.23392L8.91554 10.2772C9.74313 11.1066 10.3025 10.5458 10.5715 10.2772C11.0989 9.7482 10.9571 9.31977 10.8472 8.89397L9.20291 4.44915L11.5855 2.05829C12.0556 1.58747 12.176 0.778272 11.7082 0.309705Z" fill="#242424"/>
</svg>
