<svg width="12" height="12" viewBox="0 0 12 12" fill="none" xmlns="http://www.w3.org/2000/svg">
<path d="M10.5263 0.629971L1.00126 3.58122C0.824817 3.62805 0.668213 3.73061 0.554754 3.87362C0.441295 4.01663 0.377045 4.19245 0.371567 4.37492C0.366089 4.55739 0.419675 4.73675 0.52435 4.88631C0.629025 5.03587 0.779194 5.14764 0.952508 5.20497L5.27251 6.65247C5.28826 6.65846 5.30266 6.6675 5.31489 6.67909C5.32712 6.69068 5.33693 6.70457 5.34376 6.71997L6.93376 10.845C6.9981 11.0107 7.11166 11.1527 7.25916 11.2519C7.40666 11.3512 7.58101 11.4028 7.75876 11.4H7.78126C7.96199 11.3994 8.13794 11.3418 8.28405 11.2354C8.43015 11.1291 8.53897 10.9793 8.59501 10.8075L11.625 1.70997C11.6725 1.56431 11.6795 1.40847 11.6451 1.25916C11.6108 1.10986 11.5364 0.97272 11.43 0.862471C11.3162 0.743008 11.1712 0.657882 11.0114 0.616779C10.8517 0.575676 10.6836 0.580247 10.5263 0.629971Z" fill="#A9A0D9"/>
</svg>
