<svg xmlns="http://www.w3.org/2000/svg">
    <symbol id="icon-phone" viewBox="0 0 14 14">
        <path
            d="M9.16501 9.74002L10.285 8.62002C10.4359 8.47104 10.6267 8.36906 10.8344 8.32646C11.0421 8.28385 11.2577 8.30246 11.455 8.38002L12.82 8.92502C13.0194 9.00596 13.1904 9.14411 13.3114 9.32207C13.4324 9.50003 13.498 9.70983 13.5 9.92502V12.425C13.4988 12.5714 13.4681 12.716 13.4095 12.8502C13.351 12.9844 13.2659 13.1054 13.1594 13.2058C13.0529 13.3062 12.9272 13.3841 12.7898 13.4346C12.6524 13.4852 12.5062 13.5074 12.36 13.5C2.79501 12.905 0.865006 4.80502 0.500006 1.70502C0.483062 1.55279 0.498543 1.39869 0.54543 1.25288C0.592317 1.10706 0.669547 0.972817 0.772039 0.858988C0.874532 0.74516 0.999965 0.654323 1.14008 0.592452C1.2802 0.530582 1.43184 0.49908 1.58501 0.50002H4.00001C4.21551 0.500658 4.4259 0.565754 4.6041 0.686935C4.78231 0.808116 4.92019 0.97984 5.00001 1.18002L5.54501 2.54502C5.62513 2.74155 5.64558 2.95734 5.60378 3.16543C5.56199 3.37351 5.45981 3.56467 5.31001 3.71502L4.19001 4.83502C4.19001 4.83502 4.83501 9.20002 9.16501 9.74002Z"
            fill="currentColor" />
    </symbol>
    <symbol id="icon-header-logo" viewBox="0 0 386 68" fill="none" xmlns="http://www.w3.org/2000/svg">
        <path d="M207.473 30.6381H159.096V39.8187H207.473V30.6381Z" fill="#C5824B" />
        <path
            d="M202.324 39.8185H164.244L167.517 62.2577C167.883 64.7686 170.255 66.6456 173.062 66.6456H193.507C196.313 66.6456 198.686 64.7686 199.052 62.2577L202.324 39.8185Z"
            fill="#C5824B" />
        <path
            d="M183.284 20.7613H178.042C170.21 20.7613 163.862 14.4179 163.862 6.59302V1.35461H169.105C176.936 1.35461 183.284 7.69802 183.284 15.5229V20.7613Z"
            fill="#52A345" />
        <path
            d="M183.284 20.7613H188.527C196.358 20.7613 202.706 14.4179 202.706 6.59302V1.35461H197.464C189.633 1.35461 183.284 7.69802 183.284 15.5229V20.7613Z"
            fill="#52A345" />
        <path
            d="M207.473 29.2831H184.64V22.1158H188.527C197.093 22.1158 204.062 15.1523 204.062 6.59296V1.35456C204.062 0.606423 203.455 0 202.707 0H197.464C191.157 0 185.716 3.77547 183.285 9.18347C180.854 3.77547 175.412 0 169.105 0H163.863C163.114 0 162.507 0.606423 162.507 1.35456V6.59282C162.507 15.1522 169.476 22.1157 178.042 22.1157H181.929V29.283H159.097C158.348 29.283 157.741 29.8894 157.741 30.6375V39.8182C157.741 40.5663 158.348 41.1728 159.097 41.1728H163.072L166.176 62.4527C166.637 65.6151 169.597 67.9999 173.062 67.9999H193.507C196.972 67.9999 199.932 65.6151 200.394 62.4527L203.497 41.1728H207.473C208.222 41.1728 208.828 40.5663 208.828 39.8182V30.6375C208.828 29.8896 208.221 29.2831 207.473 29.2831ZM197.464 2.70911H201.351V6.59282C201.351 13.6583 195.598 19.4065 188.527 19.4065H186.558L193.835 12.1344C194.365 11.6054 194.365 10.7477 193.835 10.2186C193.306 9.68975 192.448 9.68975 191.918 10.2186L184.64 17.4908V15.5228C184.64 8.45738 190.393 2.70911 197.464 2.70911ZM165.218 6.59296V2.70911H169.105C176.176 2.70911 181.929 8.45725 181.929 15.5228V17.4908L170.943 6.51393C170.414 5.98494 169.555 5.98494 169.026 6.51393C168.497 7.04293 168.497 7.90063 169.026 8.42976L180.012 19.4066H178.042C170.971 19.4067 165.218 13.6586 165.218 6.59296ZM197.711 62.0623C197.442 63.903 195.635 65.291 193.507 65.291H173.062C170.934 65.291 169.127 63.903 168.859 62.0623L165.812 41.173H200.757L197.711 62.0623ZM160.452 38.4638V31.9922H206.117V38.4638H160.452Z"
            fill="#5E282D" />
        <path
            d="M138.155 27.488C137.643 27.52 137.274 27.584 137.05 27.68C136.826 27.776 136.666 27.96 136.57 28.232C136.49 28.504 136.45 28.944 136.45 29.552V41.456C136.45 42.064 136.49 42.504 136.57 42.776C136.666 43.048 136.826 43.232 137.05 43.328C137.274 43.424 137.643 43.488 138.155 43.52V44C137.242 43.952 135.817 43.928 133.88 43.928C132.15 43.928 130.813 43.952 129.868 44V43.52C130.381 43.488 130.749 43.424 130.973 43.328C131.198 43.232 131.35 43.048 131.43 42.776C131.526 42.504 131.574 42.064 131.574 41.456V30.416L125.689 41.84C125.705 42.304 125.761 42.656 125.857 42.896C125.953 43.12 126.113 43.272 126.338 43.352C126.578 43.432 126.93 43.488 127.394 43.52V44C126.466 43.952 125.129 43.928 123.383 43.928C121.446 43.928 120.021 43.952 119.108 44V43.52C119.62 43.488 119.989 43.424 120.213 43.328C120.437 43.232 120.589 43.048 120.669 42.776C120.765 42.504 120.813 42.064 120.813 41.456V29.552C120.813 28.944 120.765 28.504 120.669 28.232C120.589 27.96 120.437 27.776 120.213 27.68C119.989 27.584 119.62 27.52 119.108 27.488V27.008C120.021 27.056 121.446 27.08 123.383 27.08C125.113 27.08 126.45 27.056 127.394 27.008V27.488C126.882 27.52 126.514 27.584 126.29 27.68C126.065 27.776 125.905 27.96 125.809 28.232C125.729 28.504 125.689 28.944 125.689 29.552V40.64L131.574 29.24C131.558 28.744 131.502 28.384 131.406 28.16C131.31 27.92 131.149 27.76 130.925 27.68C130.701 27.584 130.349 27.52 129.868 27.488V27.008C130.797 27.056 132.134 27.08 133.88 27.08C135.817 27.08 137.242 27.056 138.155 27.008V27.488ZM132.487 21.272C133.159 21.272 133.712 21.448 134.144 21.8C134.592 22.136 134.816 22.552 134.816 23.048C134.816 23.448 134.664 23.808 134.36 24.128C134.072 24.432 133.679 24.696 133.183 24.92C132.671 25.16 132.022 25.352 131.238 25.496C130.453 25.64 129.588 25.712 128.643 25.712C127.699 25.712 126.834 25.64 126.049 25.496C125.265 25.352 124.608 25.16 124.08 24.92C123.599 24.712 123.215 24.448 122.927 24.128C122.639 23.808 122.495 23.448 122.495 23.048C122.495 22.552 122.711 22.136 123.143 21.8C123.575 21.448 124.128 21.272 124.8 21.272C125.473 21.272 126.033 21.448 126.482 21.8C126.93 22.136 127.154 22.568 127.154 23.096C127.154 23.544 126.986 23.92 126.65 24.224C126.314 24.528 125.889 24.744 125.377 24.872C126.402 25.112 127.491 25.232 128.643 25.232C129.796 25.232 130.877 25.104 131.886 24.848C131.358 24.704 130.933 24.488 130.613 24.2C130.309 23.896 130.157 23.528 130.157 23.096C130.157 22.568 130.373 22.136 130.805 21.8C131.254 21.448 131.814 21.272 132.487 21.272Z"
            fill="#475009" />
        <path
            d="M99.1706 33.8719C102.005 33.8719 104.007 34.3199 105.175 35.2159C106.344 36.1119 106.929 37.2879 106.929 38.7439C106.929 40.3439 106.312 41.6159 105.079 42.5599C103.862 43.5039 102.077 43.9759 99.7231 43.9759C99.2747 43.9759 98.8984 43.9679 98.5942 43.9519L95.6879 43.9279C93.9425 43.9279 92.6134 43.9519 91.7007 43.9999V43.5199C92.2131 43.4879 92.5814 43.4239 92.8056 43.3279C93.0297 43.2319 93.1819 43.0479 93.2619 42.7759C93.358 42.5039 93.406 42.0639 93.406 41.4559V29.5519C93.406 28.9439 93.358 28.5039 93.2619 28.2319C93.1819 27.9599 93.0297 27.7759 92.8056 27.6799C92.5814 27.5839 92.2131 27.5199 91.7007 27.4879V27.0079C92.6134 27.0559 94.0385 27.0799 95.9761 27.0799C97.7055 27.0799 99.0425 27.0559 99.9873 27.0079V27.4879C99.4749 27.5199 99.0986 27.5839 98.8584 27.6799C98.6342 27.7759 98.4821 27.9599 98.402 28.2319C98.322 28.5039 98.2819 28.9439 98.2819 29.5519V33.8719H99.1706ZM116.32 27.4879C115.808 27.5199 115.432 27.5839 115.191 27.6799C114.967 27.7759 114.815 27.9599 114.735 28.2319C114.655 28.5039 114.615 28.9439 114.615 29.5519V41.4559C114.615 42.0639 114.655 42.5039 114.735 42.7759C114.831 43.0479 114.991 43.2319 115.215 43.3279C115.44 43.4239 115.808 43.4879 116.32 43.5199V43.9999C115.392 43.9519 114.055 43.9279 112.309 43.9279C110.372 43.9279 108.946 43.9519 108.034 43.9999V43.5199C108.546 43.4879 108.914 43.4239 109.139 43.3279C109.379 43.2319 109.539 43.0479 109.619 42.7759C109.699 42.5039 109.739 42.0639 109.739 41.4559V29.5519C109.739 28.9439 109.691 28.5039 109.595 28.2319C109.515 27.9599 109.363 27.7759 109.139 27.6799C108.914 27.5839 108.546 27.5199 108.034 27.4879V27.0079C108.946 27.0559 110.372 27.0799 112.309 27.0799C114.055 27.0799 115.392 27.0559 116.32 27.0079V27.4879ZM99.5069 43.5199C100.372 43.5199 100.98 43.1679 101.332 42.4639C101.701 41.7439 101.885 40.6319 101.885 39.1279C101.885 37.6239 101.677 36.4559 101.26 35.6239C100.844 34.7759 100.067 34.3519 98.9305 34.3519H98.2819V41.4559C98.2819 42.2719 98.362 42.8239 98.5221 43.1119C98.6823 43.3839 99.0105 43.5199 99.5069 43.5199Z"
            fill="#475009" />
        <path
            d="M88.912 27.4879C88.3996 27.5199 88.0233 27.5839 87.7831 27.6799C87.5589 27.7759 87.4068 27.9599 87.3268 28.2319C87.2467 28.5039 87.2067 28.9439 87.2067 29.5519V41.4559C87.2067 42.0639 87.2467 42.5039 87.3268 42.7759C87.4228 43.0479 87.583 43.2319 87.8071 43.3279C88.0313 43.4239 88.3996 43.4879 88.912 43.5199V43.9999C88.0473 43.9519 86.7023 43.9279 84.8768 43.9279C83.0353 43.9279 81.6182 43.9519 80.6254 43.9999V43.5199C81.1378 43.4879 81.5061 43.4239 81.7303 43.3279C81.9705 43.2319 82.1306 43.0479 82.2107 42.7759C82.2907 42.5039 82.3308 42.0639 82.3308 41.4559V35.6959H76.9265V41.4559C76.9265 42.0639 76.9665 42.5039 77.0466 42.7759C77.1426 43.0479 77.3028 43.2319 77.5269 43.3279C77.7511 43.4239 78.1194 43.4879 78.6318 43.5199V43.9999C77.7031 43.9519 76.366 43.9279 74.6206 43.9279C72.6831 43.9279 71.2579 43.9519 70.3452 43.9999V43.5199C70.8576 43.4879 71.2259 43.4239 71.4501 43.3279C71.6903 43.2319 71.8504 43.0479 71.9305 42.7759C72.0105 42.5039 72.0506 42.0639 72.0506 41.4559V29.5519C72.0506 28.9439 72.0025 28.5039 71.9065 28.2319C71.8264 27.9599 71.6743 27.7759 71.4501 27.6799C71.2259 27.5839 70.8576 27.5199 70.3452 27.4879V27.0079C71.2579 27.0559 72.6831 27.0799 74.6206 27.0799C76.35 27.0799 77.6871 27.0559 78.6318 27.0079V27.4879C78.1194 27.5199 77.7431 27.5839 77.5029 27.6799C77.2787 27.7759 77.1266 27.9599 77.0466 28.2319C76.9665 28.5039 76.9265 28.9439 76.9265 29.5519V35.2159H82.3308V29.5519C82.3308 28.9439 82.2827 28.5039 82.1866 28.2319C82.1066 27.9599 81.9545 27.7759 81.7303 27.6799C81.5061 27.5839 81.1378 27.5199 80.6254 27.4879V27.0079C81.6182 27.0559 83.0353 27.0799 84.8768 27.0799C86.7023 27.0799 88.0473 27.0559 88.912 27.0079V27.4879Z"
            fill="#475009" />
        <path
            d="M67.0212 39.9679C67.0212 41.5999 67.0772 42.9439 67.1893 43.9999C66.1004 43.9519 64.267 43.9279 61.6889 43.9279C57.9419 43.9279 55.1397 43.9519 53.2822 43.9999V43.5199C53.7946 43.4879 54.1629 43.4239 54.3871 43.3279C54.6273 43.2319 54.7874 43.0479 54.8675 42.7759C54.9475 42.5039 54.9876 42.0639 54.9876 41.4559V29.5519C54.9876 28.9439 54.9395 28.5039 54.8435 28.2319C54.7634 27.9599 54.6113 27.7759 54.3871 27.6799C54.1629 27.5839 53.7946 27.5199 53.2822 27.4879V27.0079C55.1397 27.0559 57.9419 27.0799 61.6889 27.0799C64.0428 27.0799 65.7161 27.0559 66.7089 27.0079C66.5968 28.5119 66.5408 29.8559 66.5408 31.0399C66.5408 31.7759 66.5648 32.3519 66.6128 32.7679H66.0604C65.7722 30.9119 65.2358 29.5839 64.4511 28.7839C63.6665 27.9679 62.7298 27.5599 61.6409 27.5599H61.3286C60.8963 27.5599 60.576 27.5999 60.3679 27.6799C60.1757 27.7439 60.0396 27.8799 59.9595 28.0879C59.8955 28.2799 59.8635 28.6079 59.8635 29.0719V35.2159H60.1037C60.9363 35.2159 61.6489 34.8879 62.2414 34.2319C62.8338 33.5759 63.2101 32.8479 63.3703 32.0479H63.9227C63.8747 32.7199 63.8506 33.4719 63.8506 34.3039V35.4559C63.8506 36.2719 63.8987 37.4079 63.9948 38.8639H63.4423C63.2982 37.9519 62.9219 37.1999 62.3134 36.6079C61.7209 35.9999 60.9844 35.6959 60.1037 35.6959H59.8635V41.9359C59.8635 42.3999 59.8955 42.7359 59.9595 42.9439C60.0396 43.1359 60.1757 43.2719 60.3679 43.3519C60.576 43.4159 60.8963 43.4479 61.3286 43.4479H62.1213C63.05 43.4479 63.9307 42.9999 64.7634 42.1039C65.596 41.1919 66.1885 39.7439 66.5408 37.7599H67.0932C67.0452 38.3359 67.0212 39.0719 67.0212 39.9679Z"
            fill="#475009" />
        <path
            d="M50.635 27.4879C50.0586 27.5199 49.6342 27.5839 49.362 27.6799C49.1058 27.7759 48.9297 27.9599 48.8336 28.2319C48.7375 28.5039 48.6895 28.9439 48.6895 29.5519V41.4559C48.6895 42.0639 48.7375 42.5039 48.8336 42.7759C48.9297 43.0479 49.1058 43.2319 49.362 43.3279C49.6342 43.4239 50.0586 43.4879 50.635 43.5199V43.9999C49.6743 43.9519 48.1851 43.9279 46.1675 43.9279C44.294 43.9279 42.8608 43.9519 41.868 43.9999V43.5199C42.4445 43.4879 42.8608 43.4239 43.117 43.3279C43.3893 43.2319 43.5734 43.0479 43.6695 42.7759C43.7656 42.5039 43.8136 42.0639 43.8136 41.4559V29.5519C43.8136 28.7199 43.7015 28.1679 43.4773 27.8959C43.2531 27.6239 42.8769 27.4879 42.3484 27.4879H42.2764C41.844 27.4879 41.5078 27.6319 41.2676 27.9199C41.0274 28.2079 40.8753 28.7519 40.8112 29.5519C40.7632 29.9999 40.7231 30.4319 40.6911 30.8479C40.6751 31.2639 40.6511 31.6559 40.619 32.0239C40.4429 34.5839 40.2267 36.6799 39.9705 38.3119C39.7303 39.9439 39.282 41.3599 38.6255 42.5599C37.9689 43.7439 37.0242 44.3359 35.7912 44.3359C34.9425 44.3359 34.238 44.0879 33.6775 43.5919C33.1331 43.0799 32.8609 42.4559 32.8609 41.7199C32.8609 40.9679 33.1171 40.3599 33.6295 39.8959C34.1419 39.4319 34.7824 39.1999 35.551 39.1999C36.2075 39.1999 36.7279 39.3599 37.1122 39.6799C37.4966 39.9839 37.6887 40.4159 37.6887 40.9759C37.6887 41.6799 37.4485 42.2799 36.9681 42.7759C36.5038 43.2559 35.9113 43.5599 35.1907 43.6879C35.3188 43.8159 35.519 43.8799 35.7912 43.8799C36.9281 43.8799 37.8008 43.1999 38.4093 41.8399C39.0178 40.4799 39.4341 38.8719 39.6583 37.0159C39.8825 35.1439 40.0826 32.6559 40.2588 29.5519C40.2748 29.4239 40.2828 29.2479 40.2828 29.0239C40.2828 28.6079 40.2267 28.2959 40.1146 28.0879C40.0026 27.8799 39.8104 27.7359 39.5382 27.6559C39.266 27.5759 38.8576 27.5199 38.3132 27.4879V27.0079C38.9857 27.0559 39.8104 27.0799 40.7872 27.0799C41.0274 27.0799 41.3877 27.0639 41.868 27.0319L42.9009 27.0079L44.5102 27.0319C45.2467 27.0639 45.8552 27.0799 46.3356 27.0799C48.2411 27.0799 49.6743 27.0559 50.635 27.0079V27.4879Z"
            fill="#475009" />
        <path
            d="M30.7138 39.9679C30.7138 41.5999 30.7698 42.9439 30.8819 43.9999C29.793 43.9519 27.9596 43.9279 25.3815 43.9279C21.6345 43.9279 18.8323 43.9519 16.9748 43.9999V43.5199C17.4872 43.4879 17.8555 43.4239 18.0797 43.3279C18.3199 43.2319 18.48 43.0479 18.5601 42.7759C18.6401 42.5039 18.6802 42.0639 18.6802 41.4559V29.5519C18.6802 28.9439 18.6321 28.5039 18.536 28.2319C18.456 27.9599 18.3039 27.7759 18.0797 27.6799C17.8555 27.5839 17.4872 27.5199 16.9748 27.4879V27.0079C18.8323 27.0559 21.6345 27.0799 25.3815 27.0799C27.7354 27.0799 29.4087 27.0559 30.4015 27.0079C30.2894 28.5119 30.2334 29.8559 30.2334 31.0399C30.2334 31.7759 30.2574 32.3519 30.3054 32.7679H29.753C29.4648 30.9119 28.9283 29.5839 28.1437 28.7839C27.3591 27.9679 26.4223 27.5599 25.3335 27.5599H25.0212C24.5889 27.5599 24.2686 27.5999 24.0604 27.6799C23.8683 27.7439 23.7322 27.8799 23.6521 28.0879C23.5881 28.2799 23.556 28.6079 23.556 29.0719V35.2159H23.7962C24.6289 35.2159 25.3415 34.8879 25.9339 34.2319C26.5264 33.5759 26.9027 32.8479 27.0628 32.0479H27.6153C27.5672 32.7199 27.5432 33.4719 27.5432 34.3039V35.4559C27.5432 36.2719 27.5913 37.4079 27.6873 38.8639H27.1349C26.9908 37.9519 26.6145 37.1999 26.006 36.6079C25.4135 35.9999 24.6769 35.6959 23.7962 35.6959H23.556V41.9359C23.556 42.3999 23.5881 42.7359 23.6521 42.9439C23.7322 43.1359 23.8683 43.2719 24.0604 43.3519C24.2686 43.4159 24.5889 43.4479 25.0212 43.4479H25.8138C26.7426 43.4479 27.6233 42.9999 28.456 42.1039C29.2886 41.1919 29.8811 39.7439 30.2334 37.7599H30.7858C30.7378 38.3359 30.7138 39.0719 30.7138 39.9679Z"
            fill="#475009" />
        <path
            d="M7.56604 26.672C9.32745 26.672 10.7526 27 11.8415 27.656C12.9463 28.296 13.4988 29.176 13.4988 30.296C13.4988 31.496 12.8823 32.504 11.6493 33.32C10.4163 34.12 9.00719 34.68 7.42192 35C8.57484 35.016 9.68773 35.192 10.7606 35.528C11.8334 35.864 12.7061 36.36 13.3787 37.016C14.0672 37.672 14.4115 38.48 14.4115 39.44C14.4115 40.448 14.0192 41.328 13.2346 42.08C12.4659 42.816 11.4571 43.376 10.2081 43.76C8.97516 44.144 7.67012 44.336 6.29302 44.336C4.22737 44.336 2.61008 43.896 1.44115 43.016C1.04083 42.712 0.696556 42.344 0.408326 41.912C0.136109 41.48 0 41.008 0 40.496C0 39.744 0.248198 39.152 0.744594 38.72C1.24099 38.288 1.84147 38.072 2.54603 38.072C3.26661 38.072 3.82705 38.272 4.22737 38.672C4.62769 39.056 4.82785 39.632 4.82785 40.4C4.82785 40.992 4.61168 41.52 4.17934 41.984C3.763 42.432 3.18654 42.752 2.44996 42.944C3.28262 43.472 4.33146 43.736 5.59647 43.736C6.90951 43.736 7.95034 43.376 8.71896 42.656C9.48757 41.936 9.87188 40.84 9.87188 39.368C9.87188 38.248 9.63969 37.288 9.17532 36.488C8.71095 35.688 7.99838 35.264 7.03762 35.216C6.65331 35.424 6.31704 35.528 6.02881 35.528C5.86868 35.528 5.74058 35.496 5.64451 35.432C5.54843 35.368 5.50039 35.264 5.50039 35.12C5.50039 34.864 5.69254 34.736 6.07685 34.736C6.28502 34.736 6.61328 34.784 7.06164 34.88C7.75019 34.56 8.23057 34.032 8.50279 33.296C8.79102 32.544 8.93513 31.736 8.93513 30.872C8.93513 29.672 8.70295 28.816 8.23857 28.304C7.7742 27.776 7.11768 27.512 6.269 27.512C4.8919 27.512 3.83506 28.016 3.09847 29.024C2.3779 30.032 1.96957 31.36 1.87349 33.008H1.32105C1.32105 30.144 1.28903 28.144 1.22498 27.008H1.77742C1.82546 27.52 1.89751 27.888 1.99359 28.112C2.08967 28.336 2.22578 28.448 2.40192 28.448C2.51401 28.448 2.66613 28.376 2.85828 28.232C3.61088 27.688 4.29943 27.296 4.92393 27.056C5.56444 26.8 6.44514 26.672 7.56604 26.672Z"
            fill="#475009" />
        <path
            d="M377.353 37.1361V41.2161C377.353 41.8881 377.417 42.3761 377.545 42.6801C377.689 42.9841 377.938 43.1921 378.29 43.3041C378.658 43.4001 379.235 43.4481 380.019 43.4481V44.0001C377.858 43.9521 376.208 43.9281 375.071 43.9281C374.319 43.9281 373.27 43.9441 371.925 43.9761L370.772 44.0001V43.5201C371.284 43.4881 371.653 43.4241 371.877 43.3281C372.117 43.2321 372.277 43.0481 372.357 42.7761C372.437 42.5041 372.477 42.0641 372.477 41.4561V29.5521C372.477 28.9441 372.429 28.5041 372.333 28.2321C372.253 27.9601 372.101 27.7761 371.877 27.6801C371.653 27.5841 371.284 27.5201 370.772 27.4881V27.0081C371.685 27.0561 373.062 27.0801 374.903 27.0801L377.665 27.0561C377.986 27.0401 378.354 27.0321 378.77 27.0321C381.14 27.0321 382.934 27.4641 384.151 28.3281C385.384 29.1761 386 30.3201 386 31.7601C386 32.6401 385.76 33.4881 385.279 34.3041C384.799 35.1041 383.982 35.7761 382.829 36.3201C381.677 36.8641 380.147 37.1361 378.242 37.1361H377.353ZM378.65 27.4881C378.282 27.4881 378.002 27.5441 377.809 27.6561C377.633 27.7681 377.513 27.9681 377.449 28.2561C377.385 28.5441 377.353 28.9761 377.353 29.5521V36.6561H378.002C379.123 36.6561 379.891 36.2401 380.307 35.4081C380.74 34.5761 380.956 33.4481 380.956 32.0241C380.956 30.4721 380.78 29.3281 380.428 28.5921C380.075 27.8561 379.483 27.4881 378.65 27.4881Z"
            fill="#475009" />
        <path
            d="M367.994 27.4881C367.482 27.5201 367.114 27.5841 366.89 27.6801C366.665 27.7761 366.505 27.9601 366.409 28.2321C366.329 28.5041 366.289 28.9441 366.289 29.5521V41.4561C366.289 42.0641 366.329 42.5041 366.409 42.7761C366.505 43.0481 366.665 43.2321 366.89 43.3281C367.114 43.4241 367.482 43.4881 367.994 43.5201V44.0001C367.082 43.9521 365.657 43.9281 363.719 43.9281C361.99 43.9281 360.653 43.9521 359.708 44.0001V43.5201C360.22 43.4881 360.589 43.4241 360.813 43.3281C361.037 43.2321 361.189 43.0481 361.269 42.7761C361.365 42.5041 361.413 42.0641 361.413 41.4561V30.4161L355.528 41.8401C355.545 42.3041 355.601 42.6561 355.697 42.8961C355.793 43.1201 355.953 43.2721 356.177 43.3521C356.417 43.4321 356.769 43.4881 357.234 43.5201V44.0001C356.305 43.9521 354.968 43.9281 353.223 43.9281C351.285 43.9281 349.86 43.9521 348.947 44.0001V43.5201C349.46 43.4881 349.828 43.4241 350.052 43.3281C350.276 43.2321 350.428 43.0481 350.508 42.7761C350.605 42.5041 350.653 42.0641 350.653 41.4561V29.5521C350.653 28.9441 350.605 28.5041 350.508 28.2321C350.428 27.9601 350.276 27.7761 350.052 27.6801C349.828 27.5841 349.46 27.5201 348.947 27.4881V27.0081C349.86 27.0561 351.285 27.0801 353.223 27.0801C354.952 27.0801 356.289 27.0561 357.234 27.0081V27.4881C356.721 27.5201 356.353 27.5841 356.129 27.6801C355.905 27.7761 355.745 27.9601 355.649 28.2321C355.569 28.5041 355.528 28.9441 355.528 29.5521V40.6401L361.413 29.2401C361.397 28.7441 361.341 28.3841 361.245 28.1601C361.149 27.9201 360.989 27.7601 360.765 27.6801C360.54 27.5841 360.188 27.5201 359.708 27.4881V27.0081C360.637 27.0561 361.974 27.0801 363.719 27.0801C365.657 27.0801 367.082 27.0561 367.994 27.0081V27.4881Z"
            fill="#475009" />
        <path
            d="M347.228 43.0401C346.747 43.5201 346.219 43.8561 345.642 44.0481C345.066 44.2401 344.393 44.3361 343.625 44.3361C342.504 44.3361 341.639 44.1441 341.031 43.7601C340.438 43.3601 340.07 42.6881 339.926 41.7441L339.301 37.6161C339.157 36.7681 338.885 36.1841 338.485 35.8641C338.1 35.5281 337.46 35.3361 336.563 35.2881V41.4561C336.563 42.0641 336.603 42.5041 336.683 42.7761C336.763 43.0481 336.915 43.2321 337.14 43.3281C337.38 43.4241 337.756 43.4881 338.268 43.5201V44.0001C337.356 43.9521 335.931 43.9281 333.993 43.9281C332.264 43.9281 330.927 43.9521 329.982 44.0001V43.5201C330.494 43.4881 330.863 43.4241 331.087 43.3281C331.311 43.2321 331.463 43.0481 331.543 42.7761C331.639 42.5041 331.687 42.0641 331.687 41.4561V35.2881C330.79 35.3361 330.142 35.5281 329.742 35.8641C329.357 36.1841 329.093 36.7681 328.949 37.6161L328.325 41.7441C328.18 42.6881 327.804 43.3601 327.196 43.7601C326.603 44.1441 325.746 44.3361 324.626 44.3361C323.857 44.3361 323.184 44.2401 322.608 44.0481C322.031 43.8561 321.503 43.5201 321.023 43.0401L321.335 42.7281C321.543 42.9361 321.783 43.0401 322.056 43.0401C322.344 43.0401 322.568 42.9281 322.728 42.7041C322.904 42.4801 323.048 42.0721 323.16 41.4801L323.857 38.1441C324.081 37.0881 324.642 36.3201 325.538 35.8401C326.451 35.3601 327.78 35.0641 329.525 34.9521L325.274 30.1041C324.041 28.7121 322.728 27.8321 321.335 27.4641V27.0081C321.991 27.0561 322.8 27.0801 323.761 27.0801C325.122 27.0801 326.475 27.0561 327.82 27.0081V27.4641C327.244 27.4961 326.771 27.6561 326.403 27.9441C326.035 28.2161 325.851 28.5841 325.851 29.0481C325.851 29.6881 326.203 30.4081 326.907 31.2081L327.724 32.1201C328.621 33.1281 329.341 33.8321 329.886 34.2321C330.446 34.6321 331.047 34.8561 331.687 34.9041V29.5521C331.687 28.9441 331.647 28.5041 331.567 28.2321C331.487 27.9601 331.327 27.7761 331.087 27.6801C330.863 27.5841 330.494 27.5201 329.982 27.4881V27.0081C330.911 27.0561 332.248 27.0801 333.993 27.0801C335.931 27.0801 337.356 27.0561 338.268 27.0081V27.4881C337.756 27.5201 337.388 27.5841 337.164 27.6801C336.939 27.7761 336.779 27.9601 336.683 28.2321C336.603 28.5041 336.563 28.9441 336.563 29.5521V34.9041C337.204 34.8561 337.796 34.6321 338.34 34.2321C338.901 33.8321 339.63 33.1281 340.526 32.1201L341.343 31.2081C342.047 30.4081 342.4 29.6881 342.4 29.0481C342.4 28.5841 342.216 28.2161 341.847 27.9441C341.479 27.6561 341.007 27.4961 340.43 27.4641V27.0081C341.775 27.0561 343.128 27.0801 344.489 27.0801C345.45 27.0801 346.259 27.0561 346.915 27.0081V27.4641C345.522 27.8321 344.209 28.7121 342.976 30.1041L338.725 34.9521C340.47 35.0641 341.791 35.3601 342.688 35.8401C343.601 36.3201 344.169 37.0881 344.393 38.1441L345.09 41.4801C345.202 42.0721 345.338 42.4801 345.498 42.7041C345.674 42.9281 345.907 43.0401 346.195 43.0401C346.467 43.0401 346.707 42.9361 346.915 42.7281L347.228 43.0401Z"
            fill="#475009" />
        <path
            d="M318.708 41.9841C318.916 42.4961 319.14 42.8801 319.38 43.1361C319.636 43.3761 319.885 43.5041 320.125 43.5201V44.0001C318.972 43.9521 317.515 43.9281 315.753 43.9281C313.928 43.9281 312.583 43.9521 311.718 44.0001V43.5201C312.327 43.4881 312.759 43.4161 313.015 43.3041C313.271 43.1761 313.399 42.9601 313.399 42.6561C313.399 42.3681 313.303 41.9841 313.111 41.5041L311.694 37.5681H306.842L306.434 38.6481C305.905 40.0081 305.641 41.0481 305.641 41.7681C305.641 42.4241 305.825 42.8721 306.194 43.1121C306.562 43.3521 307.106 43.4881 307.827 43.5201V44.0001C306.626 43.9521 305.577 43.9281 304.68 43.9281C303.928 43.9281 303.311 43.9521 302.831 44.0001V43.5201C303.231 43.4561 303.608 43.2081 303.96 42.7761C304.312 42.3441 304.672 41.6561 305.041 40.7121L310.373 27.0081C310.885 27.0401 311.31 27.0561 311.646 27.0561C311.966 27.0561 312.383 27.0401 312.895 27.0081L318.708 41.9841ZM311.526 37.0881L309.34 31.0881L307.034 37.0881H311.526Z"
            fill="#475009" />
        <path
            d="M294.621 26.672C295.582 26.672 296.399 26.808 297.071 27.08C297.744 27.352 298.4 27.736 299.041 28.232C299.201 28.376 299.353 28.448 299.497 28.448C299.817 28.448 300.026 27.968 300.122 27.008H300.674C300.61 28.144 300.578 30.144 300.578 33.008H300.026C299.914 31.728 299.705 30.72 299.401 29.984C299.097 29.248 298.568 28.632 297.816 28.136C297.063 27.656 296.319 27.416 295.582 27.416C293.917 27.416 292.748 28.216 292.075 29.816C291.403 31.416 291.066 33.328 291.066 35.552C291.066 37.776 291.403 39.688 292.075 41.288C292.748 42.888 293.917 43.688 295.582 43.688C296.319 43.688 297.063 43.448 297.816 42.968C298.568 42.504 299.097 41.88 299.401 41.096C299.705 40.312 299.914 39.2 300.026 37.76H300.578C300.578 40.752 300.61 42.832 300.674 44H300.122C300.074 43.488 300.002 43.128 299.906 42.92C299.825 42.696 299.705 42.584 299.545 42.584C299.417 42.584 299.249 42.648 299.041 42.776C298.32 43.288 297.632 43.68 296.975 43.952C296.319 44.208 295.526 44.336 294.597 44.336C292.788 44.336 291.203 43.992 289.841 43.304C288.48 42.616 287.424 41.624 286.671 40.328C285.918 39.016 285.542 37.456 285.542 35.648C285.542 33.888 285.926 32.328 286.695 30.968C287.464 29.608 288.536 28.552 289.914 27.8C291.291 27.048 292.86 26.672 294.621 26.672Z"
            fill="#475009" />
        <path
            d="M275.963 26.672C276.924 26.672 277.741 26.808 278.413 27.08C279.086 27.352 279.742 27.736 280.383 28.232C280.543 28.376 280.695 28.448 280.839 28.448C281.159 28.448 281.368 27.968 281.464 27.008H282.016C281.952 28.144 281.92 30.144 281.92 33.008H281.368C281.256 31.728 281.047 30.72 280.743 29.984C280.439 29.248 279.91 28.632 279.158 28.136C278.405 27.656 277.661 27.416 276.924 27.416C275.259 27.416 274.09 28.216 273.417 29.816C272.745 31.416 272.408 33.328 272.408 35.552C272.408 37.776 272.745 39.688 273.417 41.288C274.09 42.888 275.259 43.688 276.924 43.688C277.661 43.688 278.405 43.448 279.158 42.968C279.91 42.504 280.439 41.88 280.743 41.096C281.047 40.312 281.256 39.2 281.368 37.76H281.92C281.92 40.752 281.952 42.832 282.016 44H281.464C281.416 43.488 281.344 43.128 281.247 42.92C281.167 42.696 281.047 42.584 280.887 42.584C280.759 42.584 280.591 42.648 280.383 42.776C279.662 43.288 278.974 43.68 278.317 43.952C277.661 44.208 276.868 44.336 275.939 44.336C274.13 44.336 272.545 43.992 271.183 43.304C269.822 42.616 268.766 41.624 268.013 40.328C267.26 39.016 266.884 37.456 266.884 35.648C266.884 33.888 267.268 32.328 268.037 30.968C268.806 29.608 269.878 28.552 271.256 27.8C272.633 27.048 274.202 26.672 275.963 26.672Z"
            fill="#475009" />
        <path
            d="M264.047 41.9841C264.255 42.4961 264.48 42.8801 264.72 43.1361C264.976 43.3761 265.224 43.5041 265.464 43.5201V44.0001C264.311 43.9521 262.854 43.9281 261.093 43.9281C259.267 43.9281 257.922 43.9521 257.058 44.0001V43.5201C257.666 43.4881 258.098 43.4161 258.355 43.3041C258.611 43.1761 258.739 42.9601 258.739 42.6561C258.739 42.3681 258.643 41.9841 258.451 41.5041L257.034 37.5681H252.182L251.773 38.6481C251.245 40.0081 250.981 41.0481 250.981 41.7681C250.981 42.4241 251.165 42.8721 251.533 43.1121C251.901 43.3521 252.446 43.4881 253.166 43.5201V44.0001C251.966 43.9521 250.917 43.9281 250.02 43.9281C249.267 43.9281 248.651 43.9521 248.17 44.0001V43.5201C248.571 43.4561 248.947 43.2081 249.299 42.7761C249.652 42.3441 250.012 41.6561 250.38 40.7121L255.713 27.0081C256.225 27.0401 256.649 27.0561 256.986 27.0561C257.306 27.0561 257.722 27.0401 258.235 27.0081L264.047 41.9841ZM256.865 37.0881L254.68 31.0881L252.374 37.0881H256.865Z"
            fill="#475009" />
        <path
            d="M246.559 27.4881C246.046 27.5201 245.678 27.5841 245.454 27.6801C245.23 27.7761 245.07 27.9601 244.973 28.2321C244.893 28.5041 244.853 28.9441 244.853 29.5521V41.4561C244.853 42.0641 244.893 42.5041 244.973 42.7761C245.07 43.0481 245.23 43.2321 245.454 43.3281C245.678 43.4241 246.046 43.4881 246.559 43.5201V44.0001C245.646 43.9521 244.221 43.9281 242.283 43.9281C240.554 43.9281 239.217 43.9521 238.272 44.0001V43.5201C238.785 43.4881 239.153 43.4241 239.377 43.3281C239.601 43.2321 239.753 43.0481 239.833 42.7761C239.929 42.5041 239.978 42.0641 239.978 41.4561V29.5521C239.978 28.9441 239.929 28.5041 239.833 28.2321C239.737 27.9441 239.553 27.7521 239.281 27.6561C239.009 27.5441 238.592 27.4881 238.032 27.4881H236.519C235.958 27.4881 235.542 27.5441 235.27 27.6561C234.998 27.7521 234.813 27.9441 234.717 28.2321C234.621 28.5041 234.573 28.9441 234.573 29.5521V41.4561C234.573 42.0641 234.613 42.5041 234.693 42.7761C234.789 43.0481 234.949 43.2321 235.174 43.3281C235.398 43.4241 235.766 43.4881 236.279 43.5201V44.0001C235.35 43.9521 234.013 43.9281 232.267 43.9281C230.33 43.9281 228.905 43.9521 227.992 44.0001V43.5201C228.504 43.4881 228.873 43.4241 229.097 43.3281C229.321 43.2321 229.473 43.0481 229.553 42.7761C229.649 42.5041 229.697 42.0641 229.697 41.4561V29.5521C229.697 28.9441 229.649 28.5041 229.553 28.2321C229.473 27.9601 229.321 27.7761 229.097 27.6801C228.873 27.5841 228.504 27.5201 227.992 27.4881V27.0081C228.905 27.0561 230.33 27.0801 232.267 27.0801C233.068 27.0801 234.109 27.0641 235.39 27.0321L237.311 27.0081L239.185 27.0321C240.466 27.0641 241.499 27.0801 242.283 27.0801C244.221 27.0801 245.646 27.0561 246.559 27.0081V27.4881Z"
            fill="#475009" />
    </symbol>
    <symbol id="icon-basket" viewBox="0 0 24 24" fill="none" xmlns="http://www.w3.org/2000/svg">
        <path d="M8 12L8 8C8 5.79086 9.79086 4 12 4V4C14.2091 4 16 5.79086 16 8L16 12" stroke="currentColor"
            stroke-width="2" stroke-linecap="round" />
        <path
            d="M3.69435 12.6678C3.83942 10.9269 3.91196 10.0565 4.48605 9.52824C5.06013 9 5.9336 9 7.68053 9H16.3195C18.0664 9 18.9399 9 19.514 9.52824C20.088 10.0565 20.1606 10.9269 20.3057 12.6678L20.8195 18.8339C20.904 19.8474 20.9462 20.3542 20.6491 20.6771C20.352 21 19.8435 21 18.8264 21H5.1736C4.15655 21 3.64802 21 3.35092 20.6771C3.05382 20.3542 3.09605 19.8474 3.18051 18.8339L3.69435 12.6678Z"
            stroke="currentColor" stroke-width="2" />
    </symbol>
    <symbol id="icon-favorite" viewBox="0 0 24 24" fill="none" xmlns="http://www.w3.org/2000/svg">
        <path
            d="M10.1437 6.62753C10.9303 4.66653 11.3236 3.68604 12 3.68604C12.6763 3.68604 13.0696 4.66653 13.8562 6.62753L13.8928 6.71885C14.3372 7.82672 14.5594 8.38065 15.0123 8.71734C15.4651 9.05403 16.0596 9.10727 17.2485 9.21374L17.4634 9.23299C19.4092 9.40726 20.3822 9.49439 20.5903 10.1134C20.7985 10.7324 20.076 11.3897 18.6309 12.7044L18.1487 13.1432C17.4172 13.8087 17.0514 14.1414 16.8809 14.5776C16.8491 14.6589 16.8227 14.7423 16.8018 14.8271C16.6897 15.2817 16.7968 15.7645 17.0111 16.7299L17.0777 17.0305C17.4714 18.8048 17.6682 19.692 17.3246 20.0746C17.1961 20.2176 17.0292 20.3206 16.8438 20.3712C16.3476 20.5066 15.6431 19.9325 14.2342 18.7844C13.309 18.0305 12.8464 17.6536 12.3153 17.5688C12.1064 17.5354 11.8935 17.5354 11.6846 17.5688C11.1535 17.6536 10.6909 18.0305 9.76577 18.7844C8.35681 19.9325 7.65234 20.5066 7.15614 20.3712C6.97072 20.3206 6.80381 20.2176 6.67538 20.0746C6.33171 19.692 6.52854 18.8048 6.92222 17.0305L6.98889 16.7299C7.2031 15.7645 7.31021 15.2817 7.19815 14.8271C7.17725 14.7423 7.15081 14.6589 7.11901 14.5776C6.94854 14.1414 6.58279 13.8087 5.85128 13.1432L5.369 12.7044C3.92395 11.3897 3.20143 10.7324 3.40961 10.1134C3.61779 9.49439 4.5907 9.40726 6.53651 9.23299L6.75145 9.21374C7.94036 9.10727 8.53482 9.05403 8.98767 8.71734C9.44052 8.38065 9.66272 7.82672 10.1071 6.71885L10.1437 6.62753Z"
            stroke="currentColor" stroke-width="2" />
    </symbol>
    <symbol id="icon-leaf" viewBox="0 0 14 14" fill="none" xmlns="http://www.w3.org/2000/svg">
        <path
            d="M9.41361 12.2005V9.72781C9.41361 6.03423 6.98495 4.29824 3.63863 3.03997C1.90402 2.38774 0.59253 0.609619 0.59253 0.609619L0.586426 5.51265C0.586426 9.20623 3.47173 12.2005 7.03091 12.2005H9.41361Z"
            fill="#52A345" />
        <path
            d="M13.282 12.66C11.6868 13.0374 10.5878 12.4347 10.0018 11.9501V9.72787C10.0018 7.82012 9.41076 6.28584 8.19494 5.03744C7.2172 4.03335 5.8332 3.21658 3.8396 2.46693C2.29326 1.88546 1.0715 0.254959 1.05975 0.239121C0.906843 0.0318494 0.643706 -0.0515853 0.405332 0.0322077C0.166959 0.115821 0.0064503 0.347657 0.00610475 0.608778L0 5.51264C0 9.53644 3.15449 12.81 7.03181 12.81H9.16294C9.76587 13.3398 10.8132 14.0001 12.2895 14C12.6777 14 13.0958 13.9543 13.5431 13.8485C13.8593 13.7737 14.0573 13.447 13.9852 13.1188C13.9132 12.7906 13.5986 12.585 13.282 12.66ZM1.17465 5.51342L1.17885 2.13421C1.75863 2.67629 2.5424 3.27563 3.43951 3.61296C7.26621 5.0519 8.82718 6.82351 8.82718 9.72787V10.7291L5.96855 7.7625C5.73916 7.52451 5.3674 7.52451 5.1379 7.7625C4.90857 8.00049 4.90857 8.38641 5.1379 8.62452L7.99653 11.5911H7.03175C3.80217 11.591 1.17465 8.86424 1.17465 5.51342Z"
            fill="#5E282D" />
    </symbol>
    <symbol id="icon-footer-logo" viewBox="0 0 203 60" fill="none" xmlns="http://www.w3.org/2000/svg">
        <path d="M51.3263 27.0336H8.6748V35.1342H51.3263V27.0336Z" fill="#C5824B" />
        <path
            d="M46.7866 35.1339H13.2133L16.0985 54.9332C16.4215 57.1487 18.5126 58.8049 20.9873 58.8049H39.0127C41.4871 58.8049 43.5785 57.1487 43.9013 54.9332L46.7866 35.1339Z"
            fill="#C5824B" />
        <path
            d="M29.9999 18.3188H25.3778C18.4735 18.3188 12.8763 12.7217 12.8763 5.81731V1.19519H17.4985C24.4028 1.19519 29.9999 6.79231 29.9999 13.6967V18.3188Z"
            fill="#52A345" />
        <path
            d="M29.9999 18.3188H34.6221C41.5264 18.3188 47.1235 12.7217 47.1235 5.81731V1.19519H42.5014C35.5971 1.19519 29.9999 6.79231 29.9999 13.6967V18.3188Z"
            fill="#52A345" />
        <path
            d="M51.3257 25.838H31.1955V19.514H34.6223C42.1747 19.514 48.319 13.3697 48.319 5.81732V1.1952C48.319 0.535079 47.7839 0 47.1238 0H42.5018C36.9409 0 32.1438 3.3313 30.0003 8.10306C27.857 3.3313 23.0598 0 17.4989 0H12.8769C12.2168 0 11.6817 0.535079 11.6817 1.1952V5.8172C11.6817 13.3696 17.8259 19.5139 25.3783 19.5139H28.8052V25.8379H8.675C8.01488 25.8379 7.4798 26.373 7.4798 27.0331V35.1337C7.4798 35.7938 8.01488 36.3289 8.675 36.3289H12.1801L14.9163 55.1053C15.3229 57.8957 17.9331 59.9999 20.9877 59.9999H39.0131C42.0678 59.9999 44.6779 57.8957 45.0845 55.1053L47.8207 36.3289H51.3258C51.9859 36.3289 52.521 35.7938 52.521 35.1337V27.0331C52.5209 26.3732 51.9858 25.838 51.3257 25.838ZM42.5018 2.3904H45.9286V5.8172C45.9286 12.0515 40.8567 17.1234 34.6225 17.1234H32.886L39.3025 10.7069C39.7692 10.2401 39.7692 9.4833 39.3025 9.01642C38.8357 8.54978 38.0789 8.54978 37.612 9.01642L31.1957 15.433V13.6966C31.1955 7.4624 36.2674 2.3904 42.5018 2.3904ZM14.072 5.81732V2.3904H17.4988C23.7331 2.3904 28.805 7.46228 28.805 13.6966V15.433L19.1196 5.74759C18.6528 5.28083 17.896 5.28083 17.4292 5.74759C16.9624 6.21435 16.9624 6.97115 17.4292 7.43802L27.1146 17.1235H25.3781C19.144 17.1236 14.072 12.0517 14.072 5.81732ZM42.719 54.7609C42.4824 56.385 40.8891 57.6097 39.013 57.6097H20.9877C19.1116 57.6097 17.5184 56.385 17.2817 54.7609L14.5957 36.3291H45.4049L42.719 54.7609ZM9.87019 33.9386V28.2284H50.1306V33.9386H9.87019Z"
            fill="#5E282D" />
        <path
            d="M185.422 14.24C184.996 14.2667 184.689 14.32 184.502 14.4C184.316 14.48 184.182 14.6333 184.102 14.86C184.036 15.0867 184.002 15.4533 184.002 15.96V25.88C184.002 26.3867 184.036 26.7533 184.102 26.98C184.182 27.2067 184.316 27.36 184.502 27.44C184.689 27.52 184.996 27.5733 185.422 27.6V28C184.662 27.96 183.476 27.94 181.862 27.94C180.422 27.94 179.309 27.96 178.522 28V27.6C178.949 27.5733 179.256 27.52 179.442 27.44C179.629 27.36 179.756 27.2067 179.822 26.98C179.902 26.7533 179.942 26.3867 179.942 25.88V16.68L175.042 26.2C175.056 26.5867 175.102 26.88 175.182 27.08C175.262 27.2667 175.396 27.3933 175.582 27.46C175.782 27.5267 176.076 27.5733 176.462 27.6V28C175.689 27.96 174.576 27.94 173.122 27.94C171.509 27.94 170.322 27.96 169.562 28V27.6C169.989 27.5733 170.296 27.52 170.482 27.44C170.669 27.36 170.796 27.2067 170.862 26.98C170.942 26.7533 170.982 26.3867 170.982 25.88V15.96C170.982 15.4533 170.942 15.0867 170.862 14.86C170.796 14.6333 170.669 14.48 170.482 14.4C170.296 14.32 169.989 14.2667 169.562 14.24V13.84C170.322 13.88 171.509 13.9 173.122 13.9C174.562 13.9 175.676 13.88 176.462 13.84V14.24C176.036 14.2667 175.729 14.32 175.542 14.4C175.356 14.48 175.222 14.6333 175.142 14.86C175.076 15.0867 175.042 15.4533 175.042 15.96V25.2L179.942 15.7C179.929 15.2867 179.882 14.9867 179.802 14.8C179.722 14.6 179.589 14.4667 179.402 14.4C179.216 14.32 178.922 14.2667 178.522 14.24V13.84C179.296 13.88 180.409 13.9 181.862 13.9C183.476 13.9 184.662 13.88 185.422 13.84V14.24ZM180.702 9.06C181.262 9.06 181.722 9.20666 182.082 9.5C182.456 9.78 182.642 10.1267 182.642 10.54C182.642 10.8733 182.516 11.1733 182.262 11.44C182.022 11.6933 181.696 11.9133 181.282 12.1C180.856 12.3 180.316 12.46 179.662 12.58C179.009 12.7 178.289 12.76 177.502 12.76C176.716 12.76 175.996 12.7 175.342 12.58C174.689 12.46 174.142 12.3 173.702 12.1C173.302 11.9267 172.982 11.7067 172.742 11.44C172.502 11.1733 172.382 10.8733 172.382 10.54C172.382 10.1267 172.562 9.78 172.922 9.5C173.282 9.20666 173.742 9.06 174.302 9.06C174.862 9.06 175.329 9.20666 175.702 9.5C176.076 9.78 176.262 10.14 176.262 10.58C176.262 10.9533 176.122 11.2667 175.842 11.52C175.562 11.7733 175.209 11.9533 174.782 12.06C175.636 12.26 176.542 12.36 177.502 12.36C178.462 12.36 179.362 12.2533 180.202 12.04C179.762 11.92 179.409 11.74 179.142 11.5C178.889 11.2467 178.762 10.94 178.762 10.58C178.762 10.14 178.942 9.78 179.302 9.5C179.676 9.20666 180.142 9.06 180.702 9.06Z"
            fill="#475009" />
        <path
            d="M152.961 19.56C155.321 19.56 156.988 19.9334 157.961 20.68C158.935 21.4267 159.421 22.4067 159.421 23.62C159.421 24.9534 158.908 26.0134 157.881 26.8C156.868 27.5867 155.381 27.98 153.421 27.98C153.048 27.98 152.735 27.9734 152.481 27.96L150.061 27.94C148.608 27.94 147.501 27.96 146.741 28V27.6C147.168 27.5734 147.475 27.52 147.661 27.44C147.848 27.36 147.975 27.2067 148.041 26.98C148.121 26.7534 148.161 26.3867 148.161 25.88V15.96C148.161 15.4534 148.121 15.0867 148.041 14.86C147.975 14.6334 147.848 14.48 147.661 14.4C147.475 14.32 147.168 14.2667 146.741 14.24V13.84C147.501 13.88 148.688 13.9 150.301 13.9C151.741 13.9 152.855 13.88 153.641 13.84V14.24C153.215 14.2667 152.901 14.32 152.701 14.4C152.515 14.48 152.388 14.6334 152.321 14.86C152.255 15.0867 152.221 15.4534 152.221 15.96V19.56H152.961ZM167.241 14.24C166.815 14.2667 166.501 14.32 166.301 14.4C166.115 14.48 165.988 14.6334 165.921 14.86C165.855 15.0867 165.821 15.4534 165.821 15.96V25.88C165.821 26.3867 165.855 26.7534 165.921 26.98C166.001 27.2067 166.135 27.36 166.321 27.44C166.508 27.52 166.815 27.5734 167.241 27.6V28C166.468 27.96 165.355 27.94 163.901 27.94C162.288 27.94 161.101 27.96 160.341 28V27.6C160.768 27.5734 161.075 27.52 161.261 27.44C161.461 27.36 161.595 27.2067 161.661 26.98C161.728 26.7534 161.761 26.3867 161.761 25.88V15.96C161.761 15.4534 161.721 15.0867 161.641 14.86C161.575 14.6334 161.448 14.48 161.261 14.4C161.075 14.32 160.768 14.2667 160.341 14.24V13.84C161.101 13.88 162.288 13.9 163.901 13.9C165.355 13.9 166.468 13.88 167.241 13.84V14.24ZM153.241 27.6C153.961 27.6 154.468 27.3067 154.761 26.72C155.068 26.12 155.221 25.1934 155.221 23.94C155.221 22.6867 155.048 21.7134 154.701 21.02C154.355 20.3134 153.708 19.96 152.761 19.96H152.221V25.88C152.221 26.56 152.288 27.02 152.421 27.26C152.555 27.4867 152.828 27.6 153.241 27.6Z"
            fill="#475009" />
        <path
            d="M144.419 14.24C143.993 14.2667 143.679 14.32 143.479 14.4C143.293 14.48 143.166 14.6334 143.099 14.86C143.033 15.0867 142.999 15.4534 142.999 15.96V25.88C142.999 26.3867 143.033 26.7534 143.099 26.98C143.179 27.2067 143.313 27.36 143.499 27.44C143.686 27.52 143.993 27.5734 144.419 27.6V28C143.699 27.96 142.579 27.94 141.059 27.94C139.526 27.94 138.346 27.96 137.519 28V27.6C137.946 27.5734 138.253 27.52 138.439 27.44C138.639 27.36 138.773 27.2067 138.839 26.98C138.906 26.7534 138.939 26.3867 138.939 25.88V21.08H134.439V25.88C134.439 26.3867 134.473 26.7534 134.539 26.98C134.619 27.2067 134.753 27.36 134.939 27.44C135.126 27.52 135.433 27.5734 135.859 27.6V28C135.086 27.96 133.973 27.94 132.519 27.94C130.906 27.94 129.719 27.96 128.959 28V27.6C129.386 27.5734 129.693 27.52 129.879 27.44C130.079 27.36 130.213 27.2067 130.279 26.98C130.346 26.7534 130.379 26.3867 130.379 25.88V15.96C130.379 15.4534 130.339 15.0867 130.259 14.86C130.193 14.6334 130.066 14.48 129.879 14.4C129.693 14.32 129.386 14.2667 128.959 14.24V13.84C129.719 13.88 130.906 13.9 132.519 13.9C133.959 13.9 135.073 13.88 135.859 13.84V14.24C135.433 14.2667 135.119 14.32 134.919 14.4C134.733 14.48 134.606 14.6334 134.539 14.86C134.473 15.0867 134.439 15.4534 134.439 15.96V20.68H138.939V15.96C138.939 15.4534 138.899 15.0867 138.819 14.86C138.753 14.6334 138.626 14.48 138.439 14.4C138.253 14.32 137.946 14.2667 137.519 14.24V13.84C138.346 13.88 139.526 13.9 141.059 13.9C142.579 13.9 143.699 13.88 144.419 13.84V14.24Z"
            fill="#475009" />
        <path
            d="M126.191 24.64C126.191 26 126.238 27.12 126.331 28C125.425 27.96 123.898 27.94 121.751 27.94C118.631 27.94 116.298 27.96 114.751 28V27.6C115.178 27.5734 115.485 27.52 115.671 27.44C115.871 27.36 116.005 27.2067 116.071 26.98C116.138 26.7534 116.171 26.3867 116.171 25.88V15.96C116.171 15.4534 116.131 15.0867 116.051 14.86C115.985 14.6334 115.858 14.48 115.671 14.4C115.485 14.32 115.178 14.2667 114.751 14.24V13.84C116.298 13.88 118.631 13.9 121.751 13.9C123.711 13.9 125.105 13.88 125.931 13.84C125.838 15.0934 125.791 16.2134 125.791 17.2C125.791 17.8134 125.811 18.2934 125.851 18.64H125.391C125.151 17.0934 124.705 15.9867 124.051 15.32C123.398 14.64 122.618 14.3 121.711 14.3H121.451C121.091 14.3 120.825 14.3334 120.651 14.4C120.491 14.4534 120.378 14.5667 120.311 14.74C120.258 14.9 120.231 15.1734 120.231 15.56V20.68H120.431C121.125 20.68 121.718 20.4067 122.211 19.86C122.705 19.3134 123.018 18.7067 123.151 18.04H123.611C123.571 18.6 123.551 19.2267 123.551 19.92V20.88C123.551 21.56 123.591 22.5067 123.671 23.72H123.211C123.091 22.96 122.778 22.3334 122.271 21.84C121.778 21.3334 121.165 21.08 120.431 21.08H120.231V26.28C120.231 26.6667 120.258 26.9467 120.311 27.12C120.378 27.28 120.491 27.3934 120.651 27.46C120.825 27.5134 121.091 27.54 121.451 27.54H122.111C122.885 27.54 123.618 27.1667 124.311 26.42C125.005 25.66 125.498 24.4534 125.791 22.8H126.251C126.211 23.28 126.191 23.8934 126.191 24.64Z"
            fill="#475009" />
        <path
            d="M112.547 14.24C112.067 14.2667 111.714 14.32 111.487 14.4C111.274 14.48 111.127 14.6334 111.047 14.86C110.967 15.0867 110.927 15.4534 110.927 15.96V25.88C110.927 26.3867 110.967 26.7534 111.047 26.98C111.127 27.2067 111.274 27.36 111.487 27.44C111.714 27.52 112.067 27.5734 112.547 27.6V28C111.747 27.96 110.507 27.94 108.827 27.94C107.267 27.94 106.074 27.96 105.247 28V27.6C105.727 27.5734 106.074 27.52 106.287 27.44C106.514 27.36 106.667 27.2067 106.747 26.98C106.827 26.7534 106.867 26.3867 106.867 25.88V15.96C106.867 15.2667 106.774 14.8067 106.587 14.58C106.401 14.3534 106.087 14.24 105.647 14.24H105.587C105.227 14.24 104.947 14.36 104.747 14.6C104.547 14.84 104.421 15.2934 104.367 15.96C104.327 16.3334 104.294 16.6934 104.267 17.04C104.254 17.3867 104.234 17.7134 104.207 18.02C104.061 20.1534 103.881 21.9 103.667 23.26C103.467 24.62 103.094 25.8 102.547 26.8C102.001 27.7867 101.214 28.28 100.187 28.28C99.4805 28.28 98.8939 28.0734 98.4272 27.66C97.9739 27.2334 97.7472 26.7134 97.7472 26.1C97.7472 25.4734 97.9605 24.9667 98.3872 24.58C98.8139 24.1934 99.3472 24 99.9872 24C100.534 24 100.967 24.1334 101.287 24.4C101.607 24.6534 101.767 25.0134 101.767 25.48C101.767 26.0667 101.567 26.5667 101.167 26.98C100.781 27.38 100.287 27.6334 99.6872 27.74C99.7939 27.8467 99.9605 27.9 100.187 27.9C101.134 27.9 101.861 27.3334 102.367 26.2C102.874 25.0667 103.221 23.7267 103.407 22.18C103.594 20.62 103.761 18.5467 103.907 15.96C103.921 15.8534 103.927 15.7067 103.927 15.52C103.927 15.1734 103.881 14.9134 103.787 14.74C103.694 14.5667 103.534 14.4467 103.307 14.38C103.081 14.3134 102.741 14.2667 102.287 14.24V13.84C102.847 13.88 103.534 13.9 104.347 13.9C104.547 13.9 104.847 13.8867 105.247 13.86L106.107 13.84L107.447 13.86C108.061 13.8867 108.567 13.9 108.967 13.9C110.554 13.9 111.747 13.88 112.547 13.84V14.24Z"
            fill="#475009" />
        <path
            d="M95.9594 24.64C95.9594 26 96.0061 27.12 96.0994 28C95.1927 27.96 93.6661 27.94 91.5194 27.94C88.3994 27.94 86.0661 27.96 84.5194 28V27.6C84.9461 27.5734 85.2527 27.52 85.4394 27.44C85.6394 27.36 85.7727 27.2067 85.8394 26.98C85.9061 26.7534 85.9394 26.3867 85.9394 25.88V15.96C85.9394 15.4534 85.8994 15.0867 85.8194 14.86C85.7527 14.6334 85.6261 14.48 85.4394 14.4C85.2527 14.32 84.9461 14.2667 84.5194 14.24V13.84C86.0661 13.88 88.3994 13.9 91.5194 13.9C93.4794 13.9 94.8727 13.88 95.6994 13.84C95.6061 15.0934 95.5594 16.2134 95.5594 17.2C95.5594 17.8134 95.5794 18.2934 95.6194 18.64H95.1594C94.9194 17.0934 94.4727 15.9867 93.8194 15.32C93.1661 14.64 92.3861 14.3 91.4794 14.3H91.2194C90.8594 14.3 90.5927 14.3334 90.4194 14.4C90.2594 14.4534 90.1461 14.5667 90.0794 14.74C90.0261 14.9 89.9994 15.1734 89.9994 15.56V20.68H90.1994C90.8927 20.68 91.4861 20.4067 91.9794 19.86C92.4727 19.3134 92.7861 18.7067 92.9194 18.04H93.3794C93.3394 18.6 93.3194 19.2267 93.3194 19.92V20.88C93.3194 21.56 93.3594 22.5067 93.4394 23.72H92.9794C92.8594 22.96 92.5461 22.3334 92.0394 21.84C91.5461 21.3334 90.9327 21.08 90.1994 21.08H89.9994V26.28C89.9994 26.6667 90.0261 26.9467 90.0794 27.12C90.1461 27.28 90.2594 27.3934 90.4194 27.46C90.5927 27.5134 90.8594 27.54 91.2194 27.54H91.8794C92.6527 27.54 93.3861 27.1667 94.0794 26.42C94.7727 25.66 95.2661 24.4534 95.5594 22.8H96.0194C95.9794 23.28 95.9594 23.8934 95.9594 24.64Z"
            fill="#475009" />
        <path
            d="M76.685 13.56C78.1517 13.56 79.3383 13.8333 80.245 14.38C81.165 14.9133 81.625 15.6467 81.625 16.58C81.625 17.58 81.1117 18.42 80.085 19.1C79.0583 19.7667 77.885 20.2333 76.565 20.5C77.525 20.5133 78.4517 20.66 79.345 20.94C80.2383 21.22 80.965 21.6333 81.525 22.18C82.0983 22.7267 82.385 23.4 82.385 24.2C82.385 25.04 82.0583 25.7733 81.405 26.4C80.765 27.0133 79.925 27.48 78.885 27.8C77.8583 28.12 76.7717 28.28 75.625 28.28C73.905 28.28 72.5583 27.9133 71.585 27.18C71.2517 26.9267 70.965 26.62 70.725 26.26C70.4983 25.9 70.385 25.5067 70.385 25.08C70.385 24.4533 70.5917 23.96 71.005 23.6C71.4183 23.24 71.9183 23.06 72.505 23.06C73.105 23.06 73.5717 23.2267 73.905 23.56C74.2383 23.88 74.405 24.36 74.405 25C74.405 25.4933 74.225 25.9333 73.865 26.32C73.5183 26.6933 73.0383 26.96 72.425 27.12C73.1183 27.56 73.9917 27.78 75.045 27.78C76.1383 27.78 77.005 27.48 77.645 26.88C78.285 26.28 78.605 25.3667 78.605 24.14C78.605 23.2067 78.4117 22.4067 78.025 21.74C77.6383 21.0733 77.045 20.72 76.245 20.68C75.925 20.8533 75.645 20.94 75.405 20.94C75.2717 20.94 75.165 20.9133 75.085 20.86C75.005 20.8067 74.965 20.72 74.965 20.6C74.965 20.3867 75.125 20.28 75.445 20.28C75.6183 20.28 75.8917 20.32 76.265 20.4C76.8383 20.1333 77.2383 19.6933 77.465 19.08C77.705 18.4533 77.825 17.78 77.825 17.06C77.825 16.06 77.6317 15.3467 77.245 14.92C76.8583 14.48 76.3117 14.26 75.605 14.26C74.4583 14.26 73.5783 14.68 72.965 15.52C72.365 16.36 72.025 17.4667 71.945 18.84H71.485C71.485 16.4533 71.4583 14.7867 71.405 13.84H71.865C71.905 14.2667 71.965 14.5733 72.045 14.76C72.125 14.9467 72.2383 15.04 72.385 15.04C72.4783 15.04 72.605 14.98 72.765 14.86C73.3917 14.4067 73.965 14.08 74.485 13.88C75.0183 13.6667 75.7517 13.56 76.685 13.56Z"
            fill="#475009" />
        <path
            d="M194.928 48.2801V51.6801C194.928 52.2401 194.982 52.6468 195.088 52.9001C195.208 53.1534 195.415 53.3268 195.708 53.4201C196.015 53.5001 196.495 53.5401 197.148 53.5401V54.0001C195.348 53.9601 193.975 53.9401 193.028 53.9401C192.402 53.9401 191.528 53.9534 190.408 53.9801L189.448 54.0001V53.6001C189.875 53.5734 190.182 53.5201 190.368 53.4401C190.568 53.3601 190.702 53.2068 190.768 52.9801C190.835 52.7534 190.868 52.3868 190.868 51.8801V41.9601C190.868 41.4534 190.828 41.0868 190.748 40.8601C190.682 40.6334 190.555 40.4801 190.368 40.4001C190.182 40.3201 189.875 40.2668 189.448 40.2401V39.8401C190.208 39.8801 191.355 39.9001 192.888 39.9001L195.188 39.8801C195.455 39.8668 195.762 39.8601 196.108 39.8601C198.082 39.8601 199.575 40.2201 200.588 40.9401C201.615 41.6468 202.128 42.6001 202.128 43.8001C202.128 44.5334 201.928 45.2401 201.528 45.9201C201.128 46.5868 200.448 47.1468 199.488 47.6001C198.528 48.0534 197.255 48.2801 195.668 48.2801H194.928ZM196.008 40.2401C195.702 40.2401 195.468 40.2868 195.308 40.3801C195.162 40.4734 195.062 40.6401 195.008 40.8801C194.955 41.1201 194.928 41.4801 194.928 41.9601V47.8801H195.468C196.402 47.8801 197.042 47.5334 197.388 46.8401C197.748 46.1468 197.928 45.2068 197.928 44.0201C197.928 42.7268 197.782 41.7734 197.488 41.1601C197.195 40.5468 196.702 40.2401 196.008 40.2401Z"
            fill="#475009" />
        <path
            d="M187.136 40.2401C186.709 40.2668 186.402 40.3201 186.216 40.4001C186.029 40.4801 185.896 40.6334 185.816 40.8601C185.749 41.0868 185.716 41.4534 185.716 41.9601V51.8801C185.716 52.3868 185.749 52.7534 185.816 52.9801C185.896 53.2068 186.029 53.3601 186.216 53.4401C186.402 53.5201 186.709 53.5734 187.136 53.6001V54.0001C186.376 53.9601 185.189 53.9401 183.576 53.9401C182.136 53.9401 181.022 53.9601 180.236 54.0001V53.6001C180.662 53.5734 180.969 53.5201 181.156 53.4401C181.342 53.3601 181.469 53.2068 181.536 52.9801C181.616 52.7534 181.656 52.3868 181.656 51.8801V42.6801L176.756 52.2001C176.769 52.5868 176.816 52.8801 176.896 53.0801C176.976 53.2668 177.109 53.3934 177.296 53.4601C177.496 53.5268 177.789 53.5734 178.176 53.6001V54.0001C177.402 53.9601 176.289 53.9401 174.836 53.9401C173.222 53.9401 172.036 53.9601 171.276 54.0001V53.6001C171.702 53.5734 172.009 53.5201 172.196 53.4401C172.382 53.3601 172.509 53.2068 172.576 52.9801C172.656 52.7534 172.696 52.3868 172.696 51.8801V41.9601C172.696 41.4534 172.656 41.0868 172.576 40.8601C172.509 40.6334 172.382 40.4801 172.196 40.4001C172.009 40.3201 171.702 40.2668 171.276 40.2401V39.8401C172.036 39.8801 173.222 39.9001 174.836 39.9001C176.276 39.9001 177.389 39.8801 178.176 39.8401V40.2401C177.749 40.2668 177.442 40.3201 177.256 40.4001C177.069 40.4801 176.936 40.6334 176.856 40.8601C176.789 41.0868 176.756 41.4534 176.756 41.9601V51.2001L181.656 41.7001C181.642 41.2868 181.596 40.9868 181.516 40.8001C181.436 40.6001 181.302 40.4668 181.116 40.4001C180.929 40.3201 180.636 40.2668 180.236 40.2401V39.8401C181.009 39.8801 182.122 39.9001 183.576 39.9001C185.189 39.9001 186.376 39.8801 187.136 39.8401V40.2401Z"
            fill="#475009" />
        <path
            d="M169.844 53.2001C169.444 53.6001 169.004 53.8801 168.524 54.0401C168.044 54.2001 167.484 54.2801 166.844 54.2801C165.91 54.2801 165.19 54.1201 164.684 53.8001C164.19 53.4668 163.884 52.9068 163.764 52.1201L163.244 48.6801C163.124 47.9734 162.897 47.4868 162.564 47.2201C162.244 46.9401 161.71 46.7801 160.964 46.7401V51.8801C160.964 52.3868 160.997 52.7534 161.064 52.9801C161.13 53.2068 161.257 53.3601 161.444 53.4401C161.644 53.5201 161.957 53.5734 162.384 53.6001V54.0001C161.624 53.9601 160.437 53.9401 158.824 53.9401C157.384 53.9401 156.27 53.9601 155.484 54.0001V53.6001C155.91 53.5734 156.217 53.5201 156.404 53.4401C156.59 53.3601 156.717 53.2068 156.784 52.9801C156.864 52.7534 156.904 52.3868 156.904 51.8801V46.7401C156.157 46.7801 155.617 46.9401 155.284 47.2201C154.964 47.4868 154.744 47.9734 154.624 48.6801L154.104 52.1201C153.984 52.9068 153.67 53.4668 153.164 53.8001C152.67 54.1201 151.957 54.2801 151.024 54.2801C150.384 54.2801 149.824 54.2001 149.344 54.0401C148.864 53.8801 148.424 53.6001 148.024 53.2001L148.284 52.9401C148.457 53.1134 148.657 53.2001 148.884 53.2001C149.124 53.2001 149.31 53.1068 149.444 52.9201C149.59 52.7334 149.71 52.3934 149.804 51.9001L150.384 49.1201C150.57 48.2401 151.037 47.6001 151.784 47.2001C152.544 46.8001 153.65 46.5534 155.104 46.4601L151.564 42.4201C150.537 41.2601 149.444 40.5268 148.284 40.2201V39.8401C148.83 39.8801 149.504 39.9001 150.304 39.9001C151.437 39.9001 152.564 39.8801 153.684 39.8401V40.2201C153.204 40.2468 152.81 40.3801 152.504 40.6201C152.197 40.8468 152.044 41.1534 152.044 41.5401C152.044 42.0734 152.337 42.6734 152.924 43.3401L153.604 44.1001C154.35 44.9401 154.95 45.5268 155.404 45.8601C155.87 46.1934 156.37 46.3801 156.904 46.4201V41.9601C156.904 41.4534 156.87 41.0868 156.804 40.8601C156.737 40.6334 156.604 40.4801 156.404 40.4001C156.217 40.3201 155.91 40.2668 155.484 40.2401V39.8401C156.257 39.8801 157.37 39.9001 158.824 39.9001C160.437 39.9001 161.624 39.8801 162.384 39.8401V40.2401C161.957 40.2668 161.65 40.3201 161.464 40.4001C161.277 40.4801 161.144 40.6334 161.064 40.8601C160.997 41.0868 160.964 41.4534 160.964 41.9601V46.4201C161.497 46.3801 161.99 46.1934 162.444 45.8601C162.91 45.5268 163.517 44.9401 164.264 44.1001L164.944 43.3401C165.53 42.6734 165.824 42.0734 165.824 41.5401C165.824 41.1534 165.67 40.8468 165.364 40.6201C165.057 40.3801 164.664 40.2468 164.184 40.2201V39.8401C165.304 39.8801 166.43 39.9001 167.564 39.9001C168.364 39.9001 169.037 39.8801 169.584 39.8401V40.2201C168.424 40.5268 167.33 41.2601 166.304 42.4201L162.764 46.4601C164.217 46.5534 165.317 46.8001 166.064 47.2001C166.824 47.6001 167.297 48.2401 167.484 49.1201L168.064 51.9001C168.157 52.3934 168.27 52.7334 168.404 52.9201C168.55 53.1068 168.744 53.2001 168.984 53.2001C169.21 53.2001 169.41 53.1134 169.584 52.9401L169.844 53.2001Z"
            fill="#475009" />
        <path
            d="M146.096 52.3201C146.269 52.7468 146.456 53.0668 146.656 53.2801C146.869 53.4801 147.076 53.5868 147.276 53.6001V54.0001C146.316 53.9601 145.103 53.9401 143.636 53.9401C142.116 53.9401 140.996 53.9601 140.276 54.0001V53.6001C140.783 53.5734 141.143 53.5134 141.356 53.4201C141.569 53.3134 141.676 53.1334 141.676 52.8801C141.676 52.6401 141.596 52.3201 141.436 51.9201L140.256 48.6401H136.216L135.876 49.5401C135.436 50.6734 135.216 51.5401 135.216 52.1401C135.216 52.6868 135.369 53.0601 135.676 53.2601C135.983 53.4601 136.436 53.5734 137.036 53.6001V54.0001C136.036 53.9601 135.163 53.9401 134.416 53.9401C133.789 53.9401 133.276 53.9601 132.876 54.0001V53.6001C133.209 53.5468 133.523 53.3401 133.816 52.9801C134.109 52.6201 134.409 52.0468 134.716 51.2601L139.156 39.8401C139.583 39.8668 139.936 39.8801 140.216 39.8801C140.483 39.8801 140.829 39.8668 141.256 39.8401L146.096 52.3201ZM140.116 48.2401L138.296 43.2401L136.376 48.2401H140.116Z"
            fill="#475009" />
        <path
            d="M126.04 39.5601C126.84 39.5601 127.52 39.6734 128.08 39.9001C128.64 40.1267 129.187 40.4467 129.72 40.8601C129.853 40.9801 129.98 41.0401 130.1 41.0401C130.367 41.0401 130.54 40.6401 130.62 39.8401H131.08C131.027 40.7867 131 42.4534 131 44.8401H130.54C130.447 43.7734 130.273 42.9334 130.02 42.3201C129.767 41.7067 129.327 41.1934 128.7 40.7801C128.073 40.3801 127.453 40.1801 126.84 40.1801C125.453 40.1801 124.48 40.8467 123.92 42.1801C123.36 43.5134 123.08 45.1067 123.08 46.9601C123.08 48.8134 123.36 50.4067 123.92 51.7401C124.48 53.0734 125.453 53.7401 126.84 53.7401C127.453 53.7401 128.073 53.5401 128.7 53.1401C129.327 52.7534 129.767 52.2334 130.02 51.5801C130.273 50.9267 130.447 50.0001 130.54 48.8001H131C131 51.2934 131.027 53.0267 131.08 54.0001H130.62C130.58 53.5734 130.52 53.2734 130.44 53.1001C130.373 52.9134 130.273 52.8201 130.14 52.8201C130.033 52.8201 129.893 52.8734 129.72 52.9801C129.12 53.4067 128.547 53.7334 128 53.9601C127.453 54.1734 126.793 54.2801 126.02 54.2801C124.513 54.2801 123.193 53.9934 122.06 53.4201C120.927 52.8467 120.047 52.0201 119.42 50.9401C118.793 49.8467 118.48 48.5467 118.48 47.0401C118.48 45.5734 118.8 44.2734 119.44 43.1401C120.08 42.0067 120.973 41.1267 122.12 40.5001C123.267 39.8734 124.573 39.5601 126.04 39.5601Z"
            fill="#475009" />
        <path
            d="M110.504 39.5601C111.304 39.5601 111.984 39.6734 112.544 39.9001C113.104 40.1267 113.651 40.4467 114.184 40.8601C114.318 40.9801 114.444 41.0401 114.564 41.0401C114.831 41.0401 115.004 40.6401 115.084 39.8401H115.544C115.491 40.7867 115.464 42.4534 115.464 44.8401H115.004C114.911 43.7734 114.738 42.9334 114.484 42.3201C114.231 41.7067 113.791 41.1934 113.164 40.7801C112.538 40.3801 111.918 40.1801 111.304 40.1801C109.918 40.1801 108.944 40.8467 108.384 42.1801C107.824 43.5134 107.544 45.1067 107.544 46.9601C107.544 48.8134 107.824 50.4067 108.384 51.7401C108.944 53.0734 109.918 53.7401 111.304 53.7401C111.918 53.7401 112.538 53.5401 113.164 53.1401C113.791 52.7534 114.231 52.2334 114.484 51.5801C114.738 50.9267 114.911 50.0001 115.004 48.8001H115.464C115.464 51.2934 115.491 53.0267 115.544 54.0001H115.084C115.044 53.5734 114.984 53.2734 114.904 53.1001C114.838 52.9134 114.738 52.8201 114.604 52.8201C114.498 52.8201 114.358 52.8734 114.184 52.9801C113.584 53.4067 113.011 53.7334 112.464 53.9601C111.918 54.1734 111.258 54.2801 110.484 54.2801C108.978 54.2801 107.658 53.9934 106.524 53.4201C105.391 52.8467 104.511 52.0201 103.884 50.9401C103.258 49.8467 102.944 48.5467 102.944 47.0401C102.944 45.5734 103.264 44.2734 103.904 43.1401C104.544 42.0067 105.438 41.1267 106.584 40.5001C107.731 39.8734 109.038 39.5601 110.504 39.5601Z"
            fill="#475009" />
        <path
            d="M100.582 52.3201C100.755 52.7468 100.942 53.0668 101.142 53.2801C101.355 53.4801 101.562 53.5868 101.762 53.6001V54.0001C100.802 53.9601 99.5887 53.9401 98.1221 53.9401C96.6021 53.9401 95.4821 53.9601 94.7621 54.0001V53.6001C95.2687 53.5734 95.6287 53.5134 95.8421 53.4201C96.0554 53.3134 96.1621 53.1334 96.1621 52.8801C96.1621 52.6401 96.0821 52.3201 95.9221 51.9201L94.7421 48.6401H90.7021L90.3621 49.5401C89.9221 50.6734 89.7021 51.5401 89.7021 52.1401C89.7021 52.6868 89.8554 53.0601 90.1621 53.2601C90.4687 53.4601 90.9221 53.5734 91.5221 53.6001V54.0001C90.5221 53.9601 89.6487 53.9401 88.9021 53.9401C88.2754 53.9401 87.7621 53.9601 87.3621 54.0001V53.6001C87.6954 53.5468 88.0087 53.3401 88.3021 52.9801C88.5954 52.6201 88.8954 52.0468 89.2021 51.2601L93.6421 39.8401C94.0687 39.8668 94.4221 39.8801 94.7021 39.8801C94.9687 39.8801 95.3154 39.8668 95.7421 39.8401L100.582 52.3201ZM94.6021 48.2401L92.7821 43.2401L90.8621 48.2401H94.6021Z"
            fill="#475009" />
        <path
            d="M86.02 40.2401C85.5933 40.2668 85.2867 40.3201 85.1 40.4001C84.9133 40.4801 84.78 40.6334 84.7 40.8601C84.6333 41.0868 84.6 41.4534 84.6 41.9601V51.8801C84.6 52.3868 84.6333 52.7534 84.7 52.9801C84.78 53.2068 84.9133 53.3601 85.1 53.4401C85.2867 53.5201 85.5933 53.5734 86.02 53.6001V54.0001C85.26 53.9601 84.0733 53.9401 82.46 53.9401C81.02 53.9401 79.9067 53.9601 79.12 54.0001V53.6001C79.5467 53.5734 79.8533 53.5201 80.04 53.4401C80.2267 53.3601 80.3533 53.2068 80.42 52.9801C80.5 52.7534 80.54 52.3868 80.54 51.8801V41.9601C80.54 41.4534 80.5 41.0868 80.42 40.8601C80.34 40.6201 80.1867 40.4601 79.96 40.3801C79.7333 40.2868 79.3867 40.2401 78.92 40.2401H77.66C77.1933 40.2401 76.8467 40.2868 76.62 40.3801C76.3933 40.4601 76.24 40.6201 76.16 40.8601C76.08 41.0868 76.04 41.4534 76.04 41.9601V51.8801C76.04 52.3868 76.0733 52.7534 76.14 52.9801C76.22 53.2068 76.3533 53.3601 76.54 53.4401C76.7267 53.5201 77.0333 53.5734 77.46 53.6001V54.0001C76.6867 53.9601 75.5733 53.9401 74.12 53.9401C72.5067 53.9401 71.32 53.9601 70.56 54.0001V53.6001C70.9867 53.5734 71.2933 53.5201 71.48 53.4401C71.6667 53.3601 71.7933 53.2068 71.86 52.9801C71.94 52.7534 71.98 52.3868 71.98 51.8801V41.9601C71.98 41.4534 71.94 41.0868 71.86 40.8601C71.7933 40.6334 71.6667 40.4801 71.48 40.4001C71.2933 40.3201 70.9867 40.2668 70.56 40.2401V39.8401C71.32 39.8801 72.5067 39.9001 74.12 39.9001C74.7867 39.9001 75.6533 39.8868 76.72 39.8601L78.32 39.8401L79.88 39.8601C80.9467 39.8868 81.8067 39.9001 82.46 39.9001C84.0733 39.9001 85.26 39.8801 86.02 39.8401V40.2401Z"
            fill="#475009" />
    </symbol>
    <symbol id="icon-ok" viewBox="0 0 15 22" fill="none" xmlns="http://www.w3.org/2000/svg">
        <path
            d="M7.16874 11.1358C10.4999 11.1358 13.1998 8.64313 13.1998 5.56766C13.1998 2.49219 10.4999 0 7.16874 0C3.83637 0 1.13538 2.49219 1.13538 5.56766C1.13533 8.64313 3.83637 11.1358 7.16874 11.1358ZM7.16874 2.82839C8.80726 2.82839 10.1356 4.05462 10.1356 5.56762C10.1356 7.08066 8.80726 8.30684 7.16874 8.30684C5.52849 8.30684 4.20064 7.08066 4.20064 5.56762C4.20064 4.05462 5.52844 2.82839 7.16874 2.82839ZM14.1208 11.8153C13.781 11.1837 12.8378 10.6584 11.5839 11.5699C9.8889 12.802 7.16869 12.802 7.16869 12.802C7.16869 12.802 4.44671 12.802 2.75175 11.5699C1.49838 10.6584 0.55578 11.1837 0.215398 11.8153C-0.379267 12.9159 0.291609 13.4481 1.80565 14.3451C3.09857 15.1116 4.87557 15.3978 6.02246 15.5047L5.0647 16.3888C3.71595 17.6333 2.41431 18.8359 1.51065 19.67C0.970087 20.1684 0.970087 20.9768 1.51065 21.4752L1.67296 21.6262C2.21352 22.1246 3.08868 22.1246 3.6292 21.6262L7.18324 18.345C8.53316 19.59 9.8348 20.792 10.7384 21.6262C11.279 22.1246 12.1541 22.1246 12.6946 21.6262L12.857 21.4752C13.3975 20.9763 13.3975 20.1684 12.857 19.6695L9.30291 16.3889L8.34286 15.5021C9.49087 15.3925 11.2481 15.1051 12.5305 14.3452C14.0446 13.4481 14.7144 12.9158 14.1208 11.8153Z"
            fill="white" />
    </symbol>
    <symbol id="icon-vk" viewBox="0 0 22 13" fill="none" xmlns="http://www.w3.org/2000/svg">
        <path
            d="M21.0435 9.91863C20.5645 9.34365 20.0202 8.82832 19.4938 8.32995C19.3066 8.1527 19.1131 7.96946 18.9265 7.78724C18.3909 7.26356 18.3714 7.06681 18.7955 6.47197C19.0888 6.06195 19.3999 5.65138 19.7008 5.25431C19.9736 4.89407 20.2558 4.52153 20.5263 4.14777L20.5818 4.07093C21.0987 3.3557 21.6333 2.61613 21.9178 1.72396C21.9917 1.48858 22.0692 1.1422 21.8919 0.852566C21.7146 0.563169 21.3708 0.474879 21.1275 0.43364C21.0072 0.413233 20.8877 0.410448 20.7768 0.410448L17.3917 0.408025L17.3637 0.407783C16.8519 0.407783 16.507 0.648977 16.3093 1.14523C16.1206 1.61938 15.9134 2.1243 15.6768 2.60439C15.2061 3.56038 14.6083 4.66147 13.7433 5.5798L13.7067 5.61886C13.6045 5.72865 13.4888 5.85297 13.4042 5.85297C13.3913 5.85297 13.3772 5.85048 13.3612 5.84546C13.182 5.77564 13.0617 5.34188 13.0672 5.1401C13.0672 5.13732 13.0673 5.13453 13.0673 5.13175L13.0649 1.21923C13.0649 1.20567 13.064 1.19222 13.0622 1.17878C12.9761 0.542762 12.7853 0.146848 12.0646 0.0056919C12.0455 0.00187688 12.0259 0 12.0064 0H8.48654C7.91308 0 7.5971 0.23308 7.30007 0.581942C7.2199 0.675198 7.05301 0.86934 7.13573 1.10484C7.21966 1.34386 7.4921 1.39496 7.58081 1.41156C8.02117 1.49537 8.26939 1.76472 8.3397 2.23536C8.46244 3.05262 8.47752 3.92493 8.38717 4.9806C8.36198 5.27399 8.31214 5.50059 8.23003 5.69419C8.21096 5.73936 8.14331 5.88682 8.07434 5.88688C8.05242 5.88688 7.98902 5.87828 7.87354 5.79871C7.60049 5.61165 7.40072 5.34472 7.16782 5.015C6.37551 3.89526 5.71054 2.66173 5.13466 1.24309C4.92108 0.720857 4.52219 0.428493 4.01098 0.419894C3.44927 0.411356 2.93999 0.407238 2.45427 0.407238C1.92356 0.407238 1.43154 0.412143 0.951093 0.422135C0.539797 0.429402 0.255306 0.552693 0.105612 0.788861C-0.0443247 1.02521 -0.0345752 1.33568 0.134618 1.71149C1.48901 4.72251 2.71702 6.91179 4.11647 8.81033C5.09705 10.1388 6.0806 11.0584 7.21142 11.7039C8.4028 12.3855 9.73793 12.7169 11.293 12.7169C11.4693 12.7169 11.6516 12.7126 11.8353 12.704C12.739 12.6599 13.0742 12.3329 13.1166 11.4531C13.1368 11.0034 13.1859 10.5319 13.407 10.1297C13.5465 9.87636 13.6765 9.87636 13.7193 9.87636C13.8017 9.87636 13.9038 9.91427 14.0134 9.9853C14.2101 10.1137 14.3788 10.2857 14.517 10.4359C14.6471 10.5786 14.7758 10.7228 14.9046 10.8671C15.1826 11.1784 15.47 11.5002 15.7702 11.8055C16.4274 12.4741 17.1513 12.7681 17.9828 12.7043H21.0864C21.093 12.7043 21.0997 12.7041 21.1063 12.7037C21.4155 12.6832 21.6834 12.5117 21.8411 12.233C22.0365 11.8878 22.0326 11.4474 21.8306 11.0546C21.6014 10.6105 21.304 10.231 21.0435 9.91863Z"
            fill="#ffffff" />
    </symbol>
    <symbol id="icon-phone-2" viewBox="0 0 24 24" fill="none" xmlns="http://www.w3.org/2000/svg">
        <path
            d="M8.38028 8.85323C9.07627 10.3028 10.0251 11.6615 11.2266 12.8631C12.4282 14.0646 13.7869 15.0134 15.2365 15.7094C15.3612 15.7693 15.4235 15.7992 15.5024 15.8222C15.7828 15.904 16.127 15.8453 16.3644 15.6752C16.4313 15.6274 16.4884 15.5702 16.6027 15.4559C16.9523 15.1063 17.1271 14.9315 17.3029 14.8172C17.9658 14.3862 18.8204 14.3862 19.4833 14.8172C19.6591 14.9315 19.8339 15.1063 20.1835 15.4559L20.3783 15.6508C20.9098 16.1822 21.1755 16.448 21.3198 16.7333C21.6069 17.3009 21.6069 17.9712 21.3198 18.5387C21.1755 18.8241 20.9098 19.0898 20.3783 19.6213L20.2207 19.7789C19.6911 20.3085 19.4263 20.5733 19.0662 20.7756C18.6667 21 18.0462 21.1614 17.588 21.16C17.1751 21.1588 16.8928 21.0787 16.3284 20.9185C13.295 20.0575 10.4326 18.433 8.04466 16.045C5.65668 13.6571 4.03221 10.7947 3.17124 7.76131C3.01103 7.19687 2.93092 6.91464 2.9297 6.5017C2.92833 6.04347 3.08969 5.42298 3.31411 5.02348C3.51636 4.66345 3.78117 4.39863 4.3108 3.86901L4.46843 3.71138C4.99987 3.17993 5.2656 2.91421 5.55098 2.76987C6.11854 2.4828 6.7888 2.4828 7.35636 2.76987C7.64174 2.91421 7.90747 3.17993 8.43891 3.71138L8.63378 3.90625C8.98338 4.25585 9.15819 4.43065 9.27247 4.60643C9.70347 5.26932 9.70347 6.1239 9.27247 6.78679C9.15819 6.96257 8.98338 7.13738 8.63378 7.48698C8.51947 7.60129 8.46231 7.65845 8.41447 7.72526C8.24446 7.96269 8.18576 8.30695 8.26748 8.5873C8.29048 8.6662 8.32041 8.72854 8.38028 8.85323Z"
            stroke="currentColor" stroke-width="2" stroke-linecap="round" stroke-linejoin="round" />
    </symbol>
    <symbol id="icon-mail" viewBox="0 0 24 24" fill="none" xmlns="http://www.w3.org/2000/svg">
        <path
            d="M21.5 18L14.8571 12M9.14286 12L2.50003 18M2 7L10.1649 12.7154C10.8261 13.1783 11.1567 13.4097 11.5163 13.4993C11.8339 13.5785 12.1661 13.5785 12.4837 13.4993C12.8433 13.4097 13.1739 13.1783 13.8351 12.7154L22 7M6.8 20H17.2C18.8802 20 19.7202 20 20.362 19.673C20.9265 19.3854 21.3854 18.9265 21.673 18.362C22 17.7202 22 16.8802 22 15.2V8.8C22 7.11984 22 6.27976 21.673 5.63803C21.3854 5.07354 20.9265 4.6146 20.362 4.32698C19.7202 4 18.8802 4 17.2 4H6.8C5.11984 4 4.27976 4 3.63803 4.32698C3.07354 4.6146 2.6146 5.07354 2.32698 5.63803C2 6.27976 2 7.11984 2 8.8V15.2C2 16.8802 2 17.7202 2.32698 18.362C2.6146 18.9265 3.07354 19.3854 3.63803 19.673C4.27976 20 5.11984 20 6.8 20Z"
            stroke="currentColor" stroke-width="2" stroke-linecap="round" stroke-linejoin="round" />
    </symbol>
    <symbol id="icon-check" viewBox="0 0 18 13" fill="none" xmlns="http://www.w3.org/2000/svg">
        <path d="M17 1L6 12L1 7" stroke-width="2" stroke-linecap="round" stroke="currentColor"
            stroke-linejoin="round" />
    </symbol>
    <symbol id="icon-search" viewBox="0 0 18 18" fill="none" xmlns="http://www.w3.org/2000/svg">
        <path
            d="M17.6885 15.071L13.94 11.3198C13.2177 10.597 12.0461 10.5968 11.3236 11.3193C10.6012 12.0417 10.6012 13.2129 11.3236 13.9352L15.0757 17.6874C15.491 18.1026 16.1745 18.1026 16.5897 17.6874L17.6885 16.5886C18.1037 16.1697 18.1037 15.4825 17.6885 15.071Z"
            fill="currentColor" />
        <path
            d="M9.44452 10.8138C9.82302 11.1923 10.4367 11.1923 10.8152 10.8138C11.1937 10.4353 11.1937 9.82165 10.8152 9.44314L10.6498 9.27772C10.2382 8.86613 10.1946 8.22351 10.4327 7.69239C11.3331 5.6848 10.9618 3.24347 9.31407 1.59575C7.1864 -0.531917 3.72848 -0.531917 1.59713 1.59575C-0.534214 3.72342 -0.530539 7.18135 1.59713 9.31269C3.24485 10.9604 5.68617 11.3317 7.69377 10.4314C8.22489 10.1932 8.8675 10.2368 9.2791 10.6484L9.44452 10.8138ZM2.65545 8.23967C1.11207 6.69628 1.11207 4.19379 2.65545 2.65408C4.19884 1.11069 6.70133 1.11069 8.24105 2.65408C9.78443 4.19746 9.78443 6.69996 8.24105 8.23967C6.70133 9.78306 4.19884 9.78306 2.65545 8.23967Z"
            fill="currentColor" />
    </symbol>
    <symbol id="icon-cactus" viewBox="0 0 37 57" fill="none" xmlns="http://www.w3.org/2000/svg">
        <path d="M19.5421 56H29.358L33.4054 34.9938H19.5421H5.68738L9.72617 56H19.5421Z" fill="#E09B52" stroke="#7C6B59"
            stroke-width="0.5" stroke-miterlimit="10" stroke-linejoin="round" />
        <path d="M19.5421 34.9939H36V28.2177H19.5421H3.08423V34.9939H19.5421Z" fill="#E09B52" stroke="#7C6B59"
            stroke-width="0.5" stroke-miterlimit="10" stroke-linejoin="round" />
        <path d="M6.04199 35.2632H9.17271L13.5488 55.7307H9.94241L6.04199 35.2632Z" fill="#B0733A" />
        <path d="M33.1892 35.2545H32.2725L28.1818 55.7133H29.1418L33.1892 35.2545Z" fill="#F7B980" />
        <path d="M3.39557 28.4696H6.62142L7.91867 34.7419H3.39557V28.4696Z" fill="#B0733A" />
        <path d="M35.6887 28.4696H34.4346L33.1893 34.7419H35.6887V28.4696Z" fill="#F7B980" />
        <path
            d="M16.7574 28.2264H6.05069C6.05069 28.2264 2.72971 19.0351 4.97829 14.0311C4.97829 14.0311 6.91552 7.91518 13.0645 8.43643C13.0645 8.43643 15.6677 8.3843 18.2536 11.0166L16.7574 28.2264Z"
            fill="#799946" stroke="#7C6A59" stroke-width="0.5" stroke-miterlimit="10" />
        <path
            d="M22.3269 28.2263H33.0336C33.0336 28.2263 36.6746 19.1914 34.106 14.0311C34.106 14.0311 31.892 8.1063 26.0198 8.43643C26.0198 8.43643 23.529 8.3843 20.8307 11.0166L22.3269 28.2263Z"
            fill="#AECD61" stroke="#7C6A59" stroke-width="0.5" stroke-miterlimit="10" />
        <path
            d="M19.5421 28.2263H25.1117C25.1117 28.2263 28.1127 15.7512 23.1831 9.73085C23.1831 9.73085 21.6869 7.57637 19.5421 7.57637C17.3973 7.57637 15.9011 9.73085 15.9011 9.73085C10.9802 15.7512 13.9726 28.2263 13.9726 28.2263H19.5421Z"
            fill="#97C456" stroke="#7C6A59" stroke-width="0.5" stroke-miterlimit="10" stroke-linejoin="round" />
        <path d="M27.3257 15.9771L28.3721 17.7928L29.2283 15.9771" stroke="#7C6B59" stroke-width="0.5"
            stroke-miterlimit="10" stroke-linejoin="round" />
        <path d="M32.8606 18.0534L32.2812 20.1036L34.0887 19.6606" stroke="#7C6B59" stroke-width="0.5"
            stroke-miterlimit="10" stroke-linejoin="round" />
        <path d="M28.3462 10.365L28.6748 12.4847L30.1018 11.1816" stroke="#7C6B59" stroke-width="0.5"
            stroke-miterlimit="10" stroke-linejoin="round" />
        <path d="M10.2884 10.4345L11.0667 12.4066L12.1651 10.7646" stroke="#7C6B59" stroke-width="0.5"
            stroke-miterlimit="10" stroke-linejoin="round" />
        <path d="M6.6474 24.8296L7.90142 26.4802L8.53275 24.5603" stroke="#7C6B59" stroke-width="0.5"
            stroke-miterlimit="10" stroke-linejoin="round" />
        <path d="M5.81714 15.1952L7.59006 16.09L7.41709 14.0572" stroke="#7C6B59" stroke-width="0.5"
            stroke-miterlimit="10" stroke-linejoin="round" />
        <path d="M9.33704 20.981L10.3921 22.7967L11.2397 20.981" stroke="#7C6B59" stroke-width="0.5"
            stroke-miterlimit="10" stroke-linejoin="round" />
        <path d="M30.0413 25.5246L31.0877 27.3315L31.9439 25.5246" stroke="#7C6B59" stroke-width="0.5"
            stroke-miterlimit="10" stroke-linejoin="round" />
        <path d="M9.87323 15.786L10.9197 17.6017L11.7759 15.786" stroke="#7C6B59" stroke-width="0.5"
            stroke-miterlimit="10" stroke-linejoin="round" />
        <path d="M17.7952 10.5127L18.8416 12.3284L19.6978 10.5127" stroke="#7C6B59" stroke-width="0.5"
            stroke-miterlimit="10" stroke-linejoin="round" />
        <path d="M20.6491 15.0736L21.6956 16.8893L22.5518 15.0736" stroke="#7C6B59" stroke-width="0.5"
            stroke-miterlimit="10" stroke-linejoin="round" />
        <path d="M27.2305 23.7089L28.277 25.5246L29.1332 23.7089" stroke="#7C6B59" stroke-width="0.5"
            stroke-miterlimit="10" stroke-linejoin="round" />
        <path d="M20.1821 21.8932L21.2372 23.7089L22.0848 21.8932" stroke="#7C6B59" stroke-width="0.5"
            stroke-miterlimit="10" stroke-linejoin="round" />
        <path d="M16.0223 24.6124L17.0774 26.428L17.9249 24.6124" stroke="#7C6B59" stroke-width="0.5"
            stroke-miterlimit="10" stroke-linejoin="round" />
        <path d="M14.2493 18.175L15.3044 19.982L16.152 18.175" stroke="#7C6B59" stroke-width="0.5"
            stroke-miterlimit="10" stroke-linejoin="round" />
        <path
            d="M7.99658 4.7269C7.99658 2.84173 11.404 1 11.404 1C13.6526 4.42284 12.0613 6.55994 12.0613 6.55994C11.1619 8.06286 8.63656 9.29648 8.63656 9.29648L7.99658 4.7269Z"
            fill="#F8B46A" stroke="#7C6A59" stroke-width="0.5" stroke-miterlimit="10" stroke-linejoin="round" />
        <path
            d="M6.18038 5.15259C4.31233 4.22303 1 5.76939 1 5.76939C2.0897 9.72217 4.74475 9.91329 4.74475 9.91329C6.69928 10.2087 9.043 9.11405 9.043 9.11405L6.18038 5.15259Z"
            fill="#DD9341" stroke="#7C6A59" stroke-width="0.5" stroke-miterlimit="10" stroke-linejoin="round" />
        <path
            d="M8.8441 9.20091C6.67335 8.79261 5.17718 6.77713 5.17718 6.77713C3.17941 4.17959 5.27232 1.33881 5.27232 1.33881C5.27232 1.33881 8.77491 1.60812 9.42354 4.83115C9.42354 4.83115 9.95109 7.28968 8.8441 9.20091Z"
            fill="#F7AA4A" stroke="#7C6A59" stroke-width="0.5" stroke-miterlimit="10" stroke-linejoin="round" />
    </symbol>
    <symbol id="icon-blooming" viewBox="0 0 37 57" fill="none" xmlns="http://www.w3.org/2000/svg">
        <path d="M19.8628 16.229C19.8628 16.229 16.7923 27.2812 18.1382 34.5135" stroke="#7C6A59" stroke-width="0.5"
            stroke-miterlimit="10" />
        <path
            d="M23.3729 13.5116C26.7478 11.2436 23.9816 9.68474 23.9816 9.68474C21.7836 8.23124 20.9787 11.7632 20.9787 11.7632L21.0531 10.9838C21.0531 10.9838 20.9246 7.22012 18.2328 8.0557C18.2328 8.0557 15.2773 8.97554 18.3208 12.1143C14.4048 10.4361 14.6551 13.7784 14.6551 13.7784C14.7362 16.3694 18.3005 14.8176 18.3005 14.8176C18.3005 14.8176 14.8106 15.8077 16.0618 17.9844C16.0618 17.9844 17.5836 20.8493 19.7411 17.3244C19.4029 21.4882 22.2841 20.1682 22.2841 20.1682C24.8947 19.0868 22.3517 16.243 22.3517 16.243C22.3517 16.243 25.1111 18.8551 26.1324 16.1377C26.1324 16.1307 27.3768 13.1254 23.3729 13.5116Z"
            fill="#B85D70" stroke="#7C6A59" stroke-width="0.5" stroke-miterlimit="10" stroke-linecap="round"
            stroke-linejoin="round" />
        <path
            d="M20.37 15.3583C21.0536 15.3583 21.6077 14.783 21.6077 14.0733C21.6077 13.3636 21.0536 12.7883 20.37 12.7883C19.6865 12.7883 19.1323 13.3636 19.1323 14.0733C19.1323 14.783 19.6865 15.3583 20.37 15.3583Z"
            fill="#F28E25" stroke="#7C6A59" stroke-width="0.5" stroke-miterlimit="10" />
        <path d="M27.9652 9.08086C27.9652 9.08086 26.315 25.3713 23.7855 34.5135" stroke="#7C6A59" stroke-width="0.5"
            stroke-miterlimit="10" />
        <path
            d="M31.3739 6.01238C34.4647 3.34413 31.5362 2.13639 31.5362 2.13639C29.1894 0.963768 28.7903 4.56591 28.7903 4.56591L28.7768 3.7865C28.7768 3.7865 28.2222 0.0649878 25.6386 1.22357C25.6386 1.22357 22.8116 2.50152 26.1932 5.24702C22.115 4.06035 22.7372 7.34651 22.7372 7.34651C23.1159 9.90944 26.4773 7.92931 26.4773 7.92931C26.4773 7.92931 23.1295 9.34068 24.6174 11.3489C24.6174 11.3489 26.457 14.0031 28.1952 10.2395C28.3304 14.4104 31.0425 12.7462 31.0425 12.7462C33.5111 11.3559 30.6638 8.84214 30.6638 8.84214C30.6638 8.84214 33.7072 11.0961 34.4039 8.27338C34.4174 8.26636 35.3034 5.13467 31.3739 6.01238Z"
            fill="#D97C93" stroke="#7C6A59" stroke-width="0.5" stroke-miterlimit="10" stroke-linecap="round"
            stroke-linejoin="round" />
        <path
            d="M28.4589 8.22422C29.1424 8.22422 29.6966 7.64891 29.6966 6.93924C29.6966 6.22957 29.1424 5.65427 28.4589 5.65427C27.7753 5.65427 27.2212 6.22957 27.2212 6.93924C27.2212 7.64891 27.7753 8.22422 28.4589 8.22422Z"
            fill="#F5A45B" stroke="#7C6A59" stroke-width="0.5" stroke-miterlimit="10" />
        <path
            d="M18.2193 30.7359C18.2193 30.7359 15.3246 25.7294 23.2512 24.5146C23.5556 32.8283 18.2193 30.7359 18.2193 30.7359Z"
            fill="#96C456" stroke="#7C6A59" stroke-width="0.5" stroke-miterlimit="10" stroke-linecap="round"
            stroke-linejoin="round" />
        <path d="M10.6648 9.90942C10.6648 9.90942 12.315 26.1998 14.8445 35.3421" stroke="#7C6A59" stroke-width="0.5"
            stroke-miterlimit="10" />
        <path
            d="M26.031 24.655C26.031 24.655 24.9691 16.4045 36.0001 19.466C31.8812 30.5252 26.031 24.655 26.031 24.655Z"
            fill="#96C456" stroke="#7C6A59" stroke-width="0.5" stroke-miterlimit="10" stroke-linecap="round"
            stroke-linejoin="round" />
        <path d="M26.4976 24.5005L32.2193 21.6638" stroke="#7C6A59" stroke-width="0.5" stroke-miterlimit="10"
            stroke-linecap="round" stroke-linejoin="round" />
        <path d="M30.657 24.4865C30.3932 24.4023 28.3845 23.5667 28.3845 23.5667L29.2773 21.2495" stroke="#7C6A59"
            stroke-width="0.5" stroke-miterlimit="10" stroke-linecap="round" stroke-linejoin="round" />
        <path d="M32.2396 23.2718L30.4203 22.5626L30.8531 20.7299" stroke="#7C6A59" stroke-width="0.5"
            stroke-miterlimit="10" stroke-linecap="round" stroke-linejoin="round" />
        <path
            d="M7.24923 6.84094C4.15841 4.17268 7.08691 2.96495 7.08691 2.96495C9.43377 1.79232 9.83281 5.39446 9.83281 5.39446L9.84633 4.61505C9.84633 4.61505 10.4009 0.89354 12.9845 2.05212C12.9845 2.05212 15.8116 3.33008 12.4299 6.07557C16.5082 4.8889 15.8859 8.17506 15.8859 8.17506C15.5072 10.738 12.1458 8.75787 12.1458 8.75787C12.1458 8.75787 15.4937 10.1692 14.0058 12.1774C14.0058 12.1774 12.1661 14.8317 10.428 11.068C10.2927 15.2389 7.58063 13.5748 7.58063 13.5748C5.11203 12.1845 7.95938 9.67069 7.95938 9.67069C7.95938 9.67069 4.9159 11.9247 4.21928 9.10193C4.21252 9.10193 3.31976 5.96322 7.24923 6.84094Z"
            fill="#DB5B7C" stroke="#7C6A59" stroke-width="0.5" stroke-miterlimit="10" stroke-linecap="round"
            stroke-linejoin="round" />
        <path
            d="M10.1642 9.05278C10.8477 9.05278 11.4019 8.47748 11.4019 7.76781C11.4019 7.05814 10.8477 6.48283 10.1642 6.48283C9.48064 6.48283 8.92651 7.05814 8.92651 7.76781C8.92651 8.47748 9.48064 9.05278 10.1642 9.05278Z"
            fill="#F3A157" stroke="#7C6A59" stroke-width="0.5" stroke-miterlimit="10" />
        <path
            d="M11.9024 22.6468C11.9024 22.6468 13.0657 13.6239 1 16.9733C5.50435 29.0717 11.9024 22.6468 11.9024 22.6468Z"
            fill="#96C456" stroke="#7C6A59" stroke-width="0.5" stroke-miterlimit="10" stroke-linecap="round"
            stroke-linejoin="round" />
        <path d="M11.3951 22.4854L5.13232 19.3818" stroke="#7C6A59" stroke-width="0.5" stroke-miterlimit="10"
            stroke-linecap="round" stroke-linejoin="round" />
        <path d="M6.84351 22.4643C7.12756 22.373 9.32563 21.4532 9.32563 21.4532L8.34495 18.9183" stroke="#7C6A59"
            stroke-width="0.5" stroke-miterlimit="10" stroke-linecap="round" stroke-linejoin="round" />
        <path d="M5.11206 21.1372L7.10723 20.3578L6.6338 18.3566" stroke="#7C6A59" stroke-width="0.5"
            stroke-miterlimit="10" stroke-linecap="round" stroke-linejoin="round" />
        <path d="M18.5034 56H26.1459L29.2909 39.0917H18.5034H7.70923L10.8542 56H18.5034Z" fill="#E09B52"
            stroke="#7C6B59" stroke-width="0.5" stroke-miterlimit="10" stroke-linejoin="round" />
        <path d="M18.5034 39.0917H31.3131V33.6429H18.5034H5.68701V39.0917H18.5034Z" fill="#E09B52" stroke="#7C6B59"
            stroke-width="0.5" stroke-miterlimit="10" stroke-linejoin="round" />
        <path d="M7.99329 39.3094H10.4281L13.8368 55.7823H11.0232L7.99329 39.3094Z" fill="#B0733A" />
        <path d="M29.1217 39.3024H28.4116L25.2261 55.7753H25.9768L29.1217 39.3024Z" fill="#F7B980" />
        <path d="M5.93042 33.8465H8.4396L9.45409 38.8951H5.93042V33.8465Z" fill="#B0733A" />
        <path d="M31.0763 33.8465H30.1024L29.1217 38.8951H31.0763V33.8465Z" fill="#F7B980" />
        <path d="M18.5101 30.5041L21.4386 27.0214" stroke="#7C6A59" stroke-width="0.5" stroke-miterlimit="10"
            stroke-linecap="round" stroke-linejoin="round" />
        <path d="M21.1884 29.2894C20.999 29.3104 19.4773 29.3526 19.4773 29.3526L19.4299 27.6042" stroke="#7C6A59"
            stroke-width="0.5" stroke-miterlimit="10" stroke-linecap="round" stroke-linejoin="round" />
        <path d="M21.885 28.0465L20.5189 28.1168L20.3092 26.8107" stroke="#7C6A59" stroke-width="0.5"
            stroke-miterlimit="10" stroke-linecap="round" stroke-linejoin="round" />
    </symbol>
    <symbol id="icon-succulents" viewBox="0 0 37 57" fill="none" xmlns="http://www.w3.org/2000/svg">
        <path
            d="M18.5 32.3314L12.8611 17.8252C14.1315 1.76716 18.5 1 18.5 1C18.5 1 22.8685 1.77587 24.1389 17.8252L18.5 32.3314Z"
            fill="#799946" stroke="#7C6A59" stroke-width="0.5" stroke-miterlimit="10" />
        <path
            d="M26.1387 25.7583C26.1387 25.7583 33.6299 12.6033 27.2452 5.63782C27.2452 5.63782 15.7461 24.5552 19.7458 29.7771L26.1387 25.7583Z"
            fill="#96C456" stroke="#7C6A59" stroke-width="0.5" stroke-miterlimit="10" />
        <path
            d="M10.8613 25.7583C10.8613 25.7583 3.37014 12.6033 9.75485 5.63782C9.75485 5.63782 21.4752 25.0347 17.4755 30.2566L10.8613 25.7583Z"
            fill="#96C456" stroke="#7C6A59" stroke-width="0.5" stroke-miterlimit="10" />
        <path
            d="M18.5 29.2366H25.7781C25.7781 29.2366 36.687 25.1742 35.9658 14.7304C35.9576 14.7304 24.6798 19.9523 18.5 29.2366Z"
            fill="#AECD61" stroke="#7C6A59" stroke-width="0.5" stroke-miterlimit="10" />
        <path
            d="M18.5 29.2366H11.2219C11.2219 29.2366 0.313 25.1742 1.03425 14.7304C1.04245 14.7304 12.3202 19.9523 18.5 29.2366Z"
            fill="#AECD61" stroke="#7C6A59" stroke-width="0.5" stroke-miterlimit="10" />
        <path d="M18.5 56H27.7779L31.5973 34.9903H18.5H5.41095L9.2303 56H18.5Z" fill="#E09B52" stroke="#7C6B59"
            stroke-width="0.5" stroke-miterlimit="10" stroke-linejoin="round" />
        <path d="M18.5 34.9903H34.0479V28.208H18.5H2.95215V34.9903H18.5Z" fill="#E09B52" stroke="#7C6B59"
            stroke-width="0.5" stroke-miterlimit="10" stroke-linejoin="round" />
        <path d="M5.74695 35.2606H8.70572L12.8447 55.7298H9.43516L5.74695 35.2606Z" fill="#B0733A" />
        <path d="M31.3924 35.2431H30.5236L26.6633 55.7123H27.573L31.3924 35.2431Z" fill="#F7B980" />
        <path d="M3.24719 28.4608H6.29612L7.52552 34.7375H3.24719V28.4608Z" fill="#B0733A" />
        <path d="M33.7528 28.4608H32.5726L31.3923 34.7375H33.7528V28.4608Z" fill="#F7B980" />
    </symbol>
    <symbol id="icon-deciduous" viewBox="0 0 37 57" fill="none" xmlns="http://www.w3.org/2000/svg">
        <path d="M25.9088 36.1951L36 19.7353C36 19.7353 23.7008 32.2232 21.4929 36.1951H25.9088Z" fill="#AECD61"
            stroke="#7C6A59" stroke-width="0.5" stroke-miterlimit="10" stroke-linecap="round" stroke-linejoin="round" />
        <path
            d="M31.5841 7.01573C31.5841 7.01573 30.0057 29.1506 24.9601 37.326H22.1225C22.1225 37.326 31.1097 10.1973 31.5841 7.01573Z"
            fill="#97C456" stroke="#7C6B59" stroke-width="0.5" stroke-miterlimit="10" stroke-linejoin="round" />
        <path
            d="M24.6496 1C24.6496 1 18.0256 13.8286 16.7664 29.9477H22.1311C22.1224 29.9477 23.0712 3.50031 24.6496 1Z"
            fill="#799946" stroke="#7C6A59" stroke-width="0.5" stroke-miterlimit="10" stroke-linecap="round"
            stroke-linejoin="round" />
        <path
            d="M24.6496 14.6257C24.6496 14.6257 21.9672 33.8106 23.7009 38.1231L18.6553 37.326C18.6553 37.326 19.7593 19.5037 24.6496 14.6257Z"
            fill="#AECD61" stroke="#7C6A59" stroke-width="0.5" stroke-miterlimit="10" stroke-linecap="round"
            stroke-linejoin="round" />
        <path
            d="M16.7664 7.01573C16.7664 7.01573 13.7735 33.8106 16.1368 38.1231L19.7592 38.8044C19.7592 38.8044 17.0769 8.3783 16.7664 7.01573Z"
            fill="#97C456" stroke="#7C6B59" stroke-width="0.5" stroke-miterlimit="10" stroke-linejoin="round" />
        <path d="M9.19366 16.8943L16.1367 41.5295H20.708L9.19366 16.8943Z" fill="#97C456" stroke="#7C6B59"
            stroke-width="0.5" stroke-miterlimit="10" stroke-linejoin="round" />
        <path
            d="M1 16.8943C1 16.8943 7.14958 32.3322 13.2992 38.1231L16.7664 37.326C16.7664 37.326 2.56974 20.8662 1 16.8943Z"
            fill="#AECD61" stroke="#7C6A59" stroke-width="0.5" stroke-miterlimit="10" stroke-linecap="round"
            stroke-linejoin="round" />
        <path d="M18.5 56H28.272L32.2913 39.5538H18.5H4.70007L8.72792 56H18.5Z" fill="#E09B52" stroke="#7C6B59"
            stroke-width="0.5" stroke-miterlimit="10" stroke-linejoin="round" />
        <path d="M18.5 39.5538H34.8787V34.2534H18.5H2.11261V39.5538H18.5Z" fill="#E09B52" stroke="#7C6B59"
            stroke-width="0.5" stroke-miterlimit="10" stroke-linejoin="round" />
        <path d="M5.06238 39.765H8.17598L12.5316 55.7888H8.9436L5.06238 39.765Z" fill="#B0733A" />
        <path d="M32.0757 39.7582H31.17L27.0991 55.7752H28.0564L32.0757 39.7582Z" fill="#F7B980" />
        <path d="M2.4231 34.451H5.6402L6.92531 39.3562H2.4231V34.451Z" fill="#B0733A" />
        <path d="M34.5683 34.451H33.3263L32.0757 39.3562H34.5683V34.451Z" fill="#F7B980" />
    </symbol>
    <symbol id="icon-burger" viewBox="0 0 34 20" fill="none" xmlns="http://www.w3.org/2000/svg">
        <path d="M1 1H14H27M1 10H33M6 19H33" stroke="#52A345" stroke-width="2" stroke-linecap="round"
            stroke-linejoin="round" />
    </symbol>


</svg>