<svg xmlns="http://www.w3.org/2000/svg">
  <symbol id="icon-header-logo" viewBox="0 0 170 60" fill="none" xmlns="http://www.w3.org/2000/svg">
    <path
      d="M73.3787 27.0516C74.1524 27.0516 74.7671 27.1204 75.2227 27.2579C75.687 27.3869 76.0223 27.619 76.2286 27.9543C76.4349 28.2896 76.5381 28.7624 76.5381 29.3728C76.5381 30.009 76.4134 30.4947 76.1641 30.83C75.9234 31.1567 75.5236 31.3458 74.9648 31.3974V31.4748C75.6526 31.535 76.134 31.7671 76.4091 32.1712C76.6843 32.5666 76.8218 33.1211 76.8218 33.8347C76.8218 34.4451 76.7143 34.9179 76.4994 35.2532C76.2931 35.5885 75.9664 35.8249 75.5193 35.9625C75.0809 36.0914 74.5049 36.1559 73.7913 36.1559C73.2153 36.1559 72.7124 36.1516 72.2825 36.143C71.8613 36.143 71.4701 36.1344 71.109 36.1172C70.7479 36.1 70.3783 36.0785 70 36.0528L70.1934 34.6858C70.3998 34.6944 70.7952 34.703 71.3798 34.7116C71.973 34.7202 72.6608 34.7245 73.4431 34.7245C73.8042 34.7245 74.0879 34.6901 74.2943 34.6213C74.5006 34.5526 74.6424 34.4279 74.7198 34.2474C74.8058 34.0582 74.8488 33.7917 74.8488 33.4478C74.8488 33.0782 74.8058 32.7987 74.7198 32.6096C74.6338 32.4119 74.4834 32.2743 74.2685 32.197C74.0621 32.1196 73.7741 32.0766 73.4045 32.068H70.1805V30.8171H73.3787C73.6968 30.8085 73.9461 30.7741 74.1266 30.714C74.3157 30.6538 74.449 30.5377 74.5264 30.3658C74.6038 30.1938 74.6424 29.9531 74.6424 29.6436C74.6424 29.3255 74.5995 29.0848 74.5135 28.9215C74.4361 28.7495 74.2986 28.6335 74.1008 28.5733C73.9031 28.5131 73.628 28.483 73.2755 28.483C72.7941 28.483 72.3685 28.483 71.9988 28.483C71.6292 28.483 71.2982 28.4873 71.0059 28.4959C70.7136 28.4959 70.4428 28.5045 70.1934 28.5217L70 27.1547C70.3439 27.1204 70.6749 27.0989 70.993 27.0903C71.3197 27.0731 71.6721 27.0645 72.0504 27.0645C72.4287 27.0559 72.8714 27.0516 73.3787 27.0516ZM71.9343 27.1547V36.0528H70V27.1547H71.9343Z"
      fill="currentColor" />
    <path
      d="M85.1473 27.1547C84.9581 27.7479 84.7905 28.2681 84.6443 28.7151C84.4982 29.1536 84.3563 29.5318 84.2188 29.8499C84.0812 30.168 83.9265 30.4345 83.7545 30.6495C83.5912 30.8558 83.3935 31.0191 83.1613 31.1395C82.9292 31.2513 82.6412 31.3286 82.2973 31.3716V31.449C82.6584 31.492 82.9593 31.5737 83.2 31.694C83.4493 31.8058 83.6643 31.9734 83.8448 32.197C84.0339 32.4119 84.2016 32.6956 84.3477 33.0481C84.5025 33.3919 84.6615 33.8132 84.8249 34.3118C84.9882 34.8019 85.1774 35.3822 85.3923 36.0528H83.329C83.0883 35.2876 82.8862 34.6514 82.7229 34.1442C82.5595 33.637 82.3962 33.2372 82.2328 32.9449C82.0695 32.644 81.8761 32.4291 81.6525 32.3001C81.429 32.1712 81.141 32.1067 80.7885 32.1067L80.7756 30.7397C81.1109 30.7397 81.3903 30.671 81.6139 30.5334C81.8374 30.3873 82.0308 30.1723 82.1942 29.8886C82.3575 29.5963 82.508 29.2267 82.6455 28.7796C82.7917 28.324 82.955 27.7823 83.1355 27.1547H85.1473ZM80.2469 27.1547V29.6694C80.2469 29.9617 80.2254 30.254 80.1824 30.5463C80.1394 30.8386 80.0707 31.118 79.9761 31.3845C80.0449 31.651 80.1051 31.9261 80.1566 32.2098C80.2168 32.485 80.2469 32.7429 80.2469 32.9836V36.0528H78.2868V27.1547H80.2469ZM81.343 30.7397V32.1067H79.744V30.7397H81.343Z"
      fill="currentColor" />
    <path
      d="M93.2409 27.1547L91.0744 33.7444C90.9197 34.2259 90.7477 34.6428 90.5586 34.9953C90.3781 35.3478 90.1502 35.6272 89.8751 35.8335C89.6086 36.0313 89.2647 36.1516 88.8435 36.1946C88.6458 36.2118 88.4093 36.2118 88.1342 36.1946C87.8677 36.1774 87.6012 36.1516 87.3347 36.1172C87.0768 36.0828 86.8533 36.0485 86.6641 36.0141L86.8833 34.6342C87.2702 34.6514 87.584 34.6643 87.8247 34.6729C88.074 34.6729 88.2761 34.6471 88.4308 34.5955C88.5856 34.544 88.7102 34.458 88.8048 34.3376C88.908 34.2173 89.0025 34.0453 89.0885 33.8218L89.3722 32.8675L89.6688 32.1583L91.2163 27.1547H93.2409ZM87.7345 27.1547L89.1272 31.8875C89.1616 31.9992 89.2475 32.0551 89.3851 32.0551H89.9267L90.4039 33.5252H88.6758C88.3492 33.5252 88.0998 33.4435 87.9279 33.2802C87.756 33.1168 87.627 32.8933 87.541 32.6096L85.7098 27.1547H87.7345Z"
      fill="currentColor" />
    <path
      d="M97.6096 27.0258C98.4349 27.0258 99.084 27.1118 99.5569 27.2837C100.03 27.4556 100.365 27.7522 100.563 28.1735C100.769 28.5948 100.872 29.1837 100.872 29.9402C100.872 30.6968 100.773 31.2857 100.576 31.7069C100.386 32.1282 100.073 32.4248 99.6342 32.5967C99.1958 32.7601 98.6026 32.8417 97.8546 32.8417C97.4592 32.8417 97.0723 32.8245 96.694 32.7902C96.3157 32.7558 95.9633 32.7128 95.6366 32.6612C95.3099 32.6096 95.0305 32.558 94.7984 32.5064C94.5662 32.4463 94.4072 32.3904 94.3212 32.3388L94.3599 31.3587C94.8671 31.3587 95.3916 31.3587 95.9332 31.3587C96.4834 31.3587 97.025 31.3587 97.558 31.3587C97.9019 31.3501 98.1684 31.3072 98.3576 31.2298C98.5553 31.1524 98.6928 31.0106 98.7702 30.8042C98.8562 30.5979 98.8992 30.3099 98.8992 29.9402C98.8992 29.5619 98.8562 29.2696 98.7702 29.0633C98.6928 28.857 98.5553 28.7151 98.3576 28.6377C98.1684 28.5518 97.9019 28.5088 97.558 28.5088C96.7671 28.5088 96.0879 28.5131 95.5205 28.5217C94.9531 28.5303 94.5705 28.5475 94.3728 28.5733L94.1794 27.1547C94.5404 27.1118 94.88 27.0817 95.1981 27.0645C95.5162 27.0473 95.8601 27.0387 96.2298 27.0387C96.608 27.0301 97.068 27.0258 97.6096 27.0258ZM96.1524 27.1547V36.0528H94.1794V27.1547H96.1524Z"
      fill="currentColor" />
    <path
      d="M105.632 27C106.053 27 106.41 27.0129 106.703 27.0387C107.003 27.0559 107.279 27.086 107.528 27.129C107.777 27.1719 108.035 27.2321 108.302 27.3095L108.147 28.7538C107.863 28.7366 107.601 28.7237 107.36 28.7151C107.128 28.7065 106.875 28.7022 106.599 28.7022C106.333 28.6936 106.011 28.6893 105.632 28.6893C105.194 28.6893 104.85 28.7753 104.601 28.9472C104.36 29.1192 104.188 29.4201 104.085 29.8499C103.982 30.2712 103.93 30.8558 103.93 31.6038C103.93 32.3517 103.982 32.9406 104.085 33.3705C104.188 33.7917 104.36 34.0883 104.601 34.2603C104.85 34.4322 105.194 34.5182 105.632 34.5182C106.225 34.5182 106.724 34.5096 107.128 34.4924C107.532 34.4752 107.932 34.4451 108.327 34.4021L108.495 35.8464C108.082 35.9754 107.661 36.0657 107.231 36.1172C106.801 36.1774 106.268 36.2075 105.632 36.2075C104.712 36.2075 103.973 36.0614 103.414 35.769C102.864 35.4682 102.464 34.9824 102.215 34.3118C101.974 33.6413 101.854 32.7386 101.854 31.6038C101.854 30.4689 101.974 29.5662 102.215 28.8957C102.464 28.2251 102.864 27.7436 103.414 27.4513C103.973 27.1504 104.712 27 105.632 27Z"
      fill="currentColor" />
    <path
      d="M111.576 27.1161C112.049 27.1161 112.53 27.1204 113.02 27.129C113.51 27.129 113.992 27.1376 114.464 27.1547C114.946 27.1719 115.393 27.202 115.805 27.245L115.715 28.6764H112.298C112.083 28.6764 111.92 28.7323 111.808 28.8441C111.705 28.9558 111.653 29.1192 111.653 29.3341V33.8734C111.653 34.0883 111.705 34.2517 111.808 34.3634C111.92 34.4752 112.083 34.5311 112.298 34.5311H115.715L115.805 35.9625C115.393 35.9969 114.946 36.027 114.464 36.0528C113.992 36.0699 113.51 36.0785 113.02 36.0785C112.53 36.0871 112.049 36.0914 111.576 36.0914C111.008 36.0914 110.548 35.9281 110.196 35.6014C109.852 35.2661 109.68 34.832 109.68 34.2989V28.9086C109.68 28.3669 109.852 27.9328 110.196 27.6061C110.548 27.2794 111.008 27.1161 111.576 27.1161ZM109.899 30.7268H115.225V32.1196H109.899V30.7268Z"
      fill="currentColor" />
    <path d="M120.875 32.1583V33.3705H117.032V32.1583H120.875Z" fill="currentColor" />
    <path
      d="M131.657 27.1547C132.121 27.1547 132.362 27.3955 132.379 27.8769L132.714 36.0528H130.896L130.6 28.6764H130.367L128.936 34.2216C128.859 34.6342 128.601 34.8406 128.162 34.8406H126.924C126.486 34.8406 126.219 34.6342 126.125 34.2216L124.693 28.6764H124.474L124.203 36.0528H122.372L122.707 27.8769C122.725 27.3955 122.97 27.1547 123.442 27.1547H125.287C125.708 27.1547 125.966 27.3654 126.06 27.7866L127.208 32.2614C127.26 32.4678 127.303 32.6784 127.337 32.8933C127.371 33.0996 127.41 33.3103 127.453 33.5252H127.621C127.664 33.3103 127.702 33.0996 127.737 32.8933C127.78 32.6784 127.823 32.4635 127.866 32.2485L129 27.7866C129.086 27.3654 129.344 27.1547 129.774 27.1547H131.657Z"
      fill="currentColor" />
    <path
      d="M136.208 27.1161C136.681 27.1161 137.163 27.1204 137.653 27.129C138.143 27.129 138.624 27.1376 139.097 27.1547C139.579 27.1719 140.026 27.202 140.438 27.245L140.348 28.6764H136.931C136.716 28.6764 136.552 28.7323 136.441 28.8441C136.337 28.9558 136.286 29.1192 136.286 29.3341V33.8734C136.286 34.0883 136.337 34.2517 136.441 34.3634C136.552 34.4752 136.716 34.5311 136.931 34.5311H140.348L140.438 35.9625C140.026 35.9969 139.579 36.027 139.097 36.0528C138.624 36.0699 138.143 36.0785 137.653 36.0785C137.163 36.0871 136.681 36.0914 136.208 36.0914C135.641 36.0914 135.181 35.9281 134.829 35.6014C134.485 35.2661 134.313 34.832 134.313 34.2989V28.9086C134.313 28.3669 134.485 27.9328 134.829 27.6061C135.181 27.2794 135.641 27.1161 136.208 27.1161ZM134.532 30.7268H139.858V32.1196H134.532V30.7268Z"
      fill="currentColor" />
    <path
      d="M149.015 27.1547V36.0528H147.042V28.5346H145.869C145.619 28.5346 145.434 28.5948 145.314 28.7151C145.194 28.8355 145.125 29.0289 145.108 29.2954C145.056 29.9402 144.996 30.5248 144.927 31.0492C144.858 31.5737 144.772 32.0594 144.669 32.5064C144.575 32.9449 144.454 33.3619 144.308 33.7573C144.171 34.1442 144.003 34.5268 143.805 34.905C143.608 35.2747 143.375 35.6573 143.109 36.0528H141.445C141.858 35.3048 142.185 34.544 142.425 33.7702C142.666 32.9879 142.851 32.197 142.98 31.3974C143.109 30.5893 143.204 29.7812 143.264 28.973C143.307 28.4314 143.504 27.993 143.857 27.6577C144.218 27.3224 144.691 27.1547 145.275 27.1547H149.015ZM142.722 35.9625L142.567 38H141.149V35.9625H142.722ZM150.176 34.6729V36.0528H141.149V34.6729H150.176ZM150.176 35.9625V38H148.77L148.615 35.9625H150.176Z"
      fill="currentColor" />
    <path
      d="M158.729 27.1547V36.0528H156.846V30.7655C156.846 30.5678 156.855 30.3701 156.872 30.1723C156.889 29.966 156.915 29.764 156.95 29.5662H156.872C156.803 29.7726 156.726 29.9746 156.64 30.1723C156.554 30.3615 156.464 30.5506 156.369 30.7397L153.313 36.0528H151.392V27.1547H153.274V32.3388C153.274 32.5365 153.261 32.7429 153.236 32.9578C153.218 33.1641 153.197 33.3748 153.171 33.5897H153.236C153.313 33.3834 153.395 33.1813 153.481 32.9836C153.575 32.7859 153.674 32.5967 153.777 32.4162L156.808 27.1547H158.729Z"
      fill="currentColor" />
    <path
      d="M164.802 27.1547C164.965 27.1547 165.107 27.202 165.227 27.2966C165.356 27.3912 165.442 27.5158 165.485 27.6706L168.064 36.0528H166.053L164.234 29.5147C164.2 29.3685 164.165 29.2224 164.131 29.0762C164.097 28.9215 164.067 28.7753 164.041 28.6377H163.693C163.667 28.7753 163.637 28.9215 163.602 29.0762C163.577 29.2224 163.542 29.3685 163.499 29.5147L161.681 36.0528H159.656L162.248 27.6706C162.291 27.5158 162.373 27.3912 162.493 27.2966C162.622 27.202 162.768 27.1547 162.932 27.1547H164.802ZM166.169 32.2227V33.7057H161.552V32.2227H166.169Z"
      fill="currentColor" />
    <path
      d="M26.9 21.2062C27.2 21.8182 27 22.5632 26.425 22.9091C25.85 23.2284 25.125 23.0155 24.825 22.4035C24.5 21.7916 24.725 21.02 25.3 20.7007C25.85 20.3548 26.575 20.5942 26.9 21.2062C26.875 21.2062 26.875 21.2062 26.9 21.2062ZM21.075 30.9978C20.75 31.184 20.625 31.6364 20.8 32.0089C20.975 32.3548 21.4 32.4878 21.725 32.3015C21.725 32.3015 21.725 32.3015 21.75 32.3015C22.075 32.1153 22.225 31.6896 22.05 31.3171V31.2905C21.825 30.9446 21.4 30.8115 21.075 30.9978ZM20.95 27.9911C20.55 28.2306 20.425 28.7361 20.625 29.1619C20.85 29.5876 21.325 29.7472 21.725 29.5078C22.125 29.2683 22.275 28.7627 22.05 28.337C21.85 27.9113 21.35 27.7517 20.95 27.9911ZM21.7 25.0909C21.25 25.357 21.075 25.9423 21.325 26.4213C21.575 26.9002 22.125 27.0865 22.575 26.8204C23.025 26.5543 23.2 25.969 22.95 25.49C22.7 25.0111 22.125 24.8248 21.7 25.0909ZM23.175 22.5898C22.675 22.8559 22.5 23.5477 22.75 24.0798C22.75 24.0798 22.75 24.0798 22.75 24.1064C23.025 24.6386 23.65 24.8514 24.15 24.5588C24.65 24.2661 24.85 23.6009 24.575 23.0687C24.325 22.51 23.7 22.2971 23.175 22.5898C23.2 22.5898 23.2 22.5898 23.175 22.5898ZM22.05 33.8714C21.775 34.031 21.675 34.4035 21.825 34.6962C21.975 34.9889 22.325 35.0953 22.6 34.9357C22.875 34.776 22.975 34.4035 22.825 34.0843C22.675 33.8182 22.325 33.7117 22.05 33.8714ZM35.425 23.6009C35.6 23.9468 36.025 24.0798 36.375 23.8936C36.7 23.7073 36.825 23.255 36.65 22.8825C36.475 22.5366 36.05 22.4035 35.725 22.5898C35.375 22.7761 35.25 23.2284 35.425 23.6009ZM33.075 22.0044C33.275 22.4302 33.775 22.5632 34.175 22.3503C34.575 22.1109 34.725 21.6053 34.5 21.1796C34.3 20.7539 33.8 20.5942 33.4 20.8337C33.025 21.0466 32.875 21.5787 33.075 22.0044ZM30.35 21.2328C30.575 21.7118 31.15 21.8714 31.575 21.6319C32.025 21.3659 32.2 20.7805 31.95 20.3015C31.7 19.8226 31.15 19.6364 30.725 19.9024C30.275 20.1419 30.125 20.7539 30.35 21.2328ZM27.525 21.3392C27.8 21.8714 28.425 22.0843 28.925 21.7916C29.425 21.4989 29.625 20.8337 29.35 20.2749C29.075 19.7428 28.425 19.5565 27.925 19.8758C27.45 20.1951 27.275 20.8337 27.525 21.3392ZM37.2 25.8625C37.35 26.1552 37.7 26.2616 37.975 26.102C38.25 25.9423 38.35 25.5965 38.225 25.2772C38.075 24.9845 37.725 24.8514 37.45 25.0111C37.15 25.1707 37.025 25.5698 37.2 25.8625ZM35.2 37.5698C34.9 36.9579 34.2 36.7184 33.625 37.0377C33.625 37.0377 33.625 37.0377 33.6 37.0377C33.025 37.357 32.825 38.102 33.125 38.714C33.125 38.714 33.125 38.714 33.125 38.7406C33.425 39.3525 34.15 39.5654 34.725 39.2461C35.3 38.9268 35.5 38.1818 35.2 37.5698ZM24.575 36.3725C24.4 36.0266 23.975 35.8936 23.65 36.0798C23.325 36.2661 23.2 36.7184 23.375 37.0643C23.55 37.4102 23.95 37.5432 24.3 37.357C24.3 37.357 24.3 37.357 24.325 37.357C24.625 37.1707 24.75 36.7184 24.575 36.3725ZM26.925 37.9423C26.7 37.5166 26.225 37.3836 25.825 37.5964C25.425 37.8093 25.275 38.3149 25.5 38.7406C25.5 38.7406 25.5 38.7406 25.5 38.7672C25.7 39.1929 26.2 39.3525 26.6 39.1131C27 38.9002 27.15 38.3681 26.925 37.9423ZM29.65 38.7406C29.425 38.2616 28.85 38.102 28.4 38.3415C27.95 38.6075 27.8 39.1929 28.025 39.6718C28.275 40.1508 28.825 40.337 29.275 40.0709C29.725 39.8049 29.9 39.2195 29.65 38.7406ZM32.5 38.6075C32.225 38.0754 31.6 37.8625 31.1 38.1552C30.6 38.4479 30.425 39.1131 30.7 39.6452C30.95 40.1774 31.575 40.3902 32.075 40.0976C32.075 40.0976 32.1 40.0976 32.1 40.0709C32.575 39.8315 32.75 39.1397 32.5 38.6075ZM38.925 28.9756C39.275 28.7627 39.4 28.3104 39.225 27.9645C39.05 27.6186 38.625 27.4856 38.3 27.6718C37.975 27.8581 37.825 28.3104 38 28.6563C38 28.6563 38 28.6563 38 28.6829C38.175 29.0022 38.6 29.1353 38.925 28.9756ZM39.05 31.9823C39.45 31.7428 39.575 31.2372 39.375 30.8115C39.175 30.3858 38.675 30.2262 38.3 30.4656C37.9 30.7051 37.75 31.2106 37.975 31.6364C38.175 32.0355 38.675 32.1951 39.05 31.9823ZM38.325 34.8825C38.775 34.6164 38.95 34.031 38.7 33.5521C38.45 33.0732 37.9 32.8869 37.45 33.153C37 33.4191 36.825 34.0044 37.075 34.4834C37.325 34.9357 37.875 35.122 38.325 34.8825ZM36.825 37.357C37.325 37.0909 37.525 36.3991 37.25 35.867C36.975 35.3348 36.35 35.1219 35.85 35.4146C35.35 35.7073 35.15 36.3725 35.425 36.9047C35.7 37.4634 36.3 37.6497 36.825 37.357C36.825 37.3836 36.825 37.3836 36.825 37.357ZM34.825 18.1996C34.6 19.051 33.75 19.5299 32.95 19.2905C32.15 19.051 31.7 18.1463 31.925 17.2949C31.925 17.2949 31.925 17.2949 31.925 17.2683C32.175 16.4168 33 15.9379 33.8 16.1774C34.625 16.4701 35.075 17.3481 34.825 18.1996ZM20.325 22.0044C19.925 21.898 19.5 22.1375 19.375 22.5632C19.275 22.9889 19.525 23.4146 19.925 23.5211C20.3 23.6275 20.7 23.388 20.825 22.9889C20.95 22.5898 20.7 22.1375 20.325 22.0044ZM22.95 18.9446C22.45 18.7849 21.95 19.0776 21.8 19.6098C21.65 20.1153 21.925 20.6741 22.425 20.8337C22.925 20.9933 23.425 20.6741 23.575 20.1685C23.7 19.6364 23.425 19.1042 22.95 18.9446ZM26.3 16.7627C25.675 16.5765 25.025 16.949 24.85 17.6142C24.675 18.2794 25.025 18.9712 25.65 19.1574C26.275 19.3437 26.925 18.9712 27.1 18.3326C27.275 17.6674 26.925 16.9756 26.3 16.7627ZM30.025 15.8847C29.325 15.6718 28.6 16.071 28.375 16.816C28.175 17.561 28.575 18.3326 29.25 18.5455C29.95 18.7583 30.675 18.3326 30.875 17.5876C31.125 16.8958 30.75 16.0976 30.025 15.8847C30.05 15.8847 30.05 15.8847 30.025 15.8847ZM18.65 25.8093C18.35 25.7295 18.05 25.8891 17.975 26.2084C17.875 26.5277 18.05 26.847 18.35 26.9534C18.65 27.0333 18.95 26.8736 19.05 26.5543C19.125 26.235 18.95 25.9157 18.65 25.8093ZM41.275 29.4013C41.15 29.827 41.375 30.2528 41.775 30.3858C42.175 30.5188 42.575 30.2794 42.7 29.8537C42.825 29.4279 42.6 29.0022 42.2 28.8692C41.8 28.7361 41.4 28.9756 41.275 29.4013ZM40.4 25.4102C40.25 25.9423 40.525 26.4745 41.025 26.6341C41.525 26.7938 42.025 26.5011 42.175 25.969C42.325 25.4368 42.05 24.9047 41.55 24.745C41.075 24.612 40.55 24.9047 40.4 25.4102ZM38.375 21.8448C38.2 22.51 38.55 23.2018 39.175 23.388C39.8 23.5743 40.45 23.2018 40.625 22.5366C40.8 21.8714 40.45 21.1796 39.85 20.9933C39.2 20.8071 38.55 21.1796 38.375 21.8448ZM35.5 19.051C35.3 19.796 35.7 20.5676 36.4 20.7805C37.1 20.9933 37.825 20.5676 38.025 19.8226C38.225 19.0776 37.825 18.306 37.15 18.0931C36.45 17.8803 35.725 18.306 35.5 19.051ZM40.975 33.4191C40.9 33.7384 41.05 34.0576 41.35 34.1641C41.65 34.2705 41.95 34.0843 42.05 33.765C42.15 33.4457 41.975 33.1264 41.675 33.02C41.375 32.9135 41.05 33.0998 40.975 33.4191ZM28.075 42.6785C28.325 41.8271 27.85 40.9224 27.05 40.6829C26.25 40.4435 25.4 40.9224 25.175 41.7738C24.925 42.6253 25.4 43.5299 26.2 43.7694C27 44.0355 27.85 43.5299 28.075 42.6785ZM18.725 30.5721C18.85 30.1463 18.625 29.7206 18.225 29.5876C17.825 29.4545 17.425 29.7206 17.3 30.1197C17.175 30.5455 17.4 30.9712 17.8 31.1042C18.2 31.2373 18.6 30.9978 18.725 30.5721ZM19.6 34.5366C19.75 34.031 19.475 33.4723 18.975 33.3392C18.5 33.1796 17.975 33.4723 17.825 33.9778V34.0044C17.675 34.5366 17.975 35.0687 18.45 35.2284C18.95 35.3614 19.45 35.0687 19.6 34.5366ZM21.625 38.1286C21.8 37.4634 21.45 36.7716 20.825 36.5588C20.2 36.3725 19.55 36.745 19.375 37.4102C19.2 38.0754 19.55 38.7672 20.15 38.9534C20.8 39.1663 21.45 38.7938 21.625 38.1286ZM24.5 40.9224C24.7 40.1774 24.3 39.4058 23.6 39.1663C22.9 38.9534 22.175 39.3792 21.975 40.0976C21.975 40.0976 21.975 40.0976 21.975 40.1242C21.775 40.8692 22.175 41.6408 22.875 41.8537C23.55 42.0931 24.3 41.6674 24.5 40.9224ZM39.7 37.969C40.1 38.102 40.525 37.8625 40.625 37.4368C40.75 37.0111 40.525 36.5854 40.125 36.4523C39.725 36.3193 39.325 36.5854 39.2 36.9845C39.075 37.3836 39.3 37.8359 39.7 37.969ZM37.075 41.0288C37.55 41.1885 38.075 40.8958 38.225 40.3636C38.375 39.8581 38.1 39.2993 37.625 39.1397C37.125 38.98 36.625 39.2727 36.475 39.8049C36.3 40.337 36.575 40.8692 37.075 41.0288ZM33.7 43.2106C34.325 43.3969 34.975 43.0244 35.15 42.3592C35.325 41.694 34.975 41.0022 34.35 40.816C33.725 40.6297 33.075 41.0022 32.9 41.6674C32.725 42.306 33.075 42.9978 33.7 43.2106ZM29.975 44.0887C30.675 44.3015 31.4 43.9024 31.6 43.1574C31.6 43.1574 31.6 43.1574 31.6 43.1308C31.8 42.3858 31.4 41.6142 30.7 41.3747C30 41.1619 29.275 41.5876 29.05 42.3326C28.875 43.1042 29.275 43.8758 29.975 44.0887ZM42.375 19.0244C41.625 19.8492 40.4 19.9024 39.625 19.1042C38.85 18.3326 38.8 17.0288 39.55 16.1774C40.275 15.3525 41.5 15.2993 42.3 16.071C43.075 16.8692 43.125 18.1996 42.375 19.0244ZM22.975 14.3149C22.6 13.9423 22 13.9423 21.625 14.3681C21.25 14.7672 21.275 15.4058 21.65 15.8049C22.025 16.1774 22.65 16.1774 23 15.7517C23.375 15.3525 23.375 14.714 22.975 14.3149ZM27.85 12.3459C27.375 11.867 26.625 11.8936 26.175 12.3991C25.725 12.9047 25.75 13.7029 26.225 14.1818C26.7 14.6608 27.45 14.6341 27.9 14.1286C28.35 13.6231 28.325 12.8248 27.85 12.3459ZM33.05 11.9468C32.45 11.3348 31.5 11.3614 30.925 12C30.375 12.6652 30.425 13.6763 31.05 14.2616C31.65 14.8204 32.55 14.7938 33.125 14.2084C33.7 13.5698 33.65 12.5588 33.05 11.9468ZM38 13.3038C37.325 12.612 36.25 12.6386 35.6 13.3836C34.95 14.102 35 15.2461 35.675 15.9379C36.35 16.6297 37.425 16.5765 38.075 15.8581C38.7 15.1131 38.675 13.969 38 13.3038ZM18.85 17.7738C18.55 17.4812 18.1 17.5078 17.85 17.8004C17.575 18.0931 17.6 18.5721 17.875 18.8647C18.15 19.1574 18.6 19.1308 18.875 18.8381C19.15 18.5455 19.15 18.0665 18.85 17.7738ZM43.75 36.5588C43.375 36.9579 43.4 37.6231 43.8 37.9956C44.2 38.3681 44.8 38.3415 45.15 37.9157C45.5 37.5166 45.475 36.878 45.1 36.5055C44.725 36.133 44.125 36.133 43.75 36.5588ZM45 31.2905C44.55 31.796 44.575 32.5942 45.05 33.0732C45.525 33.5521 46.275 33.5255 46.725 33.02C47.175 32.5144 47.15 31.7162 46.675 31.2372C46.175 30.7583 45.45 30.7849 45 31.2905ZM44.6 25.7295C44.025 26.3681 44.05 27.3792 44.65 27.9911C45.25 28.6031 46.2 28.5765 46.775 27.9379C47.325 27.2727 47.275 26.2616 46.675 25.6763C46.1 25.0643 45.175 25.1175 44.6 25.7295ZM42.8 20.5676C42.15 21.286 42.2 22.4302 42.875 23.122C43.55 23.8137 44.625 23.7605 45.275 23.0421C45.925 22.3237 45.875 21.1796 45.2 20.4878C44.5 19.8226 43.425 19.8492 42.8 20.5676ZM41.125 41.1353C40.85 41.4545 40.875 41.9335 41.15 42.1996C41.425 42.4922 41.875 42.4656 42.15 42.1729C42.425 41.8803 42.4 41.4013 42.125 41.1086C42.125 41.1086 42.125 41.1086 42.1 41.082C41.85 40.816 41.4 40.816 41.125 41.1353ZM20.45 43.796C21.175 42.9446 21.125 41.6408 20.35 40.8692C19.575 40.0976 18.35 40.1508 17.625 40.949C16.9 41.8004 16.975 43.1042 17.775 43.8758C18.55 44.5942 19.725 44.5676 20.45 43.796ZM16.25 23.4146C16.625 23.0155 16.6 22.3503 16.2 21.9778C15.825 21.5787 15.225 21.6053 14.85 22.0044C14.475 22.4302 14.5 23.0687 14.9 23.4678C15.275 23.8404 15.875 23.8137 16.25 23.4146ZM15.025 28.6829C15.475 28.1774 15.45 27.3792 14.975 26.9002C14.475 26.4479 13.75 26.4745 13.3 27.0066C12.875 27.5122 12.9 28.2572 13.35 28.7361C13.825 29.2151 14.575 29.1885 15.025 28.6829ZM15.4 34.2439C15.975 33.6053 15.95 32.5942 15.325 31.9823C14.725 31.3703 13.775 31.3969 13.2 32.0621C12.625 32.7007 12.65 33.7117 13.275 34.3237C13.875 34.9091 14.825 34.8825 15.4 34.2439ZM17.225 39.4058C17.875 38.6874 17.825 37.5432 17.15 36.8514C16.475 36.1596 15.4 36.2129 14.775 36.9313C14.125 37.6497 14.15 38.7938 14.825 39.4856C15.5 40.1508 16.575 40.1242 17.225 39.4058ZM37.025 45.6585C37.4 46.0576 38.025 46.031 38.375 45.6053C38.725 45.2062 38.725 44.5676 38.325 44.1685C37.95 43.7694 37.35 43.796 36.975 44.1951C36.625 44.6208 36.65 45.2594 37.025 45.6585ZM32.175 47.6275C32.65 48.1064 33.4 48.0798 33.85 47.5743C34.3 47.0687 34.275 46.2705 33.8 45.7916C33.325 45.3126 32.575 45.3392 32.125 45.8448C31.675 46.3503 31.7 47.1486 32.175 47.6275ZM26.95 48.0266C27.55 48.6386 28.5 48.612 29.075 47.9734C29.65 47.3348 29.625 46.3237 29.025 45.7117C28.425 45.0998 27.475 45.1264 26.9 45.765C26.3 46.4035 26.35 47.4146 26.95 48.0266ZM22.025 46.6696C22.7 47.3614 23.775 47.3082 24.4 46.5898C25.05 45.8714 25 44.7273 24.325 44.0355C23.65 43.3437 22.575 43.3969 21.925 44.1153C21.3 44.8603 21.35 46.0044 22.025 46.6696ZM50.275 23.4146C49.075 23.9734 47.7 23.3614 47.175 22.1109C46.675 20.8337 47.225 19.3437 48.4 18.8115C49.6 18.2794 50.975 18.918 51.475 20.1951C51.95 21.4191 51.425 22.8559 50.275 23.4146ZM33.725 7.45011C33.575 6.7051 32.9 6.22616 32.2 6.3592C31.5 6.49224 31.05 7.23725 31.175 7.98226C31.35 8.72727 32.05 9.1796 32.75 9.01995C33.4 8.86031 33.825 8.16851 33.725 7.45011ZM39.3 8.72727C39.075 7.82262 38.225 7.29047 37.4 7.50333C36.55 7.71619 36.05 8.64745 36.25 9.5255C36.475 10.4302 37.325 10.9623 38.175 10.7228C39.025 10.5366 39.525 9.63193 39.3 8.72727ZM44.45 11.388C44.125 10.2971 43.025 9.68514 42 10.0044C40.975 10.3503 40.375 11.5211 40.7 12.612C41.05 13.7029 42.175 14.2882 43.2 13.9157C44.2 13.5698 44.75 12.4523 44.45 11.388ZM48.575 15.2727C48.15 14.0754 46.925 13.4634 45.8 13.9157C44.675 14.3415 44.1 15.6718 44.525 16.8692C44.95 18.0665 46.175 18.6785 47.3 18.2262C48.4 17.8004 48.975 16.4701 48.575 15.2727ZM22.525 8.99335C22.325 8.4878 21.75 8.24834 21.275 8.4612C20.8 8.70066 20.575 9.28603 20.8 9.79157C21 10.2971 21.575 10.5366 22.05 10.3237C22.525 10.1109 22.75 9.49889 22.525 8.99335ZM46.15 42.2528C45.575 42.7051 45.45 43.5831 45.875 44.1951C46.3 44.7805 47.075 44.9401 47.65 44.5144C48.225 44.0621 48.375 43.2106 47.95 42.5987C47.55 41.9601 46.725 41.8004 46.15 42.2528ZM48.725 36.8514C47.975 37.3304 47.75 38.3681 48.2 39.1663C48.65 39.9645 49.625 40.204 50.375 39.7251C50.4 39.7251 50.4 39.6984 50.425 39.6984C51.15 39.1929 51.35 38.1552 50.875 37.3836C50.4 36.612 49.45 36.3725 48.725 36.8514ZM49.95 30.7583C49 31.3171 48.675 32.5942 49.2 33.6053C49.725 34.6164 50.925 34.9623 51.875 34.4035C52.825 33.8448 53.15 32.5676 52.625 31.5565C52.1 30.5721 50.9 30.1996 49.95 30.7583ZM49.875 24.6652C48.8 25.2239 48.375 26.6075 48.9 27.7517C49.425 28.8958 50.725 29.3481 51.8 28.7894C52.875 28.2306 53.3 26.847 52.775 25.7029C52.25 24.5854 50.95 24.1064 49.875 24.6652ZM37.975 49.6497C37.5 49.8625 37.275 50.4745 37.475 50.98C37.675 51.4856 38.25 51.7251 38.725 51.5122C39.2 51.2993 39.425 50.6874 39.225 50.1818C39 49.6763 38.45 49.4368 37.975 49.6497ZM11.6 41.1619C12.8 40.6031 13.35 39.1397 12.825 37.8625C12.3 36.5854 10.925 36 9.725 36.5588C8.525 37.0909 7.975 38.5809 8.5 39.8581C9 41.1353 10.4 41.7206 11.6 41.1619ZM13.85 17.7206C14.45 17.2949 14.575 16.4169 14.15 15.8049C13.75 15.1663 12.95 15.0333 12.35 15.459C11.775 15.9113 11.625 16.7627 12.025 17.3747C12.45 18.0133 13.275 18.1729 13.85 17.7206ZM11.275 23.122C12 22.6164 12.225 21.5787 11.75 20.8071C11.3 20.0355 10.325 19.796 9.575 20.2749C8.825 20.7539 8.625 21.8182 9.1 22.5898C9.55 23.388 10.525 23.6275 11.275 23.122ZM10.05 29.2151C11 28.6829 11.375 27.4058 10.875 26.3947C10.375 25.3836 9.175 24.9845 8.225 25.5166C8.2 25.5432 8.15 25.5432 8.125 25.5698C7.175 26.1286 6.85 27.4058 7.375 28.4169C7.9 29.4013 9.1 29.7738 10.05 29.2151ZM10.125 35.3082C11.2 34.7494 11.625 33.3659 11.1 32.2217C10.575 31.0776 9.275 30.6253 8.2 31.184C8.2 31.184 8.2 31.184 8.175 31.184C7.1 31.7428 6.675 33.1264 7.2 34.2705C7.75 35.388 9.05 35.867 10.125 35.3082ZM26.275 52.5233C26.425 53.2683 27.1 53.7738 27.8 53.6142C28.5 53.4545 28.95 52.7361 28.825 51.9911C28.675 51.2461 28 50.7672 27.3 50.9002C26.6 51.0599 26.15 51.7783 26.275 52.5233ZM20.7 51.2461C20.9 52.1508 21.775 52.6829 22.6 52.4701C23.45 52.2306 23.95 51.3259 23.725 50.4213C23.5 49.5166 22.65 48.9845 21.8 49.2239C21 49.4368 20.475 50.3415 20.7 51.2461ZM15.55 48.5854C15.875 49.6763 16.95 50.2882 18 49.969C18 49.969 18 49.969 18.025 49.969C19.05 49.6231 19.65 48.4523 19.325 47.3614C19 46.2705 17.9 45.6319 16.85 45.9778C15.8 46.3237 15.225 47.4945 15.55 48.5854ZM11.45 44.7007C11.85 45.898 13.1 46.51 14.225 46.0577C14.225 46.0577 14.225 46.0577 14.25 46.0577C15.375 45.6053 15.9 44.2483 15.475 43.0776C15.05 41.9335 13.85 41.3481 12.75 41.7472C11.6 42.1729 11.025 43.5033 11.45 44.7007ZM42.425 46.7228C42 47.0953 41.95 47.7871 42.3 48.2395C42.65 48.6652 43.25 48.745 43.675 48.3991C44.125 48.0532 44.225 47.3614 43.875 46.8825C43.525 46.4035 42.9 46.2971 42.45 46.6696C42.475 46.6962 42.45 46.7228 42.425 46.7228ZM32.9 51.0865C32.35 51.1663 31.95 51.7251 32.05 52.3104C32.125 52.8958 32.65 53.3215 33.2 53.2151C33.75 53.1353 34.15 52.5765 34.05 51.9911C33.975 51.4324 33.475 51.0067 32.9 51.0865ZM27.95 7.63636C27.875 7.051 27.35 6.62528 26.8 6.73171C26.25 6.81153 25.85 7.37029 25.95 7.95565C26.025 8.54102 26.55 8.96674 27.1 8.86031C27.65 8.78049 28.05 8.24834 27.95 7.63636ZM17.725 11.7339C17.375 11.255 16.75 11.1752 16.3 11.5477C15.85 11.9202 15.775 12.612 16.125 13.0643C16.475 13.5432 17.125 13.6231 17.55 13.2506C18 12.878 18.075 12.1863 17.725 11.7339ZM56.975 33.2062C55.3 33.2062 53.95 31.7694 53.95 29.9867C53.95 28.204 55.3 26.7672 56.95 26.7672C56.95 26.7672 56.95 26.7672 56.975 26.7672C58.65 26.7672 60 28.204 60 29.9601C60 31.7694 58.65 33.2062 56.975 33.2062ZM45.125 5.48115C45.325 4.52328 44.75 3.59202 43.85 3.37916C42.95 3.1663 42.075 3.77827 41.875 4.73614C41.675 5.69401 42.25 6.62528 43.15 6.83814C44.05 7.051 44.925 6.43902 45.125 5.48115ZM51.075 10.0044C51.25 8.8337 50.5 7.74279 49.4 7.55654C48.3 7.3969 47.275 8.22173 47.125 9.39246C46.975 10.5366 47.7 11.6009 48.775 11.7871C49.875 12 50.9 11.2018 51.075 10.0044ZM58.85 22.6962C58.925 21.0732 57.75 19.6896 56.225 19.5831C54.7 19.5033 53.4 20.7273 53.3 22.3503C53.2 23.9734 54.375 25.3836 55.9 25.49C57.425 25.5965 58.75 24.3459 58.85 22.7228C58.85 22.7494 58.85 22.7228 58.85 22.6962ZM31.225 1.27716C31.225 0.558758 30.675 0 30 0C29.325 0.0266075 28.8 0.611973 28.825 1.33038C28.85 1.99557 29.35 2.55432 30 2.58093C30.675 2.55432 31.225 1.99557 31.225 1.27716ZM43.15 53.1353C42.25 53.3481 41.675 54.2794 41.875 55.2372C42.075 56.1951 42.95 56.8071 43.85 56.5942C44.75 56.3814 45.325 55.4501 45.125 54.4922C44.925 53.5344 44.05 52.9224 43.15 53.1353ZM48.775 48.1596C47.675 48.3459 46.9 49.4368 47.075 50.6075C47.25 51.7783 48.275 52.6031 49.375 52.4169C49.4 52.4169 49.4 52.4169 49.425 52.4169C50.525 52.2306 51.275 51.1131 51.075 49.9423C50.875 48.7982 49.85 48 48.775 48.1596ZM53.1 41.6674C51.725 41.827 50.725 43.1308 50.85 44.6208C50.975 46.1109 52.225 47.1486 53.625 47.0155C55 46.8559 56 45.5521 55.875 44.0887C55.725 42.5987 54.475 41.5344 53.1 41.6674ZM55.925 34.4568C54.4 34.5366 53.225 35.9468 53.3 37.5698C53.375 39.1929 54.675 40.4435 56.2 40.3636C56.2 40.3636 56.2 40.3636 56.225 40.3636C57.75 40.2838 58.925 38.9002 58.85 37.2772C58.75 35.6275 57.45 34.3769 55.925 34.4568ZM30 57.4191C29.325 57.4457 28.8 58.031 28.825 58.7494C28.85 59.4412 29.35 60 30 60C30.675 60 31.2 59.4146 31.2 58.7228C31.2 58.031 30.675 57.4191 30 57.4191ZM3.025 33.2062C4.7 33.2062 6.05 31.7694 6.05 29.9867C6.05 28.204 4.7 26.7672 3.05 26.7672C1.35 26.7672 0 28.204 0 29.9867C0 31.7694 1.35 33.2062 3.025 33.2062ZM16.85 6.83814C17.75 6.65188 18.325 5.69401 18.15 4.73614C17.95 3.77827 17.075 3.1663 16.175 3.37916C15.25 3.59202 14.675 4.52328 14.875 5.48115C15.075 6.43902 15.95 7.051 16.85 6.83814ZM11.25 11.8137C12.35 11.6275 13.1 10.51 12.925 9.33924C12.75 8.16851 11.7 7.37029 10.6 7.55654C9.5 7.74279 8.75 8.8337 8.925 10.0044C9.1 11.1752 10.15 12 11.25 11.8137ZM6.9 18.2794C8.275 18.0931 9.25 16.7627 9.075 15.2993C8.9 13.8625 7.7 12.8514 6.375 12.9579C5 13.1175 4 14.4213 4.125 15.8847C4.275 17.3747 5.525 18.439 6.9 18.2794ZM54.275 18.2794C55.65 18.0931 56.625 16.7361 56.45 15.2727C56.275 13.8625 55.1 12.8248 53.75 12.9579C52.375 13.1175 51.375 14.4213 51.5 15.8847C51.65 17.3747 52.9 18.439 54.275 18.2794ZM4.075 25.49C5.6 25.4102 6.775 24.0266 6.7 22.3769C6.625 20.7805 5.325 19.5299 3.8 19.6098C3.8 19.6098 3.8 19.6098 3.775 19.6098C2.25 19.6896 1.075 21.0732 1.15 22.6962C1.25 24.3459 2.55 25.5965 4.075 25.49ZM14.875 54.4922C14.675 55.4501 15.25 56.3814 16.15 56.5942C17.05 56.8071 17.925 56.1951 18.125 55.2372C18.325 54.2794 17.75 53.3481 16.85 53.1353C15.95 52.9224 15.075 53.5344 14.875 54.4922ZM8.925 49.9423C8.75 51.1131 9.5 52.204 10.6 52.3902C11.7 52.5765 12.725 51.7783 12.9 50.6075C13.075 49.4368 12.325 48.3459 11.225 48.1596C10.15 47.9734 9.1 48.7716 8.925 49.9423ZM4.125 44.0621C3.975 45.5255 4.975 46.8559 6.35 47.0155C7.725 47.1752 8.975 46.1109 9.125 44.6474C9.275 43.184 8.275 41.8537 6.875 41.694C5.525 41.5344 4.275 42.5987 4.125 44.0621ZM1.15 37.2506C1.075 38.8736 2.25 40.2572 3.775 40.3636C5.3 40.4435 6.6 39.2195 6.7 37.5964C6.7 37.5964 6.7 37.5965 6.7 37.5698C6.775 35.9468 5.6 34.5632 4.075 34.4568C2.55 34.3769 1.25 35.6275 1.15 37.2506ZM36.65 56.3814C35.95 56.5676 35.55 57.3392 35.725 58.0843C35.9 58.8293 36.625 59.255 37.325 59.0687C38.025 58.8825 38.425 58.1109 38.25 57.3659C38.05 56.6208 37.35 56.1951 36.65 56.3814ZM23.35 56.3814C22.65 56.1951 21.95 56.6474 21.775 57.3925C21.6 58.1109 22 58.8559 22.675 59.0421C23.375 59.255 24.1 58.8293 24.3 58.1109C24.5 57.3659 24.1 56.5942 23.425 56.3814C23.4 56.3814 23.375 56.3814 23.35 56.3814ZM38.25 2.60754C38.425 1.86253 38.025 1.11752 37.325 0.904656C36.625 0.745011 35.925 1.19734 35.775 1.96896C35.625 2.66075 36 3.37916 36.65 3.59202C37.35 3.77827 38.05 3.35255 38.25 2.60754ZM24.275 1.88914C24.1 1.14412 23.375 0.718404 22.675 0.904656C21.975 1.11752 21.575 1.86253 21.75 2.60754C21.925 3.35255 22.65 3.77827 23.35 3.59202C24.05 3.37916 24.475 2.63415 24.275 1.88914Z"
      fill="currentColor" />
  </symbol>

  <symbol id="icon-geo" viewBox="0 0 32 32" fill="none" xmlns="http://www.w3.org/2000/svg">
    <path
      d="M24.332 17.88C23.284 20.004 21.864 22.12 20.412 24.02C19.0346 25.8112 17.5618 27.527 16 29.16C14.4382 27.5271 12.9654 25.8113 11.588 24.02C10.136 22.12 8.716 20.004 7.668 17.88C6.608 15.734 6 13.724 6 12C6 9.34784 7.05357 6.8043 8.92893 4.92893C10.8043 3.05357 13.3478 2 16 2C18.6522 2 21.1957 3.05357 23.0711 4.92893C24.9464 6.8043 26 9.34784 26 12C26 13.724 25.39 15.734 24.332 17.88ZM16 32C16 32 28 20.628 28 12C28 8.8174 26.7357 5.76516 24.4853 3.51472C22.2348 1.26428 19.1826 0 16 0C12.8174 0 9.76516 1.26428 7.51472 3.51472C5.26428 5.76516 4 8.8174 4 12C4 20.628 16 32 16 32Z"
      fill="currentColor" />
    <path
      d="M16 16C14.9391 16 13.9217 15.5786 13.1716 14.8284C12.4214 14.0783 12 13.0609 12 12C12 10.9391 12.4214 9.92172 13.1716 9.17157C13.9217 8.42143 14.9391 8 16 8C17.0609 8 18.0783 8.42143 18.8284 9.17157C19.5786 9.92172 20 10.9391 20 12C20 13.0609 19.5786 14.0783 18.8284 14.8284C18.0783 15.5786 17.0609 16 16 16ZM16 18C17.5913 18 19.1174 17.3679 20.2426 16.2426C21.3679 15.1174 22 13.5913 22 12C22 10.4087 21.3679 8.88258 20.2426 7.75736C19.1174 6.63214 17.5913 6 16 6C14.4087 6 12.8826 6.63214 11.7574 7.75736C10.6321 8.88258 10 10.4087 10 12C10 13.5913 10.6321 15.1174 11.7574 16.2426C12.8826 17.3679 14.4087 18 16 18Z"
      fill="currentColor" />
  </symbol>

  <symbol id="icon-search" viewBox="0 0 32 32" fill="none" xmlns="http://www.w3.org/2000/svg">
    <path
      d="M14.6667 8C18.3485 8 21.3333 10.9848 21.3333 14.6667M22.2117 22.2065L28 28M25.3333 14.6667C25.3333 20.5577 20.5577 25.3333 14.6667 25.3333C8.77563 25.3333 4 20.5577 4 14.6667C4 8.77563 8.77563 4 14.6667 4C20.5577 4 25.3333 8.77563 25.3333 14.6667Z"
      stroke="currentColor" stroke-width="2.5" stroke-linecap="round" stroke-linejoin="round" />
  </symbol>

  <symbol id="icon-burger" viewBox="0 0 32 32" fill="none" xmlns="http://www.w3.org/2000/svg">
    <path fill-rule="evenodd" clip-rule="evenodd"
      d="M0 8C0 7.44772 0.397969 7 0.888889 7H31.1111C31.602 7 32 7.44772 32 8C32 8.55228 31.602 9 31.1111 9H0.888889C0.397969 9 0 8.55228 0 8Z"
      fill="currentColor" />
    <path fill-rule="evenodd" clip-rule="evenodd"
      d="M4 16C4 15.4477 4.29848 15 4.66667 15H27.3333C27.7015 15 28 15.4477 28 16C28 16.5523 27.7015 17 27.3333 17H4.66667C4.29848 17 4 16.5523 4 16Z"
      fill="currentColor" />
    <path fill-rule="evenodd" clip-rule="evenodd"
      d="M0 24C0 23.4477 0.397969 23 0.888889 23H31.1111C31.602 23 32 23.4477 32 24C32 24.5523 31.602 25 31.1111 25H0.888889C0.397969 25 0 24.5523 0 24Z"
      fill="currentColor" />
  </symbol>

  <symbol id="icon-burger-close" viewBox="0 0 32 32" fill="none" xmlns="http://www.w3.org/2000/svg">
    <path fill-rule="evenodd" clip-rule="evenodd"
      d="M4.70711 27.7071C4.31658 27.3166 4.28141 26.7186 4.62854 26.3715L25.9989 5.00112C26.346 4.65399 26.944 4.68917 27.3345 5.07969C27.725 5.47021 27.7602 6.0682 27.4131 6.41534L6.04275 27.7857C5.69562 28.1328 5.09763 28.0976 4.70711 27.7071Z"
      fill="currentColor" />
    <path fill-rule="evenodd" clip-rule="evenodd"
      d="M4.7072 4.70711C5.09772 4.31658 5.69571 4.28141 6.04285 4.62854L27.4132 25.9989C27.7603 26.346 27.7251 26.944 27.3346 27.3345C26.9441 27.725 26.3461 27.7602 25.999 27.4131L4.62863 6.04275C4.2815 5.69562 4.31668 5.09763 4.7072 4.70711Z"
      fill="currentColor" />
  </symbol>

  <symbol id="icon-ok" viewBox="0 0 30 30" fill="none" xmlns="http://www.w3.org/2000/svg">
    <path
      d="M18.245 21.8005L22.7283 26.1288C23.6467 27.0135 23.6467 28.4503 22.7283 29.336C21.8108 30.2217 20.3237 30.2217 19.4072 29.336L14.9992 25.0828L10.595 29.336C10.1358 29.7784 9.53405 29.9998 8.93231 29.9998C8.33152 29.9998 7.73073 29.7784 7.27151 29.336C6.35402 28.4503 6.35402 27.0144 7.27055 26.1288L11.7544 21.8005C10.1219 21.4416 8.54746 20.8172 7.09732 19.9389C5.99988 19.271 5.67021 17.8716 6.36169 16.8113C7.05125 15.7497 8.50139 15.4301 9.60075 16.098C12.884 18.0916 17.1134 18.0921 20.3986 16.098C21.4979 15.4301 22.9476 15.7497 23.6386 16.8113C24.3301 17.8707 23.9994 19.271 22.902 19.9389C21.4519 20.8181 19.8774 21.4416 18.245 21.8005Z"
      fill="white" />
    <path fill-rule="evenodd" clip-rule="evenodd"
      d="M6.95996 7.74204C6.95996 12.01 10.557 15.4818 14.9799 15.4818C19.4037 15.4818 22.9998 12.01 22.9998 7.74204C22.9998 3.47266 19.4037 0 14.9799 0C10.557 0 6.95996 3.47266 6.95996 7.74204ZM18.3004 7.74118C18.3004 5.97359 16.8109 4.53625 14.9797 4.53625C13.15 4.53625 11.6591 5.97359 11.6591 7.74118C11.6591 9.50739 13.15 10.9456 14.9797 10.9456C16.8109 10.9456 18.3004 9.50739 18.3004 7.74118Z"
      fill="white" />
  </symbol>

  <symbol id="icon-youtube" viewBox="0 0 30 30" fill="none" xmlns="http://www.w3.org/2000/svg">
    <path fill-rule="evenodd" clip-rule="evenodd"
      d="M26.7206 4.62695C28.0115 4.97193 29.0281 5.98839 29.3731 7.27922C30 9.61869 30 14.5 30 14.5C30 14.5 30 19.3811 29.3731 21.7208C29.0281 23.0116 28.0115 24.0281 26.7206 24.3732C24.3813 25 15 25 15 25C15 25 5.61869 25 3.2792 24.3732C1.98835 24.0281 0.971761 23.0116 0.626761 21.7208C0 19.3811 0 14.5 0 14.5C0 14.5 0 9.61869 0.626761 7.27922C0.971761 5.98839 1.98835 4.97193 3.2792 4.62695C5.61869 4 15 4 15 4C15 4 24.3813 4 26.7206 4.62695ZM12.1875 10.3917V19.5221L19.6875 14.9571L12.1875 10.3917Z"
      fill="white" />
  </symbol>

  <symbol id="icon-vk" viewBox="0 0 30 30" fill="none" xmlns="http://www.w3.org/2000/svg">
    <path
      d="M29.4887 5.36422C29.3577 4.12168 28.8041 2.96177 27.9205 2.07845C27.0368 1.19512 25.8767 0.641934 24.6342 0.511382C18.232 -0.175018 11.7749 -0.175018 5.37278 0.511382C4.12897 0.640465 2.96728 1.193 2.08227 2.07646C1.19726 2.95992 0.642685 4.12064 0.51142 5.36422C-0.172101 11.7693 -0.172101 18.229 0.51142 24.6341C0.643871 25.8763 1.19789 27.0355 2.08121 27.9189C2.96453 28.8022 4.12381 29.3562 5.36597 29.4886C11.7681 30.175 18.2252 30.175 24.6273 29.4886C25.8707 29.3577 27.0316 28.8043 27.9163 27.9208C28.801 27.0374 29.356 25.8773 29.4887 24.6341C30.1722 18.229 30.1722 11.7693 29.4887 5.36422ZM23.4768 20.3642C23.0404 20.4256 20.9063 20.3642 20.7955 20.3642C20.2425 20.3705 19.7094 20.1579 19.3126 19.7727C18.8626 19.3381 18.4603 18.8608 18.0205 18.4091C17.8909 18.2705 17.7501 18.1428 17.5995 18.0273C17.2484 17.758 16.9006 17.8193 16.7353 18.2335C16.6061 18.6811 16.516 19.1391 16.466 19.6023C16.437 20.0199 16.1711 20.2841 15.7006 20.3114C15.4091 20.3284 15.1177 20.3335 14.8296 20.3267C13.7796 20.3195 12.7463 20.0636 11.8143 19.5801C10.8057 19.0187 9.92692 18.2509 9.23528 17.3267C8.09835 15.8744 7.18983 14.279 6.37847 12.6341C6.33585 12.5506 5.50403 10.783 5.48358 10.6977C5.40858 10.4199 5.48358 10.1523 5.71369 10.0585C5.86028 10.0023 8.60119 10.0585 8.64722 10.0585C8.85107 10.0574 9.05002 10.121 9.21543 10.2402C9.38084 10.3593 9.50417 10.5279 9.56767 10.7216C10.0744 12.019 10.7681 13.2352 11.6268 14.3318C11.747 14.4779 11.8876 14.606 12.0444 14.7119C12.2677 14.8654 12.479 14.8125 12.5711 14.5534C12.6803 14.1963 12.7444 13.827 12.762 13.454C12.7773 12.7142 12.762 12.2284 12.7211 11.4887C12.6938 11.0148 12.5268 10.6006 11.8279 10.4659C11.6131 10.4267 11.5944 10.2494 11.7324 10.0722C12.0205 9.7057 12.4143 9.64604 12.8557 9.62559C13.5137 9.58638 14.1716 9.61195 14.8296 9.62559H14.9728C15.2591 9.62313 15.5449 9.65171 15.8251 9.71081C15.9906 9.74516 16.1408 9.83178 16.2534 9.95791C16.366 10.084 16.4352 10.243 16.4506 10.4114C16.4845 10.598 16.4988 10.7877 16.4932 10.9773C16.4762 11.7835 16.437 12.5915 16.4285 13.3977C16.4205 13.7176 16.4497 14.0374 16.5154 14.3506C16.6091 14.7818 16.904 14.8875 17.1972 14.5773C17.5772 14.1777 17.9254 13.7492 18.2387 13.2955C18.7937 12.4667 19.2512 11.5768 19.6023 10.6432C19.7932 10.1642 19.9432 10.0585 20.4546 10.0585H23.3626C23.5355 10.0555 23.7078 10.0785 23.8739 10.1267C23.9327 10.1422 23.9877 10.1696 24.0354 10.2073C24.0831 10.2449 24.1225 10.292 24.1511 10.3456C24.1797 10.3993 24.197 10.4582 24.2018 10.5188C24.2066 10.5794 24.1989 10.6403 24.179 10.6977C24.0359 11.3369 23.6915 11.879 23.3268 12.4023C22.7353 13.2392 22.1114 14.0557 21.5063 14.8824C21.4294 14.9916 21.3594 15.1054 21.2966 15.2233C21.0682 15.6341 21.0853 15.8642 21.416 16.2051C21.9444 16.7489 22.5086 17.2568 23.0182 17.8159C23.3921 18.2227 23.7297 18.6613 24.0273 19.1267C24.4006 19.7063 24.1705 20.2585 23.4751 20.3574L23.4768 20.3642Z"
      fill="white" />
  </symbol>

  <symbol id="icon-tg" viewBox="0 0 30 30" fill="none" xmlns="http://www.w3.org/2000/svg">
    <mask id="mask0_18_1112" style="mask-type:luminance" maskUnits="userSpaceOnUse" x="0" y="5" width="30" height="20">
      <path fill-rule="evenodd" clip-rule="evenodd" d="M0 5H30V25H0V5Z" fill="white" />
    </mask>
    <g mask="url(#mask0_18_1112)">
      <path fill-rule="evenodd" clip-rule="evenodd"
        d="M30 6.60691C29.8424 7.16614 29.6783 7.72425 29.5284 8.2848C28.5589 11.9097 27.5926 15.5352 26.6248 19.1604C26.208 20.7217 25.7943 22.2836 25.3678 23.8431C25.3123 24.0458 25.2136 24.2471 25.0917 24.4307C24.7657 24.9213 24.2289 25.1063 23.568 24.9407C23.2667 24.8652 22.9632 24.7548 22.7086 24.6072C20.5526 23.3573 18.4077 22.095 16.2592 20.8366C16.1814 20.7911 16.1017 20.7476 16.0089 20.6953C15.9376 20.744 15.8703 20.7858 15.8088 20.8326C14.6996 21.6782 13.5903 22.5237 12.483 23.371C12.1531 23.6233 11.7777 23.7752 11.2843 23.7524C11.3251 23.2643 11.3626 22.7919 11.4046 22.3198C11.4926 21.3312 11.5829 20.3428 11.6725 19.3543C11.6866 19.1987 11.7374 19.0393 11.7118 18.8882C11.6153 18.3182 12.0158 17.9878 12.505 17.639C16.4822 14.8024 20.4402 11.9486 24.404 9.09987C24.4621 9.05812 24.5374 9.02294 24.5717 8.97082C24.6345 8.87521 24.6726 8.76923 24.7211 8.66756C24.5873 8.6375 24.4393 8.56288 24.3226 8.58663C24.0821 8.63543 23.8409 8.71455 23.6302 8.81985C18.4638 11.4013 13.3012 13.9875 8.13906 16.5746C7.99406 16.6472 7.86959 16.6874 7.68344 16.6404C5.49344 16.0872 3.29851 15.5467 1.10866 14.993C0.843724 14.926 0.580036 14.8259 0.35336 14.6984C-0.0727417 14.4587 -0.124042 14.1077 0.257161 13.8243C0.536387 13.6167 0.874489 13.4325 1.22735 13.3203C3.07238 12.7337 4.92999 12.1726 6.78408 11.6042C13.8276 9.44538 20.8711 7.2865 27.9167 5.132C28.1408 5.06344 28.3852 5.01833 28.6242 5.00364C29.258 4.96477 29.7281 5.23917 29.9218 5.73204C29.9446 5.79009 29.9738 5.84664 30 5.90389V6.60691Z"
        fill="white" />
    </g>
  </symbol>

  <symbol id="icon-phone" viewBox="0 0 22 22" fill="none" xmlns="http://www.w3.org/2000/svg">
    <path
      d="M21.4193 16.0868L18.5966 13.264C17.8416 12.509 16.5989 12.4945 15.8266 13.2317L14.2498 14.7365C11.823 13.3743 8.62569 10.177 7.26345 7.75012L8.76831 6.17343C9.5055 5.40099 9.49096 4.15837 8.73598 3.40343L5.91323 0.580726C5.51196 0.179356 4.99978 -0.0205976 4.433 0.00167714C3.8659 0.024235 3.37156 0.264349 3.00341 0.696158L0.135973 4.05917C0.0504607 4.1595 0.00260784 4.28645 0.000672967 4.41826C-0.0231119 6.03025 0.583685 7.9134 1.80412 10.0153C2.89794 11.8992 4.43423 13.8531 6.24693 15.6658C9.31918 18.738 13.8738 22.0003 17.4938 22C17.523 22 17.5527 21.9998 17.5817 21.9993C17.7135 21.9974 17.8405 21.9495 17.9408 21.864L21.3038 18.9966C21.7356 18.6284 21.9757 18.1341 21.9983 17.567C22.0208 16.9999 21.8206 16.488 21.4193 16.0868ZM20.5689 18.1347L17.3662 20.8655C14.6623 20.7917 10.6444 18.4615 7.04783 14.8649C3.4473 11.2644 1.20195 7.37065 1.13423 4.63402L3.86533 1.43094C4.02758 1.24061 4.228 1.14326 4.47803 1.1333C4.72777 1.12424 4.93546 1.20451 5.11234 1.38148L7.93509 4.20424C8.25863 4.52779 8.26486 5.06035 7.94896 5.39136L6.16179 7.2639C5.99662 7.43695 5.95802 7.69509 6.06533 7.90892C7.46887 10.7057 11.2942 14.5311 14.091 15.9346C14.3047 16.0419 14.5629 16.0033 14.736 15.8381L16.6085 14.0509C16.9396 13.735 17.4721 13.7412 17.7957 14.0648L20.6184 16.8876C20.7954 17.0644 20.8765 17.272 20.8666 17.5219C20.8567 17.772 20.7593 17.9724 20.5689 18.1347Z"
      fill="white" />
  </symbol>

  <symbol id="icon-ok-footer" viewbox="0 0 10 16" fill="none">
    <path
      d="M6.5993 11.5519L8.8105 13.6866C9.26349 14.1229 9.26349 14.8316 8.8105 15.2684C8.35799 15.7052 7.62455 15.7052 7.17251 15.2684L4.99846 13.1707L2.8263 15.2684C2.59981 15.4866 2.30303 15.5958 2.00624 15.5958C1.70993 15.5958 1.41362 15.4866 1.18713 15.2684C0.734616 14.8316 0.734616 14.1234 1.18666 13.6866L3.3981 11.5519C2.59295 11.3748 1.81643 11.0669 1.10122 10.6337C0.559953 10.3043 0.397361 9.61413 0.738402 9.0912C1.0785 8.56758 1.79371 8.40995 2.33592 8.73938C3.95522 9.72265 6.04123 9.72288 7.66147 8.73938C8.20368 8.40995 8.91866 8.56758 9.25947 9.0912C9.60051 9.61367 9.43744 10.3043 8.89618 10.6337C8.18096 11.0673 7.40445 11.3748 6.5993 11.5519Z"
      fill="white"></path>
    <path fill-rule="evenodd" clip-rule="evenodd"
      d="M1.03346 4.61832C1.03346 6.7233 2.80754 8.43556 4.98893 8.43556C7.17079 8.43556 8.94439 6.7233 8.94439 4.61832C8.94439 2.51265 7.17079 0.799927 4.98893 0.799927C2.80754 0.799927 1.03346 2.51265 1.03346 4.61832ZM6.62662 4.61791C6.62662 3.74613 5.892 3.03723 4.98886 3.03723C4.08644 3.03723 3.35111 3.74613 3.35111 4.61791C3.35111 5.48901 4.08644 6.19836 4.98886 6.19836C5.892 6.19836 6.62662 5.48901 6.62662 4.61791Z"
      fill="white"></path>
  </symbol>
  <symbol viewbox="0 0 15 12" fill="none" id="icon-tg-footer">
    <mask id="mask0_10_337" style="mask-type:luminance" maskUnits="userSpaceOnUse" x="0" y="0" width="15" height="12">
      <path fill-rule="evenodd" clip-rule="evenodd" d="M0.125 0.166687H14.825V11.8334H0.125V0.166687Z" fill="white" />
    </mask>
    <g mask="url(#mask0_10_337)">
      <path fill-rule="evenodd" clip-rule="evenodd"
        d="M14.825 1.10405C14.7478 1.43027 14.6674 1.75583 14.5939 2.08282C14.1189 4.19736 13.6454 6.31222 13.1712 8.42694C12.9669 9.33769 12.7642 10.2488 12.5552 11.1585C12.528 11.2767 12.4796 11.3942 12.4199 11.5013C12.2602 11.7874 11.9971 11.8954 11.6733 11.7988C11.5257 11.7547 11.377 11.6903 11.2522 11.6042C10.1958 10.8751 9.14475 10.1388 8.092 9.40472C8.0539 9.37815 8.01483 9.35278 7.96938 9.32227C7.93445 9.3507 7.90143 9.37505 7.87132 9.40239C7.32782 9.89564 6.78425 10.3888 6.24167 10.8831C6.08002 11.0303 5.89606 11.1189 5.65429 11.1056C5.6743 10.8209 5.69266 10.5453 5.71325 10.2699C5.75637 9.69325 5.8006 9.11667 5.84452 8.54002C5.85145 8.44925 5.87632 8.35629 5.8638 8.26811C5.81651 7.93563 6.01275 7.7429 6.25246 7.53942C8.20128 5.88474 10.1407 4.22003 12.083 2.55828C12.1114 2.53393 12.1483 2.5134 12.1651 2.483C12.1959 2.42723 12.2146 2.3654 12.2383 2.30609C12.1728 2.28856 12.1003 2.24504 12.0431 2.25889C11.9252 2.28736 11.8071 2.33351 11.7038 2.39493C9.17226 3.90077 6.64257 5.40942 4.11314 6.91851C4.04209 6.9609 3.9811 6.98434 3.88989 6.95693C2.81678 6.63425 1.74127 6.31893 0.668244 5.99595C0.538425 5.95688 0.409218 5.89848 0.298146 5.82408C0.0893566 5.68424 0.0642192 5.47952 0.251009 5.31421C0.38783 5.19311 0.553499 5.08565 0.7264 5.02021C1.63047 4.67803 2.54069 4.35068 3.4492 4.01914C6.90052 2.75983 10.3518 1.50048 13.8042 0.243685C13.914 0.203696 14.0338 0.177377 14.1508 0.16881C14.4614 0.146137 14.6918 0.306202 14.7867 0.593708C14.7979 0.627573 14.8121 0.660563 14.825 0.693954V1.10405Z"
        fill="white" />
    </g>
  </symbol>
  <symbol viewbox="0 0 17 9" fill="none" id="icon-vk-footer">
    <path fill-rule="evenodd" clip-rule="evenodd"
      d="M16.0729 0.983064C16.1885 0.654255 16.0729 0.415104 15.5607 0.415104H13.859C13.4294 0.415104 13.2312 0.624339 13.1155 0.848575C13.1155 0.848575 12.2399 2.76173 11.0173 4.00227C10.6207 4.361 10.439 4.48057 10.2243 4.48057C10.1086 4.48057 9.95992 4.361 9.95992 4.03219V0.968106C9.95992 0.579509 9.82774 0.400146 9.46424 0.400146H6.78777C6.52342 0.400146 6.35822 0.579509 6.35822 0.758872C6.35822 1.13256 6.9695 1.22221 7.03558 2.26848V4.54036C7.03558 5.03362 6.93648 5.12328 6.72168 5.12328C6.14343 5.12328 4.7391 3.19516 3.8965 0.998022C3.73126 0.564551 3.56606 0.400146 3.13652 0.400146H1.41824C0.922608 0.400146 0.839996 0.609425 0.839996 0.833617C0.839996 1.23717 1.41824 3.26991 3.533 5.9603C4.93737 7.79872 6.93648 8.78519 8.73733 8.78519C9.82774 8.78519 9.95992 8.561 9.95992 8.18736V6.79733C9.95992 6.3489 10.059 6.2742 10.406 6.2742C10.6538 6.2742 11.0999 6.39373 12.1077 7.27559C13.2642 8.32185 13.4625 8.80015 14.1068 8.80015H15.8085C16.3042 8.80015 16.5355 8.57595 16.4033 8.14248C16.2546 7.70906 15.6929 7.08131 14.9659 6.33394C14.5694 5.91547 13.9746 5.45213 13.7929 5.22789C13.5451 4.929 13.6112 4.80943 13.7929 4.54036C13.7764 4.54036 15.8581 1.87988 16.0729 0.983064Z"
      fill="white" />
  </symbol>
  <symbol viewbox="0 0 14 10" fill="none" id="icon-yt-footer">
    <path fill-rule="evenodd" clip-rule="evenodd"
      d="M12.0008 0.87464C12.5516 1.02577 12.9853 1.47108 13.1325 2.03658C13.4 3.06149 13.4 5.19997 13.4 5.19997C13.4 5.19997 13.4 7.33838 13.1325 8.36336C12.9853 8.92887 12.5516 9.37418 12.0008 9.52538C11.0027 9.79997 7.00001 9.79997 7.00001 9.79997C7.00001 9.79997 2.99732 9.79997 1.99913 9.52538C1.44837 9.37418 1.01462 8.92887 0.867424 8.36336C0.600006 7.33838 0.600006 5.19997 0.600006 5.19997C0.600006 5.19997 0.600006 3.06149 0.867424 2.03658C1.01462 1.47108 1.44837 1.02577 1.99913 0.87464C2.99732 0.599976 7.00001 0.599976 7.00001 0.599976C7.00001 0.599976 11.0027 0.599976 12.0008 0.87464ZM5.79998 3.40017V7.40017L8.99998 5.40025L5.79998 3.40017Z"
      fill="white"></path>
  </symbol>

  <symbol viewbox="0 0 60 58" fill="none" id="icon-logo-footer">
    <path
      d="M26.9 20.75C27.2 21.325 27 22.025 26.425 22.35C25.85 22.65 25.125 22.45 24.825 21.875C24.5 21.3 24.725 20.575 25.3 20.275C25.85 19.95 26.575 20.175 26.9 20.75C26.875 20.75 26.875 20.75 26.9 20.75ZM21.075 29.95C20.75 30.125 20.625 30.55 20.8 30.9C20.975 31.225 21.4 31.35 21.725 31.175C21.725 31.175 21.725 31.175 21.75 31.175C22.075 31 22.225 30.6 22.05 30.25V30.225C21.825 29.9 21.4 29.775 21.075 29.95ZM20.95 27.125C20.55 27.35 20.425 27.825 20.625 28.225C20.85 28.625 21.325 28.775 21.725 28.55C22.125 28.325 22.275 27.85 22.05 27.45C21.85 27.05 21.35 26.9 20.95 27.125ZM21.7 24.4C21.25 24.65 21.075 25.2 21.325 25.65C21.575 26.1 22.125 26.275 22.575 26.025C23.025 25.775 23.2 25.225 22.95 24.775C22.7 24.325 22.125 24.15 21.7 24.4ZM23.175 22.05C22.675 22.3 22.5 22.95 22.75 23.45C22.75 23.45 22.75 23.45 22.75 23.475C23.025 23.975 23.65 24.175 24.15 23.9C24.65 23.625 24.85 23 24.575 22.5C24.325 21.975 23.7 21.775 23.175 22.05C23.2 22.05 23.2 22.05 23.175 22.05ZM22.05 32.65C21.775 32.8 21.675 33.15 21.825 33.425C21.975 33.7 22.325 33.8 22.6 33.65C22.875 33.5 22.975 33.15 22.825 32.85C22.675 32.6 22.325 32.5 22.05 32.65ZM35.425 23C35.6 23.325 36.025 23.45 36.375 23.275C36.7 23.1 36.825 22.675 36.65 22.325C36.475 22 36.05 21.875 35.725 22.05C35.375 22.225 35.25 22.65 35.425 23ZM33.075 21.5C33.275 21.9 33.775 22.025 34.175 21.825C34.575 21.6 34.725 21.125 34.5 20.725C34.3 20.325 33.8 20.175 33.4 20.4C33.025 20.6 32.875 21.1 33.075 21.5ZM30.35 20.775C30.575 21.225 31.15 21.375 31.575 21.15C32.025 20.9 32.2 20.35 31.95 19.9C31.7 19.45 31.15 19.275 30.725 19.525C30.275 19.75 30.125 20.325 30.35 20.775ZM27.525 20.875C27.8 21.375 28.425 21.575 28.925 21.3C29.425 21.025 29.625 20.4 29.35 19.875C29.075 19.375 28.425 19.2 27.925 19.5C27.45 19.8 27.275 20.4 27.525 20.875ZM37.2 25.125C37.35 25.4 37.7 25.5 37.975 25.35C38.25 25.2 38.35 24.875 38.225 24.575C38.075 24.3 37.725 24.175 37.45 24.325C37.15 24.475 37.025 24.85 37.2 25.125ZM35.2 36.125C34.9 35.55 34.2 35.325 33.625 35.625C33.625 35.625 33.625 35.625 33.6 35.625C33.025 35.925 32.825 36.625 33.125 37.2C33.125 37.2 33.125 37.2 33.125 37.225C33.425 37.8 34.15 38 34.725 37.7C35.3 37.4 35.5 36.7 35.2 36.125ZM24.575 35C24.4 34.675 23.975 34.55 23.65 34.725C23.325 34.9 23.2 35.325 23.375 35.65C23.55 35.975 23.95 36.1 24.3 35.925C24.3 35.925 24.3 35.925 24.325 35.925C24.625 35.75 24.75 35.325 24.575 35ZM26.925 36.475C26.7 36.075 26.225 35.95 25.825 36.15C25.425 36.35 25.275 36.825 25.5 37.225C25.5 37.225 25.5 37.225 25.5 37.25C25.7 37.65 26.2 37.8 26.6 37.575C27 37.375 27.15 36.875 26.925 36.475ZM29.65 37.225C29.425 36.775 28.85 36.625 28.4 36.85C27.95 37.1 27.8 37.65 28.025 38.1C28.275 38.55 28.825 38.725 29.275 38.475C29.725 38.225 29.9 37.675 29.65 37.225ZM32.5 37.1C32.225 36.6 31.6 36.4 31.1 36.675C30.6 36.95 30.425 37.575 30.7 38.075C30.95 38.575 31.575 38.775 32.075 38.5C32.075 38.5 32.1 38.5 32.1 38.475C32.575 38.25 32.75 37.6 32.5 37.1ZM38.925 28.05C39.275 27.85 39.4 27.425 39.225 27.1C39.05 26.775 38.625 26.65 38.3 26.825C37.975 27 37.825 27.425 38 27.75C38 27.75 38 27.75 38 27.775C38.175 28.075 38.6 28.2 38.925 28.05ZM39.05 30.875C39.45 30.65 39.575 30.175 39.375 29.775C39.175 29.375 38.675 29.225 38.3 29.45C37.9 29.675 37.75 30.15 37.975 30.55C38.175 30.925 38.675 31.075 39.05 30.875ZM38.325 33.6C38.775 33.35 38.95 32.8 38.7 32.35C38.45 31.9 37.9 31.725 37.45 31.975C37 32.225 36.825 32.775 37.075 33.225C37.325 33.65 37.875 33.825 38.325 33.6ZM36.825 35.925C37.325 35.675 37.525 35.025 37.25 34.525C36.975 34.025 36.35 33.825 35.85 34.1C35.35 34.375 35.15 35 35.425 35.5C35.7 36.025 36.3 36.2 36.825 35.925C36.825 35.95 36.825 35.95 36.825 35.925ZM34.825 17.925C34.6 18.725 33.75 19.175 32.95 18.95C32.15 18.725 31.7 17.875 31.925 17.075C31.925 17.075 31.925 17.075 31.925 17.05C32.175 16.25 33 15.8 33.8 16.025C34.625 16.3 35.075 17.125 34.825 17.925ZM20.325 21.5C19.925 21.4 19.5 21.625 19.375 22.025C19.275 22.425 19.525 22.825 19.925 22.925C20.3 23.025 20.7 22.8 20.825 22.425C20.95 22.05 20.7 21.625 20.325 21.5ZM22.95 18.625C22.45 18.475 21.95 18.75 21.8 19.25C21.65 19.725 21.925 20.25 22.425 20.4C22.925 20.55 23.425 20.25 23.575 19.775C23.7 19.275 23.425 18.775 22.95 18.625ZM26.3 16.575C25.675 16.4 25.025 16.75 24.85 17.375C24.675 18 25.025 18.65 25.65 18.825C26.275 19 26.925 18.65 27.1 18.05C27.275 17.425 26.925 16.775 26.3 16.575ZM30.025 15.75C29.325 15.55 28.6 15.925 28.375 16.625C28.175 17.325 28.575 18.05 29.25 18.25C29.95 18.45 30.675 18.05 30.875 17.35C31.125 16.7 30.75 15.95 30.025 15.75C30.05 15.75 30.05 15.75 30.025 15.75ZM18.65 25.075C18.35 25 18.05 25.15 17.975 25.45C17.875 25.75 18.05 26.05 18.35 26.15C18.65 26.225 18.95 26.075 19.05 25.775C19.125 25.475 18.95 25.175 18.65 25.075ZM41.275 28.45C41.15 28.85 41.375 29.25 41.775 29.375C42.175 29.5 42.575 29.275 42.7 28.875C42.825 28.475 42.6 28.075 42.2 27.95C41.8 27.825 41.4 28.05 41.275 28.45ZM40.4 24.7C40.25 25.2 40.525 25.7 41.025 25.85C41.525 26 42.025 25.725 42.175 25.225C42.325 24.725 42.05 24.225 41.55 24.075C41.075 23.95 40.55 24.225 40.4 24.7ZM38.375 21.35C38.2 21.975 38.55 22.625 39.175 22.8C39.8 22.975 40.45 22.625 40.625 22C40.8 21.375 40.45 20.725 39.85 20.55C39.2 20.375 38.55 20.725 38.375 21.35ZM35.5 18.725C35.3 19.425 35.7 20.15 36.4 20.35C37.1 20.55 37.825 20.15 38.025 19.45C38.225 18.75 37.825 18.025 37.15 17.825C36.45 17.625 35.725 18.025 35.5 18.725ZM40.975 32.225C40.9 32.525 41.05 32.825 41.35 32.925C41.65 33.025 41.95 32.85 42.05 32.55C42.15 32.25 41.975 31.95 41.675 31.85C41.375 31.75 41.05 31.925 40.975 32.225ZM28.075 40.925C28.325 40.125 27.85 39.275 27.05 39.05C26.25 38.825 25.4 39.275 25.175 40.075C24.925 40.875 25.4 41.725 26.2 41.95C27 42.2 27.85 41.725 28.075 40.925ZM18.725 29.55C18.85 29.15 18.625 28.75 18.225 28.625C17.825 28.5 17.425 28.75 17.3 29.125C17.175 29.525 17.4 29.925 17.8 30.05C18.2 30.175 18.6 29.95 18.725 29.55ZM19.6 33.275C19.75 32.8 19.475 32.275 18.975 32.15C18.5 32 17.975 32.275 17.825 32.75V32.775C17.675 33.275 17.975 33.775 18.45 33.925C18.95 34.05 19.45 33.775 19.6 33.275ZM21.625 36.65C21.8 36.025 21.45 35.375 20.825 35.175C20.2 35 19.55 35.35 19.375 35.975C19.2 36.6 19.55 37.25 20.15 37.425C20.8 37.625 21.45 37.275 21.625 36.65ZM24.5 39.275C24.7 38.575 24.3 37.85 23.6 37.625C22.9 37.425 22.175 37.825 21.975 38.5C21.975 38.5 21.975 38.5 21.975 38.525C21.775 39.225 22.175 39.95 22.875 40.15C23.55 40.375 24.3 39.975 24.5 39.275ZM39.7 36.5C40.1 36.625 40.525 36.4 40.625 36C40.75 35.6 40.525 35.2 40.125 35.075C39.725 34.95 39.325 35.2 39.2 35.575C39.075 35.95 39.3 36.375 39.7 36.5ZM37.075 39.375C37.55 39.525 38.075 39.25 38.225 38.75C38.375 38.275 38.1 37.75 37.625 37.6C37.125 37.45 36.625 37.725 36.475 38.225C36.3 38.725 36.575 39.225 37.075 39.375ZM33.7 41.425C34.325 41.6 34.975 41.25 35.15 40.625C35.325 40 34.975 39.35 34.35 39.175C33.725 39 33.075 39.35 32.9 39.975C32.725 40.575 33.075 41.225 33.7 41.425ZM29.975 42.25C30.675 42.45 31.4 42.075 31.6 41.375C31.6 41.375 31.6 41.375 31.6 41.35C31.8 40.65 31.4 39.925 30.7 39.7C30 39.5 29.275 39.9 29.05 40.6C28.875 41.325 29.275 42.05 29.975 42.25ZM42.375 18.7C41.625 19.475 40.4 19.525 39.625 18.775C38.85 18.05 38.8 16.825 39.55 16.025C40.275 15.25 41.5 15.2 42.3 15.925C43.075 16.675 43.125 17.925 42.375 18.7ZM22.975 14.275C22.6 13.925 22 13.925 21.625 14.325C21.25 14.7 21.275 15.3 21.65 15.675C22.025 16.025 22.65 16.025 23 15.625C23.375 15.25 23.375 14.65 22.975 14.275ZM27.85 12.425C27.375 11.975 26.625 12 26.175 12.475C25.725 12.95 25.75 13.7 26.225 14.15C26.7 14.6 27.45 14.575 27.9 14.1C28.35 13.625 28.325 12.875 27.85 12.425ZM33.05 12.05C32.45 11.475 31.5 11.5 30.925 12.1C30.375 12.725 30.425 13.675 31.05 14.225C31.65 14.75 32.55 14.725 33.125 14.175C33.7 13.575 33.65 12.625 33.05 12.05ZM38 13.325C37.325 12.675 36.25 12.7 35.6 13.4C34.95 14.075 35 15.15 35.675 15.8C36.35 16.45 37.425 16.4 38.075 15.725C38.7 15.025 38.675 13.95 38 13.325ZM18.85 17.525C18.55 17.25 18.1 17.275 17.85 17.55C17.575 17.825 17.6 18.275 17.875 18.55C18.15 18.825 18.6 18.8 18.875 18.525C19.15 18.25 19.15 17.8 18.85 17.525ZM43.75 35.175C43.375 35.55 43.4 36.175 43.8 36.525C44.2 36.875 44.8 36.85 45.15 36.45C45.5 36.075 45.475 35.475 45.1 35.125C44.725 34.775 44.125 34.775 43.75 35.175ZM45 30.225C44.55 30.7 44.575 31.45 45.05 31.9C45.525 32.35 46.275 32.325 46.725 31.85C47.175 31.375 47.15 30.625 46.675 30.175C46.175 29.725 45.45 29.75 45 30.225ZM44.6 25C44.025 25.6 44.05 26.55 44.65 27.125C45.25 27.7 46.2 27.675 46.775 27.075C47.325 26.45 47.275 25.5 46.675 24.95C46.1 24.375 45.175 24.425 44.6 25ZM42.8 20.15C42.15 20.825 42.2 21.9 42.875 22.55C43.55 23.2 44.625 23.15 45.275 22.475C45.925 21.8 45.875 20.725 45.2 20.075C44.5 19.45 43.425 19.475 42.8 20.15ZM41.125 39.475C40.85 39.775 40.875 40.225 41.15 40.475C41.425 40.75 41.875 40.725 42.15 40.45C42.425 40.175 42.4 39.725 42.125 39.45C42.125 39.45 42.125 39.45 42.1 39.425C41.85 39.175 41.4 39.175 41.125 39.475ZM20.45 41.975C21.175 41.175 21.125 39.95 20.35 39.225C19.575 38.5 18.35 38.55 17.625 39.3C16.9 40.1 16.975 41.325 17.775 42.05C18.55 42.725 19.725 42.7 20.45 41.975ZM16.25 22.825C16.625 22.45 16.6 21.825 16.2 21.475C15.825 21.1 15.225 21.125 14.85 21.5C14.475 21.9 14.5 22.5 14.9 22.875C15.275 23.225 15.875 23.2 16.25 22.825ZM15.025 27.775C15.475 27.3 15.45 26.55 14.975 26.1C14.475 25.675 13.75 25.7 13.3 26.2C12.875 26.675 12.9 27.375 13.35 27.825C13.825 28.275 14.575 28.25 15.025 27.775ZM15.4 33C15.975 32.4 15.95 31.45 15.325 30.875C14.725 30.3 13.775 30.325 13.2 30.95C12.625 31.55 12.65 32.5 13.275 33.075C13.875 33.625 14.825 33.6 15.4 33ZM17.225 37.85C17.875 37.175 17.825 36.1 17.15 35.45C16.475 34.8 15.4 34.85 14.775 35.525C14.125 36.2 14.15 37.275 14.825 37.925C15.5 38.55 16.575 38.525 17.225 37.85ZM37.025 43.725C37.4 44.1 38.025 44.075 38.375 43.675C38.725 43.3 38.725 42.7 38.325 42.325C37.95 41.95 37.35 41.975 36.975 42.35C36.625 42.75 36.65 43.35 37.025 43.725ZM32.175 45.575C32.65 46.025 33.4 46 33.85 45.525C34.3 45.05 34.275 44.3 33.8 43.85C33.325 43.4 32.575 43.425 32.125 43.9C31.675 44.375 31.7 45.125 32.175 45.575ZM26.95 45.95C27.55 46.525 28.5 46.5 29.075 45.9C29.65 45.3 29.625 44.35 29.025 43.775C28.425 43.2 27.475 43.225 26.9 43.825C26.3 44.425 26.35 45.375 26.95 45.95ZM22.025 44.675C22.7 45.325 23.775 45.275 24.4 44.6C25.05 43.925 25 42.85 24.325 42.2C23.65 41.55 22.575 41.6 21.925 42.275C21.3 42.975 21.35 44.05 22.025 44.675ZM50.275 22.825C49.075 23.35 47.7 22.775 47.175 21.6C46.675 20.4 47.225 19 48.4 18.5C49.6 18 50.975 18.6 51.475 19.8C51.95 20.95 51.425 22.3 50.275 22.825ZM33.725 7.825C33.575 7.125 32.9 6.675 32.2 6.8C31.5 6.925 31.05 7.625 31.175 8.325C31.35 9.025 32.05 9.45 32.75 9.3C33.4 9.15 33.825 8.5 33.725 7.825ZM39.3 9.025C39.075 8.175 38.225 7.675 37.4 7.875C36.55 8.075 36.05 8.95 36.25 9.775C36.475 10.625 37.325 11.125 38.175 10.9C39.025 10.725 39.525 9.875 39.3 9.025ZM44.45 11.525C44.125 10.5 43.025 9.925 42 10.225C40.975 10.55 40.375 11.65 40.7 12.675C41.05 13.7 42.175 14.25 43.2 13.9C44.2 13.575 44.75 12.525 44.45 11.525ZM48.575 15.175C48.15 14.05 46.925 13.475 45.8 13.9C44.675 14.3 44.1 15.55 44.525 16.675C44.95 17.8 46.175 18.375 47.3 17.95C48.4 17.55 48.975 16.3 48.575 15.175ZM22.525 9.275C22.325 8.8 21.75 8.575 21.275 8.775C20.8 9 20.575 9.55 20.8 10.025C21 10.5 21.575 10.725 22.05 10.525C22.525 10.325 22.75 9.75 22.525 9.275ZM46.15 40.525C45.575 40.95 45.45 41.775 45.875 42.35C46.3 42.9 47.075 43.05 47.65 42.65C48.225 42.225 48.375 41.425 47.95 40.85C47.55 40.25 46.725 40.1 46.15 40.525ZM48.725 35.45C47.975 35.9 47.75 36.875 48.2 37.625C48.65 38.375 49.625 38.6 50.375 38.15C50.4 38.15 50.4 38.125 50.425 38.125C51.15 37.65 51.35 36.675 50.875 35.95C50.4 35.225 49.45 35 48.725 35.45ZM49.95 29.725C49 30.25 48.675 31.45 49.2 32.4C49.725 33.35 50.925 33.675 51.875 33.15C52.825 32.625 53.15 31.425 52.625 30.475C52.1 29.55 50.9 29.2 49.95 29.725ZM49.875 24C48.8 24.525 48.375 25.825 48.9 26.9C49.425 27.975 50.725 28.4 51.8 27.875C52.875 27.35 53.3 26.05 52.775 24.975C52.25 23.925 50.95 23.475 49.875 24ZM37.975 47.475C37.5 47.675 37.275 48.25 37.475 48.725C37.675 49.2 38.25 49.425 38.725 49.225C39.2 49.025 39.425 48.45 39.225 47.975C39 47.5 38.45 47.275 37.975 47.475ZM11.6 39.5C12.8 38.975 13.35 37.6 12.825 36.4C12.3 35.2 10.925 34.65 9.725 35.175C8.525 35.675 7.975 37.075 8.5 38.275C9 39.475 10.4 40.025 11.6 39.5ZM13.85 17.475C14.45 17.075 14.575 16.25 14.15 15.675C13.75 15.075 12.95 14.95 12.35 15.35C11.775 15.775 11.625 16.575 12.025 17.15C12.45 17.75 13.275 17.9 13.85 17.475ZM11.275 22.55C12 22.075 12.225 21.1 11.75 20.375C11.3 19.65 10.325 19.425 9.575 19.875C8.825 20.325 8.625 21.325 9.1 22.05C9.55 22.8 10.525 23.025 11.275 22.55ZM10.05 28.275C11 27.775 11.375 26.575 10.875 25.625C10.375 24.675 9.175 24.3 8.225 24.8C8.2 24.825 8.15 24.825 8.125 24.85C7.175 25.375 6.85 26.575 7.375 27.525C7.9 28.45 9.1 28.8 10.05 28.275ZM10.125 34C11.2 33.475 11.625 32.175 11.1 31.1C10.575 30.025 9.275 29.6 8.2 30.125C8.2 30.125 8.2 30.125 8.175 30.125C7.1 30.65 6.675 31.95 7.2 33.025C7.75 34.075 9.05 34.525 10.125 34ZM26.275 50.175C26.425 50.875 27.1 51.35 27.8 51.2C28.5 51.05 28.95 50.375 28.825 49.675C28.675 48.975 28 48.525 27.3 48.65C26.6 48.8 26.15 49.475 26.275 50.175ZM20.7 48.975C20.9 49.825 21.775 50.325 22.6 50.125C23.45 49.9 23.95 49.05 23.725 48.2C23.5 47.35 22.65 46.85 21.8 47.075C21 47.275 20.475 48.125 20.7 48.975ZM15.55 46.475C15.875 47.5 16.95 48.075 18 47.775C18 47.775 18 47.775 18.025 47.775C19.05 47.45 19.65 46.35 19.325 45.325C19 44.3 17.9 43.7 16.85 44.025C15.8 44.35 15.225 45.45 15.55 46.475ZM11.45 42.825C11.85 43.95 13.1 44.525 14.225 44.1C14.225 44.1 14.225 44.1 14.25 44.1C15.375 43.675 15.9 42.4 15.475 41.3C15.05 40.225 13.85 39.675 12.75 40.05C11.6 40.45 11.025 41.7 11.45 42.825ZM42.425 44.725C42 45.075 41.95 45.725 42.3 46.15C42.65 46.55 43.25 46.625 43.675 46.3C44.125 45.975 44.225 45.325 43.875 44.875C43.525 44.425 42.9 44.325 42.45 44.675C42.475 44.7 42.45 44.725 42.425 44.725ZM32.9 48.825C32.35 48.9 31.95 49.425 32.05 49.975C32.125 50.525 32.65 50.925 33.2 50.825C33.75 50.75 34.15 50.225 34.05 49.675C33.975 49.15 33.475 48.75 32.9 48.825ZM27.95 8C27.875 7.45 27.35 7.05 26.8 7.15C26.25 7.225 25.85 7.75 25.95 8.3C26.025 8.85 26.55 9.25 27.1 9.15C27.65 9.075 28.05 8.575 27.95 8ZM17.725 11.85C17.375 11.4 16.75 11.325 16.3 11.675C15.85 12.025 15.775 12.675 16.125 13.1C16.475 13.55 17.125 13.625 17.55 13.275C18 12.925 18.075 12.275 17.725 11.85ZM56.975 32.025C55.3 32.025 53.95 30.675 53.95 29C53.95 27.325 55.3 25.975 56.95 25.975C56.95 25.975 56.95 25.975 56.975 25.975C58.65 25.975 60 27.325 60 28.975C60 30.675 58.65 32.025 56.975 32.025ZM45.125 5.975C45.325 5.075 44.75 4.2 43.85 4C42.95 3.8 42.075 4.375 41.875 5.275C41.675 6.175 42.25 7.05 43.15 7.25C44.05 7.45 44.925 6.875 45.125 5.975ZM51.075 10.225C51.25 9.125 50.5 8.1 49.4 7.925C48.3 7.775 47.275 8.55 47.125 9.65C46.975 10.725 47.7 11.725 48.775 11.9C49.875 12.1 50.9 11.35 51.075 10.225ZM58.85 22.15C58.925 20.625 57.75 19.325 56.225 19.225C54.7 19.15 53.4 20.3 53.3 21.825C53.2 23.35 54.375 24.675 55.9 24.775C57.425 24.875 58.75 23.7 58.85 22.175C58.85 22.2 58.85 22.175 58.85 22.15ZM31.225 2.025C31.225 1.35 30.675 0.825001 30 0.825001C29.325 0.850001 28.8 1.4 28.825 2.075C28.85 2.7 29.35 3.225 30 3.25C30.675 3.225 31.225 2.7 31.225 2.025ZM43.15 50.75C42.25 50.95 41.675 51.825 41.875 52.725C42.075 53.625 42.95 54.2 43.85 54C44.75 53.8 45.325 52.925 45.125 52.025C44.925 51.125 44.05 50.55 43.15 50.75ZM48.775 46.075C47.675 46.25 46.9 47.275 47.075 48.375C47.25 49.475 48.275 50.25 49.375 50.075C49.4 50.075 49.4 50.075 49.425 50.075C50.525 49.9 51.275 48.85 51.075 47.75C50.875 46.675 49.85 45.925 48.775 46.075ZM53.1 39.975C51.725 40.125 50.725 41.35 50.85 42.75C50.975 44.15 52.225 45.125 53.625 45C55 44.85 56 43.625 55.875 42.25C55.725 40.85 54.475 39.85 53.1 39.975ZM55.925 33.2C54.4 33.275 53.225 34.6 53.3 36.125C53.375 37.65 54.675 38.825 56.2 38.75C56.2 38.75 56.2 38.75 56.225 38.75C57.75 38.675 58.925 37.375 58.85 35.85C58.75 34.3 57.45 33.125 55.925 33.2ZM30 54.775C29.325 54.8 28.8 55.35 28.825 56.025C28.85 56.675 29.35 57.2 30 57.2C30.675 57.2 31.2 56.65 31.2 56C31.2 55.35 30.675 54.775 30 54.775ZM3.025 32.025C4.7 32.025 6.05 30.675 6.05 29C6.05 27.325 4.7 25.975 3.05 25.975C1.35 25.975 0 27.325 0 29C0 30.675 1.35 32.025 3.025 32.025ZM16.85 7.25C17.75 7.075 18.325 6.175 18.15 5.275C17.95 4.375 17.075 3.8 16.175 4C15.25 4.2 14.675 5.075 14.875 5.975C15.075 6.875 15.95 7.45 16.85 7.25ZM11.25 11.925C12.35 11.75 13.1 10.7 12.925 9.6C12.75 8.5 11.7 7.75 10.6 7.925C9.5 8.1 8.75 9.125 8.925 10.225C9.1 11.325 10.15 12.1 11.25 11.925ZM6.9 18C8.275 17.825 9.25 16.575 9.075 15.2C8.9 13.85 7.7 12.9 6.375 13C5 13.15 4 14.375 4.125 15.75C4.275 17.15 5.525 18.15 6.9 18ZM54.275 18C55.65 17.825 56.625 16.55 56.45 15.175C56.275 13.85 55.1 12.875 53.75 13C52.375 13.15 51.375 14.375 51.5 15.75C51.65 17.15 52.9 18.15 54.275 18ZM4.075 24.775C5.6 24.7 6.775 23.4 6.7 21.85C6.625 20.35 5.325 19.175 3.8 19.25C3.8 19.25 3.8 19.25 3.775 19.25C2.25 19.325 1.075 20.625 1.15 22.15C1.25 23.7 2.55 24.875 4.075 24.775ZM14.875 52.025C14.675 52.925 15.25 53.8 16.15 54C17.05 54.2 17.925 53.625 18.125 52.725C18.325 51.825 17.75 50.95 16.85 50.75C15.95 50.55 15.075 51.125 14.875 52.025ZM8.925 47.75C8.75 48.85 9.5 49.875 10.6 50.05C11.7 50.225 12.725 49.475 12.9 48.375C13.075 47.275 12.325 46.25 11.225 46.075C10.15 45.9 9.1 46.65 8.925 47.75ZM4.125 42.225C3.975 43.6 4.975 44.85 6.35 45C7.725 45.15 8.975 44.15 9.125 42.775C9.275 41.4 8.275 40.15 6.875 40C5.525 39.85 4.275 40.85 4.125 42.225ZM1.15 35.825C1.075 37.35 2.25 38.65 3.775 38.75C5.3 38.825 6.6 37.675 6.7 36.15C6.7 36.15 6.7 36.15 6.7 36.125C6.775 34.6 5.6 33.3 4.075 33.2C2.55 33.125 1.25 34.3 1.15 35.825ZM36.65 53.8C35.95 53.975 35.55 54.7 35.725 55.4C35.9 56.1 36.625 56.5 37.325 56.325C38.025 56.15 38.425 55.425 38.25 54.725C38.05 54.025 37.35 53.625 36.65 53.8ZM23.35 53.8C22.65 53.625 21.95 54.05 21.775 54.75C21.6 55.425 22 56.125 22.675 56.3C23.375 56.5 24.1 56.1 24.3 55.425C24.5 54.725 24.1 54 23.425 53.8C23.4 53.8 23.375 53.8 23.35 53.8ZM38.25 3.275C38.425 2.575 38.025 1.875 37.325 1.675C36.625 1.525 35.925 1.95 35.775 2.675C35.625 3.325 36 4 36.65 4.2C37.35 4.375 38.05 3.975 38.25 3.275ZM24.275 2.6C24.1 1.9 23.375 1.5 22.675 1.675C21.975 1.875 21.575 2.575 21.75 3.275C21.925 3.975 22.65 4.375 23.35 4.2C24.05 4 24.475 3.3 24.275 2.6Z"
      fill="white"></path>
  </symbol>

  <symbol id="icon-time" viewBox="0 0 16 16" fill="none" xmlns="http://www.w3.org/2000/svg">
    <path
      d="M7.99994 1C4.14018 1 1 4.14018 1 7.99994C1 11.8598 4.14011 15 7.99987 15C11.8597 15 14.9998 11.8598 14.9998 7.99994C14.9999 4.14018 11.8598 1 7.99994 1ZM7.99994 14.0418C4.66856 14.0418 1.95831 11.3314 1.95831 7.99994C1.95825 4.66856 4.66856 1.95825 7.99994 1.95825C11.3313 1.95825 14.0416 4.66856 14.0416 7.99994C14.0416 11.3314 11.3313 14.0418 7.99994 14.0418Z"
      fill="#696E82" />
    <path
      d="M11.6116 7.90657H8.28637V4.27405C8.28637 4.00944 8.07192 3.79492 7.80725 3.79492C7.54264 3.79492 7.32812 4.00944 7.32812 4.27405V8.3857C7.32812 8.6503 7.54264 8.86482 7.80725 8.86482H11.6116C11.8762 8.86482 12.0907 8.6503 12.0907 8.3857C12.0907 8.12109 11.8762 7.90657 11.6116 7.90657Z"
      fill="#696E82" />
  </symbol>

  <symbol id="icon-eye" viewBox="0 0 16 16" fill="none" xmlns="http://www.w3.org/2000/svg">
    <path
      d="M8 6.00103C7.48665 5.98377 6.98783 6.18451 6.61292 6.55923C6.23801 6.93395 6.01759 7.45207 6 8C6.01759 8.54793 6.23801 9.06605 6.61292 9.44077C6.98783 9.81549 7.48665 10.0162 8 9.99897C8.51335 10.0162 9.01217 9.81549 9.38708 9.44077C9.76199 9.06605 9.98241 8.54793 10 8C9.98241 7.45207 9.76199 6.93395 9.38708 6.55923C9.01217 6.18451 8.51335 5.98377 8 6.00103ZM8 8.99949C7.73537 9.0149 7.47565 8.91881 7.27673 8.73189C7.0778 8.54496 6.95557 8.28215 6.93633 8C6.95557 7.71785 7.0778 7.45504 7.27673 7.26811C7.47565 7.08119 7.73537 6.9851 8 7.00051C8.26463 6.9851 8.52435 7.08119 8.72327 7.26811C8.9222 7.45504 9.04443 7.71785 9.06367 8C9.04443 8.28215 8.9222 8.54496 8.72327 8.73189C8.52435 8.91881 8.26463 9.0149 8 8.99949Z"
      fill="#696E82" />
    <path
      d="M8 8.99949C7.73537 9.0149 7.47565 8.91881 7.27673 8.73189C7.0778 8.54496 6.95557 8.28215 6.93633 8C6.95557 7.71785 7.0778 7.45504 7.27673 7.26811C7.47565 7.08119 7.73537 6.9851 8 7.00051C8.26463 6.9851 8.52435 7.08119 8.72327 7.26811C8.9222 7.45504 9.04443 7.71785 9.06367 8C9.04443 8.28215 8.9222 8.54496 8.72327 8.73189C8.52435 8.91881 8.26463 9.0149 8 8.99949Z"
      fill="#696E82" />
    <path
      d="M8 3.00571C6.25167 2.94316 4.52794 3.39571 3.08613 4.29581C1.64431 5.19592 0.561736 6.4953 0 8C0.561736 9.5047 1.64431 10.8041 3.08613 11.7042C4.52794 12.6043 6.25167 13.0568 8 12.9943C9.74833 13.0568 11.4721 12.6043 12.9139 11.7042C14.3557 10.8041 15.4383 9.5047 16 8C15.4383 6.4953 14.3557 5.19592 12.9139 4.29581C11.4721 3.39571 9.74833 2.94316 8 3.00571ZM13.4 9.8161C12.7193 10.4946 11.8829 11.0292 10.9499 11.3822C10.0168 11.7352 9.00987 11.898 8 11.8592C6.99013 11.898 5.98317 11.7352 5.05015 11.3822C4.11713 11.0292 3.28075 10.4946 2.6 9.8161C2.06914 9.27857 1.63999 8.66489 1.33 8C1.63999 7.33511 2.06914 6.72143 2.6 6.1839C3.28075 5.50543 4.11713 4.97085 5.05015 4.61783C5.98317 4.26482 6.99013 4.10197 8 4.14078C9.00987 4.10197 10.0168 4.26482 10.9499 4.61783C11.8829 4.97085 12.7193 5.50543 13.4 6.1839C13.9309 6.72143 14.36 7.33511 14.67 8C14.36 8.66489 13.9309 9.27857 13.4 9.8161Z"
      fill="#696E82" />
  </symbol>
  <symbol id="icon-burger" viewBox="0 0 32 32" fill="none" xmlns="http://www.w3.org/2000/svg">
    <path fill-rule="evenodd" clip-rule="evenodd"
      d="M0 8C0 7.44772 0.397969 7 0.888889 7H31.1111C31.602 7 32 7.44772 32 8C32 8.55228 31.602 9 31.1111 9H0.888889C0.397969 9 0 8.55228 0 8Z"
      fill="currentColor" />
    <path fill-rule="evenodd" clip-rule="evenodd"
      d="M4 16C4 15.4477 4.29848 15 4.66667 15H27.3333C27.7015 15 28 15.4477 28 16C28 16.5523 27.7015 17 27.3333 17H4.66667C4.29848 17 4 16.5523 4 16Z"
      fill="currentColor" />
    <path fill-rule="evenodd" clip-rule="evenodd"
      d="M0 24C0 23.4477 0.397969 23 0.888889 23H31.1111C31.602 23 32 23.4477 32 24C32 24.5523 31.602 25 31.1111 25H0.888889C0.397969 25 0 24.5523 0 24Z"
      fill="currentColor" />
  </symbol>
</svg>