<svg width="30" height="30" viewBox="0 0 30 30" fill="none" xmlns="http://www.w3.org/2000/svg">
<path fill-rule="evenodd" clip-rule="evenodd" d="M26.7206 4.62695C28.0115 4.97193 29.0281 5.98839 29.3731 7.27922C30 9.61869 30 14.5 30 14.5C30 14.5 30 19.3811 29.3731 21.7208C29.0281 23.0116 28.0115 24.0281 26.7206 24.3732C24.3813 25 15 25 15 25C15 25 5.61869 25 3.2792 24.3732C1.98835 24.0281 0.971761 23.0116 0.626761 21.7208C0 19.3811 0 14.5 0 14.5C0 14.5 0 9.61869 0.626761 7.27922C0.971761 5.98839 1.98835 4.97193 3.2792 4.62695C5.61869 4 15 4 15 4C15 4 24.3813 4 26.7206 4.62695ZM12.1875 10.3917V19.5221L19.6875 14.9571L12.1875 10.3917Z" fill="white"/>
</svg>
