<svg width="150" height="150" viewBox="0 0 150 150" fill="none" xmlns="http://www.w3.org/2000/svg">
	<path
		d="M67.25 53.0155C68 54.5455 67.5 56.408 66.0625 57.2727C64.625 58.071 62.8125 57.5388 62.0625 56.0089C61.25 54.4789 61.8125 52.5499 63.25 51.7517C64.625 50.8869 66.4375 51.4856 67.25 53.0155C67.1875 53.0155 67.1875 53.0155 67.25 53.0155ZM52.6875 77.4945C51.875 77.9601 51.5625 79.0909 52 80.0222C52.4375 80.8869 53.5 81.2195 54.3125 80.7539C54.3125 80.7539 54.3125 80.7539 54.375 80.7539C55.1875 80.2882 55.5625 79.2239 55.125 78.2927V78.2262C54.5625 77.3614 53.5 77.0288 52.6875 77.4945ZM52.375 69.9778C51.375 70.5765 51.0625 71.8403 51.5625 72.9046C52.125 73.9689 53.3125 74.3681 54.3125 73.7694C55.3125 73.1707 55.6875 71.9069 55.125 70.8426C54.625 69.7783 53.375 69.3792 52.375 69.9778ZM54.25 62.7273C53.125 63.3925 52.6875 64.8559 53.3125 66.0532C53.9375 67.2506 55.3125 67.7162 56.4375 67.051C57.5625 66.3858 58 64.9224 57.375 63.7251C56.75 62.5277 55.3125 62.0621 54.25 62.7273ZM57.9375 56.4745C56.6875 57.1397 56.25 58.8692 56.875 60.1996C56.875 60.1996 56.875 60.1996 56.875 60.2661C57.5625 61.5964 59.125 62.1286 60.375 61.3969C61.625 60.6652 62.125 59.0022 61.4375 57.6718C60.8125 56.2749 59.25 55.7428 57.9375 56.4745C58 56.4745 58 56.4745 57.9375 56.4745ZM55.125 84.6785C54.4375 85.0776 54.1875 86.0089 54.5625 86.7406C54.9375 87.4723 55.8125 87.7383 56.5 87.3392C57.1875 86.9401 57.4375 86.0089 57.0625 85.2106C56.6875 84.5454 55.8125 84.2794 55.125 84.6785ZM88.5625 59.0022C89 59.867 90.0625 60.1996 90.9375 59.7339C91.75 59.2683 92.0625 58.1375 91.625 57.2062C91.1875 56.3415 90.125 56.0089 89.3125 56.4745C88.4375 56.9401 88.125 58.071 88.5625 59.0022ZM82.6875 55.0111C83.1875 56.0754 84.4375 56.408 85.4375 55.8758C86.4375 55.2772 86.8125 54.0133 86.25 52.949C85.75 51.8847 84.5 51.4856 83.5 52.0843C82.5625 52.6164 82.1875 53.9468 82.6875 55.0111ZM75.875 53.082C76.4375 54.2794 77.875 54.6785 78.9375 54.0798C80.0625 53.4146 80.5 51.9512 79.875 50.7539C79.25 49.5565 77.875 49.0909 76.8125 49.7561C75.6875 50.3548 75.3125 51.8847 75.875 53.082ZM68.8125 53.3481C69.5 54.6785 71.0625 55.2106 72.3125 54.4789C73.5625 53.7472 74.0625 52.0843 73.375 50.6874C72.6875 49.357 71.0625 48.8913 69.8125 49.6896C68.625 50.4878 68.1875 52.0843 68.8125 53.3481ZM93 64.6563C93.375 65.388 94.25 65.6541 94.9375 65.255C95.625 64.8559 95.875 63.9911 95.5625 63.1929C95.1875 62.4612 94.3125 62.1286 93.625 62.5277C92.875 62.9268 92.5625 63.9246 93 64.6563ZM88 93.9246C87.25 92.3947 85.5 91.796 84.0625 92.5942C84.0625 92.5942 84.0625 92.5942 84 92.5942C82.5625 93.3925 82.0625 95.255 82.8125 96.7849C82.8125 96.7849 82.8125 96.7849 82.8125 96.8514C83.5625 98.3814 85.375 98.9135 86.8125 98.1153C88.25 97.3171 88.75 95.4546 88 93.9246ZM61.4375 90.9313C61 90.0665 59.9375 89.7339 59.125 90.1996C58.3125 90.6652 58 91.796 58.4375 92.6608C58.875 93.5255 59.875 93.8581 60.75 93.3925C60.75 93.3925 60.75 93.3925 60.8125 93.3925C61.5625 92.9268 61.875 91.796 61.4375 90.9313ZM67.3125 94.8559C66.75 93.7916 65.5625 93.459 64.5625 93.9911C63.5625 94.5233 63.1875 95.7871 63.75 96.8514C63.75 96.8514 63.75 96.8514 63.75 96.918C64.25 97.9823 65.5 98.3814 66.5 97.7827C67.5 97.2506 67.875 95.9202 67.3125 94.8559ZM74.125 96.8514C73.5625 95.6541 72.125 95.255 71 95.8537C69.875 96.5188 69.5 97.9823 70.0625 99.1796C70.6875 100.377 72.0625 100.843 73.1875 100.177C74.3125 99.5122 74.75 98.0488 74.125 96.8514ZM81.25 96.5188C80.5625 95.1885 79 94.6563 77.75 95.388C76.5 96.1197 76.0625 97.7827 76.75 99.1131C77.375 100.443 78.9375 100.976 80.1875 100.244C80.1875 100.244 80.25 100.244 80.25 100.177C81.4375 99.5787 81.875 97.8492 81.25 96.5188ZM97.3125 72.439C98.1875 71.9069 98.5 70.7761 98.0625 69.9113C97.625 69.0466 96.5625 68.714 95.75 69.1796C94.9375 69.6452 94.5625 70.7761 95 71.6408C95 71.6408 95 71.6408 95 71.7073C95.4375 72.5055 96.5 72.8381 97.3125 72.439ZM97.625 79.9557C98.625 79.357 98.9375 78.0931 98.4375 77.0288C97.9375 75.9645 96.6875 75.5654 95.75 76.1641C94.75 76.7628 94.375 78.0266 94.9375 79.0909C95.4375 80.0887 96.6875 80.4878 97.625 79.9557ZM95.8125 87.2062C96.9375 86.541 97.375 85.0776 96.75 83.8803C96.125 82.6829 94.75 82.2173 93.625 82.8825C92.5 83.5477 92.0625 85.0111 92.6875 86.2084C93.3125 87.3392 94.6875 87.8049 95.8125 87.2062ZM92.0625 93.3925C93.3125 92.7273 93.8125 90.9978 93.125 89.6674C92.4375 88.337 90.875 87.8049 89.625 88.5366C88.375 89.2683 87.875 90.9313 88.5625 92.2616C89.25 93.6585 90.75 94.1242 92.0625 93.3925C92.0625 93.459 92.0625 93.459 92.0625 93.3925ZM87.0625 45.4989C86.5 47.6275 84.375 48.8248 82.375 48.2262C80.375 47.6275 79.25 45.3659 79.8125 43.2373C79.8125 43.2373 79.8125 43.2372 79.8125 43.1707C80.4375 41.0421 82.5 39.8448 84.5 40.4435C86.5625 41.1752 87.6875 43.3703 87.0625 45.4989ZM50.8125 55.0111C49.8125 54.745 48.75 55.3437 48.4375 56.408C48.1875 57.4723 48.8125 58.5366 49.8125 58.8027C50.75 59.0687 51.75 58.4701 52.0625 57.4723C52.375 56.4745 51.75 55.3437 50.8125 55.0111ZM57.375 47.3614C56.125 46.9623 54.875 47.694 54.5 49.0244C54.125 50.2882 54.8125 51.6851 56.0625 52.0843C57.3125 52.4834 58.5625 51.6851 58.9375 50.4213C59.25 49.0909 58.5625 47.7605 57.375 47.3614ZM65.75 41.9069C64.1875 41.4412 62.5625 42.3725 62.125 44.0355C61.6875 45.6984 62.5625 47.4279 64.125 47.8936C65.6875 48.3592 67.3125 47.4279 67.75 45.8315C68.1875 44.1685 67.3125 42.439 65.75 41.9069ZM75.0625 39.7118C73.3125 39.1796 71.5 40.1774 70.9375 42.0399C70.4375 43.9024 71.4375 45.8315 73.125 46.3636C74.875 46.8958 76.6875 45.8315 77.1875 43.969C77.8125 42.2395 76.875 40.2439 75.0625 39.7118C75.125 39.7118 75.125 39.7118 75.0625 39.7118ZM46.625 64.5233C45.875 64.3237 45.125 64.7228 44.9375 65.5211C44.6875 66.3193 45.125 67.1175 45.875 67.3836C46.625 67.5831 47.375 67.184 47.625 66.3858C47.8125 65.5876 47.375 64.7894 46.625 64.5233ZM103.188 73.5033C102.875 74.5676 103.437 75.6319 104.437 75.9645C105.437 76.2971 106.438 75.6984 106.75 74.6341C107.062 73.5698 106.5 72.5055 105.5 72.173C104.5 71.8404 103.5 72.439 103.188 73.5033ZM101 63.5255C100.625 64.8559 101.312 66.1863 102.562 66.5854C103.812 66.9845 105.063 66.2528 105.438 64.9224C105.813 63.592 105.125 62.2616 103.875 61.8625C102.688 61.5299 101.375 62.2616 101 63.5255ZM95.9375 54.612C95.5 56.2749 96.375 58.0044 97.9375 58.4701C99.5 58.9357 101.125 58.0044 101.562 56.3415C102 54.6785 101.125 52.949 99.625 52.4834C98 52.0177 96.375 52.949 95.9375 54.612ZM88.75 47.6275C88.25 49.49 89.25 51.4191 91 51.9512C92.75 52.4834 94.5625 51.4191 95.0625 49.5565C95.5625 47.694 94.5625 45.765 92.875 45.2328C91.125 44.7007 89.3125 45.765 88.75 47.6275ZM102.438 83.5477C102.25 84.3459 102.625 85.1441 103.375 85.4102C104.125 85.6763 104.875 85.2106 105.125 84.4124C105.375 83.6142 104.938 82.816 104.188 82.5499C103.438 82.2838 102.625 82.7494 102.438 83.5477ZM70.1875 106.696C70.8125 104.568 69.625 102.306 67.625 101.707C65.625 101.109 63.5 102.306 62.9375 104.435C62.3125 106.563 63.5 108.825 65.5 109.424C67.5 110.089 69.625 108.825 70.1875 106.696ZM46.8125 76.4302C47.125 75.3659 46.5625 74.3016 45.5625 73.969C44.5625 73.6364 43.5625 74.3016 43.25 75.2993C42.9375 76.3636 43.5 77.4279 44.5 77.7605C45.5 78.0931 46.5 77.4945 46.8125 76.4302ZM49 86.3415C49.375 85.0776 48.6875 83.6807 47.4375 83.3481C46.25 82.949 44.9375 83.6807 44.5625 84.9446V85.0111C44.1875 86.3415 44.9375 87.6718 46.125 88.071C47.375 88.4035 48.625 87.6718 49 86.3415ZM54.0625 95.3215C54.5 93.6585 53.625 91.929 52.0625 91.3969C50.5 90.9313 48.875 91.8625 48.4375 93.5255C48 95.1885 48.875 96.918 50.375 97.3836C52 97.9157 53.625 96.9845 54.0625 95.3215ZM61.25 102.306C61.75 100.443 60.75 98.5144 59 97.9157C57.25 97.3836 55.4375 98.4479 54.9375 100.244C54.9375 100.244 54.9375 100.244 54.9375 100.31C54.4375 102.173 55.4375 104.102 57.1875 104.634C58.875 105.233 60.75 104.169 61.25 102.306ZM99.25 94.9224C100.25 95.255 101.312 94.6563 101.562 93.592C101.875 92.5277 101.312 91.4634 100.312 91.1308C99.3125 90.7982 98.3125 91.4634 98 92.4612C97.6875 93.459 98.25 94.5898 99.25 94.9224ZM92.6875 102.572C93.875 102.971 95.1875 102.239 95.5625 100.909C95.9375 99.6452 95.25 98.2483 94.0625 97.8492C92.8125 97.4501 91.5625 98.1818 91.1875 99.5122C90.75 100.843 91.4375 102.173 92.6875 102.572ZM84.25 108.027C85.8125 108.492 87.4375 107.561 87.875 105.898C88.3125 104.235 87.4375 102.506 85.875 102.04C84.3125 101.574 82.6875 102.506 82.25 104.169C81.8125 105.765 82.6875 107.494 84.25 108.027ZM74.9375 110.222C76.6875 110.754 78.5 109.756 79 107.894C79 107.894 79 107.894 79 107.827C79.5 105.965 78.5 104.035 76.75 103.437C75 102.905 73.1875 103.969 72.625 105.831C72.1875 107.761 73.1875 109.69 74.9375 110.222ZM105.938 47.561C104.063 49.6231 101 49.7561 99.0625 47.7605C97.125 45.8315 97 42.5721 98.875 40.4435C100.688 38.3814 103.75 38.2483 105.75 40.1774C107.688 42.1729 107.813 45.4989 105.938 47.561ZM57.4375 35.7871C56.5 34.8559 55 34.8559 54.0625 35.9202C53.125 36.918 53.1875 38.5144 54.125 39.5122C55.0625 40.4435 56.625 40.4435 57.5 39.3792C58.4375 38.3814 58.4375 36.7849 57.4375 35.7871ZM69.625 30.8647C68.4375 29.6674 66.5625 29.7339 65.4375 30.9978C64.3125 32.2616 64.375 34.2572 65.5625 35.4545C66.75 36.6519 68.625 36.5854 69.75 35.3215C70.875 34.0576 70.8125 32.0621 69.625 30.8647ZM82.625 29.867C81.125 28.337 78.75 28.4035 77.3125 30C75.9375 31.663 76.0625 34.1907 77.625 35.6541C79.125 37.051 81.375 36.9845 82.8125 35.5211C84.25 33.9246 84.125 31.3969 82.625 29.867ZM95 33.2594C93.3125 31.5299 90.625 31.5965 89 33.459C87.375 35.255 87.5 38.1153 89.1875 39.8448C90.875 41.5743 93.5625 41.4412 95.1875 39.6452C96.75 37.7827 96.6875 34.9224 95 33.2594ZM47.125 44.4346C46.375 43.7029 45.25 43.7694 44.625 44.5011C43.9375 45.2328 44 46.4302 44.6875 47.1619C45.375 47.8936 46.5 47.827 47.1875 47.0953C47.875 46.3636 47.875 45.1663 47.125 44.4346ZM109.375 91.3969C108.438 92.3947 108.5 94.0577 109.5 94.9889C110.5 95.9202 112 95.8537 112.875 94.7894C113.75 93.7916 113.688 92.1951 112.75 91.2639C111.813 90.3326 110.312 90.3326 109.375 91.3969ZM112.5 78.2262C111.375 79.49 111.438 81.4856 112.625 82.6829C113.812 83.8803 115.688 83.8137 116.812 82.5499C117.938 81.286 117.875 79.2905 116.688 78.0931C115.438 76.8958 113.625 76.9623 112.5 78.2262ZM111.5 64.3237C110.062 65.9202 110.125 68.4479 111.625 69.9778C113.125 71.5078 115.5 71.4412 116.937 69.8448C118.312 68.1818 118.188 65.6541 116.688 64.1907C115.25 62.6608 112.938 62.7938 111.5 64.3237ZM107 51.4191C105.375 53.2151 105.5 56.0754 107.188 57.8049C108.875 59.5344 111.563 59.4013 113.188 57.6053C114.812 55.8093 114.688 52.949 113 51.2195C111.25 49.5565 108.563 49.6231 107 51.4191ZM102.813 102.838C102.125 103.636 102.187 104.834 102.875 105.499C103.562 106.231 104.688 106.164 105.375 105.432C106.062 104.701 106 103.503 105.312 102.772C105.312 102.772 105.312 102.772 105.25 102.705C104.625 102.04 103.5 102.04 102.813 102.838ZM51.125 109.49C52.9375 107.361 52.8125 104.102 50.875 102.173C48.9375 100.244 45.875 100.377 44.0625 102.373C42.25 104.501 42.4375 107.761 44.4375 109.69C46.375 111.486 49.3125 111.419 51.125 109.49ZM40.625 58.5366C41.5625 57.5388 41.5 55.8758 40.5 54.9446C39.5625 53.9468 38.0625 54.0133 37.125 55.0111C36.1875 56.0754 36.25 57.6718 37.25 58.6696C38.1875 59.6009 39.6875 59.5344 40.625 58.5366ZM37.5625 71.7073C38.6875 70.4435 38.625 68.4479 37.4375 67.2506C36.1875 66.1197 34.375 66.1862 33.25 67.5166C32.1875 68.7805 32.25 70.643 33.375 71.8403C34.5625 73.0377 36.4375 72.9712 37.5625 71.7073ZM38.5 85.6098C39.9375 84.0133 39.875 81.4856 38.3125 79.9557C36.8125 78.4257 34.4375 78.4922 33 80.1552C31.5625 81.7517 31.625 84.2794 33.1875 85.8093C34.6875 87.2727 37.0625 87.2062 38.5 85.6098ZM43.0625 98.5144C44.6875 96.7184 44.5625 93.8581 42.875 92.1286C41.1875 90.3991 38.5 90.5321 36.9375 92.3282C35.3125 94.1242 35.375 96.9845 37.0625 98.714C38.75 100.377 41.4375 100.31 43.0625 98.5144ZM92.5625 114.146C93.5 115.144 95.0625 115.078 95.9375 114.013C96.8125 113.016 96.8125 111.419 95.8125 110.421C94.875 109.424 93.375 109.49 92.4375 110.488C91.5625 111.552 91.625 113.149 92.5625 114.146ZM80.4375 119.069C81.625 120.266 83.5 120.2 84.625 118.936C85.75 117.672 85.6875 115.676 84.5 114.479C83.3125 113.282 81.4375 113.348 80.3125 114.612C79.1875 115.876 79.25 117.871 80.4375 119.069ZM67.375 120.067C68.875 121.596 71.25 121.53 72.6875 119.933C74.125 118.337 74.0625 115.809 72.5625 114.279C71.0625 112.749 68.6875 112.816 67.25 114.412C65.75 116.009 65.875 118.537 67.375 120.067ZM55.0625 116.674C56.75 118.404 59.4375 118.271 61 116.475C62.625 114.678 62.5 111.818 60.8125 110.089C59.125 108.359 56.4375 108.492 54.8125 110.288C53.25 112.151 53.375 115.011 55.0625 116.674ZM125.688 58.5366C122.688 59.9335 119.25 58.4035 117.938 55.2772C116.688 52.0843 118.063 48.3592 121 47.0288C124 45.6984 127.438 47.2949 128.688 50.4878C129.875 53.5477 128.562 57.1397 125.688 58.5366ZM84.3125 18.6253C83.9375 16.7627 82.25 15.5654 80.5 15.898C78.75 16.2306 77.625 18.0931 77.9375 19.9557C78.375 21.8182 80.125 22.949 81.875 22.5499C83.5 22.1508 84.5625 20.4213 84.3125 18.6253ZM98.25 21.8182C97.6875 19.5565 95.5625 18.2262 93.5 18.7583C91.375 19.2905 90.125 21.6186 90.625 23.8137C91.1875 26.0754 93.3125 27.4058 95.4375 26.8071C97.5625 26.3415 98.8125 24.0798 98.25 21.8182ZM111.125 28.4701C110.313 25.7428 107.562 24.2129 105 25.0111C102.437 25.8758 100.938 28.8027 101.75 31.5299C102.625 34.2572 105.438 35.7206 108 34.7894C110.5 33.9246 111.875 31.1308 111.125 28.4701ZM121.438 38.1818C120.375 35.1885 117.312 33.6585 114.5 34.7894C111.688 35.8537 110.25 39.1796 111.312 42.173C112.375 45.1663 115.438 46.6962 118.25 45.5654C121 44.5011 122.438 41.1752 121.438 38.1818ZM56.3125 22.4834C55.8125 21.2195 54.375 20.6208 53.1875 21.153C52 21.7517 51.4375 23.2151 52 24.4789C52.5 25.7428 53.9375 26.3415 55.125 25.8093C56.3125 25.2772 56.875 23.7472 56.3125 22.4834ZM115.375 105.632C113.937 106.763 113.625 108.958 114.688 110.488C115.75 111.951 117.688 112.35 119.125 111.286C120.562 110.155 120.938 108.027 119.875 106.497C118.875 104.9 116.812 104.501 115.375 105.632ZM121.812 92.1286C119.938 93.3259 119.375 95.9202 120.5 97.9157C121.625 99.9113 124.062 100.51 125.938 99.3126C126 99.3126 126 99.2461 126.062 99.2461C127.875 97.9823 128.375 95.388 127.188 93.459C126 91.5299 123.625 90.9313 121.812 92.1286ZM124.875 76.8958C122.5 78.2927 121.688 81.4856 123 84.0133C124.312 86.541 127.312 87.4058 129.688 86.0089C132.062 84.612 132.875 81.4191 131.562 78.8914C130.25 76.4302 127.25 75.4989 124.875 76.8958ZM124.688 61.663C122 63.0599 120.938 66.5188 122.25 69.3792C123.562 72.2395 126.812 73.3703 129.5 71.9734C132.188 70.5765 133.25 67.1175 131.938 64.2572C130.625 61.4634 127.375 60.2661 124.688 61.663ZM94.9375 124.124C93.75 124.656 93.1875 126.186 93.6875 127.45C94.1875 128.714 95.625 129.313 96.8125 128.78C98 128.248 98.5625 126.718 98.0625 125.455C97.5 124.191 96.125 123.592 94.9375 124.124ZM29 102.905C32 101.508 33.375 97.8492 32.0625 94.6563C30.75 91.4634 27.3125 90 24.3125 91.3969C21.3125 92.7273 19.9375 96.4523 21.25 99.6452C22.5 102.838 26 104.302 29 102.905ZM34.625 44.3016C36.125 43.2372 36.4375 41.0421 35.375 39.5122C34.375 37.9157 32.375 37.5831 30.875 38.6474C29.4375 39.7783 29.0625 41.9069 30.0625 43.4368C31.125 45.0333 33.1875 45.4324 34.625 44.3016ZM28.1875 57.8049C30 56.541 30.5625 53.9468 29.375 52.0177C28.25 50.0887 25.8125 49.49 23.9375 50.6874C22.0625 51.8847 21.5625 54.5455 22.75 56.4745C23.875 58.4701 26.3125 59.0687 28.1875 57.8049ZM25.125 73.0377C27.5 71.7073 28.4375 68.5144 27.1875 65.9867C25.9375 63.459 22.9375 62.4612 20.5625 63.7916C20.5 63.8581 20.375 63.8581 20.3125 63.9246C17.9375 65.3215 17.125 68.5144 18.4375 71.0421C19.75 73.5033 22.75 74.4346 25.125 73.0377ZM25.3125 88.2705C28 86.8736 29.0625 83.4146 27.75 80.5543C26.4375 77.694 23.1875 76.5632 20.5 77.9601C20.5 77.9601 20.5 77.9601 20.4375 77.9601C17.75 79.357 16.6875 82.816 18 85.6763C19.375 88.4701 22.625 89.6674 25.3125 88.2705ZM65.6875 131.308C66.0625 133.171 67.75 134.435 69.5 134.035C71.25 133.636 72.375 131.84 72.0625 129.978C71.6875 128.115 70 126.918 68.25 127.251C66.5 127.65 65.375 129.446 65.6875 131.308ZM51.75 128.115C52.25 130.377 54.4375 131.707 56.5 131.175C58.625 130.577 59.875 128.315 59.3125 126.053C58.75 123.792 56.625 122.461 54.5 123.06C52.5 123.592 51.1875 125.854 51.75 128.115ZM38.875 121.463C39.6875 124.191 42.375 125.721 45 124.922C45 124.922 45 124.922 45.0625 124.922C47.625 124.058 49.125 121.131 48.3125 118.404C47.5 115.676 44.75 114.08 42.125 114.945C39.5 115.809 38.0625 118.736 38.875 121.463ZM28.625 111.752C29.625 114.745 32.75 116.275 35.5625 115.144C35.5625 115.144 35.5625 115.144 35.625 115.144C38.4375 114.013 39.75 110.621 38.6875 107.694C37.625 104.834 34.625 103.37 31.875 104.368C29 105.432 27.5625 108.758 28.625 111.752ZM106.062 116.807C105 117.738 104.875 119.468 105.75 120.599C106.625 121.663 108.125 121.863 109.187 120.998C110.312 120.133 110.562 118.404 109.687 117.206C108.812 116.009 107.25 115.743 106.125 116.674C106.188 116.741 106.125 116.807 106.062 116.807ZM82.25 127.716C80.875 127.916 79.875 129.313 80.125 130.776C80.3125 132.239 81.625 133.304 83 133.038C84.375 132.838 85.375 131.441 85.125 129.978C84.9375 128.581 83.6875 127.517 82.25 127.716ZM69.875 19.0909C69.6875 17.6275 68.375 16.5632 67 16.8293C65.625 17.0288 64.625 18.4257 64.875 19.8891C65.0625 21.3525 66.375 22.4169 67.75 22.1508C69.125 21.9512 70.125 20.6208 69.875 19.0909ZM44.3125 29.3348C43.4375 28.1375 41.875 27.9379 40.75 28.8692C39.625 29.8004 39.4375 31.5299 40.3125 32.6608C41.1875 33.8581 42.8125 34.0576 43.875 33.1264C45 32.1951 45.1875 30.4656 44.3125 29.3348ZM142.438 83.0155C138.25 83.0155 134.875 79.4235 134.875 74.9667C134.875 70.51 138.25 66.918 142.375 66.918C142.375 66.918 142.375 66.918 142.438 66.918C146.625 66.918 150 70.51 150 74.9002C150 79.4235 146.625 83.0155 142.438 83.0155ZM112.812 13.7029C113.312 11.3082 111.875 8.98004 109.625 8.44789C107.375 7.91574 105.188 9.44568 104.688 11.8404C104.188 14.235 105.625 16.5632 107.875 17.0953C110.125 17.6275 112.312 16.0976 112.812 13.7029ZM127.688 25.0111C128.125 22.0843 126.25 19.357 123.5 18.8914C120.75 18.4922 118.188 20.5543 117.812 23.4812C117.438 26.3415 119.25 29.0022 121.938 29.4678C124.688 30 127.25 28.0044 127.688 25.0111ZM147.125 56.7406C147.312 52.6829 144.375 49.2239 140.562 48.9579C136.75 48.7583 133.5 51.8182 133.25 55.8758C133 59.9335 135.938 63.459 139.75 63.7251C143.562 63.9911 146.875 60.8647 147.125 56.8071C147.125 56.8736 147.125 56.8071 147.125 56.7406ZM78.0625 3.1929C78.0625 1.3969 76.6875 0 75 0C73.3125 0.0665188 72 1.52993 72.0625 3.32594C72.125 4.98891 73.375 6.38581 75 6.45233C76.6875 6.38581 78.0625 4.98891 78.0625 3.1929ZM107.875 132.838C105.625 133.37 104.188 135.698 104.688 138.093C105.188 140.488 107.375 142.018 109.625 141.486C111.875 140.953 113.312 138.625 112.812 136.231C112.312 133.836 110.125 132.306 107.875 132.838ZM121.938 120.399C119.188 120.865 117.25 123.592 117.688 126.519C118.125 129.446 120.688 131.508 123.438 131.042C123.5 131.042 123.5 131.042 123.562 131.042C126.312 130.576 128.188 127.783 127.688 124.856C127.188 121.996 124.625 120 121.938 120.399ZM132.75 104.169C129.312 104.568 126.812 107.827 127.125 111.552C127.438 115.277 130.562 117.871 134.062 117.539C137.5 117.14 140 113.88 139.688 110.222C139.312 106.497 136.188 103.836 132.75 104.169ZM139.812 86.1419C136 86.3415 133.062 89.867 133.25 93.9246C133.438 97.9823 136.688 101.109 140.5 100.909C140.5 100.909 140.5 100.909 140.562 100.909C144.375 100.71 147.312 97.2506 147.125 93.1929C146.875 89.0687 143.625 85.9424 139.812 86.1419ZM75 143.548C73.3125 143.614 72 145.078 72.0625 146.874C72.125 148.603 73.375 150 75 150C76.6875 150 78 148.537 78 146.807C78 145.078 76.6875 143.548 75 143.548ZM7.5625 83.0155C11.75 83.0155 15.125 79.4235 15.125 74.9667C15.125 70.51 11.75 66.918 7.625 66.918C3.375 66.918 0 70.51 0 74.9667C0 79.4235 3.375 83.0155 7.5625 83.0155ZM42.125 17.0953C44.375 16.6297 45.8125 14.235 45.375 11.8404C44.875 9.44568 42.6875 7.91574 40.4375 8.44789C38.125 8.98004 36.6875 11.3082 37.1875 13.7029C37.6875 16.0976 39.875 17.6275 42.125 17.0953ZM28.125 29.5344C30.875 29.0687 32.75 26.2749 32.3125 23.3481C31.875 20.4213 29.25 18.4257 26.5 18.8914C23.75 19.357 21.875 22.0843 22.3125 25.0111C22.75 27.9379 25.375 30 28.125 29.5344ZM17.25 45.6984C20.6875 45.2328 23.125 41.9069 22.6875 38.2483C22.25 34.6563 19.25 32.1286 15.9375 32.3947C12.5 32.7938 10 36.0532 10.3125 39.7118C10.6875 43.4368 13.8125 46.0976 17.25 45.6984ZM135.688 45.6984C139.125 45.2328 141.562 41.8404 141.125 38.1818C140.688 34.6563 137.75 32.0621 134.375 32.3947C130.938 32.7938 128.438 36.0532 128.75 39.7118C129.125 43.4368 132.25 46.0976 135.688 45.6984ZM10.1875 63.7251C14 63.5255 16.9375 60.0665 16.75 55.9423C16.5625 51.9512 13.3125 48.8248 9.5 49.0244C9.5 49.0244 9.5 49.0244 9.4375 49.0244C5.625 49.2239 2.6875 52.6829 2.875 56.7406C3.125 60.8647 6.375 63.9911 10.1875 63.7251ZM37.1875 136.231C36.6875 138.625 38.125 140.953 40.375 141.486C42.625 142.018 44.8125 140.488 45.3125 138.093C45.8125 135.698 44.375 133.37 42.125 132.838C39.875 132.306 37.6875 133.836 37.1875 136.231ZM22.3125 124.856C21.875 127.783 23.75 130.51 26.5 130.976C29.25 131.441 31.8125 129.446 32.25 126.519C32.6875 123.592 30.8125 120.865 28.0625 120.399C25.375 119.933 22.75 121.929 22.3125 124.856ZM10.3125 110.155C9.9375 113.814 12.4375 117.14 15.875 117.539C19.3125 117.938 22.4375 115.277 22.8125 111.619C23.1875 107.96 20.6875 104.634 17.1875 104.235C13.8125 103.836 10.6875 106.497 10.3125 110.155ZM2.875 93.1264C2.6875 97.184 5.625 100.643 9.4375 100.909C13.25 101.109 16.5 98.0488 16.75 93.9911C16.75 93.9911 16.75 93.9911 16.75 93.9246C16.9375 89.867 14 86.408 10.1875 86.1419C6.375 85.9424 3.125 89.0687 2.875 93.1264ZM91.625 140.953C89.875 141.419 88.875 143.348 89.3125 145.211C89.75 147.073 91.5625 148.137 93.3125 147.672C95.0625 147.206 96.0625 145.277 95.625 143.415C95.125 141.552 93.375 140.488 91.625 140.953ZM58.375 140.953C56.625 140.488 54.875 141.619 54.4375 143.481C54 145.277 55 147.14 56.6875 147.605C58.4375 148.137 60.25 147.073 60.75 145.277C61.25 143.415 60.25 141.486 58.5625 140.953C58.5 140.953 58.4375 140.953 58.375 140.953ZM95.625 6.51885C96.0625 4.65632 95.0625 2.79379 93.3125 2.26164C91.5625 1.86253 89.8125 2.99335 89.4375 4.92239C89.0625 6.65188 90 8.44789 91.625 8.98004C93.375 9.44568 95.125 8.38137 95.625 6.51885ZM60.6875 4.72284C60.25 2.86031 58.4375 1.79601 56.6875 2.26164C54.9375 2.79379 53.9375 4.65632 54.375 6.51885C54.8125 8.38137 56.625 9.44568 58.375 8.98004C60.125 8.44789 61.1875 6.58537 60.6875 4.72284Z"
		fill="#29539B" />
</svg>