<svg width="30" height="30" viewBox="0 0 30 30" fill="none" xmlns="http://www.w3.org/2000/svg">
  <path
    d="M29.4887 5.36422C29.3577 4.12168 28.8041 2.96177 27.9205 2.07845C27.0368 1.19512 25.8767 0.641934 24.6342 0.511382C18.232 -0.175018 11.7749 -0.175018 5.37278 0.511382C4.12897 0.640465 2.96728 1.193 2.08227 2.07646C1.19726 2.95992 0.642685 4.12064 0.51142 5.36422C-0.172101 11.7693 -0.172101 18.229 0.51142 24.6341C0.643871 25.8763 1.19789 27.0355 2.08121 27.9189C2.96453 28.8022 4.12381 29.3562 5.36597 29.4886C11.7681 30.175 18.2252 30.175 24.6273 29.4886C25.8707 29.3577 27.0316 28.8043 27.9163 27.9208C28.801 27.0374 29.356 25.8773 29.4887 24.6341C30.1722 18.229 30.1722 11.7693 29.4887 5.36422ZM23.4768 20.3642C23.0404 20.4256 20.9063 20.3642 20.7955 20.3642C20.2425 20.3705 19.7094 20.1579 19.3126 19.7727C18.8626 19.3381 18.4603 18.8608 18.0205 18.4091C17.8909 18.2705 17.7501 18.1428 17.5995 18.0273C17.2484 17.758 16.9006 17.8193 16.7353 18.2335C16.6061 18.6811 16.516 19.1391 16.466 19.6023C16.437 20.0199 16.1711 20.2841 15.7006 20.3114C15.4091 20.3284 15.1177 20.3335 14.8296 20.3267C13.7796 20.3195 12.7463 20.0636 11.8143 19.5801C10.8057 19.0187 9.92692 18.2509 9.23528 17.3267C8.09835 15.8744 7.18983 14.279 6.37847 12.6341C6.33585 12.5506 5.50403 10.783 5.48358 10.6977C5.40858 10.4199 5.48358 10.1523 5.71369 10.0585C5.86028 10.0023 8.60119 10.0585 8.64722 10.0585C8.85107 10.0574 9.05002 10.121 9.21543 10.2402C9.38084 10.3593 9.50417 10.5279 9.56767 10.7216C10.0744 12.019 10.7681 13.2352 11.6268 14.3318C11.747 14.4779 11.8876 14.606 12.0444 14.7119C12.2677 14.8654 12.479 14.8125 12.5711 14.5534C12.6803 14.1963 12.7444 13.827 12.762 13.454C12.7773 12.7142 12.762 12.2284 12.7211 11.4887C12.6938 11.0148 12.5268 10.6006 11.8279 10.4659C11.6131 10.4267 11.5944 10.2494 11.7324 10.0722C12.0205 9.7057 12.4143 9.64604 12.8557 9.62559C13.5137 9.58638 14.1716 9.61195 14.8296 9.62559H14.9728C15.2591 9.62313 15.5449 9.65171 15.8251 9.71081C15.9906 9.74516 16.1408 9.83178 16.2534 9.95791C16.366 10.084 16.4352 10.243 16.4506 10.4114C16.4845 10.598 16.4988 10.7877 16.4932 10.9773C16.4762 11.7835 16.437 12.5915 16.4285 13.3977C16.4205 13.7176 16.4497 14.0374 16.5154 14.3506C16.6091 14.7818 16.904 14.8875 17.1972 14.5773C17.5772 14.1777 17.9254 13.7492 18.2387 13.2955C18.7937 12.4667 19.2512 11.5768 19.6023 10.6432C19.7932 10.1642 19.9432 10.0585 20.4546 10.0585H23.3626C23.5355 10.0555 23.7078 10.0785 23.8739 10.1267C23.9327 10.1422 23.9877 10.1696 24.0354 10.2073C24.0831 10.2449 24.1225 10.292 24.1511 10.3456C24.1797 10.3993 24.197 10.4582 24.2018 10.5188C24.2066 10.5794 24.1989 10.6403 24.179 10.6977C24.0359 11.3369 23.6915 11.879 23.3268 12.4023C22.7353 13.2392 22.1114 14.0557 21.5063 14.8824C21.4294 14.9916 21.3594 15.1054 21.2966 15.2233C21.0682 15.6341 21.0853 15.8642 21.416 16.2051C21.9444 16.7489 22.5086 17.2568 23.0182 17.8159C23.3921 18.2227 23.7297 18.6613 24.0273 19.1267C24.4006 19.7063 24.1705 20.2585 23.4751 20.3574L23.4768 20.3642Z"
    fill="white" />
</svg>