<svg xmlns="http://www.w3.org/2000/svg" width="24" height="24" fill="none"><rect width="24" height="24" fill="#000" rx="6"/><path fill="#fff" fill-rule="evenodd" d="M18.87 7.85c.1-.375 0-.65-.477-.65h-1.575c-.4 0-.585.238-.685.5 0 0-.802 2.192-1.937 3.616-.367.412-.534.543-.734.543-.1 0-.245-.13-.245-.505V7.85c0-.45-.116-.65-.45-.65H10.29c-.25 0-.4.209-.4.406 0 .427.567.525.625 1.724v2.604c0 .571-.091.675-.292.675-.534 0-1.833-2.202-2.603-4.722-.151-.49-.303-.687-.705-.687H5.34c-.45 0-.54.238-.54.5 0 .469.534 2.792 2.487 5.864 1.302 2.098 3.136 3.236 4.805 3.236 1.001 0 1.125-.253 1.125-.688v-1.586c0-.505.095-.606.412-.606.234 0 .634.131 1.569 1.143 1.068 1.199 1.244 1.737 1.845 1.737h1.575c.45 0 .675-.253.546-.751-.142-.497-.652-1.218-1.33-2.073-.366-.487-.917-1.011-1.084-1.274-.234-.337-.167-.487 0-.786 0 0 1.92-3.035 2.12-4.066Z" clip-rule="evenodd"/></svg>