<svg width="20" height="20" viewBox="0 0 20 20" fill="none" xmlns="http://www.w3.org/2000/svg">
<g clip-path="url(#clip0_1_53)">
<path d="M12.9592 10.8301L11.2842 12.5108C10.6049 13.1924 9.40979 13.2071 8.71584 12.5108L7.04073 10.8301L1.02448 16.8659C1.24842 16.9694 1.49533 17.0312 1.75783 17.0312H18.2422C18.5047 17.0312 18.7515 16.9695 18.9754 16.8659L12.9592 10.8301Z" fill="#CACACA"/>
<path d="M18.2422 2.96875H1.75782C1.49532 2.96875 1.2484 3.03055 1.02454 3.1341L7.45333 9.58422C7.45375 9.58465 7.45426 9.58473 7.45469 9.58516C7.45512 9.58559 7.4552 9.58617 7.4552 9.58617L9.54555 11.6834C9.76758 11.9055 10.2325 11.9055 10.4545 11.6834L12.5445 9.58652C12.5445 9.58652 12.545 9.58559 12.5454 9.58516C12.5454 9.58516 12.5463 9.58465 12.5468 9.58422L18.9754 3.13406C18.7515 3.03047 18.5047 2.96875 18.2422 2.96875Z" fill="#CACACA"/>
<path d="M0.186953 3.95361C0.0710937 4.18791 0 4.44799 0 4.72658V15.2735C0 15.5521 0.0710156 15.8121 0.186914 16.0464L6.21359 10.0002L0.186953 3.95361Z" fill="#CACACA"/>
<path d="M19.813 3.95349L13.7864 10.0002L19.813 16.0465C19.9289 15.8122 20 15.5521 20 15.2734V4.72654C20 4.44787 19.9289 4.18779 19.813 3.95349Z" fill="#CACACA"/>
</g>
<defs>
<clipPath id="clip0_1_53">
<rect width="20" height="20" fill="white"/>
</clipPath>
</defs>
</svg>
