<svg xmlns="http://www.w3.org/2000/svg" width="46" height="14" fill="none"><path fill="#1919EF" stroke="#1919EF" stroke-width=".2" d="m16.597 6.997 12.287-5.484h.002c.117-.055.218-.146.214-.272-.004-.125-.109-.212-.228-.263A1.13 1.13 0 0 0 28.443.9c-.15 0-.304.024-.428.077l-.002.001-12.89 5.752c-.119.053-.223.142-.223.268 0 .126.104.215.223.268l12.89 5.752h.002c.127.055.286.08.438.078.153 0 .31-.027.432-.084h.001c.114-.054.213-.142.213-.264 0-.123-.099-.211-.213-.265h-.002L16.597 6.997Z"/><path fill="#1919EF" stroke="#1919EF" stroke-width=".2" d="m30.597 6.997 12.288-5.484h.001c.117-.055.218-.146.214-.272-.004-.125-.108-.212-.228-.263A1.13 1.13 0 0 0 42.442.9c-.15 0-.304.024-.428.077l-.002.001-12.89 5.752c-.119.053-.223.142-.223.268 0 .126.104.215.223.268l12.89 5.752h.002c.127.055.286.08.438.078.153 0 .31-.027.432-.084h.001c.114-.054.213-.142.213-.264 0-.123-.099-.211-.213-.265h-.002L30.597 6.997ZM2.597 7l12.287-5.486.002-.001c.117-.055.218-.146.214-.272-.004-.124-.108-.211-.228-.263A1.13 1.13 0 0 0 14.442.9c-.15 0-.304.024-.428.077l-.002.001-12.89 5.753c-.119.053-.223.142-.223.268 0 .125.104.214.223.267l12.89 5.755.002.001c.127.054.286.079.438.078.153-.001.31-.027.432-.084h.001c.114-.054.213-.142.213-.265 0-.122-.099-.21-.213-.264h-.002L2.597 7Z"/></svg>