<svg width="160" height="48" viewBox="0 0 160 48" fill="none" xmlns="http://www.w3.org/2000/svg">
<path d="M154.074 0H5.92593C2.65313 0 0 2.68629 0 6V42C0 45.3137 2.65313 48 5.92593 48H154.074C157.347 48 160 45.3137 160 42V6C160 2.68629 157.347 0 154.074 0Z" fill="black"/>
<path d="M154.074 0.96C155.394 0.96 156.66 1.491 157.594 2.43618C158.527 3.38137 159.052 4.66331 159.052 6V42C159.052 43.3367 158.527 44.6186 157.594 45.5638C156.66 46.509 155.394 47.04 154.074 47.04H5.92593C4.60574 47.04 3.33962 46.509 2.40611 45.5638C1.47259 44.6186 0.948148 43.3367 0.948148 42V6C0.948148 4.66331 1.47259 3.38137 2.40611 2.43618C3.33962 1.491 4.60574 0.96 5.92593 0.96H154.074ZM154.074 0H5.92593C4.35427 0 2.84699 0.632141 1.73566 1.75736C0.624337 2.88258 0 4.4087 0 6V42C0 43.5913 0.624337 45.1174 1.73566 46.2426C2.84699 47.3679 4.35427 48 5.92593 48H154.074C155.646 48 157.153 47.3679 158.264 46.2426C159.376 45.1174 160 43.5913 160 42V6C160 4.4087 159.376 2.88258 158.264 1.75736C157.153 0.632141 155.646 0 154.074 0Z" fill="#A6A6A6"/>
<path d="M38.0597 23.1756C38.027 19.4905 41.0398 17.6977 41.1776 17.6143C39.4713 15.0954 36.8266 14.7513 35.8972 14.7238C33.676 14.4871 31.5214 16.0696 30.3898 16.0696C29.2358 16.0696 27.4933 14.7467 25.6154 14.7856C23.1988 14.8233 20.938 16.2399 19.6981 18.4398C17.1392 22.9252 19.0476 29.5167 21.4992 33.1423C22.7256 34.918 24.1586 36.9006 26.0343 36.8308C27.8694 36.7542 28.5548 35.6463 30.7693 35.6463C32.9634 35.6463 33.6071 36.8308 35.52 36.7862C37.4895 36.7542 38.7294 35.0026 39.9128 33.2109C41.33 31.1757 41.8992 29.1714 41.9218 29.0685C41.8755 29.0525 38.097 27.5924 38.0597 23.1756Z" fill="white"/>
<path d="M34.4461 12.3387C35.4331 11.089 36.1084 9.38884 35.9209 7.6635C34.4924 7.72753 32.7059 8.66394 31.6772 9.8862C30.767 10.9633 29.9539 12.7286 30.164 14.3888C31.7686 14.51 33.4162 13.569 34.4461 12.3387Z" fill="white"/>
<path d="M64.616 36.5757H62.0515L60.6467 32.1063H55.7638L54.4257 36.5757H51.9289L56.7666 21.3598H59.7546L64.616 36.5757ZM60.2233 30.2311L58.9528 26.2579C58.8185 25.852 58.5666 24.8962 58.1951 23.3915H58.1499C58.002 24.0387 57.7637 24.9945 57.4363 26.2579L56.1884 30.2311H60.2233Z" fill="white"/>
<path d="M77.0567 30.9549C77.0567 32.8209 76.5587 34.2958 75.5627 35.3786C74.6706 36.3424 73.5628 36.8238 72.2404 36.8238C70.8131 36.8238 69.7877 36.3047 69.1632 35.2665H69.1181V41.0463H66.7105V29.2158C66.7105 28.0427 66.68 26.8388 66.6213 25.6039H68.7386L68.873 27.343H68.9182C69.7211 26.0327 70.9395 25.3787 72.5747 25.3787C73.853 25.3787 74.9201 25.8898 75.7739 26.9131C76.6298 27.9375 77.0567 29.2844 77.0567 30.9549ZM74.604 31.0441C74.604 29.9762 74.3668 29.0958 73.8903 28.4029C73.3697 27.6803 72.6707 27.319 71.7944 27.319C71.2004 27.319 70.6606 27.5202 70.1784 27.917C69.6951 28.3171 69.3789 28.8397 69.231 29.4868C69.1564 29.7887 69.1192 30.0356 69.1192 30.23V32.0594C69.1192 32.8575 69.3608 33.5309 69.8442 34.0809C70.3275 34.6308 70.9553 34.9052 71.7278 34.9052C72.6345 34.9052 73.3403 34.5508 73.8451 33.8442C74.351 33.1364 74.604 32.2035 74.604 31.0441Z" fill="white"/>
<path d="M89.5205 30.9549C89.5205 32.8209 89.0225 34.2958 88.0254 35.3786C87.1344 36.3424 86.0266 36.8238 84.7043 36.8238C83.2769 36.8238 82.2515 36.3047 81.6282 35.2665H81.583V41.0463H79.1755V29.2158C79.1755 28.0427 79.145 26.8388 79.0862 25.6039H81.2036L81.338 27.343H81.3831C82.1849 26.0327 83.4034 25.3787 85.0397 25.3787C86.3168 25.3787 87.384 25.8898 88.24 26.9131C89.0925 27.9375 89.5205 29.2844 89.5205 30.9549ZM87.0678 31.0441C87.0678 29.9762 86.8295 29.0958 86.353 28.4029C85.8324 27.6803 85.1356 27.319 84.2582 27.319C83.6631 27.319 83.1245 27.5202 82.6411 27.917C82.1578 28.3171 81.8427 28.8397 81.6948 29.4868C81.6214 29.7887 81.583 30.0356 81.583 30.23V32.0594C81.583 32.8575 81.8247 33.5309 82.3057 34.0809C82.7891 34.6297 83.4169 34.9052 84.1916 34.9052C85.0984 34.9052 85.8042 34.5508 86.3089 33.8442C86.8148 33.1364 87.0678 32.2035 87.0678 31.0441Z" fill="white"/>
<path d="M103.456 32.3087C103.456 33.603 103.012 34.656 102.121 35.469C101.142 36.3574 99.7788 36.801 98.0273 36.801C96.4102 36.801 95.1138 36.4854 94.1325 35.8531L94.6904 33.8214C95.7473 34.4685 96.9071 34.7932 98.1707 34.7932C99.0775 34.7932 99.7833 34.5851 100.29 34.1712C100.795 33.7573 101.047 33.2017 101.047 32.5088C101.047 31.8914 100.839 31.3711 100.422 30.9492C100.008 30.5273 99.3158 30.1352 98.3491 29.7727C95.718 28.7791 94.4035 27.3236 94.4035 25.4096C94.4035 24.1588 94.8643 23.1332 95.7869 22.3351C96.7061 21.5359 97.9324 21.1369 99.466 21.1369C100.833 21.1369 101.97 21.3781 102.876 21.8595L102.274 23.8466C101.427 23.3801 100.47 23.1469 99.3982 23.1469C98.5513 23.1469 97.8895 23.3584 97.4152 23.7792C97.0144 24.1553 96.8134 24.6138 96.8134 25.1569C96.8134 25.7583 97.0426 26.2557 97.5033 26.6467C97.9042 27.008 98.6326 27.3991 99.6896 27.821C100.983 28.3481 101.932 28.9643 102.543 29.6709C103.152 30.3753 103.456 31.2568 103.456 32.3087Z" fill="white"/>
<path d="M111.416 27.4334H108.762V32.7603C108.762 34.1152 109.229 34.7921 110.167 34.7921C110.597 34.7921 110.954 34.7543 111.236 34.6789L111.303 36.53C110.828 36.7095 110.204 36.7998 109.43 36.7998C108.479 36.7998 107.736 36.506 107.2 35.9194C106.666 35.3318 106.397 34.3462 106.397 32.9616V27.4311H104.816V25.6017H106.397V23.5928L108.762 22.8702V25.6017H111.416V27.4334Z" fill="white"/>
<path d="M123.389 30.9996C123.389 32.6861 122.913 34.0707 121.962 35.1535C120.965 36.2683 119.641 36.8239 117.991 36.8239C116.401 36.8239 115.135 36.29 114.191 35.2221C113.247 34.1542 112.775 32.8061 112.775 31.1814C112.775 29.4812 113.261 28.0886 114.235 27.0058C115.208 25.9219 116.52 25.38 118.17 25.38C119.76 25.38 121.039 25.9139 122.005 26.983C122.928 28.02 123.389 29.3589 123.389 30.9996ZM120.891 31.0785C120.891 30.0666 120.678 29.1988 120.245 28.4751C119.74 27.5992 119.019 27.1625 118.084 27.1625C117.116 27.1625 116.381 27.6004 115.876 28.4751C115.444 29.2 115.23 30.0815 115.23 31.1242C115.23 32.1361 115.444 33.0039 115.876 33.7266C116.397 34.6024 117.124 35.0391 118.062 35.0391C118.982 35.0391 119.703 34.5932 120.224 33.7037C120.668 32.9662 120.891 32.0893 120.891 31.0785Z" fill="white"/>
<path d="M131.215 27.7478C130.976 27.7032 130.722 27.6803 130.456 27.6803C129.609 27.6803 128.954 28.0039 128.493 28.6522C128.092 29.2238 127.891 29.9464 127.891 30.8188V36.5757H125.485L125.507 29.0592C125.507 27.7946 125.477 26.6433 125.417 25.6051H127.514L127.602 27.7043H127.669C127.923 26.9828 128.324 26.402 128.873 25.9664C129.409 25.5742 129.988 25.3787 130.613 25.3787C130.835 25.3787 131.036 25.3947 131.215 25.4233V27.7478Z" fill="white"/>
<path d="M141.982 30.5708C141.982 31.0076 141.954 31.3757 141.894 31.6764H134.671C134.699 32.7603 135.048 33.5893 135.719 34.161C136.328 34.6721 137.115 34.9282 138.082 34.9282C139.151 34.9282 140.127 34.7555 141.004 34.4091L141.381 36.1013C140.356 36.554 139.145 36.7793 137.748 36.7793C136.068 36.7793 134.749 36.2785 133.789 35.278C132.832 34.2776 132.352 32.9341 132.352 31.2488C132.352 29.5944 132.798 28.2166 133.691 27.1178C134.626 25.9447 135.89 25.3582 137.48 25.3582C139.041 25.3582 140.224 25.9447 141.027 27.1178C141.662 28.0497 141.982 29.2022 141.982 30.5708ZM139.686 29.9385C139.702 29.2159 139.545 28.5916 139.219 28.0645C138.802 27.3865 138.162 27.0481 137.3 27.0481C136.513 27.0481 135.873 27.3785 135.384 28.0417C134.983 28.5688 134.745 29.201 134.671 29.9374H139.686V29.9385Z" fill="white"/>
<path d="M60.5601 17.6414H59.3078V15.75H54.3037V17.6414H53.0305L52.9888 14.6828H53.5993C53.9019 14.3869 54.1437 13.9572 54.3246 13.3937C54.5055 12.8266 54.622 12.1856 54.6742 11.4706L54.8725 8.0576H59.6626V14.6828H60.6279L60.5601 17.6414ZM55.0916 14.6828H58.3477V9.13538H56.13L56.0048 11.3015C55.9109 12.7491 55.6065 13.8762 55.0916 14.6828Z" fill="white"/>
<path d="M61.7936 12.8389C61.7936 12.2789 61.9032 11.7752 62.1224 11.3279C62.3415 10.8771 62.6494 10.5319 63.046 10.2924C63.4425 10.0494 63.8982 9.92787 64.4131 9.92787C65.1749 9.92787 65.7924 10.1762 66.2655 10.6728C66.7421 11.1694 66.9995 11.8281 67.0377 12.6487L67.043 12.9499C67.043 13.5134 66.9351 14.0171 66.7194 14.4609C66.5072 14.9047 66.2011 15.2481 65.8011 15.4911C65.4045 15.7341 64.9453 15.8557 64.4235 15.8557C63.6269 15.8557 62.9886 15.588 62.5085 15.0526C62.0319 14.5137 61.7936 13.797 61.7936 12.9023V12.8389ZM63.0616 12.9499C63.0616 13.5381 63.1816 13.9995 63.4217 14.3341C63.6617 14.6652 63.9956 14.8307 64.4235 14.8307C64.8514 14.8307 65.1836 14.6616 65.4202 14.3235C65.6602 13.9854 65.7802 13.4905 65.7802 12.8389C65.7802 12.2613 65.6567 11.8034 65.4097 11.4653C65.1662 11.1272 64.834 10.9581 64.4131 10.9581C63.9991 10.9581 63.6704 11.1254 63.4269 11.46C63.1834 11.7911 63.0616 12.2877 63.0616 12.9499Z" fill="white"/>
<path d="M70.969 14.8307C71.2856 14.8307 71.5482 14.7374 71.7569 14.5507C71.9656 14.364 72.077 14.1333 72.0909 13.8586H73.2858C73.2719 14.2143 73.1623 14.5472 72.9571 14.8571C72.7518 15.1636 72.4735 15.4066 72.1222 15.5862C71.7708 15.7658 71.3917 15.8557 70.9846 15.8557C70.195 15.8557 69.5688 15.5968 69.1062 15.079C68.6435 14.5613 68.4122 13.8463 68.4122 12.934V12.8019C68.4122 11.932 68.6418 11.2363 69.1009 10.7151C69.5601 10.1903 70.1863 9.92787 70.9794 9.92787C71.6508 9.92787 72.197 10.1269 72.6179 10.5249C73.0423 10.9194 73.2649 11.4389 73.2858 12.0834H72.0909C72.077 11.7559 71.9656 11.4864 71.7569 11.2751C71.5517 11.0638 71.289 10.9581 70.969 10.9581C70.5585 10.9581 70.242 11.1096 70.0193 11.4125C69.7967 11.7118 69.6836 12.168 69.6801 12.7808V12.9869C69.6801 13.6068 69.7897 14.0699 70.0089 14.3764C70.2315 14.6793 70.5516 14.8307 70.969 14.8307Z" fill="white"/>
<path d="M79.2208 11.0532H77.3892V15.75H76.1213V11.0532H74.3106V10.0335H79.2208V11.0532Z" fill="white"/>
<path d="M82.6406 13.9114L83.7886 10.0335H85.1401L82.8963 16.6164C82.5519 17.578 81.9675 18.0588 81.1431 18.0588C80.9587 18.0588 80.7552 18.0271 80.5326 17.9637V16.9704L80.7726 16.9863C81.0926 16.9863 81.3327 16.9264 81.4927 16.8066C81.6562 16.6904 81.7849 16.4932 81.8788 16.2149L82.0614 15.7236L80.0786 10.0335H81.4457L82.6406 13.9114Z" fill="white"/>
<path d="M91.195 15.75H89.9271V11.069H87.7251V15.75H86.4571V10.0335H91.195V15.75Z" fill="white"/>
<path d="M97.8605 15.75H96.5926V13.4412H94.3958V15.75H93.1278V10.0335H94.3958V12.4163H96.5926V10.0335H97.8605V15.75Z" fill="white"/>
<path d="M99.5115 12.8389C99.5115 12.2789 99.6211 11.7752 99.8402 11.3279C100.059 10.8771 100.367 10.5319 100.764 10.2924C101.16 10.0494 101.616 9.92787 102.131 9.92787C102.893 9.92787 103.51 10.1762 103.983 10.6728C104.46 11.1694 104.717 11.8281 104.756 12.6487L104.761 12.9499C104.761 13.5134 104.653 14.0171 104.437 14.4609C104.225 14.9047 103.919 15.2481 103.519 15.4911C103.122 15.7341 102.663 15.8557 102.141 15.8557C101.345 15.8557 100.706 15.588 100.226 15.0526C99.7498 14.5137 99.5115 13.797 99.5115 12.9023V12.8389ZM100.779 12.9499C100.779 13.5381 100.9 13.9995 101.14 14.3341C101.38 14.6652 101.714 14.8307 102.141 14.8307C102.569 14.8307 102.901 14.6616 103.138 14.3235C103.378 13.9854 103.498 13.4905 103.498 12.8389C103.498 12.2613 103.375 11.8034 103.128 11.4653C102.884 11.1272 102.552 10.9581 102.131 10.9581C101.717 10.9581 101.388 11.1254 101.145 11.46C100.901 11.7911 100.779 12.2877 100.779 12.9499Z" fill="white"/>
<path d="M109.66 15.75V10.0335H111.95C112.722 10.0335 113.31 10.1709 113.714 10.4456C114.117 10.7168 114.319 11.1078 114.319 11.6185C114.319 11.8827 114.237 12.1204 114.074 12.3317C113.914 12.5395 113.676 12.6998 113.359 12.8125C113.728 12.89 114.02 13.0467 114.236 13.2827C114.451 13.5187 114.559 13.797 114.559 14.1175C114.559 14.6493 114.364 15.0544 113.975 15.3326C113.589 15.6109 113.032 15.75 112.305 15.75H109.66ZM110.927 13.3144V14.7356H112.315C112.966 14.7356 113.291 14.4996 113.291 14.0277C113.291 13.5522 112.961 13.3144 112.3 13.3144H110.927ZM110.927 12.3951H111.971C112.691 12.3951 113.051 12.1803 113.051 11.7506C113.051 11.2997 112.71 11.0673 112.028 11.0532H110.927V12.3951Z" fill="white"/>
</svg>
