<svg width="24" height="24" viewBox="0 0 24 24" fill="none" xmlns="http://www.w3.org/2000/svg">
<g clip-path="url(#clip0_15_442)">
<path d="M0 6.03933V8.66666H3.752L0 6.03933ZM3.10933 20.6667H8.66667V16.7753L3.10933 20.6667ZM15.3333 16.776V20.6667H20.89L15.3333 16.776ZM0 15.3333V17.9607L3.75333 15.3333H0ZM20.8913 3.33333H15.3333V7.22466L20.8913 3.33333ZM24 17.9613V15.3333H20.246L24 17.9613ZM24 8.66666V6.03933L20.2473 8.66666H24ZM8.66667 3.33333H3.10933L8.66667 7.22466V3.33333Z" fill="#00247D"/>
<path d="M16.76 15.3333L23.2347 19.8673C23.5509 19.5416 23.7781 19.1401 23.8947 18.7013L19.0847 15.3333H16.76ZM8.66667 15.3333H7.23934L0.765342 19.8667C1.11268 20.22 1.55801 20.4727 2.05734 20.59L8.66667 15.962V15.3333ZM15.3333 8.66667H16.7607L23.2347 4.13334C22.8814 3.77485 22.4336 3.52402 21.9433 3.41L15.3333 8.038V8.66667ZM7.23934 8.66667L0.765342 4.13334C0.449311 4.45932 0.221885 4.8607 0.104675 5.29934L4.91468 8.66667H7.23934Z" fill="#CF1B2B"/>
<path d="M24 14H14V20.6667H15.3333V16.776L20.89 20.6667H21.3333C21.6875 20.6667 22.0381 20.596 22.3646 20.4588C22.6911 20.3215 22.9869 20.1204 23.2347 19.8673L16.76 15.3333H19.0847L23.8947 18.7013C23.9567 18.4767 24 18.244 24 18V17.9613L20.246 15.3333H24V14ZM0 14V15.3333H3.75333L0 17.9607V18C0 18.7273 0.292667 19.3853 0.765333 19.8667L7.23933 15.3333H8.66667V15.962L2.05733 20.5893C2.25333 20.636 2.456 20.6667 2.66667 20.6667H3.10933L8.66667 16.7753V20.6667H10V14H0ZM24 5.99999C24.0004 5.30132 23.7254 4.63063 23.2347 4.13333L16.7607 8.66666H15.3333V8.03799L21.9433 3.41C21.7436 3.36101 21.5389 3.33529 21.3333 3.33333H20.8913L15.3333 7.22466V3.33333H14V9.99999H24V8.66666H20.2473L24 6.03933V5.99999ZM8.66667 3.33333V7.22466L3.10933 3.33333H2.66667C2.31242 3.33317 1.96171 3.40387 1.63519 3.54126C1.30866 3.67865 1.01291 3.87995 0.765333 4.13333L7.23933 8.66666H4.91467L0.104667 5.29933C0.0385201 5.52713 0.00331561 5.7628 0 5.99999L0 6.03933L3.752 8.66666H0V9.99999H10V3.33333H8.66667Z" fill="#EEEEEE"/>
<path d="M14 9.99999V3.33333H10V9.99999H0V14H10V20.6667H14V14H24V9.99999H14Z" fill="#CF1B2B"/>
</g>
<defs>
<clipPath id="clip0_15_442">
<rect width="24" height="24" fill="white"/>
</clipPath>
</defs>
</svg>
