<svg width="44" height="44" viewBox="0 0 44 44" fill="none" xmlns="http://www.w3.org/2000/svg">
<path d="M32.6355 28.7058C32.0993 28.8641 31.3122 28.8819 30.4683 28.7595C29.5625 28.6282 28.6386 28.3513 27.7306 27.9433C29.3499 27.7077 30.6061 27.7803 31.6806 28.161C31.9351 28.2512 32.3532 28.4923 32.6355 28.7058ZM23.6007 27.2205C23.5349 27.2384 23.47 27.2554 23.4054 27.2733C22.9697 27.3919 22.5457 27.5076 22.1372 27.6105L21.5863 27.7503C20.4782 28.0306 19.3452 28.3171 18.2261 28.6582C18.6514 27.6327 19.0465 26.5958 19.4334 25.582C19.7198 24.8316 20.0123 24.065 20.3148 23.3083C20.4683 23.5618 20.6284 23.8153 20.7951 24.0695C21.5543 25.2259 22.5087 26.295 23.6007 27.2205ZM20.782 15.6559C20.8538 16.9213 20.5808 18.1387 20.1803 19.3065C19.6869 17.8625 19.457 16.2678 20.0738 14.9804C20.232 14.6503 20.3616 14.4739 20.4456 14.3818C20.5754 14.5823 20.7461 15.0306 20.782 15.6559ZM14.9968 31.6859C14.7197 32.1818 14.4367 32.646 14.1467 33.0844C13.4469 34.139 12.3023 35.2683 11.7144 35.2683C11.6565 35.2683 11.5865 35.259 11.4842 35.1509C11.4183 35.0819 11.4078 35.0324 11.411 34.9648C11.4308 34.5771 11.9446 33.8865 12.6888 33.2462C13.3644 32.6653 14.1279 32.1488 14.9968 31.6859ZM34.5077 28.7607C34.4178 27.4691 32.2436 26.6405 32.2221 26.6328C31.3816 26.3348 30.4685 26.19 29.4307 26.19C28.3199 26.19 27.1222 26.3507 25.584 26.7101C24.2154 25.7399 23.0331 24.5253 22.1498 23.1806C21.7598 22.5865 21.4091 21.9935 21.1034 21.4143C21.8497 19.6299 22.5216 17.7114 22.3995 15.5627C22.3011 13.8398 21.5242 12.6825 20.4676 12.6825C19.7428 12.6825 19.1188 13.2193 18.6114 14.2794C17.7062 16.1686 17.9441 18.5858 19.3182 21.4702C18.8233 22.6326 18.3635 23.8377 17.9185 25.0042C17.3647 26.4548 16.7942 27.9513 16.1511 29.375C14.3477 30.0885 12.8662 30.9539 11.6314 32.0163C10.8226 32.711 9.84748 33.7731 9.79182 34.8818C9.76465 35.4039 9.94368 35.8828 10.3075 36.2665C10.694 36.6738 11.1796 36.8883 11.7136 36.8889C13.4771 36.8889 15.1744 34.466 15.4964 33.98C16.1444 33.0032 16.7509 31.9136 17.3453 30.6569C18.8421 30.1159 20.4374 29.7121 21.9835 29.3218L22.5373 29.1811C22.9535 29.0753 23.3861 28.9583 23.8299 28.8368C24.2995 28.7099 24.7826 28.5782 25.2736 28.4532C26.8613 29.4628 28.5686 30.1214 30.2336 30.3631C31.6361 30.5671 32.8817 30.4488 33.7248 30.0092C34.4835 29.6141 34.5253 29.0044 34.5077 28.7607ZM37.9231 39.8671C37.9231 42.2325 35.8382 42.3784 35.4176 42.3831H8.51937C6.16249 42.3831 6.02057 40.284 6.01607 39.8671L6.01575 4.13206C6.01575 1.76429 8.10442 1.62074 8.51905 1.61599H26.6893L26.699 1.62558V8.71636C26.699 10.1394 27.5593 12.8336 30.8174 12.8336H37.8624L37.9229 12.894L37.9231 39.8671ZM36.2529 11.2174H30.8186C28.4624 11.2174 28.3199 9.12966 28.3167 8.71659V3.24838L36.2529 11.2174ZM39.5392 39.8671V12.2273L28.3167 0.958124V0.905693H28.263L27.3616 0H8.51942C7.09452 0 4.40002 0.86387 4.40002 4.13282V39.8679C4.40002 41.297 5.26128 44 8.51942 44H35.4201C36.8447 43.9997 39.5392 43.1357 39.5392 39.8671Z" fill="#9E5FC4"/>
</svg>
