<svg width="16" height="16" viewBox="0 0 16 16" fill="none" xmlns="http://www.w3.org/2000/svg">
<path d="M1.67494 7.45297C5.61199 5.66542 8.2373 4.48696 9.55088 3.91759C13.3014 2.29191 14.0808 2.00951 14.5887 2.00009C14.7004 1.99814 14.9502 2.02699 15.112 2.16382C15.2487 2.27935 15.2863 2.43542 15.3043 2.54496C15.3222 2.6545 15.3446 2.90403 15.3268 3.099C15.1236 5.32443 14.2442 10.725 13.7968 13.2175C13.6074 14.2722 13.2347 14.6258 12.8738 14.6604C12.0895 14.7356 11.494 14.1203 10.7344 13.6014C9.54574 12.7894 8.87424 12.2839 7.72046 11.4916C6.38708 10.5759 7.25146 10.0726 8.01135 9.25012C8.21022 9.03486 11.6657 5.75943 11.7326 5.4623C11.741 5.42514 11.7488 5.28662 11.6698 5.21347C11.5908 5.14033 11.4743 5.16534 11.3902 5.18523C11.2709 5.21343 9.37209 6.52136 5.69359 9.10903C5.1546 9.49472 4.66641 9.68265 4.229 9.6728C3.74679 9.66194 2.81922 9.38867 2.12967 9.15508C1.2839 8.86858 0.611707 8.71711 0.67024 8.23053C0.700728 7.9771 1.03563 7.71791 1.67494 7.45297Z" fill="#F4F4F5"/>
</svg>
