<svg width="18" height="18" viewBox="0 0 18 18" fill="none" xmlns="http://www.w3.org/2000/svg">
<path fill-rule="evenodd" clip-rule="evenodd" d="M16.8703 4.46125C16.985 4.05147 16.8703 3.75029 16.3244 3.75029H14.5192C14.0602 3.75029 13.8488 4.01044 13.734 4.2974C13.734 4.2974 12.816 6.69485 11.5155 8.25216C11.0948 8.70297 10.9036 8.84624 10.6741 8.84624C10.5593 8.84624 10.3933 8.70297 10.3933 8.2932V4.46125C10.3933 3.96941 10.2601 3.75029 9.87753 3.75029H7.04093C6.75418 3.75029 6.58166 3.97853 6.58166 4.19488C6.58166 4.66117 7.23176 4.76865 7.29881 6.08005V8.92845C7.29881 9.55292 7.19359 9.66621 6.96409 9.66621C6.35216 9.66621 4.86371 7.25784 3.98076 4.50228C3.80773 3.96665 3.63418 3.75029 3.17284 3.75029H1.36773C0.851989 3.75029 0.74884 4.01044 0.74884 4.2974C0.74884 4.80968 1.3609 7.35068 3.59833 10.7112C5.09013 13.006 7.19153 14.2503 9.10392 14.2503C10.2514 14.2503 10.3933 13.974 10.3933 13.498V11.7634C10.3933 11.2108 10.502 11.1006 10.8652 11.1006C11.1331 11.1006 11.592 11.244 12.6631 12.3505C13.8869 13.6617 14.0886 14.2503 14.7771 14.2503H16.5822C17.098 14.2503 17.3558 13.974 17.207 13.4287C17.0443 12.8852 16.46 12.0968 15.6846 11.162C15.2638 10.6292 14.6327 10.0554 14.4416 9.76859C14.1738 9.3997 14.2503 9.23585 14.4416 8.90814C14.4416 8.90814 16.6408 5.58848 16.8703 4.46139V4.46125Z" fill="#F4F4F5"/>
</svg>
