<svg width="18" height="18" viewBox="0 0 18 18" fill="none" xmlns="http://www.w3.org/2000/svg">
<path d="M17.0916 4.94957C16.8971 4.22666 16.3271 3.65684 15.6043 3.46217C14.2838 3.10078 9.00161 3.10078 9.00161 3.10078C9.00161 3.10078 3.71956 3.10078 2.39902 3.4484C1.69015 3.64293 1.10629 4.22679 0.911754 4.94957C0.56427 6.26998 0.56427 9.0084 0.56427 9.0084C0.56427 9.0084 0.56427 11.7606 0.911754 13.0672C1.10642 13.79 1.67624 14.36 2.39915 14.5546C3.73347 14.916 9.00173 14.916 9.00173 14.916C9.00173 14.916 14.2838 14.916 15.6043 14.5684C16.3272 14.3739 16.8971 13.8039 17.0917 13.0811C17.4392 11.7606 17.4392 9.0223 17.4392 9.0223C17.4392 9.0223 17.4531 6.26998 17.0916 4.94957Z" fill="#F4F4F5"/>
<path d="M7.32129 11.538L11.7137 9.00812L7.32129 6.47827V11.538Z" fill="black"/>
</svg>
