<svg xmlns="http://www.w3.org/2000/svg" width="82" height="44" fill="none"><path fill="#B68E6C" d="M54.34 30.163 43.38 0l-4.236.277-12.065 30.532c-2.302 5.811-4.236 10.147-5.526 13.099h3.592c1.197-3.69 2.763-7.933 4.605-12.638l2.855-7.287.92-2.398 6.447-16.88 5.895 16.88.828 2.398 2.21 6.273c2.21 6.549 3.684 11.161 4.33 13.744h6.722c-1.197-2.214-3.04-6.734-5.618-13.837Zm.92-13.928s12.986-3.69 19.616-3.69c6.631 0 7.092 3.69 7.092 3.69s.92-5.535-7.092-5.535-19.616 5.535-19.616 5.535ZM7.002 32.839c-6.538 0-6.999-3.69-6.999-3.69s-.368 5.166 7 5.166c7.09 0 15.84-4.151 15.84-4.151s-9.302 2.675-15.84 2.675Z"/></svg>