<svg width="24" height="24" viewBox="0 0 24 24" fill="none" xmlns="http://www.w3.org/2000/svg">
<path fill-rule="evenodd" clip-rule="evenodd" d="M12.0001 4.0166C9.77715 4.0166 7.9751 5.81866 7.9751 8.0416C7.9751 10.2645 9.77715 12.0666 12.0001 12.0666C14.223 12.0666 16.0251 10.2645 16.0251 8.0416C16.0251 5.81866 14.223 4.0166 12.0001 4.0166ZM6.4751 8.0416C6.4751 4.99023 8.94872 2.5166 12.0001 2.5166C15.0515 2.5166 17.5251 4.99023 17.5251 8.0416C17.5251 11.093 15.0515 13.5666 12.0001 13.5666C8.94872 13.5666 6.4751 11.093 6.4751 8.0416Z" fill="#8F939F"/>
<path fill-rule="evenodd" clip-rule="evenodd" d="M11.9996 13.5833C10.1687 13.5831 8.3955 14.2243 6.98813 15.3954C5.58112 16.5663 4.6286 18.193 4.29593 19.993C4.29584 19.9934 4.29575 19.9939 4.29566 19.9944L3.98787 21.6998L2.51172 21.4334L2.82032 19.7236L2.82059 19.7221C3.21667 17.5768 4.35174 15.6379 6.02864 14.2425C7.70553 12.847 9.81829 12.083 11.9999 12.0833L12 12.0833C14.1842 12.0838 16.299 12.8503 17.9762 14.2494C19.6535 15.6485 20.787 17.5915 21.1793 19.7402L21.1794 19.741L21.4879 21.45L20.0117 21.7165L19.7037 20.0096C19.7036 20.0093 19.7036 20.0091 19.7035 20.0088C19.3741 18.2058 18.4229 16.5753 17.0154 15.4013C15.6077 14.2271 13.8328 13.5837 11.9997 13.5833" fill="#8F939F"/>
</svg>
