<svg width="12" height="14" viewBox="0 0 12 14" fill="none" xmlns="http://www.w3.org/2000/svg">
<path d="M5.40301 0.182994C5.46105 0.12494 5.52996 0.0788885 5.6058 0.047469C5.68163 0.0160495 5.76292 -0.00012207 5.84501 -0.00012207C5.9271 -0.00012207 6.00839 0.0160495 6.08423 0.047469C6.16007 0.0788885 6.22897 0.12494 6.28701 0.182994L8.97701 2.87299C9.03506 2.93103 9.08112 2.99994 9.11254 3.07578C9.14396 3.15162 9.16013 3.2329 9.16013 3.31499C9.16013 3.39708 9.14396 3.47837 9.11254 3.55421C9.08112 3.63005 9.03506 3.69896 8.97701 3.75699L6.28701 6.44699C6.2289 6.50504 6.15993 6.55107 6.08403 6.58246C6.00813 6.61385 5.92679 6.62998 5.84466 6.62993C5.76252 6.62988 5.6812 6.61366 5.60534 6.58219C5.52948 6.55071 5.46056 6.5046 5.40251 6.44649C5.34447 6.38838 5.29844 6.31941 5.26705 6.24351C5.23566 6.16761 5.21953 6.08627 5.21957 6.00414C5.21962 5.92201 5.23584 5.84069 5.26732 5.76482C5.29879 5.68896 5.3449 5.62004 5.40301 5.56199L7.02601 3.93999H6.00001C5.12898 3.93999 4.27751 4.19828 3.55328 4.6822C2.82905 5.16612 2.26457 5.85393 1.93125 6.65866C1.59792 7.46338 1.5107 8.34888 1.68063 9.20317C1.85056 10.0575 2.27 10.8422 2.88591 11.4581C3.50182 12.074 4.28654 12.4934 5.14083 12.6634C5.99513 12.8333 6.88062 12.7461 7.68535 12.4128C8.49008 12.0794 9.17788 11.515 9.6618 10.7907C10.1457 10.0665 10.404 9.21502 10.404 8.34399C10.404 8.17823 10.4699 8.01926 10.5871 7.90205C10.7043 7.78484 10.8633 7.71899 11.029 7.71899C11.1948 7.71899 11.3537 7.78484 11.471 7.90205C11.5882 8.01926 11.654 8.17823 11.654 8.34399C11.654 9.46225 11.3224 10.5554 10.7011 11.4852C10.0799 12.415 9.19684 13.1397 8.1637 13.5676C7.13057 13.9955 5.99374 14.1075 4.89697 13.8894C3.8002 13.6712 2.79276 13.1327 2.00203 12.342C1.2113 11.5513 0.672812 10.5438 0.454651 9.44703C0.23649 8.35027 0.348458 7.21344 0.776396 6.1803C1.20433 5.14717 1.92902 4.26413 2.85882 3.64287C3.78861 3.0216 4.88176 2.68999 6.00001 2.68999H7.02601L5.40301 1.06699C5.34496 1.00896 5.2989 0.940049 5.26749 0.86421C5.23607 0.78837 5.21989 0.707084 5.21989 0.624994C5.21989 0.542904 5.23607 0.461618 5.26749 0.385779C5.2989 0.30994 5.34496 0.241033 5.40301 0.182994Z" fill="#8F939F"/>
</svg>
