<svg width="20" height="20" viewBox="0 0 20 20" fill="none" xmlns="http://www.w3.org/2000/svg">
<path d="M18.3333 9.16669H3.67832L8.08915 4.75586C8.16874 4.67899 8.23223 4.58703 8.2759 4.48536C8.31958 4.38369 8.34257 4.27434 8.34353 4.16369C8.34449 4.05305 8.3234 3.94331 8.2815 3.8409C8.2396 3.73848 8.17772 3.64544 8.09948 3.5672C8.02124 3.48895 7.92819 3.42708 7.82578 3.38518C7.72337 3.34327 7.61363 3.32219 7.50298 3.32315C7.39233 3.32411 7.28298 3.3471 7.18131 3.39078C7.07964 3.43445 6.98769 3.49794 6.91082 3.57753L1.07748 9.41086C0.921259 9.56713 0.833496 9.77906 0.833496 10C0.833496 10.221 0.921259 10.4329 1.07748 10.5892L6.91082 16.4225C7.06799 16.5743 7.27849 16.6583 7.49699 16.6564C7.71548 16.6545 7.92449 16.5669 8.079 16.4124C8.23351 16.2579 8.32115 16.0489 8.32305 15.8304C8.32494 15.6119 8.24095 15.4014 8.08915 15.2442L3.67832 10.8334H18.3333C18.5543 10.8334 18.7663 10.7456 18.9226 10.5893C19.0789 10.433 19.1667 10.221 19.1667 10C19.1667 9.77901 19.0789 9.56705 18.9226 9.41077C18.7663 9.25449 18.5543 9.16669 18.3333 9.16669Z" fill="#1E222E"/>
</svg>
