<svg width="32" height="32" viewBox="0 0 32 32" fill="none" xmlns="http://www.w3.org/2000/svg">
<circle cx="16" cy="16" r="16" fill="white"/>
<path d="M9.42822 10.8653C10.0479 10.6755 10.6045 10.3285 11.1092 9.92191C12.4472 8.84386 14.1486 8.19846 16 8.19846C17.7574 8.19846 19.3763 8.77787 20.6804 9.75804C20.5387 9.84873 20.3703 9.94034 20.172 10.0317C19.129 10.512 17.6707 10.8104 16.187 11.1141L15.8182 11.1897C12.9175 11.7869 10.453 12.3337 8.53762 13.0694C8.26338 13.1747 8.00122 13.2835 7.75027 13.397C6.99999 13.7363 6.48902 14.4509 6.42744 15.272C6.419 15.3845 6.41249 15.4973 6.40792 15.6103C6.39459 15.9404 6.38792 16.1055 6.47155 16.1616C6.48343 16.1696 6.49435 16.1753 6.50772 16.1803C6.60183 16.2162 6.74629 16.105 7.03523 15.8826C7.30155 15.6776 7.61016 15.4821 7.96571 15.2942C9.73882 14.3569 12.4372 13.7235 16.1812 12.9527C16.3144 12.9253 16.4505 12.8976 16.5888 12.8694C18.0128 12.5794 19.6805 12.2397 20.9249 11.6666C21.6129 11.3498 22.2896 10.9115 22.7129 10.2651C23.0042 9.82038 22.845 9.24684 22.4514 8.88947C20.7469 7.34167 18.4835 6.39844 15.9998 6.39844C12.6394 6.39844 9.6823 8.12497 7.96714 10.7393C7.76936 11.0408 7.67047 11.1915 7.72872 11.2885C7.73628 11.301 7.74593 11.3133 7.75636 11.3237C7.83672 11.4032 8.01414 11.3402 8.36897 11.2141C8.71071 11.0927 9.06415 10.9767 9.42822 10.8653Z" fill="#1E222E" fill-opacity="0.56"/>
<path d="M24.6516 11.8333C24.5351 11.5918 24.4769 11.4711 24.4096 11.4457C24.3674 11.4297 24.3348 11.4288 24.2917 11.4424C24.2231 11.4641 24.1458 11.6042 23.9911 11.8845C23.7383 12.3423 23.3041 12.7526 22.6104 13.1354C21.1715 13.9293 18.9231 14.451 15.8209 15.1157C12.8141 15.7601 10.2624 16.3292 8.53766 17.2808C8.31583 17.4032 8.10333 17.5341 7.90201 17.6749C7.11449 18.2255 6.92273 19.2765 7.3381 20.143C7.34138 20.1499 7.34467 20.1567 7.34796 20.1635C7.46435 20.4049 7.52255 20.5255 7.58973 20.551C7.63207 20.567 7.66471 20.5679 7.70787 20.5542C7.77634 20.5325 7.85365 20.3925 8.00827 20.1124C8.26105 19.6545 8.6952 19.2442 9.38897 18.8615C10.8279 18.0676 13.0762 17.5458 16.1783 16.8811C19.1852 16.2368 21.7369 15.6676 23.4617 14.7161C23.6836 14.5936 23.8962 14.4627 24.0976 14.3218C24.8851 13.7712 25.0768 12.7202 24.6614 11.8537C24.6581 11.8469 24.6549 11.8401 24.6516 11.8333Z" fill="#1E222E" fill-opacity="0.56"/>
<path d="M25.592 16.3745C25.6051 16.0424 25.6116 15.8764 25.5277 15.8204C25.5158 15.8125 25.5049 15.8068 25.4914 15.8018C25.3971 15.7661 25.2521 15.8785 24.9621 16.1034C24.6926 16.3124 24.3794 16.5115 24.0175 16.7027C22.2444 17.6399 19.546 18.2734 15.802 19.0442C15.6699 19.0714 15.5349 19.0989 15.3976 19.1268L15.3944 19.1275C13.9704 19.4175 12.3027 19.7572 11.0583 20.3303C10.3703 20.6471 9.69359 21.0854 9.27026 21.7318C8.98405 22.1688 9.13809 22.7326 9.52364 23.0852C11.2309 24.6462 13.5041 25.5984 15.9998 25.5984C19.3634 25.5984 22.3229 23.8686 24.0374 21.2499C24.2349 20.9481 24.3337 20.7972 24.2754 20.7004C24.2678 20.6878 24.2582 20.6755 24.2477 20.6652C24.1673 20.5857 23.9898 20.649 23.6349 20.7755C23.2868 20.8995 22.9265 21.0179 22.5552 21.1316C21.9355 21.3213 21.3789 21.6684 20.8742 22.075C19.5362 23.153 17.8348 23.7984 15.9834 23.7984C14.2259 23.7984 12.607 23.219 11.3029 22.2388C11.4446 22.1481 11.613 22.0565 11.8113 21.9652C12.8543 21.4849 14.3126 21.1864 15.7962 20.8828L16.165 20.8072C19.1519 20.1923 21.6761 19.6307 23.6147 18.8615C23.8362 18.7736 24.0495 18.6833 24.2551 18.5898C25.0035 18.2496 25.5121 17.5353 25.5728 16.7155C25.5811 16.6021 25.5876 16.4884 25.592 16.3745Z" fill="#1E222E" fill-opacity="0.56"/>
</svg>
