<svg width="22" height="13" viewBox="0 0 22 13" fill="none" xmlns="http://www.w3.org/2000/svg">
<path d="M21.0435 9.91863C20.5645 9.34365 20.0202 8.82832 19.4938 8.32995C19.3066 8.1527 19.1131 7.96946 18.9265 7.78724C18.3909 7.26356 18.3714 7.06681 18.7955 6.47197C19.0888 6.06195 19.3999 5.65138 19.7008 5.25431C19.9736 4.89407 20.2558 4.52153 20.5263 4.14777L20.5818 4.07093C21.0987 3.3557 21.6333 2.61613 21.9178 1.72396C21.9917 1.48858 22.0692 1.1422 21.8919 0.852566C21.7146 0.563169 21.3708 0.474879 21.1275 0.43364C21.0072 0.413233 20.8877 0.410448 20.7768 0.410448L17.3917 0.408025L17.3637 0.407783C16.8519 0.407783 16.507 0.648977 16.3093 1.14523C16.1206 1.61938 15.9134 2.1243 15.6768 2.60439C15.2061 3.56038 14.6083 4.66147 13.7433 5.5798L13.7067 5.61886C13.6045 5.72865 13.4888 5.85297 13.4042 5.85297C13.3913 5.85297 13.3772 5.85048 13.3612 5.84546C13.182 5.77564 13.0617 5.34188 13.0672 5.1401C13.0672 5.13732 13.0673 5.13453 13.0673 5.13175L13.0649 1.21923C13.0649 1.20567 13.064 1.19222 13.0622 1.17878C12.9761 0.542762 12.7853 0.146848 12.0646 0.0056919C12.0455 0.00187688 12.0259 0 12.0064 0H8.48654C7.91308 0 7.5971 0.23308 7.30007 0.581942C7.2199 0.675198 7.05301 0.86934 7.13573 1.10484C7.21966 1.34386 7.4921 1.39496 7.58081 1.41156C8.02117 1.49537 8.26939 1.76472 8.3397 2.23536C8.46244 3.05262 8.47752 3.92493 8.38717 4.9806C8.36198 5.27399 8.31214 5.50059 8.23003 5.69419C8.21096 5.73936 8.14331 5.88682 8.07434 5.88688C8.05242 5.88688 7.98902 5.87828 7.87354 5.79871C7.60049 5.61165 7.40072 5.34472 7.16782 5.015C6.37551 3.89526 5.71054 2.66173 5.13466 1.24309C4.92108 0.720857 4.52219 0.428493 4.01098 0.419894C3.44927 0.411356 2.93999 0.407238 2.45427 0.407238C1.92356 0.407238 1.43154 0.412143 0.951093 0.422135C0.539797 0.429402 0.255306 0.552693 0.105612 0.788861C-0.0443247 1.02521 -0.0345752 1.33568 0.134618 1.71149C1.48901 4.72251 2.71702 6.91179 4.11647 8.81033C5.09705 10.1388 6.0806 11.0584 7.21142 11.7039C8.4028 12.3855 9.73793 12.7169 11.293 12.7169C11.4693 12.7169 11.6516 12.7126 11.8353 12.704C12.739 12.6599 13.0742 12.3329 13.1166 11.4531C13.1368 11.0034 13.1859 10.5319 13.407 10.1297C13.5465 9.87636 13.6765 9.87636 13.7193 9.87636C13.8017 9.87636 13.9038 9.91427 14.0134 9.9853C14.2101 10.1137 14.3788 10.2857 14.517 10.4359C14.6471 10.5786 14.7758 10.7228 14.9046 10.8671C15.1826 11.1784 15.47 11.5002 15.7702 11.8055C16.4274 12.4741 17.1513 12.7681 17.9828 12.7043H21.0864C21.093 12.7043 21.0997 12.7041 21.1063 12.7037C21.4155 12.6832 21.6834 12.5117 21.8411 12.233C22.0365 11.8878 22.0326 11.4474 21.8306 11.0546C21.6014 10.6105 21.304 10.231 21.0435 9.91863Z" fill="white"/>
</svg>
