<svg width="15" height="22" viewBox="0 0 15 22" fill="none" xmlns="http://www.w3.org/2000/svg">
<path d="M7.16874 11.1358C10.4999 11.1358 13.1998 8.64313 13.1998 5.56766C13.1998 2.49219 10.4999 0 7.16874 0C3.83637 0 1.13538 2.49219 1.13538 5.56766C1.13533 8.64313 3.83637 11.1358 7.16874 11.1358ZM7.16874 2.82839C8.80726 2.82839 10.1356 4.05462 10.1356 5.56762C10.1356 7.08066 8.80726 8.30684 7.16874 8.30684C5.52849 8.30684 4.20064 7.08066 4.20064 5.56762C4.20064 4.05462 5.52844 2.82839 7.16874 2.82839ZM14.1208 11.8153C13.781 11.1837 12.8378 10.6584 11.5839 11.5699C9.8889 12.802 7.16869 12.802 7.16869 12.802C7.16869 12.802 4.44671 12.802 2.75175 11.5699C1.49838 10.6584 0.55578 11.1837 0.215398 11.8153C-0.379267 12.9159 0.291609 13.4481 1.80565 14.3451C3.09857 15.1116 4.87557 15.3978 6.02246 15.5047L5.0647 16.3888C3.71595 17.6333 2.41431 18.8359 1.51065 19.67C0.970087 20.1684 0.970087 20.9768 1.51065 21.4752L1.67296 21.6262C2.21352 22.1246 3.08868 22.1246 3.6292 21.6262L7.18324 18.345C8.53316 19.59 9.8348 20.792 10.7384 21.6262C11.279 22.1246 12.1541 22.1246 12.6946 21.6262L12.857 21.4752C13.3975 20.9763 13.3975 20.1684 12.857 19.6695L9.30291 16.3889L8.34286 15.5021C9.49087 15.3925 11.2481 15.1051 12.5305 14.3452C14.0446 13.4481 14.7144 12.9158 14.1208 11.8153Z" fill="white"/>
</svg>
