<svg width="37" height="57" viewBox="0 0 37 57" fill="none" xmlns="http://www.w3.org/2000/svg">
<path d="M19.5421 56H29.358L33.4054 34.9938H19.5421H5.68738L9.72617 56H19.5421Z" fill="#E09B52" stroke="#7C6B59" stroke-width="0.5" stroke-miterlimit="10" stroke-linejoin="round"/>
<path d="M19.5421 34.9939H36V28.2177H19.5421H3.08423V34.9939H19.5421Z" fill="#E09B52" stroke="#7C6B59" stroke-width="0.5" stroke-miterlimit="10" stroke-linejoin="round"/>
<path d="M6.04199 35.2632H9.17271L13.5488 55.7307H9.94241L6.04199 35.2632Z" fill="#B0733A"/>
<path d="M33.1892 35.2545H32.2725L28.1818 55.7133H29.1418L33.1892 35.2545Z" fill="#F7B980"/>
<path d="M3.39557 28.4696H6.62142L7.91867 34.7419H3.39557V28.4696Z" fill="#B0733A"/>
<path d="M35.6887 28.4696H34.4346L33.1893 34.7419H35.6887V28.4696Z" fill="#F7B980"/>
<path d="M16.7574 28.2264H6.05069C6.05069 28.2264 2.72971 19.0351 4.97829 14.0311C4.97829 14.0311 6.91552 7.91518 13.0645 8.43643C13.0645 8.43643 15.6677 8.3843 18.2536 11.0166L16.7574 28.2264Z" fill="#799946" stroke="#7C6A59" stroke-width="0.5" stroke-miterlimit="10"/>
<path d="M22.3269 28.2263H33.0336C33.0336 28.2263 36.6746 19.1914 34.106 14.0311C34.106 14.0311 31.892 8.1063 26.0198 8.43643C26.0198 8.43643 23.529 8.3843 20.8307 11.0166L22.3269 28.2263Z" fill="#AECD61" stroke="#7C6A59" stroke-width="0.5" stroke-miterlimit="10"/>
<path d="M19.5421 28.2263H25.1117C25.1117 28.2263 28.1127 15.7512 23.1831 9.73085C23.1831 9.73085 21.6869 7.57637 19.5421 7.57637C17.3973 7.57637 15.9011 9.73085 15.9011 9.73085C10.9802 15.7512 13.9726 28.2263 13.9726 28.2263H19.5421Z" fill="#97C456" stroke="#7C6A59" stroke-width="0.5" stroke-miterlimit="10" stroke-linejoin="round"/>
<path d="M27.3257 15.9771L28.3721 17.7928L29.2283 15.9771" stroke="#7C6B59" stroke-width="0.5" stroke-miterlimit="10" stroke-linejoin="round"/>
<path d="M32.8606 18.0534L32.2812 20.1036L34.0887 19.6606" stroke="#7C6B59" stroke-width="0.5" stroke-miterlimit="10" stroke-linejoin="round"/>
<path d="M28.3462 10.365L28.6748 12.4847L30.1018 11.1816" stroke="#7C6B59" stroke-width="0.5" stroke-miterlimit="10" stroke-linejoin="round"/>
<path d="M10.2884 10.4345L11.0667 12.4066L12.1651 10.7646" stroke="#7C6B59" stroke-width="0.5" stroke-miterlimit="10" stroke-linejoin="round"/>
<path d="M6.6474 24.8296L7.90142 26.4802L8.53275 24.5603" stroke="#7C6B59" stroke-width="0.5" stroke-miterlimit="10" stroke-linejoin="round"/>
<path d="M5.81714 15.1952L7.59006 16.09L7.41709 14.0572" stroke="#7C6B59" stroke-width="0.5" stroke-miterlimit="10" stroke-linejoin="round"/>
<path d="M9.33704 20.981L10.3921 22.7967L11.2397 20.981" stroke="#7C6B59" stroke-width="0.5" stroke-miterlimit="10" stroke-linejoin="round"/>
<path d="M30.0413 25.5246L31.0877 27.3315L31.9439 25.5246" stroke="#7C6B59" stroke-width="0.5" stroke-miterlimit="10" stroke-linejoin="round"/>
<path d="M9.87323 15.786L10.9197 17.6017L11.7759 15.786" stroke="#7C6B59" stroke-width="0.5" stroke-miterlimit="10" stroke-linejoin="round"/>
<path d="M17.7952 10.5127L18.8416 12.3284L19.6978 10.5127" stroke="#7C6B59" stroke-width="0.5" stroke-miterlimit="10" stroke-linejoin="round"/>
<path d="M20.6491 15.0736L21.6956 16.8893L22.5518 15.0736" stroke="#7C6B59" stroke-width="0.5" stroke-miterlimit="10" stroke-linejoin="round"/>
<path d="M27.2305 23.7089L28.277 25.5246L29.1332 23.7089" stroke="#7C6B59" stroke-width="0.5" stroke-miterlimit="10" stroke-linejoin="round"/>
<path d="M20.1821 21.8932L21.2372 23.7089L22.0848 21.8932" stroke="#7C6B59" stroke-width="0.5" stroke-miterlimit="10" stroke-linejoin="round"/>
<path d="M16.0223 24.6124L17.0774 26.428L17.9249 24.6124" stroke="#7C6B59" stroke-width="0.5" stroke-miterlimit="10" stroke-linejoin="round"/>
<path d="M14.2493 18.175L15.3044 19.982L16.152 18.175" stroke="#7C6B59" stroke-width="0.5" stroke-miterlimit="10" stroke-linejoin="round"/>
<path d="M7.99658 4.7269C7.99658 2.84173 11.404 1 11.404 1C13.6526 4.42284 12.0613 6.55994 12.0613 6.55994C11.1619 8.06286 8.63656 9.29648 8.63656 9.29648L7.99658 4.7269Z" fill="#F8B46A" stroke="#7C6A59" stroke-width="0.5" stroke-miterlimit="10" stroke-linejoin="round"/>
<path d="M6.18038 5.15259C4.31233 4.22303 1 5.76939 1 5.76939C2.0897 9.72217 4.74475 9.91329 4.74475 9.91329C6.69928 10.2087 9.043 9.11405 9.043 9.11405L6.18038 5.15259Z" fill="#DD9341" stroke="#7C6A59" stroke-width="0.5" stroke-miterlimit="10" stroke-linejoin="round"/>
<path d="M8.8441 9.20091C6.67335 8.79261 5.17718 6.77713 5.17718 6.77713C3.17941 4.17959 5.27232 1.33881 5.27232 1.33881C5.27232 1.33881 8.77491 1.60812 9.42354 4.83115C9.42354 4.83115 9.95109 7.28968 8.8441 9.20091Z" fill="#F7AA4A" stroke="#7C6A59" stroke-width="0.5" stroke-miterlimit="10" stroke-linejoin="round"/>
</svg>
