<svg width="37" height="57" viewBox="0 0 37 57" fill="none" xmlns="http://www.w3.org/2000/svg">
<path d="M19.8628 16.229C19.8628 16.229 16.7923 27.2812 18.1382 34.5135" stroke="#7C6A59" stroke-width="0.5" stroke-miterlimit="10"/>
<path d="M23.3729 13.5116C26.7478 11.2436 23.9816 9.68474 23.9816 9.68474C21.7836 8.23124 20.9787 11.7632 20.9787 11.7632L21.0531 10.9838C21.0531 10.9838 20.9246 7.22012 18.2328 8.0557C18.2328 8.0557 15.2773 8.97554 18.3208 12.1143C14.4048 10.4361 14.6551 13.7784 14.6551 13.7784C14.7362 16.3694 18.3005 14.8176 18.3005 14.8176C18.3005 14.8176 14.8106 15.8077 16.0618 17.9844C16.0618 17.9844 17.5836 20.8493 19.7411 17.3244C19.4029 21.4882 22.2841 20.1682 22.2841 20.1682C24.8947 19.0868 22.3517 16.243 22.3517 16.243C22.3517 16.243 25.1111 18.8551 26.1324 16.1377C26.1324 16.1307 27.3768 13.1254 23.3729 13.5116Z" fill="#B85D70" stroke="#7C6A59" stroke-width="0.5" stroke-miterlimit="10" stroke-linecap="round" stroke-linejoin="round"/>
<path d="M20.37 15.3583C21.0536 15.3583 21.6077 14.783 21.6077 14.0733C21.6077 13.3636 21.0536 12.7883 20.37 12.7883C19.6865 12.7883 19.1323 13.3636 19.1323 14.0733C19.1323 14.783 19.6865 15.3583 20.37 15.3583Z" fill="#F28E25" stroke="#7C6A59" stroke-width="0.5" stroke-miterlimit="10"/>
<path d="M27.9652 9.08086C27.9652 9.08086 26.315 25.3713 23.7855 34.5135" stroke="#7C6A59" stroke-width="0.5" stroke-miterlimit="10"/>
<path d="M31.3739 6.01238C34.4647 3.34413 31.5362 2.13639 31.5362 2.13639C29.1894 0.963768 28.7903 4.56591 28.7903 4.56591L28.7768 3.7865C28.7768 3.7865 28.2222 0.0649878 25.6386 1.22357C25.6386 1.22357 22.8116 2.50152 26.1932 5.24702C22.115 4.06035 22.7372 7.34651 22.7372 7.34651C23.1159 9.90944 26.4773 7.92931 26.4773 7.92931C26.4773 7.92931 23.1295 9.34068 24.6174 11.3489C24.6174 11.3489 26.457 14.0031 28.1952 10.2395C28.3304 14.4104 31.0425 12.7462 31.0425 12.7462C33.5111 11.3559 30.6638 8.84214 30.6638 8.84214C30.6638 8.84214 33.7072 11.0961 34.4039 8.27338C34.4174 8.26636 35.3034 5.13467 31.3739 6.01238Z" fill="#D97C93" stroke="#7C6A59" stroke-width="0.5" stroke-miterlimit="10" stroke-linecap="round" stroke-linejoin="round"/>
<path d="M28.4589 8.22422C29.1424 8.22422 29.6966 7.64891 29.6966 6.93924C29.6966 6.22957 29.1424 5.65427 28.4589 5.65427C27.7753 5.65427 27.2212 6.22957 27.2212 6.93924C27.2212 7.64891 27.7753 8.22422 28.4589 8.22422Z" fill="#F5A45B" stroke="#7C6A59" stroke-width="0.5" stroke-miterlimit="10"/>
<path d="M18.2193 30.7359C18.2193 30.7359 15.3246 25.7294 23.2512 24.5146C23.5556 32.8283 18.2193 30.7359 18.2193 30.7359Z" fill="#96C456" stroke="#7C6A59" stroke-width="0.5" stroke-miterlimit="10" stroke-linecap="round" stroke-linejoin="round"/>
<path d="M10.6648 9.90942C10.6648 9.90942 12.315 26.1998 14.8445 35.3421" stroke="#7C6A59" stroke-width="0.5" stroke-miterlimit="10"/>
<path d="M26.031 24.655C26.031 24.655 24.9691 16.4045 36.0001 19.466C31.8812 30.5252 26.031 24.655 26.031 24.655Z" fill="#96C456" stroke="#7C6A59" stroke-width="0.5" stroke-miterlimit="10" stroke-linecap="round" stroke-linejoin="round"/>
<path d="M26.4976 24.5005L32.2193 21.6638" stroke="#7C6A59" stroke-width="0.5" stroke-miterlimit="10" stroke-linecap="round" stroke-linejoin="round"/>
<path d="M30.657 24.4865C30.3932 24.4023 28.3845 23.5667 28.3845 23.5667L29.2773 21.2495" stroke="#7C6A59" stroke-width="0.5" stroke-miterlimit="10" stroke-linecap="round" stroke-linejoin="round"/>
<path d="M32.2396 23.2718L30.4203 22.5626L30.8531 20.7299" stroke="#7C6A59" stroke-width="0.5" stroke-miterlimit="10" stroke-linecap="round" stroke-linejoin="round"/>
<path d="M7.24923 6.84094C4.15841 4.17268 7.08691 2.96495 7.08691 2.96495C9.43377 1.79232 9.83281 5.39446 9.83281 5.39446L9.84633 4.61505C9.84633 4.61505 10.4009 0.89354 12.9845 2.05212C12.9845 2.05212 15.8116 3.33008 12.4299 6.07557C16.5082 4.8889 15.8859 8.17506 15.8859 8.17506C15.5072 10.738 12.1458 8.75787 12.1458 8.75787C12.1458 8.75787 15.4937 10.1692 14.0058 12.1774C14.0058 12.1774 12.1661 14.8317 10.428 11.068C10.2927 15.2389 7.58063 13.5748 7.58063 13.5748C5.11203 12.1845 7.95938 9.67069 7.95938 9.67069C7.95938 9.67069 4.9159 11.9247 4.21928 9.10193C4.21252 9.10193 3.31976 5.96322 7.24923 6.84094Z" fill="#DB5B7C" stroke="#7C6A59" stroke-width="0.5" stroke-miterlimit="10" stroke-linecap="round" stroke-linejoin="round"/>
<path d="M10.1642 9.05278C10.8477 9.05278 11.4019 8.47748 11.4019 7.76781C11.4019 7.05814 10.8477 6.48283 10.1642 6.48283C9.48064 6.48283 8.92651 7.05814 8.92651 7.76781C8.92651 8.47748 9.48064 9.05278 10.1642 9.05278Z" fill="#F3A157" stroke="#7C6A59" stroke-width="0.5" stroke-miterlimit="10"/>
<path d="M11.9024 22.6468C11.9024 22.6468 13.0657 13.6239 1 16.9733C5.50435 29.0717 11.9024 22.6468 11.9024 22.6468Z" fill="#96C456" stroke="#7C6A59" stroke-width="0.5" stroke-miterlimit="10" stroke-linecap="round" stroke-linejoin="round"/>
<path d="M11.3951 22.4854L5.13232 19.3818" stroke="#7C6A59" stroke-width="0.5" stroke-miterlimit="10" stroke-linecap="round" stroke-linejoin="round"/>
<path d="M6.84351 22.4643C7.12756 22.373 9.32563 21.4532 9.32563 21.4532L8.34495 18.9183" stroke="#7C6A59" stroke-width="0.5" stroke-miterlimit="10" stroke-linecap="round" stroke-linejoin="round"/>
<path d="M5.11206 21.1372L7.10723 20.3578L6.6338 18.3566" stroke="#7C6A59" stroke-width="0.5" stroke-miterlimit="10" stroke-linecap="round" stroke-linejoin="round"/>
<path d="M18.5034 56H26.1459L29.2909 39.0917H18.5034H7.70923L10.8542 56H18.5034Z" fill="#E09B52" stroke="#7C6B59" stroke-width="0.5" stroke-miterlimit="10" stroke-linejoin="round"/>
<path d="M18.5034 39.0917H31.3131V33.6429H18.5034H5.68701V39.0917H18.5034Z" fill="#E09B52" stroke="#7C6B59" stroke-width="0.5" stroke-miterlimit="10" stroke-linejoin="round"/>
<path d="M7.99329 39.3094H10.4281L13.8368 55.7823H11.0232L7.99329 39.3094Z" fill="#B0733A"/>
<path d="M29.1217 39.3024H28.4116L25.2261 55.7753H25.9768L29.1217 39.3024Z" fill="#F7B980"/>
<path d="M5.93042 33.8465H8.4396L9.45409 38.8951H5.93042V33.8465Z" fill="#B0733A"/>
<path d="M31.0763 33.8465H30.1024L29.1217 38.8951H31.0763V33.8465Z" fill="#F7B980"/>
<path d="M18.5101 30.5041L21.4386 27.0214" stroke="#7C6A59" stroke-width="0.5" stroke-miterlimit="10" stroke-linecap="round" stroke-linejoin="round"/>
<path d="M21.1884 29.2894C20.999 29.3104 19.4773 29.3526 19.4773 29.3526L19.4299 27.6042" stroke="#7C6A59" stroke-width="0.5" stroke-miterlimit="10" stroke-linecap="round" stroke-linejoin="round"/>
<path d="M21.885 28.0465L20.5189 28.1168L20.3092 26.8107" stroke="#7C6A59" stroke-width="0.5" stroke-miterlimit="10" stroke-linecap="round" stroke-linejoin="round"/>
</svg>
