<svg width="203" height="60" viewBox="0 0 203 60" fill="none" xmlns="http://www.w3.org/2000/svg">
<path d="M51.3263 27.0336H8.6748V35.1342H51.3263V27.0336Z" fill="#C5824B"/>
<path d="M46.7866 35.1339H13.2133L16.0985 54.9332C16.4215 57.1487 18.5126 58.8049 20.9873 58.8049H39.0127C41.4871 58.8049 43.5785 57.1487 43.9013 54.9332L46.7866 35.1339Z" fill="#C5824B"/>
<path d="M29.9999 18.3188H25.3778C18.4735 18.3188 12.8763 12.7217 12.8763 5.81731V1.19519H17.4985C24.4028 1.19519 29.9999 6.79231 29.9999 13.6967V18.3188Z" fill="#52A345"/>
<path d="M29.9999 18.3188H34.6221C41.5264 18.3188 47.1235 12.7217 47.1235 5.81731V1.19519H42.5014C35.5971 1.19519 29.9999 6.79231 29.9999 13.6967V18.3188Z" fill="#52A345"/>
<path d="M51.3257 25.838H31.1955V19.514H34.6223C42.1747 19.514 48.319 13.3697 48.319 5.81732V1.1952C48.319 0.535079 47.7839 0 47.1238 0H42.5018C36.9409 0 32.1438 3.3313 30.0003 8.10306C27.857 3.3313 23.0598 0 17.4989 0H12.8769C12.2168 0 11.6817 0.535079 11.6817 1.1952V5.8172C11.6817 13.3696 17.8259 19.5139 25.3783 19.5139H28.8052V25.8379H8.675C8.01488 25.8379 7.4798 26.373 7.4798 27.0331V35.1337C7.4798 35.7938 8.01488 36.3289 8.675 36.3289H12.1801L14.9163 55.1053C15.3229 57.8957 17.9331 59.9999 20.9877 59.9999H39.0131C42.0678 59.9999 44.6779 57.8957 45.0845 55.1053L47.8207 36.3289H51.3258C51.9859 36.3289 52.521 35.7938 52.521 35.1337V27.0331C52.5209 26.3732 51.9858 25.838 51.3257 25.838ZM42.5018 2.3904H45.9286V5.8172C45.9286 12.0515 40.8567 17.1234 34.6225 17.1234H32.886L39.3025 10.7069C39.7692 10.2401 39.7692 9.4833 39.3025 9.01642C38.8357 8.54978 38.0789 8.54978 37.612 9.01642L31.1957 15.433V13.6966C31.1955 7.4624 36.2674 2.3904 42.5018 2.3904ZM14.072 5.81732V2.3904H17.4988C23.7331 2.3904 28.805 7.46228 28.805 13.6966V15.433L19.1196 5.74759C18.6528 5.28083 17.896 5.28083 17.4292 5.74759C16.9624 6.21435 16.9624 6.97115 17.4292 7.43802L27.1146 17.1235H25.3781C19.144 17.1236 14.072 12.0517 14.072 5.81732ZM42.719 54.7609C42.4824 56.385 40.8891 57.6097 39.013 57.6097H20.9877C19.1116 57.6097 17.5184 56.385 17.2817 54.7609L14.5957 36.3291H45.4049L42.719 54.7609ZM9.87019 33.9386V28.2284H50.1306V33.9386H9.87019Z" fill="#5E282D"/>
<path d="M185.422 14.24C184.996 14.2667 184.689 14.32 184.502 14.4C184.316 14.48 184.182 14.6333 184.102 14.86C184.036 15.0867 184.002 15.4533 184.002 15.96V25.88C184.002 26.3867 184.036 26.7533 184.102 26.98C184.182 27.2067 184.316 27.36 184.502 27.44C184.689 27.52 184.996 27.5733 185.422 27.6V28C184.662 27.96 183.476 27.94 181.862 27.94C180.422 27.94 179.309 27.96 178.522 28V27.6C178.949 27.5733 179.256 27.52 179.442 27.44C179.629 27.36 179.756 27.2067 179.822 26.98C179.902 26.7533 179.942 26.3867 179.942 25.88V16.68L175.042 26.2C175.056 26.5867 175.102 26.88 175.182 27.08C175.262 27.2667 175.396 27.3933 175.582 27.46C175.782 27.5267 176.076 27.5733 176.462 27.6V28C175.689 27.96 174.576 27.94 173.122 27.94C171.509 27.94 170.322 27.96 169.562 28V27.6C169.989 27.5733 170.296 27.52 170.482 27.44C170.669 27.36 170.796 27.2067 170.862 26.98C170.942 26.7533 170.982 26.3867 170.982 25.88V15.96C170.982 15.4533 170.942 15.0867 170.862 14.86C170.796 14.6333 170.669 14.48 170.482 14.4C170.296 14.32 169.989 14.2667 169.562 14.24V13.84C170.322 13.88 171.509 13.9 173.122 13.9C174.562 13.9 175.676 13.88 176.462 13.84V14.24C176.036 14.2667 175.729 14.32 175.542 14.4C175.356 14.48 175.222 14.6333 175.142 14.86C175.076 15.0867 175.042 15.4533 175.042 15.96V25.2L179.942 15.7C179.929 15.2867 179.882 14.9867 179.802 14.8C179.722 14.6 179.589 14.4667 179.402 14.4C179.216 14.32 178.922 14.2667 178.522 14.24V13.84C179.296 13.88 180.409 13.9 181.862 13.9C183.476 13.9 184.662 13.88 185.422 13.84V14.24ZM180.702 9.06C181.262 9.06 181.722 9.20666 182.082 9.5C182.456 9.78 182.642 10.1267 182.642 10.54C182.642 10.8733 182.516 11.1733 182.262 11.44C182.022 11.6933 181.696 11.9133 181.282 12.1C180.856 12.3 180.316 12.46 179.662 12.58C179.009 12.7 178.289 12.76 177.502 12.76C176.716 12.76 175.996 12.7 175.342 12.58C174.689 12.46 174.142 12.3 173.702 12.1C173.302 11.9267 172.982 11.7067 172.742 11.44C172.502 11.1733 172.382 10.8733 172.382 10.54C172.382 10.1267 172.562 9.78 172.922 9.5C173.282 9.20666 173.742 9.06 174.302 9.06C174.862 9.06 175.329 9.20666 175.702 9.5C176.076 9.78 176.262 10.14 176.262 10.58C176.262 10.9533 176.122 11.2667 175.842 11.52C175.562 11.7733 175.209 11.9533 174.782 12.06C175.636 12.26 176.542 12.36 177.502 12.36C178.462 12.36 179.362 12.2533 180.202 12.04C179.762 11.92 179.409 11.74 179.142 11.5C178.889 11.2467 178.762 10.94 178.762 10.58C178.762 10.14 178.942 9.78 179.302 9.5C179.676 9.20666 180.142 9.06 180.702 9.06Z" fill="#475009"/>
<path d="M152.961 19.56C155.321 19.56 156.988 19.9334 157.961 20.68C158.935 21.4267 159.421 22.4067 159.421 23.62C159.421 24.9534 158.908 26.0134 157.881 26.8C156.868 27.5867 155.381 27.98 153.421 27.98C153.048 27.98 152.735 27.9734 152.481 27.96L150.061 27.94C148.608 27.94 147.501 27.96 146.741 28V27.6C147.168 27.5734 147.475 27.52 147.661 27.44C147.848 27.36 147.975 27.2067 148.041 26.98C148.121 26.7534 148.161 26.3867 148.161 25.88V15.96C148.161 15.4534 148.121 15.0867 148.041 14.86C147.975 14.6334 147.848 14.48 147.661 14.4C147.475 14.32 147.168 14.2667 146.741 14.24V13.84C147.501 13.88 148.688 13.9 150.301 13.9C151.741 13.9 152.855 13.88 153.641 13.84V14.24C153.215 14.2667 152.901 14.32 152.701 14.4C152.515 14.48 152.388 14.6334 152.321 14.86C152.255 15.0867 152.221 15.4534 152.221 15.96V19.56H152.961ZM167.241 14.24C166.815 14.2667 166.501 14.32 166.301 14.4C166.115 14.48 165.988 14.6334 165.921 14.86C165.855 15.0867 165.821 15.4534 165.821 15.96V25.88C165.821 26.3867 165.855 26.7534 165.921 26.98C166.001 27.2067 166.135 27.36 166.321 27.44C166.508 27.52 166.815 27.5734 167.241 27.6V28C166.468 27.96 165.355 27.94 163.901 27.94C162.288 27.94 161.101 27.96 160.341 28V27.6C160.768 27.5734 161.075 27.52 161.261 27.44C161.461 27.36 161.595 27.2067 161.661 26.98C161.728 26.7534 161.761 26.3867 161.761 25.88V15.96C161.761 15.4534 161.721 15.0867 161.641 14.86C161.575 14.6334 161.448 14.48 161.261 14.4C161.075 14.32 160.768 14.2667 160.341 14.24V13.84C161.101 13.88 162.288 13.9 163.901 13.9C165.355 13.9 166.468 13.88 167.241 13.84V14.24ZM153.241 27.6C153.961 27.6 154.468 27.3067 154.761 26.72C155.068 26.12 155.221 25.1934 155.221 23.94C155.221 22.6867 155.048 21.7134 154.701 21.02C154.355 20.3134 153.708 19.96 152.761 19.96H152.221V25.88C152.221 26.56 152.288 27.02 152.421 27.26C152.555 27.4867 152.828 27.6 153.241 27.6Z" fill="#475009"/>
<path d="M144.419 14.24C143.993 14.2667 143.679 14.32 143.479 14.4C143.293 14.48 143.166 14.6334 143.099 14.86C143.033 15.0867 142.999 15.4534 142.999 15.96V25.88C142.999 26.3867 143.033 26.7534 143.099 26.98C143.179 27.2067 143.313 27.36 143.499 27.44C143.686 27.52 143.993 27.5734 144.419 27.6V28C143.699 27.96 142.579 27.94 141.059 27.94C139.526 27.94 138.346 27.96 137.519 28V27.6C137.946 27.5734 138.253 27.52 138.439 27.44C138.639 27.36 138.773 27.2067 138.839 26.98C138.906 26.7534 138.939 26.3867 138.939 25.88V21.08H134.439V25.88C134.439 26.3867 134.473 26.7534 134.539 26.98C134.619 27.2067 134.753 27.36 134.939 27.44C135.126 27.52 135.433 27.5734 135.859 27.6V28C135.086 27.96 133.973 27.94 132.519 27.94C130.906 27.94 129.719 27.96 128.959 28V27.6C129.386 27.5734 129.693 27.52 129.879 27.44C130.079 27.36 130.213 27.2067 130.279 26.98C130.346 26.7534 130.379 26.3867 130.379 25.88V15.96C130.379 15.4534 130.339 15.0867 130.259 14.86C130.193 14.6334 130.066 14.48 129.879 14.4C129.693 14.32 129.386 14.2667 128.959 14.24V13.84C129.719 13.88 130.906 13.9 132.519 13.9C133.959 13.9 135.073 13.88 135.859 13.84V14.24C135.433 14.2667 135.119 14.32 134.919 14.4C134.733 14.48 134.606 14.6334 134.539 14.86C134.473 15.0867 134.439 15.4534 134.439 15.96V20.68H138.939V15.96C138.939 15.4534 138.899 15.0867 138.819 14.86C138.753 14.6334 138.626 14.48 138.439 14.4C138.253 14.32 137.946 14.2667 137.519 14.24V13.84C138.346 13.88 139.526 13.9 141.059 13.9C142.579 13.9 143.699 13.88 144.419 13.84V14.24Z" fill="#475009"/>
<path d="M126.191 24.64C126.191 26 126.238 27.12 126.331 28C125.425 27.96 123.898 27.94 121.751 27.94C118.631 27.94 116.298 27.96 114.751 28V27.6C115.178 27.5734 115.485 27.52 115.671 27.44C115.871 27.36 116.005 27.2067 116.071 26.98C116.138 26.7534 116.171 26.3867 116.171 25.88V15.96C116.171 15.4534 116.131 15.0867 116.051 14.86C115.985 14.6334 115.858 14.48 115.671 14.4C115.485 14.32 115.178 14.2667 114.751 14.24V13.84C116.298 13.88 118.631 13.9 121.751 13.9C123.711 13.9 125.105 13.88 125.931 13.84C125.838 15.0934 125.791 16.2134 125.791 17.2C125.791 17.8134 125.811 18.2934 125.851 18.64H125.391C125.151 17.0934 124.705 15.9867 124.051 15.32C123.398 14.64 122.618 14.3 121.711 14.3H121.451C121.091 14.3 120.825 14.3334 120.651 14.4C120.491 14.4534 120.378 14.5667 120.311 14.74C120.258 14.9 120.231 15.1734 120.231 15.56V20.68H120.431C121.125 20.68 121.718 20.4067 122.211 19.86C122.705 19.3134 123.018 18.7067 123.151 18.04H123.611C123.571 18.6 123.551 19.2267 123.551 19.92V20.88C123.551 21.56 123.591 22.5067 123.671 23.72H123.211C123.091 22.96 122.778 22.3334 122.271 21.84C121.778 21.3334 121.165 21.08 120.431 21.08H120.231V26.28C120.231 26.6667 120.258 26.9467 120.311 27.12C120.378 27.28 120.491 27.3934 120.651 27.46C120.825 27.5134 121.091 27.54 121.451 27.54H122.111C122.885 27.54 123.618 27.1667 124.311 26.42C125.005 25.66 125.498 24.4534 125.791 22.8H126.251C126.211 23.28 126.191 23.8934 126.191 24.64Z" fill="#475009"/>
<path d="M112.547 14.24C112.067 14.2667 111.714 14.32 111.487 14.4C111.274 14.48 111.127 14.6334 111.047 14.86C110.967 15.0867 110.927 15.4534 110.927 15.96V25.88C110.927 26.3867 110.967 26.7534 111.047 26.98C111.127 27.2067 111.274 27.36 111.487 27.44C111.714 27.52 112.067 27.5734 112.547 27.6V28C111.747 27.96 110.507 27.94 108.827 27.94C107.267 27.94 106.074 27.96 105.247 28V27.6C105.727 27.5734 106.074 27.52 106.287 27.44C106.514 27.36 106.667 27.2067 106.747 26.98C106.827 26.7534 106.867 26.3867 106.867 25.88V15.96C106.867 15.2667 106.774 14.8067 106.587 14.58C106.401 14.3534 106.087 14.24 105.647 14.24H105.587C105.227 14.24 104.947 14.36 104.747 14.6C104.547 14.84 104.421 15.2934 104.367 15.96C104.327 16.3334 104.294 16.6934 104.267 17.04C104.254 17.3867 104.234 17.7134 104.207 18.02C104.061 20.1534 103.881 21.9 103.667 23.26C103.467 24.62 103.094 25.8 102.547 26.8C102.001 27.7867 101.214 28.28 100.187 28.28C99.4805 28.28 98.8939 28.0734 98.4272 27.66C97.9739 27.2334 97.7472 26.7134 97.7472 26.1C97.7472 25.4734 97.9605 24.9667 98.3872 24.58C98.8139 24.1934 99.3472 24 99.9872 24C100.534 24 100.967 24.1334 101.287 24.4C101.607 24.6534 101.767 25.0134 101.767 25.48C101.767 26.0667 101.567 26.5667 101.167 26.98C100.781 27.38 100.287 27.6334 99.6872 27.74C99.7939 27.8467 99.9605 27.9 100.187 27.9C101.134 27.9 101.861 27.3334 102.367 26.2C102.874 25.0667 103.221 23.7267 103.407 22.18C103.594 20.62 103.761 18.5467 103.907 15.96C103.921 15.8534 103.927 15.7067 103.927 15.52C103.927 15.1734 103.881 14.9134 103.787 14.74C103.694 14.5667 103.534 14.4467 103.307 14.38C103.081 14.3134 102.741 14.2667 102.287 14.24V13.84C102.847 13.88 103.534 13.9 104.347 13.9C104.547 13.9 104.847 13.8867 105.247 13.86L106.107 13.84L107.447 13.86C108.061 13.8867 108.567 13.9 108.967 13.9C110.554 13.9 111.747 13.88 112.547 13.84V14.24Z" fill="#475009"/>
<path d="M95.9594 24.64C95.9594 26 96.0061 27.12 96.0994 28C95.1927 27.96 93.6661 27.94 91.5194 27.94C88.3994 27.94 86.0661 27.96 84.5194 28V27.6C84.9461 27.5734 85.2527 27.52 85.4394 27.44C85.6394 27.36 85.7727 27.2067 85.8394 26.98C85.9061 26.7534 85.9394 26.3867 85.9394 25.88V15.96C85.9394 15.4534 85.8994 15.0867 85.8194 14.86C85.7527 14.6334 85.6261 14.48 85.4394 14.4C85.2527 14.32 84.9461 14.2667 84.5194 14.24V13.84C86.0661 13.88 88.3994 13.9 91.5194 13.9C93.4794 13.9 94.8727 13.88 95.6994 13.84C95.6061 15.0934 95.5594 16.2134 95.5594 17.2C95.5594 17.8134 95.5794 18.2934 95.6194 18.64H95.1594C94.9194 17.0934 94.4727 15.9867 93.8194 15.32C93.1661 14.64 92.3861 14.3 91.4794 14.3H91.2194C90.8594 14.3 90.5927 14.3334 90.4194 14.4C90.2594 14.4534 90.1461 14.5667 90.0794 14.74C90.0261 14.9 89.9994 15.1734 89.9994 15.56V20.68H90.1994C90.8927 20.68 91.4861 20.4067 91.9794 19.86C92.4727 19.3134 92.7861 18.7067 92.9194 18.04H93.3794C93.3394 18.6 93.3194 19.2267 93.3194 19.92V20.88C93.3194 21.56 93.3594 22.5067 93.4394 23.72H92.9794C92.8594 22.96 92.5461 22.3334 92.0394 21.84C91.5461 21.3334 90.9327 21.08 90.1994 21.08H89.9994V26.28C89.9994 26.6667 90.0261 26.9467 90.0794 27.12C90.1461 27.28 90.2594 27.3934 90.4194 27.46C90.5927 27.5134 90.8594 27.54 91.2194 27.54H91.8794C92.6527 27.54 93.3861 27.1667 94.0794 26.42C94.7727 25.66 95.2661 24.4534 95.5594 22.8H96.0194C95.9794 23.28 95.9594 23.8934 95.9594 24.64Z" fill="#475009"/>
<path d="M76.685 13.56C78.1517 13.56 79.3383 13.8333 80.245 14.38C81.165 14.9133 81.625 15.6467 81.625 16.58C81.625 17.58 81.1117 18.42 80.085 19.1C79.0583 19.7667 77.885 20.2333 76.565 20.5C77.525 20.5133 78.4517 20.66 79.345 20.94C80.2383 21.22 80.965 21.6333 81.525 22.18C82.0983 22.7267 82.385 23.4 82.385 24.2C82.385 25.04 82.0583 25.7733 81.405 26.4C80.765 27.0133 79.925 27.48 78.885 27.8C77.8583 28.12 76.7717 28.28 75.625 28.28C73.905 28.28 72.5583 27.9133 71.585 27.18C71.2517 26.9267 70.965 26.62 70.725 26.26C70.4983 25.9 70.385 25.5067 70.385 25.08C70.385 24.4533 70.5917 23.96 71.005 23.6C71.4183 23.24 71.9183 23.06 72.505 23.06C73.105 23.06 73.5717 23.2267 73.905 23.56C74.2383 23.88 74.405 24.36 74.405 25C74.405 25.4933 74.225 25.9333 73.865 26.32C73.5183 26.6933 73.0383 26.96 72.425 27.12C73.1183 27.56 73.9917 27.78 75.045 27.78C76.1383 27.78 77.005 27.48 77.645 26.88C78.285 26.28 78.605 25.3667 78.605 24.14C78.605 23.2067 78.4117 22.4067 78.025 21.74C77.6383 21.0733 77.045 20.72 76.245 20.68C75.925 20.8533 75.645 20.94 75.405 20.94C75.2717 20.94 75.165 20.9133 75.085 20.86C75.005 20.8067 74.965 20.72 74.965 20.6C74.965 20.3867 75.125 20.28 75.445 20.28C75.6183 20.28 75.8917 20.32 76.265 20.4C76.8383 20.1333 77.2383 19.6933 77.465 19.08C77.705 18.4533 77.825 17.78 77.825 17.06C77.825 16.06 77.6317 15.3467 77.245 14.92C76.8583 14.48 76.3117 14.26 75.605 14.26C74.4583 14.26 73.5783 14.68 72.965 15.52C72.365 16.36 72.025 17.4667 71.945 18.84H71.485C71.485 16.4533 71.4583 14.7867 71.405 13.84H71.865C71.905 14.2667 71.965 14.5733 72.045 14.76C72.125 14.9467 72.2383 15.04 72.385 15.04C72.4783 15.04 72.605 14.98 72.765 14.86C73.3917 14.4067 73.965 14.08 74.485 13.88C75.0183 13.6667 75.7517 13.56 76.685 13.56Z" fill="#475009"/>
<path d="M194.928 48.2801V51.6801C194.928 52.2401 194.982 52.6468 195.088 52.9001C195.208 53.1534 195.415 53.3268 195.708 53.4201C196.015 53.5001 196.495 53.5401 197.148 53.5401V54.0001C195.348 53.9601 193.975 53.9401 193.028 53.9401C192.402 53.9401 191.528 53.9534 190.408 53.9801L189.448 54.0001V53.6001C189.875 53.5734 190.182 53.5201 190.368 53.4401C190.568 53.3601 190.702 53.2068 190.768 52.9801C190.835 52.7534 190.868 52.3868 190.868 51.8801V41.9601C190.868 41.4534 190.828 41.0868 190.748 40.8601C190.682 40.6334 190.555 40.4801 190.368 40.4001C190.182 40.3201 189.875 40.2668 189.448 40.2401V39.8401C190.208 39.8801 191.355 39.9001 192.888 39.9001L195.188 39.8801C195.455 39.8668 195.762 39.8601 196.108 39.8601C198.082 39.8601 199.575 40.2201 200.588 40.9401C201.615 41.6468 202.128 42.6001 202.128 43.8001C202.128 44.5334 201.928 45.2401 201.528 45.9201C201.128 46.5868 200.448 47.1468 199.488 47.6001C198.528 48.0534 197.255 48.2801 195.668 48.2801H194.928ZM196.008 40.2401C195.702 40.2401 195.468 40.2868 195.308 40.3801C195.162 40.4734 195.062 40.6401 195.008 40.8801C194.955 41.1201 194.928 41.4801 194.928 41.9601V47.8801H195.468C196.402 47.8801 197.042 47.5334 197.388 46.8401C197.748 46.1468 197.928 45.2068 197.928 44.0201C197.928 42.7268 197.782 41.7734 197.488 41.1601C197.195 40.5468 196.702 40.2401 196.008 40.2401Z" fill="#475009"/>
<path d="M187.136 40.2401C186.709 40.2668 186.402 40.3201 186.216 40.4001C186.029 40.4801 185.896 40.6334 185.816 40.8601C185.749 41.0868 185.716 41.4534 185.716 41.9601V51.8801C185.716 52.3868 185.749 52.7534 185.816 52.9801C185.896 53.2068 186.029 53.3601 186.216 53.4401C186.402 53.5201 186.709 53.5734 187.136 53.6001V54.0001C186.376 53.9601 185.189 53.9401 183.576 53.9401C182.136 53.9401 181.022 53.9601 180.236 54.0001V53.6001C180.662 53.5734 180.969 53.5201 181.156 53.4401C181.342 53.3601 181.469 53.2068 181.536 52.9801C181.616 52.7534 181.656 52.3868 181.656 51.8801V42.6801L176.756 52.2001C176.769 52.5868 176.816 52.8801 176.896 53.0801C176.976 53.2668 177.109 53.3934 177.296 53.4601C177.496 53.5268 177.789 53.5734 178.176 53.6001V54.0001C177.402 53.9601 176.289 53.9401 174.836 53.9401C173.222 53.9401 172.036 53.9601 171.276 54.0001V53.6001C171.702 53.5734 172.009 53.5201 172.196 53.4401C172.382 53.3601 172.509 53.2068 172.576 52.9801C172.656 52.7534 172.696 52.3868 172.696 51.8801V41.9601C172.696 41.4534 172.656 41.0868 172.576 40.8601C172.509 40.6334 172.382 40.4801 172.196 40.4001C172.009 40.3201 171.702 40.2668 171.276 40.2401V39.8401C172.036 39.8801 173.222 39.9001 174.836 39.9001C176.276 39.9001 177.389 39.8801 178.176 39.8401V40.2401C177.749 40.2668 177.442 40.3201 177.256 40.4001C177.069 40.4801 176.936 40.6334 176.856 40.8601C176.789 41.0868 176.756 41.4534 176.756 41.9601V51.2001L181.656 41.7001C181.642 41.2868 181.596 40.9868 181.516 40.8001C181.436 40.6001 181.302 40.4668 181.116 40.4001C180.929 40.3201 180.636 40.2668 180.236 40.2401V39.8401C181.009 39.8801 182.122 39.9001 183.576 39.9001C185.189 39.9001 186.376 39.8801 187.136 39.8401V40.2401Z" fill="#475009"/>
<path d="M169.844 53.2001C169.444 53.6001 169.004 53.8801 168.524 54.0401C168.044 54.2001 167.484 54.2801 166.844 54.2801C165.91 54.2801 165.19 54.1201 164.684 53.8001C164.19 53.4668 163.884 52.9068 163.764 52.1201L163.244 48.6801C163.124 47.9734 162.897 47.4868 162.564 47.2201C162.244 46.9401 161.71 46.7801 160.964 46.7401V51.8801C160.964 52.3868 160.997 52.7534 161.064 52.9801C161.13 53.2068 161.257 53.3601 161.444 53.4401C161.644 53.5201 161.957 53.5734 162.384 53.6001V54.0001C161.624 53.9601 160.437 53.9401 158.824 53.9401C157.384 53.9401 156.27 53.9601 155.484 54.0001V53.6001C155.91 53.5734 156.217 53.5201 156.404 53.4401C156.59 53.3601 156.717 53.2068 156.784 52.9801C156.864 52.7534 156.904 52.3868 156.904 51.8801V46.7401C156.157 46.7801 155.617 46.9401 155.284 47.2201C154.964 47.4868 154.744 47.9734 154.624 48.6801L154.104 52.1201C153.984 52.9068 153.67 53.4668 153.164 53.8001C152.67 54.1201 151.957 54.2801 151.024 54.2801C150.384 54.2801 149.824 54.2001 149.344 54.0401C148.864 53.8801 148.424 53.6001 148.024 53.2001L148.284 52.9401C148.457 53.1134 148.657 53.2001 148.884 53.2001C149.124 53.2001 149.31 53.1068 149.444 52.9201C149.59 52.7334 149.71 52.3934 149.804 51.9001L150.384 49.1201C150.57 48.2401 151.037 47.6001 151.784 47.2001C152.544 46.8001 153.65 46.5534 155.104 46.4601L151.564 42.4201C150.537 41.2601 149.444 40.5268 148.284 40.2201V39.8401C148.83 39.8801 149.504 39.9001 150.304 39.9001C151.437 39.9001 152.564 39.8801 153.684 39.8401V40.2201C153.204 40.2468 152.81 40.3801 152.504 40.6201C152.197 40.8468 152.044 41.1534 152.044 41.5401C152.044 42.0734 152.337 42.6734 152.924 43.3401L153.604 44.1001C154.35 44.9401 154.95 45.5268 155.404 45.8601C155.87 46.1934 156.37 46.3801 156.904 46.4201V41.9601C156.904 41.4534 156.87 41.0868 156.804 40.8601C156.737 40.6334 156.604 40.4801 156.404 40.4001C156.217 40.3201 155.91 40.2668 155.484 40.2401V39.8401C156.257 39.8801 157.37 39.9001 158.824 39.9001C160.437 39.9001 161.624 39.8801 162.384 39.8401V40.2401C161.957 40.2668 161.65 40.3201 161.464 40.4001C161.277 40.4801 161.144 40.6334 161.064 40.8601C160.997 41.0868 160.964 41.4534 160.964 41.9601V46.4201C161.497 46.3801 161.99 46.1934 162.444 45.8601C162.91 45.5268 163.517 44.9401 164.264 44.1001L164.944 43.3401C165.53 42.6734 165.824 42.0734 165.824 41.5401C165.824 41.1534 165.67 40.8468 165.364 40.6201C165.057 40.3801 164.664 40.2468 164.184 40.2201V39.8401C165.304 39.8801 166.43 39.9001 167.564 39.9001C168.364 39.9001 169.037 39.8801 169.584 39.8401V40.2201C168.424 40.5268 167.33 41.2601 166.304 42.4201L162.764 46.4601C164.217 46.5534 165.317 46.8001 166.064 47.2001C166.824 47.6001 167.297 48.2401 167.484 49.1201L168.064 51.9001C168.157 52.3934 168.27 52.7334 168.404 52.9201C168.55 53.1068 168.744 53.2001 168.984 53.2001C169.21 53.2001 169.41 53.1134 169.584 52.9401L169.844 53.2001Z" fill="#475009"/>
<path d="M146.096 52.3201C146.269 52.7468 146.456 53.0668 146.656 53.2801C146.869 53.4801 147.076 53.5868 147.276 53.6001V54.0001C146.316 53.9601 145.103 53.9401 143.636 53.9401C142.116 53.9401 140.996 53.9601 140.276 54.0001V53.6001C140.783 53.5734 141.143 53.5134 141.356 53.4201C141.569 53.3134 141.676 53.1334 141.676 52.8801C141.676 52.6401 141.596 52.3201 141.436 51.9201L140.256 48.6401H136.216L135.876 49.5401C135.436 50.6734 135.216 51.5401 135.216 52.1401C135.216 52.6868 135.369 53.0601 135.676 53.2601C135.983 53.4601 136.436 53.5734 137.036 53.6001V54.0001C136.036 53.9601 135.163 53.9401 134.416 53.9401C133.789 53.9401 133.276 53.9601 132.876 54.0001V53.6001C133.209 53.5468 133.523 53.3401 133.816 52.9801C134.109 52.6201 134.409 52.0468 134.716 51.2601L139.156 39.8401C139.583 39.8668 139.936 39.8801 140.216 39.8801C140.483 39.8801 140.829 39.8668 141.256 39.8401L146.096 52.3201ZM140.116 48.2401L138.296 43.2401L136.376 48.2401H140.116Z" fill="#475009"/>
<path d="M126.04 39.5601C126.84 39.5601 127.52 39.6734 128.08 39.9001C128.64 40.1267 129.187 40.4467 129.72 40.8601C129.853 40.9801 129.98 41.0401 130.1 41.0401C130.367 41.0401 130.54 40.6401 130.62 39.8401H131.08C131.027 40.7867 131 42.4534 131 44.8401H130.54C130.447 43.7734 130.273 42.9334 130.02 42.3201C129.767 41.7067 129.327 41.1934 128.7 40.7801C128.073 40.3801 127.453 40.1801 126.84 40.1801C125.453 40.1801 124.48 40.8467 123.92 42.1801C123.36 43.5134 123.08 45.1067 123.08 46.9601C123.08 48.8134 123.36 50.4067 123.92 51.7401C124.48 53.0734 125.453 53.7401 126.84 53.7401C127.453 53.7401 128.073 53.5401 128.7 53.1401C129.327 52.7534 129.767 52.2334 130.02 51.5801C130.273 50.9267 130.447 50.0001 130.54 48.8001H131C131 51.2934 131.027 53.0267 131.08 54.0001H130.62C130.58 53.5734 130.52 53.2734 130.44 53.1001C130.373 52.9134 130.273 52.8201 130.14 52.8201C130.033 52.8201 129.893 52.8734 129.72 52.9801C129.12 53.4067 128.547 53.7334 128 53.9601C127.453 54.1734 126.793 54.2801 126.02 54.2801C124.513 54.2801 123.193 53.9934 122.06 53.4201C120.927 52.8467 120.047 52.0201 119.42 50.9401C118.793 49.8467 118.48 48.5467 118.48 47.0401C118.48 45.5734 118.8 44.2734 119.44 43.1401C120.08 42.0067 120.973 41.1267 122.12 40.5001C123.267 39.8734 124.573 39.5601 126.04 39.5601Z" fill="#475009"/>
<path d="M110.504 39.5601C111.304 39.5601 111.984 39.6734 112.544 39.9001C113.104 40.1267 113.651 40.4467 114.184 40.8601C114.318 40.9801 114.444 41.0401 114.564 41.0401C114.831 41.0401 115.004 40.6401 115.084 39.8401H115.544C115.491 40.7867 115.464 42.4534 115.464 44.8401H115.004C114.911 43.7734 114.738 42.9334 114.484 42.3201C114.231 41.7067 113.791 41.1934 113.164 40.7801C112.538 40.3801 111.918 40.1801 111.304 40.1801C109.918 40.1801 108.944 40.8467 108.384 42.1801C107.824 43.5134 107.544 45.1067 107.544 46.9601C107.544 48.8134 107.824 50.4067 108.384 51.7401C108.944 53.0734 109.918 53.7401 111.304 53.7401C111.918 53.7401 112.538 53.5401 113.164 53.1401C113.791 52.7534 114.231 52.2334 114.484 51.5801C114.738 50.9267 114.911 50.0001 115.004 48.8001H115.464C115.464 51.2934 115.491 53.0267 115.544 54.0001H115.084C115.044 53.5734 114.984 53.2734 114.904 53.1001C114.838 52.9134 114.738 52.8201 114.604 52.8201C114.498 52.8201 114.358 52.8734 114.184 52.9801C113.584 53.4067 113.011 53.7334 112.464 53.9601C111.918 54.1734 111.258 54.2801 110.484 54.2801C108.978 54.2801 107.658 53.9934 106.524 53.4201C105.391 52.8467 104.511 52.0201 103.884 50.9401C103.258 49.8467 102.944 48.5467 102.944 47.0401C102.944 45.5734 103.264 44.2734 103.904 43.1401C104.544 42.0067 105.438 41.1267 106.584 40.5001C107.731 39.8734 109.038 39.5601 110.504 39.5601Z" fill="#475009"/>
<path d="M100.582 52.3201C100.755 52.7468 100.942 53.0668 101.142 53.2801C101.355 53.4801 101.562 53.5868 101.762 53.6001V54.0001C100.802 53.9601 99.5887 53.9401 98.1221 53.9401C96.6021 53.9401 95.4821 53.9601 94.7621 54.0001V53.6001C95.2687 53.5734 95.6287 53.5134 95.8421 53.4201C96.0554 53.3134 96.1621 53.1334 96.1621 52.8801C96.1621 52.6401 96.0821 52.3201 95.9221 51.9201L94.7421 48.6401H90.7021L90.3621 49.5401C89.9221 50.6734 89.7021 51.5401 89.7021 52.1401C89.7021 52.6868 89.8554 53.0601 90.1621 53.2601C90.4687 53.4601 90.9221 53.5734 91.5221 53.6001V54.0001C90.5221 53.9601 89.6487 53.9401 88.9021 53.9401C88.2754 53.9401 87.7621 53.9601 87.3621 54.0001V53.6001C87.6954 53.5468 88.0087 53.3401 88.3021 52.9801C88.5954 52.6201 88.8954 52.0468 89.2021 51.2601L93.6421 39.8401C94.0687 39.8668 94.4221 39.8801 94.7021 39.8801C94.9687 39.8801 95.3154 39.8668 95.7421 39.8401L100.582 52.3201ZM94.6021 48.2401L92.7821 43.2401L90.8621 48.2401H94.6021Z" fill="#475009"/>
<path d="M86.02 40.2401C85.5933 40.2668 85.2867 40.3201 85.1 40.4001C84.9133 40.4801 84.78 40.6334 84.7 40.8601C84.6333 41.0868 84.6 41.4534 84.6 41.9601V51.8801C84.6 52.3868 84.6333 52.7534 84.7 52.9801C84.78 53.2068 84.9133 53.3601 85.1 53.4401C85.2867 53.5201 85.5933 53.5734 86.02 53.6001V54.0001C85.26 53.9601 84.0733 53.9401 82.46 53.9401C81.02 53.9401 79.9067 53.9601 79.12 54.0001V53.6001C79.5467 53.5734 79.8533 53.5201 80.04 53.4401C80.2267 53.3601 80.3533 53.2068 80.42 52.9801C80.5 52.7534 80.54 52.3868 80.54 51.8801V41.9601C80.54 41.4534 80.5 41.0868 80.42 40.8601C80.34 40.6201 80.1867 40.4601 79.96 40.3801C79.7333 40.2868 79.3867 40.2401 78.92 40.2401H77.66C77.1933 40.2401 76.8467 40.2868 76.62 40.3801C76.3933 40.4601 76.24 40.6201 76.16 40.8601C76.08 41.0868 76.04 41.4534 76.04 41.9601V51.8801C76.04 52.3868 76.0733 52.7534 76.14 52.9801C76.22 53.2068 76.3533 53.3601 76.54 53.4401C76.7267 53.5201 77.0333 53.5734 77.46 53.6001V54.0001C76.6867 53.9601 75.5733 53.9401 74.12 53.9401C72.5067 53.9401 71.32 53.9601 70.56 54.0001V53.6001C70.9867 53.5734 71.2933 53.5201 71.48 53.4401C71.6667 53.3601 71.7933 53.2068 71.86 52.9801C71.94 52.7534 71.98 52.3868 71.98 51.8801V41.9601C71.98 41.4534 71.94 41.0868 71.86 40.8601C71.7933 40.6334 71.6667 40.4801 71.48 40.4001C71.2933 40.3201 70.9867 40.2668 70.56 40.2401V39.8401C71.32 39.8801 72.5067 39.9001 74.12 39.9001C74.7867 39.9001 75.6533 39.8868 76.72 39.8601L78.32 39.8401L79.88 39.8601C80.9467 39.8868 81.8067 39.9001 82.46 39.9001C84.0733 39.9001 85.26 39.8801 86.02 39.8401V40.2401Z" fill="#475009"/>
</svg>
