<svg width="22" height="12" viewBox="0 0 22 12" fill="none" xmlns="http://www.w3.org/2000/svg">
<path d="M16.4615 0.757287C14.7065 0.667287 13.1465 1.41729 12.1265 2.65479C12.1265 2.65479 10.979 4.13979 10.979 4.13229C10.979 4.13229 9.53153 6.02979 9.53903 6.02979L8.29403 7.66479L8.19653 7.79229C7.48403 8.74479 6.22403 9.27729 4.89653 8.88729C4.39963 8.73719 3.95123 8.45839 3.59693 8.07899C3.24263 7.69959 2.99493 7.23329 2.87903 6.72729C2.77563 6.28899 2.77263 5.83309 2.87023 5.39349C2.96783 4.95389 3.16343 4.54199 3.44253 4.18859C3.72163 3.83519 4.07693 3.54949 4.48203 3.35269C4.88703 3.15599 5.33123 3.05329 5.78153 3.05229C6.68903 3.05229 7.36403 3.43479 7.82903 3.83979C8.32403 4.27479 9.08153 4.20729 9.48653 3.68229C9.83903 3.22479 9.79403 2.56479 9.37403 2.17479C7.00403 -0.000212193 2.51903 0.494787 1.08653 3.51729C-0.773432 7.43979 2.06153 11.3098 5.78153 11.3098C7.41653 11.3098 8.87903 10.5823 9.84653 9.41229L10.169 8.99229C10.169 8.99229 10.9865 7.91979 10.9865 7.92729C10.9865 7.92729 12.434 6.02979 12.4265 6.02979L13.694 4.37229L13.784 4.25979C14.4365 3.37479 15.5615 2.87229 16.799 3.11229C17.894 3.32979 18.8015 4.18479 19.0715 5.27229C19.5665 7.24479 18.0815 9.02229 16.184 9.02229C15.2915 9.02229 14.6165 8.63979 14.1515 8.22729C14.0341 8.12429 13.8968 8.04659 13.7481 7.99889C13.5993 7.95119 13.4424 7.93449 13.287 7.94999C13.1316 7.96549 12.981 8.01269 12.8446 8.08879C12.7082 8.16489 12.5889 8.26819 12.494 8.39229C12.1265 8.87229 12.194 9.53979 12.644 9.94479C13.3415 10.5673 14.534 11.3248 16.184 11.3248C19.334 11.3248 21.8465 8.55729 21.419 5.32479C21.089 2.83479 18.959 0.884787 16.4615 0.757287Z" fill="#259DD6"/>
</svg>
