<svg xmlns="http://www.w3.org/2000/svg" width="198" height="50" fill="none"><g fill="#47ACE5" clip-path="url(#a)"><path d="M41.903 22.551c-.193.162-.395.314-.634.485-1.407 1.067-3.678 1.928-6.75 2.69-6.436 1.696-11.098 1.947-16.413 3.221a21.958 21.958 0 0 0-3.118.987c1.003.493 2.07.897 3.164 1.354a47.694 47.694 0 0 1 6.317-1.4c1.186-.196 4.855-.824 7.503-1.38 4.79-.996 11.798-3.158 9.931-6.002M38.86 16.65a25.737 25.737 0 0 0-3.678-1.238 8.76 8.76 0 0 1-2.317 1.274c1.482.295 2.943.679 4.377 1.148.248.126 1.398-.897 1.582-1.184m-23.448 6.28c6.252-1.795 12.818-2.35 19.466-4.082a15.52 15.52 0 0 0-6.768-.664c-4.1.476-8.154 1.28-12.12 2.404-1.47.43-9.194 2.575-6.978 5.588 0 0 1.324-1.794 6.436-3.247m-4.34 10.343c0 .556.331 1.058 1.095 1.668.096-.299.252-.576.46-.816a18.376 18.376 0 0 1-1.555-.852Zm2.961-.288c.54-.306 1.102-.573 1.683-.798a60.29 60.29 0 0 1-2.759-1.166c-.391.229-.755.5-1.085.808.699.394 1.407.789 2.134 1.156m24.064-13.015a33.349 33.349 0 0 1-5.665 1.794c-2.115.52-7.292 1.247-12.873 2.431-1.775.377-6.529 1.48-8.874 3.435.557.405 1.155.754 1.784 1.041a14.99 14.99 0 0 1 4.248-1.668 81.685 81.685 0 0 1 9.058-1.795A82.32 82.32 0 0 0 37.7 22.444a10.01 10.01 0 0 0 2.759-1.382 9.934 9.934 0 0 0-2.336-1.112m1.784-1.094c.595.257 1.17.557 1.72.897.395-.727.156-1.202-.663-1.884a6.81 6.81 0 0 1-1.057.987ZM10.795 29.925a16.3 16.3 0 0 1-1.407-.834c-.248.529.221 1.12.727 1.408.211-.215.46-.386.68-.574Zm26.648-16.918a3.422 3.422 0 0 1-.92 1.23c.936.25 1.857.55 2.76.896-.11-.816-1.086-1.605-1.922-2.144M8.018 18.228c6.557-4.207 13.793-6.665 26.078-4.584a2.126 2.126 0 0 0 1.223-1.543 29.956 29.956 0 0 0-10.694-1.39c-3.862.108-10.814 1.516-14.528 3.66l1.13-1.382c2.594-1.489 9.361-3.471 14.437-3.588a29.06 29.06 0 0 1 9.683 1.256c-.405-.7-1.324-1.058-2.575-1.597-4.11-1.793-11.807-1.982-18.105.736a20.647 20.647 0 0 1 2.593-1.444 23.597 23.597 0 0 1 9.728-1.794c3.403.054 7.43 1.21 9.904 3.588.349.401.603.873.745 1.381a8.373 8.373 0 0 1 3.742 2.987c.27.559.36 1.185.258 1.794a4.782 4.782 0 0 1 1.581 1.436c.3.412.491.889.561 1.39a2.325 2.325 0 0 1-.487 2.063c.619.37 1.075.952 1.278 1.632.312 1.445-.635 2.853-1.84 3.947a20.728 20.728 0 0 1-7.2 3.346c-5.13 1.265-9.664 1.794-13.268 2.458 2.417.613 4.905.914 7.402.897a35.061 35.061 0 0 0 14.428-3.588l-.304.897c-4.864 2.88-12.607 4.1-15.908 3.947a35.627 35.627 0 0 1-8.984-1.453c-.851.205-1.682.484-2.482.834a29.429 29.429 0 0 0 10.979 2.547c3.678.27 9.728-.6 14.86-2.421-.24.233-.36.6-.598.807a34.698 34.698 0 0 1-10.961 2.816 42.476 42.476 0 0 1-9.094-.529 31.587 31.587 0 0 1-6.759-2.198 1.59 1.59 0 0 0-.662 1.059c8.432 4.315 16.34 4.413 25.324 1.677l-.818.78c-9.895 3.92-17.637 2.396-23.623-.43a4.64 4.64 0 0 1-.607-.287c.552.897 5.131 4.216 10.234 4.629a26.16 26.16 0 0 0 10.382-1.31l-1.49.772a18.48 18.48 0 0 1-9.094 1.64c-4.097-.167-8.003-1.736-11.034-4.43a4.22 4.22 0 0 1-1.27-2.314 7.15 7.15 0 0 1-2.988-2.557 2.554 2.554 0 0 1-.23-1.973c.029-.186.081-.366.157-.539a5.738 5.738 0 0 1-1.619-1.489 2.504 2.504 0 0 1 .184-2.69 3.935 3.935 0 0 1-.846-1.212 3.507 3.507 0 0 1-.147-1.48 4.584 4.584 0 0 1 1.214-2.466c1.333-1.507 3.43-2.692 7.025-3.84a67.211 67.211 0 0 1 7.577-1.92c3.099-.699 6.796-.896 9.904-1.99-8.644-1.48-17.61-.135-24.929 4.798l.533-1.336ZM.92 25.117C.965 11.786 12.08 1.015 25.747 1.059c13.666.045 24.707 10.888 24.661 24.22-.045 13.299-11.11 24.057-24.744 24.057C11.984 49.292.92 38.461.92 25.116Zm-.92 0c.066 13.807 11.593 24.947 25.747 24.882C39.9 49.935 51.32 38.69 51.254 24.884 51.19 11.123 39.734 0 25.627 0 11.455.065 0 11.29 0 25.117ZM166.298 10.34l.736 5.015h-1.471l.735-5.016Zm-5.788 11.472h3.953l.474-2.843h2.75l.481 2.843h3.945L168.78 5.377h-4.901l-3.369 16.435ZM134.795 5.35h3.307l2.921 3.87 2.935-3.87h3.293v16.435h-3.898V11.761l-2.344 2.876-2.337-2.876v10.058h-3.911l.034-16.469Zm-69.122 0h7.973v4.097h-4.028v12.345h-3.96l.015-16.442Zm120.978 0h3.788v5.915h.825l2.186-5.915h4.124l-2.97 7.799L198 21.785h-4.475l-2.186-6.611h-.9v6.611h-3.808l.02-16.435Zm-12.895 0h3.815v5.915h2.715V5.35h3.808v16.435h-3.828v-6.571h-2.715v6.571h-3.815l.02-16.435Zm-20.058 13.143v-3.735h.564c.454 0 1.684 0 1.684 1.71s-1.23 2.011-1.684 2.011l-.564.014Zm-3.815 3.292h4.647c1.011 0 5.217-.409 5.224-5.364 0-4.204-3.258-4.929-5.368-4.929h-.688V9.293h5.121V5.35h-8.936v16.435Zm-23.109-3.775c-1.375 0-2.062-1.569-2.062-4.466 0-2.896.687-4.459 2.062-4.459 1.375 0 2.062 1.563 2.062 4.46 0 2.896-.687 4.465-2.062 4.465Zm0 3.976c4.612 0 6.186-4.224 6.186-8.442 0-4.217-1.56-8.435-6.186-8.435-4.626 0-6.187 4.218-6.187 8.435 0 4.218 1.554 8.442 6.187 8.442ZM113.225 8.971h.915c.886 0 1.436.51 1.436 1.878 0 1.777-.928 1.897-1.436 1.897h-.921l.006-3.775Zm-3.897 12.814h3.897v-5.418h1.306c3.857 0 5.039-3.393 5.039-5.545 0-2.153-1.375-5.472-5.039-5.472h-5.203v16.435ZM96.468 5.35h10.612v16.435h-3.89V9.307h-2.798v12.478h-3.89L96.466 5.35Zm-7.988 6.552c.944.04 1.744-.672 1.786-1.594v-.016c.021-.83-.651-1.518-1.501-1.537a1.51 1.51 0 0 0-.21.009c-.74 0-1.472.158-2.144.462V5.672a12.663 12.663 0 0 1 3.395-.429c3.176 0 4.613 2.186 4.613 4.312.07 1.634-.88 3.148-2.406 3.828v.161c1.12.349 2.66 1.422 2.66 3.943 0 3.098-2.213 4.808-5.032 4.808a6.967 6.967 0 0 1-3.684-.852l.069-3.413c.809.357 1.69.526 2.578.496.894.056 1.665-.606 1.722-1.478l.003-.11c0-.926-.598-1.543-1.925-1.543h-1.588v-3.493h1.664Zm-9.507-1.59.736 5.016h-1.471l.735-5.016Zm-5.787 11.473h3.952l.474-2.836h2.75l.474 2.843h3.946L81.42 5.35h-4.9l-3.334 16.435ZM123.837 28.322c-.472 0-.94-.09-1.375-.269a3.448 3.448 0 0 1-1.162-.798 3.903 3.903 0 0 1-.804-1.34 5.08 5.08 0 0 1-.302-1.831h2.687c-.018.383.06.765.227 1.113a.751.751 0 0 0 .688.409.745.745 0 0 0 .687-.41c.167-.347.245-.729.227-1.112h2.687a5.236 5.236 0 0 1-.295 1.83 3.795 3.795 0 0 1-.811 1.341 3.442 3.442 0 0 1-1.155.798c-.416.17-.862.262-1.313.269h.014Zm-5.616.798h3.822v8.998c.433-1.146.962-2.46 1.258-3.218l2.323-5.774h3.829v16.429h-3.829v-9.12c-.371 1.167-.921 2.609-1.313 3.587l-2.241 5.533h-3.849V29.12Zm23.687 0v16.408h-3.663V33.056h-1.526v6.47c0 2.247-.069 6.216-4.241 6.216a4.218 4.218 0 0 1-1.595-.288v-3.842c.301.076.61.123.921.14.859 0 1.251-.67 1.251-3.587V29.12h8.853Zm-31.215 4.961.743 5.016h-1.478l.735-5.016Zm-5.781 11.474h3.946l.481-2.837h2.715l.481 2.837h3.946l-3.334-16.435h-4.915l-3.32 16.435Zm-6.805-3.32v-3.734h.57c.454 0 1.684 0 1.684 1.71s-1.23 2.011-1.684 2.011l-.57.013Zm-3.808 3.293h4.646c1.01 0 5.211-.41 5.224-5.365 0-4.204-3.265-4.928-5.375-4.928h-.687v-2.18h5.148v-3.942h-8.936l-.02 16.415ZM65.723 29.093h3.306l2.915 3.875 2.935-3.875h3.3v16.435h-3.892V35.47l-2.378 2.91-2.33-2.877v10.058h-3.856V29.093Zm20.416 12.66c-1.375 0-2.062-1.57-2.062-4.46 0-2.89.687-4.465 2.062-4.465 1.374 0 2.062 1.569 2.062 4.465 0 2.897-.688 4.46-2.062 4.46Zm0 3.976c4.612 0 6.186-4.218 6.186-8.436 0-4.217-1.56-8.435-6.186-8.435-4.626 0-6.187 4.218-6.187 8.435 0 4.218 1.56 8.436 6.187 8.436Z"/></g><defs><clipPath id="a"><path fill="#fff" d="M0 0h198v50H0z"/></clipPath></defs></svg>