<svg width="30" height="10" viewBox="0 0 30 10" fill="none" xmlns="http://www.w3.org/2000/svg">
<path d="M21.3687 4.77539V9.49825H24.0596V6.83876H26.7686C28.1831 6.83876 29.3897 5.98056 29.8563 4.77539H21.3687Z" fill="white"/>
<path d="M21.2476 0.5C21.2589 0.736954 21.2904 0.972313 21.3416 1.20317C21.3528 1.25392 21.364 1.3056 21.3778 1.35543C21.383 1.37573 21.3881 1.39603 21.3942 1.41726C21.6352 2.23304 22.1128 2.94546 22.7578 3.45121C23.4028 3.95695 24.1816 4.22971 24.9812 4.22993H29.9508C29.9825 4.04513 29.999 3.85769 29.9999 3.66979C29.9979 2.83011 29.6854 2.02541 29.1306 1.43148C28.5758 0.837557 27.8239 0.502679 27.0391 0.5H21.2476Z" fill="#4CC567"/>
<path d="M16.5979 1.45048L14.7134 5.81806H14.5228V0.5H11.8491V9.5H14.1209C14.4131 9.49984 14.6991 9.41016 14.9452 9.24156C15.1913 9.07296 15.3871 8.8325 15.5095 8.5486L17.3931 4.18194H17.5846V9.5H20.2582V0.5H17.9856C17.6936 0.50003 17.4077 0.589565 17.1618 0.758009C16.9159 0.926454 16.7202 1.16676 16.5979 1.45048Z" fill="white"/>
<path d="M4.13657 1.68302L5.25175 5.81806H5.44236L6.55754 1.68302C6.64937 1.34263 6.84194 1.04331 7.10632 0.82999C7.37069 0.616673 7.69262 0.500881 8.02374 0.5H10.6974V9.49908H8.02374V4.18194H7.83228L6.30311 9.49908H4.39187L2.86184 4.18194H2.67123V9.49908H-0.00244141V0.5H2.67123C3.00236 0.500881 3.32428 0.616673 3.58866 0.82999C3.85304 1.04331 4.04474 1.34263 4.13657 1.68302Z" fill="white"/>
</svg>
