<svg width="22" height="22" viewBox="0 0 22 22" fill="none" xmlns="http://www.w3.org/2000/svg">
<path d="M21.4193 16.0868L18.5966 13.264C17.8416 12.509 16.5989 12.4945 15.8266 13.2317L14.2498 14.7365C11.823 13.3743 8.62569 10.177 7.26345 7.75012L8.76831 6.17343C9.5055 5.40099 9.49096 4.15837 8.73598 3.40343L5.91323 0.580726C5.51196 0.179356 4.99978 -0.0205976 4.433 0.00167714C3.8659 0.024235 3.37156 0.264349 3.00341 0.696158L0.135973 4.05917C0.0504607 4.1595 0.00260784 4.28645 0.000672967 4.41826C-0.0231119 6.03025 0.583685 7.9134 1.80412 10.0153C2.89794 11.8992 4.43423 13.8531 6.24693 15.6658C9.31918 18.738 13.8738 22.0003 17.4938 22C17.523 22 17.5527 21.9998 17.5817 21.9993C17.7135 21.9974 17.8405 21.9495 17.9408 21.864L21.3038 18.9966C21.7356 18.6284 21.9757 18.1341 21.9983 17.567C22.0208 16.9999 21.8206 16.488 21.4193 16.0868ZM20.5689 18.1347L17.3662 20.8655C14.6623 20.7917 10.6444 18.4615 7.04783 14.8649C3.4473 11.2644 1.20195 7.37065 1.13423 4.63402L3.86533 1.43094C4.02758 1.24061 4.228 1.14326 4.47803 1.1333C4.72777 1.12424 4.93546 1.20451 5.11234 1.38148L7.93509 4.20424C8.25863 4.52779 8.26486 5.06035 7.94896 5.39136L6.16179 7.2639C5.99662 7.43695 5.95802 7.69509 6.06533 7.90892C7.46887 10.7057 11.2942 14.5311 14.091 15.9346C14.3047 16.0419 14.5629 16.0033 14.736 15.8381L16.6085 14.0509C16.9396 13.735 17.4721 13.7412 17.7957 14.0648L20.6184 16.8876C20.7954 17.0644 20.8765 17.272 20.8666 17.5219C20.8567 17.772 20.7593 17.9724 20.5689 18.1347Z" fill="white"/>
</svg>
