<svg width="170" height="60" viewBox="0 0 170 60" fill="none" xmlns="http://www.w3.org/2000/svg">
<path d="M73.3787 27.0516C74.1524 27.0516 74.7671 27.1204 75.2227 27.2579C75.687 27.3869 76.0223 27.619 76.2286 27.9543C76.4349 28.2896 76.5381 28.7624 76.5381 29.3728C76.5381 30.009 76.4134 30.4947 76.1641 30.83C75.9234 31.1567 75.5236 31.3458 74.9648 31.3974V31.4748C75.6526 31.535 76.134 31.7671 76.4091 32.1712C76.6843 32.5666 76.8218 33.1211 76.8218 33.8347C76.8218 34.4451 76.7143 34.9179 76.4994 35.2532C76.2931 35.5885 75.9664 35.8249 75.5193 35.9625C75.0809 36.0914 74.5049 36.1559 73.7913 36.1559C73.2153 36.1559 72.7124 36.1516 72.2825 36.143C71.8613 36.143 71.4701 36.1344 71.109 36.1172C70.7479 36.1 70.3783 36.0785 70 36.0528L70.1934 34.6858C70.3998 34.6944 70.7952 34.703 71.3798 34.7116C71.973 34.7202 72.6608 34.7245 73.4431 34.7245C73.8042 34.7245 74.0879 34.6901 74.2943 34.6213C74.5006 34.5526 74.6424 34.4279 74.7198 34.2474C74.8058 34.0582 74.8488 33.7917 74.8488 33.4478C74.8488 33.0782 74.8058 32.7987 74.7198 32.6096C74.6338 32.4119 74.4834 32.2743 74.2685 32.197C74.0621 32.1196 73.7741 32.0766 73.4045 32.068H70.1805V30.8171H73.3787C73.6968 30.8085 73.9461 30.7741 74.1266 30.714C74.3157 30.6538 74.449 30.5377 74.5264 30.3658C74.6038 30.1938 74.6424 29.9531 74.6424 29.6436C74.6424 29.3255 74.5995 29.0848 74.5135 28.9215C74.4361 28.7495 74.2986 28.6335 74.1008 28.5733C73.9031 28.5131 73.628 28.483 73.2755 28.483C72.7941 28.483 72.3685 28.483 71.9988 28.483C71.6292 28.483 71.2982 28.4873 71.0059 28.4959C70.7136 28.4959 70.4428 28.5045 70.1934 28.5217L70 27.1547C70.3439 27.1204 70.6749 27.0989 70.993 27.0903C71.3197 27.0731 71.6721 27.0645 72.0504 27.0645C72.4287 27.0559 72.8714 27.0516 73.3787 27.0516ZM71.9343 27.1547V36.0528H70V27.1547H71.9343Z" fill="currentColor"/>
<path d="M85.1473 27.1547C84.9581 27.7479 84.7905 28.2681 84.6443 28.7151C84.4982 29.1536 84.3563 29.5318 84.2188 29.8499C84.0812 30.168 83.9265 30.4345 83.7545 30.6495C83.5912 30.8558 83.3935 31.0191 83.1613 31.1395C82.9292 31.2513 82.6412 31.3286 82.2973 31.3716V31.449C82.6584 31.492 82.9593 31.5737 83.2 31.694C83.4493 31.8058 83.6643 31.9734 83.8448 32.197C84.0339 32.4119 84.2016 32.6956 84.3477 33.0481C84.5025 33.3919 84.6615 33.8132 84.8249 34.3118C84.9882 34.8019 85.1774 35.3822 85.3923 36.0528H83.329C83.0883 35.2876 82.8862 34.6514 82.7229 34.1442C82.5595 33.637 82.3962 33.2372 82.2328 32.9449C82.0695 32.644 81.8761 32.4291 81.6525 32.3001C81.429 32.1712 81.141 32.1067 80.7885 32.1067L80.7756 30.7397C81.1109 30.7397 81.3903 30.671 81.6139 30.5334C81.8374 30.3873 82.0308 30.1723 82.1942 29.8886C82.3575 29.5963 82.508 29.2267 82.6455 28.7796C82.7917 28.324 82.955 27.7823 83.1355 27.1547H85.1473ZM80.2469 27.1547V29.6694C80.2469 29.9617 80.2254 30.254 80.1824 30.5463C80.1394 30.8386 80.0707 31.118 79.9761 31.3845C80.0449 31.651 80.1051 31.9261 80.1566 32.2098C80.2168 32.485 80.2469 32.7429 80.2469 32.9836V36.0528H78.2868V27.1547H80.2469ZM81.343 30.7397V32.1067H79.744V30.7397H81.343Z" fill="currentColor"/>
<path d="M93.2409 27.1547L91.0744 33.7444C90.9197 34.2259 90.7477 34.6428 90.5586 34.9953C90.3781 35.3478 90.1502 35.6272 89.8751 35.8335C89.6086 36.0313 89.2647 36.1516 88.8435 36.1946C88.6458 36.2118 88.4093 36.2118 88.1342 36.1946C87.8677 36.1774 87.6012 36.1516 87.3347 36.1172C87.0768 36.0828 86.8533 36.0485 86.6641 36.0141L86.8833 34.6342C87.2702 34.6514 87.584 34.6643 87.8247 34.6729C88.074 34.6729 88.2761 34.6471 88.4308 34.5955C88.5856 34.544 88.7102 34.458 88.8048 34.3376C88.908 34.2173 89.0025 34.0453 89.0885 33.8218L89.3722 32.8675L89.6688 32.1583L91.2163 27.1547H93.2409ZM87.7345 27.1547L89.1272 31.8875C89.1616 31.9992 89.2475 32.0551 89.3851 32.0551H89.9267L90.4039 33.5252H88.6758C88.3492 33.5252 88.0998 33.4435 87.9279 33.2802C87.756 33.1168 87.627 32.8933 87.541 32.6096L85.7098 27.1547H87.7345Z" fill="currentColor"/>
<path d="M97.6096 27.0258C98.4349 27.0258 99.084 27.1118 99.5569 27.2837C100.03 27.4556 100.365 27.7522 100.563 28.1735C100.769 28.5948 100.872 29.1837 100.872 29.9402C100.872 30.6968 100.773 31.2857 100.576 31.7069C100.386 32.1282 100.073 32.4248 99.6342 32.5967C99.1958 32.7601 98.6026 32.8417 97.8546 32.8417C97.4592 32.8417 97.0723 32.8245 96.694 32.7902C96.3157 32.7558 95.9633 32.7128 95.6366 32.6612C95.3099 32.6096 95.0305 32.558 94.7984 32.5064C94.5662 32.4463 94.4072 32.3904 94.3212 32.3388L94.3599 31.3587C94.8671 31.3587 95.3916 31.3587 95.9332 31.3587C96.4834 31.3587 97.025 31.3587 97.558 31.3587C97.9019 31.3501 98.1684 31.3072 98.3576 31.2298C98.5553 31.1524 98.6928 31.0106 98.7702 30.8042C98.8562 30.5979 98.8992 30.3099 98.8992 29.9402C98.8992 29.5619 98.8562 29.2696 98.7702 29.0633C98.6928 28.857 98.5553 28.7151 98.3576 28.6377C98.1684 28.5518 97.9019 28.5088 97.558 28.5088C96.7671 28.5088 96.0879 28.5131 95.5205 28.5217C94.9531 28.5303 94.5705 28.5475 94.3728 28.5733L94.1794 27.1547C94.5404 27.1118 94.88 27.0817 95.1981 27.0645C95.5162 27.0473 95.8601 27.0387 96.2298 27.0387C96.608 27.0301 97.068 27.0258 97.6096 27.0258ZM96.1524 27.1547V36.0528H94.1794V27.1547H96.1524Z" fill="currentColor"/>
<path d="M105.632 27C106.053 27 106.41 27.0129 106.703 27.0387C107.003 27.0559 107.279 27.086 107.528 27.129C107.777 27.1719 108.035 27.2321 108.302 27.3095L108.147 28.7538C107.863 28.7366 107.601 28.7237 107.36 28.7151C107.128 28.7065 106.875 28.7022 106.599 28.7022C106.333 28.6936 106.011 28.6893 105.632 28.6893C105.194 28.6893 104.85 28.7753 104.601 28.9472C104.36 29.1192 104.188 29.4201 104.085 29.8499C103.982 30.2712 103.93 30.8558 103.93 31.6038C103.93 32.3517 103.982 32.9406 104.085 33.3705C104.188 33.7917 104.36 34.0883 104.601 34.2603C104.85 34.4322 105.194 34.5182 105.632 34.5182C106.225 34.5182 106.724 34.5096 107.128 34.4924C107.532 34.4752 107.932 34.4451 108.327 34.4021L108.495 35.8464C108.082 35.9754 107.661 36.0657 107.231 36.1172C106.801 36.1774 106.268 36.2075 105.632 36.2075C104.712 36.2075 103.973 36.0614 103.414 35.769C102.864 35.4682 102.464 34.9824 102.215 34.3118C101.974 33.6413 101.854 32.7386 101.854 31.6038C101.854 30.4689 101.974 29.5662 102.215 28.8957C102.464 28.2251 102.864 27.7436 103.414 27.4513C103.973 27.1504 104.712 27 105.632 27Z" fill="currentColor"/>
<path d="M111.576 27.1161C112.049 27.1161 112.53 27.1204 113.02 27.129C113.51 27.129 113.992 27.1376 114.464 27.1547C114.946 27.1719 115.393 27.202 115.805 27.245L115.715 28.6764H112.298C112.083 28.6764 111.92 28.7323 111.808 28.8441C111.705 28.9558 111.653 29.1192 111.653 29.3341V33.8734C111.653 34.0883 111.705 34.2517 111.808 34.3634C111.92 34.4752 112.083 34.5311 112.298 34.5311H115.715L115.805 35.9625C115.393 35.9969 114.946 36.027 114.464 36.0528C113.992 36.0699 113.51 36.0785 113.02 36.0785C112.53 36.0871 112.049 36.0914 111.576 36.0914C111.008 36.0914 110.548 35.9281 110.196 35.6014C109.852 35.2661 109.68 34.832 109.68 34.2989V28.9086C109.68 28.3669 109.852 27.9328 110.196 27.6061C110.548 27.2794 111.008 27.1161 111.576 27.1161ZM109.899 30.7268H115.225V32.1196H109.899V30.7268Z" fill="currentColor"/>
<path d="M120.875 32.1583V33.3705H117.032V32.1583H120.875Z" fill="currentColor"/>
<path d="M131.657 27.1547C132.121 27.1547 132.362 27.3955 132.379 27.8769L132.714 36.0528H130.896L130.6 28.6764H130.367L128.936 34.2216C128.859 34.6342 128.601 34.8406 128.162 34.8406H126.924C126.486 34.8406 126.219 34.6342 126.125 34.2216L124.693 28.6764H124.474L124.203 36.0528H122.372L122.707 27.8769C122.725 27.3955 122.97 27.1547 123.442 27.1547H125.287C125.708 27.1547 125.966 27.3654 126.06 27.7866L127.208 32.2614C127.26 32.4678 127.303 32.6784 127.337 32.8933C127.371 33.0996 127.41 33.3103 127.453 33.5252H127.621C127.664 33.3103 127.702 33.0996 127.737 32.8933C127.78 32.6784 127.823 32.4635 127.866 32.2485L129 27.7866C129.086 27.3654 129.344 27.1547 129.774 27.1547H131.657Z" fill="currentColor"/>
<path d="M136.208 27.1161C136.681 27.1161 137.163 27.1204 137.653 27.129C138.143 27.129 138.624 27.1376 139.097 27.1547C139.579 27.1719 140.026 27.202 140.438 27.245L140.348 28.6764H136.931C136.716 28.6764 136.552 28.7323 136.441 28.8441C136.337 28.9558 136.286 29.1192 136.286 29.3341V33.8734C136.286 34.0883 136.337 34.2517 136.441 34.3634C136.552 34.4752 136.716 34.5311 136.931 34.5311H140.348L140.438 35.9625C140.026 35.9969 139.579 36.027 139.097 36.0528C138.624 36.0699 138.143 36.0785 137.653 36.0785C137.163 36.0871 136.681 36.0914 136.208 36.0914C135.641 36.0914 135.181 35.9281 134.829 35.6014C134.485 35.2661 134.313 34.832 134.313 34.2989V28.9086C134.313 28.3669 134.485 27.9328 134.829 27.6061C135.181 27.2794 135.641 27.1161 136.208 27.1161ZM134.532 30.7268H139.858V32.1196H134.532V30.7268Z" fill="currentColor"/>
<path d="M149.015 27.1547V36.0528H147.042V28.5346H145.869C145.619 28.5346 145.434 28.5948 145.314 28.7151C145.194 28.8355 145.125 29.0289 145.108 29.2954C145.056 29.9402 144.996 30.5248 144.927 31.0492C144.858 31.5737 144.772 32.0594 144.669 32.5064C144.575 32.9449 144.454 33.3619 144.308 33.7573C144.171 34.1442 144.003 34.5268 143.805 34.905C143.608 35.2747 143.375 35.6573 143.109 36.0528H141.445C141.858 35.3048 142.185 34.544 142.425 33.7702C142.666 32.9879 142.851 32.197 142.98 31.3974C143.109 30.5893 143.204 29.7812 143.264 28.973C143.307 28.4314 143.504 27.993 143.857 27.6577C144.218 27.3224 144.691 27.1547 145.275 27.1547H149.015ZM142.722 35.9625L142.567 38H141.149V35.9625H142.722ZM150.176 34.6729V36.0528H141.149V34.6729H150.176ZM150.176 35.9625V38H148.77L148.615 35.9625H150.176Z" fill="currentColor"/>
<path d="M158.729 27.1547V36.0528H156.846V30.7655C156.846 30.5678 156.855 30.3701 156.872 30.1723C156.889 29.966 156.915 29.764 156.95 29.5662H156.872C156.803 29.7726 156.726 29.9746 156.64 30.1723C156.554 30.3615 156.464 30.5506 156.369 30.7397L153.313 36.0528H151.392V27.1547H153.274V32.3388C153.274 32.5365 153.261 32.7429 153.236 32.9578C153.218 33.1641 153.197 33.3748 153.171 33.5897H153.236C153.313 33.3834 153.395 33.1813 153.481 32.9836C153.575 32.7859 153.674 32.5967 153.777 32.4162L156.808 27.1547H158.729Z" fill="currentColor"/>
<path d="M164.802 27.1547C164.965 27.1547 165.107 27.202 165.227 27.2966C165.356 27.3912 165.442 27.5158 165.485 27.6706L168.064 36.0528H166.053L164.234 29.5147C164.2 29.3685 164.165 29.2224 164.131 29.0762C164.097 28.9215 164.067 28.7753 164.041 28.6377H163.693C163.667 28.7753 163.637 28.9215 163.602 29.0762C163.577 29.2224 163.542 29.3685 163.499 29.5147L161.681 36.0528H159.656L162.248 27.6706C162.291 27.5158 162.373 27.3912 162.493 27.2966C162.622 27.202 162.768 27.1547 162.932 27.1547H164.802ZM166.169 32.2227V33.7057H161.552V32.2227H166.169Z" fill="currentColor"/>
<path d="M26.9 21.2062C27.2 21.8182 27 22.5632 26.425 22.9091C25.85 23.2284 25.125 23.0155 24.825 22.4035C24.5 21.7916 24.725 21.02 25.3 20.7007C25.85 20.3548 26.575 20.5942 26.9 21.2062C26.875 21.2062 26.875 21.2062 26.9 21.2062ZM21.075 30.9978C20.75 31.184 20.625 31.6364 20.8 32.0089C20.975 32.3548 21.4 32.4878 21.725 32.3015C21.725 32.3015 21.725 32.3015 21.75 32.3015C22.075 32.1153 22.225 31.6896 22.05 31.3171V31.2905C21.825 30.9446 21.4 30.8115 21.075 30.9978ZM20.95 27.9911C20.55 28.2306 20.425 28.7361 20.625 29.1619C20.85 29.5876 21.325 29.7472 21.725 29.5078C22.125 29.2683 22.275 28.7627 22.05 28.337C21.85 27.9113 21.35 27.7517 20.95 27.9911ZM21.7 25.0909C21.25 25.357 21.075 25.9423 21.325 26.4213C21.575 26.9002 22.125 27.0865 22.575 26.8204C23.025 26.5543 23.2 25.969 22.95 25.49C22.7 25.0111 22.125 24.8248 21.7 25.0909ZM23.175 22.5898C22.675 22.8559 22.5 23.5477 22.75 24.0798C22.75 24.0798 22.75 24.0798 22.75 24.1064C23.025 24.6386 23.65 24.8514 24.15 24.5588C24.65 24.2661 24.85 23.6009 24.575 23.0687C24.325 22.51 23.7 22.2971 23.175 22.5898C23.2 22.5898 23.2 22.5898 23.175 22.5898ZM22.05 33.8714C21.775 34.031 21.675 34.4035 21.825 34.6962C21.975 34.9889 22.325 35.0953 22.6 34.9357C22.875 34.776 22.975 34.4035 22.825 34.0843C22.675 33.8182 22.325 33.7117 22.05 33.8714ZM35.425 23.6009C35.6 23.9468 36.025 24.0798 36.375 23.8936C36.7 23.7073 36.825 23.255 36.65 22.8825C36.475 22.5366 36.05 22.4035 35.725 22.5898C35.375 22.7761 35.25 23.2284 35.425 23.6009ZM33.075 22.0044C33.275 22.4302 33.775 22.5632 34.175 22.3503C34.575 22.1109 34.725 21.6053 34.5 21.1796C34.3 20.7539 33.8 20.5942 33.4 20.8337C33.025 21.0466 32.875 21.5787 33.075 22.0044ZM30.35 21.2328C30.575 21.7118 31.15 21.8714 31.575 21.6319C32.025 21.3659 32.2 20.7805 31.95 20.3015C31.7 19.8226 31.15 19.6364 30.725 19.9024C30.275 20.1419 30.125 20.7539 30.35 21.2328ZM27.525 21.3392C27.8 21.8714 28.425 22.0843 28.925 21.7916C29.425 21.4989 29.625 20.8337 29.35 20.2749C29.075 19.7428 28.425 19.5565 27.925 19.8758C27.45 20.1951 27.275 20.8337 27.525 21.3392ZM37.2 25.8625C37.35 26.1552 37.7 26.2616 37.975 26.102C38.25 25.9423 38.35 25.5965 38.225 25.2772C38.075 24.9845 37.725 24.8514 37.45 25.0111C37.15 25.1707 37.025 25.5698 37.2 25.8625ZM35.2 37.5698C34.9 36.9579 34.2 36.7184 33.625 37.0377C33.625 37.0377 33.625 37.0377 33.6 37.0377C33.025 37.357 32.825 38.102 33.125 38.714C33.125 38.714 33.125 38.714 33.125 38.7406C33.425 39.3525 34.15 39.5654 34.725 39.2461C35.3 38.9268 35.5 38.1818 35.2 37.5698ZM24.575 36.3725C24.4 36.0266 23.975 35.8936 23.65 36.0798C23.325 36.2661 23.2 36.7184 23.375 37.0643C23.55 37.4102 23.95 37.5432 24.3 37.357C24.3 37.357 24.3 37.357 24.325 37.357C24.625 37.1707 24.75 36.7184 24.575 36.3725ZM26.925 37.9423C26.7 37.5166 26.225 37.3836 25.825 37.5964C25.425 37.8093 25.275 38.3149 25.5 38.7406C25.5 38.7406 25.5 38.7406 25.5 38.7672C25.7 39.1929 26.2 39.3525 26.6 39.1131C27 38.9002 27.15 38.3681 26.925 37.9423ZM29.65 38.7406C29.425 38.2616 28.85 38.102 28.4 38.3415C27.95 38.6075 27.8 39.1929 28.025 39.6718C28.275 40.1508 28.825 40.337 29.275 40.0709C29.725 39.8049 29.9 39.2195 29.65 38.7406ZM32.5 38.6075C32.225 38.0754 31.6 37.8625 31.1 38.1552C30.6 38.4479 30.425 39.1131 30.7 39.6452C30.95 40.1774 31.575 40.3902 32.075 40.0976C32.075 40.0976 32.1 40.0976 32.1 40.0709C32.575 39.8315 32.75 39.1397 32.5 38.6075ZM38.925 28.9756C39.275 28.7627 39.4 28.3104 39.225 27.9645C39.05 27.6186 38.625 27.4856 38.3 27.6718C37.975 27.8581 37.825 28.3104 38 28.6563C38 28.6563 38 28.6563 38 28.6829C38.175 29.0022 38.6 29.1353 38.925 28.9756ZM39.05 31.9823C39.45 31.7428 39.575 31.2372 39.375 30.8115C39.175 30.3858 38.675 30.2262 38.3 30.4656C37.9 30.7051 37.75 31.2106 37.975 31.6364C38.175 32.0355 38.675 32.1951 39.05 31.9823ZM38.325 34.8825C38.775 34.6164 38.95 34.031 38.7 33.5521C38.45 33.0732 37.9 32.8869 37.45 33.153C37 33.4191 36.825 34.0044 37.075 34.4834C37.325 34.9357 37.875 35.122 38.325 34.8825ZM36.825 37.357C37.325 37.0909 37.525 36.3991 37.25 35.867C36.975 35.3348 36.35 35.1219 35.85 35.4146C35.35 35.7073 35.15 36.3725 35.425 36.9047C35.7 37.4634 36.3 37.6497 36.825 37.357C36.825 37.3836 36.825 37.3836 36.825 37.357ZM34.825 18.1996C34.6 19.051 33.75 19.5299 32.95 19.2905C32.15 19.051 31.7 18.1463 31.925 17.2949C31.925 17.2949 31.925 17.2949 31.925 17.2683C32.175 16.4168 33 15.9379 33.8 16.1774C34.625 16.4701 35.075 17.3481 34.825 18.1996ZM20.325 22.0044C19.925 21.898 19.5 22.1375 19.375 22.5632C19.275 22.9889 19.525 23.4146 19.925 23.5211C20.3 23.6275 20.7 23.388 20.825 22.9889C20.95 22.5898 20.7 22.1375 20.325 22.0044ZM22.95 18.9446C22.45 18.7849 21.95 19.0776 21.8 19.6098C21.65 20.1153 21.925 20.6741 22.425 20.8337C22.925 20.9933 23.425 20.6741 23.575 20.1685C23.7 19.6364 23.425 19.1042 22.95 18.9446ZM26.3 16.7627C25.675 16.5765 25.025 16.949 24.85 17.6142C24.675 18.2794 25.025 18.9712 25.65 19.1574C26.275 19.3437 26.925 18.9712 27.1 18.3326C27.275 17.6674 26.925 16.9756 26.3 16.7627ZM30.025 15.8847C29.325 15.6718 28.6 16.071 28.375 16.816C28.175 17.561 28.575 18.3326 29.25 18.5455C29.95 18.7583 30.675 18.3326 30.875 17.5876C31.125 16.8958 30.75 16.0976 30.025 15.8847C30.05 15.8847 30.05 15.8847 30.025 15.8847ZM18.65 25.8093C18.35 25.7295 18.05 25.8891 17.975 26.2084C17.875 26.5277 18.05 26.847 18.35 26.9534C18.65 27.0333 18.95 26.8736 19.05 26.5543C19.125 26.235 18.95 25.9157 18.65 25.8093ZM41.275 29.4013C41.15 29.827 41.375 30.2528 41.775 30.3858C42.175 30.5188 42.575 30.2794 42.7 29.8537C42.825 29.4279 42.6 29.0022 42.2 28.8692C41.8 28.7361 41.4 28.9756 41.275 29.4013ZM40.4 25.4102C40.25 25.9423 40.525 26.4745 41.025 26.6341C41.525 26.7938 42.025 26.5011 42.175 25.969C42.325 25.4368 42.05 24.9047 41.55 24.745C41.075 24.612 40.55 24.9047 40.4 25.4102ZM38.375 21.8448C38.2 22.51 38.55 23.2018 39.175 23.388C39.8 23.5743 40.45 23.2018 40.625 22.5366C40.8 21.8714 40.45 21.1796 39.85 20.9933C39.2 20.8071 38.55 21.1796 38.375 21.8448ZM35.5 19.051C35.3 19.796 35.7 20.5676 36.4 20.7805C37.1 20.9933 37.825 20.5676 38.025 19.8226C38.225 19.0776 37.825 18.306 37.15 18.0931C36.45 17.8803 35.725 18.306 35.5 19.051ZM40.975 33.4191C40.9 33.7384 41.05 34.0576 41.35 34.1641C41.65 34.2705 41.95 34.0843 42.05 33.765C42.15 33.4457 41.975 33.1264 41.675 33.02C41.375 32.9135 41.05 33.0998 40.975 33.4191ZM28.075 42.6785C28.325 41.8271 27.85 40.9224 27.05 40.6829C26.25 40.4435 25.4 40.9224 25.175 41.7738C24.925 42.6253 25.4 43.5299 26.2 43.7694C27 44.0355 27.85 43.5299 28.075 42.6785ZM18.725 30.5721C18.85 30.1463 18.625 29.7206 18.225 29.5876C17.825 29.4545 17.425 29.7206 17.3 30.1197C17.175 30.5455 17.4 30.9712 17.8 31.1042C18.2 31.2373 18.6 30.9978 18.725 30.5721ZM19.6 34.5366C19.75 34.031 19.475 33.4723 18.975 33.3392C18.5 33.1796 17.975 33.4723 17.825 33.9778V34.0044C17.675 34.5366 17.975 35.0687 18.45 35.2284C18.95 35.3614 19.45 35.0687 19.6 34.5366ZM21.625 38.1286C21.8 37.4634 21.45 36.7716 20.825 36.5588C20.2 36.3725 19.55 36.745 19.375 37.4102C19.2 38.0754 19.55 38.7672 20.15 38.9534C20.8 39.1663 21.45 38.7938 21.625 38.1286ZM24.5 40.9224C24.7 40.1774 24.3 39.4058 23.6 39.1663C22.9 38.9534 22.175 39.3792 21.975 40.0976C21.975 40.0976 21.975 40.0976 21.975 40.1242C21.775 40.8692 22.175 41.6408 22.875 41.8537C23.55 42.0931 24.3 41.6674 24.5 40.9224ZM39.7 37.969C40.1 38.102 40.525 37.8625 40.625 37.4368C40.75 37.0111 40.525 36.5854 40.125 36.4523C39.725 36.3193 39.325 36.5854 39.2 36.9845C39.075 37.3836 39.3 37.8359 39.7 37.969ZM37.075 41.0288C37.55 41.1885 38.075 40.8958 38.225 40.3636C38.375 39.8581 38.1 39.2993 37.625 39.1397C37.125 38.98 36.625 39.2727 36.475 39.8049C36.3 40.337 36.575 40.8692 37.075 41.0288ZM33.7 43.2106C34.325 43.3969 34.975 43.0244 35.15 42.3592C35.325 41.694 34.975 41.0022 34.35 40.816C33.725 40.6297 33.075 41.0022 32.9 41.6674C32.725 42.306 33.075 42.9978 33.7 43.2106ZM29.975 44.0887C30.675 44.3015 31.4 43.9024 31.6 43.1574C31.6 43.1574 31.6 43.1574 31.6 43.1308C31.8 42.3858 31.4 41.6142 30.7 41.3747C30 41.1619 29.275 41.5876 29.05 42.3326C28.875 43.1042 29.275 43.8758 29.975 44.0887ZM42.375 19.0244C41.625 19.8492 40.4 19.9024 39.625 19.1042C38.85 18.3326 38.8 17.0288 39.55 16.1774C40.275 15.3525 41.5 15.2993 42.3 16.071C43.075 16.8692 43.125 18.1996 42.375 19.0244ZM22.975 14.3149C22.6 13.9423 22 13.9423 21.625 14.3681C21.25 14.7672 21.275 15.4058 21.65 15.8049C22.025 16.1774 22.65 16.1774 23 15.7517C23.375 15.3525 23.375 14.714 22.975 14.3149ZM27.85 12.3459C27.375 11.867 26.625 11.8936 26.175 12.3991C25.725 12.9047 25.75 13.7029 26.225 14.1818C26.7 14.6608 27.45 14.6341 27.9 14.1286C28.35 13.6231 28.325 12.8248 27.85 12.3459ZM33.05 11.9468C32.45 11.3348 31.5 11.3614 30.925 12C30.375 12.6652 30.425 13.6763 31.05 14.2616C31.65 14.8204 32.55 14.7938 33.125 14.2084C33.7 13.5698 33.65 12.5588 33.05 11.9468ZM38 13.3038C37.325 12.612 36.25 12.6386 35.6 13.3836C34.95 14.102 35 15.2461 35.675 15.9379C36.35 16.6297 37.425 16.5765 38.075 15.8581C38.7 15.1131 38.675 13.969 38 13.3038ZM18.85 17.7738C18.55 17.4812 18.1 17.5078 17.85 17.8004C17.575 18.0931 17.6 18.5721 17.875 18.8647C18.15 19.1574 18.6 19.1308 18.875 18.8381C19.15 18.5455 19.15 18.0665 18.85 17.7738ZM43.75 36.5588C43.375 36.9579 43.4 37.6231 43.8 37.9956C44.2 38.3681 44.8 38.3415 45.15 37.9157C45.5 37.5166 45.475 36.878 45.1 36.5055C44.725 36.133 44.125 36.133 43.75 36.5588ZM45 31.2905C44.55 31.796 44.575 32.5942 45.05 33.0732C45.525 33.5521 46.275 33.5255 46.725 33.02C47.175 32.5144 47.15 31.7162 46.675 31.2372C46.175 30.7583 45.45 30.7849 45 31.2905ZM44.6 25.7295C44.025 26.3681 44.05 27.3792 44.65 27.9911C45.25 28.6031 46.2 28.5765 46.775 27.9379C47.325 27.2727 47.275 26.2616 46.675 25.6763C46.1 25.0643 45.175 25.1175 44.6 25.7295ZM42.8 20.5676C42.15 21.286 42.2 22.4302 42.875 23.122C43.55 23.8137 44.625 23.7605 45.275 23.0421C45.925 22.3237 45.875 21.1796 45.2 20.4878C44.5 19.8226 43.425 19.8492 42.8 20.5676ZM41.125 41.1353C40.85 41.4545 40.875 41.9335 41.15 42.1996C41.425 42.4922 41.875 42.4656 42.15 42.1729C42.425 41.8803 42.4 41.4013 42.125 41.1086C42.125 41.1086 42.125 41.1086 42.1 41.082C41.85 40.816 41.4 40.816 41.125 41.1353ZM20.45 43.796C21.175 42.9446 21.125 41.6408 20.35 40.8692C19.575 40.0976 18.35 40.1508 17.625 40.949C16.9 41.8004 16.975 43.1042 17.775 43.8758C18.55 44.5942 19.725 44.5676 20.45 43.796ZM16.25 23.4146C16.625 23.0155 16.6 22.3503 16.2 21.9778C15.825 21.5787 15.225 21.6053 14.85 22.0044C14.475 22.4302 14.5 23.0687 14.9 23.4678C15.275 23.8404 15.875 23.8137 16.25 23.4146ZM15.025 28.6829C15.475 28.1774 15.45 27.3792 14.975 26.9002C14.475 26.4479 13.75 26.4745 13.3 27.0066C12.875 27.5122 12.9 28.2572 13.35 28.7361C13.825 29.2151 14.575 29.1885 15.025 28.6829ZM15.4 34.2439C15.975 33.6053 15.95 32.5942 15.325 31.9823C14.725 31.3703 13.775 31.3969 13.2 32.0621C12.625 32.7007 12.65 33.7117 13.275 34.3237C13.875 34.9091 14.825 34.8825 15.4 34.2439ZM17.225 39.4058C17.875 38.6874 17.825 37.5432 17.15 36.8514C16.475 36.1596 15.4 36.2129 14.775 36.9313C14.125 37.6497 14.15 38.7938 14.825 39.4856C15.5 40.1508 16.575 40.1242 17.225 39.4058ZM37.025 45.6585C37.4 46.0576 38.025 46.031 38.375 45.6053C38.725 45.2062 38.725 44.5676 38.325 44.1685C37.95 43.7694 37.35 43.796 36.975 44.1951C36.625 44.6208 36.65 45.2594 37.025 45.6585ZM32.175 47.6275C32.65 48.1064 33.4 48.0798 33.85 47.5743C34.3 47.0687 34.275 46.2705 33.8 45.7916C33.325 45.3126 32.575 45.3392 32.125 45.8448C31.675 46.3503 31.7 47.1486 32.175 47.6275ZM26.95 48.0266C27.55 48.6386 28.5 48.612 29.075 47.9734C29.65 47.3348 29.625 46.3237 29.025 45.7117C28.425 45.0998 27.475 45.1264 26.9 45.765C26.3 46.4035 26.35 47.4146 26.95 48.0266ZM22.025 46.6696C22.7 47.3614 23.775 47.3082 24.4 46.5898C25.05 45.8714 25 44.7273 24.325 44.0355C23.65 43.3437 22.575 43.3969 21.925 44.1153C21.3 44.8603 21.35 46.0044 22.025 46.6696ZM50.275 23.4146C49.075 23.9734 47.7 23.3614 47.175 22.1109C46.675 20.8337 47.225 19.3437 48.4 18.8115C49.6 18.2794 50.975 18.918 51.475 20.1951C51.95 21.4191 51.425 22.8559 50.275 23.4146ZM33.725 7.45011C33.575 6.7051 32.9 6.22616 32.2 6.3592C31.5 6.49224 31.05 7.23725 31.175 7.98226C31.35 8.72727 32.05 9.1796 32.75 9.01995C33.4 8.86031 33.825 8.16851 33.725 7.45011ZM39.3 8.72727C39.075 7.82262 38.225 7.29047 37.4 7.50333C36.55 7.71619 36.05 8.64745 36.25 9.5255C36.475 10.4302 37.325 10.9623 38.175 10.7228C39.025 10.5366 39.525 9.63193 39.3 8.72727ZM44.45 11.388C44.125 10.2971 43.025 9.68514 42 10.0044C40.975 10.3503 40.375 11.5211 40.7 12.612C41.05 13.7029 42.175 14.2882 43.2 13.9157C44.2 13.5698 44.75 12.4523 44.45 11.388ZM48.575 15.2727C48.15 14.0754 46.925 13.4634 45.8 13.9157C44.675 14.3415 44.1 15.6718 44.525 16.8692C44.95 18.0665 46.175 18.6785 47.3 18.2262C48.4 17.8004 48.975 16.4701 48.575 15.2727ZM22.525 8.99335C22.325 8.4878 21.75 8.24834 21.275 8.4612C20.8 8.70066 20.575 9.28603 20.8 9.79157C21 10.2971 21.575 10.5366 22.05 10.3237C22.525 10.1109 22.75 9.49889 22.525 8.99335ZM46.15 42.2528C45.575 42.7051 45.45 43.5831 45.875 44.1951C46.3 44.7805 47.075 44.9401 47.65 44.5144C48.225 44.0621 48.375 43.2106 47.95 42.5987C47.55 41.9601 46.725 41.8004 46.15 42.2528ZM48.725 36.8514C47.975 37.3304 47.75 38.3681 48.2 39.1663C48.65 39.9645 49.625 40.204 50.375 39.7251C50.4 39.7251 50.4 39.6984 50.425 39.6984C51.15 39.1929 51.35 38.1552 50.875 37.3836C50.4 36.612 49.45 36.3725 48.725 36.8514ZM49.95 30.7583C49 31.3171 48.675 32.5942 49.2 33.6053C49.725 34.6164 50.925 34.9623 51.875 34.4035C52.825 33.8448 53.15 32.5676 52.625 31.5565C52.1 30.5721 50.9 30.1996 49.95 30.7583ZM49.875 24.6652C48.8 25.2239 48.375 26.6075 48.9 27.7517C49.425 28.8958 50.725 29.3481 51.8 28.7894C52.875 28.2306 53.3 26.847 52.775 25.7029C52.25 24.5854 50.95 24.1064 49.875 24.6652ZM37.975 49.6497C37.5 49.8625 37.275 50.4745 37.475 50.98C37.675 51.4856 38.25 51.7251 38.725 51.5122C39.2 51.2993 39.425 50.6874 39.225 50.1818C39 49.6763 38.45 49.4368 37.975 49.6497ZM11.6 41.1619C12.8 40.6031 13.35 39.1397 12.825 37.8625C12.3 36.5854 10.925 36 9.725 36.5588C8.525 37.0909 7.975 38.5809 8.5 39.8581C9 41.1353 10.4 41.7206 11.6 41.1619ZM13.85 17.7206C14.45 17.2949 14.575 16.4169 14.15 15.8049C13.75 15.1663 12.95 15.0333 12.35 15.459C11.775 15.9113 11.625 16.7627 12.025 17.3747C12.45 18.0133 13.275 18.1729 13.85 17.7206ZM11.275 23.122C12 22.6164 12.225 21.5787 11.75 20.8071C11.3 20.0355 10.325 19.796 9.575 20.2749C8.825 20.7539 8.625 21.8182 9.1 22.5898C9.55 23.388 10.525 23.6275 11.275 23.122ZM10.05 29.2151C11 28.6829 11.375 27.4058 10.875 26.3947C10.375 25.3836 9.175 24.9845 8.225 25.5166C8.2 25.5432 8.15 25.5432 8.125 25.5698C7.175 26.1286 6.85 27.4058 7.375 28.4169C7.9 29.4013 9.1 29.7738 10.05 29.2151ZM10.125 35.3082C11.2 34.7494 11.625 33.3659 11.1 32.2217C10.575 31.0776 9.275 30.6253 8.2 31.184C8.2 31.184 8.2 31.184 8.175 31.184C7.1 31.7428 6.675 33.1264 7.2 34.2705C7.75 35.388 9.05 35.867 10.125 35.3082ZM26.275 52.5233C26.425 53.2683 27.1 53.7738 27.8 53.6142C28.5 53.4545 28.95 52.7361 28.825 51.9911C28.675 51.2461 28 50.7672 27.3 50.9002C26.6 51.0599 26.15 51.7783 26.275 52.5233ZM20.7 51.2461C20.9 52.1508 21.775 52.6829 22.6 52.4701C23.45 52.2306 23.95 51.3259 23.725 50.4213C23.5 49.5166 22.65 48.9845 21.8 49.2239C21 49.4368 20.475 50.3415 20.7 51.2461ZM15.55 48.5854C15.875 49.6763 16.95 50.2882 18 49.969C18 49.969 18 49.969 18.025 49.969C19.05 49.6231 19.65 48.4523 19.325 47.3614C19 46.2705 17.9 45.6319 16.85 45.9778C15.8 46.3237 15.225 47.4945 15.55 48.5854ZM11.45 44.7007C11.85 45.898 13.1 46.51 14.225 46.0577C14.225 46.0577 14.225 46.0577 14.25 46.0577C15.375 45.6053 15.9 44.2483 15.475 43.0776C15.05 41.9335 13.85 41.3481 12.75 41.7472C11.6 42.1729 11.025 43.5033 11.45 44.7007ZM42.425 46.7228C42 47.0953 41.95 47.7871 42.3 48.2395C42.65 48.6652 43.25 48.745 43.675 48.3991C44.125 48.0532 44.225 47.3614 43.875 46.8825C43.525 46.4035 42.9 46.2971 42.45 46.6696C42.475 46.6962 42.45 46.7228 42.425 46.7228ZM32.9 51.0865C32.35 51.1663 31.95 51.7251 32.05 52.3104C32.125 52.8958 32.65 53.3215 33.2 53.2151C33.75 53.1353 34.15 52.5765 34.05 51.9911C33.975 51.4324 33.475 51.0067 32.9 51.0865ZM27.95 7.63636C27.875 7.051 27.35 6.62528 26.8 6.73171C26.25 6.81153 25.85 7.37029 25.95 7.95565C26.025 8.54102 26.55 8.96674 27.1 8.86031C27.65 8.78049 28.05 8.24834 27.95 7.63636ZM17.725 11.7339C17.375 11.255 16.75 11.1752 16.3 11.5477C15.85 11.9202 15.775 12.612 16.125 13.0643C16.475 13.5432 17.125 13.6231 17.55 13.2506C18 12.878 18.075 12.1863 17.725 11.7339ZM56.975 33.2062C55.3 33.2062 53.95 31.7694 53.95 29.9867C53.95 28.204 55.3 26.7672 56.95 26.7672C56.95 26.7672 56.95 26.7672 56.975 26.7672C58.65 26.7672 60 28.204 60 29.9601C60 31.7694 58.65 33.2062 56.975 33.2062ZM45.125 5.48115C45.325 4.52328 44.75 3.59202 43.85 3.37916C42.95 3.1663 42.075 3.77827 41.875 4.73614C41.675 5.69401 42.25 6.62528 43.15 6.83814C44.05 7.051 44.925 6.43902 45.125 5.48115ZM51.075 10.0044C51.25 8.8337 50.5 7.74279 49.4 7.55654C48.3 7.3969 47.275 8.22173 47.125 9.39246C46.975 10.5366 47.7 11.6009 48.775 11.7871C49.875 12 50.9 11.2018 51.075 10.0044ZM58.85 22.6962C58.925 21.0732 57.75 19.6896 56.225 19.5831C54.7 19.5033 53.4 20.7273 53.3 22.3503C53.2 23.9734 54.375 25.3836 55.9 25.49C57.425 25.5965 58.75 24.3459 58.85 22.7228C58.85 22.7494 58.85 22.7228 58.85 22.6962ZM31.225 1.27716C31.225 0.558758 30.675 0 30 0C29.325 0.0266075 28.8 0.611973 28.825 1.33038C28.85 1.99557 29.35 2.55432 30 2.58093C30.675 2.55432 31.225 1.99557 31.225 1.27716ZM43.15 53.1353C42.25 53.3481 41.675 54.2794 41.875 55.2372C42.075 56.1951 42.95 56.8071 43.85 56.5942C44.75 56.3814 45.325 55.4501 45.125 54.4922C44.925 53.5344 44.05 52.9224 43.15 53.1353ZM48.775 48.1596C47.675 48.3459 46.9 49.4368 47.075 50.6075C47.25 51.7783 48.275 52.6031 49.375 52.4169C49.4 52.4169 49.4 52.4169 49.425 52.4169C50.525 52.2306 51.275 51.1131 51.075 49.9423C50.875 48.7982 49.85 48 48.775 48.1596ZM53.1 41.6674C51.725 41.827 50.725 43.1308 50.85 44.6208C50.975 46.1109 52.225 47.1486 53.625 47.0155C55 46.8559 56 45.5521 55.875 44.0887C55.725 42.5987 54.475 41.5344 53.1 41.6674ZM55.925 34.4568C54.4 34.5366 53.225 35.9468 53.3 37.5698C53.375 39.1929 54.675 40.4435 56.2 40.3636C56.2 40.3636 56.2 40.3636 56.225 40.3636C57.75 40.2838 58.925 38.9002 58.85 37.2772C58.75 35.6275 57.45 34.3769 55.925 34.4568ZM30 57.4191C29.325 57.4457 28.8 58.031 28.825 58.7494C28.85 59.4412 29.35 60 30 60C30.675 60 31.2 59.4146 31.2 58.7228C31.2 58.031 30.675 57.4191 30 57.4191ZM3.025 33.2062C4.7 33.2062 6.05 31.7694 6.05 29.9867C6.05 28.204 4.7 26.7672 3.05 26.7672C1.35 26.7672 0 28.204 0 29.9867C0 31.7694 1.35 33.2062 3.025 33.2062ZM16.85 6.83814C17.75 6.65188 18.325 5.69401 18.15 4.73614C17.95 3.77827 17.075 3.1663 16.175 3.37916C15.25 3.59202 14.675 4.52328 14.875 5.48115C15.075 6.43902 15.95 7.051 16.85 6.83814ZM11.25 11.8137C12.35 11.6275 13.1 10.51 12.925 9.33924C12.75 8.16851 11.7 7.37029 10.6 7.55654C9.5 7.74279 8.75 8.8337 8.925 10.0044C9.1 11.1752 10.15 12 11.25 11.8137ZM6.9 18.2794C8.275 18.0931 9.25 16.7627 9.075 15.2993C8.9 13.8625 7.7 12.8514 6.375 12.9579C5 13.1175 4 14.4213 4.125 15.8847C4.275 17.3747 5.525 18.439 6.9 18.2794ZM54.275 18.2794C55.65 18.0931 56.625 16.7361 56.45 15.2727C56.275 13.8625 55.1 12.8248 53.75 12.9579C52.375 13.1175 51.375 14.4213 51.5 15.8847C51.65 17.3747 52.9 18.439 54.275 18.2794ZM4.075 25.49C5.6 25.4102 6.775 24.0266 6.7 22.3769C6.625 20.7805 5.325 19.5299 3.8 19.6098C3.8 19.6098 3.8 19.6098 3.775 19.6098C2.25 19.6896 1.075 21.0732 1.15 22.6962C1.25 24.3459 2.55 25.5965 4.075 25.49ZM14.875 54.4922C14.675 55.4501 15.25 56.3814 16.15 56.5942C17.05 56.8071 17.925 56.1951 18.125 55.2372C18.325 54.2794 17.75 53.3481 16.85 53.1353C15.95 52.9224 15.075 53.5344 14.875 54.4922ZM8.925 49.9423C8.75 51.1131 9.5 52.204 10.6 52.3902C11.7 52.5765 12.725 51.7783 12.9 50.6075C13.075 49.4368 12.325 48.3459 11.225 48.1596C10.15 47.9734 9.1 48.7716 8.925 49.9423ZM4.125 44.0621C3.975 45.5255 4.975 46.8559 6.35 47.0155C7.725 47.1752 8.975 46.1109 9.125 44.6474C9.275 43.184 8.275 41.8537 6.875 41.694C5.525 41.5344 4.275 42.5987 4.125 44.0621ZM1.15 37.2506C1.075 38.8736 2.25 40.2572 3.775 40.3636C5.3 40.4435 6.6 39.2195 6.7 37.5964C6.7 37.5964 6.7 37.5965 6.7 37.5698C6.775 35.9468 5.6 34.5632 4.075 34.4568C2.55 34.3769 1.25 35.6275 1.15 37.2506ZM36.65 56.3814C35.95 56.5676 35.55 57.3392 35.725 58.0843C35.9 58.8293 36.625 59.255 37.325 59.0687C38.025 58.8825 38.425 58.1109 38.25 57.3659C38.05 56.6208 37.35 56.1951 36.65 56.3814ZM23.35 56.3814C22.65 56.1951 21.95 56.6474 21.775 57.3925C21.6 58.1109 22 58.8559 22.675 59.0421C23.375 59.255 24.1 58.8293 24.3 58.1109C24.5 57.3659 24.1 56.5942 23.425 56.3814C23.4 56.3814 23.375 56.3814 23.35 56.3814ZM38.25 2.60754C38.425 1.86253 38.025 1.11752 37.325 0.904656C36.625 0.745011 35.925 1.19734 35.775 1.96896C35.625 2.66075 36 3.37916 36.65 3.59202C37.35 3.77827 38.05 3.35255 38.25 2.60754ZM24.275 1.88914C24.1 1.14412 23.375 0.718404 22.675 0.904656C21.975 1.11752 21.575 1.86253 21.75 2.60754C21.925 3.35255 22.65 3.77827 23.35 3.59202C24.05 3.37916 24.475 2.63415 24.275 1.88914Z" fill="currentColor"/>
</svg>
