<svg width="32" height="32" viewBox="0 0 32 32" fill="none" xmlns="http://www.w3.org/2000/svg">
<path fill-rule="evenodd" clip-rule="evenodd" d="M4.70711 27.7071C4.31658 27.3166 4.28141 26.7186 4.62854 26.3715L25.9989 5.00112C26.346 4.65399 26.944 4.68917 27.3345 5.07969C27.725 5.47021 27.7602 6.0682 27.4131 6.41534L6.04275 27.7857C5.69562 28.1328 5.09763 28.0976 4.70711 27.7071Z" fill="white"/>
<path fill-rule="evenodd" clip-rule="evenodd" d="M4.70696 4.70711C5.09748 4.31658 5.69547 4.28141 6.0426 4.62854L27.4129 25.9989C27.7601 26.346 27.7249 26.944 27.3344 27.3345C26.9438 27.725 26.3459 27.7602 25.9987 27.4131L4.62839 6.04275C4.28126 5.69562 4.31643 5.09763 4.70696 4.70711Z" fill="white"/>
</svg>
