<svg width="32" height="32" viewBox="0 0 32 32" fill="none" xmlns="http://www.w3.org/2000/svg">
  <path
    d="M24.332 17.88C23.284 20.004 21.864 22.12 20.412 24.02C19.0346 25.8112 17.5618 27.527 16 29.16C14.4382 27.5271 12.9654 25.8113 11.588 24.02C10.136 22.12 8.716 20.004 7.668 17.88C6.608 15.734 6 13.724 6 12C6 9.34784 7.05357 6.8043 8.92893 4.92893C10.8043 3.05357 13.3478 2 16 2C18.6522 2 21.1957 3.05357 23.0711 4.92893C24.9464 6.8043 26 9.34784 26 12C26 13.724 25.39 15.734 24.332 17.88ZM16 32C16 32 28 20.628 28 12C28 8.8174 26.7357 5.76516 24.4853 3.51472C22.2348 1.26428 19.1826 0 16 0C12.8174 0 9.76516 1.26428 7.51472 3.51472C5.26428 5.76516 4 8.8174 4 12C4 20.628 16 32 16 32Z"
    fill="#29539B" />
  <path
    d="M16 16C14.9391 16 13.9217 15.5786 13.1716 14.8284C12.4214 14.0783 12 13.0609 12 12C12 10.9391 12.4214 9.92172 13.1716 9.17157C13.9217 8.42143 14.9391 8 16 8C17.0609 8 18.0783 8.42143 18.8284 9.17157C19.5786 9.92172 20 10.9391 20 12C20 13.0609 19.5786 14.0783 18.8284 14.8284C18.0783 15.5786 17.0609 16 16 16ZM16 18C17.5913 18 19.1174 17.3679 20.2426 16.2426C21.3679 15.1174 22 13.5913 22 12C22 10.4087 21.3679 8.88258 20.2426 7.75736C19.1174 6.63214 17.5913 6 16 6C14.4087 6 12.8826 6.63214 11.7574 7.75736C10.6321 8.88258 10 10.4087 10 12C10 13.5913 10.6321 15.1174 11.7574 16.2426C12.8826 17.3679 14.4087 18 16 18Z"
    fill="#29539B" />
</svg>