<svg width="30" height="30" viewBox="0 0 30 30" fill="none" xmlns="http://www.w3.org/2000/svg">
<mask id="mask0_18_1112" style="mask-type:luminance" maskUnits="userSpaceOnUse" x="0" y="5" width="30" height="20">
<path fill-rule="evenodd" clip-rule="evenodd" d="M0 5H30V25H0V5Z" fill="white"/>
</mask>
<g mask="url(#mask0_18_1112)">
<path fill-rule="evenodd" clip-rule="evenodd" d="M30 6.60691C29.8424 7.16614 29.6783 7.72425 29.5284 8.2848C28.5589 11.9097 27.5926 15.5352 26.6248 19.1604C26.208 20.7217 25.7943 22.2836 25.3678 23.8431C25.3123 24.0458 25.2136 24.2471 25.0917 24.4307C24.7657 24.9213 24.2289 25.1063 23.568 24.9407C23.2667 24.8652 22.9632 24.7548 22.7086 24.6072C20.5526 23.3573 18.4077 22.095 16.2592 20.8366C16.1814 20.7911 16.1017 20.7476 16.0089 20.6953C15.9376 20.744 15.8703 20.7858 15.8088 20.8326C14.6996 21.6782 13.5903 22.5237 12.483 23.371C12.1531 23.6233 11.7777 23.7752 11.2843 23.7524C11.3251 23.2643 11.3626 22.7919 11.4046 22.3198C11.4926 21.3312 11.5829 20.3428 11.6725 19.3543C11.6866 19.1987 11.7374 19.0393 11.7118 18.8882C11.6153 18.3182 12.0158 17.9878 12.505 17.639C16.4822 14.8024 20.4402 11.9486 24.404 9.09987C24.4621 9.05812 24.5374 9.02294 24.5717 8.97082C24.6345 8.87521 24.6726 8.76923 24.7211 8.66756C24.5873 8.6375 24.4393 8.56288 24.3226 8.58663C24.0821 8.63543 23.8409 8.71455 23.6302 8.81985C18.4638 11.4013 13.3012 13.9875 8.13906 16.5746C7.99406 16.6472 7.86959 16.6874 7.68344 16.6404C5.49344 16.0872 3.29851 15.5467 1.10866 14.993C0.843724 14.926 0.580036 14.8259 0.35336 14.6984C-0.0727417 14.4587 -0.124042 14.1077 0.257161 13.8243C0.536387 13.6167 0.874489 13.4325 1.22735 13.3203C3.07238 12.7337 4.92999 12.1726 6.78408 11.6042C13.8276 9.44538 20.8711 7.2865 27.9167 5.132C28.1408 5.06344 28.3852 5.01833 28.6242 5.00364C29.258 4.96477 29.7281 5.23917 29.9218 5.73204C29.9446 5.79009 29.9738 5.84664 30 5.90389V6.60691Z" fill="white"/>
</g>
</svg>
