<svg width="24" height="24" viewBox="0 0 24 24" fill="none" xmlns="http://www.w3.org/2000/svg">
<g clip-path="url(#clip0_1_258)">
<path d="M12.1853 0.0380154C11.9983 -0.0392818 11.7832 0.00374985 11.6403 0.146999L2.6403 9.147C2.44844 9.34561 2.45397 9.66216 2.65258 9.85402C2.84636 10.0411 3.15353 10.0411 3.34727 9.85402L11.4943 1.707L11.4943 23.5C11.4943 23.7761 11.7182 24 11.9943 24C12.2705 24 12.4944 23.7761 12.4944 23.5L12.4944 1.707L20.6403 9.85298C20.8322 10.0516 21.1487 10.0571 21.3474 9.86527C21.546 9.67341 21.5515 9.35691 21.3596 9.15825C21.3556 9.15408 21.3515 9.15 21.3474 9.14597L12.3474 0.145969C12.3009 0.0997505 12.2459 0.0630474 12.1853 0.0380154Z" fill="#1919EF"/>
<path d="M21.4944 9.50007C21.4949 9.77621 21.2714 10.0005 20.9952 10.001C20.8621 10.0012 20.7344 9.94834 20.6404 9.85407L11.9944 1.20704L3.3484 9.85407C3.14979 10.0459 2.83324 10.0404 2.64138 9.84179C2.45426 9.64801 2.45426 9.34084 2.64138 9.1471L11.6414 0.147101C11.8366 -0.0480862 12.1531 -0.0480862 12.3484 0.147101L21.3484 9.1471C21.4419 9.24076 21.4944 9.36769 21.4944 9.50007Z" fill="#1919EF"/>
<path d="M12.4944 0.500015L12.4944 23.5C12.4944 23.7761 12.2705 24 11.9944 24C11.7183 24 11.4944 23.7761 11.4944 23.5L11.4944 0.499968C11.4944 0.223827 11.7183 -4.57764e-05 11.9944 -4.57764e-05C12.2705 1.90735e-06 12.4944 0.223875 12.4944 0.500015Z" fill="#1919EF"/>
</g>
<defs>
<clipPath id="clip0_1_258">
<rect width="24" height="24" fill="white" transform="matrix(0 -1 1 0 0 24)"/>
</clipPath>
</defs>
</svg>
