<svg width="20" height="20" viewBox="0 0 20 20" fill="none" xmlns="http://www.w3.org/2000/svg">
<path d="M16.4166 3.16663H15.5V1.33329C15.5 1.09018 15.4034 0.85702 15.2315 0.685111C15.0596 0.513203 14.8264 0.416626 14.5833 0.416626C14.3402 0.416626 14.107 0.513203 13.9351 0.685111C13.7632 0.85702 13.6666 1.09018 13.6666 1.33329V3.16663H6.33331V1.33329C6.33331 1.09018 6.23674 0.85702 6.06483 0.685111C5.89292 0.513203 5.65976 0.416626 5.41665 0.416626C5.17353 0.416626 4.94037 0.513203 4.76847 0.685111C4.59656 0.85702 4.49998 1.09018 4.49998 1.33329V3.16663H3.58331C2.85397 3.16663 2.15449 3.45636 1.63877 3.97208C1.12304 4.48781 0.833313 5.18728 0.833313 5.91663V6.83329H19.1666V5.91663C19.1666 5.18728 18.8769 4.48781 18.3612 3.97208C17.8455 3.45636 17.146 3.16663 16.4166 3.16663Z" fill="#CACACA"/>
<path d="M0.833313 16.0001C0.833313 16.7294 1.12304 17.4289 1.63877 17.9446C2.15449 18.4604 2.85397 18.7501 3.58331 18.7501H16.4166C17.146 18.7501 17.8455 18.4604 18.3612 17.9446C18.8769 17.4289 19.1666 16.7294 19.1666 16.0001V8.66675H0.833313V16.0001Z" fill="#CACACA"/>
</svg>
