<svg width="20" height="20" viewBox="0 0 20 20" fill="none" xmlns="http://www.w3.org/2000/svg">
<g clip-path="url(#clip0_1_77)">
<path d="M17.6956 12.8671C16.5731 12.8671 15.471 12.6916 14.4267 12.3464C13.9149 12.1719 13.2858 12.332 12.9735 12.6528L10.9121 14.2089C8.52143 12.9328 7.04884 11.4607 5.79014 9.08801L7.30049 7.08031C7.69289 6.68844 7.83364 6.116 7.66501 5.57889C7.3184 4.52902 7.14232 3.42745 7.14232 2.30453C7.14237 1.49333 6.48241 0.833374 5.67126 0.833374H2.30442C1.49327 0.833374 0.833313 1.49333 0.833313 2.30448C0.833313 11.6024 8.39763 19.1667 17.6956 19.1667C18.5067 19.1667 19.1667 18.5068 19.1667 17.6956V14.3382C19.1666 13.5271 18.5067 12.8671 17.6956 12.8671Z" fill="#CACACA"/>
</g>
<defs>
<clipPath id="clip0_1_77">
<rect width="20" height="20" fill="white"/>
</clipPath>
</defs>
</svg>
