<svg xmlns="http://www.w3.org/2000/svg" width="354" height="19" fill="none"><g fill="#000" clip-path="url(#a)"><path d="M16.629.407v1.88H2.473v15.192H.133V.407h16.496Z"/><path d="M2.607 17.613H0V.28h16.763V2.42H2.607v15.193ZM.26 17.351h2.08V2.158h14.162V.541H.262v16.81H.26ZM26.549.407 37.13 17.48h-2.49l-3.184-5.146h-12.95l-3.18 5.146H13.01L23.587.407h2.962Zm3.796 10.142-5.352-8.653-5.375 8.658h10.727v-.005Z"/><path d="M37.365 17.613h-2.801l-3.185-5.146H18.574l-3.18 5.146h-2.628L23.515.28h3.107l.038.062 10.705 17.27Zm-2.657-.262h2.185L26.47.54h-2.81L13.245 17.35h2.012l3.179-5.146H31.53l3.185 5.146h-.007Zm-4.13-6.662H19.38l5.613-9.044 5.586 9.043h-.001Zm-10.726-.263h10.254L24.993 2.14l-5.141 8.28v.005ZM40.68 12.93c.983 2.202 3.795 3.016 8.925 3.016 5.525 0 8.41-1.015 8.41-3.095v-.518c0-1.784-2.074-2.75-5.92-2.75h-7.77V7.85h7.77c3.207 0 5.403-.914 5.403-2.72v-.42c0-2.18-2.985-2.793-7.893-2.793-4.907 0-7.964.692-8.631 2.793h-2.346C39.495 1.4 43.025.14 49.611.14c6.93 0 10.238 1.56 10.238 4.65 0 2.08-1.679 3.39-3.846 3.763 2.44.446 4.34 1.583 4.34 4.059 0 3.49-3.601 5.146-10.727 5.146-6.586 0-10.21-1.36-11.249-4.823h2.318l-.005-.005Z"/><path d="M49.611 17.886c-6.847 0-10.354-1.517-11.371-4.918l-.05-.167h2.578l.034.078c.922 2.063 3.557 2.938 8.809 2.938 5.252 0 8.281-.998 8.281-2.96v-.519c0-2.274-3.629-2.615-5.786-2.615H44.21V7.727h7.897c3.302 0 5.27-.97 5.27-2.592v-.418c0-1.868-2.324-2.665-7.76-2.665-5.435 0-7.908.808-8.509 2.704l-.027.089h-2.607l.044-.167C39.373 1.399 42.691 0 49.622 0c6.93 0 10.366 1.567 10.366 4.784 0 1.812-1.267 3.211-3.346 3.757 2.55.614 3.84 1.98 3.84 4.06 0 3.55-3.551 5.28-10.86 5.28l-.011.005Zm-11.066-4.823c1.045 3.15 4.474 4.56 11.066 4.56 7.13 0 10.599-1.639 10.599-5.012 0-2.096-1.423-3.417-4.235-3.93l-.734-.134.734-.128c2.306-.396 3.74-1.784 3.74-3.63 0-3.044-3.307-4.521-10.104-4.521-6.797 0-9.915 1.293-10.805 4.315h2.08c.694-1.985 3.24-2.793 8.725-2.793 5.486 0 8.026.875 8.026 2.927v.418c0 1.784-2.068 2.854-5.536 2.854h-7.637v1.467h7.637c5.002 0 6.053 1.567 6.053 2.877v.518c0 2.141-2.874 3.223-8.543 3.223-5.308 0-8.009-.904-9.015-3.017H38.54l.005.006ZM85.144.892v17.072H82.8V2.776H67.064v15.188H64.72V.892h20.424Z"/><path d="M85.273 18.098h-2.607V2.905H67.193v15.193h-2.607V.764h20.687v17.334Zm-2.346-.262h2.079V1.026H64.847v16.81h2.079V2.643h15.996v15.193h.005ZM105.269.892c4.219 0 6.07 2.102 6.07 5.52 0 3.417-1.851 5.564-6.07 5.564h-12.06v5.988h-2.346V.892h14.406Zm3.752 5.319c0-2.225-1.162-3.513-3.946-3.513H93.209v7.47h11.866c2.784 0 3.946-1.287 3.946-3.461V6.21Z"/><path d="M93.337 18.098h-2.606V.764h14.533c4.058 0 6.198 1.952 6.198 5.648 0 3.697-2.146 5.698-6.198 5.698H93.337v5.988Zm-2.345-.262h2.078v-5.988h12.194c3.885 0 5.936-1.879 5.936-5.436s-1.995-5.386-5.936-5.386H90.992v16.81Zm14.072-7.532H93.07V2.57h11.994c2.707 0 4.08 1.226 4.08 3.646v.496c0 2.387-1.373 3.596-4.08 3.596v-.004Zm-11.732-.262h11.732c2.568 0 3.813-1.093 3.813-3.334v-.496c0-2.275-1.25-3.385-3.813-3.385H93.332v7.215ZM127.368.625c8.386 0 12.777 2.448 12.777 8.86 0 6.411-4.391 8.759-12.777 8.759-8.387 0-12.778-2.548-12.778-8.76 0-6.21 4.391-8.859 12.778-8.859Zm10.46 8.163c0-4.427-3.53-6.334-10.46-6.334-6.931 0-10.46 1.88-10.46 6.334v1.26c0 4.377 3.501 6.356 10.46 6.356 6.958 0 10.46-1.957 10.46-6.356v-1.26Z"/><path d="M127.368 18.372c-8.803 0-12.905-2.827-12.905-8.893 0-6.066 3.979-8.987 12.905-8.987 8.926 0 12.906 2.77 12.906 8.987 0 6.217-4.102 8.893-12.906 8.893Zm0-17.618c-8.742 0-12.644 2.693-12.644 8.725 0 6.033 4.019 8.625 12.644 8.625 8.626 0 12.645-2.743 12.645-8.625S136.117.754 127.368.754Zm0 15.784c-7.125 0-10.587-2.125-10.587-6.49v-1.26c0-4.41 3.362-6.468 10.587-6.468 7.226 0 10.588 2.052 10.588 6.468v1.26c0 4.365-3.462 6.49-10.588 6.49Zm0-13.956c-7.047 0-10.326 1.974-10.326 6.2v1.26c0 4.249 3.279 6.228 10.326 6.228 7.048 0 10.327-1.98 10.327-6.228v-1.26c0-4.231-3.279-6.2-10.327-6.2Zm39.073-.08-8.459 12.869h-2.568l-8.459-12.817v15.41h-2.123V.892h3.429l8.51 12.918L165.302.892h3.451v17.072h-2.317V2.504l.005-.001Z"/><path d="M168.887 18.098h-2.578V2.945l-8.26 12.56h-2.706l-.039-.06-8.22-12.45v15.103h-2.385V.765h3.63l8.437 12.806 8.47-12.806h3.657v17.333h-.006Zm-2.317-.262h2.056V1.026h-3.251l-8.604 13.025-.111-.168-8.47-12.856h-3.23v16.81h1.857V2.113l8.659 13.124h2.423l8.665-13.174v15.772h.006ZM192.941.618v1.757h-16.969v5.369h12.406c3.924 0 5.697 1.806 5.697 4.95 0 3.145-1.779 4.996-5.697 4.996h-14.751V.618h19.314Zm-1.206 11.753c0-1.656-1.084-2.893-3.846-2.893h-11.911v6.484h11.911c2.762 0 3.846-1.21 3.846-2.944v-.647Z"/><path d="M188.377 17.825h-14.879V.491h19.575V2.51h-16.968v5.107h12.277c3.869 0 5.831 1.711 5.831 5.079 0 3.367-2.018 5.13-5.831 5.13l-.005-.001Zm-14.618-.262h14.618c3.696 0 5.569-1.639 5.569-4.867 0-3.228-1.873-4.817-5.569-4.817h-12.539V2.248h16.968V.753h-19.052v16.81h.005Zm14.123-1.466h-12.044V9.35h12.044c3.463 0 3.979 1.895 3.979 3.027v.641c0 1.405-.689 3.079-3.979 3.079Zm-11.783-.262h11.783c2.429 0 3.718-.97 3.718-2.81v-.641c0-1.807-1.284-2.766-3.718-2.766h-11.783v6.217ZM209.318.618l10.583 17.072h-2.49l-3.185-5.146h-12.95l-3.179 5.146h-2.318L206.356.618h2.962Zm3.797 10.142-5.353-8.66-5.374 8.659h10.727v.001Z"/><path d="M220.135 17.825h-2.802l-3.184-5.146h-12.806l-3.179 5.146h-2.629L206.284.491h3.107l.039.062 10.705 17.272Zm-2.657-.262h2.184L209.247.753h-2.813l-10.415 16.81h2.012l3.179-5.146h13.094l3.185 5.146h-.011Zm-4.13-6.662h-11.199l5.614-9.044 5.585 9.044Zm-10.726-.262h10.254l-5.119-8.28-5.141 8.28h.006ZM225.597.618v7.103h16.13V.618h2.317V17.69h-2.317V9.6h-16.13v8.09h-2.345V.618h2.345Z"/><path d="M244.178 17.825H241.6v-8.09h-15.868v8.09h-2.607V.491h2.607V7.59H241.6V.49h2.578v17.335Zm-2.317-.262h2.056V.753h-2.056v7.103h-16.396V.753h-2.079v16.81h2.079v-8.09h16.396v8.09ZM270.784.618l-11.344 8.19 11.644 8.882h-3.452l-10.237-7.817h-5.253v7.817h-2.345V.618h2.345v7.377h5.18L267.549.618h3.235Z"/><path d="M271.468 17.825h-3.885l-.033-.028-10.199-7.788h-5.08v7.816h-2.607V.491h2.607v7.371h5.007l10.233-7.37h3.679l-11.533 8.323 11.811 9.01Zm-3.796-.262h3.018L259.218 8.81 270.373.753h-2.785l-10.237 7.371h-5.353V.754h-2.078v16.81h2.078V9.746h5.431l.033.027 10.199 7.79h.011ZM277.79 17.74c.945 0 1.712-.768 1.712-1.716s-.767-1.717-1.712-1.717-1.712.769-1.712 1.717c0 .948.767 1.717 1.712 1.717ZM281.525 2.375V.491h21.682V2.37h-9.671v15.193h-2.346V2.374h-9.67l.005.001Z"/><path d="M293.668 17.696h-2.607V2.503h-9.67V.363h21.942v2.14h-9.67v15.193h.005Zm-2.345-.262h2.078V2.241h9.671V.624h-21.42v1.617h9.671v15.193ZM325.649.49v1.785H309.27v5.714h12.677v1.757H309.27v6.038h16.501v1.784H306.93V.49h18.719Z"/><path d="M325.905 17.696h-19.108V.362h18.98v2.046h-16.379v5.447h12.678v2.02h-12.678v5.775H325.9v2.046h.005Zm-18.841-.262h18.58v-1.517h-16.502v-6.3h12.678V8.123h-12.678V2.141h16.38V.624h-18.458v16.81Zm34.346-7.343-9.249 7.472h-2.934l10.632-8.587L329.477.491h3.207l8.926 7.298L350.636.49h2.934l-10.41 8.385 10.655 8.687h-3.229l-9.176-7.47Z"/></g><defs><clipPath id="a"><path fill="#fff" d="M0 0h354v19H0z"/></clipPath></defs></svg>