<svg width="37" height="57" viewBox="0 0 37 57" fill="none" xmlns="http://www.w3.org/2000/svg">
<path d="M25.9088 36.1951L36 19.7353C36 19.7353 23.7008 32.2232 21.4929 36.1951H25.9088Z" fill="#AECD61" stroke="#7C6A59" stroke-width="0.5" stroke-miterlimit="10" stroke-linecap="round" stroke-linejoin="round"/>
<path d="M31.5841 7.01573C31.5841 7.01573 30.0057 29.1506 24.9601 37.326H22.1225C22.1225 37.326 31.1097 10.1973 31.5841 7.01573Z" fill="#97C456" stroke="#7C6B59" stroke-width="0.5" stroke-miterlimit="10" stroke-linejoin="round"/>
<path d="M24.6496 1C24.6496 1 18.0256 13.8286 16.7664 29.9477H22.1311C22.1224 29.9477 23.0712 3.50031 24.6496 1Z" fill="#799946" stroke="#7C6A59" stroke-width="0.5" stroke-miterlimit="10" stroke-linecap="round" stroke-linejoin="round"/>
<path d="M24.6496 14.6257C24.6496 14.6257 21.9672 33.8106 23.7009 38.1231L18.6553 37.326C18.6553 37.326 19.7593 19.5037 24.6496 14.6257Z" fill="#AECD61" stroke="#7C6A59" stroke-width="0.5" stroke-miterlimit="10" stroke-linecap="round" stroke-linejoin="round"/>
<path d="M16.7664 7.01573C16.7664 7.01573 13.7735 33.8106 16.1368 38.1231L19.7592 38.8044C19.7592 38.8044 17.0769 8.3783 16.7664 7.01573Z" fill="#97C456" stroke="#7C6B59" stroke-width="0.5" stroke-miterlimit="10" stroke-linejoin="round"/>
<path d="M9.19366 16.8943L16.1367 41.5295H20.708L9.19366 16.8943Z" fill="#97C456" stroke="#7C6B59" stroke-width="0.5" stroke-miterlimit="10" stroke-linejoin="round"/>
<path d="M1 16.8943C1 16.8943 7.14958 32.3322 13.2992 38.1231L16.7664 37.326C16.7664 37.326 2.56974 20.8662 1 16.8943Z" fill="#AECD61" stroke="#7C6A59" stroke-width="0.5" stroke-miterlimit="10" stroke-linecap="round" stroke-linejoin="round"/>
<path d="M18.5 56H28.272L32.2913 39.5538H18.5H4.70007L8.72792 56H18.5Z" fill="#E09B52" stroke="#7C6B59" stroke-width="0.5" stroke-miterlimit="10" stroke-linejoin="round"/>
<path d="M18.5 39.5538H34.8787V34.2534H18.5H2.11261V39.5538H18.5Z" fill="#E09B52" stroke="#7C6B59" stroke-width="0.5" stroke-miterlimit="10" stroke-linejoin="round"/>
<path d="M5.06238 39.765H8.17598L12.5316 55.7888H8.9436L5.06238 39.765Z" fill="#B0733A"/>
<path d="M32.0757 39.7582H31.17L27.0991 55.7752H28.0564L32.0757 39.7582Z" fill="#F7B980"/>
<path d="M2.4231 34.451H5.6402L6.92531 39.3562H2.4231V34.451Z" fill="#B0733A"/>
<path d="M34.5683 34.451H33.3263L32.0757 39.3562H34.5683V34.451Z" fill="#F7B980"/>
</svg>
