<svg width="37" height="57" viewBox="0 0 37 57" fill="none" xmlns="http://www.w3.org/2000/svg">
<path d="M18.5 32.3314L12.8611 17.8252C14.1315 1.76716 18.5 1 18.5 1C18.5 1 22.8685 1.77587 24.1389 17.8252L18.5 32.3314Z" fill="#799946" stroke="#7C6A59" stroke-width="0.5" stroke-miterlimit="10"/>
<path d="M26.1387 25.7583C26.1387 25.7583 33.6299 12.6033 27.2452 5.63782C27.2452 5.63782 15.7461 24.5552 19.7458 29.7771L26.1387 25.7583Z" fill="#96C456" stroke="#7C6A59" stroke-width="0.5" stroke-miterlimit="10"/>
<path d="M10.8613 25.7583C10.8613 25.7583 3.37014 12.6033 9.75485 5.63782C9.75485 5.63782 21.4752 25.0347 17.4755 30.2566L10.8613 25.7583Z" fill="#96C456" stroke="#7C6A59" stroke-width="0.5" stroke-miterlimit="10"/>
<path d="M18.5 29.2366H25.7781C25.7781 29.2366 36.687 25.1742 35.9658 14.7304C35.9576 14.7304 24.6798 19.9523 18.5 29.2366Z" fill="#AECD61" stroke="#7C6A59" stroke-width="0.5" stroke-miterlimit="10"/>
<path d="M18.5 29.2366H11.2219C11.2219 29.2366 0.313 25.1742 1.03425 14.7304C1.04245 14.7304 12.3202 19.9523 18.5 29.2366Z" fill="#AECD61" stroke="#7C6A59" stroke-width="0.5" stroke-miterlimit="10"/>
<path d="M18.5 56H27.7779L31.5973 34.9903H18.5H5.41095L9.2303 56H18.5Z" fill="#E09B52" stroke="#7C6B59" stroke-width="0.5" stroke-miterlimit="10" stroke-linejoin="round"/>
<path d="M18.5 34.9903H34.0479V28.208H18.5H2.95215V34.9903H18.5Z" fill="#E09B52" stroke="#7C6B59" stroke-width="0.5" stroke-miterlimit="10" stroke-linejoin="round"/>
<path d="M5.74695 35.2606H8.70572L12.8447 55.7298H9.43516L5.74695 35.2606Z" fill="#B0733A"/>
<path d="M31.3924 35.2431H30.5236L26.6633 55.7123H27.573L31.3924 35.2431Z" fill="#F7B980"/>
<path d="M3.24719 28.4608H6.29612L7.52552 34.7375H3.24719V28.4608Z" fill="#B0733A"/>
<path d="M33.7528 28.4608H32.5726L31.3923 34.7375H33.7528V28.4608Z" fill="#F7B980"/>
</svg>
