<svg width="14" height="14" viewBox="0 0 14 14" fill="none" xmlns="http://www.w3.org/2000/svg">
    <path d="M9.41361 12.2005V9.72781C9.41361 6.03423 6.98495 4.29824 3.63863 3.03997C1.90402 2.38774 0.59253 0.609619 0.59253 0.609619L0.586426 5.51265C0.586426 9.20623 3.47173 12.2005 7.03091 12.2005H9.41361Z" fill="#52A345"/>
    <path d="M13.282 12.66C11.6868 13.0374 10.5878 12.4347 10.0018 11.9501V9.72787C10.0018 7.82012 9.41076 6.28584 8.19494 5.03744C7.2172 4.03335 5.8332 3.21658 3.8396 2.46693C2.29326 1.88546 1.0715 0.254959 1.05975 0.239121C0.906843 0.0318494 0.643706 -0.0515853 0.405332 0.0322077C0.166959 0.115821 0.0064503 0.347657 0.00610475 0.608778L0 5.51264C0 9.53644 3.15449 12.81 7.03181 12.81H9.16294C9.76587 13.3398 10.8132 14.0001 12.2895 14C12.6777 14 13.0958 13.9543 13.5431 13.8485C13.8593 13.7737 14.0573 13.447 13.9852 13.1188C13.9132 12.7906 13.5986 12.585 13.282 12.66ZM1.17465 5.51342L1.17885 2.13421C1.75863 2.67629 2.5424 3.27563 3.43951 3.61296C7.26621 5.0519 8.82718 6.82351 8.82718 9.72787V10.7291L5.96855 7.7625C5.73916 7.52451 5.3674 7.52451 5.1379 7.7625C4.90857 8.00049 4.90857 8.38641 5.1379 8.62452L7.99653 11.5911H7.03175C3.80217 11.591 1.17465 8.86424 1.17465 5.51342Z" fill="#5E282D"/>
</svg>
