<svg width="20" height="20" viewBox="0 0 20 20" fill="none" xmlns="http://www.w3.org/2000/svg">
<g clip-path="url(#clip0_11_247)">
<mask id="mask0_11_247" style="mask-type:luminance" maskUnits="userSpaceOnUse" x="0" y="2" width="20" height="16">
<path d="M18.5714 2.85715H1.42857C0.639593 2.85715 0 3.49674 0 4.28572V15.7143C0 16.5033 0.639593 17.1429 1.42857 17.1429H18.5714C19.3604 17.1429 20 16.5033 20 15.7143V4.28572C20 3.49674 19.3604 2.85715 18.5714 2.85715Z" fill="white"/>
</mask>
<g mask="url(#mask0_11_247)">
<path d="M18.5714 3.03571H1.42856C0.738202 3.03571 0.178558 3.59535 0.178558 4.28571V15.7143C0.178558 16.4046 0.738202 16.9643 1.42856 16.9643H18.5714C19.2618 16.9643 19.8214 16.4046 19.8214 15.7143V4.28571C19.8214 3.59535 19.2618 3.03571 18.5714 3.03571Z" fill="white" stroke="#F5F5F5" stroke-width="14.2857"/>
<mask id="mask1_11_247" style="mask-type:alpha" maskUnits="userSpaceOnUse" x="-7" y="-5" width="34" height="30">
<path d="M18.5714 3.03571H1.42856C0.738202 3.03571 0.178558 3.59535 0.178558 4.28571V15.7143C0.178558 16.4046 0.738202 16.9643 1.42856 16.9643H18.5714C19.2618 16.9643 19.8214 16.4046 19.8214 15.7143V4.28571C19.8214 3.59535 19.2618 3.03571 18.5714 3.03571Z" fill="white" stroke="white" stroke-width="14.2857"/>
</mask>
<g mask="url(#mask1_11_247)">
<path fill-rule="evenodd" clip-rule="evenodd" d="M9.99998 14.2857C12.3669 14.2857 14.2857 12.3669 14.2857 9.99998C14.2857 7.63304 12.3669 5.71426 9.99998 5.71426C7.63305 5.71426 5.71426 7.63304 5.71426 9.99998C5.71426 12.3669 7.63305 14.2857 9.99998 14.2857Z" fill="url(#paint0_linear_11_247)"/>
</g>
</g>
</g>
<defs>
<linearGradient id="paint0_linear_11_247" x1="5.71426" y1="5.71426" x2="5.71426" y2="14.2857" gradientUnits="userSpaceOnUse">
<stop stop-color="#D81441"/>
<stop offset="1" stop-color="#BB0831"/>
</linearGradient>
<clipPath id="clip0_11_247">
<rect width="20" height="20" fill="white"/>
</clipPath>
</defs>
</svg>
