<svg width="152" height="44" viewBox="0 0 152 44" fill="none" xmlns="http://www.w3.org/2000/svg">
<path d="M152 15.697V28.6H149.186V15.697H152Z" fill="white"/>
<path d="M142.778 15.697V25.3462C142.778 25.6578 142.864 25.8947 143.037 26.0568C143.21 26.2188 143.457 26.2999 143.777 26.2999H148.239L148.369 28.4504C147.493 28.5501 146.573 28.6062 145.61 28.6187C144.66 28.6436 143.71 28.6561 142.759 28.6561C141.833 28.6561 141.13 28.4067 140.649 27.9081C140.18 27.3969 139.945 26.7487 139.945 25.9633V15.697H142.778Z" fill="white"/>
<path d="M134.737 15.697C134.971 15.697 135.175 15.7655 135.348 15.9027C135.533 16.0398 135.656 16.2206 135.718 16.445L139.421 28.6H136.532L133.922 19.1191C133.873 18.9071 133.823 18.6952 133.774 18.4833C133.724 18.2589 133.681 18.0469 133.644 17.8475H133.144C133.107 18.0469 133.064 18.2589 133.015 18.4833C132.978 18.6952 132.928 18.9071 132.867 19.1191L130.256 28.6H127.349L131.071 16.445C131.132 16.2206 131.25 16.0398 131.423 15.9027C131.608 15.7655 131.817 15.697 132.052 15.697L134.737 15.697ZM136.699 23.0461V25.1966H130.071V23.0461H136.699Z" fill="white"/>
<path d="M122.376 15.5474C123.486 15.5474 124.369 15.6471 125.023 15.8466C125.69 16.0336 126.171 16.3702 126.467 16.8564C126.763 17.3426 126.912 18.0282 126.912 18.9134C126.912 19.8359 126.733 20.5403 126.375 21.0265C126.029 21.5002 125.455 21.7745 124.653 21.8493V21.9615C125.64 22.0487 126.331 22.3853 126.726 22.9713C127.121 23.5447 127.319 24.3488 127.319 25.3836C127.319 26.2687 127.165 26.9544 126.856 27.4406C126.56 27.9268 126.091 28.2696 125.449 28.4691C124.819 28.6561 123.992 28.7496 122.968 28.7496C122.141 28.7496 121.419 28.7433 120.802 28.7309C120.197 28.7309 119.635 28.7184 119.117 28.6935C118.599 28.6685 118.068 28.6374 117.525 28.6L117.802 26.6178C118.099 26.6302 118.666 26.6427 119.506 26.6552C120.357 26.6676 121.345 26.6739 122.468 26.6739C122.986 26.6739 123.394 26.624 123.69 26.5243C123.986 26.4245 124.19 26.2438 124.301 25.982C124.424 25.7077 124.486 25.3212 124.486 24.8226C124.486 24.2865 124.424 23.8813 124.301 23.6071C124.178 23.3203 123.962 23.1209 123.653 23.0087C123.357 22.8965 122.943 22.8341 122.413 22.8217H117.784V21.0078H122.376C122.832 20.9953 123.19 20.9454 123.449 20.8582C123.721 20.7709 123.912 20.6026 124.023 20.3533C124.134 20.1039 124.19 19.7549 124.19 19.3061C124.19 18.8448 124.128 18.4957 124.005 18.2589C123.894 18.0095 123.696 17.8412 123.412 17.754C123.128 17.6667 122.733 17.6231 122.227 17.6231C121.536 17.6231 120.925 17.6231 120.394 17.6231C119.864 17.6231 119.389 17.6293 118.969 17.6418C118.549 17.6418 118.16 17.6542 117.802 17.6792L117.525 15.697C118.018 15.6471 118.494 15.6159 118.95 15.6035C119.419 15.5785 119.925 15.5661 120.469 15.5661C121.012 15.5536 121.647 15.5474 122.376 15.5474ZM120.302 15.697V28.6H117.525V15.697H120.302Z" fill="white"/>
<path d="M112.279 15.697C112.514 15.697 112.717 15.7655 112.89 15.9027C113.075 16.0398 113.199 16.2206 113.261 16.445L116.963 28.6H114.075L111.465 19.1191C111.415 18.9071 111.366 18.6952 111.317 18.4833C111.267 18.2589 111.224 18.0469 111.187 17.8475H110.687C110.65 18.0469 110.607 18.2589 110.557 18.4833C110.52 18.6952 110.471 18.9071 110.409 19.1191L107.799 28.6H104.892L108.613 16.445C108.675 16.2206 108.792 16.0398 108.965 15.9027C109.15 15.7655 109.36 15.697 109.595 15.697L112.279 15.697ZM114.242 23.0461V25.1966H107.614V23.0461H114.242Z" fill="white"/>
<path d="M104.361 15.697V27.5715C104.361 28.2571 104.022 28.6 103.343 28.6H101.788C101.479 28.6 101.245 28.5314 101.084 28.3943C100.924 28.2447 100.776 28.0265 100.64 27.7398L97.1035 20.9704C96.9554 20.6836 96.8073 20.3657 96.6592 20.0167C96.5234 19.6676 96.4062 19.331 96.3074 19.0069H96.1038C96.1408 19.3435 96.1717 19.6863 96.1963 20.0354C96.221 20.372 96.2334 20.7086 96.2334 21.0452V28.6H93.5488V16.7255C93.5488 16.0398 93.8944 15.697 94.5856 15.697H96.1223C96.4185 15.697 96.6407 15.7718 96.7888 15.9214C96.9493 16.0585 97.1035 16.2704 97.2517 16.5572L100.677 23.1209C100.825 23.4076 100.979 23.7255 101.14 24.0746C101.3 24.4236 101.454 24.7852 101.603 25.1592H101.825C101.788 24.7852 101.757 24.4236 101.732 24.0746C101.72 23.713 101.714 23.3577 101.714 23.0087L101.695 15.697H104.361Z" fill="white"/>
<path d="M91.716 15.697V28.6H88.9019V15.697H91.716Z" fill="white"/>
<path d="M82.4935 15.697V25.3462C82.4935 25.6578 82.5799 25.8947 82.7527 26.0568C82.9255 26.2188 83.1723 26.2999 83.4932 26.2999H87.9552L88.0848 28.4504C87.2084 28.5501 86.2889 28.6062 85.3261 28.6187C84.3757 28.6436 83.4253 28.6561 82.4749 28.6561C81.5492 28.6561 80.8457 28.4067 80.3643 27.9081C79.8953 27.3969 79.6608 26.7487 79.6608 25.9633V15.697H82.4935Z" fill="white"/>
<path d="M74.4524 15.697C74.6869 15.697 74.8905 15.7655 75.0633 15.9027C75.2485 16.0398 75.3719 16.2206 75.4336 16.445L79.1365 28.6H76.2482L73.6377 19.1191C73.5884 18.9071 73.539 18.6952 73.4896 18.4833C73.4402 18.2589 73.397 18.0469 73.36 17.8475H72.8601C72.8231 18.0469 72.7799 18.2589 72.7305 18.4833C72.6935 18.6952 72.6441 18.9071 72.5824 19.1191L69.9719 28.6H67.0652L70.7865 16.445C70.8482 16.2206 70.9655 16.0398 71.1383 15.9027C71.3234 15.7655 71.5333 15.697 71.7678 15.697L74.4524 15.697ZM76.4149 23.0461V25.1966H69.7868V23.0461H76.4149Z" fill="white"/>
<path d="M68.3331 15.697L64.8524 27.8146C64.7907 28.039 64.6673 28.226 64.4821 28.3756C64.3093 28.5252 64.0995 28.6 63.8526 28.6H61.2606C61.0014 28.6 60.7793 28.5252 60.5941 28.3756C60.4213 28.226 60.3102 28.039 60.2609 27.8146L56.7617 15.697H59.6869L62.0197 25.0096C62.0691 25.2464 62.1185 25.4895 62.1678 25.7389C62.2295 25.9757 62.2789 26.2126 62.3159 26.4495H62.7973C62.8343 26.2126 62.8775 25.9695 62.9269 25.7202C62.9886 25.4708 63.0503 25.2277 63.1121 24.9909L65.4263 15.697H68.3331Z" fill="white"/>
<g clip-path="url(#clip0_15_382)">
<rect width="44" height="44" fill="url(#paint0_linear_15_382)"/>
<path d="M13.4116 22.1042C10.2777 22.1176 7.37366 22.7536 5.95773 23.1968C5.95773 23.1968 18.8018 25.3765 19.8703 34.2431C10.1101 20.1709 -0.535919 37.1898 -0.535919 37.1898C1.68371 36.6075 8.03961 34.8792 12.2838 35.6083C15.1876 36.1072 18.0183 38.7398 17.8961 38.7066C10.9759 40.4092 -0.0179909 71.2078 1.84883 73.709C3.51344 75.6216 5.17984 74.9692 6.84467 73.9989C7.66871 67.4717 14.0995 38.8338 21.9686 41.1456C21.9697 41.1459 21.9708 41.1452 21.9719 41.1456C22.6344 41.3723 23.2612 41.7701 23.2951 42.3778C23.3599 43.5356 22.6125 45.4277 22.7891 46.7419C23.1982 49.7914 23.7953 50.852 24.6637 51.9159C26.7376 50.7501 28.722 46.547 29.1324 44.3677C30.9908 45.1815 33.978 47.0663 36.4151 54.0664C37.6891 47.5067 35.8518 42.3326 29.8203 40.0351C32.4323 38.9062 43.801 44.6189 45.1887 47.8029C46.5388 42.0615 36.989 35.036 29.0383 35.4094C30.5626 35.0116 32.2377 35.4764 33.8317 34.3026C35.9706 32.7275 38.4651 31.3711 40.7895 29.914C32.9723 26.5139 25.7583 28.1928 25.2503 31.7121C24.8512 23.9012 18.7896 22.0815 13.4115 22.1043L13.4116 22.1042Z" fill="white"/>
</g>
<defs>
<linearGradient id="paint0_linear_15_382" x1="22" y1="0" x2="22" y2="44" gradientUnits="userSpaceOnUse">
<stop stop-color="#FAAD66"/>
<stop offset="0.844644" stop-color="#F849C7"/>
</linearGradient>
<clipPath id="clip0_15_382">
<rect width="44" height="44" fill="white"/>
</clipPath>
</defs>
</svg>
