<svg width="160" height="48" viewBox="0 0 160 48" fill="none" xmlns="http://www.w3.org/2000/svg">
<path d="M154.074 0H5.92593C2.65313 0 0 2.68629 0 6V42C0 45.3137 2.65313 48 5.92593 48H154.074C157.347 48 160 45.3137 160 42V6C160 2.68629 157.347 0 154.074 0Z" fill="black"/>
<path d="M154.074 0.96C155.394 0.96 156.66 1.491 157.594 2.43618C158.527 3.38137 159.052 4.66331 159.052 6V42C159.052 43.3367 158.527 44.6186 157.594 45.5638C156.66 46.509 155.394 47.04 154.074 47.04H5.92593C4.60574 47.04 3.33962 46.509 2.40611 45.5638C1.47259 44.6186 0.948148 43.3367 0.948148 42V6C0.948148 4.66331 1.47259 3.38137 2.40611 2.43618C3.33962 1.491 4.60574 0.96 5.92593 0.96H154.074ZM154.074 0H5.92593C4.35427 0 2.84699 0.632141 1.73566 1.75736C0.624337 2.88258 0 4.4087 0 6V42C0 43.5913 0.624337 45.1174 1.73566 46.2426C2.84699 47.3679 4.35427 48 5.92593 48H154.074C155.646 48 157.153 47.3679 158.264 46.2426C159.376 45.1174 160 43.5913 160 42V6C160 4.4087 159.376 2.88258 158.264 1.75736C157.153 0.632141 155.646 0 154.074 0Z" fill="#A6A6A6"/>
<path fill-rule="evenodd" clip-rule="evenodd" d="M19.0996 8.25C12.7081 8.25 10.3704 10.6166 10.3704 17.0866V30.9133C10.3704 37.3834 12.7081 39.75 19.0996 39.75H32.7481C39.1394 39.75 41.4815 37.3834 41.4815 30.9133V17.0866C41.4815 10.6166 39.1437 8.25 32.7522 8.25H19.0996Z" fill="url(#paint0_linear_15_530)"/>
<path fill-rule="evenodd" clip-rule="evenodd" d="M23.941 26.5193H25.19L24.5633 25.0438L23.941 26.5193ZM23.6334 27.2629L23.2628 28.1214H22.4192L24.2133 24.0003H24.9424L26.7293 28.1214H25.8631L25.4973 27.2629H23.6334ZM37.2093 28.1184H38.0247V24H37.2093V28.1184ZM33.9639 26.3492H35.467V25.5983H33.9639V24.7542H36.1459V24.003H33.1488V28.1212H36.2244V27.37H33.9639V26.3492ZM30.724 26.8358L29.7996 24H29.125L28.2006 26.8358L27.3009 24.0023H26.4212L27.841 28.1237H28.5249L29.4508 25.4165L30.3767 28.1237H31.0666L32.4826 24.0023H31.6257L30.724 26.8358ZM21.1744 26.3606C21.1744 27.031 20.8456 27.3893 20.2485 27.3893C19.6481 27.3893 19.3175 27.0206 19.3175 26.332V24.0028H18.4911V26.3606C18.4911 27.5204 19.1278 28.1855 20.2372 28.1855C21.3577 28.1855 22.0001 27.5077 22.0001 26.3262V24.0003H21.1744V26.3606ZM16.5195 24.0003H17.3454V28.124H16.5195V26.4492H14.6536V28.124H13.8272V24.0003H14.6536V25.6636H16.5195V24.0003Z" fill="white"/>
<path fill-rule="evenodd" clip-rule="evenodd" d="M25.926 18.75C23.0666 18.75 20.7408 16.3949 20.7408 13.5H21.4732C21.4732 15.9858 23.4709 18.0082 25.926 18.0082C28.381 18.0082 30.3787 15.9858 30.3787 13.5H31.1112C31.1112 16.3949 28.7851 18.75 25.926 18.75Z" fill="white"/>
<path d="M54.6667 23.694H56.7659L62.64 37.5H59.8667L58.5955 34.341H52.683L51.4504 37.5H48.7348L54.6667 23.694ZM57.7481 32.235L55.6489 26.619L53.5111 32.235H57.7481Z" fill="white"/>
<path d="M65.8959 28.14V29.4465H65.9536C66.0692 29.2645 66.2168 29.0825 66.3966 28.9005C66.5892 28.7055 66.8203 28.5365 67.0899 28.3935C67.3596 28.2375 67.6613 28.114 67.9951 28.023C68.3418 27.919 68.727 27.867 69.1507 27.867C69.8055 27.867 70.4089 27.997 70.961 28.257C71.5131 28.504 71.9882 28.8485 72.3862 29.2905C72.7843 29.7325 73.0924 30.2525 73.3107 30.8505C73.5289 31.4485 73.6381 32.092 73.6381 32.781C73.6381 33.47 73.5289 34.12 73.3107 34.731C73.1052 35.329 72.8035 35.8555 72.4055 36.3105C72.0203 36.7525 71.5452 37.11 70.9803 37.383C70.4282 37.643 69.7991 37.773 69.0929 37.773C68.4381 37.773 67.8346 37.6365 67.2825 37.3635C66.7433 37.0905 66.326 36.72 66.0307 36.252H65.9922V42.18H63.681V28.14H65.8959ZM71.2884 32.781C71.2884 32.417 71.2307 32.0595 71.1151 31.7085C71.0124 31.3445 70.8519 31.0195 70.6336 30.7335C70.4154 30.4475 70.1393 30.22 69.8055 30.051C69.4717 29.869 69.0801 29.778 68.6307 29.778C68.207 29.778 67.8282 29.869 67.4944 30.051C67.1605 30.233 66.8717 30.467 66.6277 30.753C66.3966 31.039 66.2168 31.364 66.0884 31.728C65.9729 32.092 65.9151 32.456 65.9151 32.82C65.9151 33.184 65.9729 33.548 66.0884 33.912C66.2168 34.263 66.3966 34.5815 66.6277 34.8675C66.8717 35.1535 67.1605 35.3875 67.4944 35.5695C67.8282 35.7385 68.207 35.823 68.6307 35.823C69.0801 35.823 69.4717 35.732 69.8055 35.55C70.1393 35.368 70.4154 35.134 70.6336 34.848C70.8519 34.562 71.0124 34.237 71.1151 33.873C71.2307 33.509 71.2884 33.145 71.2884 32.781Z" fill="white"/>
<path d="M77.8908 28.14V29.4465H77.9485C78.0641 29.2645 78.2118 29.0825 78.3915 28.9005C78.5841 28.7055 78.8152 28.5365 79.0848 28.3935C79.3545 28.2375 79.6562 28.114 79.99 28.023C80.3367 27.919 80.7219 27.867 81.1456 27.867C81.8004 27.867 82.4038 27.997 82.9559 28.257C83.508 28.504 83.9831 28.8485 84.3811 29.2905C84.7792 29.7325 85.0873 30.2525 85.3056 30.8505C85.5238 31.4485 85.633 32.092 85.633 32.781C85.633 33.47 85.5238 34.12 85.3056 34.731C85.1001 35.329 84.7984 35.8555 84.4004 36.3105C84.0152 36.7525 83.5401 37.11 82.9752 37.383C82.4231 37.643 81.794 37.773 81.0878 37.773C80.433 37.773 79.8295 37.6365 79.2774 37.3635C78.7382 37.0905 78.3209 36.72 78.0256 36.252H77.9871V42.18H75.6759V28.14H77.8908ZM83.2834 32.781C83.2834 32.417 83.2256 32.0595 83.11 31.7085C83.0073 31.3445 82.8468 31.0195 82.6285 30.7335C82.4103 30.4475 82.1342 30.22 81.8004 30.051C81.4666 29.869 81.075 29.778 80.6256 29.778C80.2019 29.778 79.8231 29.869 79.4893 30.051C79.1555 30.233 78.8666 30.467 78.6226 30.753C78.3915 31.039 78.2118 31.364 78.0834 31.728C77.9678 32.092 77.91 32.456 77.91 32.82C77.91 33.184 77.9678 33.548 78.0834 33.912C78.2118 34.263 78.3915 34.5815 78.6226 34.8675C78.8666 35.1535 79.1555 35.3875 79.4893 35.5695C79.8231 35.7385 80.2019 35.823 80.6256 35.823C81.075 35.823 81.4666 35.732 81.8004 35.55C82.1342 35.368 82.4103 35.134 82.6285 34.848C82.8468 34.562 83.0073 34.237 83.11 33.873C83.2256 33.509 83.2834 33.145 83.2834 32.781Z" fill="white"/>
<path d="M99.7272 36.7785C99.0338 37.1165 98.2699 37.3765 97.4353 37.5585C96.6136 37.7535 95.6634 37.851 94.5849 37.851C93.4807 37.851 92.4728 37.6755 91.5612 37.3245C90.6496 36.9605 89.8664 36.46 89.2116 35.823C88.5568 35.173 88.0432 34.406 87.6709 33.522C87.3114 32.625 87.1316 31.637 87.1316 30.558C87.1316 29.453 87.3178 28.4585 87.6901 27.5745C88.0753 26.6775 88.5953 25.917 89.2501 25.293C89.9178 24.669 90.701 24.188 91.5997 23.85C92.4985 23.512 93.4743 23.343 94.5272 23.343C95.6185 23.343 96.6136 23.5055 97.5123 23.8305C98.4239 24.1425 99.1558 24.5585 99.7079 25.0785L98.0323 26.9115C97.6857 26.5215 97.1978 26.19 96.5686 25.917C95.9523 25.644 95.2783 25.5075 94.5464 25.5075C93.8274 25.5075 93.1726 25.6375 92.582 25.8975C92.0042 26.1575 91.5099 26.515 91.099 26.97C90.6881 27.425 90.3672 27.958 90.136 28.569C89.9178 29.18 89.8086 29.843 89.8086 30.558C89.8086 31.299 89.9178 31.9815 90.136 32.6055C90.3672 33.2165 90.6881 33.7495 91.099 34.2045C91.5227 34.6595 92.0299 35.017 92.6205 35.277C93.2239 35.524 93.9044 35.6475 94.662 35.6475C95.702 35.6475 96.6072 35.485 97.3775 35.16V31.65H94.5079V29.622H99.7272V36.7785Z" fill="white"/>
<path d="M108.113 36.3105H108.056C107.824 36.7265 107.452 37.071 106.939 37.344C106.425 37.604 105.841 37.734 105.186 37.734C104.814 37.734 104.422 37.682 104.011 37.578C103.613 37.487 103.241 37.331 102.894 37.11C102.56 36.876 102.278 36.577 102.047 36.213C101.828 35.836 101.719 35.3745 101.719 34.8285C101.719 34.1265 101.912 33.5675 102.297 33.1515C102.695 32.7355 103.202 32.417 103.819 32.196C104.435 31.975 105.115 31.832 105.86 31.767C106.618 31.689 107.356 31.65 108.075 31.65V31.416C108.075 30.831 107.863 30.402 107.439 30.129C107.028 29.843 106.534 29.7 105.956 29.7C105.468 29.7 105 29.804 104.55 30.012C104.101 30.22 103.729 30.4735 103.433 30.7725L102.239 29.349C102.766 28.855 103.369 28.4845 104.05 28.2375C104.743 27.9905 105.443 27.867 106.149 27.867C106.971 27.867 107.645 27.984 108.171 28.218C108.71 28.452 109.134 28.7575 109.442 29.1345C109.75 29.5115 109.962 29.934 110.078 30.402C110.206 30.87 110.27 31.338 110.27 31.806V37.5H108.113V36.3105ZM108.075 33.2295H107.555C107.182 33.2295 106.791 33.249 106.38 33.288C105.969 33.314 105.59 33.3855 105.244 33.5025C104.897 33.6065 104.608 33.7625 104.377 33.9705C104.146 34.1655 104.03 34.4385 104.03 34.7895C104.03 35.0105 104.075 35.199 104.165 35.355C104.268 35.498 104.396 35.615 104.55 35.706C104.704 35.797 104.878 35.862 105.07 35.901C105.263 35.94 105.456 35.9595 105.648 35.9595C106.444 35.9595 107.048 35.745 107.459 35.316C107.869 34.887 108.075 34.302 108.075 33.561V33.2295Z" fill="white"/>
<path d="M112.809 22.758H115.12V37.5H112.809V22.758Z" fill="white"/>
<path d="M117.77 22.758H120.081V37.5H117.77V22.758Z" fill="white"/>
<path d="M129.201 31.884C129.201 31.585 129.157 31.299 129.067 31.026C128.99 30.753 128.861 30.5125 128.681 30.3045C128.502 30.0965 128.271 29.934 127.988 29.817C127.719 29.687 127.398 29.622 127.025 29.622C126.332 29.622 125.741 29.8365 125.253 30.2655C124.778 30.6815 124.515 31.221 124.464 31.884H129.201ZM131.513 32.937C131.513 33.041 131.513 33.145 131.513 33.249C131.513 33.353 131.506 33.457 131.493 33.561H124.464C124.489 33.899 124.573 34.211 124.714 34.497C124.868 34.77 125.067 35.0105 125.311 35.2185C125.555 35.4135 125.831 35.5695 126.139 35.6865C126.447 35.8035 126.768 35.862 127.102 35.862C127.68 35.862 128.168 35.758 128.566 35.55C128.964 35.329 129.291 35.03 129.548 34.653L131.089 35.901C130.177 37.149 128.855 37.773 127.121 37.773C126.402 37.773 125.741 37.6625 125.138 37.4415C124.534 37.2075 124.008 36.8825 123.559 36.4665C123.122 36.0505 122.775 35.5435 122.519 34.9455C122.275 34.3345 122.153 33.6455 122.153 32.8785C122.153 32.1245 122.275 31.442 122.519 30.831C122.775 30.207 123.122 29.6805 123.559 29.2515C123.995 28.8095 124.509 28.4715 125.099 28.2375C125.703 27.9905 126.351 27.867 127.044 27.867C127.686 27.867 128.277 27.9775 128.816 28.1985C129.368 28.4065 129.843 28.725 130.241 29.154C130.64 29.57 130.948 30.0965 131.166 30.7335C131.397 31.3575 131.513 32.092 131.513 32.937Z" fill="white"/>
<path d="M133.558 28.14H135.773V29.7H135.812C136.068 29.154 136.428 28.712 136.89 28.374C137.352 28.036 137.892 27.867 138.508 27.867C138.598 27.867 138.694 27.8735 138.797 27.8865C138.9 27.8865 138.989 27.8995 139.066 27.9255V30.0705C138.912 30.0315 138.778 30.0055 138.662 29.9925C138.559 29.9795 138.457 29.973 138.354 29.973C137.827 29.973 137.404 30.0705 137.083 30.2655C136.762 30.4605 136.511 30.6945 136.332 30.9675C136.152 31.2405 136.03 31.52 135.966 31.806C135.902 32.092 135.869 32.3195 135.869 32.4885V37.5H133.558V28.14Z" fill="white"/>
<path d="M138.994 28.14H141.556L144.137 34.9455H144.175L146.467 28.14H148.874L144.503 39.5085C144.336 39.9375 144.156 40.3145 143.963 40.6395C143.771 40.9775 143.54 41.257 143.27 41.478C143 41.712 142.679 41.8875 142.307 42.0045C141.947 42.1215 141.511 42.18 140.997 42.18C140.805 42.18 140.606 42.167 140.4 42.141C140.208 42.128 140.009 42.0955 139.803 42.0435L139.996 40.0155C140.15 40.0675 140.298 40.1 140.439 40.113C140.593 40.139 140.734 40.152 140.863 40.152C141.106 40.152 141.312 40.1195 141.479 40.0545C141.646 40.0025 141.787 39.9115 141.903 39.7815C142.018 39.6645 142.121 39.515 142.211 39.333C142.301 39.151 142.397 38.9365 142.5 38.6895L142.962 37.5L138.994 28.14Z" fill="white"/>
<path d="M57.2857 17.6289H55.8968V15.5312H50.347V17.6289H48.935L48.8887 14.3477H49.5658C49.9014 14.0195 50.1695 13.543 50.3702 12.918C50.5708 12.2891 50.7 11.5781 50.7579 10.7852L50.9778 7H56.2903V14.3477H57.3609L57.2857 17.6289ZM51.2208 14.3477H54.832V8.19531H52.3725L52.2336 10.5977C52.1294 12.2031 51.7918 13.4531 51.2208 14.3477Z" fill="white"/>
<path d="M58.0611 12.3027C58.0611 11.6816 58.1827 11.123 58.4257 10.627C58.6688 10.127 59.0102 9.74414 59.45 9.47852C59.8898 9.20898 60.3952 9.07422 60.9662 9.07422C61.8111 9.07422 62.4959 9.34961 63.0206 9.90039C63.5492 10.4512 63.8347 11.1816 63.8771 12.0918L63.8829 12.4258C63.8829 13.0508 63.7633 13.6094 63.5241 14.1016C63.2887 14.5938 62.9492 14.9746 62.5056 15.2441C62.0658 15.5137 61.5565 15.6484 60.9778 15.6484C60.0943 15.6484 59.3864 15.3516 58.8539 14.7578C58.3254 14.1602 58.0611 13.3652 58.0611 12.373V12.3027ZM59.4674 12.4258C59.4674 13.0781 59.6005 13.5898 59.8667 13.9609C60.1329 14.3281 60.5033 14.5117 60.9778 14.5117C61.4523 14.5117 61.8208 14.3242 62.0831 13.9492C62.3493 13.5742 62.4824 13.0254 62.4824 12.3027C62.4824 11.6621 62.3455 11.1543 62.0715 10.7793C61.8015 10.4043 61.433 10.2168 60.9662 10.2168C60.5071 10.2168 60.1425 10.4023 59.8725 10.7734C59.6024 11.1406 59.4674 11.6914 59.4674 12.4258Z" fill="white"/>
<path d="M67.6445 14.5117C67.9955 14.5117 68.2868 14.4082 68.5183 14.2012C68.7498 13.9941 68.8732 13.7383 68.8887 13.4336H70.2139C70.1985 13.8281 70.0769 14.1973 69.8493 14.541C69.6217 14.8809 69.3131 15.1504 68.9234 15.3496C68.5337 15.5488 68.1132 15.6484 67.6618 15.6484C66.786 15.6484 66.0916 15.3613 65.5785 14.7871C65.0654 14.2129 64.8088 13.4199 64.8088 12.4082V12.2617C64.8088 11.2969 65.0634 10.5254 65.5727 9.94727C66.082 9.36523 66.7764 9.07422 67.656 9.07422C68.4006 9.07422 69.0063 9.29492 69.4732 9.73633C69.9438 10.1738 70.1908 10.75 70.2139 11.4648H68.8887C68.8732 11.1016 68.7498 10.8027 68.5183 10.5684C68.2907 10.334 67.9994 10.2168 67.6445 10.2168C67.1892 10.2168 66.8381 10.3848 66.5912 10.7207C66.3443 11.0527 66.2189 11.5586 66.2151 12.2383V12.4668C66.2151 13.1543 66.3366 13.668 66.5796 14.0078C66.8266 14.3438 67.1815 14.5117 67.6445 14.5117Z" fill="white"/>
<path d="M76.2035 10.3223H74.1722V15.5312H72.766V10.3223H70.7579V9.19141H76.2035V10.3223Z" fill="white"/>
<path d="M79.4037 13.4922L80.6769 9.19141H82.1757L79.6873 16.4922C79.3053 17.5586 78.6572 18.0918 77.7428 18.0918C77.5384 18.0918 77.3127 18.0566 77.0658 17.9863V16.8848L77.332 16.9023C77.6869 16.9023 77.9531 16.8359 78.1306 16.7031C78.3119 16.5742 78.4546 16.3555 78.5588 16.0469L78.7614 15.502L76.5623 9.19141H78.0785L79.4037 13.4922Z" fill="white"/>
<path d="M88.2984 15.5312H86.8921V10.3398H84.45V15.5312H83.0438V9.19141H88.2984V15.5312Z" fill="white"/>
<path d="M95.0982 15.5312H93.6919V12.9707H91.2556V15.5312H89.8493V9.19141H91.2556V11.834H93.6919V9.19141H95.0982V15.5312Z" fill="white"/>
<path d="M96.3366 12.3027C96.3366 11.6816 96.4581 11.123 96.7012 10.627C96.9442 10.127 97.2857 9.74414 97.7255 9.47852C98.1653 9.20898 98.6707 9.07422 99.2417 9.07422C100.087 9.07422 100.771 9.34961 101.296 9.90039C101.825 10.4512 102.11 11.1816 102.153 12.0918L102.158 12.4258C102.158 13.0508 102.039 13.6094 101.8 14.1016C101.564 14.5938 101.225 14.9746 100.781 15.2441C100.341 15.5137 99.832 15.6484 99.2533 15.6484C98.3698 15.6484 97.6618 15.3516 97.1294 14.7578C96.6009 14.1602 96.3366 13.3652 96.3366 12.373V12.3027ZM97.7428 12.4258C97.7428 13.0781 97.8759 13.5898 98.1421 13.9609C98.4083 14.3281 98.7787 14.5117 99.2533 14.5117C99.7278 14.5117 100.096 14.3242 100.359 13.9492C100.625 13.5742 100.758 13.0254 100.758 12.3027C100.758 11.6621 100.621 11.1543 100.347 10.7793C100.077 10.4043 99.7085 10.2168 99.2417 10.2168C98.7826 10.2168 98.418 10.4023 98.1479 10.7734C97.8779 11.1406 97.7428 11.6914 97.7428 12.4258Z" fill="white"/>
<path d="M106.406 15.5312V9.19141H108.947C109.803 9.19141 110.455 9.34375 110.903 9.64844C111.35 9.94922 111.574 10.3828 111.574 10.9492C111.574 11.2422 111.483 11.5059 111.302 11.7402C111.124 11.9707 110.86 12.1484 110.509 12.2734C110.918 12.3594 111.242 12.5332 111.481 12.7949C111.72 13.0566 111.84 13.3652 111.84 13.7207C111.84 14.3105 111.624 14.7598 111.192 15.0684C110.764 15.377 110.146 15.5312 109.34 15.5312H106.406ZM107.812 12.8301V14.4062H109.352C110.073 14.4062 110.434 14.1445 110.434 13.6211C110.434 13.0938 110.067 12.8301 109.334 12.8301H107.812ZM107.812 11.8105H108.97C109.768 11.8105 110.168 11.5723 110.168 11.0957C110.168 10.5957 109.79 10.3379 109.033 10.3223H107.812V11.8105Z" fill="white"/>
<defs>
<linearGradient id="paint0_linear_15_530" x1="25.9259" y1="8.25" x2="25.9259" y2="39.75" gradientUnits="userSpaceOnUse">
<stop stop-color="#FB6361"/>
<stop offset="1" stop-color="#ED3E45"/>
</linearGradient>
</defs>
</svg>
