<svg width="56" height="56" viewBox="0 0 56 56" fill="none" xmlns="http://www.w3.org/2000/svg">
<path d="M35.0747 40.2316H21.4648V15.7723H35.0747V40.2316Z" fill="#C3C0C0"/>
<path d="M22.3367 28C22.3367 23.0383 24.6598 18.6186 28.2775 15.7704C25.632 13.6876 22.2932 12.4444 18.6647 12.4444C10.0745 12.4444 3.11111 19.4088 3.11111 28C3.11111 36.5912 10.0745 43.5556 18.6647 43.5556C22.2932 43.5556 25.632 42.3124 28.2775 40.2296C24.6598 37.3814 22.3367 32.9617 22.3367 28Z" fill="#414349"/>
<path d="M53.4301 28C53.4301 36.5912 46.4667 43.5556 37.8765 43.5556C34.248 43.5556 30.9092 42.3124 28.2627 40.2296C31.8813 37.3814 34.2044 32.9617 34.2044 28C34.2044 23.0383 31.8813 18.6186 28.2627 15.7704C30.9092 13.6876 34.248 12.4444 37.8765 12.4444C46.4667 12.4444 53.4301 19.4088 53.4301 28Z" fill="#6B6D75"/>
</svg>
