<svg width="56" height="56" viewBox="0 0 56 56" fill="none" xmlns="http://www.w3.org/2000/svg">
<g clip-path="url(#clip0_15_467)">
<path d="M15.0906 20.0035V20.0105C15.0837 20.0105 12.9025 20.0035 12.3208 22.1062C11.7877 24.0343 10.2851 29.3553 10.2435 29.502H9.82804C9.82804 29.502 8.29082 24.0623 7.75072 22.0993C7.16907 19.9965 4.98096 20.0035 4.98096 20.0035H0V35.9965H4.98327V26.498H5.39873L8.30698 35.9964H11.7669L14.6751 26.505H15.0906V35.9964H20.0739V20.0035H15.0906ZM33.2949 20.0035C33.2949 20.0035 31.8338 20.1362 31.1483 21.6802L27.6192 29.502H27.2037V20.0035H22.2204V35.9965H26.9267C26.9267 35.9965 28.457 35.8568 29.1426 34.3199L32.6025 26.498H33.018V35.9965H38.0012V20.0035H33.2949ZM40.217 27.2665V35.9965H45.2002V30.8991H50.599C52.9533 30.8991 54.9453 29.3832 55.6862 27.2688H40.217V27.2665Z" fill="#666870"/>
<path d="M50.6013 20.0035H39.5176C40.0716 23.0493 42.3358 25.4921 45.2625 26.2885C45.9419 26.4741 46.6428 26.5681 47.3467 26.568H55.8891C55.9653 26.2047 55.9999 25.8345 55.9999 25.4502C56 22.4416 53.5834 20.0035 50.6013 20.0035Z" fill="#C3C0C0"/>
</g>
<defs>
<clipPath id="clip0_15_467">
<rect width="56" height="16" fill="white" transform="translate(0 20)"/>
</clipPath>
</defs>
</svg>
