<svg width="56" height="56" viewBox="0 0 56 56" fill="none" xmlns="http://www.w3.org/2000/svg">
<path d="M24.0406 36.6415H19.6149L22.3831 20.7753H26.8086L24.0406 36.6415Z" fill="#666870"/>
<path d="M40.0841 21.1633C39.2112 20.8423 37.8266 20.4879 36.1146 20.4879C31.744 20.4879 28.6662 22.6482 28.6474 25.737C28.6111 28.0158 30.8509 29.2815 32.5262 30.0414C34.2384 30.8178 34.8205 31.3246 34.8205 32.0167C34.8031 33.0796 33.4369 33.5696 32.1627 33.5696C30.3957 33.5696 29.4489 33.317 28.0101 32.7256L27.4274 32.4721L26.808 36.0337C27.8461 36.4721 29.7585 36.8611 31.744 36.8781C36.3878 36.8781 39.4111 34.7512 39.4469 31.4597C39.4646 29.6535 38.2818 28.2695 35.7319 27.1386C34.184 26.4127 33.236 25.9232 33.236 25.1804C33.2542 24.5051 34.0378 23.8135 35.7852 23.8135C37.224 23.7796 38.2811 24.1002 39.0819 24.421L39.4822 24.5895L40.0841 21.1633Z" fill="#666870"/>
<path d="M45.9663 31.0207C46.3308 30.1092 47.7333 26.5814 47.7333 26.5814C47.7149 26.6153 48.097 25.6531 48.3156 25.0624L48.6249 26.4296C48.6249 26.4296 49.463 30.2274 49.645 31.0207C48.9533 31.0207 46.8405 31.0207 45.9663 31.0207ZM51.4293 20.7753H48.006C46.9503 20.7753 46.1483 21.062 45.6928 22.0917L39.1189 36.6413H43.7627C43.7627 36.6413 44.5273 34.683 44.6916 34.2613C45.201 34.2613 49.7185 34.2613 50.3739 34.2613C50.501 34.8183 50.902 36.6413 50.902 36.6413H54.9998L51.4293 20.7753Z" fill="#666870"/>
<path d="M15.9184 20.7753L11.5841 31.5946L11.1105 29.4003C10.3091 26.8684 7.79604 24.1175 4.99155 22.7497L8.96159 36.6247H13.6417L20.5982 20.7753H15.9184Z" fill="#666870"/>
<path d="M7.55919 20.7753H0.438569L0.365723 21.0959C5.92025 22.4125 9.5989 25.5863 11.1103 29.401L9.56236 22.109C9.30751 21.0957 8.52435 20.8087 7.55919 20.7753Z" fill="#C3C0C0"/>
</svg>
