<svg xmlns="http://www.w3.org/2000/svg">
  <symbol id="vk-icon" viewBox="0 0 200 128" fill="none">
    <path fill-rule="evenodd" clip-rule="evenodd" d="M195.411 8.61771C196.802 3.65072 195.411 0 188.794 0H166.914C161.35 0 158.787 3.15335 157.396 6.63158C157.396 6.63158 146.269 35.6916 130.505 54.5682C125.406 60.0325 123.088 61.7691 120.306 61.7691C118.915 61.7691 116.902 60.0325 116.902 55.0656V8.61771C116.902 2.65599 115.288 0 110.651 0H76.2678C72.792 0 70.7009 2.76651 70.7009 5.389C70.7009 11.0409 78.5808 12.3438 79.3935 28.2395V62.7656C79.3935 70.3349 78.1182 71.7081 75.3363 71.7081C67.919 71.7081 49.8773 42.5158 39.1748 9.11507C37.0774 2.62249 34.9738 0 29.3819 0H7.50175C1.25029 0 0 3.15335 0 6.63158C0 12.8411 7.41892 43.6412 34.5393 84.3751C52.6217 112.191 78.0932 127.273 101.274 127.273C115.183 127.273 116.902 123.923 116.902 118.154V97.1292C116.902 90.4306 118.22 89.0943 122.622 89.0943C125.87 89.0943 131.432 90.8325 144.415 104.245C159.25 120.139 161.694 127.273 170.04 127.273H191.92C198.171 127.273 201.297 123.923 199.493 117.314C197.521 110.726 190.438 101.17 181.039 89.8395C175.94 83.3804 168.289 76.4256 165.973 72.949C162.727 68.4777 163.654 66.4916 165.973 62.5194C165.973 62.5194 192.629 22.2811 195.411 8.61938V8.61771Z" fill="white"/>
  </symbol>
</svg>