<svg width="181" height="40" viewBox="0 0 181 40" fill="none" xmlns="http://www.w3.org/2000/svg">
<g clip-path="url(#clip0_1891_1000)">
<path d="M128.305 19.2912L132.94 19.2455C133.952 19.2353 134.919 18.8249 135.63 18.1038C136.34 17.3827 136.736 16.4097 136.731 15.3975C136.726 14.3853 136.32 13.4162 135.603 12.7022C134.885 11.9882 133.914 11.5874 132.902 11.5873H128.305V19.2912Z" fill="#476BF0"/>
<path d="M146.174 22.3193H153.142L149.652 12.8748L146.174 22.3193Z" fill="#476BF0"/>
<path d="M17.735 11.226C18.8131 11.224 19.8777 11.4656 20.8493 11.9328C21.8209 12.4 22.6743 13.0808 23.3458 13.9242L25.7042 12.035C24.3583 10.3532 22.5149 9.1401 20.4378 8.56941C18.3606 7.99872 16.1562 8.09963 14.1399 8.85773C12.1236 9.61582 10.3988 10.9922 9.21214 12.79C8.02552 14.5879 7.43795 16.7149 7.53349 18.8669C7.62903 21.0189 8.40279 23.0855 9.74406 24.7711C11.0853 26.4567 12.9254 27.6748 15.0009 28.2512C17.0765 28.8277 19.2812 28.7328 21.2995 27.9803C23.3179 27.2278 25.0466 25.8561 26.2382 24.0616L26.4909 23.6818V17.74H18.1216V20.7624H23.4695V22.7447C22.7317 23.721 21.7568 24.4927 20.6372 24.9866C19.5176 25.4806 18.2903 25.6805 17.0719 25.5673C15.8534 25.4541 14.684 25.0316 13.6745 24.3399C12.665 23.6482 11.8489 22.7101 11.3035 21.6146C10.7581 20.5191 10.5016 19.3025 10.5581 18.0801C10.6146 16.8577 10.9824 15.6699 11.6265 14.6294C12.2707 13.589 13.1699 12.7302 14.2389 12.1346C15.3079 11.539 16.5113 11.2262 17.735 11.226Z" fill="#476BF0"/>
<path d="M112.445 18.5957C112.443 15.9542 111.392 13.4215 109.525 11.5533C107.658 9.68507 105.125 8.63398 102.484 8.63062H95.6404V28.1915H102.484C103.772 28.231 105.055 28.0125 106.257 27.5488C107.46 27.0852 108.557 26.3857 109.485 25.4916C110.414 24.5976 111.153 23.5269 111.662 22.3426C112.17 21.1583 112.436 19.8844 112.445 18.5957ZM102.484 25.169H98.6615V11.6527H102.484C104.324 11.6553 106.088 12.3877 107.389 13.6893C108.69 14.9909 109.422 16.7554 109.424 18.5957C109.415 19.4877 109.227 20.3689 108.871 21.1867C108.514 22.0045 107.997 22.7421 107.349 23.3555C106.701 23.969 105.937 24.4457 105.101 24.7573C104.265 25.0689 103.375 25.2089 102.484 25.169Z" fill="#476BF0"/>
<path d="M68.3165 15.2508C68.3149 13.496 67.6174 11.8134 66.3768 10.5722C65.1362 9.33105 63.4539 8.6327 61.6991 8.63037H53.5127V28.1611H56.5344V21.8425L60.9971 21.8669L65.5725 28.1611H69.3671L64.3367 21.3207C65.5194 20.807 66.5262 19.9587 67.2333 18.8803C67.9404 17.8019 68.3168 16.5404 68.3165 15.2508ZM64.2354 17.8013C63.8999 18.1363 63.5012 18.4014 63.0624 18.5811C62.6237 18.7608 62.1536 18.8516 61.6795 18.8482L56.5345 18.8197V11.6528H61.6991C62.4113 11.6532 63.1075 11.8649 63.6993 12.2611C64.2911 12.6574 64.752 13.2204 65.0236 13.8788C65.2952 14.5372 65.3652 15.2614 65.2249 15.9597C65.0846 16.658 64.7402 17.2989 64.2354 17.8013Z" fill="#476BF0"/>
<path d="M74.9905 35.8405H45.668V37.7662H74.9905V35.8405Z" fill="#476BF0"/>
<path d="M175.273 0.000664139H5.47836C4.0505 -0.0217287 2.67201 0.522932 1.64508 1.51525C0.618146 2.50757 0.0265585 3.86658 0 5.29437V32.4412C0.0265554 33.869 0.618142 35.228 1.64508 36.2203C2.67201 37.2126 4.0505 37.7573 5.47836 37.7349H32.6255V35.8722H5.47836C4.54435 35.895 3.63937 35.5467 2.96162 34.9037C2.28387 34.2606 1.8886 33.3751 1.86238 32.4412V5.29437C1.88861 4.36045 2.28388 3.47499 2.96163 2.83192C3.63937 2.18884 4.54435 1.84057 5.47836 1.86338H117.646V35.8722H87.1672V37.735H175.273C176.701 37.7573 178.08 37.2127 179.107 36.2203C180.134 35.228 180.725 33.869 180.752 32.4412V5.29437C180.725 3.86658 180.134 2.50757 179.107 1.51525C178.08 0.522933 176.701 -0.0217287 175.273 0.000664139ZM157.988 8.62169L161.526 8.60712L166.461 17.8153L171.47 8.60508L175.03 8.60712L167.951 21.0434V28.1465H164.954V21.039L157.988 8.62169ZM158.376 28.1466H155.162L154.149 25.4044H144.969L143.959 28.1466H140.724L147.412 10.0988C147.57 9.65988 147.861 9.28078 148.244 9.01366C148.626 8.74654 149.082 8.60451 149.549 8.60711H149.551C150.017 8.60415 150.473 8.74578 150.856 9.01253C151.239 9.27929 151.53 9.65807 151.688 10.0968L158.376 28.1466ZM139.674 15.5047C139.673 17.0948 139.119 18.635 138.105 19.8603C137.984 20.009 137.852 20.151 137.717 20.2906C137.703 20.3055 137.691 20.3217 137.676 20.3363C137.66 20.3529 137.646 20.3712 137.629 20.3875C136.992 21.027 136.235 21.534 135.4 21.8791C134.566 22.2243 133.672 22.4007 132.769 22.3982H132.755L131.053 22.3948L128.203 22.4226V28.1466H125.16V8.63221L125.161 8.62169L130.464 8.63219H132.801C134.623 8.63426 136.37 9.359 137.658 10.6474C138.947 11.9358 139.672 13.6827 139.674 15.5047Z" fill="#476BF0"/>
<path d="M79.959 31.1364C80.1014 31.2964 80.2761 31.4245 80.4715 31.5122C80.6669 31.5999 80.8787 31.6453 81.093 31.6453C81.3072 31.6453 81.519 31.5999 81.7144 31.5122C81.9098 31.4245 82.0845 31.2964 82.2269 31.1364L83.203 30.0387C84.636 28.4127 85.9855 26.7151 87.2466 24.9524C90.1636 20.859 91.6425 17.5811 91.6425 15.2099C91.6425 12.4121 90.531 9.72888 88.5527 7.75054C86.5743 5.77219 83.8911 4.66077 81.0933 4.66077C78.2955 4.66077 75.6123 5.77219 73.634 7.75054C71.6556 9.72888 70.5442 12.4121 70.5442 15.2099C70.5442 17.531 71.9624 20.7228 74.7588 24.6969C76.0723 26.5503 77.4823 28.3333 78.9829 30.0387L79.959 31.1364ZM73.5791 15.2099C73.5816 13.2186 74.3744 11.3098 75.7833 9.90267C77.1922 8.49554 79.1021 7.70517 81.0933 7.70517C83.0845 7.70517 84.9944 8.49554 86.4033 9.90267C87.8122 11.3098 88.605 13.2186 88.6075 15.2099C88.6075 16.1819 88.1098 18.5115 84.775 23.1913C83.2159 25.3796 81.6516 27.2053 81.0929 27.8429C79.7276 26.2778 78.4419 24.6449 77.2408 22.9504C74.0548 18.423 73.5791 16.1575 73.5791 15.2099Z" fill="#476BF0"/>
<path d="M81.0939 34.3003C80.5675 34.3003 80.053 34.4564 79.6153 34.7489C79.1777 35.0413 78.8366 35.457 78.6352 35.9433C78.4338 36.4296 78.3811 36.9647 78.4838 37.4809C78.5865 37.9972 78.8399 38.4714 79.2121 38.8436C79.5843 39.2158 80.0585 39.4693 80.5748 39.572C81.091 39.6747 81.6261 39.622 82.1124 39.4205C82.5987 39.2191 83.0144 38.878 83.3069 38.4404C83.5993 38.0028 83.7554 37.4882 83.7555 36.9619C83.7555 36.6123 83.6866 36.2662 83.5529 35.9433C83.4191 35.6204 83.2231 35.3269 82.9759 35.0798C82.7288 34.8326 82.4354 34.6366 82.1124 34.5028C81.7895 34.3691 81.4434 34.3002 81.0939 34.3003Z" fill="#476BF0"/>
<path d="M39.3154 4.66138C36.5187 4.6644 33.8373 5.77671 31.8597 7.75427C29.8821 9.73182 28.7697 12.4131 28.7666 15.2098C28.7666 17.5309 30.1845 20.7231 32.9812 24.6968C34.2947 26.5502 35.7046 28.3332 37.205 30.0387L38.1814 31.1363C38.3238 31.2964 38.4985 31.4245 38.6939 31.5122C38.8894 31.5999 39.1012 31.6452 39.3154 31.6452C39.5296 31.6452 39.7414 31.5999 39.9368 31.5122C40.1323 31.4245 40.3069 31.2964 40.4493 31.1363L41.4254 30.0387C42.8583 28.4126 44.2079 26.7149 45.469 24.9523C48.3857 20.859 49.8649 17.5811 49.8649 15.2098C49.8616 12.413 48.7491 9.73175 46.7714 7.75421C44.7936 5.77667 42.1122 4.66438 39.3154 4.66138ZM42.9975 23.1912C41.438 25.3795 39.8738 27.2056 39.3155 27.8429C37.95 26.2778 36.6643 24.6449 35.4633 22.9503C32.2769 18.4233 31.8016 16.1574 31.8016 15.2098C31.8016 13.2169 32.5933 11.3057 34.0025 9.89648C35.4116 8.4873 37.3229 7.69563 39.3158 7.69563C41.3087 7.69563 43.2199 8.4873 44.6291 9.89648C46.0383 11.3057 46.83 13.2169 46.83 15.2098C46.83 16.1822 46.332 18.5114 42.9975 23.1912Z" fill="#476BF0"/>
<path d="M39.3155 34.3003C38.7891 34.3003 38.2746 34.4564 37.837 34.7489C37.3993 35.0414 37.0582 35.457 36.8568 35.9433C36.6554 36.4296 36.6027 36.9647 36.7055 37.481C36.8082 37.9972 37.0616 38.4714 37.4338 38.8436C37.8061 39.2158 38.2803 39.4693 38.7965 39.572C39.3128 39.6747 39.8479 39.622 40.3342 39.4205C40.8205 39.2191 41.2361 38.878 41.5286 38.4403C41.821 38.0027 41.9771 37.4882 41.9771 36.9618C41.9771 36.6123 41.9083 36.2662 41.7745 35.9432C41.6408 35.6203 41.4447 35.3269 41.1976 35.0798C40.9504 34.8326 40.657 34.6366 40.3341 34.5028C40.0111 34.3691 39.665 34.3002 39.3155 34.3003Z" fill="#476BF0"/>
</g>
<defs>
<clipPath id="clip0_1891_1000">
<rect width="181" height="40" fill="white"/>
</clipPath>
</defs>
</svg>
