<svg width="20" height="20" viewBox="0 0 20 20" fill="none" xmlns="http://www.w3.org/2000/svg">
<path d="M10.3286 7.60988C10.0714 7.60988 9.86786 7.54074 9.71786 7.40247C9.56786 7.2642 9.49286 7.08642 9.49286 6.86914C9.49286 6.61893 9.57857 6.41152 9.75 6.24691C9.92143 6.0823 10.15 6 10.4357 6C10.7214 6 10.9393 6.07243 11.0893 6.21728C11.2393 6.35556 11.3143 6.53004 11.3143 6.74074C11.3143 7.00412 11.2286 7.21482 11.0571 7.37284C10.8857 7.53086 10.6464 7.60988 10.3393 7.60988H10.3286ZM9.76071 9.44691L9 9.25926V8.59753L10.9607 8.38025H10.9821L11.2821 8.57778V13.3284L12 13.4074V14H9.01071V13.4074L9.76071 13.3185V9.44691Z" fill="#259DD6"/>
<circle cx="10" cy="10" r="9.5" stroke="#259DD6"/>
</svg>
