<svg xmlns="http://www.w3.org/2000/svg">
  <symbol id="password-icon" width="24" height="24" viewBox="0 0 24 24" fill="none">
    <path d="M14.5299 9.46992L9.46992 14.5299C8.81992 13.8799 8.41992 12.9899 8.41992 11.9999C8.41992 10.0199 10.0199 8.41992 11.9999 8.41992C12.9899 8.41992 13.8799 8.81992 14.5299 9.46992Z" stroke="#CDD1D9" stroke-width="1.5" stroke-linecap="round" stroke-linejoin="round"/>
    <path d="M17.8201 5.76998C16.0701 4.44998 14.0701 3.72998 12.0001 3.72998C8.47009 3.72998 5.18009 5.80998 2.89009 9.40998C1.99009 10.82 1.99009 13.19 2.89009 14.6C3.68009 15.84 4.60009 16.91 5.60009 17.77" stroke="#CDD1D9" stroke-width="1.5" stroke-linecap="round" stroke-linejoin="round"/>
    <path d="M8.41992 19.5302C9.55992 20.0102 10.7699 20.2702 11.9999 20.2702C15.5299 20.2702 18.8199 18.1902 21.1099 14.5902C22.0099 13.1802 22.0099 10.8102 21.1099 9.40018C20.7799 8.88018 20.4199 8.39018 20.0499 7.93018" stroke="#CDD1D9" stroke-width="1.5" stroke-linecap="round" stroke-linejoin="round"/>
    <path d="M15.5099 12.7C15.2499 14.11 14.0999 15.26 12.6899 15.52" stroke="#CDD1D9" stroke-width="1.5" stroke-linecap="round" stroke-linejoin="round"/>
    <path d="M9.47 14.53L2 22" stroke="#CDD1D9" stroke-width="1.5" stroke-linecap="round" stroke-linejoin="round"/>
    <path d="M22 2L14.53 9.47" stroke="#CDD1D9" stroke-width="1.5" stroke-linecap="round" stroke-linejoin="round"/>
  </symbol>
  <symbol id="user-icon" width="24" height="18" viewBox="0 0 24 18" fill="none">
    <path d="M21.4572 14.166C18.8844 13.431 16.35 12.5 15.2088 11.776C14.4204 11.275 14.2848 10.158 14.5884 9.361C15.93 8.458 16.8252 6.884 16.8252 5.083C16.8252 2.276 14.6652 0 12 0C9.3348 0 7.1748 2.276 7.1748 5.083C7.1748 6.884 8.07 8.457 9.4104 9.36C9.714 10.158 9.5796 11.275 8.79 11.776C7.65 12.5 5.1144 13.43 2.5416 14.166C-0.0311975 14.902 2.54236e-06 18 2.54236e-06 18H24C24 18 24.03 14.901 21.4572 14.166Z" fill="#C5C5C5"/>
  </symbol>
</svg>