<svg width="24" height="24" viewBox="0 0 24 24" fill="none" xmlns="http://www.w3.org/2000/svg">
<path d="M22.8029 20.715H6.75419C6.09274 20.715 5.55664 20.1789 5.55664 19.5175C5.55664 18.856 6.09274 18.3199 6.75419 18.3199H22.8025C23.4639 18.3199 24 18.856 24 19.5175C24 20.1789 23.4643 20.715 22.8029 20.715Z" fill="white"/>
<path d="M22.8029 13.1974H6.75419C6.09274 13.1974 5.55664 12.6613 5.55664 11.9999C5.55664 11.3384 6.09274 10.8023 6.75419 10.8023H22.8025C23.4639 10.8023 24 11.3384 24 11.9999C24.0004 12.6613 23.4643 13.1974 22.8029 13.1974Z" fill="white"/>
<path d="M22.8029 5.68077H6.75419C6.09274 5.68077 5.55664 5.14466 5.55664 4.48322C5.55664 3.82178 6.09274 3.28568 6.75419 3.28568H22.8025C23.4639 3.28568 24 3.82178 24 4.48322C24 5.14466 23.4643 5.68077 22.8029 5.68077Z" fill="white"/>
<path d="M1.6083 6.18414C2.49654 6.18414 3.21661 5.46407 3.21661 4.57583C3.21661 3.68759 2.49654 2.96753 1.6083 2.96753C0.720062 2.96753 0 3.68759 0 4.57583C0 5.46407 0.720062 6.18414 1.6083 6.18414Z" fill="white"/>
<path d="M1.6083 13.6088C2.49654 13.6088 3.21661 12.8887 3.21661 12.0005C3.21661 11.1122 2.49654 10.3922 1.6083 10.3922C0.720062 10.3922 0 11.1122 0 12.0005C0 12.8887 0.720062 13.6088 1.6083 13.6088Z" fill="white"/>
<path d="M1.6083 21.0326C2.49654 21.0326 3.21661 20.3126 3.21661 19.4243C3.21661 18.5361 2.49654 17.816 1.6083 17.816C0.720062 17.816 0 18.5361 0 19.4243C0 20.3126 0.720062 21.0326 1.6083 21.0326Z" fill="white"/>
</svg>
