<svg width="156" height="16" viewBox="0 0 156 16" fill="none" xmlns="http://www.w3.org/2000/svg">
<path d="M107.378 4.6109V8.84736H102.342V4.6109H99.7827V15.7439H102.342V11.3104H107.378V15.7439H109.937V4.6109H107.378Z" fill="white"/>
<path d="M121.074 4.6109H117.553H114.994H111.473V6.89661H114.994V15.7439H117.553V6.89661H121.074V4.6109Z" fill="white"/>
<path d="M131.576 6.89661V4.6109H125.23H122.691V6.89661V9.0247V11.3301V13.4385V15.7439H125.23H131.576V13.4385H125.23V11.3301H131.576V9.0247H125.23V6.89661H131.576Z" fill="white"/>
<path d="M144.126 4.6109H141.055L137.636 9.0247H136.551V4.6109H133.992V15.7439H136.551V11.3301H137.636L141.055 15.7439H144.126L139.806 10.1676L144.126 4.6109Z" fill="white"/>
<path d="M94.6031 4.6109L89.4236 11.9213V4.6109H86.8645V15.7439H89.4236L94.6031 8.43357V15.7439H97.1621V4.6109H94.6031Z" fill="white"/>
<path d="M149.879 4.21686C146.501 4.21686 143.757 6.85725 143.757 10.1085C143.757 13.3597 146.501 16.0001 149.879 16.0001C153.257 16.0001 156 13.3597 156 10.1085C156.02 6.87696 153.277 4.21686 149.879 4.21686ZM149.879 13.5765C147.893 13.5765 146.296 12.0395 146.296 10.1282C146.296 8.21686 147.893 6.67992 149.879 6.67992C151.864 6.67992 153.461 8.21686 153.461 10.1282C153.482 12.0395 151.864 13.5765 149.879 13.5765Z" fill="white"/>
<path d="M60.4346 15.7438L64.8976 10.5812L60.5983 4.65014H62.9322C64.0787 4.65014 63.9149 5.10334 65.9007 7.84226L66.5763 8.78808L69.2787 4.78807C69.3605 4.66984 69.5039 4.63043 69.6267 4.63043H71.0188L66.9653 9.3201L71.6535 15.7438H69.4629C68.0094 15.7635 68.2755 15.192 66.3511 12.5713L65.2865 11.1132L62.1952 15.5664C62.1133 15.6846 61.9905 15.724 61.8267 15.724H60.4346V15.7438Z" fill="white"/>
<path d="M55.7464 15.9604C54.17 15.9604 52.5322 15.5269 51.5086 14.3053C50.5464 13.1624 50.1983 11.7437 50.1574 10.3053C50.1369 8.51215 50.6078 7.07372 51.5904 5.98997C52.5731 4.90623 53.9243 4.37421 55.644 4.37421C56.4629 4.37421 57.1999 4.49243 57.8345 4.72888C58.4692 4.96534 58.9605 5.28061 59.3495 5.69441C59.7385 6.1082 60.0251 6.58111 60.2093 7.11313C60.3936 7.64515 60.496 8.23628 60.5164 8.86682C60.5164 9.2018 60.496 9.51707 60.4345 9.79293C60.4345 9.83234 60.3936 9.85204 60.3731 9.85204H53.1668C53.2078 11.6452 53.4944 12.9259 54.0267 13.7338C54.559 14.5417 55.4393 14.9358 56.6881 14.9358C57.9778 14.9358 58.981 14.5811 59.9637 13.8521C60.1274 13.99 60.3117 14.3644 59.9637 14.6599C59.0629 15.4481 57.3023 15.9604 55.7464 15.9604ZM53.1464 9.32003L57.8141 8.98505C57.8345 7.48751 57.7731 5.02445 55.7054 5.02445C53.5353 5.02445 53.2078 7.72397 53.1464 9.32003Z" fill="white"/>
<path d="M48.3559 14.463V7.96055C48.3559 5.73395 47.4756 4.39404 45.2031 4.39404C43.6063 4.39404 42.0913 5.1231 41.0063 6.20685C41.0063 5.33985 40.863 4.63049 39.9827 4.63049H38.1401L38.2425 5.89158V14.4433L38.1401 15.7241H41.1291L41.0267 14.4433V6.79798C41.8866 6.16744 42.685 5.85217 43.8315 5.85217C45.285 5.85217 45.5716 7.15267 45.5716 8.59109V14.2266C45.5716 15.1724 45.7968 15.7241 46.6157 15.7241H48.4582L48.3559 14.463Z" fill="white"/>
<path d="M35.2536 1.41866C35.2536 2.20684 34.578 2.83739 33.7591 2.83739C32.9402 2.83739 32.2646 2.20684 32.2646 1.41866C32.2646 0.630484 32.9402 -6.10352e-05 33.7591 -6.10352e-05C34.578 -6.10352e-05 35.2536 0.630484 35.2536 1.41866Z" fill="white"/>
<path d="M32.3667 4.63042L32.4691 5.89151V14.4432L32.3667 15.724H35.3557L35.2533 14.4432V6.10825C35.2533 5.26096 35.0895 4.61072 34.2092 4.61072H32.3667V4.63042Z" fill="white"/>
<path d="M29.5416 14.463V7.96055C29.5416 5.71424 28.6613 4.39404 26.3889 4.39404C24.485 4.39404 23.1952 5.32015 22.1716 6.36449C21.8031 5.12311 20.9023 4.39404 19.1826 4.39404C17.5653 4.39404 16.255 5.12311 15.1905 6.22656V6.20685C15.1905 5.33985 15.0472 4.63049 14.1669 4.63049H12.3243L12.4267 5.89158V14.4433L12.3243 15.7241H15.3133L15.211 14.4433V6.79798C16.0503 6.12803 17.0535 5.85217 17.8519 5.85217C19.4283 5.85217 19.592 7.40882 19.592 8.59109V14.4433L19.4897 15.7241H22.4787L22.3763 14.4433V6.79798C23.0928 6.20685 24.096 5.85217 25.0377 5.85217C26.6755 5.85217 26.7779 7.56646 26.7779 8.59109V14.2266C26.7779 15.2906 27.085 15.7241 27.822 15.7241H29.6645L29.5416 14.463Z" fill="white"/>
<path d="M4.77011 15.9606C3.39846 15.9606 1.37169 15.5862 0.143347 14.9163C0.368544 14.4237 0.798464 14.0493 1.41264 14.3646C2.51815 14.9163 3.62366 15.1724 4.852 15.1724C6.61263 15.1724 7.90239 14.2266 7.8205 12.5123C7.63625 8.92612 -0.0204314 8.3941 4.09808e-05 4.07883C0.0205134 0.906408 2.98901 0 5.83468 0C7.20633 0 8.55751 0.256163 9.88822 0.768479C9.66302 1.28079 9.27404 1.71429 8.59845 1.39902C7.65672 0.96552 6.71499 0.768479 5.71184 0.768479C3.97169 0.768479 2.98901 1.67488 2.98901 3.01479C2.96854 6.44336 10.7481 6.95568 10.8914 11.4089C10.9733 14.6601 8.14806 15.9606 4.77011 15.9606Z" fill="white"/>
<path d="M81.644 9.85223H74.9905V10.4237H81.644V9.85223Z" fill="white"/>
</svg>
