<svg width="140" height="72" viewBox="0 0 140 72" fill="none" xmlns="http://www.w3.org/2000/svg">
<path d="M38.6126 10.2909L87.5749 10.6302C87.5749 10.6302 91.3384 10.7433 91.3384 12.2888C91.3384 13.8344 88.9674 15.6815 88.9674 15.6815C88.9674 15.6815 90.2093 12.0249 85.4674 11.648C82.4566 11.3464 38.6126 10.2909 38.6126 10.2909Z" fill="white"/>
<path d="M23.3329 0L91.7523 0.339268C91.7523 0.339268 95.1394 0.452357 95.1394 1.99791C95.1394 3.54346 92.9942 5.39059 92.9942 5.39059C92.9942 5.39059 94.3114 1.77173 90.0211 1.39477C87.3114 1.13089 23.3329 0 23.3329 0Z" fill="white"/>
<path d="M52.5003 20.4316L82.8713 20.7709C82.8713 20.7709 86.3713 20.884 86.3713 22.4295C86.3713 23.9751 84.1509 25.8599 84.1509 25.8599C84.1509 25.8599 85.581 22.2034 81.1777 21.7887C78.3928 21.4871 52.5003 20.4316 52.5003 20.4316Z" fill="white"/>
<path d="M111.941 29.5514V31.6054C111.941 32.5977 112.747 33.4027 113.741 33.4027H123.122V57.1111H127.502V36.4769C127.109 34.6934 125.993 33.4027 124.676 33.4027H127.502H127.654H138.481C139.319 33.4027 140 32.7227 140 31.8865V29.5514H111.941Z" fill="white"/>
<path d="M0 29.5514V31.3972C0 32.5041 0.900198 33.4027 2.00893 33.4027H12.4568V57.1111H16.8361V36.4769C16.4434 34.6934 15.3277 33.4027 14.0104 33.4027H16.8361H16.9891H27.8158C28.6534 33.4027 29.3346 32.7227 29.3346 31.8865V29.5514H0Z" fill="white"/>
<path d="M98.2538 57.288C96.3421 57.3296 94.5209 57.2498 92.7865 57.0486C91.0522 56.8508 89.5124 56.4691 88.1674 55.9105C86.8188 55.3519 85.7553 54.5296 84.9732 53.447C84.1912 52.3645 83.7811 50.9628 83.7463 49.2383C83.7428 49.1099 83.7463 48.992 83.7602 48.8844C83.7706 48.7803 83.7776 48.7005 83.7741 48.6485C83.7741 48.6485 87.5174 49.4604 87.5244 49.6963C87.5452 50.6366 88.435 51.3479 89.2483 51.9863C90.0616 52.6247 91.2225 53.0827 92.7344 53.3638C94.2463 53.6448 96.0363 53.7663 98.1043 53.7212C99.0462 53.7003 99.9742 53.6379 100.888 53.5268C101.802 53.4158 102.664 53.2527 103.471 53.0411C104.277 52.8294 104.993 52.5519 105.615 52.2118C106.237 51.8718 106.72 51.4624 107.061 50.9836C107.405 50.5048 107.569 49.9531 107.558 49.3251C107.541 48.4368 107.204 47.7325 106.55 47.2086C105.897 46.6881 105.024 46.2717 103.93 45.9699C102.835 45.6645 101.601 45.4182 100.221 45.2239C98.8411 45.0296 97.43 44.8388 95.9841 44.6445C94.5383 44.4536 93.1341 44.1934 91.7647 43.8707C90.3953 43.5446 89.1545 43.1143 88.0457 42.5765C86.9335 42.0387 86.0472 41.3309 85.3868 40.4565C84.7265 39.5822 84.3824 38.4649 84.3546 37.1048C84.3302 36.0327 84.5735 35.0404 85.0775 34.1278C85.5815 33.2153 86.3704 32.4138 87.4444 31.7233C88.5149 31.0329 89.8948 30.4881 91.5735 30.0891C93.2557 29.6866 95.2716 29.4611 97.6281 29.4125C100.037 29.3605 102.063 29.5305 103.707 29.9122C105.351 30.2973 106.672 30.8247 107.669 31.4943C108.667 32.1675 109.397 32.9412 109.859 33.8225C110.321 34.7003 110.565 35.599 110.582 36.5115L110.599 37.2575L107.103 37.3304C106.714 37.3373 106.39 37.0285 106.38 36.6399C106.366 35.9355 106.025 35.3075 105.358 34.7593C104.691 34.2111 103.738 33.767 102.501 33.427C101.264 33.0869 99.7796 32.9343 98.0522 32.9724C95.932 33.0175 94.1872 33.2049 92.8178 33.5345C91.4484 33.8641 90.4231 34.3117 89.7418 34.8738C89.0606 35.4359 88.727 36.0986 88.7409 36.855C88.7582 37.6149 89.0919 38.2255 89.7418 38.6974C90.3918 39.1693 91.2711 39.5336 92.3764 39.7973C93.4817 40.061 94.719 40.29 96.0849 40.4843C97.4509 40.6786 98.855 40.8764 100.301 41.0811C101.747 41.2858 103.158 41.546 104.541 41.8548C105.921 42.1671 107.162 42.6043 108.26 43.1698C109.359 43.7354 110.238 44.4606 110.898 45.3488C111.559 46.237 111.903 47.3473 111.931 48.6797C111.972 50.7199 111.427 52.3645 110.287 53.6171C109.146 54.8696 107.537 55.7787 105.452 56.3477C103.377 56.9202 100.975 57.2325 98.2538 57.288Z" fill="white"/>
<path d="M35.869 57.059L26.2449 29.5514H28.7439C30.0542 29.5514 31.2186 30.3876 31.6391 31.6262L37.3149 48.4091C37.4226 48.7283 37.5547 49.1482 37.7146 49.6721C37.8745 50.1925 38.0413 50.7338 38.2151 51.2924C38.3889 51.8545 38.5279 52.3472 38.6356 52.774H38.9554C39.0353 52.4548 39.1292 52.1009 39.2369 51.7122C39.3447 51.3271 39.4524 50.9316 39.5567 50.5326C39.6644 50.1335 39.7756 49.7449 39.8973 49.3702C40.0189 48.9955 40.1163 48.6763 40.1962 48.4091L45.931 29.5514H50.5954C51.4226 29.5514 52.1525 30.0892 52.3958 30.8803L57.7657 48.4091C57.8734 48.7283 57.9986 49.1482 58.148 49.6721C58.294 50.1925 58.4469 50.7338 58.6103 51.2924C58.7702 51.8545 58.8918 52.3472 58.9717 52.774H59.2915C59.3993 52.4548 59.507 52.0939 59.6113 51.6914C59.719 51.2924 59.8441 50.8899 59.9936 50.4909C60.1396 50.0919 60.2682 49.7102 60.3759 49.3494C60.4837 48.9885 60.5914 48.6763 60.6957 48.4091L66.295 31.7477C66.7364 30.4361 67.9668 29.5514 69.3536 29.5514H71.3243L61.6584 57.059H56.0835L50.147 38.0417C50.0393 37.7225 49.9142 37.3096 49.7647 36.7995C49.6187 36.293 49.4693 35.7656 49.3233 35.2174C49.1773 34.6691 49.0487 34.1834 48.941 33.7566H48.6594C48.5517 34.1834 48.4266 34.6726 48.2771 35.2174C48.1311 35.7656 47.9817 36.293 47.8357 36.7995C47.6897 37.3061 47.5611 37.719 47.4534 38.0417L41.5969 57.059H35.869Z" fill="white"/>
<path d="M75.3319 57.059V29.5514H77.6919C78.7798 29.5514 79.6626 30.4327 79.6626 31.5187V57.0556H75.3319V57.059Z" fill="white"/>
<path d="M41.7364 71.9999V71.3214H39.6665V71.9999H39.1396V70.7936H39.4783C39.5536 70.6806 39.6289 70.6052 39.6289 70.4544C39.6665 70.3413 39.6665 70.1905 39.6665 70.0397L39.8923 66.2701H41.9246V70.8313H42.3009V71.9999H41.7364ZM40.231 70.0774C40.231 70.2659 40.1934 70.4167 40.1558 70.5298C40.1181 70.6429 40.0805 70.756 39.9676 70.8313H41.2848V66.7601H40.3816L40.231 70.0774Z" fill="white"/>
<path d="M46.7422 68.4942V68.9842H45.5002V70.7936H47.0056V71.3214H44.9357V66.2701H47.0056V66.7978H45.5002V68.5319H46.7422V68.4942Z" fill="white"/>
<path d="M50.7696 66.7602L50.6567 70.0398C50.6567 70.2282 50.6191 70.4167 50.5814 70.5675C50.5438 70.7183 50.5062 70.8691 50.4309 70.9445C50.3556 71.0576 50.2427 71.133 50.1298 71.2083C50.0169 71.2837 49.8287 71.2837 49.6406 71.2837H49.5653V70.756C49.6782 70.756 49.7911 70.756 49.8287 70.7183C49.8664 70.6806 49.9416 70.6429 50.0169 70.5675C50.0545 70.4921 50.0922 70.4167 50.0922 70.3413C50.0922 70.2659 50.1298 70.1528 50.1298 70.0398L50.2804 66.2324H52.3502V71.2837H51.7857V66.7602H50.7696Z" fill="white"/>
<path d="M54.9826 67.4761C54.9826 67.0991 55.0956 66.7598 55.2837 66.5337C55.4719 66.3075 55.773 66.1944 56.1493 66.1944C56.5257 66.1944 56.8267 66.3075 57.0149 66.5337C57.2031 66.7598 57.316 67.0991 57.316 67.4761V70.0771C57.316 70.4541 57.2031 70.7557 57.0149 70.9818C56.8267 71.208 56.5257 71.3211 56.1493 71.3211C55.773 71.3211 55.4719 71.208 55.2837 70.9818C55.0956 70.7557 54.9826 70.4541 54.9826 70.0771V67.4761ZM55.5472 70.1148C55.5472 70.341 55.5848 70.5295 55.6977 70.6426C55.8106 70.7557 55.9611 70.8311 56.1493 70.8311C56.3375 70.8311 56.5257 70.7557 56.6009 70.6426C56.6762 70.5295 56.7515 70.341 56.7515 70.1148V67.4384C56.7515 67.2122 56.7138 67.0237 56.6009 66.9106C56.488 66.7975 56.3751 66.7221 56.1493 66.7221C55.9611 66.7221 55.8106 66.7975 55.6977 66.9106C55.5848 67.0237 55.5472 67.2122 55.5472 67.4384V70.1148Z" fill="white"/>
<path d="M61.1177 66.2701C61.4941 66.2701 61.7952 66.3455 61.9457 66.534C62.0962 66.7224 62.2091 66.9863 62.2091 67.3633V67.5895C62.2091 67.8533 62.1715 68.0795 62.0962 68.2303C62.021 68.3811 61.8704 68.5319 61.6446 68.5696C61.9081 68.645 62.0586 68.758 62.1715 68.9465C62.2844 69.135 62.322 69.3612 62.322 69.6628V70.1151C62.322 70.4921 62.2468 70.7936 62.0586 70.9821C61.8704 71.1706 61.5694 71.2837 61.193 71.2837H60.0263V66.2701H61.1177ZM61.0048 68.3811C61.2306 68.3811 61.3812 68.3434 61.4941 68.2303C61.607 68.1549 61.6823 67.9664 61.6823 67.7025V67.4387C61.6823 67.2125 61.6446 67.0617 61.5694 66.9486C61.4941 66.8355 61.3435 66.7978 61.1554 66.7978H60.5909V68.4188H61.0048V68.3811ZM61.1554 70.7936C61.5694 70.7936 61.7575 70.5675 61.7575 70.1151V69.6628C61.7575 69.3612 61.6823 69.1727 61.607 69.0596C61.4941 68.9465 61.3059 68.9088 61.0801 68.9088H60.5909V70.7936H61.1554Z" fill="white"/>
<path d="M64.9556 67.4761C64.9556 67.0991 65.0685 66.7598 65.2567 66.5337C65.4448 66.3075 65.7459 66.1944 66.1222 66.1944C66.4986 66.1944 66.7997 66.3075 66.9878 66.5337C67.176 66.7598 67.2513 67.0991 67.2513 67.4761V70.0771C67.2513 70.4541 67.1384 70.7557 66.9502 70.9818C66.762 71.208 66.461 71.3211 66.0846 71.3211C65.7083 71.3211 65.4072 71.208 65.219 70.9818C65.0308 70.7557 64.9179 70.4541 64.9179 70.0771V67.4761H64.9556ZM65.4825 70.1148C65.4825 70.341 65.5201 70.5295 65.633 70.6426C65.7459 70.7557 65.8964 70.8311 66.0846 70.8311C66.2728 70.8311 66.461 70.7557 66.5362 70.6426C66.6115 70.5295 66.6868 70.341 66.6868 70.1148V67.4384C66.6868 67.2122 66.6491 67.0237 66.5362 66.9106C66.4233 66.7975 66.3104 66.7221 66.0846 66.7221C65.8964 66.7221 65.7459 66.7975 65.633 66.9106C65.5201 67.0237 65.4825 67.2122 65.4825 67.4384V70.1148Z" fill="white"/>
<path d="M71.2788 68.909L70.5261 71.2838H69.9616V66.2702H70.4509V70.0399L70.9401 68.5697L71.7304 66.2702H72.3702V71.3215H71.881V67.288L71.2788 68.909ZM71.9563 65.2147C71.9563 65.4409 71.881 65.5917 71.7681 65.7425C71.6175 65.8556 71.4294 65.931 71.2036 65.931C70.9401 65.931 70.752 65.8556 70.6391 65.7425C70.4509 65.5917 70.4132 65.4409 70.3756 65.2147H70.752C70.752 65.3655 70.7896 65.4409 70.8649 65.5163C70.9401 65.554 71.053 65.5917 71.1659 65.5917C71.2788 65.5917 71.3917 65.554 71.467 65.5163C71.5423 65.4786 71.5799 65.3655 71.6175 65.2147H71.9563Z" fill="white"/>
<path d="M80.5756 71.9622V71.2837H78.3928V66.2701H78.9573V70.7936H80.1993V66.2701H80.7638V70.8313H81.1401V71.9999H80.5756V71.9622Z" fill="white"/>
<path d="M85.5803 68.4942V68.9842H84.3384V70.7936H85.8437V71.3214H83.7738V66.2701H85.8437V66.7978H84.3384V68.5319H85.5803V68.4942Z" fill="white"/>
<path d="M89.0808 69.0219V71.2837H88.5163V66.2701H89.0808V68.5319H90.3227V66.2701H90.8872V71.3214H90.3227V69.0596H89.0808V69.0219Z" fill="white"/>
<path d="M94.3855 71.2837V66.7601H93.4447V66.2701H95.8533V66.7978H94.9124V71.3214H94.3855V71.2837Z" fill="white"/>
<path d="M99.5794 66.2701C99.9934 66.2701 100.257 66.3832 100.445 66.6093C100.633 66.8355 100.708 67.1371 100.708 67.5141V68.1172C100.708 68.5319 100.596 68.8334 100.407 69.0219C100.219 69.2104 99.9181 69.3235 99.5041 69.3235H99.0149V71.3214H98.4503V66.2701H99.5794ZM99.5041 68.7957C99.7299 68.7957 99.8805 68.758 99.9557 68.645C100.031 68.5319 100.106 68.3811 100.106 68.1172V67.4764C100.106 67.2502 100.069 67.0617 99.9557 66.9486C99.8805 66.8355 99.7299 66.7601 99.5041 66.7601H98.9772V68.7957H99.5041Z" fill="white"/>
</svg>
