<svg width="24" height="24" viewBox="0 0 24 24" fill="none" xmlns="http://www.w3.org/2000/svg">
<path d="M1.5 3.3C1.5 2.30589 2.30589 1.5 3.3 1.5H8.7C9.69411 1.5 10.5 2.30589 10.5 3.3V8.7C10.5 9.69411 9.69411 10.5 8.7 10.5H3.3C2.30589 10.5 1.5 9.69411 1.5 8.7V3.3Z" fill="white"/>
<path d="M1.5 15.3C1.5 14.3059 2.30589 13.5 3.3 13.5H8.7C9.69411 13.5 10.5 14.3059 10.5 15.3V20.7C10.5 21.694 9.69411 22.5 8.7 22.5H3.3C2.30589 22.5 1.5 21.694 1.5 20.7V15.3Z" fill="white"/>
<path d="M13.5 3.3C13.5 2.30589 14.3059 1.5 15.3 1.5H20.7C21.694 1.5 22.5 2.30589 22.5 3.3V8.7C22.5 9.69411 21.694 10.5 20.7 10.5H15.3C14.3059 10.5 13.5 9.69411 13.5 8.7V3.3Z" fill="white"/>
<path d="M13.5 15.3C13.5 14.3059 14.3059 13.5 15.3 13.5H20.7C21.694 13.5 22.5 14.3059 22.5 15.3V20.7C22.5 21.694 21.694 22.5 20.7 22.5H15.3C14.3059 22.5 13.5 21.694 13.5 20.7V15.3Z" fill="white"/>
</svg>
