<svg width="135" height="36" viewBox="0 0 135 36" fill="none" xmlns="http://www.w3.org/2000/svg">
<g clip-path="url(#clip0_296_209)">
<path d="M20 35L0.947441 2L39.0526 2L20 35Z" fill="#26AA9A"/>
<path fill-rule="evenodd" clip-rule="evenodd" d="M3.10508 20.2408C3.04956 20.4515 3.08001 20.6756 3.18974 20.8639L5.67213 25.1226C5.78185 25.3109 5.96187 25.4478 6.17257 25.5034C6.38327 25.5589 6.6074 25.5284 6.79564 25.4187L12.5847 22.0443L14.2396 24.8835C14.383 25.1295 14.6435 25.2837 14.9282 25.291C15.2128 25.2984 15.481 25.1578 15.6369 24.9196L23.6837 12.6216C23.854 12.3612 23.8627 12.0269 23.706 11.758C23.5493 11.4892 23.2541 11.3319 22.9436 11.3519L8.27708 12.2932C7.99292 12.3115 7.73848 12.4755 7.6046 12.7268C7.47073 12.9781 7.47652 13.2808 7.61992 13.5268L9.27487 16.366L3.4858 19.7404C3.29755 19.8501 3.1606 20.0301 3.10508 20.2408ZM5.02304 20.7462L10.8121 17.3719C11.0004 17.2621 11.1373 17.0821 11.1928 16.8714C11.2484 16.6607 11.2179 16.4366 11.1082 16.2483L9.70893 13.8478L21.409 13.0969L14.9897 22.9076L13.5905 20.5071C13.4808 20.3188 13.3008 20.1819 13.0901 20.1264C12.8794 20.0708 12.6553 20.1013 12.467 20.211L6.67798 23.5854L5.02304 20.7462Z" fill="white"/>
</g>
<path d="M126.054 24.4687C125.17 24.4687 124.355 24.2856 123.61 23.9194C122.865 23.5405 122.265 22.9722 121.81 22.2145C121.356 21.4567 121.128 20.4969 121.128 19.3351V18.9562C121.128 17.8449 121.343 16.923 121.772 16.1905C122.214 15.458 122.795 14.915 123.515 14.5614C124.235 14.1951 125.018 14.012 125.864 14.012C127.392 14.012 128.56 14.4224 129.369 15.2433C130.19 16.0642 130.6 17.2387 130.6 18.7668V19.8276H123.25C123.275 20.5096 123.42 21.0589 123.686 21.4757C123.951 21.8924 124.292 22.1955 124.709 22.385C125.125 22.5618 125.574 22.6502 126.054 22.6502C126.773 22.6502 127.298 22.5365 127.626 22.3092C127.967 22.0819 128.2 21.7851 128.327 21.4189H130.411C130.208 22.4165 129.71 23.1743 128.914 23.6921C128.131 24.2098 127.178 24.4687 126.054 24.4687ZM125.959 15.8306C125.492 15.8306 125.056 15.9126 124.652 16.0768C124.248 16.241 123.919 16.4999 123.667 16.8535C123.414 17.2071 123.275 17.6807 123.25 18.2743H128.516C128.504 17.6428 128.384 17.1503 128.156 16.7967C127.929 16.4431 127.626 16.1968 127.247 16.0579C126.868 15.9063 126.439 15.8306 125.959 15.8306Z" fill="#26AA9A"/>
<path d="M110.606 24.2604V14.2204H112.538V15.9063C112.778 15.4012 113.17 14.9592 113.713 14.5803C114.256 14.2014 114.956 14.012 115.815 14.012C117.04 14.012 117.962 14.3467 118.581 15.016C119.2 15.6727 119.509 16.6388 119.509 17.9143V24.2604H117.425V18.3879C117.425 17.5418 117.249 16.904 116.895 16.4746C116.541 16.0452 115.96 15.8306 115.152 15.8306C114.571 15.8306 114.098 15.9568 113.731 16.2094C113.378 16.4494 113.113 16.7651 112.936 17.1566C112.772 17.5355 112.69 17.9459 112.69 18.3879V24.2604H110.606Z" fill="#26AA9A"/>
<path d="M103.983 24.4687C103.061 24.4687 102.228 24.2793 101.482 23.9004C100.737 23.5089 100.144 22.9343 99.7018 22.1766C99.2724 21.4062 99.0577 20.4591 99.0577 19.3351V18.9562C99.0577 17.8954 99.2724 16.9987 99.7018 16.2663C100.144 15.5211 100.737 14.9592 101.482 14.5803C102.228 14.2014 103.061 14.012 103.983 14.012C104.918 14.012 105.751 14.2014 106.484 14.5803C107.229 14.9592 107.816 15.5211 108.245 16.2663C108.687 16.9987 108.908 17.8954 108.908 18.9562V19.3351C108.908 20.4591 108.687 21.4062 108.245 22.1766C107.816 22.9343 107.229 23.5089 106.484 23.9004C105.751 24.2793 104.918 24.4687 103.983 24.4687ZM103.983 22.6502C104.463 22.6502 104.918 22.5365 105.347 22.3092C105.776 22.0819 106.124 21.7283 106.389 21.2484C106.654 20.7558 106.787 20.1181 106.787 19.3351V18.9562C106.787 18.2364 106.654 17.6491 106.389 17.1945C106.124 16.7272 105.776 16.3862 105.347 16.1715C104.918 15.9442 104.463 15.8306 103.983 15.8306C103.503 15.8306 103.048 15.9442 102.619 16.1715C102.19 16.3862 101.842 16.7272 101.577 17.1945C101.312 17.6491 101.179 18.2364 101.179 18.9562V19.3351C101.179 20.1181 101.312 20.7558 101.577 21.2484C101.842 21.7283 102.19 22.0819 102.619 22.3092C103.048 22.5365 103.503 22.6502 103.983 22.6502Z" fill="#26AA9A"/>
<path d="M88.0595 24.2604V22.4797L95.1822 12.9701H88.2489V11H97.9101V12.7807L90.7874 22.2903H98.0995V24.2604H88.0595Z" fill="#26AA9A"/>
<path d="M77.537 24.2604V11H79.6208V15.8116C79.7723 15.4959 79.9807 15.2054 80.2459 14.9402C80.5237 14.6624 80.8647 14.4414 81.2688 14.2772C81.6856 14.1004 82.1781 14.012 82.7464 14.012C83.9714 14.012 84.8933 14.3467 85.5122 15.016C86.131 15.6727 86.4404 16.6388 86.4404 17.9143V24.2604H84.3566V18.3879C84.3566 17.5418 84.1798 16.904 83.8262 16.4746C83.4726 16.0453 82.8916 15.8306 82.0834 15.8306C81.5025 15.8306 81.0289 15.9569 80.6626 16.2094C80.309 16.4494 80.0438 16.7651 79.867 17.1566C79.7028 17.5355 79.6208 17.9459 79.6208 18.3879V24.2604H77.537Z" fill="#26AA9A"/>
<path d="M71.5758 24.4687C70.6792 24.4687 69.8709 24.2793 69.1511 23.9004C68.4312 23.5216 67.8629 22.9533 67.4462 22.1955C67.042 21.4378 66.84 20.4843 66.84 19.3351V18.9562C66.84 17.8701 67.0547 16.9608 67.484 16.2284C67.9261 15.4959 68.507 14.9465 69.2268 14.5803C69.9467 14.2014 70.7297 14.012 71.5758 14.012C72.4598 14.012 73.2049 14.1635 73.8111 14.4666C74.4299 14.7697 74.9098 15.1802 75.2508 15.698C75.6044 16.2157 75.8318 16.7967 75.9328 17.4407H73.8111C73.6848 16.9735 73.4575 16.5883 73.1292 16.2852C72.8008 15.9821 72.283 15.8306 71.5758 15.8306C71.1085 15.8306 70.6728 15.9379 70.2687 16.1526C69.8772 16.3673 69.5615 16.7083 69.3216 17.1755C69.0816 17.6302 68.9616 18.2237 68.9616 18.9562V19.3351C68.9616 20.1307 69.0816 20.7748 69.3216 21.2673C69.5615 21.7472 69.8772 22.1008 70.2687 22.3281C70.6728 22.5428 71.1085 22.6502 71.5758 22.6502C72.1694 22.6502 72.6493 22.5176 73.0155 22.2524C73.3817 21.9872 73.647 21.583 73.8111 21.04H75.9328C75.8065 21.7472 75.5413 22.3597 75.1372 22.8775C74.7457 23.3827 74.2468 23.7742 73.6406 24.052C73.0345 24.3298 72.3462 24.4687 71.5758 24.4687Z" fill="#26AA9A"/>
<path d="M61.1554 24.4687C60.2714 24.4687 59.4569 24.2856 58.7117 23.9194C57.9666 23.5405 57.3668 22.9722 56.9121 22.2145C56.4575 21.4567 56.2302 20.4969 56.2302 19.3351V18.9562C56.2302 17.8449 56.4449 16.923 56.8742 16.1905C57.3163 15.458 57.8972 14.915 58.617 14.5614C59.3369 14.1951 60.1199 14.012 60.966 14.012C62.4941 14.012 63.6623 14.4224 64.4705 15.2433C65.2914 16.0642 65.7019 17.2387 65.7019 18.7668V19.8276H58.3518C58.3771 20.5096 58.5223 21.0589 58.7875 21.4757C59.0527 21.8924 59.3937 22.1955 59.8105 22.385C60.2272 22.5618 60.6755 22.6502 61.1554 22.6502C61.8753 22.6502 62.3994 22.5365 62.7277 22.3092C63.0687 22.0819 63.3024 21.7851 63.4286 21.4189H65.5124C65.3104 22.4165 64.8115 23.1743 64.0159 23.6921C63.2329 24.2098 62.2794 24.4687 61.1554 24.4687ZM61.0607 15.8306C60.5935 15.8306 60.1578 15.9126 59.7536 16.0768C59.3495 16.241 59.0212 16.4999 58.7686 16.8535C58.516 17.2071 58.3771 17.6807 58.3518 18.2743H63.6181C63.6055 17.6428 63.4855 17.1503 63.2582 16.7967C63.0308 16.4431 62.7277 16.1968 62.3489 16.0579C61.97 15.9063 61.5406 15.8306 61.0607 15.8306Z" fill="#26AA9A"/>
<path d="M50.4517 24.2604V12.9701H46V11H57.1766V12.9701H52.7249V24.2604H50.4517Z" fill="#26AA9A"/>
<defs>
<clipPath id="clip0_296_209">
<rect width="34" height="40" fill="white" transform="matrix(0 1 -1 0 40 1)"/>
</clipPath>
</defs>
</svg>
