<svg width="64" height="64" viewBox="0 0 64 64" fill="none" xmlns="http://www.w3.org/2000/svg">
<circle cx="32" cy="32" r="32" fill="white"/>
<path d="M20.3772 35.2251C20.4559 35.2167 20.5356 35.2092 20.6153 35.2054C21.4806 35.0901 22.2437 34.6692 22.8278 34.0213C23.3012 33.5048 23.6106 32.8813 23.7897 32.1501C23.9406 31.5773 23.9687 30.9379 23.8731 30.306C23.7297 29.0423 23.2337 27.8507 22.3872 26.8017C22.1209 26.4679 21.8144 26.1342 21.4694 25.8445C20.6987 25.1882 19.9075 24.8151 19.0534 24.6079C18.489 24.4973 17.965 24.457 17.4165 24.5451C16.5503 24.696 15.8228 25.0767 15.2387 25.7207C14.7662 26.241 14.425 26.9451 14.289 27.7157C14.2019 28.1207 14.1587 28.522 14.1897 28.9195L14.1981 29.0385C14.2103 29.1576 14.2178 29.2767 14.23 29.3957L14.2375 29.511C14.3528 30.4213 14.6631 31.2717 15.1272 32.0704C15.4975 32.6779 15.9465 33.2385 16.4631 33.7148C17.1944 34.371 17.9884 34.8238 18.8425 35.0301C19.3787 35.2251 19.9 35.2607 20.3772 35.2251Z" fill="#D3DEFF"/>
<path d="M21.4767 23.0742C21.7158 24.0285 22.1133 24.862 22.6298 25.5782C23.1455 26.2926 23.7023 26.8092 24.3773 27.2067C24.9342 27.5648 25.5295 27.7635 26.1661 27.8029H26.4839C27.1195 27.8029 27.7158 27.6435 28.2314 27.2863C28.7489 27.0079 29.2252 26.571 29.6227 26.0545C30.1786 25.3392 30.5367 24.4654 30.6952 23.4323C30.7355 22.9954 30.7748 22.5576 30.7748 22.0813C30.7748 21.7232 30.7355 21.366 30.6952 21.0079C30.6164 20.3723 30.457 19.777 30.2189 19.1807C29.8214 18.187 29.2655 17.3526 28.5502 16.717C28.0336 16.2407 27.4767 15.8826 26.8805 15.6838C26.1258 15.4054 25.3711 15.366 24.6164 15.5648C23.9011 15.7232 23.2655 16.1207 22.7086 16.717C22.2323 17.2335 21.9145 17.7904 21.6361 18.4654C21.3577 19.2604 21.1992 20.0948 21.1992 21.0482C21.1992 21.2067 21.2386 21.366 21.2386 21.6042C21.2789 22.0813 21.3577 22.5979 21.4767 23.0742Z" fill="#D3DEFF"/>
<path d="M32.7569 24.9419C33.0353 25.7369 33.4328 26.3725 33.9888 26.8891C34.7041 27.565 35.5384 27.9625 36.4919 28.0019H36.7309C37.2072 28.0019 37.6441 27.8829 38.1213 27.8829C38.7962 27.6044 39.3925 27.2069 39.9887 26.651C40.585 26.0547 41.0612 25.3797 41.4194 24.6241C41.9359 23.5516 42.2134 22.4388 42.2537 21.2472C42.2537 20.5713 42.2134 19.8963 42.055 19.3C41.8563 18.4657 41.5778 17.7907 41.1409 17.1944C40.4256 16.2007 39.4722 15.6447 38.3594 15.4854C38.32 15.4854 38.32 15.4854 38.2797 15.4854H37.3666C36.85 15.565 36.2931 15.7235 35.8169 16.0019C35.1803 16.36 34.585 16.8766 34.0684 17.5122C33.5116 18.1872 33.115 18.9822 32.7972 19.856C32.5188 20.651 32.3997 21.4854 32.3594 22.3197C32.3594 22.6779 32.3594 23.035 32.3997 23.3922C32.4784 23.9491 32.5984 24.4657 32.7569 24.9419Z" fill="#D3DEFF"/>
<path d="M49.7396 27.7157C49.6046 26.9451 49.2624 26.241 48.7862 25.7207C48.2021 25.0767 47.4793 24.696 46.613 24.5451C46.0609 24.457 45.5396 24.4973 44.9715 24.6079C44.1174 24.8151 43.3309 25.1882 42.5602 25.8445C42.2143 26.1342 41.9077 26.4679 41.6415 26.8017C40.7959 27.8507 40.299 29.0423 40.1518 30.306C40.0609 30.9379 40.088 31.5773 40.239 32.1501C40.418 32.8813 40.7246 33.5048 41.2009 34.0213C41.7849 34.6692 42.548 35.0901 43.4143 35.2054C43.494 35.2092 43.5727 35.2167 43.6524 35.2251C44.1296 35.2607 44.6499 35.2251 45.1824 35.0301C46.0365 34.8238 46.8315 34.371 47.5665 33.7148C48.083 33.2385 48.5284 32.6779 48.8977 32.0704C49.3618 31.2717 49.6721 30.4213 49.7874 29.511L49.7996 29.3957C49.8071 29.2767 49.8193 29.1576 49.8268 29.0385L49.839 28.9195C49.8709 28.522 49.823 28.1207 49.7396 27.7157Z" fill="#D3DEFF"/>
<path d="M42.9732 38.3723C42.4566 37.6176 41.821 36.9023 41.0663 36.2666C40.5498 35.7895 40.0332 35.2729 39.5963 34.717C39.1191 34.1207 38.6823 33.4851 38.3251 32.9282L38.0466 32.4913C37.7682 32.0545 37.4897 31.657 37.2122 31.2201C36.7754 30.5845 36.3779 30.0679 35.941 29.6704C35.1854 28.9551 34.3116 28.4779 33.3179 28.2398C32.6823 28.0813 32.0073 28.041 31.3716 28.041C30.7754 28.041 30.1791 28.1601 29.6232 28.3991C28.9473 28.6766 28.351 29.1145 27.7154 29.7098C27.3582 30.0679 26.9607 30.5048 26.5632 31.0213C26.1666 31.5379 25.8085 32.0545 25.4513 32.571L25.2526 32.8888C24.7754 33.5245 24.2982 34.2398 23.7423 34.8754C23.266 35.4313 22.8282 35.8691 22.3913 36.2666C21.8354 36.7429 21.2785 37.2998 20.8416 37.8951C20.206 38.7295 19.7288 39.6435 19.4119 40.5576C19.2132 41.1932 19.0932 41.8288 19.0538 42.4645C19.0144 43.0213 19.0538 43.6166 19.1729 44.1332C19.4907 45.6041 20.2454 46.7957 21.4773 47.6695C22.1926 48.186 22.9876 48.5038 23.9016 48.5835C24.0207 48.6238 24.1004 48.6238 24.2194 48.6238H24.8157C25.1729 48.6238 25.5301 48.5835 25.8085 48.5441C26.6035 48.3848 27.3976 48.186 28.1129 47.9873H28.1532C28.8282 47.8288 29.5041 47.6301 30.1791 47.511C30.4576 47.4707 30.8148 47.392 31.1729 47.392C31.6491 47.392 32.086 47.392 32.4835 47.4313C33.0404 47.511 33.676 47.6301 34.351 47.7885C34.6688 47.8682 35.0269 47.9873 35.3448 48.067C35.7816 48.186 36.2588 48.306 36.7351 48.4251C37.2123 48.5441 37.7288 48.6632 38.2847 48.6632H39.2382C39.3179 48.6632 39.3582 48.6238 39.4369 48.5038C39.676 48.5038 39.9535 48.4645 40.1916 48.3848C40.8282 48.2263 41.4638 47.9479 42.0601 47.511C42.8541 46.9551 43.4907 46.2388 43.8873 45.4045C44.3241 44.4913 44.5229 43.537 44.4835 42.4645C44.4441 41.8682 44.3241 41.1932 44.086 40.5576C43.8479 39.802 43.4907 39.0876 42.9732 38.3723Z" fill="#D3DEFF"/>
</svg>
