<svg width="22" height="20" viewBox="0 0 22 20" fill="none" xmlns="http://www.w3.org/2000/svg">
<path d="M1.83274 17.3744C3.16479 19 5.6424 19 10.5987 19H11.4002C16.3565 19 18.8352 19 20.1673 17.3744M1.83274 17.3744C0.500695 15.7476 0.958031 13.2794 1.87159 8.34062C2.52097 4.83062 2.8451 3.0745 4.07835 2.03725M20.1673 17.3744C21.4993 15.7476 21.042 13.2794 20.1284 8.34062C19.479 4.83062 19.1538 3.0745 17.9205 2.03725M17.9205 2.03725C16.6884 1 14.9245 1 11.4002 1H10.5987C7.07435 1 5.3116 1 4.07835 2.03725" stroke="#2F2F2F" stroke-width="1.5"/>
<path d="M8 5C8.21901 5.58482 8.62517 6.09123 9.16247 6.44943C9.69978 6.80764 10.3418 7 11 7C11.6582 7 12.3002 6.80764 12.8375 6.44943C13.3748 6.09123 13.781 5.58482 14 5" stroke="#2F2F2F" stroke-width="1.5" stroke-linecap="round"/>
</svg>
