<svg width="32" height="32" viewBox="0 0 32 32" fill="none" xmlns="http://www.w3.org/2000/svg">
<path d="M9.33398 15.9999L16.0007 22.6666L29.334 9.33325" stroke="#5C72EE" stroke-width="1.6" stroke-linecap="round" stroke-linejoin="round"/>
<path d="M3.23365 15.4345C2.92123 15.1221 2.4147 15.1221 2.10228 15.4345C1.78986 15.7469 1.78986 16.2534 2.10228 16.5658L3.23365 15.4345ZM8.76895 23.2325C9.08137 23.5449 9.5879 23.5449 9.90032 23.2325C10.2127 22.9201 10.2127 22.4136 9.90032 22.1011L8.76895 23.2325ZM15.4356 15.4345C15.1232 15.7469 15.1232 16.2534 15.4356 16.5658C15.748 16.8783 16.2546 16.8783 16.567 16.5658L15.4356 15.4345ZM23.2337 9.89918C23.5461 9.58676 23.5461 9.08023 23.2337 8.76781C22.9212 8.45539 22.4147 8.45539 22.1023 8.76781L23.2337 9.89918ZM2.10228 16.5658L8.76895 23.2325L9.90032 22.1011L3.23365 15.4345L2.10228 16.5658ZM16.567 16.5658L23.2337 9.89918L22.1023 8.76781L15.4356 15.4345L16.567 16.5658Z" fill="#5C72EE"/>
</svg>
