<svg width="14" height="14" viewBox="0 0 14 14" fill="none" xmlns="http://www.w3.org/2000/svg">
<g clip-path="url(#clip0_31_343)">
<path d="M2.95611 7.48945C2.61555 8.15889 3.00222 8.47889 3.88444 9.02556C4.63444 9.48889 5.67055 9.65833 6.33611 9.72611C6.06333 9.98833 7.31333 8.78611 3.71333 12.2489C2.95 12.9806 4.17889 14.1544 4.94166 13.4383L7.00666 11.4467C7.79722 12.2072 8.555 12.9361 9.07166 13.4411C9.835 14.16 11.0633 12.9961 10.3083 12.2517C10.2517 12.1978 7.51 9.56778 7.67722 9.72889C8.35111 9.66111 9.37167 9.48167 10.1128 9.02833L10.1122 9.02778C10.9944 8.47833 11.3811 8.15889 11.0456 7.48945C10.8428 7.10945 10.2961 6.79167 9.56833 7.34111C9.56833 7.34111 8.58555 8.09389 7.00055 8.09389C5.415 8.09389 4.43278 7.34111 4.43278 7.34111C3.70555 6.78889 3.15666 7.10945 2.95611 7.48945Z" fill="#1E222E"/>
<path d="M6.99945 7.0789C8.93167 7.0789 10.5094 5.5689 10.5094 3.71001C10.5094 1.84334 8.93167 0.333344 6.99945 0.333344C5.06667 0.333344 3.48889 1.84334 3.48889 3.71001C3.48889 5.5689 5.06667 7.0789 6.99945 7.0789ZM6.99945 2.0439C7.94889 2.0439 8.72334 2.7889 8.72334 3.71001C8.72334 4.62334 7.94889 5.36834 6.99945 5.36834C6.05 5.36834 5.27556 4.62334 5.27556 3.71001C5.275 2.78834 6.04945 2.0439 6.99945 2.0439Z" fill="#1E222E"/>
</g>
<defs>
<clipPath id="clip0_31_343">
<rect width="13.3333" height="13.3333" fill="white" transform="translate(0.333344 0.333344)"/>
</clipPath>
</defs>
</svg>
