<svg width="16" height="16" viewBox="0 0 16 16" fill="none" xmlns="http://www.w3.org/2000/svg">
<g clip-path="url(#clip0_31_354)">
<path d="M15.2443 3.18214C15.1788 2.56087 14.902 1.98092 14.4602 1.53925C14.0184 1.09759 13.4383 0.820998 12.817 0.755722C9.61596 0.412521 6.38739 0.412521 3.18633 0.755722C2.56442 0.820263 1.98358 1.09653 1.54107 1.53826C1.09857 1.97999 0.821281 2.56035 0.755649 3.18214C0.413889 6.3847 0.413889 9.61453 0.755649 12.8171C0.821874 13.4382 1.09889 14.0178 1.54054 14.4595C1.9822 14.9011 2.56184 15.1781 3.18292 15.2444C6.38398 15.5876 9.61255 15.5876 12.8136 15.2444C13.4353 15.1789 14.0157 14.9022 14.4581 14.4605C14.9004 14.0187 15.1779 13.4387 15.2443 12.8171C15.586 9.61453 15.586 6.3847 15.2443 3.18214ZM12.2383 10.6821C12.0201 10.7128 10.9531 10.6821 10.8977 10.6821C10.6212 10.6853 10.3547 10.579 10.1562 10.3864C9.93122 10.1691 9.73008 9.93044 9.5102 9.70459C9.4454 9.63526 9.37499 9.57141 9.29968 9.51368C9.12412 9.37902 8.95025 9.4097 8.86758 9.6168C8.80299 9.8406 8.75793 10.0696 8.73292 10.3012C8.71843 10.51 8.58548 10.6421 8.35025 10.6557C8.20451 10.6642 8.05877 10.6668 7.91474 10.6634C7.38976 10.6598 6.87309 10.5318 6.40707 10.2901C5.90279 10.0094 5.4634 9.62546 5.11758 9.16339C4.54912 8.43726 4.09485 7.63953 3.68917 6.81709C3.66787 6.77532 3.25196 5.89152 3.24173 5.8489C3.20423 5.70998 3.24173 5.57618 3.35679 5.5293C3.43008 5.50118 4.80054 5.5293 4.82355 5.5293C4.92547 5.52874 5.02495 5.56054 5.10765 5.62011C5.19036 5.67969 5.25202 5.76398 5.28377 5.86084C5.53712 6.50952 5.88397 7.11766 6.31332 7.66595C6.37344 7.739 6.44376 7.80301 6.52213 7.85601C6.63377 7.93271 6.73946 7.90629 6.78548 7.77674C6.84009 7.5982 6.87215 7.41353 6.88093 7.22703C6.8886 6.85714 6.88093 6.61424 6.86048 6.24436C6.84684 6.00743 6.76332 5.80032 6.41389 5.73299C6.3065 5.71339 6.29713 5.62476 6.36616 5.53612C6.5102 5.35288 6.70707 5.32305 6.92781 5.31282C7.25679 5.29322 7.58576 5.30601 7.91474 5.31282H7.98633C8.1295 5.3116 8.27238 5.32589 8.41247 5.35544C8.49525 5.37261 8.57033 5.41592 8.62664 5.47899C8.68295 5.54205 8.71752 5.62153 8.72525 5.70572C8.74218 5.79904 8.74932 5.89387 8.74656 5.98868C8.73804 6.3918 8.71843 6.79578 8.71417 7.1989C8.71021 7.35886 8.72479 7.51873 8.75764 7.67532C8.80451 7.89095 8.95196 7.94379 9.09855 7.78868C9.28852 7.5889 9.46262 7.37461 9.61929 7.14777C9.89677 6.7334 10.1256 6.28841 10.3011 5.82163C10.3966 5.58214 10.4716 5.5293 10.7272 5.5293H12.1812C12.2677 5.52778 12.3539 5.53928 12.4369 5.56339C12.4663 5.57112 12.4938 5.58482 12.5176 5.60366C12.5415 5.6225 12.5612 5.64605 12.5755 5.67285C12.5898 5.69966 12.5984 5.72913 12.6008 5.75942C12.6032 5.78971 12.5994 5.82018 12.5895 5.8489C12.5179 6.16851 12.3457 6.43953 12.1633 6.70118C11.8676 7.11964 11.5556 7.52788 11.2531 7.94123C11.2146 7.99581 11.1796 8.05274 11.1483 8.11169C11.0341 8.31708 11.0426 8.43214 11.2079 8.6026C11.4721 8.87447 11.7542 9.12845 12.0091 9.40799C12.196 9.61138 12.3648 9.83068 12.5136 10.0634C12.7003 10.3532 12.5852 10.6293 12.2375 10.6787L12.2383 10.6821Z" fill="#1E222E"/>
</g>
<defs>
<clipPath id="clip0_31_354">
<rect width="15" height="15" fill="white" transform="translate(0.5 0.5)"/>
</clipPath>
</defs>
</svg>
