<svg width="22" height="20" viewBox="0 0 22 20" fill="none" xmlns="http://www.w3.org/2000/svg">
<path d="M21.7848 4.70581C21.1692 2.13551 19.2581 0.330639 16.8519 0.0518751C14.4673 -0.226888 12.6809 0.883441 11.3336 2.9718C11.2217 3.14662 11.1227 3.32616 10.9979 3.53878C10.9462 3.45846 10.9075 3.39231 10.8688 3.32144C10.0897 1.95597 9.08243 0.883441 7.67488 0.344813C4.54126 -0.845838 0.710327 1.10078 0.0818816 5.35311C-0.223732 7.44147 0.344451 9.26052 1.48082 10.9048C2.30727 12.1001 3.28007 13.1443 4.33465 14.094C6.39216 15.9461 8.4755 17.7699 10.5459 19.6031C10.6923 19.7307 10.8343 19.8583 10.9936 20C11.0496 19.9528 11.1055 19.9102 11.1615 19.863C13.1975 18.0676 15.2464 16.2863 17.2694 14.472C18.4575 13.4089 19.5809 12.2655 20.515 10.9142C21.2381 9.86529 21.7676 8.72189 21.9397 7.40367C21.957 7.26665 21.9828 7.12491 22 6.98789V5.90591C21.9268 5.5043 21.8795 5.09797 21.7848 4.70581Z" fill="#AC8361"/>
</svg>
