<svg width="20" height="20" viewBox="0 0 20 20" fill="none" xmlns="http://www.w3.org/2000/svg">
<g clip-path="url(#clip0_4_170)">
<path d="M10.0025 0H9.9975C4.48375 0 0 4.485 0 10C0 12.1875 0.705 14.215 1.90375 15.8612L0.6575 19.5763L4.50125 18.3475C6.0825 19.395 7.96875 20 10.0025 20C15.5162 20 20 15.5138 20 10C20 4.48625 15.5162 0 10.0025 0Z" fill="white" fill-opacity="0.2"/>
<path d="M15.8213 14.1213C15.5801 14.8026 14.6226 15.3676 13.8588 15.5326C13.3363 15.6438 12.6538 15.7326 10.3563 14.7801C7.41756 13.5626 5.52506 10.5763 5.37756 10.3826C5.23631 10.1888 4.19006 8.80132 4.19006 7.36632C4.19006 5.93132 4.91881 5.23257 5.21256 4.93257C5.45381 4.68632 5.85256 4.57382 6.23506 4.57382C6.35881 4.57382 6.47006 4.58007 6.57006 4.58507C6.86381 4.59757 7.01131 4.61507 7.20506 5.07882C7.44631 5.66007 8.03381 7.09507 8.10381 7.24257C8.17506 7.39007 8.24631 7.59007 8.14631 7.78382C8.05256 7.98382 7.97006 8.07257 7.82256 8.24257C7.67506 8.41257 7.53506 8.54257 7.38756 8.72507C7.25256 8.88382 7.10006 9.05382 7.27006 9.34757C7.44006 9.63507 8.02756 10.5938 8.89256 11.3638C10.0088 12.3576 10.9138 12.6751 11.2376 12.8101C11.4788 12.9101 11.7663 12.8863 11.9426 12.6988C12.1663 12.4576 12.4426 12.0576 12.7238 11.6638C12.9238 11.3813 13.1763 11.3463 13.4413 11.4463C13.7113 11.5401 15.1401 12.2463 15.4338 12.3926C15.7276 12.5401 15.9213 12.6101 15.9926 12.7338C16.0626 12.8576 16.0626 13.4388 15.8213 14.1213Z" fill="#23252E"/>
</g>
<defs>
<clipPath id="clip0_4_170">
<rect width="20" height="20" fill="white"/>
</clipPath>
</defs>
</svg>
