<svg width="20" height="20" viewBox="0 0 20 20" fill="none" xmlns="http://www.w3.org/2000/svg">
<g clip-path="url(#clip0_4_159)">
<path d="M18.7576 9.5944C18.7592 9.5944 18.7604 9.5944 18.762 9.5944C18.8736 9.5944 18.98 9.5476 19.0556 9.4656C19.1324 9.3824 19.1704 9.2708 19.1604 9.158C18.7588 4.7408 15.2616 1.2424 10.844 0.840004C10.732 0.831204 10.6192 0.867604 10.536 0.944804C10.4528 1.0216 10.4064 1.13 10.4076 1.2432C10.4772 7.1136 11.2516 9.5124 18.7576 9.5944ZM18.7576 10.4056C11.2516 10.4876 10.4776 12.8864 10.408 18.7568C10.4068 18.87 10.4532 18.9784 10.5364 19.0552C10.6108 19.1236 10.708 19.1616 10.808 19.1616C10.82 19.1616 10.8324 19.1612 10.8444 19.16C15.262 18.7576 18.7592 15.2596 19.1604 10.842C19.1704 10.7292 19.1328 10.6176 19.0556 10.5344C18.9784 10.4512 18.8708 10.41 18.7576 10.4056ZM9.1292 0.842004C4.7256 1.256 1.2396 4.7536 0.840001 9.1588C0.830001 9.2716 0.867601 9.3832 0.944801 9.4664C1.0204 9.5484 1.1272 9.5948 1.2384 9.5948C1.24 9.5948 1.2416 9.5948 1.2432 9.5948C8.7244 9.5088 9.4968 7.1112 9.5672 1.2448C9.5684 1.1316 9.5216 1.0228 9.4384 0.946004C9.3544 0.869204 9.242 0.831604 9.1292 0.842004ZM1.2428 10.4052C1.1184 10.3912 1.0208 10.4504 0.944401 10.5336C0.867601 10.6168 0.829601 10.7284 0.839601 10.8412C1.2392 15.2464 4.7256 18.744 9.1292 19.158C9.1416 19.1592 9.1544 19.1596 9.1668 19.1596C9.2668 19.1596 9.3636 19.122 9.438 19.0536C9.5212 18.9768 9.568 18.868 9.5668 18.7548C9.4964 12.8888 8.7244 10.4912 1.2428 10.4052Z" fill="white" fill-opacity="0.2"/>
</g>
<defs>
<clipPath id="clip0_4_159">
<rect width="20" height="20" fill="white"/>
</clipPath>
</defs>
</svg>
